<svg viewBox="0 0 682 427" xmlns="http://www.w3.org/2000/svg">
  <style>
    .chart-text{font-family:-apple-system,sans-serif;font-size:14px;fill:#374151}
    .axis-title{font-family:-apple-system,sans-serif;font-size:16px;font-weight:300;fill:#374151}
    .x-label{font-family:-apple-system,sans-serif;font-size:12px;fill:#6B7280}
  </style>
  <defs>
    <clipPath id="chart-area">
      <rect x="100" y="50" width="600" height="400"/>
    </clipPath>
  </defs>
  <!-- Grid lines -->
  <g stroke="#e0e0e0">
    <line x1="82" y1="405" x2="682" y2="405"/>
    <line x1="82" y1="305" x2="682" y2="305"/>
    <line x1="82" y1="205" x2="682" y2="205"/>
    <line x1="82" y1="105" x2="682" y2="105"/>
    <line x1="82" y1="5" x2="682" y2="5"/>
  </g>
  <!-- Bars -->
  <g clip-path="url(#chart-area)" transform="translate(-18,-45)">
    <rect x="140" y="300" width="40" height="150" fill="#ff8b5a"/>
    <rect x="185" y="365" width="40" height="85" fill="#999"/>
    <rect x="275" y="235" width="40" height="215" fill="#ff8b5a"/>
    <rect x="320" y="330" width="40" height="120" fill="#999"/>
    <rect x="410" y="70" width="40" height="380" fill="#ff8b5a"/>
    <rect x="455" y="210" width="40" height="240" fill="#999"/>
    <rect x="545" y="185" width="40" height="265" fill="#ff8b5a"/>
    <rect x="590" y="285" width="40" height="165" fill="#999"/>
  </g>
  <!-- Chart border -->
  <rect x="82" y="5" width="600" height="400" fill="none" stroke="#777"/>
  <!-- Y-axis labels -->
  <g class="chart-text" text-anchor="end">
    <text x="77" y="410">0</text>
    <text x="77" y="310">100</text>
    <text x="77" y="210">200</text>
    <text x="77" y="110">300</text>
    <text x="77" y="10">400</text>
  </g>
  <!-- Y-axis title -->
  <text x="-205" y="12" text-anchor="middle" class="axis-title" transform="rotate(-90)">Inference speed, 1x MI300x GPU (tok/s)</text>
  <!-- X-axis labels -->
  <g class="x-label" text-anchor="middle">
    <text x="167" y="425">Input(m=10)</text>
    <text x="302" y="425">Output(m=10)</text>
    <text x="437" y="425">Input(m=64)</text>
    <text x="572" y="425">Output(m=64)</text>
  </g>
  <!-- Legend -->
  <rect x="482" y="35" width="18" height="18" fill="#ff8b5a"/>
  <text x="507" y="48" class="chart-text">Petit(FP4)</text>
  <rect x="602" y="35" width="18" height="18" fill="#999"/>
  <text x="627" y="48" class="chart-text">BF16</text>
</svg>