<svg version="1.1" viewBox="0.0 0.0 638.0 310.0" fill="none" stroke="none" stroke-linecap="square" stroke-miterlimit="10" width="638" height="310" xmlns:xlink="http://www.w3.org/1999/xlink" xmlns="http://www.w3.org/2000/svg"><path fill="#ffffff" d="M0 0L638.0 0L638.0 310.0L0 310.0L0 0Z" fill-rule="nonzero"/><path stroke="#333333" stroke-width="1.0" stroke-linecap="butt" d="M111.5 285.5L622.5 285.5" fill-rule="nonzero"/><path stroke="#cccccc" stroke-width="1.0" stroke-linecap="butt" d="M111.5 245.5L622.5 245.5" fill-rule="nonzero"/><path stroke="#cccccc" stroke-width="1.0" stroke-linecap="butt" d="M111.5 205.5L622.5 205.5" fill-rule="nonzero"/><path stroke="#cccccc" stroke-width="1.0" stroke-linecap="butt" d="M111.5 166.5L622.5 166.5" fill-rule="nonzero"/><path stroke="#cccccc" stroke-width="1.0" stroke-linecap="butt" d="M111.5 126.5L622.5 126.5" fill-rule="nonzero"/><path stroke="#cccccc" stroke-width="1.0" stroke-linecap="butt" d="M111.5 86.5L622.5 86.5" fill-rule="nonzero"/><clipPath id="id_0"><path d="M111.5 86.666664L622.5 86.666664L622.5 285.0L111.5 285.0L111.5 86.666664Z" clip-rule="nonzero"/></clipPath><path stroke="#000000" stroke-width="2.0" stroke-linecap="butt" stroke-opacity="0.0" clip-path="url(#id_0)" d="M325.0 285.0L245.0 285.0L245.0 271.0C245.0 269.89542 245.89543 269.0 247.0 269.0L323.0 269.0C324.10458 269.0 325.0 269.89542 325.0 271.0Z" fill-rule="nonzero"/><path fill="#4285f4" clip-path="url(#id_0)" d="M325.0 285.0L245.0 285.0L245.0 271.0C245.0 269.89542 245.89543 269.0 247.0 269.0L323.0 269.0C324.10458 269.0 325.0 269.89542 325.0 271.0Z" fill-rule="nonzero"/><path stroke="#000000" stroke-width="2.0" stroke-linecap="butt" stroke-opacity="0.0" clip-path="url(#id_0)" d="M407.0 285.0L327.0 285.0L327.0 191.0C327.0 189.89543 327.89542 189.0 329.0 189.0L405.0 189.0C406.10458 189.0 407.0 189.89543 407.0 191.0Z" fill-rule="nonzero"/><path fill="#ea4335" clip-path="url(#id_0)" d="M407.0 285.0L327.0 285.0L327.0 191.0C327.0 189.89543 327.89542 189.0 329.0 189.0L405.0 189.0C406.10458 189.0 407.0 189.89543 407.0 191.0Z" fill-rule="nonzero"/><path stroke="#000000" stroke-width="2.0" stroke-linecap="butt" stroke-opacity="0.0" clip-path="url(#id_0)" d="M489.0 285.0L409.0 285.0L409.0 105.0C409.0 103.89543 409.89542 103.0 411.0 103.0L487.0 103.0C488.10458 103.0 489.0 103.89543 489.0 105.0Z" fill-rule="nonzero"/><path fill="#fbbc04" clip-path="url(#id_0)" d="M489.0 285.0L409.0 285.0L409.0 105.0C409.0 103.89543 409.89542 103.0 411.0 103.0L487.0 103.0C488.10458 103.0 489.0 103.89543 489.0 105.0Z" fill-rule="nonzero"/><path fill="#000000" d="M24.921875 280.0521Q22.0625 280.0521 20.453125 278.52084Q18.84375 276.9896 18.84375 274.56772Q18.84375 272.9896 19.609375 271.72397Q20.359375 270.44272 21.71875 269.77084Q23.0625 269.09897 24.78125 269.09897Q26.53125 269.09897 27.90625 269.8021Q29.28125 270.50522 30.0 271.8021Q30.703125 273.08334 30.703125 274.58334Q30.703125 276.19272 29.921875 277.47397Q29.125 278.7396 27.78125 279.39584Q26.421875 280.0521 24.921875 280.0521ZM24.9375 278.4896Q27.015625 278.4896 28.203125 277.38022Q29.390625 276.27084 29.390625 274.58334Q29.390625 272.88022 28.1875 271.77084Q26.984375 270.66147 24.78125 270.66147Q23.375 270.66147 22.34375 271.14584Q21.296875 271.6146 20.71875 272.52084Q20.140625 273.4271 20.140625 274.56772Q20.140625 276.1771 21.25 277.33334Q22.359375 278.4896 24.9375 278.4896ZM30.5 262.33334L29.28125 262.33334Q30.6875 263.3021 30.6875 264.97397Q30.6875 265.70834 30.40625 266.34897Q30.125 266.97397 29.703125 267.28647Q29.265625 267.59897 28.65625 267.72397Q28.234375 267.8021 27.34375 267.8021L22.203125 267.8021L22.203125 266.39584L26.796875 266.39584Q27.90625 266.39584 28.28125 266.31772Q28.84375 266.1771 29.15625 265.75522Q29.46875 265.31772 29.46875 264.69272Q29.46875 264.0521 29.15625 263.50522Q28.828125 262.94272 28.265625 262.72397Q27.703125 262.4896 26.640625 262.4896L22.203125 262.4896L22.203125 261.08334L30.5 261.08334L30.5 262.33334ZM29.234375 256.70834L30.484375 256.50522Q30.609375 257.09897 30.609375 257.56772Q30.609375 258.33334 30.375 258.75522Q30.125 259.1771 29.734375 259.34897Q29.328125 259.52084 28.0625 259.52084L23.296875 259.52084L23.296875 260.5521L22.203125 260.5521L22.203125 259.52084L20.140625 259.52084L19.296875 258.1146L22.203125 258.1146L22.203125 256.70834L23.296875 256.70834L23.296875 258.1146L28.140625 258.1146Q28.75 258.1146 28.921875 258.0521Q29.09375 257.97397 29.203125 257.8021Q29.296875 257.63022 29.296875 257.31772Q29.296875 257.08334 29.234375 256.70834ZM33.6875 255.77084L22.203125 255.77084L22.203125 254.4896L23.28125 254.4896Q22.640625 254.03647 22.328125 253.47397Q22.015625 252.89584 22.015625 252.08334Q22.015625 251.02084 22.5625 250.20834Q23.109375 249.39584 24.109375 248.9896Q25.09375 248.56772 26.28125 248.56772Q27.5625 248.56772 28.578125 249.03647Q29.59375 249.4896 30.140625 250.3646Q30.6875 251.22397 30.6875 252.19272Q30.6875 252.89584 30.390625 253.45834Q30.09375 254.00522 29.640625 254.3646L33.6875 254.3646L33.6875 255.77084ZM26.390625 254.50522Q28.0 254.50522 28.765625 253.8646Q29.53125 253.20834 29.53125 252.28647Q29.53125 251.34897 28.734375 250.6771Q27.9375 250.00522 26.28125 250.00522Q24.6875 250.00522 23.90625 250.66147Q23.109375 251.31772 23.109375 252.22397Q23.109375 253.1146 23.953125 253.81772Q24.796875 254.50522 26.390625 254.50522ZM30.5 241.33334L29.28125 241.33334Q30.6875 242.3021 30.6875 243.97397Q30.6875 244.70834 30.40625 245.34897Q30.125 245.97397 29.703125 246.28647Q29.265625 246.59897 28.65625 246.72397Q28.234375 246.8021 27.34375 246.8021L22.203125 246.8021L22.203125 245.39584L26.796875 245.39584Q27.90625 245.39584 28.28125 245.31772Q28.84375 245.1771 29.15625 244.75522Q29.46875 244.31772 29.46875 243.69272Q29.46875 243.0521 29.15625 242.50522Q28.828125 241.94272 28.265625 241.72397Q27.703125 241.4896 26.640625 241.4896L22.203125 241.4896L22.203125 240.08334L30.5 240.08334L30.5 241.33334ZM29.234375 235.70834L30.484375 235.50522Q30.609375 236.09897 30.609375 236.56772Q30.609375 237.33334 30.375 237.75522Q30.125 238.1771 29.734375 238.34897Q29.328125 238.52084 28.0625 238.52084L23.296875 238.52084L23.296875 239.5521L22.203125 239.5521L22.203125 238.52084L20.140625 238.52084L19.296875 237.1146L22.203125 237.1146L22.203125 235.70834L23.296875 235.70834L23.296875 237.1146L28.140625 237.1146Q28.75 237.1146 28.921875 237.0521Q29.09375 236.97397 29.203125 236.8021Q29.296875 236.63022 29.296875 236.31772Q29.296875 236.08334 29.234375 235.70834ZM30.5 227.6771L20.390625 227.6771L20.390625 231.45834L19.046875 231.45834L19.046875 222.38022L20.390625 222.38022L20.390625 226.16147L30.5 226.16147L30.5 227.6771ZM30.5 221.77084L19.046875 221.77084L19.046875 220.3646L23.15625 220.3646Q22.015625 219.38022 22.015625 217.88022Q22.015625 216.95834 22.375 216.28647Q22.734375 215.59897 23.375 215.31772Q24.015625 215.02084 25.234375 215.02084L30.5 215.02084L30.5 216.4271L25.234375 216.4271Q24.1875 216.4271 23.703125 216.88022Q23.21875 217.33334 23.21875 218.1771Q23.21875 218.8021 23.546875 219.34897Q23.875 219.89584 24.4375 220.13022Q24.984375 220.3646 25.953125 220.3646L30.5 220.3646L30.5 221.77084ZM30.5 213.78647L22.203125 213.78647L22.203125 212.52084L23.453125 212.52084Q22.578125 212.03647 22.296875 211.63022Q22.015625 211.22397 22.015625 210.72397Q22.015625 210.02084 22.46875 209.28647L23.765625 209.77084Q23.46875 210.28647 23.46875 210.8021Q23.46875 211.25522 23.75 211.63022Q24.015625 211.9896 24.515625 212.14584Q25.265625 212.38022 26.15625 212.38022L30.5 212.38022L30.5 213.78647ZM26.34375 209.3021Q24.046875 209.3021 22.9375 208.02084Q22.015625 206.94272 22.015625 205.41147Q22.015625 203.69272 23.140625 202.6146Q24.25 201.52084 26.234375 201.52084Q27.828125 201.52084 28.75 202.00522Q29.671875 202.4896 30.1875 203.41147Q30.6875 204.31772 30.6875 205.41147Q30.6875 207.14584 29.578125 208.22397Q28.453125 209.3021 26.34375 209.3021ZM26.34375 207.84897Q27.9375 207.84897 28.734375 207.16147Q29.53125 206.45834 29.53125 205.41147Q29.53125 204.3646 28.734375 203.6771Q27.9375 202.97397 26.296875 202.97397Q24.765625 202.97397 23.96875 203.6771Q23.171875 204.3646 23.171875 205.41147Q23.171875 206.45834 23.96875 207.16147Q24.75 207.84897 26.34375 207.84897ZM30.5 194.33334L29.28125 194.33334Q30.6875 195.3021 30.6875 196.97397Q30.6875 197.70834 30.40625 198.34897Q30.125 198.97397 29.703125 199.28647Q29.265625 199.59897 28.65625 199.72397Q28.234375 199.8021 27.34375 199.8021L22.203125 199.8021L22.203125 198.39584L26.796875 198.39584Q27.90625 198.39584 28.28125 198.31772Q28.84375 198.1771 29.15625 197.75522Q29.46875 197.31772 29.46875 196.69272Q29.46875 196.0521 29.15625 195.50522Q28.828125 194.94272 28.265625 194.72397Q27.703125 194.4896 26.640625 194.4896L22.203125 194.4896L22.203125 193.08334L30.5 193.08334L30.5 194.33334ZM31.1875 192.03647L31.390625 190.66147Q32.03125 190.58334 32.3125 190.19272Q32.703125 189.66147 32.703125 188.75522Q32.703125 187.78647 32.3125 187.25522Q31.921875 186.72397 31.21875 186.53647Q30.796875 186.4271 29.40625 186.4271Q30.5 187.34897 30.5 188.72397Q30.5 190.44272 29.265625 191.38022Q28.03125 192.31772 26.296875 192.31772Q25.109375 192.31772 24.109375 191.89584Q23.109375 191.45834 22.5625 190.64584Q22.015625 189.81772 22.015625 188.72397Q22.015625 187.25522 23.203125 186.3021L22.203125 186.3021L22.203125 185.00522L29.375 185.00522Q31.3125 185.00522 32.125 185.39584Q32.9375 185.78647 33.40625 186.64584Q33.875 187.50522 33.875 188.75522Q33.875 190.2396 33.203125 191.16147Q32.53125 192.06772 31.1875 192.03647ZM26.203125 190.8646Q27.828125 190.8646 28.578125 190.22397Q29.328125 189.56772 29.328125 188.59897Q29.328125 187.63022 28.59375 186.97397Q27.84375 186.31772 26.25 186.31772Q24.71875 186.31772 23.953125 186.9896Q23.171875 187.66147 23.171875 188.6146Q23.171875 189.5521 23.9375 190.20834Q24.703125 190.8646 26.203125 190.8646ZM30.5 182.77084L19.046875 182.77084L19.046875 181.3646L23.15625 181.3646Q22.015625 180.38022 22.015625 178.88022Q22.015625 177.95834 22.375 177.28647Q22.734375 176.59897 23.375 176.31772Q24.015625 176.02084 25.234375 176.02084L30.5 176.02084L30.5 177.4271L25.234375 177.4271Q24.1875 177.4271 23.703125 177.88022Q23.21875 178.33334 23.21875 179.1771Q23.21875 179.8021 23.546875 180.34897Q23.875 180.89584 24.4375 181.13022Q24.984375 181.3646 25.953125 181.3646L30.5 181.3646L30.5 182.77084ZM33.6875 174.77083L22.203125 174.77083L22.203125 173.48958L23.28125 173.48958Q22.640625 173.03645 22.328125 172.47395Q22.015625 171.89583 22.015625 171.08333Q22.015625 170.02083 22.5625 169.20833Q23.109375 168.39583 24.109375 167.98958Q25.09375 167.5677 26.28125 167.5677Q27.5625 167.5677 28.578125 168.03645Q29.59375 168.48958 30.140625 169.36458Q30.6875 170.22395 30.6875 171.1927Q30.6875 171.89583 30.390625 172.45833Q30.09375 173.0052 29.640625 173.36458L33.6875 173.36458L33.6875 174.77083ZM26.390625 173.5052Q28.0 173.5052 28.765625 172.86458Q29.53125 172.20833 29.53125 171.28645Q29.53125 170.34895 28.734375 169.67708Q27.9375 169.0052 26.28125 169.0052Q24.6875 169.0052 23.90625 169.66145Q23.109375 170.3177 23.109375 171.22395Q23.109375 172.11458 23.953125 172.8177Q24.796875 173.5052 26.390625 173.5052ZM30.5 160.33333L29.28125 160.33333Q30.6875 161.30208 30.6875 162.97395Q30.6875 163.70833 30.40625 164.34895Q30.125 164.97395 29.703125 165.28645Q29.265625 165.59895 28.65625 165.72395Q28.234375 165.80208 27.34375 165.80208L22.203125 165.80208L22.203125 164.39583L26.796875 164.39583Q27.90625 164.39583 28.28125 164.3177Q28.84375 164.17708 29.15625 163.7552Q29.46875 163.3177 29.46875 162.6927Q29.46875 162.05208 29.15625 161.5052Q28.828125 160.9427 28.265625 160.72395Q27.703125 160.48958 26.640625 160.48958L22.203125 160.48958L22.203125 159.08333L30.5 159.08333L30.5 160.33333ZM29.234375 154.70833L30.484375 154.5052Q30.609375 155.09895 30.609375 155.5677Q30.609375 156.33333 30.375 156.7552Q30.125 157.17708 29.734375 157.34895Q29.328125 157.52083 28.0625 157.52083L23.296875 157.52083L23.296875 158.55208L22.203125 158.55208L22.203125 157.52083L20.140625 157.52083L19.296875 156.11458L22.203125 156.11458L22.203125 154.70833L23.296875 154.70833L23.296875 156.11458L28.140625 156.11458Q28.75 156.11458 28.921875 156.05208Q29.09375 155.97395 29.203125 155.80208Q29.296875 155.6302 29.296875 155.3177Q29.296875 155.08333 29.234375 154.70833ZM33.875 147.08333Q32.40625 148.2552 30.4375 149.0677Q28.453125 149.86458 26.34375 149.86458Q24.484375 149.86458 22.78125 149.2552Q20.8125 148.55208 18.84375 147.08333L18.84375 146.08333Q20.46875 147.02083 21.171875 147.33333Q22.25 147.80208 23.421875 148.08333Q24.875 148.41145 26.359375 148.41145Q30.109375 148.41145 33.875 146.08333L33.875 147.08333ZM29.234375 141.70833L30.484375 141.5052Q30.609375 142.09895 30.609375 142.5677Q30.609375 143.33333 30.375 143.7552Q30.125 144.17708 29.734375 144.34895Q29.328125 144.52083 28.0625 144.52083L23.296875 144.52083L23.296875 145.55208L22.203125 145.55208L22.203125 144.52083L20.140625 144.52083L19.296875 143.11458L22.203125 143.11458L22.203125 141.70833L23.296875 141.70833L23.296875 143.11458L28.140625 143.11458Q28.75 143.11458 28.921875 143.05208Q29.09375 142.97395 29.203125 142.80208Q29.296875 142.6302 29.296875 142.3177Q29.296875 142.08333 29.234375 141.70833ZM26.34375 141.30208Q24.046875 141.30208 22.9375 140.02083Q22.015625 138.9427 22.015625 137.41145Q22.015625 135.6927 23.140625 134.61458Q24.25 133.52083 26.234375 133.52083Q27.828125 133.52083 28.75 134.0052Q29.671875 134.48958 30.1875 135.41145Q30.6875 136.3177 30.6875 137.41145Q30.6875 139.14583 29.578125 140.22395Q28.453125 141.30208 26.34375 141.30208ZM26.34375 139.84895Q27.9375 139.84895 28.734375 139.16145Q29.53125 138.45833 29.53125 137.41145Q29.53125 136.36458 28.734375 135.67708Q27.9375 134.97395 26.296875 134.97395Q24.765625 134.97395 23.96875 135.67708Q23.171875 136.36458 23.171875 137.41145Q23.171875 138.45833 23.96875 139.16145Q24.75 139.84895 26.34375 139.84895ZM30.5 131.77083L19.046875 131.77083L19.046875 130.36458L25.578125 130.36458L22.203125 127.03645L22.203125 125.20833L25.28125 128.3802L30.5 124.89583L30.5 126.6302L26.25 129.36458L27.203125 130.36458L30.5 130.36458L30.5 131.77083ZM27.828125 118.09895L28.0 116.64583Q29.28125 116.98958 29.984375 117.92708Q30.6875 118.84895 30.6875 120.28645Q30.6875 122.11458 29.5625 123.17708Q28.4375 124.23958 26.421875 124.23958Q24.328125 124.23958 23.171875 123.16145Q22.015625 122.08333 22.015625 120.36458Q22.015625 118.70833 23.15625 117.66145Q24.28125 116.59895 26.328125 116.59895Q26.453125 116.59895 26.703125 116.59895L26.703125 122.78645Q28.078125 122.70833 28.8125 122.02083Q29.53125 121.3177 29.53125 120.28645Q29.53125 119.5052 29.125 118.95833Q28.71875 118.41145 27.828125 118.09895ZM25.546875 122.70833L25.546875 118.08333Q24.5 118.17708 23.984375 118.61458Q23.171875 119.28645 23.171875 120.34895Q23.171875 121.3177 23.828125 121.98958Q24.46875 122.64583 25.546875 122.70833ZM30.5 114.77083L22.203125 114.77083L22.203125 113.5052L23.375 113.5052Q22.015625 112.59895 22.015625 110.86458Q22.015625 110.11458 22.28125 109.48958Q22.546875 108.86458 22.984375 108.55208Q23.421875 108.23958 24.03125 108.11458Q24.421875 108.03645 25.390625 108.03645L30.5 108.03645L30.5 109.4427L25.453125 109.4427Q24.59375 109.4427 24.171875 109.61458Q23.734375 109.77083 23.484375 110.1927Q23.234375 110.59895 23.234375 111.16145Q23.234375 112.0677 23.8125 112.72395Q24.375 113.36458 25.96875 113.36458L30.5 113.36458L30.5 114.77083ZM30.703125 107.83333L18.84375 104.5052L18.84375 103.3802L30.703125 106.6927L30.703125 107.83333ZM28.015625 103.33333L27.796875 101.9427Q28.640625 101.83333 29.09375 101.30208Q29.53125 100.7552 29.53125 99.80208Q29.53125 98.83333 29.140625 98.36458Q28.734375 97.89583 28.203125 97.89583Q27.734375 97.89583 27.453125 98.30208Q27.265625 98.59895 26.984375 99.73958Q26.59375 101.28645 26.3125 101.89583Q26.015625 102.48958 25.515625 102.80208Q25.015625 103.09895 24.40625 103.09895Q23.84375 103.09895 23.375 102.84895Q22.90625 102.59895 22.59375 102.16145Q22.34375 101.83333 22.1875 101.27083Q22.015625 100.6927 22.015625 100.05208Q22.015625 99.0677 22.296875 98.33333Q22.578125 97.59895 23.0625 97.2552Q23.53125 96.89583 24.34375 96.7552L24.53125 98.1302Q23.890625 98.22395 23.53125 98.67708Q23.171875 99.1302 23.171875 99.9427Q23.171875 100.91145 23.5 101.33333Q23.8125 101.73958 24.234375 101.73958Q24.515625 101.73958 24.734375 101.5677Q24.953125 101.39583 25.109375 101.03645Q25.1875 100.8177 25.46875 99.78645Q25.859375 98.30208 26.125 97.70833Q26.375 97.11458 26.859375 96.78645Q27.34375 96.4427 28.0625 96.4427Q28.765625 96.4427 29.390625 96.86458Q30.0 97.27083 30.34375 98.05208Q30.6875 98.8177 30.6875 99.78645Q30.6875 101.41145 30.015625 102.2552Q29.34375 103.09895 28.015625 103.33333ZM33.875 93.84895L33.875 94.86458Q30.109375 92.52083 26.359375 92.52083Q24.890625 92.52083 23.4375 92.86458Q22.265625 93.1302 21.1875 93.59895Q20.484375 93.91145 18.84375 94.86458L18.84375 93.84895Q20.8125 92.3802 22.78125 91.67708Q24.484375 91.08333 26.34375 91.08333Q28.453125 91.08333 30.4375 91.89583Q32.40625 92.6927 33.875 93.84895Z" fill-rule="nonzero"/><path fill="#000000" d="M95.171875 284.84375Q95.171875 282.8125 95.578125 281.57812Q96.0 280.34375 96.828125 279.67188Q97.65625 279.0 98.90625 279.0Q99.828125 279.0 100.515625 279.375Q101.21875 279.73438 101.671875 280.4375Q102.125 281.14062 102.375 282.14062Q102.640625 283.14062 102.640625 284.84375Q102.640625 286.85938 102.21875 288.10938Q101.8125 289.34375 100.984375 290.03125Q100.15625 290.70312 98.90625 290.70312Q97.25 290.70312 96.296875 289.5Q95.171875 288.07812 95.171875 284.84375ZM96.609375 284.84375Q96.609375 287.67188 97.265625 288.60938Q97.9375 289.53125 98.90625 289.53125Q99.875 289.53125 100.53125 288.59375Q101.1875 287.65625 101.1875 284.84375Q101.1875 282.01562 100.53125 281.09375Q99.875 280.15625 98.890625 280.15625Q97.921875 280.15625 97.34375 280.98438Q96.609375 282.03125 96.609375 284.84375Z" fill-rule="nonzero"/><path fill="#000000" d="M75.5625 249.47395L75.5625 250.83333L67.984375 250.83333Q67.96875 250.3177 68.15625 249.84895Q68.4375 249.08333 69.078125 248.33333Q69.71875 247.58333 70.921875 246.59895Q72.78125 245.0677 73.4375 244.17708Q74.09375 243.27083 74.09375 242.47395Q74.09375 241.64583 73.5 241.0677Q72.90625 240.48958 71.9375 240.48958Q70.921875 240.48958 70.3125 241.09895Q69.703125 241.70833 69.703125 242.78645L68.25 242.64583Q68.40625 241.02083 69.375 240.17708Q70.34375 239.33333 71.96875 239.33333Q73.625 239.33333 74.578125 240.2552Q75.546875 241.16145 75.546875 242.5052Q75.546875 243.1927 75.265625 243.86458Q74.984375 244.52083 74.328125 245.2552Q73.671875 245.98958 72.15625 247.27083Q70.890625 248.33333 70.53125 248.72395Q70.171875 249.09895 69.9375 249.47395L75.5625 249.47395ZM77.171875 247.83333L78.640625 247.70833Q78.8125 248.78645 79.40625 249.33333Q80.0 249.86458 80.84375 249.86458Q81.859375 249.86458 82.5625 249.09895Q83.265625 248.33333 83.265625 247.0677Q83.265625 245.86458 82.59375 245.17708Q81.921875 244.47395 80.828125 244.47395Q80.140625 244.47395 79.59375 244.78645Q79.046875 245.09895 78.734375 245.58333L77.421875 245.41145L78.53125 239.53645L84.21875 239.53645L84.21875 240.8802L79.65625 240.8802L79.03125 243.95833Q80.0625 243.23958 81.203125 243.23958Q82.703125 243.23958 83.734375 244.28645Q84.765625 245.3177 84.765625 246.9427Q84.765625 248.5052 83.859375 249.6302Q82.75 251.03645 80.84375 251.03645Q79.28125 251.03645 78.296875 250.16145Q77.3125 249.27083 77.171875 247.83333ZM86.171875 245.17708Q86.171875 243.14583 86.578125 241.91145Q87.0 240.67708 87.828125 240.0052Q88.65625 239.33333 89.90625 239.33333Q90.828125 239.33333 91.515625 239.70833Q92.21875 240.0677 92.671875 240.77083Q93.125 241.47395 93.375 242.47395Q93.640625 243.47395 93.640625 245.17708Q93.640625 247.1927 93.21875 248.4427Q92.8125 249.67708 91.984375 250.36458Q91.15625 251.03645 89.90625 251.03645Q88.25 251.03645 87.296875 249.83333Q86.171875 248.41145 86.171875 245.17708ZM87.609375 245.17708Q87.609375 248.0052 88.265625 248.9427Q88.9375 249.86458 89.90625 249.86458Q90.875 249.86458 91.53125 248.92708Q92.1875 247.98958 92.1875 245.17708Q92.1875 242.34895 91.53125 241.42708Q90.875 240.48958 89.890625 240.48958Q88.921875 240.48958 88.34375 241.3177Q87.609375 242.36458 87.609375 245.17708ZM95.171875 245.17708Q95.171875 243.14583 95.578125 241.91145Q96.0 240.67708 96.828125 240.0052Q97.65625 239.33333 98.90625 239.33333Q99.828125 239.33333 100.515625 239.70833Q101.21875 240.0677 101.671875 240.77083Q102.125 241.47395 102.375 242.47395Q102.640625 243.47395 102.640625 245.17708Q102.640625 247.1927 102.21875 248.4427Q101.8125 249.67708 100.984375 250.36458Q100.15625 251.03645 98.90625 251.03645Q97.25 251.03645 96.296875 249.83333Q95.171875 248.41145 95.171875 245.17708ZM96.609375 245.17708Q96.609375 248.0052 97.265625 248.9427Q97.9375 249.86458 98.90625 249.86458Q99.875 249.86458 100.53125 248.92708Q101.1875 247.98958 101.1875 245.17708Q101.1875 242.34895 100.53125 241.42708Q99.875 240.48958 98.890625 240.48958Q97.921875 240.48958 97.34375 241.3177Q96.609375 242.36458 96.609375 245.17708Z" fill-rule="nonzero"/><path fill="#000000" d="M68.171875 208.16667L69.640625 208.04167Q69.8125 209.1198 70.40625 209.66667Q71.0 210.19792 71.84375 210.19792Q72.859375 210.19792 73.5625 209.4323Q74.265625 208.66667 74.265625 207.40105Q74.265625 206.19792 73.59375 205.51042Q72.921875 204.8073 71.828125 204.8073Q71.140625 204.8073 70.59375 205.1198Q70.046875 205.4323 69.734375 205.91667L68.421875 205.7448L69.53125 199.8698L75.21875 199.8698L75.21875 201.21355L70.65625 201.21355L70.03125 204.29167Q71.0625 203.57292 72.203125 203.57292Q73.703125 203.57292 74.734375 204.6198Q75.765625 205.65105 75.765625 207.27605Q75.765625 208.83855 74.859375 209.96355Q73.75 211.3698 71.84375 211.3698Q70.28125 211.3698 69.296875 210.4948Q68.3125 209.60417 68.171875 208.16667ZM77.171875 205.51042Q77.171875 203.47917 77.578125 202.2448Q78.0 201.01042 78.828125 200.33855Q79.65625 199.66667 80.90625 199.66667Q81.828125 199.66667 82.515625 200.04167Q83.21875 200.40105 83.671875 201.10417Q84.125 201.8073 84.375 202.8073Q84.640625 203.8073 84.640625 205.51042Q84.640625 207.52605 84.21875 208.77605Q83.8125 210.01042 82.984375 210.69792Q82.15625 211.3698 80.90625 211.3698Q79.25 211.3698 78.296875 210.16667Q77.171875 208.7448 77.171875 205.51042ZM78.609375 205.51042Q78.609375 208.33855 79.265625 209.27605Q79.9375 210.19792 80.90625 210.19792Q81.875 210.19792 82.53125 209.26042Q83.1875 208.32292 83.1875 205.51042Q83.1875 202.6823 82.53125 201.76042Q81.875 200.82292 80.890625 200.82292Q79.921875 200.82292 79.34375 201.65105Q78.609375 202.69792 78.609375 205.51042ZM86.171875 205.51042Q86.171875 203.47917 86.578125 202.2448Q87.0 201.01042 87.828125 200.33855Q88.65625 199.66667 89.90625 199.66667Q90.828125 199.66667 91.515625 200.04167Q92.21875 200.40105 92.671875 201.10417Q93.125 201.8073 93.375 202.8073Q93.640625 203.8073 93.640625 205.51042Q93.640625 207.52605 93.21875 208.77605Q92.8125 210.01042 91.984375 210.69792Q91.15625 211.3698 89.90625 211.3698Q88.25 211.3698 87.296875 210.16667Q86.171875 208.7448 86.171875 205.51042ZM87.609375 205.51042Q87.609375 208.33855 88.265625 209.27605Q88.9375 210.19792 89.90625 210.19792Q90.875 210.19792 91.53125 209.26042Q92.1875 208.32292 92.1875 205.51042Q92.1875 202.6823 91.53125 201.76042Q90.875 200.82292 89.890625 200.82292Q88.921875 200.82292 88.34375 201.65105Q87.609375 202.69792 87.609375 205.51042ZM95.171875 205.51042Q95.171875 203.47917 95.578125 202.2448Q96.0 201.01042 96.828125 200.33855Q97.65625 199.66667 98.90625 199.66667Q99.828125 199.66667 100.515625 200.04167Q101.21875 200.40105 101.671875 201.10417Q102.125 201.8073 102.375 202.8073Q102.640625 203.8073 102.640625 205.51042Q102.640625 207.52605 102.21875 208.77605Q101.8125 210.01042 100.984375 210.69792Q100.15625 211.3698 98.90625 211.3698Q97.25 211.3698 96.296875 210.16667Q95.171875 208.7448 95.171875 205.51042ZM96.609375 205.51042Q96.609375 208.33855 97.265625 209.27605Q97.9375 210.19792 98.90625 210.19792Q99.875 210.19792 100.53125 209.26042Q101.1875 208.32292 101.1875 205.51042Q101.1875 202.6823 100.53125 201.76042Q99.875 200.82292 98.890625 200.82292Q97.921875 200.82292 97.34375 201.65105Q96.609375 202.69792 96.609375 205.51042Z" fill-rule="nonzero"/><path fill="#000000" d="M68.265625 161.54688L68.265625 160.1875L75.671875 160.1875L75.671875 161.28125Q74.578125 162.45312 73.5 164.39062Q72.4375 166.3125 71.84375 168.34375Q71.421875 169.78125 71.3125 171.5L69.859375 171.5Q69.890625 170.14062 70.390625 168.23438Q70.90625 166.3125 71.84375 164.54688Q72.796875 162.76562 73.875 161.54688L68.265625 161.54688ZM77.171875 168.5L78.640625 168.375Q78.8125 169.45312 79.40625 170.0Q80.0 170.53125 80.84375 170.53125Q81.859375 170.53125 82.5625 169.76562Q83.265625 169.0 83.265625 167.73438Q83.265625 166.53125 82.59375 165.84375Q81.921875 165.14062 80.828125 165.14062Q80.140625 165.14062 79.59375 165.45312Q79.046875 165.76562 78.734375 166.25L77.421875 166.07812L78.53125 160.20312L84.21875 160.20312L84.21875 161.54688L79.65625 161.54688L79.03125 164.625Q80.0625 163.90625 81.203125 163.90625Q82.703125 163.90625 83.734375 164.95312Q84.765625 165.98438 84.765625 167.60938Q84.765625 169.17188 83.859375 170.29688Q82.75 171.70312 80.84375 171.70312Q79.28125 171.70312 78.296875 170.82812Q77.3125 169.9375 77.171875 168.5ZM86.171875 165.84375Q86.171875 163.8125 86.578125 162.57812Q87.0 161.34375 87.828125 160.67188Q88.65625 160.0 89.90625 160.0Q90.828125 160.0 91.515625 160.375Q92.21875 160.73438 92.671875 161.4375Q93.125 162.14062 93.375 163.14062Q93.640625 164.14062 93.640625 165.84375Q93.640625 167.85938 93.21875 169.10938Q92.8125 170.34375 91.984375 171.03125Q91.15625 171.70312 89.90625 171.70312Q88.25 171.70312 87.296875 170.5Q86.171875 169.07812 86.171875 165.84375ZM87.609375 165.84375Q87.609375 168.67188 88.265625 169.60938Q88.9375 170.53125 89.90625 170.53125Q90.875 170.53125 91.53125 169.59375Q92.1875 168.65625 92.1875 165.84375Q92.1875 163.01562 91.53125 162.09375Q90.875 161.15625 89.890625 161.15625Q88.921875 161.15625 88.34375 161.98438Q87.609375 163.03125 87.609375 165.84375ZM95.171875 165.84375Q95.171875 163.8125 95.578125 162.57812Q96.0 161.34375 96.828125 160.67188Q97.65625 160.0 98.90625 160.0Q99.828125 160.0 100.515625 160.375Q101.21875 160.73438 101.671875 161.4375Q102.125 162.14062 102.375 163.14062Q102.640625 164.14062 102.640625 165.84375Q102.640625 167.85938 102.21875 169.10938Q101.8125 170.34375 100.984375 171.03125Q100.15625 171.70312 98.90625 171.70312Q97.25 171.70312 96.296875 170.5Q95.171875 169.07812 95.171875 165.84375ZM96.609375 165.84375Q96.609375 168.67188 97.265625 169.60938Q97.9375 170.53125 98.90625 170.53125Q99.875 170.53125 100.53125 169.59375Q101.1875 168.65625 101.1875 165.84375Q101.1875 163.01562 100.53125 162.09375Q99.875 161.15625 98.890625 161.15625Q97.921875 161.15625 97.34375 161.98438Q96.609375 163.03125 96.609375 165.84375Z" fill-rule="nonzero"/><path fill="#000000" d="M64.46875 131.83333L63.0625 131.83333L63.0625 122.86458Q62.546875 123.34895 61.71875 123.83333Q60.90625 124.3177 60.25 124.5677L60.25 123.20833Q61.421875 122.64583 62.296875 121.86458Q63.1875 121.0677 63.5625 120.33333L64.46875 120.33333L64.46875 131.83333ZM68.171875 126.17708Q68.171875 124.14583 68.578125 122.91145Q69.0 121.67708 69.828125 121.0052Q70.65625 120.33333 71.90625 120.33333Q72.828125 120.33333 73.515625 120.70833Q74.21875 121.0677 74.671875 121.77083Q75.125 122.47395 75.375 123.47395Q75.640625 124.47395 75.640625 126.17708Q75.640625 128.1927 75.21875 129.4427Q74.8125 130.67708 73.984375 131.36458Q73.15625 132.03645 71.90625 132.03645Q70.25 132.03645 69.296875 130.83333Q68.171875 129.41145 68.171875 126.17708ZM69.609375 126.17708Q69.609375 129.0052 70.265625 129.9427Q70.9375 130.86458 71.90625 130.86458Q72.875 130.86458 73.53125 129.92708Q74.1875 128.98958 74.1875 126.17708Q74.1875 123.34895 73.53125 122.42708Q72.875 121.48958 71.890625 121.48958Q70.921875 121.48958 70.34375 122.3177Q69.609375 123.36458 69.609375 126.17708ZM77.171875 126.17708Q77.171875 124.14583 77.578125 122.91145Q78.0 121.67708 78.828125 121.0052Q79.65625 120.33333 80.90625 120.33333Q81.828125 120.33333 82.515625 120.70833Q83.21875 121.0677 83.671875 121.77083Q84.125 122.47395 84.375 123.47395Q84.640625 124.47395 84.640625 126.17708Q84.640625 128.1927 84.21875 129.4427Q83.8125 130.67708 82.984375 131.36458Q82.15625 132.03645 80.90625 132.03645Q79.25 132.03645 78.296875 130.83333Q77.171875 129.41145 77.171875 126.17708ZM78.609375 126.17708Q78.609375 129.0052 79.265625 129.9427Q79.9375 130.86458 80.90625 130.86458Q81.875 130.86458 82.53125 129.92708Q83.1875 128.98958 83.1875 126.17708Q83.1875 123.34895 82.53125 122.42708Q81.875 121.48958 80.890625 121.48958Q79.921875 121.48958 79.34375 122.3177Q78.609375 123.36458 78.609375 126.17708ZM86.171875 126.17708Q86.171875 124.14583 86.578125 122.91145Q87.0 121.67708 87.828125 121.0052Q88.65625 120.33333 89.90625 120.33333Q90.828125 120.33333 91.515625 120.70833Q92.21875 121.0677 92.671875 121.77083Q93.125 122.47395 93.375 123.47395Q93.640625 124.47395 93.640625 126.17708Q93.640625 128.1927 93.21875 129.4427Q92.8125 130.67708 91.984375 131.36458Q91.15625 132.03645 89.90625 132.03645Q88.25 132.03645 87.296875 130.83333Q86.171875 129.41145 86.171875 126.17708ZM87.609375 126.17708Q87.609375 129.0052 88.265625 129.9427Q88.9375 130.86458 89.90625 130.86458Q90.875 130.86458 91.53125 129.92708Q92.1875 128.98958 92.1875 126.17708Q92.1875 123.34895 91.53125 122.42708Q90.875 121.48958 89.890625 121.48958Q88.921875 121.48958 88.34375 122.3177Q87.609375 123.36458 87.609375 126.17708ZM95.171875 126.17708Q95.171875 124.14583 95.578125 122.91145Q96.0 121.67708 96.828125 121.0052Q97.65625 120.33333 98.90625 120.33333Q99.828125 120.33333 100.515625 120.70833Q101.21875 121.0677 101.671875 121.77083Q102.125 122.47395 102.375 123.47395Q102.640625 124.47395 102.640625 126.17708Q102.640625 128.1927 102.21875 129.4427Q101.8125 130.67708 100.984375 131.36458Q100.15625 132.03645 98.90625 132.03645Q97.25 132.03645 96.296875 130.83333Q95.171875 129.41145 95.171875 126.17708ZM96.609375 126.17708Q96.609375 129.0052 97.265625 129.9427Q97.9375 130.86458 98.90625 130.86458Q99.875 130.86458 100.53125 129.92708Q101.1875 128.98958 101.1875 126.17708Q101.1875 123.34895 100.53125 122.42708Q99.875 121.48958 98.890625 121.48958Q97.921875 121.48958 97.34375 122.3177Q96.609375 123.36458 96.609375 126.17708Z" fill-rule="nonzero"/><path fill="#000000" d="M64.46875 92.166664L63.0625 92.166664L63.0625 83.197914Q62.546875 83.68229 61.71875 84.166664Q60.90625 84.65104 60.25 84.90104L60.25 83.541664Q61.421875 82.979164 62.296875 82.197914Q63.1875 81.40104 63.5625 80.666664L64.46875 80.666664L64.46875 92.166664ZM75.5625 90.80729L75.5625 92.166664L67.984375 92.166664Q67.96875 91.65104 68.15625 91.18229Q68.4375 90.416664 69.078125 89.666664Q69.71875 88.916664 70.921875 87.93229Q72.78125 86.40104 73.4375 85.510414Q74.09375 84.604164 74.09375 83.80729Q74.09375 82.979164 73.5 82.40104Q72.90625 81.822914 71.9375 81.822914Q70.921875 81.822914 70.3125 82.43229Q69.703125 83.041664 69.703125 84.11979L68.25 83.979164Q68.40625 82.354164 69.375 81.510414Q70.34375 80.666664 71.96875 80.666664Q73.625 80.666664 74.578125 81.58854Q75.546875 82.49479 75.546875 83.83854Q75.546875 84.52604 75.265625 85.197914Q74.984375 85.854164 74.328125 86.58854Q73.671875 87.322914 72.15625 88.604164Q70.890625 89.666664 70.53125 90.05729Q70.171875 90.43229 69.9375 90.80729L75.5625 90.80729ZM77.171875 89.166664L78.640625 89.041664Q78.8125 90.11979 79.40625 90.666664Q80.0 91.197914 80.84375 91.197914Q81.859375 91.197914 82.5625 90.43229Q83.265625 89.666664 83.265625 88.40104Q83.265625 87.197914 82.59375 86.510414Q81.921875 85.80729 80.828125 85.80729Q80.140625 85.80729 79.59375 86.11979Q79.046875 86.43229 78.734375 86.916664L77.421875 86.74479L78.53125 80.86979L84.21875 80.86979L84.21875 82.21354L79.65625 82.21354L79.03125 85.291664Q80.0625 84.572914 81.203125 84.572914Q82.703125 84.572914 83.734375 85.61979Q84.765625 86.65104 84.765625 88.27604Q84.765625 89.83854 83.859375 90.96354Q82.75 92.36979 80.84375 92.36979Q79.28125 92.36979 78.296875 91.49479Q77.3125 90.604164 77.171875 89.166664ZM86.171875 86.510414Q86.171875 84.479164 86.578125 83.24479Q87.0 82.010414 87.828125 81.33854Q88.65625 80.666664 89.90625 80.666664Q90.828125 80.666664 91.515625 81.041664Q92.21875 81.40104 92.671875 82.104164Q93.125 82.80729 93.375 83.80729Q93.640625 84.80729 93.640625 86.510414Q93.640625 88.52604 93.21875 89.77604Q92.8125 91.010414 91.984375 91.697914Q91.15625 92.36979 89.90625 92.36979Q88.25 92.36979 87.296875 91.166664Q86.171875 89.74479 86.171875 86.510414ZM87.609375 86.510414Q87.609375 89.33854 88.265625 90.27604Q88.9375 91.197914 89.90625 91.197914Q90.875 91.197914 91.53125 90.260414Q92.1875 89.322914 92.1875 86.510414Q92.1875 83.68229 91.53125 82.760414Q90.875 81.822914 89.890625 81.822914Q88.921875 81.822914 88.34375 82.65104Q87.609375 83.697914 87.609375 86.510414ZM95.171875 86.510414Q95.171875 84.479164 95.578125 83.24479Q96.0 82.010414 96.828125 81.33854Q97.65625 80.666664 98.90625 80.666664Q99.828125 80.666664 100.515625 81.041664Q101.21875 81.40104 101.671875 82.104164Q102.125 82.80729 102.375 83.80729Q102.640625 84.80729 102.640625 86.510414Q102.640625 88.52604 102.21875 89.77604Q101.8125 91.010414 100.984375 91.697914Q100.15625 92.36979 98.90625 92.36979Q97.25 92.36979 96.296875 91.166664Q95.171875 89.74479 95.171875 86.510414ZM96.609375 86.510414Q96.609375 89.33854 97.265625 90.27604Q97.9375 91.197914 98.90625 91.197914Q99.875 91.197914 100.53125 90.260414Q101.1875 89.322914 101.1875 86.510414Q101.1875 83.68229 100.53125 82.760414Q99.875 81.822914 98.890625 81.822914Q97.921875 81.822914 97.34375 82.65104Q96.609375 83.697914 96.609375 86.510414Z" fill-rule="nonzero"/><path fill="#4285f4" d="M112.5 52.333332C112.5 51.781048 112.947716 51.333332 113.5 51.333332L123.5 51.333332C124.052284 51.333332 124.5 51.781048 124.5 52.333332L124.5 62.333332C124.5 62.885616 124.052284 63.333332 123.5 63.333332L113.5 63.333332C112.947716 63.333332 112.5 62.885616 112.5 62.333332Z" fill-rule="nonzero"/><path fill="#1a1a1a" d="M133.28125 57.255207Q133.28125 54.395832 134.8125 52.786457Q136.34375 51.177082 138.76562 51.177082Q140.34375 51.177082 141.60938 51.942707Q142.89062 52.692707 143.5625 54.052082Q144.23438 55.395832 144.23438 57.114582Q144.23438 58.864582 143.53125 60.239582Q142.82812 61.614582 141.53125 62.333332Q140.25 63.036457 138.75 63.036457Q137.14062 63.036457 135.85938 62.255207Q134.59375 61.458332 133.9375 60.114582Q133.28125 58.755207 133.28125 57.255207ZM134.84375 57.270832Q134.84375 59.348957 135.95312 60.536457Q137.0625 61.723957 138.75 61.723957Q140.45312 61.723957 141.5625 60.520832Q142.67188 59.317707 142.67188 57.114582Q142.67188 55.708332 142.1875 54.677082Q141.71875 53.630207 140.8125 53.052082Q139.90625 52.473957 138.76562 52.473957Q137.15625 52.473957 136.0 53.583332Q134.84375 54.692707 134.84375 57.270832ZM148.625 61.567707L148.82812 62.817707Q148.23438 62.942707 147.76562 62.942707Q147.0 62.942707 146.57812 62.708332Q146.15625 62.458332 145.98438 62.067707Q145.8125 61.661457 145.8125 60.395832L145.8125 55.630207L144.78125 55.630207L144.78125 54.536457L145.8125 54.536457L145.8125 52.473957L147.21875 51.630207L147.21875 54.536457L148.625 54.536457L148.625 55.630207L147.21875 55.630207L147.21875 60.473957Q147.21875 61.083332 147.28125 61.255207Q147.35938 61.427082 147.53125 61.536457Q147.70312 61.630207 148.01562 61.630207Q148.25 61.630207 148.625 61.567707ZM149.5625 62.833332L149.5625 51.380207L150.96875 51.380207L150.96875 55.489582Q151.95312 54.348957 153.45312 54.348957Q154.375 54.348957 155.04688 54.708332Q155.73438 55.067707 156.01562 55.708332Q156.3125 56.348957 156.3125 57.567707L156.3125 62.833332L154.90625 62.833332L154.90625 57.567707Q154.90625 56.520832 154.45312 56.036457Q154.0 55.552082 153.15625 55.552082Q152.53125 55.552082 151.98438 55.880207Q151.4375 56.208332 151.20312 56.770832Q150.96875 57.317707 150.96875 58.286457L150.96875 62.833332L149.5625 62.833332ZM163.23438 60.161457L164.6875 60.333332Q164.34375 61.614582 163.40625 62.317707Q162.48438 63.020832 161.04688 63.020832Q159.21875 63.020832 158.15625 61.895832Q157.09375 60.770832 157.09375 58.755207Q157.09375 56.661457 158.17188 55.505207Q159.25 54.348957 160.96875 54.348957Q162.625 54.348957 163.67188 55.489582Q164.73438 56.614582 164.73438 58.661457Q164.73438 58.786457 164.73438 59.036457L158.54688 59.036457Q158.625 60.411457 159.3125 61.145832Q160.01562 61.864582 161.04688 61.864582Q161.82812 61.864582 162.375 61.458332Q162.92188 61.052082 163.23438 60.161457ZM158.625 57.880207L163.25 57.880207Q163.15625 56.833332 162.71875 56.317707Q162.04688 55.505207 160.98438 55.505207Q160.01562 55.505207 159.34375 56.161457Q158.6875 56.802082 158.625 57.880207ZM166.54688 62.833332L166.54688 54.536457L167.8125 54.536457L167.8125 55.786457Q168.29688 54.911457 168.70312 54.630207Q169.10938 54.348957 169.60938 54.348957Q170.3125 54.348957 171.04688 54.802082L170.5625 56.098957Q170.04688 55.802082 169.53125 55.802082Q169.07812 55.802082 168.70312 56.083332Q168.34375 56.348957 168.1875 56.848957Q167.95312 57.598957 167.95312 58.489582L167.95312 62.833332L166.54688 62.833332ZM175.28125 57.255207Q175.28125 54.395832 176.8125 52.786457Q178.34375 51.177082 180.76562 51.177082Q182.34375 51.177082 183.60938 51.942707Q184.89062 52.692707 185.5625 54.052082Q186.23438 55.395832 186.23438 57.114582Q186.23438 58.864582 185.53125 60.239582Q184.82812 61.614582 183.53125 62.333332Q182.25 63.036457 180.75 63.036457Q179.14062 63.036457 177.85938 62.255207Q176.59375 61.458332 175.9375 60.114582Q175.28125 58.755207 175.28125 57.255207ZM176.84375 57.270832Q176.84375 59.348957 177.95312 60.536457Q179.0625 61.723957 180.75 61.723957Q182.45312 61.723957 183.5625 60.520832Q184.67188 59.317707 184.67188 57.114582Q184.67188 55.708332 184.1875 54.677082Q183.71875 53.630207 182.8125 53.052082Q181.90625 52.473957 180.76562 52.473957Q179.15625 52.473957 178.0 53.583332Q176.84375 54.692707 176.84375 57.270832ZM187.21875 59.145832L188.65625 59.020832Q188.75 59.880207 189.125 60.442707Q189.5 60.989582 190.28125 61.333332Q191.0625 61.661457 192.03125 61.661457Q192.90625 61.661457 193.5625 61.411457Q194.23438 61.145832 194.54688 60.708332Q194.875 60.255207 194.875 59.723957Q194.875 59.177082 194.5625 58.786457Q194.25 58.380207 193.53125 58.098957Q193.07812 57.927082 191.5 57.552082Q189.92188 57.161457 189.28125 56.833332Q188.46875 56.395832 188.0625 55.770832Q187.65625 55.130207 187.65625 54.333332Q187.65625 53.473957 188.14062 52.723957Q188.64062 51.958332 189.57812 51.567707Q190.53125 51.177082 191.6875 51.177082Q192.96875 51.177082 193.9375 51.598957Q194.90625 52.005207 195.42188 52.802082Q195.95312 53.598957 196.0 54.598957L194.54688 54.708332Q194.42188 53.630207 193.75 53.083332Q193.07812 52.520832 191.75 52.520832Q190.375 52.520832 189.75 53.020832Q189.125 53.520832 189.125 54.239582Q189.125 54.848957 189.5625 55.255207Q190.0 55.645832 191.84375 56.067707Q193.70312 56.489582 194.39062 56.802082Q195.39062 57.255207 195.85938 57.973957Q196.34375 58.677082 196.34375 59.598957Q196.34375 60.505207 195.8125 61.317707Q195.29688 62.130207 194.3125 62.583332Q193.32812 63.036457 192.10938 63.036457Q190.54688 63.036457 189.5 62.583332Q188.45312 62.114582 187.84375 61.208332Q187.25 60.302082 187.21875 59.145832ZM198.21875 59.145832L199.65625 59.020832Q199.75 59.880207 200.125 60.442707Q200.5 60.989582 201.28125 61.333332Q202.0625 61.661457 203.03125 61.661457Q203.90625 61.661457 204.5625 61.411457Q205.23438 61.145832 205.54688 60.708332Q205.875 60.255207 205.875 59.723957Q205.875 59.177082 205.5625 58.786457Q205.25 58.380207 204.53125 58.098957Q204.07812 57.927082 202.5 57.552082Q200.92188 57.161457 200.28125 56.833332Q199.46875 56.395832 199.0625 55.770832Q198.65625 55.130207 198.65625 54.333332Q198.65625 53.473957 199.14062 52.723957Q199.64062 51.958332 200.57812 51.567707Q201.53125 51.177082 202.6875 51.177082Q203.96875 51.177082 204.9375 51.598957Q205.90625 52.005207 206.42188 52.802082Q206.95312 53.598957 207.0 54.598957L205.54688 54.708332Q205.42188 53.630207 204.75 53.083332Q204.07812 52.520832 202.75 52.520832Q201.375 52.520832 200.75 53.020832Q200.125 53.520832 200.125 54.239582Q200.125 54.848957 200.5625 55.255207Q201.0 55.645832 202.84375 56.067707Q204.70312 56.489582 205.39062 56.802082Q206.39062 57.255207 206.85938 57.973957Q207.34375 58.677082 207.34375 59.598957Q207.34375 60.505207 206.8125 61.317707Q206.29688 62.130207 205.3125 62.583332Q204.32812 63.036457 203.10938 63.036457Q201.54688 63.036457 200.5 62.583332Q199.45312 62.114582 198.84375 61.208332Q198.25 60.302082 198.21875 59.145832ZM214.85938 62.833332L213.54688 62.833332L213.54688 51.380207L214.95312 51.380207L214.95312 55.458332Q215.84375 54.348957 217.23438 54.348957Q218.0 54.348957 218.67188 54.661457Q219.35938 54.958332 219.79688 55.520832Q220.25 56.083332 220.5 56.880207Q220.75 57.661457 220.75 58.552082Q220.75 60.692707 219.6875 61.864582Q218.64062 63.020832 217.15625 63.020832Q215.6875 63.020832 214.85938 61.786457L214.85938 62.833332ZM214.84375 58.614582Q214.84375 60.114582 215.25 60.770832Q215.90625 61.864582 217.04688 61.864582Q217.96875 61.864582 218.64062 61.067707Q219.3125 60.255207 219.3125 58.677082Q219.3125 57.052082 218.65625 56.286457Q218.01562 55.505207 217.10938 55.505207Q216.1875 55.505207 215.51562 56.302082Q214.84375 57.098957 214.84375 58.614582ZM227.96875 61.802082Q227.1875 62.473957 226.46875 62.755207Q225.75 63.020832 224.92188 63.020832Q223.54688 63.020832 222.8125 62.348957Q222.07812 61.677082 222.07812 60.645832Q222.07812 60.036457 222.35938 59.536457Q222.64062 59.020832 223.07812 58.723957Q223.53125 58.411457 224.09375 58.255207Q224.51562 58.145832 225.34375 58.052082Q227.04688 57.848957 227.85938 57.567707Q227.85938 57.270832 227.85938 57.192707Q227.85938 56.333332 227.46875 55.989582Q226.92188 55.505207 225.85938 55.505207Q224.875 55.505207 224.39062 55.864582Q223.92188 56.208332 223.70312 57.083332L222.32812 56.895832Q222.51562 56.020832 222.9375 55.473957Q223.375 54.927082 224.1875 54.645832Q225.0 54.348957 226.0625 54.348957Q227.125 54.348957 227.78125 54.598957Q228.45312 54.848957 228.76562 55.223957Q229.07812 55.598957 229.20312 56.177082Q229.28125 56.536457 229.28125 57.473957L229.28125 59.348957Q229.28125 61.317707 229.35938 61.833332Q229.45312 62.348957 229.71875 62.833332L228.25 62.833332Q228.03125 62.395832 227.96875 61.802082ZM227.85938 58.661457Q227.09375 58.973957 225.5625 59.192707Q224.6875 59.317707 224.32812 59.473957Q223.96875 59.630207 223.76562 59.942707Q223.57812 60.239582 223.57812 60.598957Q223.57812 61.161457 224.0 61.536457Q224.4375 61.911457 225.25 61.911457Q226.0625 61.911457 226.6875 61.567707Q227.32812 61.208332 227.625 60.583332Q227.85938 60.114582 227.85938 59.177082L227.85938 58.661457ZM231.0 60.348957L232.39062 60.130207Q232.5 60.973957 233.03125 61.427082Q233.57812 61.864582 234.53125 61.864582Q235.5 61.864582 235.96875 61.473957Q236.4375 61.067707 236.4375 60.536457Q236.4375 60.067707 236.03125 59.786457Q235.73438 59.598957 234.59375 59.317707Q233.04688 58.927082 232.4375 58.645832Q231.84375 58.348957 231.53125 57.848957Q231.23438 57.348957 231.23438 56.739582Q231.23438 56.177082 231.48438 55.708332Q231.73438 55.239582 232.17188 54.927082Q232.5 54.677082 233.0625 54.520832Q233.64062 54.348957 234.28125 54.348957Q235.26562 54.348957 236.0 54.630207Q236.73438 54.911457 237.07812 55.395832Q237.4375 55.864582 237.57812 56.677082L236.20312 56.864582Q236.10938 56.223957 235.65625 55.864582Q235.20312 55.505207 234.39062 55.505207Q233.42188 55.505207 233.0 55.833332Q232.59375 56.145832 232.59375 56.567707Q232.59375 56.848957 232.76562 57.067707Q232.9375 57.286457 233.29688 57.442707Q233.51562 57.520832 234.54688 57.802082Q236.03125 58.192707 236.625 58.458332Q237.21875 58.708332 237.54688 59.192707Q237.89062 59.677082 237.89062 60.395832Q237.89062 61.098957 237.46875 61.723957Q237.0625 62.333332 236.28125 62.677082Q235.51562 63.020832 234.54688 63.020832Q232.92188 63.020832 232.07812 62.348957Q231.23438 61.677082 231.0 60.348957ZM245.23438 60.161457L246.6875 60.333332Q246.34375 61.614582 245.40625 62.317707Q244.48438 63.020832 243.04688 63.020832Q241.21875 63.020832 240.15625 61.895832Q239.09375 60.770832 239.09375 58.755207Q239.09375 56.661457 240.17188 55.505207Q241.25 54.348957 242.96875 54.348957Q244.625 54.348957 245.67188 55.489582Q246.73438 56.614582 246.73438 58.661457Q246.73438 58.786457 246.73438 59.036457L240.54688 59.036457Q240.625 60.411457 241.3125 61.145832Q242.01562 61.864582 243.04688 61.864582Q243.82812 61.864582 244.375 61.458332Q244.92188 61.052082 245.23438 60.161457ZM240.625 57.880207L245.25 57.880207Q245.15625 56.833332 244.71875 56.317707Q244.04688 55.505207 242.98438 55.505207Q242.01562 55.505207 241.34375 56.161457Q240.6875 56.802082 240.625 57.880207ZM248.53125 62.833332L248.53125 51.380207L249.9375 51.380207L249.9375 62.833332L248.53125 62.833332ZM251.5625 52.989582L251.5625 51.380207L252.96875 51.380207L252.96875 52.989582L251.5625 52.989582ZM251.5625 62.833332L251.5625 54.536457L252.96875 54.536457L252.96875 62.833332L251.5625 62.833332ZM255.5625 62.833332L255.5625 54.536457L256.82812 54.536457L256.82812 55.708332Q257.73438 54.348957 259.46875 54.348957Q260.21875 54.348957 260.84375 54.614582Q261.46875 54.880207 261.78125 55.317707Q262.09375 55.755207 262.21875 56.364582Q262.29688 56.755207 262.29688 57.723957L262.29688 62.833332L260.89062 62.833332L260.89062 57.786457Q260.89062 56.927082 260.71875 56.505207Q260.5625 56.067707 260.14062 55.817707Q259.73438 55.567707 259.17188 55.567707Q258.26562 55.567707 257.60938 56.145832Q256.96875 56.708332 256.96875 58.302082L256.96875 62.833332L255.5625 62.833332ZM269.23438 60.161457L270.6875 60.333332Q270.34375 61.614582 269.40625 62.317707Q268.48438 63.020832 267.04688 63.020832Q265.21875 63.020832 264.15625 61.895832Q263.09375 60.770832 263.09375 58.755207Q263.09375 56.661457 264.17188 55.505207Q265.25 54.348957 266.96875 54.348957Q268.625 54.348957 269.67188 55.489582Q270.73438 56.614582 270.73438 58.661457Q270.73438 58.786457 270.73438 59.036457L264.54688 59.036457Q264.625 60.411457 265.3125 61.145832Q266.01562 61.864582 267.04688 61.864582Q267.82812 61.864582 268.375 61.458332Q268.92188 61.052082 269.23438 60.161457ZM264.625 57.880207L269.25 57.880207Q269.15625 56.833332 268.71875 56.317707Q268.04688 55.505207 266.98438 55.505207Q266.01562 55.505207 265.34375 56.161457Q264.6875 56.802082 264.625 57.880207Z" fill-rule="nonzero"/><path fill="#ea4335" d="M287.5 52.333332C287.5 51.781048 287.94772 51.333332 288.5 51.333332L298.5 51.333332C299.05228 51.333332 299.5 51.781048 299.5 52.333332L299.5 62.333332C299.5 62.885616 299.05228 63.333332 298.5 63.333332L288.5 63.333332C287.94772 63.333332 287.5 62.885616 287.5 62.333332Z" fill-rule="nonzero"/><path fill="#1a1a1a" d="M308.21875 59.145832L309.65625 59.020832Q309.75 59.880207 310.125 60.442707Q310.5 60.989582 311.28125 61.333332Q312.0625 61.661457 313.03125 61.661457Q313.90625 61.661457 314.5625 61.411457Q315.23438 61.145832 315.54688 60.708332Q315.875 60.255207 315.875 59.723957Q315.875 59.177082 315.5625 58.786457Q315.25 58.380207 314.53125 58.098957Q314.07812 57.927082 312.5 57.552082Q310.92188 57.161457 310.28125 56.833332Q309.46875 56.395832 309.0625 55.770832Q308.65625 55.130207 308.65625 54.333332Q308.65625 53.473957 309.14062 52.723957Q309.64062 51.958332 310.57812 51.567707Q311.53125 51.177082 312.6875 51.177082Q313.96875 51.177082 314.9375 51.598957Q315.90625 52.005207 316.42188 52.802082Q316.95312 53.598957 317.0 54.598957L315.54688 54.708332Q315.42188 53.630207 314.75 53.083332Q314.07812 52.520832 312.75 52.520832Q311.375 52.520832 310.75 53.020832Q310.125 53.520832 310.125 54.239582Q310.125 54.848957 310.5625 55.255207Q311.0 55.645832 312.84375 56.067707Q314.70312 56.489582 315.39062 56.802082Q316.39062 57.255207 316.85938 57.973957Q317.34375 58.677082 317.34375 59.598957Q317.34375 60.505207 316.8125 61.317707Q316.29688 62.130207 315.3125 62.583332Q314.32812 63.036457 313.10938 63.036457Q311.54688 63.036457 310.5 62.583332Q309.45312 62.114582 308.84375 61.208332Q308.25 60.302082 308.21875 59.145832ZM325.09375 58.333332L325.09375 56.989582L329.95312 56.989582L329.95312 61.239582Q328.82812 62.130207 327.64062 62.583332Q326.45312 63.036457 325.20312 63.036457Q323.51562 63.036457 322.14062 62.317707Q320.76562 61.583332 320.0625 60.223957Q319.35938 58.848957 319.35938 57.161457Q319.35938 55.489582 320.04688 54.036457Q320.75 52.583332 322.0625 51.880207Q323.375 51.177082 325.09375 51.177082Q326.32812 51.177082 327.32812 51.583332Q328.34375 51.989582 328.90625 52.708332Q329.48438 53.427082 329.78125 54.583332L328.40625 54.958332Q328.15625 54.083332 327.76562 53.583332Q327.39062 53.083332 326.67188 52.786457Q325.96875 52.473957 325.09375 52.473957Q324.0625 52.473957 323.29688 52.802082Q322.54688 53.114582 322.07812 53.630207Q321.60938 54.145832 321.35938 54.755207Q320.92188 55.817707 320.92188 57.067707Q320.92188 58.598957 321.4375 59.630207Q321.96875 60.661457 322.96875 61.161457Q323.98438 61.661457 325.125 61.661457Q326.10938 61.661457 327.04688 61.286457Q327.98438 60.895832 328.46875 60.473957L328.46875 58.333332L325.09375 58.333332ZM331.67188 62.833332L331.67188 51.380207L333.1875 51.380207L333.1875 61.473957L338.82812 61.473957L338.82812 62.833332L331.67188 62.833332ZM345.96875 61.802082Q345.1875 62.473957 344.46875 62.755207Q343.75 63.020832 342.92188 63.020832Q341.54688 63.020832 340.8125 62.348957Q340.07812 61.677082 340.07812 60.645832Q340.07812 60.036457 340.35938 59.536457Q340.64062 59.020832 341.07812 58.723957Q341.53125 58.411457 342.09375 58.255207Q342.51562 58.145832 343.34375 58.052082Q345.04688 57.848957 345.85938 57.567707Q345.85938 57.270832 345.85938 57.192707Q345.85938 56.333332 345.46875 55.989582Q344.92188 55.505207 343.85938 55.505207Q342.875 55.505207 342.39062 55.864582Q341.92188 56.208332 341.70312 57.083332L340.32812 56.895832Q340.51562 56.020832 340.9375 55.473957Q341.375 54.927082 342.1875 54.645832Q343.0 54.348957 344.0625 54.348957Q345.125 54.348957 345.78125 54.598957Q346.45312 54.848957 346.76562 55.223957Q347.07812 55.598957 347.20312 56.177082Q347.28125 56.536457 347.28125 57.473957L347.28125 59.348957Q347.28125 61.317707 347.35938 61.833332Q347.45312 62.348957 347.71875 62.833332L346.25 62.833332Q346.03125 62.395832 345.96875 61.802082ZM345.85938 58.661457Q345.09375 58.973957 343.5625 59.192707Q342.6875 59.317707 342.32812 59.473957Q341.96875 59.630207 341.76562 59.942707Q341.57812 60.239582 341.57812 60.598957Q341.57812 61.161457 342.0 61.536457Q342.4375 61.911457 343.25 61.911457Q344.0625 61.911457 344.6875 61.567707Q345.32812 61.208332 345.625 60.583332Q345.85938 60.114582 345.85938 59.177082L345.85938 58.661457ZM349.5625 62.833332L349.5625 54.536457L350.82812 54.536457L350.82812 55.708332Q351.73438 54.348957 353.46875 54.348957Q354.21875 54.348957 354.84375 54.614582Q355.46875 54.880207 355.78125 55.317707Q356.09375 55.755207 356.21875 56.364582Q356.29688 56.755207 356.29688 57.723957L356.29688 62.833332L354.89062 62.833332L354.89062 57.786457Q354.89062 56.927082 354.71875 56.505207Q354.5625 56.067707 354.14062 55.817707Q353.73438 55.567707 353.17188 55.567707Q352.26562 55.567707 351.60938 56.145832Q350.96875 56.708332 350.96875 58.302082L350.96875 62.833332L349.5625 62.833332ZM357.29688 63.520832L358.67188 63.723957Q358.75 64.36458 359.14062 64.64583Q359.67188 65.03645 360.57812 65.03645Q361.54688 65.03645 362.07812 64.64583Q362.60938 64.2552 362.79688 63.552082Q362.90625 63.130207 362.90625 61.739582Q361.98438 62.833332 360.60938 62.833332Q358.89062 62.833332 357.95312 61.598957Q357.01562 60.364582 357.01562 58.630207Q357.01562 57.442707 357.4375 56.442707Q357.875 55.442707 358.6875 54.895832Q359.51562 54.348957 360.60938 54.348957Q362.07812 54.348957 363.03125 55.536457L363.03125 54.536457L364.32812 54.536457L364.32812 61.708332Q364.32812 63.645832 363.9375 64.45833Q363.54688 65.27083 362.6875 65.73958Q361.82812 66.20833 360.57812 66.20833Q359.09375 66.20833 358.17188 65.53645Q357.26562 64.86458 357.29688 63.520832ZM358.46875 58.536457Q358.46875 60.161457 359.10938 60.911457Q359.76562 61.661457 360.73438 61.661457Q361.70312 61.661457 362.35938 60.927082Q363.01562 60.177082 363.01562 58.583332Q363.01562 57.052082 362.34375 56.286457Q361.67188 55.505207 360.71875 55.505207Q359.78125 55.505207 359.125 56.270832Q358.46875 57.036457 358.46875 58.536457ZM372.85938 62.833332L369.70312 54.536457L371.1875 54.536457L372.96875 59.505207Q373.26562 60.302082 373.5 61.177082Q373.6875 60.520832 374.03125 59.598957L375.875 54.536457L377.3125 54.536457L374.17188 62.833332L372.85938 62.833332ZM377.17188 57.177082Q377.17188 55.145832 377.57812 53.911457Q378.0 52.677082 378.82812 52.005207Q379.65625 51.333332 380.90625 51.333332Q381.82812 51.333332 382.51562 51.708332Q383.21875 52.067707 383.67188 52.770832Q384.125 53.473957 384.375 54.473957Q384.64062 55.473957 384.64062 57.177082Q384.64062 59.192707 384.21875 60.442707Q383.8125 61.677082 382.98438 62.364582Q382.15625 63.036457 380.90625 63.036457Q379.25 63.036457 378.29688 61.833332Q377.17188 60.411457 377.17188 57.177082ZM378.60938 57.177082Q378.60938 60.005207 379.26562 60.942707Q379.9375 61.864582 380.90625 61.864582Q381.875 61.864582 382.53125 60.927082Q383.1875 59.989582 383.1875 57.177082Q383.1875 54.348957 382.53125 53.427082Q381.875 52.489582 380.89062 52.489582Q379.92188 52.489582 379.34375 53.317707Q378.60938 54.364582 378.60938 57.177082ZM386.95312 62.833332L386.95312 61.223957L388.5625 61.223957L388.5625 62.833332L386.95312 62.833332ZM390.17188 59.802082L391.57812 59.614582Q391.82812 60.817707 392.40625 61.348957Q392.98438 61.864582 393.82812 61.864582Q394.8125 61.864582 395.5 61.177082Q396.1875 60.489582 396.1875 59.473957Q396.1875 58.505207 395.54688 57.880207Q394.92188 57.255207 393.9375 57.255207Q393.54688 57.255207 392.95312 57.411457L393.10938 56.177082Q393.25 56.192707 393.32812 56.192707Q394.23438 56.192707 394.95312 55.723957Q395.67188 55.255207 395.67188 54.270832Q395.67188 53.505207 395.14062 53.005207Q394.625 52.489582 393.79688 52.489582Q392.96875 52.489582 392.42188 53.005207Q391.875 53.520832 391.71875 54.552082L390.3125 54.302082Q390.57812 52.880207 391.48438 52.114582Q392.40625 51.333332 393.76562 51.333332Q394.70312 51.333332 395.48438 51.739582Q396.28125 52.130207 396.6875 52.833332Q397.10938 53.520832 397.10938 54.302082Q397.10938 55.052082 396.70312 55.661457Q396.3125 56.270832 395.53125 56.630207Q396.54688 56.864582 397.10938 57.598957Q397.67188 58.333332 397.67188 59.442707Q397.67188 60.942707 396.57812 61.989582Q395.48438 63.036457 393.8125 63.036457Q392.3125 63.036457 391.3125 62.145832Q390.3125 61.239582 390.17188 59.802082Z" fill-rule="nonzero"/><path fill="#fbbc04" d="M414.5 52.333332C414.5 51.781048 414.94772 51.333332 415.5 51.333332L425.5 51.333332C426.05228 51.333332 426.5 51.781048 426.5 52.333332L426.5 62.333332C426.5 62.885616 426.05228 63.333332 425.5 63.333332L415.5 63.333332C414.94772 63.333332 414.5 62.885616 414.5 62.333332Z" fill-rule="nonzero"/><path fill="#1a1a1a" d="M435.21875 59.145832L436.65625 59.020832Q436.75 59.880207 437.125 60.442707Q437.5 60.989582 438.28125 61.333332Q439.0625 61.661457 440.03125 61.661457Q440.90625 61.661457 441.5625 61.411457Q442.23438 61.145832 442.54688 60.708332Q442.875 60.255207 442.875 59.723957Q442.875 59.177082 442.5625 58.786457Q442.25 58.380207 441.53125 58.098957Q441.07812 57.927082 439.5 57.552082Q437.92188 57.161457 437.28125 56.833332Q436.46875 56.395832 436.0625 55.770832Q435.65625 55.130207 435.65625 54.333332Q435.65625 53.473957 436.14062 52.723957Q436.64062 51.958332 437.57812 51.567707Q438.53125 51.177082 439.6875 51.177082Q440.96875 51.177082 441.9375 51.598957Q442.90625 52.005207 443.42188 52.802082Q443.95312 53.598957 444.0 54.598957L442.54688 54.708332Q442.42188 53.630207 441.75 53.083332Q441.07812 52.520832 439.75 52.520832Q438.375 52.520832 437.75 53.020832Q437.125 53.520832 437.125 54.239582Q437.125 54.848957 437.5625 55.255207Q438.0 55.645832 439.84375 56.067707Q441.70312 56.489582 442.39062 56.802082Q443.39062 57.255207 443.85938 57.973957Q444.34375 58.677082 444.34375 59.598957Q444.34375 60.505207 443.8125 61.317707Q443.29688 62.130207 442.3125 62.583332Q441.32812 63.036457 440.10938 63.036457Q438.54688 63.036457 437.5 62.583332Q436.45312 62.114582 435.84375 61.208332Q435.25 60.302082 435.21875 59.145832ZM452.09375 58.333332L452.09375 56.989582L456.95312 56.989582L456.95312 61.239582Q455.82812 62.130207 454.64062 62.583332Q453.45312 63.036457 452.20312 63.036457Q450.51562 63.036457 449.14062 62.317707Q447.76562 61.583332 447.0625 60.223957Q446.35938 58.848957 446.35938 57.161457Q446.35938 55.489582 447.04688 54.036457Q447.75 52.583332 449.0625 51.880207Q450.375 51.177082 452.09375 51.177082Q453.32812 51.177082 454.32812 51.583332Q455.34375 51.989582 455.90625 52.708332Q456.48438 53.427082 456.78125 54.583332L455.40625 54.958332Q455.15625 54.083332 454.76562 53.583332Q454.39062 53.083332 453.67188 52.786457Q452.96875 52.473957 452.09375 52.473957Q451.0625 52.473957 450.29688 52.802082Q449.54688 53.114582 449.07812 53.630207Q448.60938 54.145832 448.35938 54.755207Q447.92188 55.817707 447.92188 57.067707Q447.92188 58.598957 448.4375 59.630207Q448.96875 60.661457 449.96875 61.161457Q450.98438 61.661457 452.125 61.661457Q453.10938 61.661457 454.04688 61.286457Q454.98438 60.895832 455.46875 60.473957L455.46875 58.333332L452.09375 58.333332ZM458.67188 62.833332L458.67188 51.380207L460.1875 51.380207L460.1875 61.473957L465.82812 61.473957L465.82812 62.833332L458.67188 62.833332ZM472.96875 61.802082Q472.1875 62.473957 471.46875 62.755207Q470.75 63.020832 469.92188 63.020832Q468.54688 63.020832 467.8125 62.348957Q467.07812 61.677082 467.07812 60.645832Q467.07812 60.036457 467.35938 59.536457Q467.64062 59.020832 468.07812 58.723957Q468.53125 58.411457 469.09375 58.255207Q469.51562 58.145832 470.34375 58.052082Q472.04688 57.848957 472.85938 57.567707Q472.85938 57.270832 472.85938 57.192707Q472.85938 56.333332 472.46875 55.989582Q471.92188 55.505207 470.85938 55.505207Q469.875 55.505207 469.39062 55.864582Q468.92188 56.208332 468.70312 57.083332L467.32812 56.895832Q467.51562 56.020832 467.9375 55.473957Q468.375 54.927082 469.1875 54.645832Q470.0 54.348957 471.0625 54.348957Q472.125 54.348957 472.78125 54.598957Q473.45312 54.848957 473.76562 55.223957Q474.07812 55.598957 474.20312 56.177082Q474.28125 56.536457 474.28125 57.473957L474.28125 59.348957Q474.28125 61.317707 474.35938 61.833332Q474.45312 62.348957 474.71875 62.833332L473.25 62.833332Q473.03125 62.395832 472.96875 61.802082ZM472.85938 58.661457Q472.09375 58.973957 470.5625 59.192707Q469.6875 59.317707 469.32812 59.473957Q468.96875 59.630207 468.76562 59.942707Q468.57812 60.239582 468.57812 60.598957Q468.57812 61.161457 469.0 61.536457Q469.4375 61.911457 470.25 61.911457Q471.0625 61.911457 471.6875 61.567707Q472.32812 61.208332 472.625 60.583332Q472.85938 60.114582 472.85938 59.177082L472.85938 58.661457ZM476.5625 62.833332L476.5625 54.536457L477.82812 54.536457L477.82812 55.708332Q478.73438 54.348957 480.46875 54.348957Q481.21875 54.348957 481.84375 54.614582Q482.46875 54.880207 482.78125 55.317707Q483.09375 55.755207 483.21875 56.364582Q483.29688 56.755207 483.29688 57.723957L483.29688 62.833332L481.89062 62.833332L481.89062 57.786457Q481.89062 56.927082 481.71875 56.505207Q481.5625 56.067707 481.14062 55.817707Q480.73438 55.567707 480.17188 55.567707Q479.26562 55.567707 478.60938 56.145832Q477.96875 56.708332 477.96875 58.302082L477.96875 62.833332L476.5625 62.833332ZM484.29688 63.520832L485.67188 63.723957Q485.75 64.36458 486.14062 64.64583Q486.67188 65.03645 487.57812 65.03645Q488.54688 65.03645 489.07812 64.64583Q489.60938 64.2552 489.79688 63.552082Q489.90625 63.130207 489.90625 61.739582Q488.98438 62.833332 487.60938 62.833332Q485.89062 62.833332 484.95312 61.598957Q484.01562 60.364582 484.01562 58.630207Q484.01562 57.442707 484.4375 56.442707Q484.875 55.442707 485.6875 54.895832Q486.51562 54.348957 487.60938 54.348957Q489.07812 54.348957 490.03125 55.536457L490.03125 54.536457L491.32812 54.536457L491.32812 61.708332Q491.32812 63.645832 490.9375 64.45833Q490.54688 65.27083 489.6875 65.73958Q488.82812 66.20833 487.57812 66.20833Q486.09375 66.20833 485.17188 65.53645Q484.26562 64.86458 484.29688 63.520832ZM485.46875 58.536457Q485.46875 60.161457 486.10938 60.911457Q486.76562 61.661457 487.73438 61.661457Q488.70312 61.661457 489.35938 60.927082Q490.01562 60.177082 490.01562 58.583332Q490.01562 57.052082 489.34375 56.286457Q488.67188 55.505207 487.71875 55.505207Q486.78125 55.505207 486.125 56.270832Q485.46875 57.036457 485.46875 58.536457ZM499.85938 62.833332L496.70312 54.536457L498.1875 54.536457L499.96875 59.505207Q500.26562 60.302082 500.5 61.177082Q500.6875 60.520832 501.03125 59.598957L502.875 54.536457L504.3125 54.536457L501.17188 62.833332L499.85938 62.833332ZM504.17188 57.177082Q504.17188 55.145832 504.57812 53.911457Q505.0 52.677082 505.82812 52.005207Q506.65625 51.333332 507.90625 51.333332Q508.82812 51.333332 509.51562 51.708332Q510.21875 52.067707 510.67188 52.770832Q511.125 53.473957 511.375 54.473957Q511.64062 55.473957 511.64062 57.177082Q511.64062 59.192707 511.21875 60.442707Q510.8125 61.677082 509.98438 62.364582Q509.15625 63.036457 507.90625 63.036457Q506.25 63.036457 505.29688 61.833332Q504.17188 60.411457 504.17188 57.177082ZM505.60938 57.177082Q505.60938 60.005207 506.26562 60.942707Q506.9375 61.864582 507.90625 61.864582Q508.875 61.864582 509.53125 60.927082Q510.1875 59.989582 510.1875 57.177082Q510.1875 54.348957 509.53125 53.427082Q508.875 52.489582 507.89062 52.489582Q506.92188 52.489582 506.34375 53.317707Q505.60938 54.364582 505.60938 57.177082ZM513.9531 62.833332L513.9531 61.223957L515.5625 61.223957L515.5625 62.833332L513.9531 62.833332ZM521.6719 62.833332L521.6719 60.083332L516.7031 60.083332L516.7031 58.802082L521.9375 51.380207L523.0781 51.380207L523.0781 58.802082L524.625 58.802082L524.625 60.083332L523.0781 60.083332L523.0781 62.833332L521.6719 62.833332ZM521.6719 58.802082L521.6719 53.630207L518.09375 58.802082L521.6719 58.802082Z" fill-rule="nonzero"/><path fill="#757575" d="M20.96875 33.5L20.96875 19.90625L25.65625 19.90625Q27.234375 19.90625 28.078125 20.09375Q29.234375 20.359375 30.0625 21.0625Q31.140625 21.984375 31.671875 23.40625Q32.203125 24.8125 32.203125 26.625Q32.203125 28.171875 31.84375 29.375Q31.484375 30.5625 30.921875 31.359375Q30.359375 32.140625 29.6875 32.59375Q29.015625 33.03125 28.0625 33.265625Q27.109375 33.5 25.875 33.5L20.96875 33.5ZM22.765625 31.890625L25.671875 31.890625Q27.015625 31.890625 27.78125 31.640625Q28.546875 31.390625 29.0 30.9375Q29.640625 30.296875 30.0 29.21875Q30.359375 28.140625 30.359375 26.59375Q30.359375 24.46875 29.65625 23.328125Q28.953125 22.171875 27.953125 21.78125Q27.234375 21.5 25.625 21.5L22.765625 21.5L22.765625 31.890625ZM41.5 30.328125L43.21875 30.546875Q42.8125 32.046875 41.703125 32.890625Q40.609375 33.71875 38.890625 33.71875Q36.734375 33.71875 35.46875 32.390625Q34.203125 31.0625 34.203125 28.65625Q34.203125 26.171875 35.46875 24.796875Q36.75 23.421875 38.796875 23.421875Q40.78125 23.421875 42.03125 24.765625Q43.28125 26.109375 43.28125 28.5625Q43.28125 28.703125 43.265625 29.0L35.921875 29.0Q36.015625 30.625 36.84375 31.484375Q37.671875 32.34375 38.90625 32.34375Q39.8125 32.34375 40.453125 31.875Q41.109375 31.390625 41.5 30.328125ZM36.015625 27.625L41.515625 27.625Q41.40625 26.390625 40.890625 25.765625Q40.09375 24.796875 38.8125 24.796875Q37.671875 24.796875 36.875 25.578125Q36.09375 26.34375 36.015625 27.625ZM52.5 30.328125L54.21875 30.546875Q53.8125 32.046875 52.703125 32.890625Q51.609375 33.71875 49.890625 33.71875Q47.734375 33.71875 46.46875 32.390625Q45.203125 31.0625 45.203125 28.65625Q45.203125 26.171875 46.46875 24.796875Q47.75 23.421875 49.796875 23.421875Q51.78125 23.421875 53.03125 24.765625Q54.28125 26.109375 54.28125 28.5625Q54.28125 28.703125 54.265625 29.0L46.921875 29.0Q47.015625 30.625 47.84375 31.484375Q48.671875 32.34375 49.90625 32.34375Q50.8125 32.34375 51.453125 31.875Q52.109375 31.390625 52.5 30.328125ZM47.015625 27.625L52.515625 27.625Q52.40625 26.390625 51.890625 25.765625Q51.09375 24.796875 49.8125 24.796875Q48.671875 24.796875 47.875 25.578125Q47.09375 26.34375 47.015625 27.625ZM56.75 37.28125L56.75 23.640625L58.28125 23.640625L58.28125 24.921875Q58.8125 24.171875 59.484375 23.796875Q60.171875 23.421875 61.125 23.421875Q62.390625 23.421875 63.359375 24.078125Q64.328125 24.71875 64.8125 25.90625Q65.3125 27.09375 65.3125 28.5Q65.3125 30.015625 64.765625 31.234375Q64.21875 32.4375 63.1875 33.078125Q62.15625 33.71875 61.015625 33.71875Q60.171875 33.71875 59.5 33.375Q58.84375 33.015625 58.421875 32.484375L58.421875 37.28125L56.75 37.28125ZM58.265625 28.625Q58.265625 30.53125 59.03125 31.4375Q59.8125 32.34375 60.90625 32.34375Q62.015625 32.34375 62.796875 31.40625Q63.59375 30.46875 63.59375 28.484375Q63.59375 26.609375 62.8125 25.671875Q62.046875 24.734375 60.96875 24.734375Q59.90625 24.734375 59.078125 25.734375Q58.265625 26.734375 58.265625 28.625ZM67.359375 29.125L69.046875 28.984375Q69.171875 30.0 69.609375 30.65625Q70.046875 31.3125 70.96875 31.71875Q71.90625 32.125 73.0625 32.125Q74.09375 32.125 74.875 31.8125Q75.671875 31.5 76.0625 30.96875Q76.453125 30.4375 76.453125 29.8125Q76.453125 29.171875 76.078125 28.703125Q75.703125 28.21875 74.84375 27.890625Q74.296875 27.671875 72.421875 27.234375Q70.546875 26.78125 69.796875 26.375Q68.828125 25.859375 68.34375 25.109375Q67.875 24.359375 67.875 23.421875Q67.875 22.390625 68.453125 21.5Q69.046875 20.59375 70.15625 20.140625Q71.28125 19.671875 72.65625 19.671875Q74.171875 19.671875 75.328125 20.15625Q76.484375 20.640625 77.09375 21.59375Q77.71875 22.53125 77.765625 23.734375L76.046875 23.859375Q75.90625 22.578125 75.09375 21.921875Q74.296875 21.25 72.734375 21.25Q71.109375 21.25 70.359375 21.859375Q69.609375 22.453125 69.609375 23.296875Q69.609375 24.03125 70.140625 24.5Q70.65625 24.96875 72.84375 25.46875Q75.046875 25.96875 75.859375 26.34375Q77.046875 26.890625 77.609375 27.734375Q78.1875 28.5625 78.1875 29.65625Q78.1875 30.75 77.5625 31.71875Q76.9375 32.671875 75.765625 33.203125Q74.609375 33.734375 73.15625 33.734375Q71.3125 33.734375 70.0625 33.203125Q68.8125 32.65625 68.09375 31.578125Q67.390625 30.5 67.359375 29.125ZM87.5 30.328125L89.21875 30.546875Q88.8125 32.046875 87.703125 32.890625Q86.609375 33.71875 84.890625 33.71875Q82.734375 33.71875 81.46875 32.390625Q80.203125 31.0625 80.203125 28.65625Q80.203125 26.171875 81.46875 24.796875Q82.75 23.421875 84.796875 23.421875Q86.78125 23.421875 88.03125 24.765625Q89.28125 26.109375 89.28125 28.5625Q89.28125 28.703125 89.265625 29.0L81.921875 29.0Q82.015625 30.625 82.84375 31.484375Q83.671875 32.34375 84.90625 32.34375Q85.8125 32.34375 86.453125 31.875Q87.109375 31.390625 87.5 30.328125ZM82.015625 27.625L87.515625 27.625Q87.40625 26.390625 86.890625 25.765625Q86.09375 24.796875 84.8125 24.796875Q83.671875 24.796875 82.875 25.578125Q82.09375 26.34375 82.015625 27.625ZM98.5 30.328125L100.21875 30.546875Q99.8125 32.046875 98.703125 32.890625Q97.609375 33.71875 95.890625 33.71875Q93.734375 33.71875 92.46875 32.390625Q91.203125 31.0625 91.203125 28.65625Q91.203125 26.171875 92.46875 24.796875Q93.75 23.421875 95.796875 23.421875Q97.78125 23.421875 99.03125 24.765625Q100.28125 26.109375 100.28125 28.5625Q100.28125 28.703125 100.265625 29.0L92.921875 29.0Q93.015625 30.625 93.84375 31.484375Q94.671875 32.34375 95.90625 32.34375Q96.8125 32.34375 97.453125 31.875Q98.109375 31.390625 98.5 30.328125ZM93.015625 27.625L98.515625 27.625Q98.40625 26.390625 97.890625 25.765625Q97.09375 24.796875 95.8125 24.796875Q94.671875 24.796875 93.875 25.578125Q93.09375 26.34375 93.015625 27.625ZM102.765625 33.5L102.765625 19.90625L104.4375 19.90625L104.4375 27.65625L108.390625 23.640625L110.546875 23.640625L106.78125 27.296875L110.921875 33.5L108.859375 33.5L105.609375 28.46875L104.4375 29.59375L104.4375 33.5L102.765625 33.5ZM121.671875 28.734375L123.46875 29.1875Q122.90625 31.40625 121.4375 32.578125Q119.96875 33.734375 117.84375 33.734375Q115.640625 33.734375 114.265625 32.84375Q112.890625 31.9375 112.171875 30.25Q111.453125 28.546875 111.453125 26.59375Q111.453125 24.46875 112.25 22.890625Q113.0625 21.3125 114.5625 20.5Q116.0625 19.671875 117.859375 19.671875Q119.90625 19.671875 121.296875 20.71875Q122.6875 21.75 123.234375 23.625L121.46875 24.046875Q121.0 22.5625 120.09375 21.890625Q119.1875 21.203125 117.828125 21.203125Q116.265625 21.203125 115.203125 21.953125Q114.15625 22.703125 113.71875 23.984375Q113.296875 25.25 113.296875 26.59375Q113.296875 28.328125 113.796875 29.625Q114.3125 30.90625 115.375 31.546875Q116.453125 32.1875 117.6875 32.1875Q119.203125 32.1875 120.25 31.328125Q121.296875 30.453125 121.671875 28.734375ZM125.125 28.578125Q125.125 25.84375 126.65625 24.515625Q127.921875 23.421875 129.75 23.421875Q131.78125 23.421875 133.0625 24.765625Q134.35938 26.09375 134.35938 28.4375Q134.35938 30.34375 133.78125 31.4375Q133.21875 32.515625 132.125 33.125Q131.04688 33.71875 129.75 33.71875Q127.6875 33.71875 126.40625 32.390625Q125.125 31.0625 125.125 28.578125ZM126.84375 28.578125Q126.84375 30.46875 127.671875 31.40625Q128.5 32.34375 129.75 32.34375Q131.0 32.34375 131.8125 31.40625Q132.64062 30.453125 132.64062 28.515625Q132.64062 26.6875 131.8125 25.75Q130.98438 24.8125 129.75 24.8125Q128.5 24.8125 127.671875 25.75Q126.84375 26.6875 126.84375 28.578125ZM143.14062 33.5L143.14062 32.25Q142.20312 33.71875 140.39062 33.71875Q139.21875 33.71875 138.21875 33.078125Q137.23438 32.421875 136.6875 31.265625Q136.15625 30.09375 136.15625 28.578125Q136.15625 27.109375 136.64062 25.90625Q137.14062 24.703125 138.10938 24.0625Q139.09375 23.421875 140.3125 23.421875Q141.20312 23.421875 141.89062 23.796875Q142.59375 24.171875 143.03125 24.78125L143.03125 19.90625L144.6875 19.90625L144.6875 33.5L143.14062 33.5ZM137.85938 28.578125Q137.85938 30.46875 138.65625 31.40625Q139.46875 32.34375 140.54688 32.34375Q141.64062 32.34375 142.40625 31.453125Q143.17188 30.5625 143.17188 28.71875Q143.17188 26.703125 142.39062 25.765625Q141.60938 24.8125 140.46875 24.8125Q139.35938 24.8125 138.60938 25.71875Q137.85938 26.625 137.85938 28.578125ZM154.5 30.328125L156.21875 30.546875Q155.8125 32.046875 154.70312 32.890625Q153.60938 33.71875 151.89062 33.71875Q149.73438 33.71875 148.46875 32.390625Q147.20312 31.0625 147.20312 28.65625Q147.20312 26.171875 148.46875 24.796875Q149.75 23.421875 151.79688 23.421875Q153.78125 23.421875 155.03125 24.765625Q156.28125 26.109375 156.28125 28.5625Q156.28125 28.703125 156.26562 29.0L148.92188 29.0Q149.01562 30.625 149.84375 31.484375Q150.67188 32.34375 151.90625 32.34375Q152.8125 32.34375 153.45312 31.875Q154.10938 31.390625 154.5 30.328125ZM149.01562 27.625L154.51562 27.625Q154.40625 26.390625 153.89062 25.765625Q153.09375 24.796875 151.8125 24.796875Q150.67188 24.796875 149.875 25.578125Q149.09375 26.34375 149.01562 27.625ZM158.73438 33.5L158.73438 23.640625L160.23438 23.640625L160.23438 25.140625Q160.8125 24.09375 161.29688 23.765625Q161.78125 23.421875 162.375 23.421875Q163.21875 23.421875 164.09375 23.96875L163.51562 25.515625Q162.90625 25.15625 162.28125 25.15625Q161.73438 25.15625 161.29688 25.484375Q160.875 25.8125 160.6875 26.390625Q160.40625 27.28125 160.40625 28.34375L160.40625 33.5L158.73438 33.5ZM164.10938 29.421875L164.10938 27.734375L169.23438 27.734375L169.23438 29.421875L164.10938 29.421875ZM174.85938 33.5L169.57812 19.90625L171.53125 19.90625L175.0625 29.78125Q175.5 30.96875 175.78125 32.0Q176.09375 30.890625 176.51562 29.78125L180.1875 19.90625L182.03125 19.90625L176.70312 33.5L174.85938 33.5ZM192.0625 31.890625L192.0625 33.5L183.07812 33.5Q183.0625 32.890625 183.26562 32.34375Q183.60938 31.421875 184.35938 30.53125Q185.125 29.640625 186.54688 28.46875Q188.76562 26.65625 189.54688 25.59375Q190.32812 24.53125 190.32812 23.578125Q190.32812 22.59375 189.60938 21.90625Q188.90625 21.21875 187.76562 21.21875Q186.5625 21.21875 185.82812 21.953125Q185.10938 22.671875 185.10938 23.953125L183.39062 23.78125Q183.5625 21.859375 184.71875 20.859375Q185.875 19.84375 187.8125 19.84375Q189.76562 19.84375 190.90625 20.9375Q192.04688 22.015625 192.04688 23.625Q192.04688 24.4375 191.70312 25.234375Q191.375 26.015625 190.59375 26.890625Q189.82812 27.75 188.03125 29.28125Q186.53125 30.546875 186.09375 31.0Q185.67188 31.4375 185.39062 31.890625L192.0625 31.890625ZM203.42188 33.5L203.42188 21.5L198.95312 21.5L198.95312 19.90625L209.71875 19.90625L209.71875 21.5L205.21875 21.5L205.21875 33.5L203.42188 33.5ZM211.75 33.5L211.75 19.90625L213.42188 19.90625L213.42188 24.78125Q214.59375 23.421875 216.375 23.421875Q217.46875 23.421875 218.26562 23.859375Q219.07812 24.28125 219.42188 25.046875Q219.78125 25.8125 219.78125 27.25L219.78125 33.5L218.10938 33.5L218.10938 27.25Q218.10938 26.0 217.5625 25.4375Q217.01562 24.859375 216.03125 24.859375Q215.28125 24.859375 214.625 25.25Q213.98438 25.625 213.70312 26.296875Q213.42188 26.953125 213.42188 28.109375L213.42188 33.5L211.75 33.5ZM221.73438 33.5L221.73438 23.640625L223.23438 23.640625L223.23438 25.140625Q223.8125 24.09375 224.29688 23.765625Q224.78125 23.421875 225.375 23.421875Q226.21875 23.421875 227.09375 23.96875L226.51562 25.515625Q225.90625 25.15625 225.28125 25.15625Q224.73438 25.15625 224.29688 25.484375Q223.875 25.8125 223.6875 26.390625Q223.40625 27.28125 223.40625 28.34375L223.40625 33.5L221.73438 33.5ZM227.125 28.578125Q227.125 25.84375 228.65625 24.515625Q229.92188 23.421875 231.75 23.421875Q233.78125 23.421875 235.0625 24.765625Q236.35938 26.09375 236.35938 28.4375Q236.35938 30.34375 235.78125 31.4375Q235.21875 32.515625 234.125 33.125Q233.04688 33.71875 231.75 33.71875Q229.6875 33.71875 228.40625 32.390625Q227.125 31.0625 227.125 28.578125ZM228.84375 28.578125Q228.84375 30.46875 229.67188 31.40625Q230.5 32.34375 231.75 32.34375Q233.0 32.34375 233.8125 31.40625Q234.64062 30.453125 234.64062 28.515625Q234.64062 26.6875 233.8125 25.75Q232.98438 24.8125 231.75 24.8125Q230.5 24.8125 229.67188 25.75Q228.84375 26.6875 228.84375 28.578125ZM245.20312 33.5L245.20312 32.046875Q244.0625 33.71875 242.07812 33.71875Q241.21875 33.71875 240.45312 33.390625Q239.70312 33.046875 239.32812 32.546875Q238.96875 32.046875 238.8125 31.3125Q238.71875 30.8125 238.71875 29.75L238.71875 23.640625L240.39062 23.640625L240.39062 29.109375Q240.39062 30.421875 240.48438 30.875Q240.64062 31.53125 241.15625 31.90625Q241.67188 32.28125 242.42188 32.28125Q243.17188 32.28125 243.82812 31.90625Q244.48438 31.515625 244.75 30.859375Q245.03125 30.1875 245.03125 28.921875L245.03125 23.640625L246.70312 23.640625L246.70312 33.5L245.20312 33.5ZM248.45312 34.3125L250.0625 34.5625Q250.17188 35.3125 250.64062 35.65625Q251.25 36.109375 252.32812 36.109375Q253.5 36.109375 254.125 35.640625Q254.75 35.1875 254.98438 34.359375Q255.10938 33.84375 255.09375 32.203125Q254.0 33.5 252.375 33.5Q250.34375 33.5 249.21875 32.03125Q248.10938 30.5625 248.10938 28.515625Q248.10938 27.109375 248.625 25.921875Q249.14062 24.71875 250.10938 24.078125Q251.07812 23.421875 252.375 23.421875Q254.125 23.421875 255.25 24.828125L255.25 23.640625L256.79688 23.640625L256.79688 32.15625Q256.79688 34.46875 256.32812 35.421875Q255.85938 36.390625 254.84375 36.9375Q253.82812 37.5 252.34375 37.5Q250.57812 37.5 249.48438 36.703125Q248.40625 35.90625 248.45312 34.3125ZM249.82812 28.390625Q249.82812 30.34375 250.59375 31.234375Q251.375 32.125 252.53125 32.125Q253.67188 32.125 254.45312 31.234375Q255.23438 30.34375 255.23438 28.453125Q255.23438 26.640625 254.42188 25.734375Q253.625 24.8125 252.5 24.8125Q251.39062 24.8125 250.60938 25.71875Q249.82812 26.609375 249.82812 28.390625ZM259.75 33.5L259.75 19.90625L261.42188 19.90625L261.42188 24.78125Q262.59375 23.421875 264.375 23.421875Q265.46875 23.421875 266.26562 23.859375Q267.07812 24.28125 267.42188 25.046875Q267.78125 25.8125 267.78125 27.25L267.78125 33.5L266.10938 33.5L266.10938 27.25Q266.10938 26.0 265.5625 25.4375Q265.01562 24.859375 264.03125 24.859375Q263.28125 24.859375 262.625 25.25Q261.98438 25.625 261.70312 26.296875Q261.42188 26.953125 261.42188 28.109375L261.42188 33.5L259.75 33.5ZM269.75 37.28125L269.75 23.640625L271.28125 23.640625L271.28125 24.921875Q271.8125 24.171875 272.48438 23.796875Q273.17188 23.421875 274.125 23.421875Q275.39062 23.421875 276.35938 24.078125Q277.32812 24.71875 277.8125 25.90625Q278.3125 27.09375 278.3125 28.5Q278.3125 30.015625 277.76562 31.234375Q277.21875 32.4375 276.1875 33.078125Q275.15625 33.71875 274.01562 33.71875Q273.17188 33.71875 272.5 33.375Q271.84375 33.015625 271.42188 32.484375L271.42188 37.28125L269.75 37.28125ZM271.26562 28.625Q271.26562 30.53125 272.03125 31.4375Q272.8125 32.34375 273.90625 32.34375Q275.01562 32.34375 275.79688 31.40625Q276.59375 30.46875 276.59375 28.484375Q276.59375 26.609375 275.8125 25.671875Q275.04688 24.734375 273.96875 24.734375Q272.90625 24.734375 272.07812 25.734375Q271.26562 26.734375 271.26562 28.625ZM287.20312 33.5L287.20312 32.046875Q286.0625 33.71875 284.07812 33.71875Q283.21875 33.71875 282.45312 33.390625Q281.70312 33.046875 281.32812 32.546875Q280.96875 32.046875 280.8125 31.3125Q280.71875 30.8125 280.71875 29.75L280.71875 23.640625L282.39062 23.640625L282.39062 29.109375Q282.39062 30.421875 282.48438 30.875Q282.64062 31.53125 283.15625 31.90625Q283.67188 32.28125 284.42188 32.28125Q285.17188 32.28125 285.82812 31.90625Q286.48438 31.515625 286.75 30.859375Q287.03125 30.1875 287.03125 28.921875L287.03125 23.640625L288.70312 23.640625L288.70312 33.5L287.20312 33.5ZM294.40625 32.0L294.64062 33.484375Q293.9375 33.625 293.375 33.625Q292.46875 33.625 291.96875 33.34375Q291.46875 33.046875 291.26562 32.59375Q291.0625 32.125 291.0625 30.609375L291.0625 24.953125L289.82812 24.953125L289.82812 23.640625L291.0625 23.640625L291.0625 21.203125L292.71875 20.203125L292.71875 23.640625L294.40625 23.640625L294.40625 24.953125L292.71875 24.953125L292.71875 30.703125Q292.71875 31.421875 292.79688 31.625Q292.89062 31.828125 293.09375 31.953125Q293.29688 32.078125 293.67188 32.078125Q293.9375 32.078125 294.40625 32.0ZM300.89062 33.5L300.89062 19.90625L306.0 19.90625Q307.54688 19.90625 308.48438 20.3125Q309.4375 20.71875 309.96875 21.578125Q310.5 22.4375 310.5 23.375Q310.5 24.25 310.03125 25.03125Q309.5625 25.796875 308.59375 26.265625Q309.82812 26.625 310.48438 27.5Q311.15625 28.375 311.15625 29.5625Q311.15625 30.515625 310.75 31.34375Q310.35938 32.15625 309.76562 32.609375Q309.17188 33.046875 308.26562 33.28125Q307.375 33.5 306.07812 33.5L300.89062 33.5ZM302.6875 25.609375L305.625 25.609375Q306.82812 25.609375 307.34375 25.453125Q308.03125 25.25 308.375 24.78125Q308.73438 24.3125 308.73438 23.59375Q308.73438 22.921875 308.40625 22.40625Q308.07812 21.890625 307.46875 21.703125Q306.875 21.5 305.40625 21.5L302.6875 21.5L302.6875 25.609375ZM302.6875 31.890625L306.07812 31.890625Q306.95312 31.890625 307.29688 31.828125Q307.92188 31.71875 308.34375 31.46875Q308.76562 31.203125 309.03125 30.703125Q309.29688 30.203125 309.29688 29.5625Q309.29688 28.796875 308.90625 28.234375Q308.51562 27.671875 307.82812 27.453125Q307.14062 27.21875 305.84375 27.21875L302.6875 27.21875L302.6875 31.890625ZM320.5 30.328125L322.21875 30.546875Q321.8125 32.046875 320.70312 32.890625Q319.60938 33.71875 317.89062 33.71875Q315.73438 33.71875 314.46875 32.390625Q313.20312 31.0625 313.20312 28.65625Q313.20312 26.171875 314.46875 24.796875Q315.75 23.421875 317.79688 23.421875Q319.78125 23.421875 321.03125 24.765625Q322.28125 26.109375 322.28125 28.5625Q322.28125 28.703125 322.26562 29.0L314.92188 29.0Q315.01562 30.625 315.84375 31.484375Q316.67188 32.34375 317.90625 32.34375Q318.8125 32.34375 319.45312 31.875Q320.10938 31.390625 320.5 30.328125ZM315.01562 27.625L320.51562 27.625Q320.40625 26.390625 319.89062 25.765625Q319.09375 24.796875 317.8125 24.796875Q316.67188 24.796875 315.875 25.578125Q315.09375 26.34375 315.01562 27.625ZM324.75 33.5L324.75 23.640625L326.25 23.640625L326.25 25.046875Q327.34375 23.421875 329.39062 23.421875Q330.28125 23.421875 331.03125 23.75Q331.78125 24.0625 332.14062 24.59375Q332.51562 25.109375 332.67188 25.8125Q332.76562 26.28125 332.76562 27.4375L332.76562 33.5L331.09375 33.5L331.09375 27.5Q331.09375 26.484375 330.89062 25.984375Q330.70312 25.46875 330.20312 25.171875Q329.70312 24.875 329.03125 24.875Q327.96875 24.875 327.1875 25.546875Q326.42188 26.21875 326.42188 28.125L326.42188 33.5L324.75 33.5ZM341.1875 29.890625L342.82812 30.109375Q342.5625 31.796875 341.45312 32.765625Q340.34375 33.71875 338.71875 33.71875Q336.70312 33.71875 335.46875 32.40625Q334.25 31.078125 334.25 28.609375Q334.25 27.015625 334.76562 25.828125Q335.29688 24.625 336.375 24.03125Q337.46875 23.421875 338.73438 23.421875Q340.34375 23.421875 341.35938 24.234375Q342.375 25.046875 342.67188 26.546875L341.04688 26.796875Q340.8125 25.796875 340.21875 25.296875Q339.625 24.796875 338.79688 24.796875Q337.53125 24.796875 336.73438 25.703125Q335.95312 26.609375 335.95312 28.5625Q335.95312 30.546875 336.71875 31.453125Q337.48438 32.34375 338.70312 32.34375Q339.6875 32.34375 340.34375 31.75Q341.0 31.140625 341.1875 29.890625ZM344.75 33.5L344.75 19.90625L346.42188 19.90625L346.42188 24.78125Q347.59375 23.421875 349.375 23.421875Q350.46875 23.421875 351.26562 23.859375Q352.07812 24.28125 352.42188 25.046875Q352.78125 25.8125 352.78125 27.25L352.78125 33.5L351.10938 33.5L351.10938 27.25Q351.10938 26.0 350.5625 25.4375Q350.01562 24.859375 349.03125 24.859375Q348.28125 24.859375 347.625 25.25Q346.98438 25.625 346.70312 26.296875Q346.42188 26.953125 346.42188 28.109375L346.42188 33.5L344.75 33.5ZM354.75 33.5L354.75 23.640625L356.25 23.640625L356.25 25.03125Q356.70312 24.3125 357.46875 23.875Q358.25 23.421875 359.23438 23.421875Q360.32812 23.421875 361.03125 23.875Q361.73438 24.328125 362.01562 25.15625Q363.1875 23.421875 365.0625 23.421875Q366.53125 23.421875 367.3125 24.234375Q368.10938 25.046875 368.10938 26.734375L368.10938 33.5L366.4375 33.5L366.4375 27.296875Q366.4375 26.296875 366.28125 25.859375Q366.125 25.40625 365.6875 25.140625Q365.26562 24.875 364.6875 24.875Q363.65625 24.875 362.96875 25.5625Q362.28125 26.25 362.28125 27.78125L362.28125 33.5L360.60938 33.5L360.60938 27.09375Q360.60938 25.984375 360.20312 25.4375Q359.79688 24.875 358.85938 24.875Q358.15625 24.875 357.54688 25.25Q356.95312 25.609375 356.6875 26.328125Q356.42188 27.046875 356.42188 28.390625L356.42188 33.5L354.75 33.5ZM377.1875 32.28125Q376.25 33.078125 375.39062 33.40625Q374.53125 33.71875 373.54688 33.71875Q371.9375 33.71875 371.0625 32.9375Q370.1875 32.140625 370.1875 30.90625Q370.1875 30.171875 370.51562 29.578125Q370.84375 28.984375 371.375 28.625Q371.90625 28.265625 372.57812 28.078125Q373.07812 27.9375 374.0625 27.828125Q376.09375 27.578125 377.04688 27.25Q377.04688 26.90625 377.04688 26.8125Q377.04688 25.796875 376.57812 25.375Q375.9375 24.8125 374.67188 24.8125Q373.5 24.8125 372.9375 25.21875Q372.375 25.625 372.10938 26.6875L370.46875 26.453125Q370.70312 25.40625 371.20312 24.765625Q371.71875 24.125 372.67188 23.78125Q373.64062 23.421875 374.92188 23.421875Q376.1875 23.421875 376.96875 23.71875Q377.75 24.015625 378.125 24.46875Q378.5 24.921875 378.64062 25.609375Q378.73438 26.03125 378.73438 27.140625L378.73438 29.375Q378.73438 31.703125 378.82812 32.328125Q378.9375 32.9375 379.26562 33.5L377.51562 33.5Q377.25 32.984375 377.1875 32.28125ZM377.04688 28.5625Q376.14062 28.921875 374.3125 29.1875Q373.28125 29.328125 372.85938 29.515625Q372.4375 29.703125 372.20312 30.0625Q371.96875 30.421875 371.96875 30.859375Q371.96875 31.53125 372.46875 31.984375Q372.98438 32.421875 373.95312 32.421875Q374.92188 32.421875 375.67188 32.0Q376.42188 31.5625 376.78125 30.84375Q377.04688 30.265625 377.04688 29.171875L377.04688 28.5625ZM380.73438 33.5L380.73438 23.640625L382.23438 23.640625L382.23438 25.140625Q382.8125 24.09375 383.29688 23.765625Q383.78125 23.421875 384.375 23.421875Q385.21875 23.421875 386.09375 23.96875L385.51562 25.515625Q384.90625 25.15625 384.28125 25.15625Q383.73438 25.15625 383.29688 25.484375Q382.875 25.8125 382.6875 26.390625Q382.40625 27.28125 382.40625 28.34375L382.40625 33.5L380.73438 33.5ZM386.76562 33.5L386.76562 19.90625L388.4375 19.90625L388.4375 27.65625L392.39062 23.640625L394.54688 23.640625L390.78125 27.296875L394.92188 33.5L392.85938 33.5L389.60938 28.46875L388.4375 29.59375L388.4375 33.5L386.76562 33.5ZM400.125 28.578125Q400.125 25.84375 401.65625 24.515625Q402.92188 23.421875 404.75 23.421875Q406.78125 23.421875 408.0625 24.765625Q409.35938 26.09375 409.35938 28.4375Q409.35938 30.34375 408.78125 31.4375Q408.21875 32.515625 407.125 33.125Q406.04688 33.71875 404.75 33.71875Q402.6875 33.71875 401.40625 32.390625Q400.125 31.0625 400.125 28.578125ZM401.84375 28.578125Q401.84375 30.46875 402.67188 31.40625Q403.5 32.34375 404.75 32.34375Q406.0 32.34375 406.8125 31.40625Q407.64062 30.453125 407.64062 28.515625Q407.64062 26.6875 406.8125 25.75Q405.98438 24.8125 404.75 24.8125Q403.5 24.8125 402.67188 25.75Q401.84375 26.6875 401.84375 28.578125ZM411.75 33.5L411.75 23.640625L413.25 23.640625L413.25 25.046875Q414.34375 23.421875 416.39062 23.421875Q417.28125 23.421875 418.03125 23.75Q418.78125 24.0625 419.14062 24.59375Q419.51562 25.109375 419.67188 25.8125Q419.76562 26.28125 419.76562 27.4375L419.76562 33.5L418.09375 33.5L418.09375 27.5Q418.09375 26.484375 417.89062 25.984375Q417.70312 25.46875 417.20312 25.171875Q416.70312 24.875 416.03125 24.875Q414.96875 24.875 414.1875 25.546875Q413.42188 26.21875 413.42188 28.125L413.42188 33.5L411.75 33.5ZM427.01562 33.5L427.01562 19.90625L428.82812 19.90625L428.82812 25.484375L435.89062 25.484375L435.89062 19.90625L437.6875 19.90625L437.6875 33.5L435.89062 33.5L435.89062 27.09375L428.82812 27.09375L428.82812 33.5L427.01562 33.5ZM445.57812 33.5L443.90625 33.5L443.90625 22.859375Q443.3125 23.4375 442.32812 24.015625Q441.34375 24.578125 440.5625 24.875L440.5625 23.25Q441.96875 22.59375 443.01562 21.65625Q444.0625 20.71875 444.5 19.84375L445.57812 19.84375L445.57812 33.5ZM450.28125 26.796875Q450.28125 24.375 450.78125 22.90625Q451.28125 21.4375 452.25 20.640625Q453.23438 19.84375 454.71875 19.84375Q455.8125 19.84375 456.64062 20.28125Q457.46875 20.71875 458.0 21.5625Q458.54688 22.390625 458.84375 23.578125Q459.15625 24.765625 459.15625 26.796875Q459.15625 29.1875 458.65625 30.65625Q458.17188 32.125 457.1875 32.9375Q456.21875 33.734375 454.71875 33.734375Q452.75 33.734375 451.64062 32.328125Q450.28125 30.625 450.28125 26.796875ZM452.0 26.796875Q452.0 30.140625 452.78125 31.25Q453.57812 32.359375 454.71875 32.359375Q455.875 32.359375 456.65625 31.25Q457.4375 30.125 457.4375 26.796875Q457.4375 23.4375 456.65625 22.328125Q455.875 21.21875 454.70312 21.21875Q453.54688 21.21875 452.875 22.203125Q452.0 23.4375 452.0 26.796875ZM461.28125 26.796875Q461.28125 24.375 461.78125 22.90625Q462.28125 21.4375 463.25 20.640625Q464.23438 19.84375 465.71875 19.84375Q466.8125 19.84375 467.64062 20.28125Q468.46875 20.71875 469.0 21.5625Q469.54688 22.390625 469.84375 23.578125Q470.15625 24.765625 470.15625 26.796875Q470.15625 29.1875 469.65625 30.65625Q469.17188 32.125 468.1875 32.9375Q467.21875 33.734375 465.71875 33.734375Q463.75 33.734375 462.64062 32.328125Q461.28125 30.625 461.28125 26.796875ZM463.0 26.796875Q463.0 30.140625 463.78125 31.25Q464.57812 32.359375 465.71875 32.359375Q466.875 32.359375 467.65625 31.25Q468.4375 30.125 468.4375 26.796875Q468.4375 23.4375 467.65625 22.328125Q466.875 21.21875 465.70312 21.21875Q464.54688 21.21875 463.875 22.203125Q463.0 23.4375 463.0 26.796875ZM480.9375 37.5Q479.5625 35.75 478.60938 33.421875Q477.65625 31.078125 477.65625 28.578125Q477.65625 26.359375 478.35938 24.34375Q479.20312 22.0 480.9375 19.671875L482.14062 19.671875Q481.01562 21.59375 480.65625 22.421875Q480.09375 23.703125 479.76562 25.09375Q479.35938 26.828125 479.35938 28.578125Q479.35938 33.046875 482.14062 37.5L480.9375 37.5ZM484.01562 33.5L484.01562 19.90625L485.82812 19.90625L485.82812 25.484375L492.89062 25.484375L492.89062 19.90625L494.6875 19.90625L494.6875 33.5L492.89062 33.5L492.89062 27.09375L485.82812 27.09375L485.82812 33.5L484.01562 33.5ZM496.76562 21.8125L496.76562 19.90625L498.4375 19.90625L498.4375 21.8125L496.76562 21.8125ZM496.76562 33.5L496.76562 23.640625L498.4375 23.640625L498.4375 33.5L496.76562 33.5ZM500.45312 34.3125L502.0625 34.5625Q502.17188 35.3125 502.64062 35.65625Q503.25 36.109375 504.32812 36.109375Q505.5 36.109375 506.125 35.640625Q506.75 35.1875 506.98438 34.359375Q507.10938 33.84375 507.09375 32.203125Q506.0 33.5 504.375 33.5Q502.34375 33.5 501.21875 32.03125Q500.10938 30.5625 500.10938 28.515625Q500.10938 27.109375 500.625 25.921875Q501.14062 24.71875 502.10938 24.078125Q503.07812 23.421875 504.375 23.421875Q506.125 23.421875 507.25 24.828125L507.25 23.640625L508.79688 23.640625L508.79688 32.15625Q508.79688 34.46875 508.32812 35.421875Q507.85938 36.390625 506.84375 36.9375Q505.82812 37.5 504.34375 37.5Q502.57812 37.5 501.48438 36.703125Q500.40625 35.90625 500.45312 34.3125ZM501.82812 28.390625Q501.82812 30.34375 502.59375 31.234375Q503.375 32.125 504.53125 32.125Q505.67188 32.125 506.45312 31.234375Q507.23438 30.34375 507.23438 28.453125Q507.23438 26.640625 506.42188 25.734375Q505.625 24.8125 504.5 24.8125Q503.39062 24.8125 502.60938 25.71875Q501.82812 26.609375 501.82812 28.390625ZM511.75 33.5L511.75 19.90625L513.4219 19.90625L513.4219 24.78125Q514.59375 23.421875 516.375 23.421875Q517.46875 23.421875 518.2656 23.859375Q519.0781 24.28125 519.4219 25.046875Q519.78125 25.8125 519.78125 27.25L519.78125 33.5L518.1094 33.5L518.1094 27.25Q518.1094 26.0 517.5625 25.4375Q517.0156 24.859375 516.03125 24.859375Q515.28125 24.859375 514.625 25.25Q513.9844 25.625 513.7031 26.296875Q513.4219 26.953125 513.4219 28.109375L513.4219 33.5L511.75 33.5ZM528.5 30.328125L530.21875 30.546875Q529.8125 32.046875 528.7031 32.890625Q527.6094 33.71875 525.8906 33.71875Q523.7344 33.71875 522.46875 32.390625Q521.2031 31.0625 521.2031 28.65625Q521.2031 26.171875 522.46875 24.796875Q523.75 23.421875 525.7969 23.421875Q527.78125 23.421875 529.03125 24.765625Q530.28125 26.109375 530.28125 28.5625Q530.28125 28.703125 530.2656 29.0L522.9219 29.0Q523.0156 30.625 523.84375 31.484375Q524.6719 32.34375 525.90625 32.34375Q526.8125 32.34375 527.4531 31.875Q528.1094 31.390625 528.5 30.328125ZM523.0156 27.625L528.5156 27.625Q528.40625 26.390625 527.8906 25.765625Q527.09375 24.796875 525.8125 24.796875Q524.6719 24.796875 523.875 25.578125Q523.09375 26.34375 523.0156 27.625ZM532.7344 33.5L532.7344 23.640625L534.2344 23.640625L534.2344 25.140625Q534.8125 24.09375 535.2969 23.765625Q535.78125 23.421875 536.375 23.421875Q537.21875 23.421875 538.09375 23.96875L537.5156 25.515625Q536.90625 25.15625 536.28125 25.15625Q535.7344 25.15625 535.2969 25.484375Q534.875 25.8125 534.6875 26.390625Q534.40625 27.28125 534.40625 28.34375L534.40625 33.5L532.7344 33.5ZM543.7656 21.8125L543.7656 19.90625L545.4375 19.90625L545.4375 21.8125L543.7656 21.8125ZM543.7656 33.5L543.7656 23.640625L545.4375 23.640625L545.4375 33.5L543.7656 33.5ZM547.0781 30.5625L548.7344 30.296875Q548.875 31.296875 549.5 31.828125Q550.1406 32.34375 551.28125 32.34375Q552.4375 32.34375 552.9844 31.875Q553.5469 31.40625 553.5469 30.78125Q553.5469 30.21875 553.0625 29.890625Q552.71875 29.671875 551.3594 29.328125Q549.5156 28.859375 548.7969 28.53125Q548.09375 28.1875 547.71875 27.59375Q547.3594 26.984375 547.3594 26.265625Q547.3594 25.609375 547.65625 25.046875Q547.96875 24.484375 548.4844 24.109375Q548.875 23.828125 549.5469 23.625Q550.21875 23.421875 550.9844 23.421875Q552.15625 23.421875 553.03125 23.765625Q553.90625 24.09375 554.3125 24.671875Q554.7344 25.234375 554.8906 26.1875L553.2656 26.40625Q553.15625 25.65625 552.6094 25.234375Q552.0781 24.796875 551.1094 24.796875Q549.9531 24.796875 549.46875 25.1875Q548.9844 25.5625 548.9844 26.0625Q548.9844 26.390625 549.1875 26.65625Q549.3906 26.921875 549.8281 27.09375Q550.0781 27.1875 551.2969 27.53125Q553.0625 28.0 553.7656 28.296875Q554.46875 28.59375 554.8594 29.171875Q555.2656 29.75 555.2656 30.609375Q555.2656 31.4375 554.78125 32.1875Q554.2969 32.921875 553.375 33.328125Q552.4531 33.71875 551.2969 33.71875Q549.375 33.71875 548.3594 32.921875Q547.3594 32.125 547.0781 30.5625ZM562.8906 33.5L562.8906 19.90625L568.0 19.90625Q569.5469 19.90625 570.4844 20.3125Q571.4375 20.71875 571.96875 21.578125Q572.5 22.4375 572.5 23.375Q572.5 24.25 572.03125 25.03125Q571.5625 25.796875 570.59375 26.265625Q571.8281 26.625 572.4844 27.5Q573.15625 28.375 573.15625 29.5625Q573.15625 30.515625 572.75 31.34375Q572.3594 32.15625 571.7656 32.609375Q571.1719 33.046875 570.2656 33.28125Q569.375 33.5 568.0781 33.5L562.8906 33.5ZM564.6875 25.609375L567.625 25.609375Q568.8281 25.609375 569.34375 25.453125Q570.03125 25.25 570.375 24.78125Q570.7344 24.3125 570.7344 23.59375Q570.7344 22.921875 570.40625 22.40625Q570.0781 21.890625 569.46875 21.703125Q568.875 21.5 567.40625 21.5L564.6875 21.5L564.6875 25.609375ZM564.6875 31.890625L568.0781 31.890625Q568.9531 31.890625 569.2969 31.828125Q569.9219 31.71875 570.34375 31.46875Q570.7656 31.203125 571.03125 30.703125Q571.2969 30.203125 571.2969 29.5625Q571.2969 28.796875 570.90625 28.234375Q570.5156 27.671875 569.8281 27.453125Q569.1406 27.21875 567.84375 27.21875L564.6875 27.21875L564.6875 31.890625ZM582.5 30.328125L584.21875 30.546875Q583.8125 32.046875 582.7031 32.890625Q581.6094 33.71875 579.8906 33.71875Q577.7344 33.71875 576.46875 32.390625Q575.2031 31.0625 575.2031 28.65625Q575.2031 26.171875 576.46875 24.796875Q577.75 23.421875 579.7969 23.421875Q581.78125 23.421875 583.03125 24.765625Q584.28125 26.109375 584.28125 28.5625Q584.28125 28.703125 584.2656 29.0L576.9219 29.0Q577.0156 30.625 577.84375 31.484375Q578.6719 32.34375 579.90625 32.34375Q580.8125 32.34375 581.4531 31.875Q582.1094 31.390625 582.5 30.328125ZM577.0156 27.625L582.5156 27.625Q582.40625 26.390625 581.8906 25.765625Q581.09375 24.796875 579.8125 24.796875Q578.6719 24.796875 577.875 25.578125Q577.09375 26.34375 577.0156 27.625ZM590.40625 32.0L590.6406 33.484375Q589.9375 33.625 589.375 33.625Q588.46875 33.625 587.96875 33.34375Q587.46875 33.046875 587.2656 32.59375Q587.0625 32.125 587.0625 30.609375L587.0625 24.953125L585.8281 24.953125L585.8281 23.640625L587.0625 23.640625L587.0625 21.203125L588.71875 20.203125L588.71875 23.640625L590.40625 23.640625L590.40625 24.953125L588.71875 24.953125L588.71875 30.703125Q588.71875 31.421875 588.7969 31.625Q588.8906 31.828125 589.09375 31.953125Q589.2969 32.078125 589.6719 32.078125Q589.9375 32.078125 590.40625 32.0ZM595.40625 32.0L595.6406 33.484375Q594.9375 33.625 594.375 33.625Q593.46875 33.625 592.96875 33.34375Q592.46875 33.046875 592.2656 32.59375Q592.0625 32.125 592.0625 30.609375L592.0625 24.953125L590.8281 24.953125L590.8281 23.640625L592.0625 23.640625L592.0625 21.203125L593.71875 20.203125L593.71875 23.640625L595.40625 23.640625L595.40625 24.953125L593.71875 24.953125L593.71875 30.703125Q593.71875 31.421875 593.7969 31.625Q593.8906 31.828125 594.09375 31.953125Q594.2969 32.078125 594.6719 32.078125Q594.9375 32.078125 595.40625 32.0ZM603.5 30.328125L605.21875 30.546875Q604.8125 32.046875 603.7031 32.890625Q602.6094 33.71875 600.8906 33.71875Q598.7344 33.71875 597.46875 32.390625Q596.2031 31.0625 596.2031 28.65625Q596.2031 26.171875 597.46875 24.796875Q598.75 23.421875 600.7969 23.421875Q602.78125 23.421875 604.03125 24.765625Q605.28125 26.109375 605.28125 28.5625Q605.28125 28.703125 605.2656 29.0L597.9219 29.0Q598.0156 30.625 598.84375 31.484375Q599.6719 32.34375 600.90625 32.34375Q601.8125 32.34375 602.4531 31.875Q603.1094 31.390625 603.5 30.328125ZM598.0156 27.625L603.5156 27.625Q603.40625 26.390625 602.8906 25.765625Q602.09375 24.796875 600.8125 24.796875Q599.6719 24.796875 598.875 25.578125Q598.09375 26.34375 598.0156 27.625ZM607.7344 33.5L607.7344 23.640625L609.2344 23.640625L609.2344 25.140625Q609.8125 24.09375 610.2969 23.765625Q610.78125 23.421875 611.375 23.421875Q612.21875 23.421875 613.09375 23.96875L612.5156 25.515625Q611.90625 25.15625 611.28125 25.15625Q610.7344 25.15625 610.2969 25.484375Q609.875 25.8125 609.6875 26.390625Q609.40625 27.28125 609.40625 28.34375L609.40625 33.5L607.7344 33.5ZM614.84375 37.5L613.65625 37.5Q616.4219 33.046875 616.4219 28.578125Q616.4219 26.84375 616.03125 25.125Q615.7031 23.734375 615.1406 22.453125Q614.78125 21.609375 613.65625 19.671875L614.84375 19.671875Q616.59375 22.0 617.4219 24.34375Q618.1406 26.359375 618.1406 28.578125Q618.1406 31.078125 617.1719 33.421875Q616.21875 35.75 614.84375 37.5Z" fill-rule="nonzero"/></svg>