<svg version="1.1" viewBox="0.0 0.0 638.0 310.0" fill="none" stroke="none" stroke-linecap="square" stroke-miterlimit="10" width="638" height="310" xmlns:xlink="http://www.w3.org/1999/xlink" xmlns="http://www.w3.org/2000/svg"><path fill="#ffffff" d="M0 0L638.0 0L638.0 310.0L0 310.0L0 0Z" fill-rule="nonzero"/><path stroke="#333333" stroke-width="1.0" stroke-linecap="butt" d="M102.5 285.5L622.5 285.5" fill-rule="nonzero"/><path stroke="#cccccc" stroke-width="1.0" stroke-linecap="butt" d="M102.5 218.5L622.5 218.5" fill-rule="nonzero"/><path stroke="#cccccc" stroke-width="1.0" stroke-linecap="butt" d="M102.5 152.5L622.5 152.5" fill-rule="nonzero"/><path stroke="#cccccc" stroke-width="1.0" stroke-linecap="butt" d="M102.5 86.5L622.5 86.5" fill-rule="nonzero"/><clipPath id="id_0"><path d="M102.5 86.666664L622.5 86.666664L622.5 285.0L102.5 285.0L102.5 86.666664Z" clip-rule="nonzero"/></clipPath><path stroke="#000000" stroke-width="2.0" stroke-linecap="butt" stroke-opacity="0.0" clip-path="url(#id_0)" d="M321.0 285.0L240.0 285.0L240.0 150.0C240.0 148.89543 240.89543 148.0 242.0 148.0L319.0 148.0C320.10458 148.0 321.0 148.89543 321.0 150.0Z" fill-rule="nonzero"/><path fill="#4285f4" clip-path="url(#id_0)" d="M321.0 285.0L240.0 285.0L240.0 150.0C240.0 148.89543 240.89543 148.0 242.0 148.0L319.0 148.0C320.10458 148.0 321.0 148.89543 321.0 150.0Z" fill-rule="nonzero"/><path stroke="#000000" stroke-width="2.0" stroke-linecap="butt" stroke-opacity="0.0" clip-path="url(#id_0)" d="M404.0 285.0L323.0 285.0L323.0 125.0C323.0 123.89543 323.89542 123.0 325.0 123.0L402.0 123.0C403.10458 123.0 404.0 123.89543 404.0 125.0Z" fill-rule="nonzero"/><path fill="#ea4335" clip-path="url(#id_0)" d="M404.0 285.0L323.0 285.0L323.0 125.0C323.0 123.89543 323.89542 123.0 325.0 123.0L402.0 123.0C403.10458 123.0 404.0 123.89543 404.0 125.0Z" fill-rule="nonzero"/><path stroke="#000000" stroke-width="2.0" stroke-linecap="butt" stroke-opacity="0.0" clip-path="url(#id_0)" d="M487.0 285.0L406.0 285.0L406.0 105.0C406.0 103.89543 406.89542 103.0 408.0 103.0L485.0 103.0C486.10458 103.0 487.0 103.89543 487.0 105.0Z" fill-rule="nonzero"/><path fill="#fbbc04" clip-path="url(#id_0)" d="M487.0 285.0L406.0 285.0L406.0 105.0C406.0 103.89543 406.89542 103.0 408.0 103.0L485.0 103.0C486.10458 103.0 487.0 103.89543 487.0 105.0Z" fill-rule="nonzero"/><path fill="#000000" d="M24.921875 280.0521Q22.0625 280.0521 20.453125 278.52084Q18.84375 276.9896 18.84375 274.56772Q18.84375 272.9896 19.609375 271.72397Q20.359375 270.44272 21.71875 269.77084Q23.0625 269.09897 24.78125 269.09897Q26.53125 269.09897 27.90625 269.8021Q29.28125 270.50522 30.0 271.8021Q30.703125 273.08334 30.703125 274.58334Q30.703125 276.19272 29.921875 277.47397Q29.125 278.7396 27.78125 279.39584Q26.421875 280.0521 24.921875 280.0521ZM24.9375 278.4896Q27.015625 278.4896 28.203125 277.38022Q29.390625 276.27084 29.390625 274.58334Q29.390625 272.88022 28.1875 271.77084Q26.984375 270.66147 24.78125 270.66147Q23.375 270.66147 22.34375 271.14584Q21.296875 271.6146 20.71875 272.52084Q20.140625 273.4271 20.140625 274.56772Q20.140625 276.1771 21.25 277.33334Q22.359375 278.4896 24.9375 278.4896ZM30.5 262.33334L29.28125 262.33334Q30.6875 263.3021 30.6875 264.97397Q30.6875 265.70834 30.40625 266.34897Q30.125 266.97397 29.703125 267.28647Q29.265625 267.59897 28.65625 267.72397Q28.234375 267.8021 27.34375 267.8021L22.203125 267.8021L22.203125 266.39584L26.796875 266.39584Q27.90625 266.39584 28.28125 266.31772Q28.84375 266.1771 29.15625 265.75522Q29.46875 265.31772 29.46875 264.69272Q29.46875 264.0521 29.15625 263.50522Q28.828125 262.94272 28.265625 262.72397Q27.703125 262.4896 26.640625 262.4896L22.203125 262.4896L22.203125 261.08334L30.5 261.08334L30.5 262.33334ZM29.234375 256.70834L30.484375 256.50522Q30.609375 257.09897 30.609375 257.56772Q30.609375 258.33334 30.375 258.75522Q30.125 259.1771 29.734375 259.34897Q29.328125 259.52084 28.0625 259.52084L23.296875 259.52084L23.296875 260.5521L22.203125 260.5521L22.203125 259.52084L20.140625 259.52084L19.296875 258.1146L22.203125 258.1146L22.203125 256.70834L23.296875 256.70834L23.296875 258.1146L28.140625 258.1146Q28.75 258.1146 28.921875 258.0521Q29.09375 257.97397 29.203125 257.8021Q29.296875 257.63022 29.296875 257.31772Q29.296875 257.08334 29.234375 256.70834ZM33.6875 255.77084L22.203125 255.77084L22.203125 254.4896L23.28125 254.4896Q22.640625 254.03647 22.328125 253.47397Q22.015625 252.89584 22.015625 252.08334Q22.015625 251.02084 22.5625 250.20834Q23.109375 249.39584 24.109375 248.9896Q25.09375 248.56772 26.28125 248.56772Q27.5625 248.56772 28.578125 249.03647Q29.59375 249.4896 30.140625 250.3646Q30.6875 251.22397 30.6875 252.19272Q30.6875 252.89584 30.390625 253.45834Q30.09375 254.00522 29.640625 254.3646L33.6875 254.3646L33.6875 255.77084ZM26.390625 254.50522Q28.0 254.50522 28.765625 253.8646Q29.53125 253.20834 29.53125 252.28647Q29.53125 251.34897 28.734375 250.6771Q27.9375 250.00522 26.28125 250.00522Q24.6875 250.00522 23.90625 250.66147Q23.109375 251.31772 23.109375 252.22397Q23.109375 253.1146 23.953125 253.81772Q24.796875 254.50522 26.390625 254.50522ZM30.5 241.33334L29.28125 241.33334Q30.6875 242.3021 30.6875 243.97397Q30.6875 244.70834 30.40625 245.34897Q30.125 245.97397 29.703125 246.28647Q29.265625 246.59897 28.65625 246.72397Q28.234375 246.8021 27.34375 246.8021L22.203125 246.8021L22.203125 245.39584L26.796875 245.39584Q27.90625 245.39584 28.28125 245.31772Q28.84375 245.1771 29.15625 244.75522Q29.46875 244.31772 29.46875 243.69272Q29.46875 243.0521 29.15625 242.50522Q28.828125 241.94272 28.265625 241.72397Q27.703125 241.4896 26.640625 241.4896L22.203125 241.4896L22.203125 240.08334L30.5 240.08334L30.5 241.33334ZM29.234375 235.70834L30.484375 235.50522Q30.609375 236.09897 30.609375 236.56772Q30.609375 237.33334 30.375 237.75522Q30.125 238.1771 29.734375 238.34897Q29.328125 238.52084 28.0625 238.52084L23.296875 238.52084L23.296875 239.5521L22.203125 239.5521L22.203125 238.52084L20.140625 238.52084L19.296875 237.1146L22.203125 237.1146L22.203125 235.70834L23.296875 235.70834L23.296875 237.1146L28.140625 237.1146Q28.75 237.1146 28.921875 237.0521Q29.09375 236.97397 29.203125 236.8021Q29.296875 236.63022 29.296875 236.31772Q29.296875 236.08334 29.234375 235.70834ZM30.5 227.6771L20.390625 227.6771L20.390625 231.45834L19.046875 231.45834L19.046875 222.38022L20.390625 222.38022L20.390625 226.16147L30.5 226.16147L30.5 227.6771ZM30.5 221.77084L19.046875 221.77084L19.046875 220.3646L23.15625 220.3646Q22.015625 219.38022 22.015625 217.88022Q22.015625 216.95834 22.375 216.28647Q22.734375 215.59897 23.375 215.31772Q24.015625 215.02084 25.234375 215.02084L30.5 215.02084L30.5 216.4271L25.234375 216.4271Q24.1875 216.4271 23.703125 216.88022Q23.21875 217.33334 23.21875 218.1771Q23.21875 218.8021 23.546875 219.34897Q23.875 219.89584 24.4375 220.13022Q24.984375 220.3646 25.953125 220.3646L30.5 220.3646L30.5 221.77084ZM30.5 213.78647L22.203125 213.78647L22.203125 212.52084L23.453125 212.52084Q22.578125 212.03647 22.296875 211.63022Q22.015625 211.22397 22.015625 210.72397Q22.015625 210.02084 22.46875 209.28647L23.765625 209.77084Q23.46875 210.28647 23.46875 210.8021Q23.46875 211.25522 23.75 211.63022Q24.015625 211.9896 24.515625 212.14584Q25.265625 212.38022 26.15625 212.38022L30.5 212.38022L30.5 213.78647ZM26.34375 209.3021Q24.046875 209.3021 22.9375 208.02084Q22.015625 206.94272 22.015625 205.41147Q22.015625 203.69272 23.140625 202.6146Q24.25 201.52084 26.234375 201.52084Q27.828125 201.52084 28.75 202.00522Q29.671875 202.4896 30.1875 203.41147Q30.6875 204.31772 30.6875 205.41147Q30.6875 207.14584 29.578125 208.22397Q28.453125 209.3021 26.34375 209.3021ZM26.34375 207.84897Q27.9375 207.84897 28.734375 207.16147Q29.53125 206.45834 29.53125 205.41147Q29.53125 204.3646 28.734375 203.6771Q27.9375 202.97397 26.296875 202.97397Q24.765625 202.97397 23.96875 203.6771Q23.171875 204.3646 23.171875 205.41147Q23.171875 206.45834 23.96875 207.16147Q24.75 207.84897 26.34375 207.84897ZM30.5 194.33334L29.28125 194.33334Q30.6875 195.3021 30.6875 196.97397Q30.6875 197.70834 30.40625 198.34897Q30.125 198.97397 29.703125 199.28647Q29.265625 199.59897 28.65625 199.72397Q28.234375 199.8021 27.34375 199.8021L22.203125 199.8021L22.203125 198.39584L26.796875 198.39584Q27.90625 198.39584 28.28125 198.31772Q28.84375 198.1771 29.15625 197.75522Q29.46875 197.31772 29.46875 196.69272Q29.46875 196.0521 29.15625 195.50522Q28.828125 194.94272 28.265625 194.72397Q27.703125 194.4896 26.640625 194.4896L22.203125 194.4896L22.203125 193.08334L30.5 193.08334L30.5 194.33334ZM31.1875 192.03647L31.390625 190.66147Q32.03125 190.58334 32.3125 190.19272Q32.703125 189.66147 32.703125 188.75522Q32.703125 187.78647 32.3125 187.25522Q31.921875 186.72397 31.21875 186.53647Q30.796875 186.4271 29.40625 186.4271Q30.5 187.34897 30.5 188.72397Q30.5 190.44272 29.265625 191.38022Q28.03125 192.31772 26.296875 192.31772Q25.109375 192.31772 24.109375 191.89584Q23.109375 191.45834 22.5625 190.64584Q22.015625 189.81772 22.015625 188.72397Q22.015625 187.25522 23.203125 186.3021L22.203125 186.3021L22.203125 185.00522L29.375 185.00522Q31.3125 185.00522 32.125 185.39584Q32.9375 185.78647 33.40625 186.64584Q33.875 187.50522 33.875 188.75522Q33.875 190.2396 33.203125 191.16147Q32.53125 192.06772 31.1875 192.03647ZM26.203125 190.8646Q27.828125 190.8646 28.578125 190.22397Q29.328125 189.56772 29.328125 188.59897Q29.328125 187.63022 28.59375 186.97397Q27.84375 186.31772 26.25 186.31772Q24.71875 186.31772 23.953125 186.9896Q23.171875 187.66147 23.171875 188.6146Q23.171875 189.5521 23.9375 190.20834Q24.703125 190.8646 26.203125 190.8646ZM30.5 182.77084L19.046875 182.77084L19.046875 181.3646L23.15625 181.3646Q22.015625 180.38022 22.015625 178.88022Q22.015625 177.95834 22.375 177.28647Q22.734375 176.59897 23.375 176.31772Q24.015625 176.02084 25.234375 176.02084L30.5 176.02084L30.5 177.4271L25.234375 177.4271Q24.1875 177.4271 23.703125 177.88022Q23.21875 178.33334 23.21875 179.1771Q23.21875 179.8021 23.546875 180.34897Q23.875 180.89584 24.4375 181.13022Q24.984375 181.3646 25.953125 181.3646L30.5 181.3646L30.5 182.77084ZM33.6875 174.77083L22.203125 174.77083L22.203125 173.48958L23.28125 173.48958Q22.640625 173.03645 22.328125 172.47395Q22.015625 171.89583 22.015625 171.08333Q22.015625 170.02083 22.5625 169.20833Q23.109375 168.39583 24.109375 167.98958Q25.09375 167.5677 26.28125 167.5677Q27.5625 167.5677 28.578125 168.03645Q29.59375 168.48958 30.140625 169.36458Q30.6875 170.22395 30.6875 171.1927Q30.6875 171.89583 30.390625 172.45833Q30.09375 173.0052 29.640625 173.36458L33.6875 173.36458L33.6875 174.77083ZM26.390625 173.5052Q28.0 173.5052 28.765625 172.86458Q29.53125 172.20833 29.53125 171.28645Q29.53125 170.34895 28.734375 169.67708Q27.9375 169.0052 26.28125 169.0052Q24.6875 169.0052 23.90625 169.66145Q23.109375 170.3177 23.109375 171.22395Q23.109375 172.11458 23.953125 172.8177Q24.796875 173.5052 26.390625 173.5052ZM30.5 160.33333L29.28125 160.33333Q30.6875 161.30208 30.6875 162.97395Q30.6875 163.70833 30.40625 164.34895Q30.125 164.97395 29.703125 165.28645Q29.265625 165.59895 28.65625 165.72395Q28.234375 165.80208 27.34375 165.80208L22.203125 165.80208L22.203125 164.39583L26.796875 164.39583Q27.90625 164.39583 28.28125 164.3177Q28.84375 164.17708 29.15625 163.7552Q29.46875 163.3177 29.46875 162.6927Q29.46875 162.05208 29.15625 161.5052Q28.828125 160.9427 28.265625 160.72395Q27.703125 160.48958 26.640625 160.48958L22.203125 160.48958L22.203125 159.08333L30.5 159.08333L30.5 160.33333ZM29.234375 154.70833L30.484375 154.5052Q30.609375 155.09895 30.609375 155.5677Q30.609375 156.33333 30.375 156.7552Q30.125 157.17708 29.734375 157.34895Q29.328125 157.52083 28.0625 157.52083L23.296875 157.52083L23.296875 158.55208L22.203125 158.55208L22.203125 157.52083L20.140625 157.52083L19.296875 156.11458L22.203125 156.11458L22.203125 154.70833L23.296875 154.70833L23.296875 156.11458L28.140625 156.11458Q28.75 156.11458 28.921875 156.05208Q29.09375 155.97395 29.203125 155.80208Q29.296875 155.6302 29.296875 155.3177Q29.296875 155.08333 29.234375 154.70833ZM33.875 147.08333Q32.40625 148.2552 30.4375 149.0677Q28.453125 149.86458 26.34375 149.86458Q24.484375 149.86458 22.78125 149.2552Q20.8125 148.55208 18.84375 147.08333L18.84375 146.08333Q20.46875 147.02083 21.171875 147.33333Q22.25 147.80208 23.421875 148.08333Q24.875 148.41145 26.359375 148.41145Q30.109375 148.41145 33.875 146.08333L33.875 147.08333ZM29.234375 141.70833L30.484375 141.5052Q30.609375 142.09895 30.609375 142.5677Q30.609375 143.33333 30.375 143.7552Q30.125 144.17708 29.734375 144.34895Q29.328125 144.52083 28.0625 144.52083L23.296875 144.52083L23.296875 145.55208L22.203125 145.55208L22.203125 144.52083L20.140625 144.52083L19.296875 143.11458L22.203125 143.11458L22.203125 141.70833L23.296875 141.70833L23.296875 143.11458L28.140625 143.11458Q28.75 143.11458 28.921875 143.05208Q29.09375 142.97395 29.203125 142.80208Q29.296875 142.6302 29.296875 142.3177Q29.296875 142.08333 29.234375 141.70833ZM26.34375 141.30208Q24.046875 141.30208 22.9375 140.02083Q22.015625 138.9427 22.015625 137.41145Q22.015625 135.6927 23.140625 134.61458Q24.25 133.52083 26.234375 133.52083Q27.828125 133.52083 28.75 134.0052Q29.671875 134.48958 30.1875 135.41145Q30.6875 136.3177 30.6875 137.41145Q30.6875 139.14583 29.578125 140.22395Q28.453125 141.30208 26.34375 141.30208ZM26.34375 139.84895Q27.9375 139.84895 28.734375 139.16145Q29.53125 138.45833 29.53125 137.41145Q29.53125 136.36458 28.734375 135.67708Q27.9375 134.97395 26.296875 134.97395Q24.765625 134.97395 23.96875 135.67708Q23.171875 136.36458 23.171875 137.41145Q23.171875 138.45833 23.96875 139.16145Q24.75 139.84895 26.34375 139.84895ZM30.5 131.77083L19.046875 131.77083L19.046875 130.36458L25.578125 130.36458L22.203125 127.03645L22.203125 125.20833L25.28125 128.3802L30.5 124.89583L30.5 126.6302L26.25 129.36458L27.203125 130.36458L30.5 130.36458L30.5 131.77083ZM27.828125 118.09895L28.0 116.64583Q29.28125 116.98958 29.984375 117.92708Q30.6875 118.84895 30.6875 120.28645Q30.6875 122.11458 29.5625 123.17708Q28.4375 124.23958 26.421875 124.23958Q24.328125 124.23958 23.171875 123.16145Q22.015625 122.08333 22.015625 120.36458Q22.015625 118.70833 23.15625 117.66145Q24.28125 116.59895 26.328125 116.59895Q26.453125 116.59895 26.703125 116.59895L26.703125 122.78645Q28.078125 122.70833 28.8125 122.02083Q29.53125 121.3177 29.53125 120.28645Q29.53125 119.5052 29.125 118.95833Q28.71875 118.41145 27.828125 118.09895ZM25.546875 122.70833L25.546875 118.08333Q24.5 118.17708 23.984375 118.61458Q23.171875 119.28645 23.171875 120.34895Q23.171875 121.3177 23.828125 121.98958Q24.46875 122.64583 25.546875 122.70833ZM30.5 114.77083L22.203125 114.77083L22.203125 113.5052L23.375 113.5052Q22.015625 112.59895 22.015625 110.86458Q22.015625 110.11458 22.28125 109.48958Q22.546875 108.86458 22.984375 108.55208Q23.421875 108.23958 24.03125 108.11458Q24.421875 108.03645 25.390625 108.03645L30.5 108.03645L30.5 109.4427L25.453125 109.4427Q24.59375 109.4427 24.171875 109.61458Q23.734375 109.77083 23.484375 110.1927Q23.234375 110.59895 23.234375 111.16145Q23.234375 112.0677 23.8125 112.72395Q24.375 113.36458 25.96875 113.36458L30.5 113.36458L30.5 114.77083ZM30.703125 107.83333L18.84375 104.5052L18.84375 103.3802L30.703125 106.6927L30.703125 107.83333ZM28.015625 103.33333L27.796875 101.9427Q28.640625 101.83333 29.09375 101.30208Q29.53125 100.7552 29.53125 99.80208Q29.53125 98.83333 29.140625 98.36458Q28.734375 97.89583 28.203125 97.89583Q27.734375 97.89583 27.453125 98.30208Q27.265625 98.59895 26.984375 99.73958Q26.59375 101.28645 26.3125 101.89583Q26.015625 102.48958 25.515625 102.80208Q25.015625 103.09895 24.40625 103.09895Q23.84375 103.09895 23.375 102.84895Q22.90625 102.59895 22.59375 102.16145Q22.34375 101.83333 22.1875 101.27083Q22.015625 100.6927 22.015625 100.05208Q22.015625 99.0677 22.296875 98.33333Q22.578125 97.59895 23.0625 97.2552Q23.53125 96.89583 24.34375 96.7552L24.53125 98.1302Q23.890625 98.22395 23.53125 98.67708Q23.171875 99.1302 23.171875 99.9427Q23.171875 100.91145 23.5 101.33333Q23.8125 101.73958 24.234375 101.73958Q24.515625 101.73958 24.734375 101.5677Q24.953125 101.39583 25.109375 101.03645Q25.1875 100.8177 25.46875 99.78645Q25.859375 98.30208 26.125 97.70833Q26.375 97.11458 26.859375 96.78645Q27.34375 96.4427 28.0625 96.4427Q28.765625 96.4427 29.390625 96.86458Q30.0 97.27083 30.34375 98.05208Q30.6875 98.8177 30.6875 99.78645Q30.6875 101.41145 30.015625 102.2552Q29.34375 103.09895 28.015625 103.33333ZM33.875 93.84895L33.875 94.86458Q30.109375 92.52083 26.359375 92.52083Q24.890625 92.52083 23.4375 92.86458Q22.265625 93.1302 21.1875 93.59895Q20.484375 93.91145 18.84375 94.86458L18.84375 93.84895Q20.8125 92.3802 22.78125 91.67708Q24.484375 91.08333 26.34375 91.08333Q28.453125 91.08333 30.4375 91.89583Q32.40625 92.6927 33.875 93.84895Z" fill-rule="nonzero"/><path fill="#000000" d="M86.171875 284.84375Q86.171875 282.8125 86.578125 281.57812Q87.0 280.34375 87.828125 279.67188Q88.65625 279.0 89.90625 279.0Q90.828125 279.0 91.515625 279.375Q92.21875 279.73438 92.671875 280.4375Q93.125 281.14062 93.375 282.14062Q93.640625 283.14062 93.640625 284.84375Q93.640625 286.85938 93.21875 288.10938Q92.8125 289.34375 91.984375 290.03125Q91.15625 290.70312 89.90625 290.70312Q88.25 290.70312 87.296875 289.5Q86.171875 288.07812 86.171875 284.84375ZM87.609375 284.84375Q87.609375 287.67188 88.265625 288.60938Q88.9375 289.53125 89.90625 289.53125Q90.875 289.53125 91.53125 288.59375Q92.1875 287.65625 92.1875 284.84375Q92.1875 282.01562 91.53125 281.09375Q90.875 280.15625 89.890625 280.15625Q88.921875 280.15625 88.34375 280.98438Q87.609375 282.03125 87.609375 284.84375Z" fill-rule="nonzero"/><path fill="#000000" d="M66.5625 223.02951L66.5625 224.38889L58.984375 224.38889Q58.96875 223.87326 59.15625 223.40451Q59.4375 222.63889 60.078125 221.88889Q60.71875 221.13889 61.921875 220.15451Q63.78125 218.62326 64.4375 217.73264Q65.09375 216.82639 65.09375 216.02951Q65.09375 215.20139 64.5 214.62326Q63.90625 214.04514 62.9375 214.04514Q61.921875 214.04514 61.3125 214.65451Q60.703125 215.26389 60.703125 216.34201L59.25 216.20139Q59.40625 214.57639 60.375 213.73264Q61.34375 212.88889 62.96875 212.88889Q64.625 212.88889 65.578125 213.81076Q66.546875 214.71701 66.546875 216.06076Q66.546875 216.74826 66.265625 217.42014Q65.984375 218.07639 65.328125 218.81076Q64.671875 219.54514 63.15625 220.82639Q61.890625 221.88889 61.53125 222.27951Q61.171875 222.65451 60.9375 223.02951L66.5625 223.02951ZM68.171875 218.73264Q68.171875 216.70139 68.578125 215.46701Q69.0 214.23264 69.828125 213.56076Q70.65625 212.88889 71.90625 212.88889Q72.828125 212.88889 73.515625 213.26389Q74.21875 213.62326 74.671875 214.32639Q75.125 215.02951 75.375 216.02951Q75.640625 217.02951 75.640625 218.73264Q75.640625 220.74826 75.21875 221.99826Q74.8125 223.23264 73.984375 223.92014Q73.15625 224.59201 71.90625 224.59201Q70.25 224.59201 69.296875 223.38889Q68.171875 221.96701 68.171875 218.73264ZM69.609375 218.73264Q69.609375 221.56076 70.265625 222.49826Q70.9375 223.42014 71.90625 223.42014Q72.875 223.42014 73.53125 222.48264Q74.1875 221.54514 74.1875 218.73264Q74.1875 215.90451 73.53125 214.98264Q72.875 214.04514 71.890625 214.04514Q70.921875 214.04514 70.34375 214.87326Q69.609375 215.92014 69.609375 218.73264ZM77.171875 218.73264Q77.171875 216.70139 77.578125 215.46701Q78.0 214.23264 78.828125 213.56076Q79.65625 212.88889 80.90625 212.88889Q81.828125 212.88889 82.515625 213.26389Q83.21875 213.62326 83.671875 214.32639Q84.125 215.02951 84.375 216.02951Q84.640625 217.02951 84.640625 218.73264Q84.640625 220.74826 84.21875 221.99826Q83.8125 223.23264 82.984375 223.92014Q82.15625 224.59201 80.90625 224.59201Q79.25 224.59201 78.296875 223.38889Q77.171875 221.96701 77.171875 218.73264ZM78.609375 218.73264Q78.609375 221.56076 79.265625 222.49826Q79.9375 223.42014 80.90625 223.42014Q81.875 223.42014 82.53125 222.48264Q83.1875 221.54514 83.1875 218.73264Q83.1875 215.90451 82.53125 214.98264Q81.875 214.04514 80.890625 214.04514Q79.921875 214.04514 79.34375 214.87326Q78.609375 215.92014 78.609375 218.73264ZM86.171875 218.73264Q86.171875 216.70139 86.578125 215.46701Q87.0 214.23264 87.828125 213.56076Q88.65625 212.88889 89.90625 212.88889Q90.828125 212.88889 91.515625 213.26389Q92.21875 213.62326 92.671875 214.32639Q93.125 215.02951 93.375 216.02951Q93.640625 217.02951 93.640625 218.73264Q93.640625 220.74826 93.21875 221.99826Q92.8125 223.23264 91.984375 223.92014Q91.15625 224.59201 89.90625 224.59201Q88.25 224.59201 87.296875 223.38889Q86.171875 221.96701 86.171875 218.73264ZM87.609375 218.73264Q87.609375 221.56076 88.265625 222.49826Q88.9375 223.42014 89.90625 223.42014Q90.875 223.42014 91.53125 222.48264Q92.1875 221.54514 92.1875 218.73264Q92.1875 215.90451 91.53125 214.98264Q90.875 214.04514 89.890625 214.04514Q88.921875 214.04514 88.34375 214.87326Q87.609375 215.92014 87.609375 218.73264Z" fill-rule="nonzero"/><path fill="#000000" d="M63.671875 158.27777L63.671875 155.52777L58.703125 155.52777L58.703125 154.24652L63.9375 146.82465L65.078125 146.82465L65.078125 154.24652L66.625 154.24652L66.625 155.52777L65.078125 155.52777L65.078125 158.27777L63.671875 158.27777ZM63.671875 154.24652L63.671875 149.07465L60.09375 154.24652L63.671875 154.24652ZM68.171875 152.62152Q68.171875 150.59027 68.578125 149.3559Q69.0 148.12152 69.828125 147.44965Q70.65625 146.77777 71.90625 146.77777Q72.828125 146.77777 73.515625 147.15277Q74.21875 147.51215 74.671875 148.21527Q75.125 148.9184 75.375 149.9184Q75.640625 150.9184 75.640625 152.62152Q75.640625 154.63715 75.21875 155.88715Q74.8125 157.12152 73.984375 157.80902Q73.15625 158.4809 71.90625 158.4809Q70.25 158.4809 69.296875 157.27777Q68.171875 155.8559 68.171875 152.62152ZM69.609375 152.62152Q69.609375 155.44965 70.265625 156.38715Q70.9375 157.30902 71.90625 157.30902Q72.875 157.30902 73.53125 156.37152Q74.1875 155.43402 74.1875 152.62152Q74.1875 149.7934 73.53125 148.87152Q72.875 147.93402 71.890625 147.93402Q70.921875 147.93402 70.34375 148.76215Q69.609375 149.80902 69.609375 152.62152ZM77.171875 152.62152Q77.171875 150.59027 77.578125 149.3559Q78.0 148.12152 78.828125 147.44965Q79.65625 146.77777 80.90625 146.77777Q81.828125 146.77777 82.515625 147.15277Q83.21875 147.51215 83.671875 148.21527Q84.125 148.9184 84.375 149.9184Q84.640625 150.9184 84.640625 152.62152Q84.640625 154.63715 84.21875 155.88715Q83.8125 157.12152 82.984375 157.80902Q82.15625 158.4809 80.90625 158.4809Q79.25 158.4809 78.296875 157.27777Q77.171875 155.8559 77.171875 152.62152ZM78.609375 152.62152Q78.609375 155.44965 79.265625 156.38715Q79.9375 157.30902 80.90625 157.30902Q81.875 157.30902 82.53125 156.37152Q83.1875 155.43402 83.1875 152.62152Q83.1875 149.7934 82.53125 148.87152Q81.875 147.93402 80.890625 147.93402Q79.921875 147.93402 79.34375 148.76215Q78.609375 149.80902 78.609375 152.62152ZM86.171875 152.62152Q86.171875 150.59027 86.578125 149.3559Q87.0 148.12152 87.828125 147.44965Q88.65625 146.77777 89.90625 146.77777Q90.828125 146.77777 91.515625 147.15277Q92.21875 147.51215 92.671875 148.21527Q93.125 148.9184 93.375 149.9184Q93.640625 150.9184 93.640625 152.62152Q93.640625 154.63715 93.21875 155.88715Q92.8125 157.12152 91.984375 157.80902Q91.15625 158.4809 89.90625 158.4809Q88.25 158.4809 87.296875 157.27777Q86.171875 155.8559 86.171875 152.62152ZM87.609375 152.62152Q87.609375 155.44965 88.265625 156.38715Q88.9375 157.30902 89.90625 157.30902Q90.875 157.30902 91.53125 156.37152Q92.1875 155.43402 92.1875 152.62152Q92.1875 149.7934 91.53125 148.87152Q90.875 147.93402 89.890625 147.93402Q88.921875 147.93402 88.34375 148.76215Q87.609375 149.80902 87.609375 152.62152Z" fill-rule="nonzero"/><path fill="#000000" d="M66.46875 83.510414L65.0625 83.61979Q64.875 82.791664 64.53125 82.416664Q63.96875 81.822914 63.125 81.822914Q62.453125 81.822914 61.953125 82.197914Q61.28125 82.68229 60.890625 83.61979Q60.515625 84.541664 60.5 86.260414Q61.015625 85.479164 61.75 85.104164Q62.484375 84.729164 63.28125 84.729164Q64.6875 84.729164 65.671875 85.77604Q66.671875 86.80729 66.671875 88.447914Q66.671875 89.52604 66.203125 90.447914Q65.734375 91.36979 64.921875 91.86979Q64.109375 92.36979 63.078125 92.36979Q61.328125 92.36979 60.21875 91.072914Q59.109375 89.77604 59.109375 86.80729Q59.109375 83.479164 60.328125 81.979164Q61.40625 80.666664 63.21875 80.666664Q64.5625 80.666664 65.421875 81.43229Q66.296875 82.18229 66.46875 83.510414ZM60.71875 88.447914Q60.71875 89.18229 61.03125 89.854164Q61.34375 90.510414 61.890625 90.854164Q62.453125 91.197914 63.0625 91.197914Q63.953125 91.197914 64.59375 90.479164Q65.234375 89.760414 65.234375 88.52604Q65.234375 87.33854 64.59375 86.666664Q63.96875 85.979164 63.0 85.979164Q62.046875 85.979164 61.375 86.666664Q60.71875 87.33854 60.71875 88.447914ZM68.171875 86.510414Q68.171875 84.479164 68.578125 83.24479Q69.0 82.010414 69.828125 81.33854Q70.65625 80.666664 71.90625 80.666664Q72.828125 80.666664 73.515625 81.041664Q74.21875 81.40104 74.671875 82.104164Q75.125 82.80729 75.375 83.80729Q75.640625 84.80729 75.640625 86.510414Q75.640625 88.52604 75.21875 89.77604Q74.8125 91.010414 73.984375 91.697914Q73.15625 92.36979 71.90625 92.36979Q70.25 92.36979 69.296875 91.166664Q68.171875 89.74479 68.171875 86.510414ZM69.609375 86.510414Q69.609375 89.33854 70.265625 90.27604Q70.9375 91.197914 71.90625 91.197914Q72.875 91.197914 73.53125 90.260414Q74.1875 89.322914 74.1875 86.510414Q74.1875 83.68229 73.53125 82.760414Q72.875 81.822914 71.890625 81.822914Q70.921875 81.822914 70.34375 82.65104Q69.609375 83.697914 69.609375 86.510414ZM77.171875 86.510414Q77.171875 84.479164 77.578125 83.24479Q78.0 82.010414 78.828125 81.33854Q79.65625 80.666664 80.90625 80.666664Q81.828125 80.666664 82.515625 81.041664Q83.21875 81.40104 83.671875 82.104164Q84.125 82.80729 84.375 83.80729Q84.640625 84.80729 84.640625 86.510414Q84.640625 88.52604 84.21875 89.77604Q83.8125 91.010414 82.984375 91.697914Q82.15625 92.36979 80.90625 92.36979Q79.25 92.36979 78.296875 91.166664Q77.171875 89.74479 77.171875 86.510414ZM78.609375 86.510414Q78.609375 89.33854 79.265625 90.27604Q79.9375 91.197914 80.90625 91.197914Q81.875 91.197914 82.53125 90.260414Q83.1875 89.322914 83.1875 86.510414Q83.1875 83.68229 82.53125 82.760414Q81.875 81.822914 80.890625 81.822914Q79.921875 81.822914 79.34375 82.65104Q78.609375 83.697914 78.609375 86.510414ZM86.171875 86.510414Q86.171875 84.479164 86.578125 83.24479Q87.0 82.010414 87.828125 81.33854Q88.65625 80.666664 89.90625 80.666664Q90.828125 80.666664 91.515625 81.041664Q92.21875 81.40104 92.671875 82.104164Q93.125 82.80729 93.375 83.80729Q93.640625 84.80729 93.640625 86.510414Q93.640625 88.52604 93.21875 89.77604Q92.8125 91.010414 91.984375 91.697914Q91.15625 92.36979 89.90625 92.36979Q88.25 92.36979 87.296875 91.166664Q86.171875 89.74479 86.171875 86.510414ZM87.609375 86.510414Q87.609375 89.33854 88.265625 90.27604Q88.9375 91.197914 89.90625 91.197914Q90.875 91.197914 91.53125 90.260414Q92.1875 89.322914 92.1875 86.510414Q92.1875 83.68229 91.53125 82.760414Q90.875 81.822914 89.890625 81.822914Q88.921875 81.822914 88.34375 82.65104Q87.609375 83.697914 87.609375 86.510414Z" fill-rule="nonzero"/><path fill="#4285f4" d="M110.0 52.333332C110.0 51.781048 110.447716 51.333332 111.0 51.333332L121.0 51.333332C121.552284 51.333332 122.0 51.781048 122.0 52.333332L122.0 62.333332C122.0 62.885616 121.552284 63.333332 121.0 63.333332L111.0 63.333332C110.447716 63.333332 110.0 62.885616 110.0 62.333332Z" fill-rule="nonzero"/><path fill="#1a1a1a" d="M130.71875 59.145832L132.15625 59.020832Q132.25 59.880207 132.625 60.442707Q133.0 60.989582 133.78125 61.333332Q134.5625 61.661457 135.53125 61.661457Q136.40625 61.661457 137.0625 61.411457Q137.73438 61.145832 138.04688 60.708332Q138.375 60.255207 138.375 59.723957Q138.375 59.177082 138.0625 58.786457Q137.75 58.380207 137.03125 58.098957Q136.57812 57.927082 135.0 57.552082Q133.42188 57.161457 132.78125 56.833332Q131.96875 56.395832 131.5625 55.770832Q131.15625 55.130207 131.15625 54.333332Q131.15625 53.473957 131.64062 52.723957Q132.14062 51.958332 133.07812 51.567707Q134.03125 51.177082 135.1875 51.177082Q136.46875 51.177082 137.4375 51.598957Q138.40625 52.005207 138.92188 52.802082Q139.45312 53.598957 139.5 54.598957L138.04688 54.708332Q137.92188 53.630207 137.25 53.083332Q136.57812 52.520832 135.25 52.520832Q133.875 52.520832 133.25 53.020832Q132.625 53.520832 132.625 54.239582Q132.625 54.848957 133.0625 55.255207Q133.5 55.645832 135.34375 56.067707Q137.20312 56.489582 137.89062 56.802082Q138.89062 57.255207 139.35938 57.973957Q139.84375 58.677082 139.84375 59.598957Q139.84375 60.505207 139.3125 61.317707Q138.79688 62.130207 137.8125 62.583332Q136.82812 63.036457 135.60938 63.036457Q134.04688 63.036457 133.0 62.583332Q131.95312 62.114582 131.34375 61.208332Q130.75 60.302082 130.71875 59.145832ZM141.78125 57.255207Q141.78125 54.395832 143.3125 52.786457Q144.84375 51.177082 147.26562 51.177082Q148.84375 51.177082 150.10938 51.942707Q151.39062 52.692707 152.0625 54.052082Q152.73438 55.395832 152.73438 57.114582Q152.73438 58.864582 152.03125 60.239582Q151.32812 61.614582 150.03125 62.333332Q148.75 63.036457 147.25 63.036457Q145.64062 63.036457 144.35938 62.255207Q143.09375 61.458332 142.4375 60.114582Q141.78125 58.755207 141.78125 57.255207ZM143.34375 57.270832Q143.34375 59.348957 144.45312 60.536457Q145.5625 61.723957 147.25 61.723957Q148.95312 61.723957 150.0625 60.520832Q151.17188 59.317707 151.17188 57.114582Q151.17188 55.708332 150.6875 54.677082Q150.21875 53.630207 149.3125 53.052082Q148.40625 52.473957 147.26562 52.473957Q145.65625 52.473957 144.5 53.583332Q143.34375 54.692707 143.34375 57.270832ZM157.15625 62.833332L157.15625 52.723957L153.375 52.723957L153.375 51.380207L162.45312 51.380207L162.45312 52.723957L158.67188 52.723957L158.67188 62.833332L157.15625 62.833332ZM161.96875 62.833332L166.375 51.380207L168.01562 51.380207L172.70312 62.833332L170.96875 62.833332L169.64062 59.364582L164.84375 59.364582L163.59375 62.833332L161.96875 62.833332ZM165.28125 58.130207L169.17188 58.130207L167.96875 54.958332Q167.42188 53.505207 167.15625 52.583332Q166.9375 53.677082 166.54688 54.770832L165.28125 58.130207ZM177.78125 57.255207Q177.78125 54.395832 179.3125 52.786457Q180.84375 51.177082 183.26562 51.177082Q184.84375 51.177082 186.10938 51.942707Q187.39062 52.692707 188.0625 54.052082Q188.73438 55.395832 188.73438 57.114582Q188.73438 58.864582 188.03125 60.239582Q187.32812 61.614582 186.03125 62.333332Q184.75 63.036457 183.25 63.036457Q181.64062 63.036457 180.35938 62.255207Q179.09375 61.458332 178.4375 60.114582Q177.78125 58.755207 177.78125 57.255207ZM179.34375 57.270832Q179.34375 59.348957 180.45312 60.536457Q181.5625 61.723957 183.25 61.723957Q184.95312 61.723957 186.0625 60.520832Q187.17188 59.317707 187.17188 57.114582Q187.17188 55.708332 186.6875 54.677082Q186.21875 53.630207 185.3125 53.052082Q184.40625 52.473957 183.26562 52.473957Q181.65625 52.473957 180.5 53.583332Q179.34375 54.692707 179.34375 57.270832ZM189.71875 59.145832L191.15625 59.020832Q191.25 59.880207 191.625 60.442707Q192.0 60.989582 192.78125 61.333332Q193.5625 61.661457 194.53125 61.661457Q195.40625 61.661457 196.0625 61.411457Q196.73438 61.145832 197.04688 60.708332Q197.375 60.255207 197.375 59.723957Q197.375 59.177082 197.0625 58.786457Q196.75 58.380207 196.03125 58.098957Q195.57812 57.927082 194.0 57.552082Q192.42188 57.161457 191.78125 56.833332Q190.96875 56.395832 190.5625 55.770832Q190.15625 55.130207 190.15625 54.333332Q190.15625 53.473957 190.64062 52.723957Q191.14062 51.958332 192.07812 51.567707Q193.03125 51.177082 194.1875 51.177082Q195.46875 51.177082 196.4375 51.598957Q197.40625 52.005207 197.92188 52.802082Q198.45312 53.598957 198.5 54.598957L197.04688 54.708332Q196.92188 53.630207 196.25 53.083332Q195.57812 52.520832 194.25 52.520832Q192.875 52.520832 192.25 53.020832Q191.625 53.520832 191.625 54.239582Q191.625 54.848957 192.0625 55.255207Q192.5 55.645832 194.34375 56.067707Q196.20312 56.489582 196.89062 56.802082Q197.89062 57.255207 198.35938 57.973957Q198.84375 58.677082 198.84375 59.598957Q198.84375 60.505207 198.3125 61.317707Q197.79688 62.130207 196.8125 62.583332Q195.82812 63.036457 194.60938 63.036457Q193.04688 63.036457 192.0 62.583332Q190.95312 62.114582 190.34375 61.208332Q189.75 60.302082 189.71875 59.145832ZM200.71875 59.145832L202.15625 59.020832Q202.25 59.880207 202.625 60.442707Q203.0 60.989582 203.78125 61.333332Q204.5625 61.661457 205.53125 61.661457Q206.40625 61.661457 207.0625 61.411457Q207.73438 61.145832 208.04688 60.708332Q208.375 60.255207 208.375 59.723957Q208.375 59.177082 208.0625 58.786457Q207.75 58.380207 207.03125 58.098957Q206.57812 57.927082 205.0 57.552082Q203.42188 57.161457 202.78125 56.833332Q201.96875 56.395832 201.5625 55.770832Q201.15625 55.130207 201.15625 54.333332Q201.15625 53.473957 201.64062 52.723957Q202.14062 51.958332 203.07812 51.567707Q204.03125 51.177082 205.1875 51.177082Q206.46875 51.177082 207.4375 51.598957Q208.40625 52.005207 208.92188 52.802082Q209.45312 53.598957 209.5 54.598957L208.04688 54.708332Q207.92188 53.630207 207.25 53.083332Q206.57812 52.520832 205.25 52.520832Q203.875 52.520832 203.25 53.020832Q202.625 53.520832 202.625 54.239582Q202.625 54.848957 203.0625 55.255207Q203.5 55.645832 205.34375 56.067707Q207.20312 56.489582 207.89062 56.802082Q208.89062 57.255207 209.35938 57.973957Q209.84375 58.677082 209.84375 59.598957Q209.84375 60.505207 209.3125 61.317707Q208.79688 62.130207 207.8125 62.583332Q206.82812 63.036457 205.60938 63.036457Q204.04688 63.036457 203.0 62.583332Q201.95312 62.114582 201.34375 61.208332Q200.75 60.302082 200.71875 59.145832ZM217.35938 62.833332L216.04688 62.833332L216.04688 51.380207L217.45312 51.380207L217.45312 55.458332Q218.34375 54.348957 219.73438 54.348957Q220.5 54.348957 221.17188 54.661457Q221.85938 54.958332 222.29688 55.520832Q222.75 56.083332 223.0 56.880207Q223.25 57.661457 223.25 58.552082Q223.25 60.692707 222.1875 61.864582Q221.14062 63.020832 219.65625 63.020832Q218.1875 63.020832 217.35938 61.786457L217.35938 62.833332ZM217.34375 58.614582Q217.34375 60.114582 217.75 60.770832Q218.40625 61.864582 219.54688 61.864582Q220.46875 61.864582 221.14062 61.067707Q221.8125 60.255207 221.8125 58.677082Q221.8125 57.052082 221.15625 56.286457Q220.51562 55.505207 219.60938 55.505207Q218.6875 55.505207 218.01562 56.302082Q217.34375 57.098957 217.34375 58.614582ZM230.46875 61.802082Q229.6875 62.473957 228.96875 62.755207Q228.25 63.020832 227.42188 63.020832Q226.04688 63.020832 225.3125 62.348957Q224.57812 61.677082 224.57812 60.645832Q224.57812 60.036457 224.85938 59.536457Q225.14062 59.020832 225.57812 58.723957Q226.03125 58.411457 226.59375 58.255207Q227.01562 58.145832 227.84375 58.052082Q229.54688 57.848957 230.35938 57.567707Q230.35938 57.270832 230.35938 57.192707Q230.35938 56.333332 229.96875 55.989582Q229.42188 55.505207 228.35938 55.505207Q227.375 55.505207 226.89062 55.864582Q226.42188 56.208332 226.20312 57.083332L224.82812 56.895832Q225.01562 56.020832 225.4375 55.473957Q225.875 54.927082 226.6875 54.645832Q227.5 54.348957 228.5625 54.348957Q229.625 54.348957 230.28125 54.598957Q230.95312 54.848957 231.26562 55.223957Q231.57812 55.598957 231.70312 56.177082Q231.78125 56.536457 231.78125 57.473957L231.78125 59.348957Q231.78125 61.317707 231.85938 61.833332Q231.95312 62.348957 232.21875 62.833332L230.75 62.833332Q230.53125 62.395832 230.46875 61.802082ZM230.35938 58.661457Q229.59375 58.973957 228.0625 59.192707Q227.1875 59.317707 226.82812 59.473957Q226.46875 59.630207 226.26562 59.942707Q226.07812 60.239582 226.07812 60.598957Q226.07812 61.161457 226.5 61.536457Q226.9375 61.911457 227.75 61.911457Q228.5625 61.911457 229.1875 61.567707Q229.82812 61.208332 230.125 60.583332Q230.35938 60.114582 230.35938 59.177082L230.35938 58.661457ZM233.5 60.348957L234.89062 60.130207Q235.0 60.973957 235.53125 61.427082Q236.07812 61.864582 237.03125 61.864582Q238.0 61.864582 238.46875 61.473957Q238.9375 61.067707 238.9375 60.536457Q238.9375 60.067707 238.53125 59.786457Q238.23438 59.598957 237.09375 59.317707Q235.54688 58.927082 234.9375 58.645832Q234.34375 58.348957 234.03125 57.848957Q233.73438 57.348957 233.73438 56.739582Q233.73438 56.177082 233.98438 55.708332Q234.23438 55.239582 234.67188 54.927082Q235.0 54.677082 235.5625 54.520832Q236.14062 54.348957 236.78125 54.348957Q237.76562 54.348957 238.5 54.630207Q239.23438 54.911457 239.57812 55.395832Q239.9375 55.864582 240.07812 56.677082L238.70312 56.864582Q238.60938 56.223957 238.15625 55.864582Q237.70312 55.505207 236.89062 55.505207Q235.92188 55.505207 235.5 55.833332Q235.09375 56.145832 235.09375 56.567707Q235.09375 56.848957 235.26562 57.067707Q235.4375 57.286457 235.79688 57.442707Q236.01562 57.520832 237.04688 57.802082Q238.53125 58.192707 239.125 58.458332Q239.71875 58.708332 240.04688 59.192707Q240.39062 59.677082 240.39062 60.395832Q240.39062 61.098957 239.96875 61.723957Q239.5625 62.333332 238.78125 62.677082Q238.01562 63.020832 237.04688 63.020832Q235.42188 63.020832 234.57812 62.348957Q233.73438 61.677082 233.5 60.348957ZM247.73438 60.161457L249.1875 60.333332Q248.84375 61.614582 247.90625 62.317707Q246.98438 63.020832 245.54688 63.020832Q243.71875 63.020832 242.65625 61.895832Q241.59375 60.770832 241.59375 58.755207Q241.59375 56.661457 242.67188 55.505207Q243.75 54.348957 245.46875 54.348957Q247.125 54.348957 248.17188 55.489582Q249.23438 56.614582 249.23438 58.661457Q249.23438 58.786457 249.23438 59.036457L243.04688 59.036457Q243.125 60.411457 243.8125 61.145832Q244.51562 61.864582 245.54688 61.864582Q246.32812 61.864582 246.875 61.458332Q247.42188 61.052082 247.73438 60.161457ZM243.125 57.880207L247.75 57.880207Q247.65625 56.833332 247.21875 56.317707Q246.54688 55.505207 245.48438 55.505207Q244.51562 55.505207 243.84375 56.161457Q243.1875 56.802082 243.125 57.880207ZM251.03125 62.833332L251.03125 51.380207L252.4375 51.380207L252.4375 62.833332L251.03125 62.833332ZM254.0625 52.989582L254.0625 51.380207L255.46875 51.380207L255.46875 52.989582L254.0625 52.989582ZM254.0625 62.833332L254.0625 54.536457L255.46875 54.536457L255.46875 62.833332L254.0625 62.833332ZM258.0625 62.833332L258.0625 54.536457L259.32812 54.536457L259.32812 55.708332Q260.23438 54.348957 261.96875 54.348957Q262.71875 54.348957 263.34375 54.614582Q263.96875 54.880207 264.28125 55.317707Q264.59375 55.755207 264.71875 56.364582Q264.79688 56.755207 264.79688 57.723957L264.79688 62.833332L263.39062 62.833332L263.39062 57.786457Q263.39062 56.927082 263.21875 56.505207Q263.0625 56.067707 262.64062 55.817707Q262.23438 55.567707 261.67188 55.567707Q260.76562 55.567707 260.10938 56.145832Q259.46875 56.708332 259.46875 58.302082L259.46875 62.833332L258.0625 62.833332ZM271.73438 60.161457L273.1875 60.333332Q272.84375 61.614582 271.90625 62.317707Q270.98438 63.020832 269.54688 63.020832Q267.71875 63.020832 266.65625 61.895832Q265.59375 60.770832 265.59375 58.755207Q265.59375 56.661457 266.67188 55.505207Q267.75 54.348957 269.46875 54.348957Q271.125 54.348957 272.17188 55.489582Q273.23438 56.614582 273.23438 58.661457Q273.23438 58.786457 273.23438 59.036457L267.04688 59.036457Q267.125 60.411457 267.8125 61.145832Q268.51562 61.864582 269.54688 61.864582Q270.32812 61.864582 270.875 61.458332Q271.42188 61.052082 271.73438 60.161457ZM267.125 57.880207L271.75 57.880207Q271.65625 56.833332 271.21875 56.317707Q270.54688 55.505207 269.48438 55.505207Q268.51562 55.505207 267.84375 56.161457Q267.1875 56.802082 267.125 57.880207Z" fill-rule="nonzero"/><path fill="#ea4335" d="M290.0 52.333332C290.0 51.781048 290.44772 51.333332 291.0 51.333332L301.0 51.333332C301.55228 51.333332 302.0 51.781048 302.0 52.333332L302.0 62.333332C302.0 62.885616 301.55228 63.333332 301.0 63.333332L291.0 63.333332C290.44772 63.333332 290.0 62.885616 290.0 62.333332Z" fill-rule="nonzero"/><path fill="#1a1a1a" d="M310.71875 59.145832L312.15625 59.020832Q312.25 59.880207 312.625 60.442707Q313.0 60.989582 313.78125 61.333332Q314.5625 61.661457 315.53125 61.661457Q316.40625 61.661457 317.0625 61.411457Q317.73438 61.145832 318.04688 60.708332Q318.375 60.255207 318.375 59.723957Q318.375 59.177082 318.0625 58.786457Q317.75 58.380207 317.03125 58.098957Q316.57812 57.927082 315.0 57.552082Q313.42188 57.161457 312.78125 56.833332Q311.96875 56.395832 311.5625 55.770832Q311.15625 55.130207 311.15625 54.333332Q311.15625 53.473957 311.64062 52.723957Q312.14062 51.958332 313.07812 51.567707Q314.03125 51.177082 315.1875 51.177082Q316.46875 51.177082 317.4375 51.598957Q318.40625 52.005207 318.92188 52.802082Q319.45312 53.598957 319.5 54.598957L318.04688 54.708332Q317.92188 53.630207 317.25 53.083332Q316.57812 52.520832 315.25 52.520832Q313.875 52.520832 313.25 53.020832Q312.625 53.520832 312.625 54.239582Q312.625 54.848957 313.0625 55.255207Q313.5 55.645832 315.34375 56.067707Q317.20312 56.489582 317.89062 56.802082Q318.89062 57.255207 319.35938 57.973957Q319.84375 58.677082 319.84375 59.598957Q319.84375 60.505207 319.3125 61.317707Q318.79688 62.130207 317.8125 62.583332Q316.82812 63.036457 315.60938 63.036457Q314.04688 63.036457 313.0 62.583332Q311.95312 62.114582 311.34375 61.208332Q310.75 60.302082 310.71875 59.145832ZM327.59375 58.333332L327.59375 56.989582L332.45312 56.989582L332.45312 61.239582Q331.32812 62.130207 330.14062 62.583332Q328.95312 63.036457 327.70312 63.036457Q326.01562 63.036457 324.64062 62.317707Q323.26562 61.583332 322.5625 60.223957Q321.85938 58.848957 321.85938 57.161457Q321.85938 55.489582 322.54688 54.036457Q323.25 52.583332 324.5625 51.880207Q325.875 51.177082 327.59375 51.177082Q328.82812 51.177082 329.82812 51.583332Q330.84375 51.989582 331.40625 52.708332Q331.98438 53.427082 332.28125 54.583332L330.90625 54.958332Q330.65625 54.083332 330.26562 53.583332Q329.89062 53.083332 329.17188 52.786457Q328.46875 52.473957 327.59375 52.473957Q326.5625 52.473957 325.79688 52.802082Q325.04688 53.114582 324.57812 53.630207Q324.10938 54.145832 323.85938 54.755207Q323.42188 55.817707 323.42188 57.067707Q323.42188 58.598957 323.9375 59.630207Q324.46875 60.661457 325.46875 61.161457Q326.48438 61.661457 327.625 61.661457Q328.60938 61.661457 329.54688 61.286457Q330.48438 60.895832 330.96875 60.473957L330.96875 58.333332L327.59375 58.333332ZM334.17188 62.833332L334.17188 51.380207L335.6875 51.380207L335.6875 61.473957L341.32812 61.473957L341.32812 62.833332L334.17188 62.833332ZM348.46875 61.802082Q347.6875 62.473957 346.96875 62.755207Q346.25 63.020832 345.42188 63.020832Q344.04688 63.020832 343.3125 62.348957Q342.57812 61.677082 342.57812 60.645832Q342.57812 60.036457 342.85938 59.536457Q343.14062 59.020832 343.57812 58.723957Q344.03125 58.411457 344.59375 58.255207Q345.01562 58.145832 345.84375 58.052082Q347.54688 57.848957 348.35938 57.567707Q348.35938 57.270832 348.35938 57.192707Q348.35938 56.333332 347.96875 55.989582Q347.42188 55.505207 346.35938 55.505207Q345.375 55.505207 344.89062 55.864582Q344.42188 56.208332 344.20312 57.083332L342.82812 56.895832Q343.01562 56.020832 343.4375 55.473957Q343.875 54.927082 344.6875 54.645832Q345.5 54.348957 346.5625 54.348957Q347.625 54.348957 348.28125 54.598957Q348.95312 54.848957 349.26562 55.223957Q349.57812 55.598957 349.70312 56.177082Q349.78125 56.536457 349.78125 57.473957L349.78125 59.348957Q349.78125 61.317707 349.85938 61.833332Q349.95312 62.348957 350.21875 62.833332L348.75 62.833332Q348.53125 62.395832 348.46875 61.802082ZM348.35938 58.661457Q347.59375 58.973957 346.0625 59.192707Q345.1875 59.317707 344.82812 59.473957Q344.46875 59.630207 344.26562 59.942707Q344.07812 60.239582 344.07812 60.598957Q344.07812 61.161457 344.5 61.536457Q344.9375 61.911457 345.75 61.911457Q346.5625 61.911457 347.1875 61.567707Q347.82812 61.208332 348.125 60.583332Q348.35938 60.114582 348.35938 59.177082L348.35938 58.661457ZM352.0625 62.833332L352.0625 54.536457L353.32812 54.536457L353.32812 55.708332Q354.23438 54.348957 355.96875 54.348957Q356.71875 54.348957 357.34375 54.614582Q357.96875 54.880207 358.28125 55.317707Q358.59375 55.755207 358.71875 56.364582Q358.79688 56.755207 358.79688 57.723957L358.79688 62.833332L357.39062 62.833332L357.39062 57.786457Q357.39062 56.927082 357.21875 56.505207Q357.0625 56.067707 356.64062 55.817707Q356.23438 55.567707 355.67188 55.567707Q354.76562 55.567707 354.10938 56.145832Q353.46875 56.708332 353.46875 58.302082L353.46875 62.833332L352.0625 62.833332ZM359.79688 63.520832L361.17188 63.723957Q361.25 64.36458 361.64062 64.64583Q362.17188 65.03645 363.07812 65.03645Q364.04688 65.03645 364.57812 64.64583Q365.10938 64.2552 365.29688 63.552082Q365.40625 63.130207 365.40625 61.739582Q364.48438 62.833332 363.10938 62.833332Q361.39062 62.833332 360.45312 61.598957Q359.51562 60.364582 359.51562 58.630207Q359.51562 57.442707 359.9375 56.442707Q360.375 55.442707 361.1875 54.895832Q362.01562 54.348957 363.10938 54.348957Q364.57812 54.348957 365.53125 55.536457L365.53125 54.536457L366.82812 54.536457L366.82812 61.708332Q366.82812 63.645832 366.4375 64.45833Q366.04688 65.27083 365.1875 65.73958Q364.32812 66.20833 363.07812 66.20833Q361.59375 66.20833 360.67188 65.53645Q359.76562 64.86458 359.79688 63.520832ZM360.96875 58.536457Q360.96875 60.161457 361.60938 60.911457Q362.26562 61.661457 363.23438 61.661457Q364.20312 61.661457 364.85938 60.927082Q365.51562 60.177082 365.51562 58.583332Q365.51562 57.052082 364.84375 56.286457Q364.17188 55.505207 363.21875 55.505207Q362.28125 55.505207 361.625 56.270832Q360.96875 57.036457 360.96875 58.536457ZM375.35938 62.833332L372.20312 54.536457L373.6875 54.536457L375.46875 59.505207Q375.76562 60.302082 376.0 61.177082Q376.1875 60.520832 376.53125 59.598957L378.375 54.536457L379.8125 54.536457L376.67188 62.833332L375.35938 62.833332ZM379.67188 57.177082Q379.67188 55.145832 380.07812 53.911457Q380.5 52.677082 381.32812 52.005207Q382.15625 51.333332 383.40625 51.333332Q384.32812 51.333332 385.01562 51.708332Q385.71875 52.067707 386.17188 52.770832Q386.625 53.473957 386.875 54.473957Q387.14062 55.473957 387.14062 57.177082Q387.14062 59.192707 386.71875 60.442707Q386.3125 61.677082 385.48438 62.364582Q384.65625 63.036457 383.40625 63.036457Q381.75 63.036457 380.79688 61.833332Q379.67188 60.411457 379.67188 57.177082ZM381.10938 57.177082Q381.10938 60.005207 381.76562 60.942707Q382.4375 61.864582 383.40625 61.864582Q384.375 61.864582 385.03125 60.927082Q385.6875 59.989582 385.6875 57.177082Q385.6875 54.348957 385.03125 53.427082Q384.375 52.489582 383.39062 52.489582Q382.42188 52.489582 381.84375 53.317707Q381.10938 54.364582 381.10938 57.177082ZM389.45312 62.833332L389.45312 61.223957L391.0625 61.223957L391.0625 62.833332L389.45312 62.833332ZM392.67188 59.802082L394.07812 59.614582Q394.32812 60.817707 394.90625 61.348957Q395.48438 61.864582 396.32812 61.864582Q397.3125 61.864582 398.0 61.177082Q398.6875 60.489582 398.6875 59.473957Q398.6875 58.505207 398.04688 57.880207Q397.42188 57.255207 396.4375 57.255207Q396.04688 57.255207 395.45312 57.411457L395.60938 56.177082Q395.75 56.192707 395.82812 56.192707Q396.73438 56.192707 397.45312 55.723957Q398.17188 55.255207 398.17188 54.270832Q398.17188 53.505207 397.64062 53.005207Q397.125 52.489582 396.29688 52.489582Q395.46875 52.489582 394.92188 53.005207Q394.375 53.520832 394.21875 54.552082L392.8125 54.302082Q393.07812 52.880207 393.98438 52.114582Q394.90625 51.333332 396.26562 51.333332Q397.20312 51.333332 397.98438 51.739582Q398.78125 52.130207 399.1875 52.833332Q399.60938 53.520832 399.60938 54.302082Q399.60938 55.052082 399.20312 55.661457Q398.8125 56.270832 398.03125 56.630207Q399.04688 56.864582 399.60938 57.598957Q400.17188 58.333332 400.17188 59.442707Q400.17188 60.942707 399.07812 61.989582Q397.98438 63.036457 396.3125 63.036457Q394.8125 63.036457 393.8125 62.145832Q392.8125 61.239582 392.67188 59.802082Z" fill-rule="nonzero"/><path fill="#fbbc04" d="M417.0 52.333332C417.0 51.781048 417.44772 51.333332 418.0 51.333332L428.0 51.333332C428.55228 51.333332 429.0 51.781048 429.0 52.333332L429.0 62.333332C429.0 62.885616 428.55228 63.333332 428.0 63.333332L418.0 63.333332C417.44772 63.333332 417.0 62.885616 417.0 62.333332Z" fill-rule="nonzero"/><path fill="#1a1a1a" d="M437.71875 59.145832L439.15625 59.020832Q439.25 59.880207 439.625 60.442707Q440.0 60.989582 440.78125 61.333332Q441.5625 61.661457 442.53125 61.661457Q443.40625 61.661457 444.0625 61.411457Q444.73438 61.145832 445.04688 60.708332Q445.375 60.255207 445.375 59.723957Q445.375 59.177082 445.0625 58.786457Q444.75 58.380207 444.03125 58.098957Q443.57812 57.927082 442.0 57.552082Q440.42188 57.161457 439.78125 56.833332Q438.96875 56.395832 438.5625 55.770832Q438.15625 55.130207 438.15625 54.333332Q438.15625 53.473957 438.64062 52.723957Q439.14062 51.958332 440.07812 51.567707Q441.03125 51.177082 442.1875 51.177082Q443.46875 51.177082 444.4375 51.598957Q445.40625 52.005207 445.92188 52.802082Q446.45312 53.598957 446.5 54.598957L445.04688 54.708332Q444.92188 53.630207 444.25 53.083332Q443.57812 52.520832 442.25 52.520832Q440.875 52.520832 440.25 53.020832Q439.625 53.520832 439.625 54.239582Q439.625 54.848957 440.0625 55.255207Q440.5 55.645832 442.34375 56.067707Q444.20312 56.489582 444.89062 56.802082Q445.89062 57.255207 446.35938 57.973957Q446.84375 58.677082 446.84375 59.598957Q446.84375 60.505207 446.3125 61.317707Q445.79688 62.130207 444.8125 62.583332Q443.82812 63.036457 442.60938 63.036457Q441.04688 63.036457 440.0 62.583332Q438.95312 62.114582 438.34375 61.208332Q437.75 60.302082 437.71875 59.145832ZM454.59375 58.333332L454.59375 56.989582L459.45312 56.989582L459.45312 61.239582Q458.32812 62.130207 457.14062 62.583332Q455.95312 63.036457 454.70312 63.036457Q453.01562 63.036457 451.64062 62.317707Q450.26562 61.583332 449.5625 60.223957Q448.85938 58.848957 448.85938 57.161457Q448.85938 55.489582 449.54688 54.036457Q450.25 52.583332 451.5625 51.880207Q452.875 51.177082 454.59375 51.177082Q455.82812 51.177082 456.82812 51.583332Q457.84375 51.989582 458.40625 52.708332Q458.98438 53.427082 459.28125 54.583332L457.90625 54.958332Q457.65625 54.083332 457.26562 53.583332Q456.89062 53.083332 456.17188 52.786457Q455.46875 52.473957 454.59375 52.473957Q453.5625 52.473957 452.79688 52.802082Q452.04688 53.114582 451.57812 53.630207Q451.10938 54.145832 450.85938 54.755207Q450.42188 55.817707 450.42188 57.067707Q450.42188 58.598957 450.9375 59.630207Q451.46875 60.661457 452.46875 61.161457Q453.48438 61.661457 454.625 61.661457Q455.60938 61.661457 456.54688 61.286457Q457.48438 60.895832 457.96875 60.473957L457.96875 58.333332L454.59375 58.333332ZM461.17188 62.833332L461.17188 51.380207L462.6875 51.380207L462.6875 61.473957L468.32812 61.473957L468.32812 62.833332L461.17188 62.833332ZM475.46875 61.802082Q474.6875 62.473957 473.96875 62.755207Q473.25 63.020832 472.42188 63.020832Q471.04688 63.020832 470.3125 62.348957Q469.57812 61.677082 469.57812 60.645832Q469.57812 60.036457 469.85938 59.536457Q470.14062 59.020832 470.57812 58.723957Q471.03125 58.411457 471.59375 58.255207Q472.01562 58.145832 472.84375 58.052082Q474.54688 57.848957 475.35938 57.567707Q475.35938 57.270832 475.35938 57.192707Q475.35938 56.333332 474.96875 55.989582Q474.42188 55.505207 473.35938 55.505207Q472.375 55.505207 471.89062 55.864582Q471.42188 56.208332 471.20312 57.083332L469.82812 56.895832Q470.01562 56.020832 470.4375 55.473957Q470.875 54.927082 471.6875 54.645832Q472.5 54.348957 473.5625 54.348957Q474.625 54.348957 475.28125 54.598957Q475.95312 54.848957 476.26562 55.223957Q476.57812 55.598957 476.70312 56.177082Q476.78125 56.536457 476.78125 57.473957L476.78125 59.348957Q476.78125 61.317707 476.85938 61.833332Q476.95312 62.348957 477.21875 62.833332L475.75 62.833332Q475.53125 62.395832 475.46875 61.802082ZM475.35938 58.661457Q474.59375 58.973957 473.0625 59.192707Q472.1875 59.317707 471.82812 59.473957Q471.46875 59.630207 471.26562 59.942707Q471.07812 60.239582 471.07812 60.598957Q471.07812 61.161457 471.5 61.536457Q471.9375 61.911457 472.75 61.911457Q473.5625 61.911457 474.1875 61.567707Q474.82812 61.208332 475.125 60.583332Q475.35938 60.114582 475.35938 59.177082L475.35938 58.661457ZM479.0625 62.833332L479.0625 54.536457L480.32812 54.536457L480.32812 55.708332Q481.23438 54.348957 482.96875 54.348957Q483.71875 54.348957 484.34375 54.614582Q484.96875 54.880207 485.28125 55.317707Q485.59375 55.755207 485.71875 56.364582Q485.79688 56.755207 485.79688 57.723957L485.79688 62.833332L484.39062 62.833332L484.39062 57.786457Q484.39062 56.927082 484.21875 56.505207Q484.0625 56.067707 483.64062 55.817707Q483.23438 55.567707 482.67188 55.567707Q481.76562 55.567707 481.10938 56.145832Q480.46875 56.708332 480.46875 58.302082L480.46875 62.833332L479.0625 62.833332ZM486.79688 63.520832L488.17188 63.723957Q488.25 64.36458 488.64062 64.64583Q489.17188 65.03645 490.07812 65.03645Q491.04688 65.03645 491.57812 64.64583Q492.10938 64.2552 492.29688 63.552082Q492.40625 63.130207 492.40625 61.739582Q491.48438 62.833332 490.10938 62.833332Q488.39062 62.833332 487.45312 61.598957Q486.51562 60.364582 486.51562 58.630207Q486.51562 57.442707 486.9375 56.442707Q487.375 55.442707 488.1875 54.895832Q489.01562 54.348957 490.10938 54.348957Q491.57812 54.348957 492.53125 55.536457L492.53125 54.536457L493.82812 54.536457L493.82812 61.708332Q493.82812 63.645832 493.4375 64.45833Q493.04688 65.27083 492.1875 65.73958Q491.32812 66.20833 490.07812 66.20833Q488.59375 66.20833 487.67188 65.53645Q486.76562 64.86458 486.79688 63.520832ZM487.96875 58.536457Q487.96875 60.161457 488.60938 60.911457Q489.26562 61.661457 490.23438 61.661457Q491.20312 61.661457 491.85938 60.927082Q492.51562 60.177082 492.51562 58.583332Q492.51562 57.052082 491.84375 56.286457Q491.17188 55.505207 490.21875 55.505207Q489.28125 55.505207 488.625 56.270832Q487.96875 57.036457 487.96875 58.536457ZM502.35938 62.833332L499.20312 54.536457L500.6875 54.536457L502.46875 59.505207Q502.76562 60.302082 503.0 61.177082Q503.1875 60.520832 503.53125 59.598957L505.375 54.536457L506.8125 54.536457L503.67188 62.833332L502.35938 62.833332ZM506.67188 57.177082Q506.67188 55.145832 507.07812 53.911457Q507.5 52.677082 508.32812 52.005207Q509.15625 51.333332 510.40625 51.333332Q511.32812 51.333332 512.0156 51.708332Q512.71875 52.067707 513.1719 52.770832Q513.625 53.473957 513.875 54.473957Q514.1406 55.473957 514.1406 57.177082Q514.1406 59.192707 513.71875 60.442707Q513.3125 61.677082 512.4844 62.364582Q511.65625 63.036457 510.40625 63.036457Q508.75 63.036457 507.79688 61.833332Q506.67188 60.411457 506.67188 57.177082ZM508.10938 57.177082Q508.10938 60.005207 508.76562 60.942707Q509.4375 61.864582 510.40625 61.864582Q511.375 61.864582 512.03125 60.927082Q512.6875 59.989582 512.6875 57.177082Q512.6875 54.348957 512.03125 53.427082Q511.375 52.489582 510.39062 52.489582Q509.42188 52.489582 508.84375 53.317707Q508.10938 54.364582 508.10938 57.177082ZM516.4531 62.833332L516.4531 61.223957L518.0625 61.223957L518.0625 62.833332L516.4531 62.833332ZM524.1719 62.833332L524.1719 60.083332L519.2031 60.083332L519.2031 58.802082L524.4375 51.380207L525.5781 51.380207L525.5781 58.802082L527.125 58.802082L527.125 60.083332L525.5781 60.083332L525.5781 62.833332L524.1719 62.833332ZM524.1719 58.802082L524.1719 53.630207L520.59375 58.802082L524.1719 58.802082Z" fill-rule="nonzero"/><path fill="#757575" d="M51.890625 33.5L51.890625 19.90625L53.6875 19.90625L53.6875 31.890625L60.390625 31.890625L60.390625 33.5L51.890625 33.5ZM62.71875 33.5L62.71875 19.90625L64.390625 19.90625L64.390625 33.5L62.71875 33.5ZM73.1875 32.28125Q72.25 33.078125 71.390625 33.40625Q70.53125 33.71875 69.546875 33.71875Q67.9375 33.71875 67.0625 32.9375Q66.1875 32.140625 66.1875 30.90625Q66.1875 30.171875 66.515625 29.578125Q66.84375 28.984375 67.375 28.625Q67.90625 28.265625 68.578125 28.078125Q69.078125 27.9375 70.0625 27.828125Q72.09375 27.578125 73.046875 27.25Q73.046875 26.90625 73.046875 26.8125Q73.046875 25.796875 72.578125 25.375Q71.9375 24.8125 70.671875 24.8125Q69.5 24.8125 68.9375 25.21875Q68.375 25.625 68.109375 26.6875L66.46875 26.453125Q66.703125 25.40625 67.203125 24.765625Q67.71875 24.125 68.671875 23.78125Q69.640625 23.421875 70.921875 23.421875Q72.1875 23.421875 72.96875 23.71875Q73.75 24.015625 74.125 24.46875Q74.5 24.921875 74.640625 25.609375Q74.734375 26.03125 74.734375 27.140625L74.734375 29.375Q74.734375 31.703125 74.828125 32.328125Q74.9375 32.9375 75.265625 33.5L73.515625 33.5Q73.25 32.984375 73.1875 32.28125ZM73.046875 28.5625Q72.140625 28.921875 70.3125 29.1875Q69.28125 29.328125 68.859375 29.515625Q68.4375 29.703125 68.203125 30.0625Q67.96875 30.421875 67.96875 30.859375Q67.96875 31.53125 68.46875 31.984375Q68.984375 32.421875 69.953125 32.421875Q70.921875 32.421875 71.671875 32.0Q72.421875 31.5625 72.78125 30.84375Q73.046875 30.265625 73.046875 29.171875L73.046875 28.5625ZM76.75 33.5L76.75 23.640625L78.25 23.640625L78.25 25.03125Q78.703125 24.3125 79.46875 23.875Q80.25 23.421875 81.234375 23.421875Q82.328125 23.421875 83.03125 23.875Q83.734375 24.328125 84.015625 25.15625Q85.1875 23.421875 87.0625 23.421875Q88.53125 23.421875 89.3125 24.234375Q90.109375 25.046875 90.109375 26.734375L90.109375 33.5L88.4375 33.5L88.4375 27.296875Q88.4375 26.296875 88.28125 25.859375Q88.125 25.40625 87.6875 25.140625Q87.265625 24.875 86.6875 24.875Q85.65625 24.875 84.96875 25.5625Q84.28125 26.25 84.28125 27.78125L84.28125 33.5L82.609375 33.5L82.609375 27.09375Q82.609375 25.984375 82.203125 25.4375Q81.796875 24.875 80.859375 24.875Q80.15625 24.875 79.546875 25.25Q78.953125 25.609375 78.6875 26.328125Q78.421875 27.046875 78.421875 28.390625L78.421875 33.5L76.75 33.5ZM99.1875 32.28125Q98.25 33.078125 97.390625 33.40625Q96.53125 33.71875 95.546875 33.71875Q93.9375 33.71875 93.0625 32.9375Q92.1875 32.140625 92.1875 30.90625Q92.1875 30.171875 92.515625 29.578125Q92.84375 28.984375 93.375 28.625Q93.90625 28.265625 94.578125 28.078125Q95.078125 27.9375 96.0625 27.828125Q98.09375 27.578125 99.046875 27.25Q99.046875 26.90625 99.046875 26.8125Q99.046875 25.796875 98.578125 25.375Q97.9375 24.8125 96.671875 24.8125Q95.5 24.8125 94.9375 25.21875Q94.375 25.625 94.109375 26.6875L92.46875 26.453125Q92.703125 25.40625 93.203125 24.765625Q93.71875 24.125 94.671875 23.78125Q95.640625 23.421875 96.921875 23.421875Q98.1875 23.421875 98.96875 23.71875Q99.75 24.015625 100.125 24.46875Q100.5 24.921875 100.640625 25.609375Q100.734375 26.03125 100.734375 27.140625L100.734375 29.375Q100.734375 31.703125 100.828125 32.328125Q100.9375 32.9375 101.265625 33.5L99.515625 33.5Q99.25 32.984375 99.1875 32.28125ZM99.046875 28.5625Q98.140625 28.921875 96.3125 29.1875Q95.28125 29.328125 94.859375 29.515625Q94.4375 29.703125 94.203125 30.0625Q93.96875 30.421875 93.96875 30.859375Q93.96875 31.53125 94.46875 31.984375Q94.984375 32.421875 95.953125 32.421875Q96.921875 32.421875 97.671875 32.0Q98.421875 31.5625 98.78125 30.84375Q99.046875 30.265625 99.046875 29.171875L99.046875 28.5625ZM107.296875 29.90625L108.96875 29.6875Q109.25 31.109375 109.9375 31.734375Q110.640625 32.359375 111.625 32.359375Q112.8125 32.359375 113.625 31.546875Q114.4375 30.71875 114.4375 29.515625Q114.4375 28.375 113.671875 27.625Q112.921875 26.875 111.765625 26.875Q111.296875 26.875 110.59375 27.0625L110.78125 25.59375Q110.9375 25.609375 111.046875 25.609375Q112.109375 25.609375 112.953125 25.0625Q113.8125 24.5 113.8125 23.34375Q113.8125 22.421875 113.1875 21.828125Q112.578125 21.21875 111.59375 21.21875Q110.625 21.21875 109.96875 21.828125Q109.328125 22.4375 109.140625 23.671875L107.46875 23.375Q107.765625 21.6875 108.84375 20.765625Q109.9375 19.84375 111.5625 19.84375Q112.671875 19.84375 113.609375 20.328125Q114.546875 20.796875 115.03125 21.625Q115.53125 22.453125 115.53125 23.375Q115.53125 24.265625 115.0625 24.984375Q114.59375 25.703125 113.65625 26.140625Q114.875 26.40625 115.53125 27.296875Q116.203125 28.171875 116.203125 29.484375Q116.203125 31.265625 114.90625 32.5Q113.609375 33.734375 111.625 33.734375Q109.828125 33.734375 108.640625 32.671875Q107.46875 31.609375 107.296875 29.90625ZM119.21875 33.5L119.21875 31.59375L121.125 31.59375L121.125 33.5L119.21875 33.5ZM132.0625 31.890625L132.0625 33.5L123.078125 33.5Q123.0625 32.890625 123.265625 32.34375Q123.609375 31.421875 124.359375 30.53125Q125.125 29.640625 126.546875 28.46875Q128.76562 26.65625 129.54688 25.59375Q130.32812 24.53125 130.32812 23.578125Q130.32812 22.59375 129.60938 21.90625Q128.90625 21.21875 127.765625 21.21875Q126.5625 21.21875 125.828125 21.953125Q125.109375 22.671875 125.109375 23.953125L123.390625 23.78125Q123.5625 21.859375 124.71875 20.859375Q125.875 19.84375 127.8125 19.84375Q129.76562 19.84375 130.90625 20.9375Q132.04688 22.015625 132.04688 23.625Q132.04688 24.4375 131.70312 25.234375Q131.375 26.015625 130.59375 26.890625Q129.82812 27.75 128.03125 29.28125Q126.53125 30.546875 126.09375 31.0Q125.671875 31.4375 125.390625 31.890625L132.0625 31.890625ZM139.29688 29.90625L140.96875 29.6875Q141.25 31.109375 141.9375 31.734375Q142.64062 32.359375 143.625 32.359375Q144.8125 32.359375 145.625 31.546875Q146.4375 30.71875 146.4375 29.515625Q146.4375 28.375 145.67188 27.625Q144.92188 26.875 143.76562 26.875Q143.29688 26.875 142.59375 27.0625L142.78125 25.59375Q142.9375 25.609375 143.04688 25.609375Q144.10938 25.609375 144.95312 25.0625Q145.8125 24.5 145.8125 23.34375Q145.8125 22.421875 145.1875 21.828125Q144.57812 21.21875 143.59375 21.21875Q142.625 21.21875 141.96875 21.828125Q141.32812 22.4375 141.14062 23.671875L139.46875 23.375Q139.76562 21.6875 140.84375 20.765625Q141.9375 19.84375 143.5625 19.84375Q144.67188 19.84375 145.60938 20.328125Q146.54688 20.796875 147.03125 21.625Q147.53125 22.453125 147.53125 23.375Q147.53125 24.265625 147.0625 24.984375Q146.59375 25.703125 145.65625 26.140625Q146.875 26.40625 147.53125 27.296875Q148.20312 28.171875 148.20312 29.484375Q148.20312 31.265625 146.90625 32.5Q145.60938 33.734375 143.625 33.734375Q141.82812 33.734375 140.64062 32.671875Q139.46875 31.609375 139.29688 29.90625ZM150.89062 33.5L150.89062 19.90625L156.0 19.90625Q157.54688 19.90625 158.48438 20.3125Q159.4375 20.71875 159.96875 21.578125Q160.5 22.4375 160.5 23.375Q160.5 24.25 160.03125 25.03125Q159.5625 25.796875 158.59375 26.265625Q159.82812 26.625 160.48438 27.5Q161.15625 28.375 161.15625 29.5625Q161.15625 30.515625 160.75 31.34375Q160.35938 32.15625 159.76562 32.609375Q159.17188 33.046875 158.26562 33.28125Q157.375 33.5 156.07812 33.5L150.89062 33.5ZM152.6875 25.609375L155.625 25.609375Q156.82812 25.609375 157.34375 25.453125Q158.03125 25.25 158.375 24.78125Q158.73438 24.3125 158.73438 23.59375Q158.73438 22.921875 158.40625 22.40625Q158.07812 21.890625 157.46875 21.703125Q156.875 21.5 155.40625 21.5L152.6875 21.5L152.6875 25.609375ZM152.6875 31.890625L156.07812 31.890625Q156.95312 31.890625 157.29688 31.828125Q157.92188 31.71875 158.34375 31.46875Q158.76562 31.203125 159.03125 30.703125Q159.29688 30.203125 159.29688 29.5625Q159.29688 28.796875 158.90625 28.234375Q158.51562 27.671875 157.82812 27.453125Q157.14062 27.21875 155.84375 27.21875L152.6875 27.21875L152.6875 31.890625ZM172.42188 33.5L172.42188 21.5L167.95312 21.5L167.95312 19.90625L178.71875 19.90625L178.71875 21.5L174.21875 21.5L174.21875 33.5L172.42188 33.5ZM180.75 33.5L180.75 19.90625L182.42188 19.90625L182.42188 24.78125Q183.59375 23.421875 185.375 23.421875Q186.46875 23.421875 187.26562 23.859375Q188.07812 24.28125 188.42188 25.046875Q188.78125 25.8125 188.78125 27.25L188.78125 33.5L187.10938 33.5L187.10938 27.25Q187.10938 26.0 186.5625 25.4375Q186.01562 24.859375 185.03125 24.859375Q184.28125 24.859375 183.625 25.25Q182.98438 25.625 182.70312 26.296875Q182.42188 26.953125 182.42188 28.109375L182.42188 33.5L180.75 33.5ZM190.73438 33.5L190.73438 23.640625L192.23438 23.640625L192.23438 25.140625Q192.8125 24.09375 193.29688 23.765625Q193.78125 23.421875 194.375 23.421875Q195.21875 23.421875 196.09375 23.96875L195.51562 25.515625Q194.90625 25.15625 194.28125 25.15625Q193.73438 25.15625 193.29688 25.484375Q192.875 25.8125 192.6875 26.390625Q192.40625 27.28125 192.40625 28.34375L192.40625 33.5L190.73438 33.5ZM196.125 28.578125Q196.125 25.84375 197.65625 24.515625Q198.92188 23.421875 200.75 23.421875Q202.78125 23.421875 204.0625 24.765625Q205.35938 26.09375 205.35938 28.4375Q205.35938 30.34375 204.78125 31.4375Q204.21875 32.515625 203.125 33.125Q202.04688 33.71875 200.75 33.71875Q198.6875 33.71875 197.40625 32.390625Q196.125 31.0625 196.125 28.578125ZM197.84375 28.578125Q197.84375 30.46875 198.67188 31.40625Q199.5 32.34375 200.75 32.34375Q202.0 32.34375 202.8125 31.40625Q203.64062 30.453125 203.64062 28.515625Q203.64062 26.6875 202.8125 25.75Q201.98438 24.8125 200.75 24.8125Q199.5 24.8125 198.67188 25.75Q197.84375 26.6875 197.84375 28.578125ZM214.20312 33.5L214.20312 32.046875Q213.0625 33.71875 211.07812 33.71875Q210.21875 33.71875 209.45312 33.390625Q208.70312 33.046875 208.32812 32.546875Q207.96875 32.046875 207.8125 31.3125Q207.71875 30.8125 207.71875 29.75L207.71875 23.640625L209.39062 23.640625L209.39062 29.109375Q209.39062 30.421875 209.48438 30.875Q209.64062 31.53125 210.15625 31.90625Q210.67188 32.28125 211.42188 32.28125Q212.17188 32.28125 212.82812 31.90625Q213.48438 31.515625 213.75 30.859375Q214.03125 30.1875 214.03125 28.921875L214.03125 23.640625L215.70312 23.640625L215.70312 33.5L214.20312 33.5ZM217.45312 34.3125L219.0625 34.5625Q219.17188 35.3125 219.64062 35.65625Q220.25 36.109375 221.32812 36.109375Q222.5 36.109375 223.125 35.640625Q223.75 35.1875 223.98438 34.359375Q224.10938 33.84375 224.09375 32.203125Q223.0 33.5 221.375 33.5Q219.34375 33.5 218.21875 32.03125Q217.10938 30.5625 217.10938 28.515625Q217.10938 27.109375 217.625 25.921875Q218.14062 24.71875 219.10938 24.078125Q220.07812 23.421875 221.375 23.421875Q223.125 23.421875 224.25 24.828125L224.25 23.640625L225.79688 23.640625L225.79688 32.15625Q225.79688 34.46875 225.32812 35.421875Q224.85938 36.390625 223.84375 36.9375Q222.82812 37.5 221.34375 37.5Q219.57812 37.5 218.48438 36.703125Q217.40625 35.90625 217.45312 34.3125ZM218.82812 28.390625Q218.82812 30.34375 219.59375 31.234375Q220.375 32.125 221.53125 32.125Q222.67188 32.125 223.45312 31.234375Q224.23438 30.34375 224.23438 28.453125Q224.23438 26.640625 223.42188 25.734375Q222.625 24.8125 221.5 24.8125Q220.39062 24.8125 219.60938 25.71875Q218.82812 26.609375 218.82812 28.390625ZM228.75 33.5L228.75 19.90625L230.42188 19.90625L230.42188 24.78125Q231.59375 23.421875 233.375 23.421875Q234.46875 23.421875 235.26562 23.859375Q236.07812 24.28125 236.42188 25.046875Q236.78125 25.8125 236.78125 27.25L236.78125 33.5L235.10938 33.5L235.10938 27.25Q235.10938 26.0 234.5625 25.4375Q234.01562 24.859375 233.03125 24.859375Q232.28125 24.859375 231.625 25.25Q230.98438 25.625 230.70312 26.296875Q230.42188 26.953125 230.42188 28.109375L230.42188 33.5L228.75 33.5ZM238.75 37.28125L238.75 23.640625L240.28125 23.640625L240.28125 24.921875Q240.8125 24.171875 241.48438 23.796875Q242.17188 23.421875 243.125 23.421875Q244.39062 23.421875 245.35938 24.078125Q246.32812 24.71875 246.8125 25.90625Q247.3125 27.09375 247.3125 28.5Q247.3125 30.015625 246.76562 31.234375Q246.21875 32.4375 245.1875 33.078125Q244.15625 33.71875 243.01562 33.71875Q242.17188 33.71875 241.5 33.375Q240.84375 33.015625 240.42188 32.484375L240.42188 37.28125L238.75 37.28125ZM240.26562 28.625Q240.26562 30.53125 241.03125 31.4375Q241.8125 32.34375 242.90625 32.34375Q244.01562 32.34375 244.79688 31.40625Q245.59375 30.46875 245.59375 28.484375Q245.59375 26.609375 244.8125 25.671875Q244.04688 24.734375 242.96875 24.734375Q241.90625 24.734375 241.07812 25.734375Q240.26562 26.734375 240.26562 28.625ZM256.20312 33.5L256.20312 32.046875Q255.0625 33.71875 253.07812 33.71875Q252.21875 33.71875 251.45312 33.390625Q250.70312 33.046875 250.32812 32.546875Q249.96875 32.046875 249.8125 31.3125Q249.71875 30.8125 249.71875 29.75L249.71875 23.640625L251.39062 23.640625L251.39062 29.109375Q251.39062 30.421875 251.48438 30.875Q251.64062 31.53125 252.15625 31.90625Q252.67188 32.28125 253.42188 32.28125Q254.17188 32.28125 254.82812 31.90625Q255.48438 31.515625 255.75 30.859375Q256.03125 30.1875 256.03125 28.921875L256.03125 23.640625L257.70312 23.640625L257.70312 33.5L256.20312 33.5ZM263.40625 32.0L263.64062 33.484375Q262.9375 33.625 262.375 33.625Q261.46875 33.625 260.96875 33.34375Q260.46875 33.046875 260.26562 32.59375Q260.0625 32.125 260.0625 30.609375L260.0625 24.953125L258.82812 24.953125L258.82812 23.640625L260.0625 23.640625L260.0625 21.203125L261.71875 20.203125L261.71875 23.640625L263.40625 23.640625L263.40625 24.953125L261.71875 24.953125L261.71875 30.703125Q261.71875 31.421875 261.79688 31.625Q261.89062 31.828125 262.09375 31.953125Q262.29688 32.078125 262.67188 32.078125Q262.9375 32.078125 263.40625 32.0ZM269.89062 33.5L269.89062 19.90625L275.0 19.90625Q276.54688 19.90625 277.48438 20.3125Q278.4375 20.71875 278.96875 21.578125Q279.5 22.4375 279.5 23.375Q279.5 24.25 279.03125 25.03125Q278.5625 25.796875 277.59375 26.265625Q278.82812 26.625 279.48438 27.5Q280.15625 28.375 280.15625 29.5625Q280.15625 30.515625 279.75 31.34375Q279.35938 32.15625 278.76562 32.609375Q278.17188 33.046875 277.26562 33.28125Q276.375 33.5 275.07812 33.5L269.89062 33.5ZM271.6875 25.609375L274.625 25.609375Q275.82812 25.609375 276.34375 25.453125Q277.03125 25.25 277.375 24.78125Q277.73438 24.3125 277.73438 23.59375Q277.73438 22.921875 277.40625 22.40625Q277.07812 21.890625 276.46875 21.703125Q275.875 21.5 274.40625 21.5L271.6875 21.5L271.6875 25.609375ZM271.6875 31.890625L275.07812 31.890625Q275.95312 31.890625 276.29688 31.828125Q276.92188 31.71875 277.34375 31.46875Q277.76562 31.203125 278.03125 30.703125Q278.29688 30.203125 278.29688 29.5625Q278.29688 28.796875 277.90625 28.234375Q277.51562 27.671875 276.82812 27.453125Q276.14062 27.21875 274.84375 27.21875L271.6875 27.21875L271.6875 31.890625ZM289.5 30.328125L291.21875 30.546875Q290.8125 32.046875 289.70312 32.890625Q288.60938 33.71875 286.89062 33.71875Q284.73438 33.71875 283.46875 32.390625Q282.20312 31.0625 282.20312 28.65625Q282.20312 26.171875 283.46875 24.796875Q284.75 23.421875 286.79688 23.421875Q288.78125 23.421875 290.03125 24.765625Q291.28125 26.109375 291.28125 28.5625Q291.28125 28.703125 291.26562 29.0L283.92188 29.0Q284.01562 30.625 284.84375 31.484375Q285.67188 32.34375 286.90625 32.34375Q287.8125 32.34375 288.45312 31.875Q289.10938 31.390625 289.5 30.328125ZM284.01562 27.625L289.51562 27.625Q289.40625 26.390625 288.89062 25.765625Q288.09375 24.796875 286.8125 24.796875Q285.67188 24.796875 284.875 25.578125Q284.09375 26.34375 284.01562 27.625ZM293.75 33.5L293.75 23.640625L295.25 23.640625L295.25 25.046875Q296.34375 23.421875 298.39062 23.421875Q299.28125 23.421875 300.03125 23.75Q300.78125 24.0625 301.14062 24.59375Q301.51562 25.109375 301.67188 25.8125Q301.76562 26.28125 301.76562 27.4375L301.76562 33.5L300.09375 33.5L300.09375 27.5Q300.09375 26.484375 299.89062 25.984375Q299.70312 25.46875 299.20312 25.171875Q298.70312 24.875 298.03125 24.875Q296.96875 24.875 296.1875 25.546875Q295.42188 26.21875 295.42188 28.125L295.42188 33.5L293.75 33.5ZM310.1875 29.890625L311.82812 30.109375Q311.5625 31.796875 310.45312 32.765625Q309.34375 33.71875 307.71875 33.71875Q305.70312 33.71875 304.46875 32.40625Q303.25 31.078125 303.25 28.609375Q303.25 27.015625 303.76562 25.828125Q304.29688 24.625 305.375 24.03125Q306.46875 23.421875 307.73438 23.421875Q309.34375 23.421875 310.35938 24.234375Q311.375 25.046875 311.67188 26.546875L310.04688 26.796875Q309.8125 25.796875 309.21875 25.296875Q308.625 24.796875 307.79688 24.796875Q306.53125 24.796875 305.73438 25.703125Q304.95312 26.609375 304.95312 28.5625Q304.95312 30.546875 305.71875 31.453125Q306.48438 32.34375 307.70312 32.34375Q308.6875 32.34375 309.34375 31.75Q310.0 31.140625 310.1875 29.890625ZM313.75 33.5L313.75 19.90625L315.42188 19.90625L315.42188 24.78125Q316.59375 23.421875 318.375 23.421875Q319.46875 23.421875 320.26562 23.859375Q321.07812 24.28125 321.42188 25.046875Q321.78125 25.8125 321.78125 27.25L321.78125 33.5L320.10938 33.5L320.10938 27.25Q320.10938 26.0 319.5625 25.4375Q319.01562 24.859375 318.03125 24.859375Q317.28125 24.859375 316.625 25.25Q315.98438 25.625 315.70312 26.296875Q315.42188 26.953125 315.42188 28.109375L315.42188 33.5L313.75 33.5ZM323.75 33.5L323.75 23.640625L325.25 23.640625L325.25 25.03125Q325.70312 24.3125 326.46875 23.875Q327.25 23.421875 328.23438 23.421875Q329.32812 23.421875 330.03125 23.875Q330.73438 24.328125 331.01562 25.15625Q332.1875 23.421875 334.0625 23.421875Q335.53125 23.421875 336.3125 24.234375Q337.10938 25.046875 337.10938 26.734375L337.10938 33.5L335.4375 33.5L335.4375 27.296875Q335.4375 26.296875 335.28125 25.859375Q335.125 25.40625 334.6875 25.140625Q334.26562 24.875 333.6875 24.875Q332.65625 24.875 331.96875 25.5625Q331.28125 26.25 331.28125 27.78125L331.28125 33.5L329.60938 33.5L329.60938 27.09375Q329.60938 25.984375 329.20312 25.4375Q328.79688 24.875 327.85938 24.875Q327.15625 24.875 326.54688 25.25Q325.95312 25.609375 325.6875 26.328125Q325.42188 27.046875 325.42188 28.390625L325.42188 33.5L323.75 33.5ZM346.1875 32.28125Q345.25 33.078125 344.39062 33.40625Q343.53125 33.71875 342.54688 33.71875Q340.9375 33.71875 340.0625 32.9375Q339.1875 32.140625 339.1875 30.90625Q339.1875 30.171875 339.51562 29.578125Q339.84375 28.984375 340.375 28.625Q340.90625 28.265625 341.57812 28.078125Q342.07812 27.9375 343.0625 27.828125Q345.09375 27.578125 346.04688 27.25Q346.04688 26.90625 346.04688 26.8125Q346.04688 25.796875 345.57812 25.375Q344.9375 24.8125 343.67188 24.8125Q342.5 24.8125 341.9375 25.21875Q341.375 25.625 341.10938 26.6875L339.46875 26.453125Q339.70312 25.40625 340.20312 24.765625Q340.71875 24.125 341.67188 23.78125Q342.64062 23.421875 343.92188 23.421875Q345.1875 23.421875 345.96875 23.71875Q346.75 24.015625 347.125 24.46875Q347.5 24.921875 347.64062 25.609375Q347.73438 26.03125 347.73438 27.140625L347.73438 29.375Q347.73438 31.703125 347.82812 32.328125Q347.9375 32.9375 348.26562 33.5L346.51562 33.5Q346.25 32.984375 346.1875 32.28125ZM346.04688 28.5625Q345.14062 28.921875 343.3125 29.1875Q342.28125 29.328125 341.85938 29.515625Q341.4375 29.703125 341.20312 30.0625Q340.96875 30.421875 340.96875 30.859375Q340.96875 31.53125 341.46875 31.984375Q341.98438 32.421875 342.95312 32.421875Q343.92188 32.421875 344.67188 32.0Q345.42188 31.5625 345.78125 30.84375Q346.04688 30.265625 346.04688 29.171875L346.04688 28.5625ZM349.73438 33.5L349.73438 23.640625L351.23438 23.640625L351.23438 25.140625Q351.8125 24.09375 352.29688 23.765625Q352.78125 23.421875 353.375 23.421875Q354.21875 23.421875 355.09375 23.96875L354.51562 25.515625Q353.90625 25.15625 353.28125 25.15625Q352.73438 25.15625 352.29688 25.484375Q351.875 25.8125 351.6875 26.390625Q351.40625 27.28125 351.40625 28.34375L351.40625 33.5L349.73438 33.5ZM355.76562 33.5L355.76562 19.90625L357.4375 19.90625L357.4375 27.65625L361.39062 23.640625L363.54688 23.640625L359.78125 27.296875L363.92188 33.5L361.85938 33.5L358.60938 28.46875L357.4375 29.59375L357.4375 33.5L355.76562 33.5ZM369.125 28.578125Q369.125 25.84375 370.65625 24.515625Q371.92188 23.421875 373.75 23.421875Q375.78125 23.421875 377.0625 24.765625Q378.35938 26.09375 378.35938 28.4375Q378.35938 30.34375 377.78125 31.4375Q377.21875 32.515625 376.125 33.125Q375.04688 33.71875 373.75 33.71875Q371.6875 33.71875 370.40625 32.390625Q369.125 31.0625 369.125 28.578125ZM370.84375 28.578125Q370.84375 30.46875 371.67188 31.40625Q372.5 32.34375 373.75 32.34375Q375.0 32.34375 375.8125 31.40625Q376.64062 30.453125 376.64062 28.515625Q376.64062 26.6875 375.8125 25.75Q374.98438 24.8125 373.75 24.8125Q372.5 24.8125 371.67188 25.75Q370.84375 26.6875 370.84375 28.578125ZM380.75 33.5L380.75 23.640625L382.25 23.640625L382.25 25.046875Q383.34375 23.421875 385.39062 23.421875Q386.28125 23.421875 387.03125 23.75Q387.78125 24.0625 388.14062 24.59375Q388.51562 25.109375 388.67188 25.8125Q388.76562 26.28125 388.76562 27.4375L388.76562 33.5L387.09375 33.5L387.09375 27.5Q387.09375 26.484375 386.89062 25.984375Q386.70312 25.46875 386.20312 25.171875Q385.70312 24.875 385.03125 24.875Q383.96875 24.875 383.1875 25.546875Q382.42188 26.21875 382.42188 28.125L382.42188 33.5L380.75 33.5ZM396.01562 33.5L396.01562 19.90625L397.82812 19.90625L397.82812 25.484375L404.89062 25.484375L404.89062 19.90625L406.6875 19.90625L406.6875 33.5L404.89062 33.5L404.89062 27.09375L397.82812 27.09375L397.82812 33.5L396.01562 33.5ZM414.57812 33.5L412.90625 33.5L412.90625 22.859375Q412.3125 23.4375 411.32812 24.015625Q410.34375 24.578125 409.5625 24.875L409.5625 23.25Q410.96875 22.59375 412.01562 21.65625Q413.0625 20.71875 413.5 19.84375L414.57812 19.84375L414.57812 33.5ZM419.28125 26.796875Q419.28125 24.375 419.78125 22.90625Q420.28125 21.4375 421.25 20.640625Q422.23438 19.84375 423.71875 19.84375Q424.8125 19.84375 425.64062 20.28125Q426.46875 20.71875 427.0 21.5625Q427.54688 22.390625 427.84375 23.578125Q428.15625 24.765625 428.15625 26.796875Q428.15625 29.1875 427.65625 30.65625Q427.17188 32.125 426.1875 32.9375Q425.21875 33.734375 423.71875 33.734375Q421.75 33.734375 420.64062 32.328125Q419.28125 30.625 419.28125 26.796875ZM421.0 26.796875Q421.0 30.140625 421.78125 31.25Q422.57812 32.359375 423.71875 32.359375Q424.875 32.359375 425.65625 31.25Q426.4375 30.125 426.4375 26.796875Q426.4375 23.4375 425.65625 22.328125Q424.875 21.21875 423.70312 21.21875Q422.54688 21.21875 421.875 22.203125Q421.0 23.4375 421.0 26.796875ZM430.28125 26.796875Q430.28125 24.375 430.78125 22.90625Q431.28125 21.4375 432.25 20.640625Q433.23438 19.84375 434.71875 19.84375Q435.8125 19.84375 436.64062 20.28125Q437.46875 20.71875 438.0 21.5625Q438.54688 22.390625 438.84375 23.578125Q439.15625 24.765625 439.15625 26.796875Q439.15625 29.1875 438.65625 30.65625Q438.17188 32.125 437.1875 32.9375Q436.21875 33.734375 434.71875 33.734375Q432.75 33.734375 431.64062 32.328125Q430.28125 30.625 430.28125 26.796875ZM432.0 26.796875Q432.0 30.140625 432.78125 31.25Q433.57812 32.359375 434.71875 32.359375Q435.875 32.359375 436.65625 31.25Q437.4375 30.125 437.4375 26.796875Q437.4375 23.4375 436.65625 22.328125Q435.875 21.21875 434.70312 21.21875Q433.54688 21.21875 432.875 22.203125Q432.0 23.4375 432.0 26.796875ZM449.9375 37.5Q448.5625 35.75 447.60938 33.421875Q446.65625 31.078125 446.65625 28.578125Q446.65625 26.359375 447.35938 24.34375Q448.20312 22.0 449.9375 19.671875L451.14062 19.671875Q450.01562 21.59375 449.65625 22.421875Q449.09375 23.703125 448.76562 25.09375Q448.35938 26.828125 448.35938 28.578125Q448.35938 33.046875 451.14062 37.5L449.9375 37.5ZM453.01562 33.5L453.01562 19.90625L454.82812 19.90625L454.82812 25.484375L461.89062 25.484375L461.89062 19.90625L463.6875 19.90625L463.6875 33.5L461.89062 33.5L461.89062 27.09375L454.82812 27.09375L454.82812 33.5L453.01562 33.5ZM465.76562 21.8125L465.76562 19.90625L467.4375 19.90625L467.4375 21.8125L465.76562 21.8125ZM465.76562 33.5L465.76562 23.640625L467.4375 23.640625L467.4375 33.5L465.76562 33.5ZM469.45312 34.3125L471.0625 34.5625Q471.17188 35.3125 471.64062 35.65625Q472.25 36.109375 473.32812 36.109375Q474.5 36.109375 475.125 35.640625Q475.75 35.1875 475.98438 34.359375Q476.10938 33.84375 476.09375 32.203125Q475.0 33.5 473.375 33.5Q471.34375 33.5 470.21875 32.03125Q469.10938 30.5625 469.10938 28.515625Q469.10938 27.109375 469.625 25.921875Q470.14062 24.71875 471.10938 24.078125Q472.07812 23.421875 473.375 23.421875Q475.125 23.421875 476.25 24.828125L476.25 23.640625L477.79688 23.640625L477.79688 32.15625Q477.79688 34.46875 477.32812 35.421875Q476.85938 36.390625 475.84375 36.9375Q474.82812 37.5 473.34375 37.5Q471.57812 37.5 470.48438 36.703125Q469.40625 35.90625 469.45312 34.3125ZM470.82812 28.390625Q470.82812 30.34375 471.59375 31.234375Q472.375 32.125 473.53125 32.125Q474.67188 32.125 475.45312 31.234375Q476.23438 30.34375 476.23438 28.453125Q476.23438 26.640625 475.42188 25.734375Q474.625 24.8125 473.5 24.8125Q472.39062 24.8125 471.60938 25.71875Q470.82812 26.609375 470.82812 28.390625ZM480.75 33.5L480.75 19.90625L482.42188 19.90625L482.42188 24.78125Q483.59375 23.421875 485.375 23.421875Q486.46875 23.421875 487.26562 23.859375Q488.07812 24.28125 488.42188 25.046875Q488.78125 25.8125 488.78125 27.25L488.78125 33.5L487.10938 33.5L487.10938 27.25Q487.10938 26.0 486.5625 25.4375Q486.01562 24.859375 485.03125 24.859375Q484.28125 24.859375 483.625 25.25Q482.98438 25.625 482.70312 26.296875Q482.42188 26.953125 482.42188 28.109375L482.42188 33.5L480.75 33.5ZM497.5 30.328125L499.21875 30.546875Q498.8125 32.046875 497.70312 32.890625Q496.60938 33.71875 494.89062 33.71875Q492.73438 33.71875 491.46875 32.390625Q490.20312 31.0625 490.20312 28.65625Q490.20312 26.171875 491.46875 24.796875Q492.75 23.421875 494.79688 23.421875Q496.78125 23.421875 498.03125 24.765625Q499.28125 26.109375 499.28125 28.5625Q499.28125 28.703125 499.26562 29.0L491.92188 29.0Q492.01562 30.625 492.84375 31.484375Q493.67188 32.34375 494.90625 32.34375Q495.8125 32.34375 496.45312 31.875Q497.10938 31.390625 497.5 30.328125ZM492.01562 27.625L497.51562 27.625Q497.40625 26.390625 496.89062 25.765625Q496.09375 24.796875 494.8125 24.796875Q493.67188 24.796875 492.875 25.578125Q492.09375 26.34375 492.01562 27.625ZM501.73438 33.5L501.73438 23.640625L503.23438 23.640625L503.23438 25.140625Q503.8125 24.09375 504.29688 23.765625Q504.78125 23.421875 505.375 23.421875Q506.21875 23.421875 507.09375 23.96875L506.51562 25.515625Q505.90625 25.15625 505.28125 25.15625Q504.73438 25.15625 504.29688 25.484375Q503.875 25.8125 503.6875 26.390625Q503.40625 27.28125 503.40625 28.34375L503.40625 33.5L501.73438 33.5ZM512.7656 21.8125L512.7656 19.90625L514.4375 19.90625L514.4375 21.8125L512.7656 21.8125ZM512.7656 33.5L512.7656 23.640625L514.4375 23.640625L514.4375 33.5L512.7656 33.5ZM516.0781 30.5625L517.7344 30.296875Q517.875 31.296875 518.5 31.828125Q519.1406 32.34375 520.28125 32.34375Q521.4375 32.34375 521.9844 31.875Q522.5469 31.40625 522.5469 30.78125Q522.5469 30.21875 522.0625 29.890625Q521.71875 29.671875 520.3594 29.328125Q518.5156 28.859375 517.7969 28.53125Q517.09375 28.1875 516.71875 27.59375Q516.3594 26.984375 516.3594 26.265625Q516.3594 25.609375 516.65625 25.046875Q516.96875 24.484375 517.4844 24.109375Q517.875 23.828125 518.5469 23.625Q519.21875 23.421875 519.9844 23.421875Q521.15625 23.421875 522.03125 23.765625Q522.90625 24.09375 523.3125 24.671875Q523.7344 25.234375 523.8906 26.1875L522.2656 26.40625Q522.15625 25.65625 521.6094 25.234375Q521.0781 24.796875 520.1094 24.796875Q518.9531 24.796875 518.46875 25.1875Q517.9844 25.5625 517.9844 26.0625Q517.9844 26.390625 518.1875 26.65625Q518.3906 26.921875 518.8281 27.09375Q519.0781 27.1875 520.2969 27.53125Q522.0625 28.0 522.7656 28.296875Q523.46875 28.59375 523.8594 29.171875Q524.2656 29.75 524.2656 30.609375Q524.2656 31.4375 523.78125 32.1875Q523.2969 32.921875 522.375 33.328125Q521.4531 33.71875 520.2969 33.71875Q518.375 33.71875 517.3594 32.921875Q516.3594 32.125 516.0781 30.5625ZM531.8906 33.5L531.8906 19.90625L537.0 19.90625Q538.5469 19.90625 539.4844 20.3125Q540.4375 20.71875 540.96875 21.578125Q541.5 22.4375 541.5 23.375Q541.5 24.25 541.03125 25.03125Q540.5625 25.796875 539.59375 26.265625Q540.8281 26.625 541.4844 27.5Q542.15625 28.375 542.15625 29.5625Q542.15625 30.515625 541.75 31.34375Q541.3594 32.15625 540.7656 32.609375Q540.1719 33.046875 539.2656 33.28125Q538.375 33.5 537.0781 33.5L531.8906 33.5ZM533.6875 25.609375L536.625 25.609375Q537.8281 25.609375 538.34375 25.453125Q539.03125 25.25 539.375 24.78125Q539.7344 24.3125 539.7344 23.59375Q539.7344 22.921875 539.40625 22.40625Q539.0781 21.890625 538.46875 21.703125Q537.875 21.5 536.40625 21.5L533.6875 21.5L533.6875 25.609375ZM533.6875 31.890625L537.0781 31.890625Q537.9531 31.890625 538.2969 31.828125Q538.9219 31.71875 539.34375 31.46875Q539.7656 31.203125 540.03125 30.703125Q540.2969 30.203125 540.2969 29.5625Q540.2969 28.796875 539.90625 28.234375Q539.5156 27.671875 538.8281 27.453125Q538.1406 27.21875 536.84375 27.21875L533.6875 27.21875L533.6875 31.890625ZM551.5 30.328125L553.21875 30.546875Q552.8125 32.046875 551.7031 32.890625Q550.6094 33.71875 548.8906 33.71875Q546.7344 33.71875 545.46875 32.390625Q544.2031 31.0625 544.2031 28.65625Q544.2031 26.171875 545.46875 24.796875Q546.75 23.421875 548.7969 23.421875Q550.78125 23.421875 552.03125 24.765625Q553.28125 26.109375 553.28125 28.5625Q553.28125 28.703125 553.2656 29.0L545.9219 29.0Q546.0156 30.625 546.84375 31.484375Q547.6719 32.34375 548.90625 32.34375Q549.8125 32.34375 550.4531 31.875Q551.1094 31.390625 551.5 30.328125ZM546.0156 27.625L551.5156 27.625Q551.40625 26.390625 550.8906 25.765625Q550.09375 24.796875 548.8125 24.796875Q547.6719 24.796875 546.875 25.578125Q546.09375 26.34375 546.0156 27.625ZM559.40625 32.0L559.6406 33.484375Q558.9375 33.625 558.375 33.625Q557.46875 33.625 556.96875 33.34375Q556.46875 33.046875 556.2656 32.59375Q556.0625 32.125 556.0625 30.609375L556.0625 24.953125L554.8281 24.953125L554.8281 23.640625L556.0625 23.640625L556.0625 21.203125L557.71875 20.203125L557.71875 23.640625L559.40625 23.640625L559.40625 24.953125L557.71875 24.953125L557.71875 30.703125Q557.71875 31.421875 557.7969 31.625Q557.8906 31.828125 558.09375 31.953125Q558.2969 32.078125 558.6719 32.078125Q558.9375 32.078125 559.40625 32.0ZM564.40625 32.0L564.6406 33.484375Q563.9375 33.625 563.375 33.625Q562.46875 33.625 561.96875 33.34375Q561.46875 33.046875 561.2656 32.59375Q561.0625 32.125 561.0625 30.609375L561.0625 24.953125L559.8281 24.953125L559.8281 23.640625L561.0625 23.640625L561.0625 21.203125L562.71875 20.203125L562.71875 23.640625L564.40625 23.640625L564.40625 24.953125L562.71875 24.953125L562.71875 30.703125Q562.71875 31.421875 562.7969 31.625Q562.8906 31.828125 563.09375 31.953125Q563.2969 32.078125 563.6719 32.078125Q563.9375 32.078125 564.40625 32.0ZM572.5 30.328125L574.21875 30.546875Q573.8125 32.046875 572.7031 32.890625Q571.6094 33.71875 569.8906 33.71875Q567.7344 33.71875 566.46875 32.390625Q565.2031 31.0625 565.2031 28.65625Q565.2031 26.171875 566.46875 24.796875Q567.75 23.421875 569.7969 23.421875Q571.78125 23.421875 573.03125 24.765625Q574.28125 26.109375 574.28125 28.5625Q574.28125 28.703125 574.2656 29.0L566.9219 29.0Q567.0156 30.625 567.84375 31.484375Q568.6719 32.34375 569.90625 32.34375Q570.8125 32.34375 571.4531 31.875Q572.1094 31.390625 572.5 30.328125ZM567.0156 27.625L572.5156 27.625Q572.40625 26.390625 571.8906 25.765625Q571.09375 24.796875 569.8125 24.796875Q568.6719 24.796875 567.875 25.578125Q567.09375 26.34375 567.0156 27.625ZM576.7344 33.5L576.7344 23.640625L578.2344 23.640625L578.2344 25.140625Q578.8125 24.09375 579.2969 23.765625Q579.78125 23.421875 580.375 23.421875Q581.21875 23.421875 582.09375 23.96875L581.5156 25.515625Q580.90625 25.15625 580.28125 25.15625Q579.7344 25.15625 579.2969 25.484375Q578.875 25.8125 578.6875 26.390625Q578.40625 27.28125 578.40625 28.34375L578.40625 33.5L576.7344 33.5ZM583.84375 37.5L582.65625 37.5Q585.4219 33.046875 585.4219 28.578125Q585.4219 26.84375 585.03125 25.125Q584.7031 23.734375 584.1406 22.453125Q583.78125 21.609375 582.65625 19.671875L583.84375 19.671875Q585.59375 22.0 586.4219 24.34375Q587.1406 26.359375 587.1406 28.578125Q587.1406 31.078125 586.1719 33.421875Q585.21875 35.75 583.84375 37.5Z" fill-rule="nonzero"/></svg>