<svg version="1.1" viewBox="0.0 0.0 720.0 310.0" fill="none" stroke="none" stroke-linecap="square" stroke-miterlimit="10" width="720" height="310" xmlns:xlink="http://www.w3.org/1999/xlink" xmlns="http://www.w3.org/2000/svg"><path fill="#ffffff" d="M0 0L720.0 0L720.0 310.0L0 310.0L0 0Z" fill-rule="nonzero"/><path stroke="#333333" stroke-width="1.0" stroke-linecap="butt" d="M111.5 267.5L704.5 267.5" fill-rule="nonzero"/><path stroke="#cccccc" stroke-width="1.0" stroke-linecap="butt" d="M111.5 222.5L704.5 222.5" fill-rule="nonzero"/><path stroke="#cccccc" stroke-width="1.0" stroke-linecap="butt" d="M111.5 177.5L704.5 177.5" fill-rule="nonzero"/><path stroke="#cccccc" stroke-width="1.0" stroke-linecap="butt" d="M111.5 131.5L704.5 131.5" fill-rule="nonzero"/><path stroke="#cccccc" stroke-width="1.0" stroke-linecap="butt" d="M111.5 86.5L704.5 86.5" fill-rule="nonzero"/><clipPath id="id_0"><path d="M111.5 86.666664L704.5 86.666664L704.5 267.5L111.5 267.5L111.5 86.666664Z" clip-rule="nonzero"/></clipPath><path stroke="#000000" stroke-width="2.0" stroke-linecap="butt" stroke-opacity="0.0" clip-path="url(#id_0)" d="M360.0 268.0L267.0 268.0L267.0 195.0C267.0 193.89543 267.89542 193.0 269.0 193.0L358.0 193.0C359.10458 193.0 360.0 193.89543 360.0 195.0Z" fill-rule="nonzero"/><path fill="#4285f4" clip-path="url(#id_0)" d="M360.0 268.0L267.0 268.0L267.0 195.0C267.0 193.89543 267.89542 193.0 269.0 193.0L358.0 193.0C359.10458 193.0 360.0 193.89543 360.0 195.0Z" fill-rule="nonzero"/><path stroke="#000000" stroke-width="2.0" stroke-linecap="butt" stroke-opacity="0.0" clip-path="url(#id_0)" d="M455.0 268.0L362.0 268.0L362.0 195.0C362.0 193.89543 362.89542 193.0 364.0 193.0L453.0 193.0C454.10458 193.0 455.0 193.89543 455.0 195.0Z" fill-rule="nonzero"/><path fill="#ea4335" clip-path="url(#id_0)" d="M455.0 268.0L362.0 268.0L362.0 195.0C362.0 193.89543 362.89542 193.0 364.0 193.0L453.0 193.0C454.10458 193.0 455.0 193.89543 455.0 195.0Z" fill-rule="nonzero"/><path stroke="#000000" stroke-width="2.0" stroke-linecap="butt" stroke-opacity="0.0" clip-path="url(#id_0)" d="M550.0 268.0L457.0 268.0L457.0 121.0C457.0 119.89543 457.89542 119.0 459.0 119.0L548.0 119.0C549.10455 119.0 550.0 119.89543 550.0 121.0Z" fill-rule="nonzero"/><path fill="#fbbc04" clip-path="url(#id_0)" d="M550.0 268.0L457.0 268.0L457.0 121.0C457.0 119.89543 457.89542 119.0 459.0 119.0L548.0 119.0C549.10455 119.0 550.0 119.89543 550.0 121.0Z" fill-rule="nonzero"/><path fill="#000000" d="M26.484375 228.4271L26.859375 226.91147Q28.734375 227.38022 29.71875 228.63022Q30.703125 229.8646 30.703125 231.64584Q30.703125 233.50522 29.953125 234.66147Q29.1875 235.81772 27.765625 236.4271Q26.328125 237.03647 24.6875 237.03647Q22.890625 237.03647 21.5625 236.34897Q20.234375 235.66147 19.546875 234.41147Q18.84375 233.14584 18.84375 231.63022Q18.84375 229.91147 19.71875 228.7396Q20.59375 227.56772 22.1875 227.09897L22.53125 228.59897Q21.28125 228.9896 20.71875 229.75522Q20.140625 230.50522 20.140625 231.66147Q20.140625 232.97397 20.78125 233.8646Q21.40625 234.75522 22.484375 235.1146Q23.546875 235.47397 24.671875 235.47397Q26.140625 235.47397 27.234375 235.0521Q28.3125 234.6146 28.859375 233.72397Q29.390625 232.81772 29.390625 231.77084Q29.390625 230.50522 28.65625 229.63022Q27.921875 228.7396 26.484375 228.4271ZM26.34375 225.3021Q24.046875 225.3021 22.9375 224.02084Q22.015625 222.94272 22.015625 221.41147Q22.015625 219.69272 23.140625 218.6146Q24.25 217.52084 26.234375 217.52084Q27.828125 217.52084 28.75 218.00522Q29.671875 218.4896 30.1875 219.41147Q30.6875 220.31772 30.6875 221.41147Q30.6875 223.14584 29.578125 224.22397Q28.453125 225.3021 26.34375 225.3021ZM26.34375 223.84897Q27.9375 223.84897 28.734375 223.16147Q29.53125 222.45834 29.53125 221.41147Q29.53125 220.3646 28.734375 219.6771Q27.9375 218.97397 26.296875 218.97397Q24.765625 218.97397 23.96875 219.6771Q23.171875 220.3646 23.171875 221.41147Q23.171875 222.45834 23.96875 223.16147Q24.75 223.84897 26.34375 223.84897ZM30.5 215.77084L22.203125 215.77084L22.203125 214.50522L23.375 214.50522Q22.015625 213.59897 22.015625 211.8646Q22.015625 211.1146 22.28125 210.4896Q22.546875 209.8646 22.984375 209.5521Q23.421875 209.2396 24.03125 209.1146Q24.421875 209.03647 25.390625 209.03647L30.5 209.03647L30.5 210.44272L25.453125 210.44272Q24.59375 210.44272 24.171875 210.6146Q23.734375 210.77084 23.484375 211.19272Q23.234375 211.59897 23.234375 212.16147Q23.234375 213.06772 23.8125 213.72397Q24.375 214.3646 25.96875 214.3646L30.5 214.3646L30.5 215.77084ZM29.234375 204.70834L30.484375 204.50522Q30.609375 205.09897 30.609375 205.56772Q30.609375 206.33334 30.375 206.75522Q30.125 207.1771 29.734375 207.34897Q29.328125 207.52084 28.0625 207.52084L23.296875 207.52084L23.296875 208.5521L22.203125 208.5521L22.203125 207.52084L20.140625 207.52084L19.296875 206.1146L22.203125 206.1146L22.203125 204.70834L23.296875 204.70834L23.296875 206.1146L28.140625 206.1146Q28.75 206.1146 28.921875 206.0521Q29.09375 205.97397 29.203125 205.8021Q29.296875 205.63022 29.296875 205.31772Q29.296875 205.08334 29.234375 204.70834ZM27.828125 198.09897L28.0 196.64584Q29.28125 196.9896 29.984375 197.9271Q30.6875 198.84897 30.6875 200.28647Q30.6875 202.1146 29.5625 203.1771Q28.4375 204.2396 26.421875 204.2396Q24.328125 204.2396 23.171875 203.16147Q22.015625 202.08334 22.015625 200.3646Q22.015625 198.70834 23.15625 197.66147Q24.28125 196.59897 26.328125 196.59897Q26.453125 196.59897 26.703125 196.59897L26.703125 202.78647Q28.078125 202.70834 28.8125 202.02084Q29.53125 201.31772 29.53125 200.28647Q29.53125 199.50522 29.125 198.95834Q28.71875 198.41147 27.828125 198.09897ZM25.546875 202.70834L25.546875 198.08334Q24.5 198.1771 23.984375 198.6146Q23.171875 199.28647 23.171875 200.34897Q23.171875 201.31772 23.828125 201.9896Q24.46875 202.64584 25.546875 202.70834ZM30.5 195.70834L26.1875 192.6771L22.203125 195.4896L22.203125 193.72397L24.140625 192.45834Q24.703125 192.09897 25.078125 191.88022Q24.5625 191.53647 24.15625 191.2396L22.203125 189.84897L22.203125 188.16147L26.109375 191.03647L30.5 187.94272L30.5 189.6771L27.921875 191.38022L27.21875 191.83334L30.5 194.00522L30.5 195.70834ZM29.234375 184.70834L30.484375 184.50522Q30.609375 185.09897 30.609375 185.56772Q30.609375 186.33334 30.375 186.75522Q30.125 187.1771 29.734375 187.34897Q29.328125 187.52084 28.0625 187.52084L23.296875 187.52084L23.296875 188.5521L22.203125 188.5521L22.203125 187.52084L20.140625 187.52084L19.296875 186.1146L22.203125 186.1146L22.203125 184.70834L23.296875 184.70834L23.296875 186.1146L28.140625 186.1146Q28.75 186.1146 28.921875 186.0521Q29.09375 185.97397 29.203125 185.8021Q29.296875 185.63022 29.296875 185.31772Q29.296875 185.08334 29.234375 184.70834ZM30.5 179.66147L19.046875 179.66147L19.046875 178.14584L29.140625 178.14584L29.140625 172.50522L30.5 172.50522L30.5 179.66147ZM27.828125 165.09897L28.0 163.64584Q29.28125 163.9896 29.984375 164.9271Q30.6875 165.84897 30.6875 167.28647Q30.6875 169.1146 29.5625 170.1771Q28.4375 171.2396 26.421875 171.2396Q24.328125 171.2396 23.171875 170.16147Q22.015625 169.08334 22.015625 167.3646Q22.015625 165.70834 23.15625 164.66147Q24.28125 163.59897 26.328125 163.59897Q26.453125 163.59897 26.703125 163.59897L26.703125 169.78647Q28.078125 169.70834 28.8125 169.02084Q29.53125 168.31772 29.53125 167.28647Q29.53125 166.50522 29.125 165.95834Q28.71875 165.41147 27.828125 165.09897ZM25.546875 169.70834L25.546875 165.08334Q24.5 165.1771 23.984375 165.6146Q23.171875 166.28647 23.171875 167.34897Q23.171875 168.31772 23.828125 168.9896Q24.46875 169.64584 25.546875 169.70834ZM30.5 161.77084L22.203125 161.77084L22.203125 160.50522L23.375 160.50522Q22.015625 159.59897 22.015625 157.8646Q22.015625 157.1146 22.28125 156.4896Q22.546875 155.8646 22.984375 155.5521Q23.421875 155.2396 24.03125 155.1146Q24.421875 155.03647 25.390625 155.03647L30.5 155.03647L30.5 156.44272L25.453125 156.44272Q24.59375 156.44272 24.171875 156.6146Q23.734375 156.77084 23.484375 157.19272Q23.234375 157.59897 23.234375 158.16147Q23.234375 159.06772 23.8125 159.72397Q24.375 160.3646 25.96875 160.3646L30.5 160.3646L30.5 161.77084ZM31.1875 154.03647L31.390625 152.66147Q32.03125 152.58334 32.3125 152.19272Q32.703125 151.66147 32.703125 150.75522Q32.703125 149.78647 32.3125 149.25522Q31.921875 148.72397 31.21875 148.53647Q30.796875 148.4271 29.40625 148.4271Q30.5 149.34897 30.5 150.72397Q30.5 152.44272 29.265625 153.38022Q28.03125 154.31772 26.296875 154.31772Q25.109375 154.31772 24.109375 153.89584Q23.109375 153.45834 22.5625 152.64584Q22.015625 151.81772 22.015625 150.72397Q22.015625 149.25522 23.203125 148.3021L22.203125 148.3021L22.203125 147.00522L29.375 147.00522Q31.3125 147.00522 32.125 147.39584Q32.9375 147.78647 33.40625 148.64584Q33.875 149.50522 33.875 150.75522Q33.875 152.2396 33.203125 153.16147Q32.53125 154.06772 31.1875 154.03647ZM26.203125 152.8646Q27.828125 152.8646 28.578125 152.22397Q29.328125 151.56772 29.328125 150.59897Q29.328125 149.63022 28.59375 148.97397Q27.84375 148.31772 26.25 148.31772Q24.71875 148.31772 23.953125 148.9896Q23.171875 149.66147 23.171875 150.6146Q23.171875 151.5521 23.9375 152.20834Q24.703125 152.8646 26.203125 152.8646ZM29.234375 141.70834L30.484375 141.50522Q30.609375 142.09897 30.609375 142.56772Q30.609375 143.33334 30.375 143.75522Q30.125 144.1771 29.734375 144.34897Q29.328125 144.52084 28.0625 144.52084L23.296875 144.52084L23.296875 145.5521L22.203125 145.5521L22.203125 144.52084L20.140625 144.52084L19.296875 143.1146L22.203125 143.1146L22.203125 141.70834L23.296875 141.70834L23.296875 143.1146L28.140625 143.1146Q28.75 143.1146 28.921875 143.0521Q29.09375 142.97397 29.203125 142.8021Q29.296875 142.63022 29.296875 142.31772Q29.296875 142.08334 29.234375 141.70834ZM30.5 140.77084L19.046875 140.77084L19.046875 139.3646L23.15625 139.3646Q22.015625 138.38022 22.015625 136.88022Q22.015625 135.95834 22.375 135.28647Q22.734375 134.59897 23.375 134.31772Q24.015625 134.02084 25.234375 134.02084L30.5 134.02084L30.5 135.4271L25.234375 135.4271Q24.1875 135.4271 23.703125 135.88022Q23.21875 136.33334 23.21875 137.1771Q23.21875 137.8021 23.546875 138.34897Q23.875 138.89584 24.4375 139.13022Q24.984375 139.3646 25.953125 139.3646L30.5 139.3646L30.5 140.77084Z" fill-rule="nonzero"/><path fill="#000000" d="M95.171875 267.34375Q95.171875 265.3125 95.578125 264.07812Q96.0 262.84375 96.828125 262.17188Q97.65625 261.5 98.90625 261.5Q99.828125 261.5 100.515625 261.875Q101.21875 262.23438 101.671875 262.9375Q102.125 263.64062 102.375 264.64062Q102.640625 265.64062 102.640625 267.34375Q102.640625 269.35938 102.21875 270.60938Q101.8125 271.84375 100.984375 272.53125Q100.15625 273.20312 98.90625 273.20312Q97.25 273.20312 96.296875 272.0Q95.171875 270.57812 95.171875 267.34375ZM96.609375 267.34375Q96.609375 270.17188 97.265625 271.10938Q97.9375 272.03125 98.90625 272.03125Q99.875 272.03125 100.53125 271.09375Q101.1875 270.15625 101.1875 267.34375Q101.1875 264.51562 100.53125 263.59375Q99.875 262.65625 98.890625 262.65625Q97.921875 262.65625 97.34375 263.48438Q96.609375 264.53125 96.609375 267.34375Z" fill-rule="nonzero"/><path fill="#000000" d="M75.5625 226.4323L75.5625 227.79167L67.984375 227.79167Q67.96875 227.27605 68.15625 226.8073Q68.4375 226.04167 69.078125 225.29167Q69.71875 224.54167 70.921875 223.5573Q72.78125 222.02605 73.4375 221.13542Q74.09375 220.22917 74.09375 219.4323Q74.09375 218.60417 73.5 218.02605Q72.90625 217.44792 71.9375 217.44792Q70.921875 217.44792 70.3125 218.0573Q69.703125 218.66667 69.703125 219.7448L68.25 219.60417Q68.40625 217.97917 69.375 217.13542Q70.34375 216.29167 71.96875 216.29167Q73.625 216.29167 74.578125 217.21355Q75.546875 218.1198 75.546875 219.46355Q75.546875 220.15105 75.265625 220.82292Q74.984375 221.47917 74.328125 222.21355Q73.671875 222.94792 72.15625 224.22917Q70.890625 225.29167 70.53125 225.6823Q70.171875 226.0573 69.9375 226.4323L75.5625 226.4323ZM77.171875 224.79167L78.640625 224.66667Q78.8125 225.7448 79.40625 226.29167Q80.0 226.82292 80.84375 226.82292Q81.859375 226.82292 82.5625 226.0573Q83.265625 225.29167 83.265625 224.02605Q83.265625 222.82292 82.59375 222.13542Q81.921875 221.4323 80.828125 221.4323Q80.140625 221.4323 79.59375 221.7448Q79.046875 222.0573 78.734375 222.54167L77.421875 222.3698L78.53125 216.4948L84.21875 216.4948L84.21875 217.83855L79.65625 217.83855L79.03125 220.91667Q80.0625 220.19792 81.203125 220.19792Q82.703125 220.19792 83.734375 221.2448Q84.765625 222.27605 84.765625 223.90105Q84.765625 225.46355 83.859375 226.58855Q82.75 227.9948 80.84375 227.9948Q79.28125 227.9948 78.296875 227.1198Q77.3125 226.22917 77.171875 224.79167ZM86.171875 222.13542Q86.171875 220.10417 86.578125 218.8698Q87.0 217.63542 87.828125 216.96355Q88.65625 216.29167 89.90625 216.29167Q90.828125 216.29167 91.515625 216.66667Q92.21875 217.02605 92.671875 217.72917Q93.125 218.4323 93.375 219.4323Q93.640625 220.4323 93.640625 222.13542Q93.640625 224.15105 93.21875 225.40105Q92.8125 226.63542 91.984375 227.32292Q91.15625 227.9948 89.90625 227.9948Q88.25 227.9948 87.296875 226.79167Q86.171875 225.3698 86.171875 222.13542ZM87.609375 222.13542Q87.609375 224.96355 88.265625 225.90105Q88.9375 226.82292 89.90625 226.82292Q90.875 226.82292 91.53125 225.88542Q92.1875 224.94792 92.1875 222.13542Q92.1875 219.3073 91.53125 218.38542Q90.875 217.44792 89.890625 217.44792Q88.921875 217.44792 88.34375 218.27605Q87.609375 219.32292 87.609375 222.13542ZM95.171875 222.13542Q95.171875 220.10417 95.578125 218.8698Q96.0 217.63542 96.828125 216.96355Q97.65625 216.29167 98.90625 216.29167Q99.828125 216.29167 100.515625 216.66667Q101.21875 217.02605 101.671875 217.72917Q102.125 218.4323 102.375 219.4323Q102.640625 220.4323 102.640625 222.13542Q102.640625 224.15105 102.21875 225.40105Q101.8125 226.63542 100.984375 227.32292Q100.15625 227.9948 98.90625 227.9948Q97.25 227.9948 96.296875 226.79167Q95.171875 225.3698 95.171875 222.13542ZM96.609375 222.13542Q96.609375 224.96355 97.265625 225.90105Q97.9375 226.82292 98.90625 226.82292Q99.875 226.82292 100.53125 225.88542Q101.1875 224.94792 101.1875 222.13542Q101.1875 219.3073 100.53125 218.38542Q99.875 217.44792 98.890625 217.44792Q97.921875 217.44792 97.34375 218.27605Q96.609375 219.32292 96.609375 222.13542Z" fill-rule="nonzero"/><path fill="#000000" d="M68.171875 179.58333L69.640625 179.45833Q69.8125 180.53645 70.40625 181.08333Q71.0 181.61458 71.84375 181.61458Q72.859375 181.61458 73.5625 180.84895Q74.265625 180.08333 74.265625 178.8177Q74.265625 177.61458 73.59375 176.92708Q72.921875 176.22395 71.828125 176.22395Q71.140625 176.22395 70.59375 176.53645Q70.046875 176.84895 69.734375 177.33333L68.421875 177.16145L69.53125 171.28645L75.21875 171.28645L75.21875 172.6302L70.65625 172.6302L70.03125 175.70833Q71.0625 174.98958 72.203125 174.98958Q73.703125 174.98958 74.734375 176.03645Q75.765625 177.0677 75.765625 178.6927Q75.765625 180.2552 74.859375 181.3802Q73.75 182.78645 71.84375 182.78645Q70.28125 182.78645 69.296875 181.91145Q68.3125 181.02083 68.171875 179.58333ZM77.171875 176.92708Q77.171875 174.89583 77.578125 173.66145Q78.0 172.42708 78.828125 171.7552Q79.65625 171.08333 80.90625 171.08333Q81.828125 171.08333 82.515625 171.45833Q83.21875 171.8177 83.671875 172.52083Q84.125 173.22395 84.375 174.22395Q84.640625 175.22395 84.640625 176.92708Q84.640625 178.9427 84.21875 180.1927Q83.8125 181.42708 82.984375 182.11458Q82.15625 182.78645 80.90625 182.78645Q79.25 182.78645 78.296875 181.58333Q77.171875 180.16145 77.171875 176.92708ZM78.609375 176.92708Q78.609375 179.7552 79.265625 180.6927Q79.9375 181.61458 80.90625 181.61458Q81.875 181.61458 82.53125 180.67708Q83.1875 179.73958 83.1875 176.92708Q83.1875 174.09895 82.53125 173.17708Q81.875 172.23958 80.890625 172.23958Q79.921875 172.23958 79.34375 173.0677Q78.609375 174.11458 78.609375 176.92708ZM86.171875 176.92708Q86.171875 174.89583 86.578125 173.66145Q87.0 172.42708 87.828125 171.7552Q88.65625 171.08333 89.90625 171.08333Q90.828125 171.08333 91.515625 171.45833Q92.21875 171.8177 92.671875 172.52083Q93.125 173.22395 93.375 174.22395Q93.640625 175.22395 93.640625 176.92708Q93.640625 178.9427 93.21875 180.1927Q92.8125 181.42708 91.984375 182.11458Q91.15625 182.78645 89.90625 182.78645Q88.25 182.78645 87.296875 181.58333Q86.171875 180.16145 86.171875 176.92708ZM87.609375 176.92708Q87.609375 179.7552 88.265625 180.6927Q88.9375 181.61458 89.90625 181.61458Q90.875 181.61458 91.53125 180.67708Q92.1875 179.73958 92.1875 176.92708Q92.1875 174.09895 91.53125 173.17708Q90.875 172.23958 89.890625 172.23958Q88.921875 172.23958 88.34375 173.0677Q87.609375 174.11458 87.609375 176.92708ZM95.171875 176.92708Q95.171875 174.89583 95.578125 173.66145Q96.0 172.42708 96.828125 171.7552Q97.65625 171.08333 98.90625 171.08333Q99.828125 171.08333 100.515625 171.45833Q101.21875 171.8177 101.671875 172.52083Q102.125 173.22395 102.375 174.22395Q102.640625 175.22395 102.640625 176.92708Q102.640625 178.9427 102.21875 180.1927Q101.8125 181.42708 100.984375 182.11458Q100.15625 182.78645 98.90625 182.78645Q97.25 182.78645 96.296875 181.58333Q95.171875 180.16145 95.171875 176.92708ZM96.609375 176.92708Q96.609375 179.7552 97.265625 180.6927Q97.9375 181.61458 98.90625 181.61458Q99.875 181.61458 100.53125 180.67708Q101.1875 179.73958 101.1875 176.92708Q101.1875 174.09895 100.53125 173.17708Q99.875 172.23958 98.890625 172.23958Q97.921875 172.23958 97.34375 173.0677Q96.609375 174.11458 96.609375 176.92708Z" fill-rule="nonzero"/><path fill="#000000" d="M68.265625 127.421875L68.265625 126.0625L75.671875 126.0625L75.671875 127.15625Q74.578125 128.32812 73.5 130.26562Q72.4375 132.1875 71.84375 134.21875Q71.421875 135.65625 71.3125 137.375L69.859375 137.375Q69.890625 136.01562 70.390625 134.10938Q70.90625 132.1875 71.84375 130.42188Q72.796875 128.64062 73.875 127.421875L68.265625 127.421875ZM77.171875 134.375L78.640625 134.25Q78.8125 135.32812 79.40625 135.875Q80.0 136.40625 80.84375 136.40625Q81.859375 136.40625 82.5625 135.64062Q83.265625 134.875 83.265625 133.60938Q83.265625 132.40625 82.59375 131.71875Q81.921875 131.01562 80.828125 131.01562Q80.140625 131.01562 79.59375 131.32812Q79.046875 131.64062 78.734375 132.125L77.421875 131.95312L78.53125 126.078125L84.21875 126.078125L84.21875 127.421875L79.65625 127.421875L79.03125 130.5Q80.0625 129.78125 81.203125 129.78125Q82.703125 129.78125 83.734375 130.82812Q84.765625 131.85938 84.765625 133.48438Q84.765625 135.04688 83.859375 136.17188Q82.75 137.57812 80.84375 137.57812Q79.28125 137.57812 78.296875 136.70312Q77.3125 135.8125 77.171875 134.375ZM86.171875 131.71875Q86.171875 129.6875 86.578125 128.45312Q87.0 127.21875 87.828125 126.546875Q88.65625 125.875 89.90625 125.875Q90.828125 125.875 91.515625 126.25Q92.21875 126.609375 92.671875 127.3125Q93.125 128.01562 93.375 129.01562Q93.640625 130.01562 93.640625 131.71875Q93.640625 133.73438 93.21875 134.98438Q92.8125 136.21875 91.984375 136.90625Q91.15625 137.57812 89.90625 137.57812Q88.25 137.57812 87.296875 136.375Q86.171875 134.95312 86.171875 131.71875ZM87.609375 131.71875Q87.609375 134.54688 88.265625 135.48438Q88.9375 136.40625 89.90625 136.40625Q90.875 136.40625 91.53125 135.46875Q92.1875 134.53125 92.1875 131.71875Q92.1875 128.89062 91.53125 127.96875Q90.875 127.03125 89.890625 127.03125Q88.921875 127.03125 88.34375 127.859375Q87.609375 128.90625 87.609375 131.71875ZM95.171875 131.71875Q95.171875 129.6875 95.578125 128.45312Q96.0 127.21875 96.828125 126.546875Q97.65625 125.875 98.90625 125.875Q99.828125 125.875 100.515625 126.25Q101.21875 126.609375 101.671875 127.3125Q102.125 128.01562 102.375 129.01562Q102.640625 130.01562 102.640625 131.71875Q102.640625 133.73438 102.21875 134.98438Q101.8125 136.21875 100.984375 136.90625Q100.15625 137.57812 98.90625 137.57812Q97.25 137.57812 96.296875 136.375Q95.171875 134.95312 95.171875 131.71875ZM96.609375 131.71875Q96.609375 134.54688 97.265625 135.48438Q97.9375 136.40625 98.90625 136.40625Q99.875 136.40625 100.53125 135.46875Q101.1875 134.53125 101.1875 131.71875Q101.1875 128.89062 100.53125 127.96875Q99.875 127.03125 98.890625 127.03125Q97.921875 127.03125 97.34375 127.859375Q96.609375 128.90625 96.609375 131.71875Z" fill-rule="nonzero"/><path fill="#000000" d="M64.46875 92.166664L63.0625 92.166664L63.0625 83.197914Q62.546875 83.68229 61.71875 84.166664Q60.90625 84.65104 60.25 84.90104L60.25 83.541664Q61.421875 82.979164 62.296875 82.197914Q63.1875 81.40104 63.5625 80.666664L64.46875 80.666664L64.46875 92.166664ZM68.171875 86.510414Q68.171875 84.479164 68.578125 83.24479Q69.0 82.010414 69.828125 81.33854Q70.65625 80.666664 71.90625 80.666664Q72.828125 80.666664 73.515625 81.041664Q74.21875 81.40104 74.671875 82.104164Q75.125 82.80729 75.375 83.80729Q75.640625 84.80729 75.640625 86.510414Q75.640625 88.52604 75.21875 89.77604Q74.8125 91.010414 73.984375 91.697914Q73.15625 92.36979 71.90625 92.36979Q70.25 92.36979 69.296875 91.166664Q68.171875 89.74479 68.171875 86.510414ZM69.609375 86.510414Q69.609375 89.33854 70.265625 90.27604Q70.9375 91.197914 71.90625 91.197914Q72.875 91.197914 73.53125 90.260414Q74.1875 89.322914 74.1875 86.510414Q74.1875 83.68229 73.53125 82.760414Q72.875 81.822914 71.890625 81.822914Q70.921875 81.822914 70.34375 82.65104Q69.609375 83.697914 69.609375 86.510414ZM77.171875 86.510414Q77.171875 84.479164 77.578125 83.24479Q78.0 82.010414 78.828125 81.33854Q79.65625 80.666664 80.90625 80.666664Q81.828125 80.666664 82.515625 81.041664Q83.21875 81.40104 83.671875 82.104164Q84.125 82.80729 84.375 83.80729Q84.640625 84.80729 84.640625 86.510414Q84.640625 88.52604 84.21875 89.77604Q83.8125 91.010414 82.984375 91.697914Q82.15625 92.36979 80.90625 92.36979Q79.25 92.36979 78.296875 91.166664Q77.171875 89.74479 77.171875 86.510414ZM78.609375 86.510414Q78.609375 89.33854 79.265625 90.27604Q79.9375 91.197914 80.90625 91.197914Q81.875 91.197914 82.53125 90.260414Q83.1875 89.322914 83.1875 86.510414Q83.1875 83.68229 82.53125 82.760414Q81.875 81.822914 80.890625 81.822914Q79.921875 81.822914 79.34375 82.65104Q78.609375 83.697914 78.609375 86.510414ZM86.171875 86.510414Q86.171875 84.479164 86.578125 83.24479Q87.0 82.010414 87.828125 81.33854Q88.65625 80.666664 89.90625 80.666664Q90.828125 80.666664 91.515625 81.041664Q92.21875 81.40104 92.671875 82.104164Q93.125 82.80729 93.375 83.80729Q93.640625 84.80729 93.640625 86.510414Q93.640625 88.52604 93.21875 89.77604Q92.8125 91.010414 91.984375 91.697914Q91.15625 92.36979 89.90625 92.36979Q88.25 92.36979 87.296875 91.166664Q86.171875 89.74479 86.171875 86.510414ZM87.609375 86.510414Q87.609375 89.33854 88.265625 90.27604Q88.9375 91.197914 89.90625 91.197914Q90.875 91.197914 91.53125 90.260414Q92.1875 89.322914 92.1875 86.510414Q92.1875 83.68229 91.53125 82.760414Q90.875 81.822914 89.890625 81.822914Q88.921875 81.822914 88.34375 82.65104Q87.609375 83.697914 87.609375 86.510414ZM95.171875 86.510414Q95.171875 84.479164 95.578125 83.24479Q96.0 82.010414 96.828125 81.33854Q97.65625 80.666664 98.90625 80.666664Q99.828125 80.666664 100.515625 81.041664Q101.21875 81.40104 101.671875 82.104164Q102.125 82.80729 102.375 83.80729Q102.640625 84.80729 102.640625 86.510414Q102.640625 88.52604 102.21875 89.77604Q101.8125 91.010414 100.984375 91.697914Q100.15625 92.36979 98.90625 92.36979Q97.25 92.36979 96.296875 91.166664Q95.171875 89.74479 95.171875 86.510414ZM96.609375 86.510414Q96.609375 89.33854 97.265625 90.27604Q97.9375 91.197914 98.90625 91.197914Q99.875 91.197914 100.53125 90.260414Q101.1875 89.322914 101.1875 86.510414Q101.1875 83.68229 100.53125 82.760414Q99.875 81.822914 98.890625 81.822914Q97.921875 81.822914 97.34375 82.65104Q96.609375 83.697914 96.609375 86.510414Z" fill-rule="nonzero"/><path fill="#000000" d="M379.59375 286.0L379.59375 284.65625L384.45312 284.65625L384.45312 288.90625Q383.32812 289.79688 382.14062 290.25Q380.95312 290.70312 379.70312 290.70312Q378.01562 290.70312 376.64062 289.98438Q375.26562 289.25 374.5625 287.89062Q373.85938 286.51562 373.85938 284.82812Q373.85938 283.15625 374.54688 281.70312Q375.25 280.25 376.5625 279.54688Q377.875 278.84375 379.59375 278.84375Q380.82812 278.84375 381.82812 279.25Q382.84375 279.65625 383.40625 280.375Q383.98438 281.09375 384.28125 282.25L382.90625 282.625Q382.65625 281.75 382.26562 281.25Q381.89062 280.75 381.17188 280.45312Q380.46875 280.14062 379.59375 280.14062Q378.5625 280.14062 377.79688 280.46875Q377.04688 280.78125 376.57812 281.29688Q376.10938 281.8125 375.85938 282.42188Q375.42188 283.48438 375.42188 284.73438Q375.42188 286.26562 375.9375 287.29688Q376.46875 288.32812 377.46875 288.82812Q378.48438 289.32812 379.625 289.32812Q380.60938 289.32812 381.54688 288.95312Q382.48438 288.5625 382.96875 288.14062L382.96875 286.0L379.59375 286.0ZM391.73438 287.82812L393.1875 288.0Q392.84375 289.28125 391.90625 289.98438Q390.98438 290.6875 389.54688 290.6875Q387.71875 290.6875 386.65625 289.5625Q385.59375 288.4375 385.59375 286.42188Q385.59375 284.32812 386.67188 283.17188Q387.75 282.01562 389.46875 282.01562Q391.125 282.01562 392.17188 283.15625Q393.23438 284.28125 393.23438 286.32812Q393.23438 286.45312 393.23438 286.70312L387.04688 286.70312Q387.125 288.07812 387.8125 288.8125Q388.51562 289.53125 389.54688 289.53125Q390.32812 289.53125 390.875 289.125Q391.42188 288.71875 391.73438 287.82812ZM387.125 285.54688L391.75 285.54688Q391.65625 284.5 391.21875 283.98438Q390.54688 283.17188 389.48438 283.17188Q388.51562 283.17188 387.84375 283.82812Q387.1875 284.46875 387.125 285.54688ZM395.0625 290.5L395.0625 282.20312L396.3125 282.20312L396.3125 283.35938Q396.70312 282.75 397.34375 282.39062Q398.0 282.01562 398.82812 282.01562Q399.75 282.01562 400.34375 282.40625Q400.9375 282.78125 401.17188 283.46875Q402.15625 282.01562 403.73438 282.01562Q404.96875 282.01562 405.625 282.70312Q406.29688 283.375 406.29688 284.79688L406.29688 290.5L404.90625 290.5L404.90625 285.26562Q404.90625 284.42188 404.76562 284.0625Q404.625 283.6875 404.26562 283.46875Q403.90625 283.23438 403.42188 283.23438Q402.54688 283.23438 401.96875 283.8125Q401.39062 284.39062 401.39062 285.67188L401.39062 290.5L399.98438 290.5L399.98438 285.10938Q399.98438 284.17188 399.64062 283.70312Q399.29688 283.23438 398.51562 283.23438Q397.92188 283.23438 397.42188 283.54688Q396.92188 283.85938 396.6875 284.46875Q396.46875 285.0625 396.46875 286.1875L396.46875 290.5L395.0625 290.5ZM408.0625 290.5L408.0625 282.20312L409.3125 282.20312L409.3125 283.35938Q409.70312 282.75 410.34375 282.39062Q411.0 282.01562 411.82812 282.01562Q412.75 282.01562 413.34375 282.40625Q413.9375 282.78125 414.17188 283.46875Q415.15625 282.01562 416.73438 282.01562Q417.96875 282.01562 418.625 282.70312Q419.29688 283.375 419.29688 284.79688L419.29688 290.5L417.90625 290.5L417.90625 285.26562Q417.90625 284.42188 417.76562 284.0625Q417.625 283.6875 417.26562 283.46875Q416.90625 283.23438 416.42188 283.23438Q415.54688 283.23438 414.96875 283.8125Q414.39062 284.39062 414.39062 285.67188L414.39062 290.5L412.98438 290.5L412.98438 285.10938Q412.98438 284.17188 412.64062 283.70312Q412.29688 283.23438 411.51562 283.23438Q410.92188 283.23438 410.42188 283.54688Q409.92188 283.85938 409.6875 284.46875Q409.46875 285.0625 409.46875 286.1875L409.46875 290.5L408.0625 290.5ZM426.46875 289.46875Q425.6875 290.14062 424.96875 290.42188Q424.25 290.6875 423.42188 290.6875Q422.04688 290.6875 421.3125 290.01562Q420.57812 289.34375 420.57812 288.3125Q420.57812 287.70312 420.85938 287.20312Q421.14062 286.6875 421.57812 286.39062Q422.03125 286.07812 422.59375 285.92188Q423.01562 285.8125 423.84375 285.71875Q425.54688 285.51562 426.35938 285.23438Q426.35938 284.9375 426.35938 284.85938Q426.35938 284.0 425.96875 283.65625Q425.42188 283.17188 424.35938 283.17188Q423.375 283.17188 422.89062 283.53125Q422.42188 283.875 422.20312 284.75L420.82812 284.5625Q421.01562 283.6875 421.4375 283.14062Q421.875 282.59375 422.6875 282.3125Q423.5 282.01562 424.5625 282.01562Q425.625 282.01562 426.28125 282.26562Q426.95312 282.51562 427.26562 282.89062Q427.57812 283.26562 427.70312 283.84375Q427.78125 284.20312 427.78125 285.14062L427.78125 287.01562Q427.78125 288.98438 427.85938 289.5Q427.95312 290.01562 428.21875 290.5L426.75 290.5Q426.53125 290.0625 426.46875 289.46875ZM426.35938 286.32812Q425.59375 286.64062 424.0625 286.85938Q423.1875 286.98438 422.82812 287.14062Q422.46875 287.29688 422.26562 287.60938Q422.07812 287.90625 422.07812 288.26562Q422.07812 288.82812 422.5 289.20312Q422.9375 289.57812 423.75 289.57812Q424.5625 289.57812 425.1875 289.23438Q425.82812 288.875 426.125 288.25Q426.35938 287.78125 426.35938 286.84375L426.35938 286.32812ZM429.51562 287.0625L429.51562 285.64062L433.82812 285.64062L433.82812 287.0625L429.51562 287.0625ZM442.0625 289.14062L442.0625 290.5L434.48438 290.5Q434.46875 289.98438 434.65625 289.51562Q434.9375 288.75 435.57812 288.0Q436.21875 287.25 437.42188 286.26562Q439.28125 284.73438 439.9375 283.84375Q440.59375 282.9375 440.59375 282.14062Q440.59375 281.3125 440.0 280.73438Q439.40625 280.15625 438.4375 280.15625Q437.42188 280.15625 436.8125 280.76562Q436.20312 281.375 436.20312 282.45312L434.75 282.3125Q434.90625 280.6875 435.875 279.84375Q436.84375 279.0 438.46875 279.0Q440.125 279.0 441.07812 279.92188Q442.04688 280.82812 442.04688 282.17188Q442.04688 282.85938 441.76562 283.53125Q441.48438 284.1875 440.82812 284.92188Q440.17188 285.65625 438.65625 286.9375Q437.39062 288.0 437.03125 288.39062Q436.67188 288.76562 436.4375 289.14062L442.0625 289.14062Z" fill-rule="nonzero"/><path fill="#4285f4" d="M181.0 52.333332C181.0 51.781048 181.44771 51.333332 182.0 51.333332L192.0 51.333332C192.55229 51.333332 193.0 51.781048 193.0 52.333332L193.0 62.333332C193.0 62.885616 192.55229 63.333332 192.0 63.333332L182.0 63.333332C181.44771 63.333332 181.0 62.885616 181.0 62.333332Z" fill-rule="nonzero"/><path fill="#1a1a1a" d="M204.35938 62.833332L201.20312 54.536457L202.6875 54.536457L204.46875 59.505207Q204.76562 60.302082 205.0 61.177082Q205.1875 60.520832 205.53125 59.598957L207.375 54.536457L208.8125 54.536457L205.67188 62.833332L204.35938 62.833332ZM209.17188 62.833332L209.17188 51.380207L210.6875 51.380207L210.6875 61.473957L216.32812 61.473957L216.32812 62.833332L209.17188 62.833332ZM218.17188 62.833332L218.17188 51.380207L219.6875 51.380207L219.6875 61.473957L225.32812 61.473957L225.32812 62.833332L218.17188 62.833332ZM227.1875 62.833332L227.1875 51.380207L229.46875 51.380207L232.1875 59.489582Q232.5625 60.614582 232.73438 61.177082Q232.92188 60.552082 233.34375 59.348957L236.07812 51.380207L238.125 51.380207L238.125 62.833332L236.65625 62.833332L236.65625 53.239582L233.32812 62.833332L231.96875 62.833332L228.65625 53.083332L228.65625 62.833332L227.1875 62.833332ZM246.35938 62.833332L243.20312 54.536457L244.6875 54.536457L246.46875 59.505207Q246.76562 60.302082 247.0 61.177082Q247.1875 60.520832 247.53125 59.598957L249.375 54.536457L250.8125 54.536457L247.67188 62.833332L246.35938 62.833332ZM250.67188 57.177082Q250.67188 55.145832 251.07812 53.911457Q251.5 52.677082 252.32812 52.005207Q253.15625 51.333332 254.40625 51.333332Q255.32812 51.333332 256.01562 51.708332Q256.71875 52.067707 257.17188 52.770832Q257.625 53.473957 257.875 54.473957Q258.14062 55.473957 258.14062 57.177082Q258.14062 59.192707 257.71875 60.442707Q257.3125 61.677082 256.48438 62.364582Q255.65625 63.036457 254.40625 63.036457Q252.75 63.036457 251.79688 61.833332Q250.67188 60.411457 250.67188 57.177082ZM252.10938 57.177082Q252.10938 60.005207 252.76562 60.942707Q253.4375 61.864582 254.40625 61.864582Q255.375 61.864582 256.03125 60.927082Q256.6875 59.989582 256.6875 57.177082Q256.6875 54.348957 256.03125 53.427082Q255.375 52.489582 254.39062 52.489582Q253.42188 52.489582 252.84375 53.317707Q252.10938 54.364582 252.10938 57.177082ZM260.45312 62.833332L260.45312 61.223957L262.0625 61.223957L262.0625 62.833332L260.45312 62.833332ZM263.67188 59.833332L265.14062 59.708332Q265.3125 60.786457 265.90625 61.333332Q266.5 61.864582 267.34375 61.864582Q268.35938 61.864582 269.0625 61.098957Q269.76562 60.333332 269.76562 59.067707Q269.76562 57.864582 269.09375 57.177082Q268.42188 56.473957 267.32812 56.473957Q266.64062 56.473957 266.09375 56.786457Q265.54688 57.098957 265.23438 57.583332L263.92188 57.411457L265.03125 51.536457L270.71875 51.536457L270.71875 52.880207L266.15625 52.880207L265.53125 55.958332Q266.5625 55.239582 267.70312 55.239582Q269.20312 55.239582 270.23438 56.286457Q271.26562 57.317707 271.26562 58.942707Q271.26562 60.505207 270.35938 61.630207Q269.25 63.036457 267.34375 63.036457Q265.78125 63.036457 264.79688 62.161457Q263.8125 61.270832 263.67188 59.833332ZM273.45312 62.833332L273.45312 61.223957L275.0625 61.223957L275.0625 62.833332L273.45312 62.833332ZM276.67188 59.833332L278.14062 59.708332Q278.3125 60.786457 278.90625 61.333332Q279.5 61.864582 280.34375 61.864582Q281.35938 61.864582 282.0625 61.098957Q282.76562 60.333332 282.76562 59.067707Q282.76562 57.864582 282.09375 57.177082Q281.42188 56.473957 280.32812 56.473957Q279.64062 56.473957 279.09375 56.786457Q278.54688 57.098957 278.23438 57.583332L276.92188 57.411457L278.03125 51.536457L283.71875 51.536457L283.71875 52.880207L279.15625 52.880207L278.53125 55.958332Q279.5625 55.239582 280.70312 55.239582Q282.20312 55.239582 283.23438 56.286457Q284.26562 57.317707 284.26562 58.942707Q284.26562 60.505207 283.35938 61.630207Q282.25 63.036457 280.34375 63.036457Q278.78125 63.036457 277.79688 62.161457Q276.8125 61.270832 276.67188 59.833332Z" fill-rule="nonzero"/><path fill="#ea4335" d="M301.0 52.333332C301.0 51.781048 301.44772 51.333332 302.0 51.333332L312.0 51.333332C312.55228 51.333332 313.0 51.781048 313.0 52.333332L313.0 62.333332C313.0 62.885616 312.55228 63.333332 312.0 63.333332L302.0 63.333332C301.44772 63.333332 301.0 62.885616 301.0 62.333332Z" fill-rule="nonzero"/><path fill="#1a1a1a" d="M321.71875 59.145832L323.15625 59.020832Q323.25 59.880207 323.625 60.442707Q324.0 60.989582 324.78125 61.333332Q325.5625 61.661457 326.53125 61.661457Q327.40625 61.661457 328.0625 61.411457Q328.73438 61.145832 329.04688 60.708332Q329.375 60.255207 329.375 59.723957Q329.375 59.177082 329.0625 58.786457Q328.75 58.380207 328.03125 58.098957Q327.57812 57.927082 326.0 57.552082Q324.42188 57.161457 323.78125 56.833332Q322.96875 56.395832 322.5625 55.770832Q322.15625 55.130207 322.15625 54.333332Q322.15625 53.473957 322.64062 52.723957Q323.14062 51.958332 324.07812 51.567707Q325.03125 51.177082 326.1875 51.177082Q327.46875 51.177082 328.4375 51.598957Q329.40625 52.005207 329.92188 52.802082Q330.45312 53.598957 330.5 54.598957L329.04688 54.708332Q328.92188 53.630207 328.25 53.083332Q327.57812 52.520832 326.25 52.520832Q324.875 52.520832 324.25 53.020832Q323.625 53.520832 323.625 54.239582Q323.625 54.848957 324.0625 55.255207Q324.5 55.645832 326.34375 56.067707Q328.20312 56.489582 328.89062 56.802082Q329.89062 57.255207 330.35938 57.973957Q330.84375 58.677082 330.84375 59.598957Q330.84375 60.505207 330.3125 61.317707Q329.79688 62.130207 328.8125 62.583332Q327.82812 63.036457 326.60938 63.036457Q325.04688 63.036457 324.0 62.583332Q322.95312 62.114582 322.34375 61.208332Q321.75 60.302082 321.71875 59.145832ZM338.59375 58.333332L338.59375 56.989582L343.45312 56.989582L343.45312 61.239582Q342.32812 62.130207 341.14062 62.583332Q339.95312 63.036457 338.70312 63.036457Q337.01562 63.036457 335.64062 62.317707Q334.26562 61.583332 333.5625 60.223957Q332.85938 58.848957 332.85938 57.161457Q332.85938 55.489582 333.54688 54.036457Q334.25 52.583332 335.5625 51.880207Q336.875 51.177082 338.59375 51.177082Q339.82812 51.177082 340.82812 51.583332Q341.84375 51.989582 342.40625 52.708332Q342.98438 53.427082 343.28125 54.583332L341.90625 54.958332Q341.65625 54.083332 341.26562 53.583332Q340.89062 53.083332 340.17188 52.786457Q339.46875 52.473957 338.59375 52.473957Q337.5625 52.473957 336.79688 52.802082Q336.04688 53.114582 335.57812 53.630207Q335.10938 54.145832 334.85938 54.755207Q334.42188 55.817707 334.42188 57.067707Q334.42188 58.598957 334.9375 59.630207Q335.46875 60.661457 336.46875 61.161457Q337.48438 61.661457 338.625 61.661457Q339.60938 61.661457 340.54688 61.286457Q341.48438 60.895832 341.96875 60.473957L341.96875 58.333332L338.59375 58.333332ZM345.17188 62.833332L345.17188 51.380207L346.6875 51.380207L346.6875 61.473957L352.32812 61.473957L352.32812 62.833332L345.17188 62.833332ZM359.46875 61.802082Q358.6875 62.473957 357.96875 62.755207Q357.25 63.020832 356.42188 63.020832Q355.04688 63.020832 354.3125 62.348957Q353.57812 61.677082 353.57812 60.645832Q353.57812 60.036457 353.85938 59.536457Q354.14062 59.020832 354.57812 58.723957Q355.03125 58.411457 355.59375 58.255207Q356.01562 58.145832 356.84375 58.052082Q358.54688 57.848957 359.35938 57.567707Q359.35938 57.270832 359.35938 57.192707Q359.35938 56.333332 358.96875 55.989582Q358.42188 55.505207 357.35938 55.505207Q356.375 55.505207 355.89062 55.864582Q355.42188 56.208332 355.20312 57.083332L353.82812 56.895832Q354.01562 56.020832 354.4375 55.473957Q354.875 54.927082 355.6875 54.645832Q356.5 54.348957 357.5625 54.348957Q358.625 54.348957 359.28125 54.598957Q359.95312 54.848957 360.26562 55.223957Q360.57812 55.598957 360.70312 56.177082Q360.78125 56.536457 360.78125 57.473957L360.78125 59.348957Q360.78125 61.317707 360.85938 61.833332Q360.95312 62.348957 361.21875 62.833332L359.75 62.833332Q359.53125 62.395832 359.46875 61.802082ZM359.35938 58.661457Q358.59375 58.973957 357.0625 59.192707Q356.1875 59.317707 355.82812 59.473957Q355.46875 59.630207 355.26562 59.942707Q355.07812 60.239582 355.07812 60.598957Q355.07812 61.161457 355.5 61.536457Q355.9375 61.911457 356.75 61.911457Q357.5625 61.911457 358.1875 61.567707Q358.82812 61.208332 359.125 60.583332Q359.35938 60.114582 359.35938 59.177082L359.35938 58.661457ZM363.0625 62.833332L363.0625 54.536457L364.32812 54.536457L364.32812 55.708332Q365.23438 54.348957 366.96875 54.348957Q367.71875 54.348957 368.34375 54.614582Q368.96875 54.880207 369.28125 55.317707Q369.59375 55.755207 369.71875 56.364582Q369.79688 56.755207 369.79688 57.723957L369.79688 62.833332L368.39062 62.833332L368.39062 57.786457Q368.39062 56.927082 368.21875 56.505207Q368.0625 56.067707 367.64062 55.817707Q367.23438 55.567707 366.67188 55.567707Q365.76562 55.567707 365.10938 56.145832Q364.46875 56.708332 364.46875 58.302082L364.46875 62.833332L363.0625 62.833332ZM370.79688 63.520832L372.17188 63.723957Q372.25 64.36458 372.64062 64.64583Q373.17188 65.03645 374.07812 65.03645Q375.04688 65.03645 375.57812 64.64583Q376.10938 64.2552 376.29688 63.552082Q376.40625 63.130207 376.40625 61.739582Q375.48438 62.833332 374.10938 62.833332Q372.39062 62.833332 371.45312 61.598957Q370.51562 60.364582 370.51562 58.630207Q370.51562 57.442707 370.9375 56.442707Q371.375 55.442707 372.1875 54.895832Q373.01562 54.348957 374.10938 54.348957Q375.57812 54.348957 376.53125 55.536457L376.53125 54.536457L377.82812 54.536457L377.82812 61.708332Q377.82812 63.645832 377.4375 64.45833Q377.04688 65.27083 376.1875 65.73958Q375.32812 66.20833 374.07812 66.20833Q372.59375 66.20833 371.67188 65.53645Q370.76562 64.86458 370.79688 63.520832ZM371.96875 58.536457Q371.96875 60.161457 372.60938 60.911457Q373.26562 61.661457 374.23438 61.661457Q375.20312 61.661457 375.85938 60.927082Q376.51562 60.177082 376.51562 58.583332Q376.51562 57.052082 375.84375 56.286457Q375.17188 55.505207 374.21875 55.505207Q373.28125 55.505207 372.625 56.270832Q371.96875 57.036457 371.96875 58.536457ZM386.35938 62.833332L383.20312 54.536457L384.6875 54.536457L386.46875 59.505207Q386.76562 60.302082 387.0 61.177082Q387.1875 60.520832 387.53125 59.598957L389.375 54.536457L390.8125 54.536457L387.67188 62.833332L386.35938 62.833332ZM390.67188 57.177082Q390.67188 55.145832 391.07812 53.911457Q391.5 52.677082 392.32812 52.005207Q393.15625 51.333332 394.40625 51.333332Q395.32812 51.333332 396.01562 51.708332Q396.71875 52.067707 397.17188 52.770832Q397.625 53.473957 397.875 54.473957Q398.14062 55.473957 398.14062 57.177082Q398.14062 59.192707 397.71875 60.442707Q397.3125 61.677082 396.48438 62.364582Q395.65625 63.036457 394.40625 63.036457Q392.75 63.036457 391.79688 61.833332Q390.67188 60.411457 390.67188 57.177082ZM392.10938 57.177082Q392.10938 60.005207 392.76562 60.942707Q393.4375 61.864582 394.40625 61.864582Q395.375 61.864582 396.03125 60.927082Q396.6875 59.989582 396.6875 57.177082Q396.6875 54.348957 396.03125 53.427082Q395.375 52.489582 394.39062 52.489582Q393.42188 52.489582 392.84375 53.317707Q392.10938 54.364582 392.10938 57.177082ZM400.45312 62.833332L400.45312 61.223957L402.0625 61.223957L402.0625 62.833332L400.45312 62.833332ZM411.0625 61.473957L411.0625 62.833332L403.48438 62.833332Q403.46875 62.317707 403.65625 61.848957Q403.9375 61.083332 404.57812 60.333332Q405.21875 59.583332 406.42188 58.598957Q408.28125 57.067707 408.9375 56.177082Q409.59375 55.270832 409.59375 54.473957Q409.59375 53.645832 409.0 53.067707Q408.40625 52.489582 407.4375 52.489582Q406.42188 52.489582 405.8125 53.098957Q405.20312 53.708332 405.20312 54.786457L403.75 54.645832Q403.90625 53.020832 404.875 52.177082Q405.84375 51.333332 407.46875 51.333332Q409.125 51.333332 410.07812 52.255207Q411.04688 53.161457 411.04688 54.505207Q411.04688 55.192707 410.76562 55.864582Q410.48438 56.520832 409.82812 57.255207Q409.17188 57.989582 407.65625 59.270832Q406.39062 60.333332 406.03125 60.723957Q405.67188 61.098957 405.4375 61.473957L411.0625 61.473957Z" fill-rule="nonzero"/><path fill="#fbbc04" d="M428.0 52.333332C428.0 51.781048 428.44772 51.333332 429.0 51.333332L439.0 51.333332C439.55228 51.333332 440.0 51.781048 440.0 52.333332L440.0 62.333332C440.0 62.885616 439.55228 63.333332 439.0 63.333332L429.0 63.333332C428.44772 63.333332 428.0 62.885616 428.0 62.333332Z" fill-rule="nonzero"/><path fill="#1a1a1a" d="M448.71875 59.145832L450.15625 59.020832Q450.25 59.880207 450.625 60.442707Q451.0 60.989582 451.78125 61.333332Q452.5625 61.661457 453.53125 61.661457Q454.40625 61.661457 455.0625 61.411457Q455.73438 61.145832 456.04688 60.708332Q456.375 60.255207 456.375 59.723957Q456.375 59.177082 456.0625 58.786457Q455.75 58.380207 455.03125 58.098957Q454.57812 57.927082 453.0 57.552082Q451.42188 57.161457 450.78125 56.833332Q449.96875 56.395832 449.5625 55.770832Q449.15625 55.130207 449.15625 54.333332Q449.15625 53.473957 449.64062 52.723957Q450.14062 51.958332 451.07812 51.567707Q452.03125 51.177082 453.1875 51.177082Q454.46875 51.177082 455.4375 51.598957Q456.40625 52.005207 456.92188 52.802082Q457.45312 53.598957 457.5 54.598957L456.04688 54.708332Q455.92188 53.630207 455.25 53.083332Q454.57812 52.520832 453.25 52.520832Q451.875 52.520832 451.25 53.020832Q450.625 53.520832 450.625 54.239582Q450.625 54.848957 451.0625 55.255207Q451.5 55.645832 453.34375 56.067707Q455.20312 56.489582 455.89062 56.802082Q456.89062 57.255207 457.35938 57.973957Q457.84375 58.677082 457.84375 59.598957Q457.84375 60.505207 457.3125 61.317707Q456.79688 62.130207 455.8125 62.583332Q454.82812 63.036457 453.60938 63.036457Q452.04688 63.036457 451.0 62.583332Q449.95312 62.114582 449.34375 61.208332Q448.75 60.302082 448.71875 59.145832ZM465.59375 58.333332L465.59375 56.989582L470.45312 56.989582L470.45312 61.239582Q469.32812 62.130207 468.14062 62.583332Q466.95312 63.036457 465.70312 63.036457Q464.01562 63.036457 462.64062 62.317707Q461.26562 61.583332 460.5625 60.223957Q459.85938 58.848957 459.85938 57.161457Q459.85938 55.489582 460.54688 54.036457Q461.25 52.583332 462.5625 51.880207Q463.875 51.177082 465.59375 51.177082Q466.82812 51.177082 467.82812 51.583332Q468.84375 51.989582 469.40625 52.708332Q469.98438 53.427082 470.28125 54.583332L468.90625 54.958332Q468.65625 54.083332 468.26562 53.583332Q467.89062 53.083332 467.17188 52.786457Q466.46875 52.473957 465.59375 52.473957Q464.5625 52.473957 463.79688 52.802082Q463.04688 53.114582 462.57812 53.630207Q462.10938 54.145832 461.85938 54.755207Q461.42188 55.817707 461.42188 57.067707Q461.42188 58.598957 461.9375 59.630207Q462.46875 60.661457 463.46875 61.161457Q464.48438 61.661457 465.625 61.661457Q466.60938 61.661457 467.54688 61.286457Q468.48438 60.895832 468.96875 60.473957L468.96875 58.333332L465.59375 58.333332ZM472.17188 62.833332L472.17188 51.380207L473.6875 51.380207L473.6875 61.473957L479.32812 61.473957L479.32812 62.833332L472.17188 62.833332ZM486.46875 61.802082Q485.6875 62.473957 484.96875 62.755207Q484.25 63.020832 483.42188 63.020832Q482.04688 63.020832 481.3125 62.348957Q480.57812 61.677082 480.57812 60.645832Q480.57812 60.036457 480.85938 59.536457Q481.14062 59.020832 481.57812 58.723957Q482.03125 58.411457 482.59375 58.255207Q483.01562 58.145832 483.84375 58.052082Q485.54688 57.848957 486.35938 57.567707Q486.35938 57.270832 486.35938 57.192707Q486.35938 56.333332 485.96875 55.989582Q485.42188 55.505207 484.35938 55.505207Q483.375 55.505207 482.89062 55.864582Q482.42188 56.208332 482.20312 57.083332L480.82812 56.895832Q481.01562 56.020832 481.4375 55.473957Q481.875 54.927082 482.6875 54.645832Q483.5 54.348957 484.5625 54.348957Q485.625 54.348957 486.28125 54.598957Q486.95312 54.848957 487.26562 55.223957Q487.57812 55.598957 487.70312 56.177082Q487.78125 56.536457 487.78125 57.473957L487.78125 59.348957Q487.78125 61.317707 487.85938 61.833332Q487.95312 62.348957 488.21875 62.833332L486.75 62.833332Q486.53125 62.395832 486.46875 61.802082ZM486.35938 58.661457Q485.59375 58.973957 484.0625 59.192707Q483.1875 59.317707 482.82812 59.473957Q482.46875 59.630207 482.26562 59.942707Q482.07812 60.239582 482.07812 60.598957Q482.07812 61.161457 482.5 61.536457Q482.9375 61.911457 483.75 61.911457Q484.5625 61.911457 485.1875 61.567707Q485.82812 61.208332 486.125 60.583332Q486.35938 60.114582 486.35938 59.177082L486.35938 58.661457ZM490.0625 62.833332L490.0625 54.536457L491.32812 54.536457L491.32812 55.708332Q492.23438 54.348957 493.96875 54.348957Q494.71875 54.348957 495.34375 54.614582Q495.96875 54.880207 496.28125 55.317707Q496.59375 55.755207 496.71875 56.364582Q496.79688 56.755207 496.79688 57.723957L496.79688 62.833332L495.39062 62.833332L495.39062 57.786457Q495.39062 56.927082 495.21875 56.505207Q495.0625 56.067707 494.64062 55.817707Q494.23438 55.567707 493.67188 55.567707Q492.76562 55.567707 492.10938 56.145832Q491.46875 56.708332 491.46875 58.302082L491.46875 62.833332L490.0625 62.833332ZM497.79688 63.520832L499.17188 63.723957Q499.25 64.36458 499.64062 64.64583Q500.17188 65.03645 501.07812 65.03645Q502.04688 65.03645 502.57812 64.64583Q503.10938 64.2552 503.29688 63.552082Q503.40625 63.130207 503.40625 61.739582Q502.48438 62.833332 501.10938 62.833332Q499.39062 62.833332 498.45312 61.598957Q497.51562 60.364582 497.51562 58.630207Q497.51562 57.442707 497.9375 56.442707Q498.375 55.442707 499.1875 54.895832Q500.01562 54.348957 501.10938 54.348957Q502.57812 54.348957 503.53125 55.536457L503.53125 54.536457L504.82812 54.536457L504.82812 61.708332Q504.82812 63.645832 504.4375 64.45833Q504.04688 65.27083 503.1875 65.73958Q502.32812 66.20833 501.07812 66.20833Q499.59375 66.20833 498.67188 65.53645Q497.76562 64.86458 497.79688 63.520832ZM498.96875 58.536457Q498.96875 60.161457 499.60938 60.911457Q500.26562 61.661457 501.23438 61.661457Q502.20312 61.661457 502.85938 60.927082Q503.51562 60.177082 503.51562 58.583332Q503.51562 57.052082 502.84375 56.286457Q502.17188 55.505207 501.21875 55.505207Q500.28125 55.505207 499.625 56.270832Q498.96875 57.036457 498.96875 58.536457ZM513.3594 62.833332L510.20312 54.536457L511.6875 54.536457L513.46875 59.505207Q513.7656 60.302082 514.0 61.177082Q514.1875 60.520832 514.53125 59.598957L516.375 54.536457L517.8125 54.536457L514.6719 62.833332L513.3594 62.833332ZM517.6719 57.177082Q517.6719 55.145832 518.0781 53.911457Q518.5 52.677082 519.3281 52.005207Q520.15625 51.333332 521.40625 51.333332Q522.3281 51.333332 523.0156 51.708332Q523.71875 52.067707 524.1719 52.770832Q524.625 53.473957 524.875 54.473957Q525.1406 55.473957 525.1406 57.177082Q525.1406 59.192707 524.71875 60.442707Q524.3125 61.677082 523.4844 62.364582Q522.65625 63.036457 521.40625 63.036457Q519.75 63.036457 518.7969 61.833332Q517.6719 60.411457 517.6719 57.177082ZM519.1094 57.177082Q519.1094 60.005207 519.7656 60.942707Q520.4375 61.864582 521.40625 61.864582Q522.375 61.864582 523.03125 60.927082Q523.6875 59.989582 523.6875 57.177082Q523.6875 54.348957 523.03125 53.427082Q522.375 52.489582 521.3906 52.489582Q520.4219 52.489582 519.84375 53.317707Q519.1094 54.364582 519.1094 57.177082ZM527.4531 62.833332L527.4531 61.223957L529.0625 61.223957L529.0625 62.833332L527.4531 62.833332ZM530.6719 59.802082L532.0781 59.614582Q532.3281 60.817707 532.90625 61.348957Q533.4844 61.864582 534.3281 61.864582Q535.3125 61.864582 536.0 61.177082Q536.6875 60.489582 536.6875 59.473957Q536.6875 58.505207 536.0469 57.880207Q535.4219 57.255207 534.4375 57.255207Q534.0469 57.255207 533.4531 57.411457L533.6094 56.177082Q533.75 56.192707 533.8281 56.192707Q534.7344 56.192707 535.4531 55.723957Q536.1719 55.255207 536.1719 54.270832Q536.1719 53.505207 535.6406 53.005207Q535.125 52.489582 534.2969 52.489582Q533.46875 52.489582 532.9219 53.005207Q532.375 53.520832 532.21875 54.552082L530.8125 54.302082Q531.0781 52.880207 531.9844 52.114582Q532.90625 51.333332 534.2656 51.333332Q535.2031 51.333332 535.9844 51.739582Q536.78125 52.130207 537.1875 52.833332Q537.6094 53.520832 537.6094 54.302082Q537.6094 55.052082 537.2031 55.661457Q536.8125 56.270832 536.03125 56.630207Q537.0469 56.864582 537.6094 57.598957Q538.1719 58.333332 538.1719 59.442707Q538.1719 60.942707 537.0781 61.989582Q535.9844 63.036457 534.3125 63.036457Q532.8125 63.036457 531.8125 62.145832Q530.8125 61.239582 530.6719 59.802082Z" fill-rule="nonzero"/><path fill="#757575" d="M192.82812 28.171875L192.82812 26.5625L198.59375 26.5625L198.59375 31.609375Q197.26562 32.671875 195.84375 33.203125Q194.4375 33.734375 192.95312 33.734375Q190.95312 33.734375 189.3125 32.875Q187.6875 32.015625 186.84375 30.390625Q186.01562 28.765625 186.01562 26.765625Q186.01562 24.78125 186.84375 23.0625Q187.67188 21.34375 189.23438 20.515625Q190.79688 19.671875 192.82812 19.671875Q194.29688 19.671875 195.48438 20.15625Q196.6875 20.625 197.35938 21.484375Q198.03125 22.328125 198.39062 23.703125L196.76562 24.140625Q196.45312 23.109375 196.0 22.515625Q195.54688 21.921875 194.70312 21.5625Q193.85938 21.203125 192.82812 21.203125Q191.59375 21.203125 190.6875 21.578125Q189.79688 21.953125 189.23438 22.578125Q188.6875 23.1875 188.39062 23.921875Q187.85938 25.171875 187.85938 26.65625Q187.85938 28.46875 188.48438 29.703125Q189.125 30.921875 190.3125 31.515625Q191.51562 32.109375 192.85938 32.109375Q194.03125 32.109375 195.14062 31.65625Q196.25 31.203125 196.82812 30.703125L196.82812 28.171875L192.82812 28.171875ZM208.0 30.328125L209.71875 30.546875Q209.3125 32.046875 208.20312 32.890625Q207.10938 33.71875 205.39062 33.71875Q203.23438 33.71875 201.96875 32.390625Q200.70312 31.0625 200.70312 28.65625Q200.70312 26.171875 201.96875 24.796875Q203.25 23.421875 205.29688 23.421875Q207.28125 23.421875 208.53125 24.765625Q209.78125 26.109375 209.78125 28.5625Q209.78125 28.703125 209.76562 29.0L202.42188 29.0Q202.51562 30.625 203.34375 31.484375Q204.17188 32.34375 205.40625 32.34375Q206.3125 32.34375 206.95312 31.875Q207.60938 31.390625 208.0 30.328125ZM202.51562 27.625L208.01562 27.625Q207.90625 26.390625 207.39062 25.765625Q206.59375 24.796875 205.3125 24.796875Q204.17188 24.796875 203.375 25.578125Q202.59375 26.34375 202.51562 27.625ZM212.25 33.5L212.25 23.640625L213.75 23.640625L213.75 25.03125Q214.20312 24.3125 214.96875 23.875Q215.75 23.421875 216.73438 23.421875Q217.82812 23.421875 218.53125 23.875Q219.23438 24.328125 219.51562 25.15625Q220.6875 23.421875 222.5625 23.421875Q224.03125 23.421875 224.8125 24.234375Q225.60938 25.046875 225.60938 26.734375L225.60938 33.5L223.9375 33.5L223.9375 27.296875Q223.9375 26.296875 223.78125 25.859375Q223.625 25.40625 223.1875 25.140625Q222.76562 24.875 222.1875 24.875Q221.15625 24.875 220.46875 25.5625Q219.78125 26.25 219.78125 27.78125L219.78125 33.5L218.10938 33.5L218.10938 27.09375Q218.10938 25.984375 217.70312 25.4375Q217.29688 24.875 216.35938 24.875Q215.65625 24.875 215.04688 25.25Q214.45312 25.609375 214.1875 26.328125Q213.92188 27.046875 213.92188 28.390625L213.92188 33.5L212.25 33.5ZM228.25 33.5L228.25 23.640625L229.75 23.640625L229.75 25.03125Q230.20312 24.3125 230.96875 23.875Q231.75 23.421875 232.73438 23.421875Q233.82812 23.421875 234.53125 23.875Q235.23438 24.328125 235.51562 25.15625Q236.6875 23.421875 238.5625 23.421875Q240.03125 23.421875 240.8125 24.234375Q241.60938 25.046875 241.60938 26.734375L241.60938 33.5L239.9375 33.5L239.9375 27.296875Q239.9375 26.296875 239.78125 25.859375Q239.625 25.40625 239.1875 25.140625Q238.76562 24.875 238.1875 24.875Q237.15625 24.875 236.46875 25.5625Q235.78125 26.25 235.78125 27.78125L235.78125 33.5L234.10938 33.5L234.10938 27.09375Q234.10938 25.984375 233.70312 25.4375Q233.29688 24.875 232.35938 24.875Q231.65625 24.875 231.04688 25.25Q230.45312 25.609375 230.1875 26.328125Q229.92188 27.046875 229.92188 28.390625L229.92188 33.5L228.25 33.5ZM250.6875 32.28125Q249.75 33.078125 248.89062 33.40625Q248.03125 33.71875 247.04688 33.71875Q245.4375 33.71875 244.5625 32.9375Q243.6875 32.140625 243.6875 30.90625Q243.6875 30.171875 244.01562 29.578125Q244.34375 28.984375 244.875 28.625Q245.40625 28.265625 246.07812 28.078125Q246.57812 27.9375 247.5625 27.828125Q249.59375 27.578125 250.54688 27.25Q250.54688 26.90625 250.54688 26.8125Q250.54688 25.796875 250.07812 25.375Q249.4375 24.8125 248.17188 24.8125Q247.0 24.8125 246.4375 25.21875Q245.875 25.625 245.60938 26.6875L243.96875 26.453125Q244.20312 25.40625 244.70312 24.765625Q245.21875 24.125 246.17188 23.78125Q247.14062 23.421875 248.42188 23.421875Q249.6875 23.421875 250.46875 23.71875Q251.25 24.015625 251.625 24.46875Q252.0 24.921875 252.14062 25.609375Q252.23438 26.03125 252.23438 27.140625L252.23438 29.375Q252.23438 31.703125 252.32812 32.328125Q252.4375 32.9375 252.76562 33.5L251.01562 33.5Q250.75 32.984375 250.6875 32.28125ZM250.54688 28.5625Q249.64062 28.921875 247.8125 29.1875Q246.78125 29.328125 246.35938 29.515625Q245.9375 29.703125 245.70312 30.0625Q245.46875 30.421875 245.46875 30.859375Q245.46875 31.53125 245.96875 31.984375Q246.48438 32.421875 247.45312 32.421875Q248.42188 32.421875 249.17188 32.0Q249.92188 31.5625 250.28125 30.84375Q250.54688 30.265625 250.54688 29.171875L250.54688 28.5625ZM267.5625 31.890625L267.5625 33.5L258.57812 33.5Q258.5625 32.890625 258.76562 32.34375Q259.10938 31.421875 259.85938 30.53125Q260.625 29.640625 262.04688 28.46875Q264.26562 26.65625 265.04688 25.59375Q265.82812 24.53125 265.82812 23.578125Q265.82812 22.59375 265.10938 21.90625Q264.40625 21.21875 263.26562 21.21875Q262.0625 21.21875 261.32812 21.953125Q260.60938 22.671875 260.60938 23.953125L258.89062 23.78125Q259.0625 21.859375 260.21875 20.859375Q261.375 19.84375 263.3125 19.84375Q265.26562 19.84375 266.40625 20.9375Q267.54688 22.015625 267.54688 23.625Q267.54688 24.4375 267.20312 25.234375Q266.875 26.015625 266.09375 26.890625Q265.32812 27.75 263.53125 29.28125Q262.03125 30.546875 261.59375 31.0Q261.17188 31.4375 260.89062 31.890625L267.5625 31.890625ZM275.40625 33.5L275.40625 19.90625L278.125 19.90625L281.34375 29.53125Q281.78125 30.875 281.98438 31.546875Q282.21875 30.796875 282.71875 29.359375L285.96875 19.90625L288.39062 19.90625L288.39062 33.5L286.65625 33.5L286.65625 22.109375L282.70312 33.5L281.07812 33.5L277.14062 21.921875L277.14062 33.5L275.40625 33.5ZM296.6875 32.28125Q295.75 33.078125 294.89062 33.40625Q294.03125 33.71875 293.04688 33.71875Q291.4375 33.71875 290.5625 32.9375Q289.6875 32.140625 289.6875 30.90625Q289.6875 30.171875 290.01562 29.578125Q290.34375 28.984375 290.875 28.625Q291.40625 28.265625 292.07812 28.078125Q292.57812 27.9375 293.5625 27.828125Q295.59375 27.578125 296.54688 27.25Q296.54688 26.90625 296.54688 26.8125Q296.54688 25.796875 296.07812 25.375Q295.4375 24.8125 294.17188 24.8125Q293.0 24.8125 292.4375 25.21875Q291.875 25.625 291.60938 26.6875L289.96875 26.453125Q290.20312 25.40625 290.70312 24.765625Q291.21875 24.125 292.17188 23.78125Q293.14062 23.421875 294.42188 23.421875Q295.6875 23.421875 296.46875 23.71875Q297.25 24.015625 297.625 24.46875Q298.0 24.921875 298.14062 25.609375Q298.23438 26.03125 298.23438 27.140625L298.23438 29.375Q298.23438 31.703125 298.32812 32.328125Q298.4375 32.9375 298.76562 33.5L297.01562 33.5Q296.75 32.984375 296.6875 32.28125ZM296.54688 28.5625Q295.64062 28.921875 293.8125 29.1875Q292.78125 29.328125 292.35938 29.515625Q291.9375 29.703125 291.70312 30.0625Q291.46875 30.421875 291.46875 30.859375Q291.46875 31.53125 291.96875 31.984375Q292.48438 32.421875 293.45312 32.421875Q294.42188 32.421875 295.17188 32.0Q295.92188 31.5625 296.28125 30.84375Q296.54688 30.265625 296.54688 29.171875L296.54688 28.5625ZM299.14062 33.5L302.73438 28.375L299.40625 23.640625L301.5 23.640625L303.01562 25.953125Q303.4375 26.609375 303.6875 27.0625Q304.10938 26.453125 304.45312 25.96875L306.10938 23.640625L308.09375 23.640625L304.70312 28.28125L308.35938 33.5L306.3125 33.5L304.28125 30.4375L303.75 29.609375L301.15625 33.5L299.14062 33.5ZM313.85938 29.125L315.54688 28.984375Q315.67188 30.0 316.10938 30.65625Q316.54688 31.3125 317.46875 31.71875Q318.40625 32.125 319.5625 32.125Q320.59375 32.125 321.375 31.8125Q322.17188 31.5 322.5625 30.96875Q322.95312 30.4375 322.95312 29.8125Q322.95312 29.171875 322.57812 28.703125Q322.20312 28.21875 321.34375 27.890625Q320.79688 27.671875 318.92188 27.234375Q317.04688 26.78125 316.29688 26.375Q315.32812 25.859375 314.84375 25.109375Q314.375 24.359375 314.375 23.421875Q314.375 22.390625 314.95312 21.5Q315.54688 20.59375 316.65625 20.140625Q317.78125 19.671875 319.15625 19.671875Q320.67188 19.671875 321.82812 20.15625Q322.98438 20.640625 323.59375 21.59375Q324.21875 22.53125 324.26562 23.734375L322.54688 23.859375Q322.40625 22.578125 321.59375 21.921875Q320.79688 21.25 319.23438 21.25Q317.60938 21.25 316.85938 21.859375Q316.10938 22.453125 316.10938 23.296875Q316.10938 24.03125 316.64062 24.5Q317.15625 24.96875 319.34375 25.46875Q321.54688 25.96875 322.35938 26.34375Q323.54688 26.890625 324.10938 27.734375Q324.6875 28.5625 324.6875 29.65625Q324.6875 30.75 324.0625 31.71875Q323.4375 32.671875 322.26562 33.203125Q321.10938 33.734375 319.65625 33.734375Q317.8125 33.734375 316.5625 33.203125Q315.3125 32.65625 314.59375 31.578125Q313.89062 30.5 313.85938 29.125ZM333.70312 33.5L333.70312 32.046875Q332.5625 33.71875 330.57812 33.71875Q329.71875 33.71875 328.95312 33.390625Q328.20312 33.046875 327.82812 32.546875Q327.46875 32.046875 327.3125 31.3125Q327.21875 30.8125 327.21875 29.75L327.21875 23.640625L328.89062 23.640625L328.89062 29.109375Q328.89062 30.421875 328.98438 30.875Q329.14062 31.53125 329.65625 31.90625Q330.17188 32.28125 330.92188 32.28125Q331.67188 32.28125 332.32812 31.90625Q332.98438 31.515625 333.25 30.859375Q333.53125 30.1875 333.53125 28.921875L333.53125 23.640625L335.20312 23.640625L335.20312 33.5L333.70312 33.5ZM337.25 37.28125L337.25 23.640625L338.78125 23.640625L338.78125 24.921875Q339.3125 24.171875 339.98438 23.796875Q340.67188 23.421875 341.625 23.421875Q342.89062 23.421875 343.85938 24.078125Q344.82812 24.71875 345.3125 25.90625Q345.8125 27.09375 345.8125 28.5Q345.8125 30.015625 345.26562 31.234375Q344.71875 32.4375 343.6875 33.078125Q342.65625 33.71875 341.51562 33.71875Q340.67188 33.71875 340.0 33.375Q339.34375 33.015625 338.92188 32.484375L338.92188 37.28125L337.25 37.28125ZM338.76562 28.625Q338.76562 30.53125 339.53125 31.4375Q340.3125 32.34375 341.40625 32.34375Q342.51562 32.34375 343.29688 31.40625Q344.09375 30.46875 344.09375 28.484375Q344.09375 26.609375 343.3125 25.671875Q342.54688 24.734375 341.46875 24.734375Q340.40625 24.734375 339.57812 25.734375Q338.76562 26.734375 338.76562 28.625ZM348.25 37.28125L348.25 23.640625L349.78125 23.640625L349.78125 24.921875Q350.3125 24.171875 350.98438 23.796875Q351.67188 23.421875 352.625 23.421875Q353.89062 23.421875 354.85938 24.078125Q355.82812 24.71875 356.3125 25.90625Q356.8125 27.09375 356.8125 28.5Q356.8125 30.015625 356.26562 31.234375Q355.71875 32.4375 354.6875 33.078125Q353.65625 33.71875 352.51562 33.71875Q351.67188 33.71875 351.0 33.375Q350.34375 33.015625 349.92188 32.484375L349.92188 37.28125L348.25 37.28125ZM349.76562 28.625Q349.76562 30.53125 350.53125 31.4375Q351.3125 32.34375 352.40625 32.34375Q353.51562 32.34375 354.29688 31.40625Q355.09375 30.46875 355.09375 28.484375Q355.09375 26.609375 354.3125 25.671875Q353.54688 24.734375 352.46875 24.734375Q351.40625 24.734375 350.57812 25.734375Q349.76562 26.734375 349.76562 28.625ZM358.625 28.578125Q358.625 25.84375 360.15625 24.515625Q361.42188 23.421875 363.25 23.421875Q365.28125 23.421875 366.5625 24.765625Q367.85938 26.09375 367.85938 28.4375Q367.85938 30.34375 367.28125 31.4375Q366.71875 32.515625 365.625 33.125Q364.54688 33.71875 363.25 33.71875Q361.1875 33.71875 359.90625 32.390625Q358.625 31.0625 358.625 28.578125ZM360.34375 28.578125Q360.34375 30.46875 361.17188 31.40625Q362.0 32.34375 363.25 32.34375Q364.5 32.34375 365.3125 31.40625Q366.14062 30.453125 366.14062 28.515625Q366.14062 26.6875 365.3125 25.75Q364.48438 24.8125 363.25 24.8125Q362.0 24.8125 361.17188 25.75Q360.34375 26.6875 360.34375 28.578125ZM370.23438 33.5L370.23438 23.640625L371.73438 23.640625L371.73438 25.140625Q372.3125 24.09375 372.79688 23.765625Q373.28125 23.421875 373.875 23.421875Q374.71875 23.421875 375.59375 23.96875L375.01562 25.515625Q374.40625 25.15625 373.78125 25.15625Q373.23438 25.15625 372.79688 25.484375Q372.375 25.8125 372.1875 26.390625Q371.90625 27.28125 371.90625 28.34375L371.90625 33.5L370.23438 33.5ZM379.90625 32.0L380.14062 33.484375Q379.4375 33.625 378.875 33.625Q377.96875 33.625 377.46875 33.34375Q376.96875 33.046875 376.76562 32.59375Q376.5625 32.125 376.5625 30.609375L376.5625 24.953125L375.32812 24.953125L375.32812 23.640625L376.5625 23.640625L376.5625 21.203125L378.21875 20.203125L378.21875 23.640625L379.90625 23.640625L379.90625 24.953125L378.21875 24.953125L378.21875 30.703125Q378.21875 31.421875 378.29688 31.625Q378.39062 31.828125 378.59375 31.953125Q378.79688 32.078125 379.17188 32.078125Q379.4375 32.078125 379.90625 32.0ZM388.0 30.328125L389.71875 30.546875Q389.3125 32.046875 388.20312 32.890625Q387.10938 33.71875 385.39062 33.71875Q383.23438 33.71875 381.96875 32.390625Q380.70312 31.0625 380.70312 28.65625Q380.70312 26.171875 381.96875 24.796875Q383.25 23.421875 385.29688 23.421875Q387.28125 23.421875 388.53125 24.765625Q389.78125 26.109375 389.78125 28.5625Q389.78125 28.703125 389.76562 29.0L382.42188 29.0Q382.51562 30.625 383.34375 31.484375Q384.17188 32.34375 385.40625 32.34375Q386.3125 32.34375 386.95312 31.875Q387.60938 31.390625 388.0 30.328125ZM382.51562 27.625L388.01562 27.625Q387.90625 26.390625 387.39062 25.765625Q386.59375 24.796875 385.3125 24.796875Q384.17188 24.796875 383.375 25.578125Q382.59375 26.34375 382.51562 27.625ZM398.64062 33.5L398.64062 32.25Q397.70312 33.71875 395.89062 33.71875Q394.71875 33.71875 393.71875 33.078125Q392.73438 32.421875 392.1875 31.265625Q391.65625 30.09375 391.65625 28.578125Q391.65625 27.109375 392.14062 25.90625Q392.64062 24.703125 393.60938 24.0625Q394.59375 23.421875 395.8125 23.421875Q396.70312 23.421875 397.39062 23.796875Q398.09375 24.171875 398.53125 24.78125L398.53125 19.90625L400.1875 19.90625L400.1875 33.5L398.64062 33.5ZM393.35938 28.578125Q393.35938 30.46875 394.15625 31.40625Q394.96875 32.34375 396.04688 32.34375Q397.14062 32.34375 397.90625 31.453125Q398.67188 30.5625 398.67188 28.71875Q398.67188 26.703125 397.89062 25.765625Q397.10938 24.8125 395.96875 24.8125Q394.85938 24.8125 394.10938 25.71875Q393.35938 26.625 393.35938 28.578125ZM418.17188 28.734375L419.96875 29.1875Q419.40625 31.40625 417.9375 32.578125Q416.46875 33.734375 414.34375 33.734375Q412.14062 33.734375 410.76562 32.84375Q409.39062 31.9375 408.67188 30.25Q407.95312 28.546875 407.95312 26.59375Q407.95312 24.46875 408.75 22.890625Q409.5625 21.3125 411.0625 20.5Q412.5625 19.671875 414.35938 19.671875Q416.40625 19.671875 417.79688 20.71875Q419.1875 21.75 419.73438 23.625L417.96875 24.046875Q417.5 22.5625 416.59375 21.890625Q415.6875 21.203125 414.32812 21.203125Q412.76562 21.203125 411.70312 21.953125Q410.65625 22.703125 410.21875 23.984375Q409.79688 25.25 409.79688 26.59375Q409.79688 28.328125 410.29688 29.625Q410.8125 30.90625 411.875 31.546875Q412.95312 32.1875 414.1875 32.1875Q415.70312 32.1875 416.75 31.328125Q417.79688 30.453125 418.17188 28.734375ZM421.625 28.578125Q421.625 25.84375 423.15625 24.515625Q424.42188 23.421875 426.25 23.421875Q428.28125 23.421875 429.5625 24.765625Q430.85938 26.09375 430.85938 28.4375Q430.85938 30.34375 430.28125 31.4375Q429.71875 32.515625 428.625 33.125Q427.54688 33.71875 426.25 33.71875Q424.1875 33.71875 422.90625 32.390625Q421.625 31.0625 421.625 28.578125ZM423.34375 28.578125Q423.34375 30.46875 424.17188 31.40625Q425.0 32.34375 426.25 32.34375Q427.5 32.34375 428.3125 31.40625Q429.14062 30.453125 429.14062 28.515625Q429.14062 26.6875 428.3125 25.75Q427.48438 24.8125 426.25 24.8125Q425.0 24.8125 424.17188 25.75Q423.34375 26.6875 423.34375 28.578125ZM433.25 33.5L433.25 23.640625L434.75 23.640625L434.75 25.046875Q435.84375 23.421875 437.89062 23.421875Q438.78125 23.421875 439.53125 23.75Q440.28125 24.0625 440.64062 24.59375Q441.01562 25.109375 441.17188 25.8125Q441.26562 26.28125 441.26562 27.4375L441.26562 33.5L439.59375 33.5L439.59375 27.5Q439.59375 26.484375 439.39062 25.984375Q439.20312 25.46875 438.70312 25.171875Q438.20312 24.875 437.53125 24.875Q436.46875 24.875 435.6875 25.546875Q434.92188 26.21875 434.92188 28.125L434.92188 33.5L433.25 33.5ZM446.90625 32.0L447.14062 33.484375Q446.4375 33.625 445.875 33.625Q444.96875 33.625 444.46875 33.34375Q443.96875 33.046875 443.76562 32.59375Q443.5625 32.125 443.5625 30.609375L443.5625 24.953125L442.32812 24.953125L442.32812 23.640625L443.5625 23.640625L443.5625 21.203125L445.21875 20.203125L445.21875 23.640625L446.90625 23.640625L446.90625 24.953125L445.21875 24.953125L445.21875 30.703125Q445.21875 31.421875 445.29688 31.625Q445.39062 31.828125 445.59375 31.953125Q445.79688 32.078125 446.17188 32.078125Q446.4375 32.078125 446.90625 32.0ZM455.0 30.328125L456.71875 30.546875Q456.3125 32.046875 455.20312 32.890625Q454.10938 33.71875 452.39062 33.71875Q450.23438 33.71875 448.96875 32.390625Q447.70312 31.0625 447.70312 28.65625Q447.70312 26.171875 448.96875 24.796875Q450.25 23.421875 452.29688 23.421875Q454.28125 23.421875 455.53125 24.765625Q456.78125 26.109375 456.78125 28.5625Q456.78125 28.703125 456.76562 29.0L449.42188 29.0Q449.51562 30.625 450.34375 31.484375Q451.17188 32.34375 452.40625 32.34375Q453.3125 32.34375 453.95312 31.875Q454.60938 31.390625 455.0 30.328125ZM449.51562 27.625L455.01562 27.625Q454.90625 26.390625 454.39062 25.765625Q453.59375 24.796875 452.3125 24.796875Q451.17188 24.796875 450.375 25.578125Q449.59375 26.34375 449.51562 27.625ZM458.14062 33.5L461.73438 28.375L458.40625 23.640625L460.5 23.640625L462.01562 25.953125Q462.4375 26.609375 462.6875 27.0625Q463.10938 26.453125 463.45312 25.96875L465.10938 23.640625L467.09375 23.640625L463.70312 28.28125L467.35938 33.5L465.3125 33.5L463.28125 30.4375L462.75 29.609375L460.15625 33.5L458.14062 33.5ZM471.90625 32.0L472.14062 33.484375Q471.4375 33.625 470.875 33.625Q469.96875 33.625 469.46875 33.34375Q468.96875 33.046875 468.76562 32.59375Q468.5625 32.125 468.5625 30.609375L468.5625 24.953125L467.32812 24.953125L467.32812 23.640625L468.5625 23.640625L468.5625 21.203125L470.21875 20.203125L470.21875 23.640625L471.90625 23.640625L471.90625 24.953125L470.21875 24.953125L470.21875 30.703125Q470.21875 31.421875 470.29688 31.625Q470.39062 31.828125 470.59375 31.953125Q470.79688 32.078125 471.17188 32.078125Q471.4375 32.078125 471.90625 32.0ZM478.39062 33.5L478.39062 19.90625L480.1875 19.90625L480.1875 31.890625L486.89062 31.890625L486.89062 33.5L478.39062 33.5ZM496.0 30.328125L497.71875 30.546875Q497.3125 32.046875 496.20312 32.890625Q495.10938 33.71875 493.39062 33.71875Q491.23438 33.71875 489.96875 32.390625Q488.70312 31.0625 488.70312 28.65625Q488.70312 26.171875 489.96875 24.796875Q491.25 23.421875 493.29688 23.421875Q495.28125 23.421875 496.53125 24.765625Q497.78125 26.109375 497.78125 28.5625Q497.78125 28.703125 497.76562 29.0L490.42188 29.0Q490.51562 30.625 491.34375 31.484375Q492.17188 32.34375 493.40625 32.34375Q494.3125 32.34375 494.95312 31.875Q495.60938 31.390625 496.0 30.328125ZM490.51562 27.625L496.01562 27.625Q495.90625 26.390625 495.39062 25.765625Q494.59375 24.796875 493.3125 24.796875Q492.17188 24.796875 491.375 25.578125Q490.59375 26.34375 490.51562 27.625ZM500.25 33.5L500.25 23.640625L501.75 23.640625L501.75 25.046875Q502.84375 23.421875 504.89062 23.421875Q505.78125 23.421875 506.53125 23.75Q507.28125 24.0625 507.64062 24.59375Q508.01562 25.109375 508.17188 25.8125Q508.26562 26.28125 508.26562 27.4375L508.26562 33.5L506.59375 33.5L506.59375 27.5Q506.59375 26.484375 506.39062 25.984375Q506.20312 25.46875 505.70312 25.171875Q505.20312 24.875 504.53125 24.875Q503.46875 24.875 502.6875 25.546875Q501.92188 26.21875 501.92188 28.125L501.92188 33.5L500.25 33.5ZM509.95312 34.3125L511.5625 34.5625Q511.67188 35.3125 512.1406 35.65625Q512.75 36.109375 513.8281 36.109375Q515.0 36.109375 515.625 35.640625Q516.25 35.1875 516.4844 34.359375Q516.6094 33.84375 516.59375 32.203125Q515.5 33.5 513.875 33.5Q511.84375 33.5 510.71875 32.03125Q509.60938 30.5625 509.60938 28.515625Q509.60938 27.109375 510.125 25.921875Q510.64062 24.71875 511.60938 24.078125Q512.5781 23.421875 513.875 23.421875Q515.625 23.421875 516.75 24.828125L516.75 23.640625L518.2969 23.640625L518.2969 32.15625Q518.2969 34.46875 517.8281 35.421875Q517.3594 36.390625 516.34375 36.9375Q515.3281 37.5 513.84375 37.5Q512.0781 37.5 510.98438 36.703125Q509.90625 35.90625 509.95312 34.3125ZM511.32812 28.390625Q511.32812 30.34375 512.09375 31.234375Q512.875 32.125 514.03125 32.125Q515.1719 32.125 515.9531 31.234375Q516.7344 30.34375 516.7344 28.453125Q516.7344 26.640625 515.9219 25.734375Q515.125 24.8125 514.0 24.8125Q512.8906 24.8125 512.1094 25.71875Q511.32812 26.609375 511.32812 28.390625ZM524.90625 32.0L525.1406 33.484375Q524.4375 33.625 523.875 33.625Q522.96875 33.625 522.46875 33.34375Q521.96875 33.046875 521.7656 32.59375Q521.5625 32.125 521.5625 30.609375L521.5625 24.953125L520.3281 24.953125L520.3281 23.640625L521.5625 23.640625L521.5625 21.203125L523.21875 20.203125L523.21875 23.640625L524.90625 23.640625L524.90625 24.953125L523.21875 24.953125L523.21875 30.703125Q523.21875 31.421875 523.2969 31.625Q523.3906 31.828125 523.59375 31.953125Q523.7969 32.078125 524.1719 32.078125Q524.4375 32.078125 524.90625 32.0ZM526.25 33.5L526.25 19.90625L527.9219 19.90625L527.9219 24.78125Q529.09375 23.421875 530.875 23.421875Q531.96875 23.421875 532.7656 23.859375Q533.5781 24.28125 533.9219 25.046875Q534.28125 25.8125 534.28125 27.25L534.28125 33.5L532.6094 33.5L532.6094 27.25Q532.6094 26.0 532.0625 25.4375Q531.5156 24.859375 530.53125 24.859375Q529.78125 24.859375 529.125 25.25Q528.4844 25.625 528.2031 26.296875Q527.9219 26.953125 527.9219 28.109375L527.9219 33.5L526.25 33.5Z" fill-rule="nonzero"/></svg>