<svg version="1.1" viewBox="0.0 0.0 599.0 256.0" fill="none" stroke="none" stroke-linecap="square" stroke-miterlimit="10" width="599" height="256" xmlns:xlink="http://www.w3.org/1999/xlink" xmlns="http://www.w3.org/2000/svg"><path fill="#ffffff" d="M0 0L599.0 0L599.0 256.0L0 256.0L0 0Z" fill-rule="nonzero"/><path stroke="#cccccc" stroke-width="1.0" stroke-linecap="butt" d="M57.5 213.5L587.5 213.5" fill-rule="nonzero"/><path stroke="#cccccc" stroke-width="1.0" stroke-linecap="butt" d="M57.5 180.5L587.5 180.5" fill-rule="nonzero"/><path stroke="#cccccc" stroke-width="1.0" stroke-linecap="butt" d="M57.5 147.5L587.5 147.5" fill-rule="nonzero"/><path stroke="#cccccc" stroke-width="1.0" stroke-linecap="butt" d="M57.5 114.5L587.5 114.5" fill-rule="nonzero"/><path stroke="#cccccc" stroke-width="1.0" stroke-linecap="butt" d="M57.5 81.5L587.5 81.5" fill-rule="nonzero"/><path stroke="#cccccc" stroke-width="1.0" stroke-linecap="butt" d="M57.5 48.5L587.5 48.5" fill-rule="nonzero"/><clipPath id="id_0"><path d="M57.5 48.476597L587.07074 48.476597L587.07074 213.78723L57.5 213.78723L57.5 48.476597Z" clip-rule="nonzero"/></clipPath><path stroke="#000000" stroke-width="2.0" stroke-linecap="butt" stroke-opacity="0.0" clip-path="url(#id_0)" d="M156.0 214.0L92.0 214.0L92.0 156.0C92.0 154.89543 92.89543 154.0 94.0 154.0L154.0 154.0C155.10457 154.0 156.0 154.89543 156.0 156.0Z" fill-rule="nonzero"/><path fill="#999999" clip-path="url(#id_0)" d="M156.0 214.0L92.0 214.0L92.0 156.0C92.0 154.89543 92.89543 154.0 94.0 154.0L154.0 154.0C155.10457 154.0 156.0 154.89543 156.0 156.0Z" fill-rule="nonzero"/><path stroke="#000000" stroke-width="2.0" stroke-linecap="butt" stroke-opacity="0.0" clip-path="url(#id_0)" d="M255.0 214.0L191.0 214.0L191.0 129.0C191.0 127.89543 191.89543 127.0 193.0 127.0L253.0 127.0C254.10457 127.0 255.0 127.89543 255.0 129.0Z" fill-rule="nonzero"/><path fill="#999999" clip-path="url(#id_0)" d="M255.0 214.0L191.0 214.0L191.0 129.0C191.0 127.89543 191.89543 127.0 193.0 127.0L253.0 127.0C254.10457 127.0 255.0 127.89543 255.0 129.0Z" fill-rule="nonzero"/><path stroke="#000000" stroke-width="2.0" stroke-linecap="butt" stroke-opacity="0.0" clip-path="url(#id_0)" d="M354.0 214.0L290.0 214.0L290.0 77.0C290.0 75.89543 290.89542 75.0 292.0 75.0L352.0 75.0C353.10458 75.0 354.0 75.89543 354.0 77.0Z" fill-rule="nonzero"/><path fill="#ffd966" clip-path="url(#id_0)" d="M354.0 214.0L290.0 214.0L290.0 77.0C290.0 75.89543 290.89542 75.0 292.0 75.0L352.0 75.0C353.10458 75.0 354.0 75.89543 354.0 77.0Z" fill-rule="nonzero"/><path stroke="#000000" stroke-width="2.0" stroke-linecap="butt" stroke-opacity="0.0" clip-path="url(#id_0)" d="M453.0 214.0L389.0 214.0L389.0 73.0C389.0 71.89543 389.89542 71.0 391.0 71.0L451.0 71.0C452.10458 71.0 453.0 71.89543 453.0 73.0Z" fill-rule="nonzero"/><path fill="#6fa8dc" clip-path="url(#id_0)" d="M453.0 214.0L389.0 214.0L389.0 73.0C389.0 71.89543 389.89542 71.0 391.0 71.0L451.0 71.0C452.10458 71.0 453.0 71.89543 453.0 73.0Z" fill-rule="nonzero"/><path stroke="#000000" stroke-width="2.0" stroke-linecap="butt" stroke-opacity="0.0" clip-path="url(#id_0)" d="M552.0 214.0L488.0 214.0L488.0 50.0C488.0 48.89543 488.89542 48.0 490.0 48.0L550.0 48.0C551.10455 48.0 552.0 48.89543 552.0 50.0Z" fill-rule="nonzero"/><path fill="#93c47d" clip-path="url(#id_0)" d="M552.0 214.0L488.0 214.0L488.0 50.0C488.0 48.89543 488.89542 48.0 490.0 48.0L550.0 48.0C551.10455 48.0 552.0 48.89543 552.0 50.0Z" fill-rule="nonzero"/><path stroke="#ffffff" stroke-width="3.0" stroke-linejoin="round" stroke-linecap="round" d="M115.625 122.710556L115.625 123.94493L115.359375 123.94493Q113.671875 123.97618 112.671875 124.94493Q111.671875 125.91368 111.515625 127.66368Q112.40625 126.63243 113.96875 126.63243Q115.453125 126.63243 116.328125 127.679306Q117.21875 128.72618 117.21875 130.38243Q117.21875 132.14806 116.265625 133.21056Q115.3125 134.25743 113.703125 134.25743Q112.0625 134.25743 111.046875 133.00743Q110.03125 131.7418 110.03125 129.77306L110.03125 129.21056Q110.03125 126.06993 111.375 124.41368Q112.71875 122.75743 115.359375 122.710556L115.625 122.710556ZM113.71875 127.835556Q112.984375 127.835556 112.359375 128.28868Q111.734375 128.72618 111.484375 129.39806L111.484375 129.9293Q111.484375 131.33556 112.109375 132.19493Q112.75 133.0543 113.703125 133.0543Q114.671875 133.0543 115.234375 132.33556Q115.796875 131.6168 115.796875 130.46056Q115.796875 129.28868 115.21875 128.56993Q114.65625 127.835556 113.71875 127.835556ZM125.84375 125.69493Q125.84375 126.53868 125.390625 127.210556Q124.953125 127.866806 124.1875 128.2418Q125.078125 128.63243 125.59375 129.3668Q126.109375 130.10118 126.109375 131.02306Q126.109375 132.50743 125.109375 133.38243Q124.125 134.25743 122.5 134.25743Q120.859375 134.25743 119.859375 133.38243Q118.875 132.4918 118.875 131.02306Q118.875 130.10118 119.375 129.3668Q119.890625 128.6168 120.78125 128.2418Q120.015625 127.866806 119.578125 127.210556Q119.140625 126.53868 119.140625 125.69493Q119.140625 124.25743 120.0625 123.41368Q120.984375 122.56993 122.5 122.56993Q124.0 122.56993 124.921875 123.41368Q125.84375 124.25743 125.84375 125.69493ZM124.671875 130.9918Q124.671875 130.03868 124.0625 129.44493Q123.453125 128.83556 122.46875 128.83556Q121.5 128.83556 120.90625 129.4293Q120.328125 130.02306 120.328125 130.9918Q120.328125 131.96056 120.890625 132.52306Q121.46875 133.06993 122.5 133.06993Q123.515625 133.06993 124.09375 132.52306Q124.671875 131.96056 124.671875 130.9918ZM122.5 123.75743Q121.640625 123.75743 121.109375 124.28868Q120.59375 124.804306 120.59375 125.710556Q120.59375 126.585556 121.109375 127.116806Q121.625 127.648056 122.484375 127.648056Q123.359375 127.648056 123.875 127.116806Q124.40625 126.585556 124.40625 125.72618Q124.40625 124.85118 123.859375 124.304306Q123.328125 123.75743 122.5 123.75743ZM127.828125 124.91368Q127.828125 123.88243 128.46875 123.22618Q129.125 122.554306 130.15625 122.554306Q131.1875 122.554306 131.82812 123.22618Q132.48438 123.898056 132.48438 124.960556L132.48438 125.50743Q132.48438 126.53868 131.82812 127.19493Q131.17188 127.85118 130.17188 127.85118Q129.15625 127.85118 128.48438 127.19493Q127.828125 126.53868 127.828125 125.460556L127.828125 124.91368ZM128.90625 125.50743Q128.90625 126.116806 129.25 126.523056Q129.59375 126.91368 130.17188 126.91368Q130.71875 126.91368 131.0625 126.53868Q131.40625 126.148056 131.40625 125.47618L131.40625 124.91368Q131.40625 124.304306 131.0625 123.91368Q130.73438 123.50743 130.15625 123.50743Q129.57812 123.50743 129.23438 123.91368Q128.90625 124.304306 128.90625 124.94493L128.90625 125.50743ZM133.35938 131.3043Q133.35938 130.28868 134.01562 129.63243Q134.67188 128.96056 135.6875 128.96056Q136.71875 128.96056 137.375 129.6168Q138.03125 130.27306 138.03125 131.3668L138.03125 131.91368Q138.03125 132.94493 137.375 133.6168Q136.71875 134.27306 135.70312 134.27306Q134.6875 134.27306 134.01562 133.6168Q133.35938 132.96056 133.35938 131.8668L133.35938 131.3043ZM134.4375 131.91368Q134.4375 132.53868 134.78125 132.9293Q135.125 133.31993 135.70312 133.31993Q136.26562 133.31993 136.59375 132.94493Q136.9375 132.5543 136.9375 131.88243L136.9375 131.3043Q136.9375 130.69493 136.59375 130.3043Q136.26562 129.91368 135.6875 129.91368Q135.14062 129.91368 134.78125 130.3043Q134.4375 130.6793 134.4375 131.33556L134.4375 131.91368ZM130.5 133.2418L129.67188 132.72618L135.23438 123.835556L136.04688 124.35118L130.5 133.2418Z" fill-rule="nonzero"/><path fill="#999999" d="M115.625 122.710556L115.625 123.94493L115.359375 123.94493Q113.671875 123.97618 112.671875 124.94493Q111.671875 125.91368 111.515625 127.66368Q112.40625 126.63243 113.96875 126.63243Q115.453125 126.63243 116.328125 127.679306Q117.21875 128.72618 117.21875 130.38243Q117.21875 132.14806 116.265625 133.21056Q115.3125 134.25743 113.703125 134.25743Q112.0625 134.25743 111.046875 133.00743Q110.03125 131.7418 110.03125 129.77306L110.03125 129.21056Q110.03125 126.06993 111.375 124.41368Q112.71875 122.75743 115.359375 122.710556L115.625 122.710556ZM113.71875 127.835556Q112.984375 127.835556 112.359375 128.28868Q111.734375 128.72618 111.484375 129.39806L111.484375 129.9293Q111.484375 131.33556 112.109375 132.19493Q112.75 133.0543 113.703125 133.0543Q114.671875 133.0543 115.234375 132.33556Q115.796875 131.6168 115.796875 130.46056Q115.796875 129.28868 115.21875 128.56993Q114.65625 127.835556 113.71875 127.835556ZM125.84375 125.69493Q125.84375 126.53868 125.390625 127.210556Q124.953125 127.866806 124.1875 128.2418Q125.078125 128.63243 125.59375 129.3668Q126.109375 130.10118 126.109375 131.02306Q126.109375 132.50743 125.109375 133.38243Q124.125 134.25743 122.5 134.25743Q120.859375 134.25743 119.859375 133.38243Q118.875 132.4918 118.875 131.02306Q118.875 130.10118 119.375 129.3668Q119.890625 128.6168 120.78125 128.2418Q120.015625 127.866806 119.578125 127.210556Q119.140625 126.53868 119.140625 125.69493Q119.140625 124.25743 120.0625 123.41368Q120.984375 122.56993 122.5 122.56993Q124.0 122.56993 124.921875 123.41368Q125.84375 124.25743 125.84375 125.69493ZM124.671875 130.9918Q124.671875 130.03868 124.0625 129.44493Q123.453125 128.83556 122.46875 128.83556Q121.5 128.83556 120.90625 129.4293Q120.328125 130.02306 120.328125 130.9918Q120.328125 131.96056 120.890625 132.52306Q121.46875 133.06993 122.5 133.06993Q123.515625 133.06993 124.09375 132.52306Q124.671875 131.96056 124.671875 130.9918ZM122.5 123.75743Q121.640625 123.75743 121.109375 124.28868Q120.59375 124.804306 120.59375 125.710556Q120.59375 126.585556 121.109375 127.116806Q121.625 127.648056 122.484375 127.648056Q123.359375 127.648056 123.875 127.116806Q124.40625 126.585556 124.40625 125.72618Q124.40625 124.85118 123.859375 124.304306Q123.328125 123.75743 122.5 123.75743ZM127.828125 124.91368Q127.828125 123.88243 128.46875 123.22618Q129.125 122.554306 130.15625 122.554306Q131.1875 122.554306 131.82812 123.22618Q132.48438 123.898056 132.48438 124.960556L132.48438 125.50743Q132.48438 126.53868 131.82812 127.19493Q131.17188 127.85118 130.17188 127.85118Q129.15625 127.85118 128.48438 127.19493Q127.828125 126.53868 127.828125 125.460556L127.828125 124.91368ZM128.90625 125.50743Q128.90625 126.116806 129.25 126.523056Q129.59375 126.91368 130.17188 126.91368Q130.71875 126.91368 131.0625 126.53868Q131.40625 126.148056 131.40625 125.47618L131.40625 124.91368Q131.40625 124.304306 131.0625 123.91368Q130.73438 123.50743 130.15625 123.50743Q129.57812 123.50743 129.23438 123.91368Q128.90625 124.304306 128.90625 124.94493L128.90625 125.50743ZM133.35938 131.3043Q133.35938 130.28868 134.01562 129.63243Q134.67188 128.96056 135.6875 128.96056Q136.71875 128.96056 137.375 129.6168Q138.03125 130.27306 138.03125 131.3668L138.03125 131.91368Q138.03125 132.94493 137.375 133.6168Q136.71875 134.27306 135.70312 134.27306Q134.6875 134.27306 134.01562 133.6168Q133.35938 132.96056 133.35938 131.8668L133.35938 131.3043ZM134.4375 131.91368Q134.4375 132.53868 134.78125 132.9293Q135.125 133.31993 135.70312 133.31993Q136.26562 133.31993 136.59375 132.94493Q136.9375 132.5543 136.9375 131.88243L136.9375 131.3043Q136.9375 130.69493 136.59375 130.3043Q136.26562 129.91368 135.6875 129.91368Q135.14062 129.91368 134.78125 130.3043Q134.4375 130.6793 134.4375 131.33556L134.4375 131.91368ZM130.5 133.2418L129.67188 132.72618L135.23438 123.835556L136.04688 124.35118L130.5 133.2418Z" fill-rule="nonzero"/><path stroke="#ffffff" stroke-width="3.0" stroke-linejoin="round" stroke-linecap="round" d="M216.29688 96.46945L211.57812 107.03195L210.0625 107.03195L214.76562 96.84445L208.60938 96.84445L208.60938 95.65695L216.29688 95.65695L216.29688 96.46945ZM223.625 95.64133L223.625 96.8757L223.35938 96.8757Q221.67188 96.90695 220.67188 97.8757Q219.67188 98.84445 219.51562 100.59445Q220.40625 99.5632 221.96875 99.5632Q223.45312 99.5632 224.32812 100.61008Q225.21875 101.65695 225.21875 103.3132Q225.21875 105.07883 224.26562 106.14133Q223.3125 107.1882 221.70312 107.1882Q220.0625 107.1882 219.04688 105.9382Q218.03125 104.67258 218.03125 102.70383L218.03125 102.14133Q218.03125 99.0007 219.375 97.34445Q220.71875 95.6882 223.35938 95.64133L223.625 95.64133ZM221.71875 100.76633Q220.98438 100.76633 220.35938 101.21945Q219.73438 101.65695 219.48438 102.32883L219.48438 102.86008Q219.48438 104.26633 220.10938 105.1257Q220.75 105.98508 221.70312 105.98508Q222.67188 105.98508 223.23438 105.26633Q223.79688 104.54758 223.79688 103.39133Q223.79688 102.21945 223.21875 101.5007Q222.65625 100.76633 221.71875 100.76633ZM226.82812 97.84445Q226.82812 96.8132 227.46875 96.15695Q228.125 95.48508 229.15625 95.48508Q230.1875 95.48508 230.82812 96.15695Q231.48438 96.82883 231.48438 97.89133L231.48438 98.4382Q231.48438 99.46945 230.82812 100.1257Q230.17188 100.78195 229.17188 100.78195Q228.15625 100.78195 227.48438 100.1257Q226.82812 99.46945 226.82812 98.39133L226.82812 97.84445ZM227.90625 98.4382Q227.90625 99.04758 228.25 99.45383Q228.59375 99.84445 229.17188 99.84445Q229.71875 99.84445 230.0625 99.46945Q230.40625 99.07883 230.40625 98.40695L230.40625 97.84445Q230.40625 97.23508 230.0625 96.84445Q229.73438 96.4382 229.15625 96.4382Q228.57812 96.4382 228.23438 96.84445Q227.90625 97.23508 227.90625 97.8757L227.90625 98.4382ZM232.35938 104.23508Q232.35938 103.21945 233.01562 102.5632Q233.67188 101.89133 234.6875 101.89133Q235.71875 101.89133 236.375 102.54758Q237.03125 103.20383 237.03125 104.29758L237.03125 104.84445Q237.03125 105.8757 236.375 106.54758Q235.71875 107.20383 234.70312 107.20383Q233.6875 107.20383 233.01562 106.54758Q232.35938 105.89133 232.35938 104.79758L232.35938 104.23508ZM233.4375 104.84445Q233.4375 105.46945 233.78125 105.86008Q234.125 106.2507 234.70312 106.2507Q235.26562 106.2507 235.59375 105.8757Q235.9375 105.48508 235.9375 104.8132L235.9375 104.23508Q235.9375 103.6257 235.59375 103.23508Q235.26562 102.84445 234.6875 102.84445Q234.14062 102.84445 233.78125 103.23508Q233.4375 103.61008 233.4375 104.26633L233.4375 104.84445ZM229.5 106.17258L228.67188 105.65695L234.23438 96.76633L235.04688 97.28195L229.5 106.17258Z" fill-rule="nonzero"/><path fill="#999999" d="M216.29688 96.46945L211.57812 107.03195L210.0625 107.03195L214.76562 96.84445L208.60938 96.84445L208.60938 95.65695L216.29688 95.65695L216.29688 96.46945ZM223.625 95.64133L223.625 96.8757L223.35938 96.8757Q221.67188 96.90695 220.67188 97.8757Q219.67188 98.84445 219.51562 100.59445Q220.40625 99.5632 221.96875 99.5632Q223.45312 99.5632 224.32812 100.61008Q225.21875 101.65695 225.21875 103.3132Q225.21875 105.07883 224.26562 106.14133Q223.3125 107.1882 221.70312 107.1882Q220.0625 107.1882 219.04688 105.9382Q218.03125 104.67258 218.03125 102.70383L218.03125 102.14133Q218.03125 99.0007 219.375 97.34445Q220.71875 95.6882 223.35938 95.64133L223.625 95.64133ZM221.71875 100.76633Q220.98438 100.76633 220.35938 101.21945Q219.73438 101.65695 219.48438 102.32883L219.48438 102.86008Q219.48438 104.26633 220.10938 105.1257Q220.75 105.98508 221.70312 105.98508Q222.67188 105.98508 223.23438 105.26633Q223.79688 104.54758 223.79688 103.39133Q223.79688 102.21945 223.21875 101.5007Q222.65625 100.76633 221.71875 100.76633ZM226.82812 97.84445Q226.82812 96.8132 227.46875 96.15695Q228.125 95.48508 229.15625 95.48508Q230.1875 95.48508 230.82812 96.15695Q231.48438 96.82883 231.48438 97.89133L231.48438 98.4382Q231.48438 99.46945 230.82812 100.1257Q230.17188 100.78195 229.17188 100.78195Q228.15625 100.78195 227.48438 100.1257Q226.82812 99.46945 226.82812 98.39133L226.82812 97.84445ZM227.90625 98.4382Q227.90625 99.04758 228.25 99.45383Q228.59375 99.84445 229.17188 99.84445Q229.71875 99.84445 230.0625 99.46945Q230.40625 99.07883 230.40625 98.40695L230.40625 97.84445Q230.40625 97.23508 230.0625 96.84445Q229.73438 96.4382 229.15625 96.4382Q228.57812 96.4382 228.23438 96.84445Q227.90625 97.23508 227.90625 97.8757L227.90625 98.4382ZM232.35938 104.23508Q232.35938 103.21945 233.01562 102.5632Q233.67188 101.89133 234.6875 101.89133Q235.71875 101.89133 236.375 102.54758Q237.03125 103.20383 237.03125 104.29758L237.03125 104.84445Q237.03125 105.8757 236.375 106.54758Q235.71875 107.20383 234.70312 107.20383Q233.6875 107.20383 233.01562 106.54758Q232.35938 105.89133 232.35938 104.79758L232.35938 104.23508ZM233.4375 104.84445Q233.4375 105.46945 233.78125 105.86008Q234.125 106.2507 234.70312 106.2507Q235.26562 106.2507 235.59375 105.8757Q235.9375 105.48508 235.9375 104.8132L235.9375 104.23508Q235.9375 103.6257 235.59375 103.23508Q235.26562 102.84445 234.6875 102.84445Q234.14062 102.84445 233.78125 103.23508Q233.4375 103.61008 233.4375 104.26633L233.4375 104.84445ZM229.5 106.17258L228.67188 105.65695L234.23438 96.76633L235.04688 97.28195L229.5 106.17258Z" fill-rule="nonzero"/><path fill="#ffd966" d="M313.48438 49.71638Q313.03125 50.24763 312.40625 50.575756Q311.78125 50.90388 311.03125 50.90388Q310.04688 50.90388 309.3125 50.419506Q308.57812 49.93513 308.17188 49.06013Q307.78125 48.18513 307.78125 47.12263Q307.78125 45.982006 308.21875 45.075756Q308.65625 44.15388 309.45312 43.669506Q310.25 43.18513 311.3125 43.18513Q313.0 43.18513 313.96875 44.450756Q314.9375 45.700756 314.9375 47.888256L314.9375 48.31013Q314.9375 51.62263 313.625 53.15388Q312.3125 54.68513 309.67188 54.732006L309.39062 54.732006L309.39062 53.49763L309.6875 53.49763Q311.48438 53.46638 312.4375 52.575756Q313.40625 51.669506 313.48438 49.71638ZM311.26562 49.71638Q311.98438 49.71638 312.59375 49.27888Q313.21875 48.825756 313.5 48.169506L313.5 47.59138Q313.5 46.169506 312.875 45.27888Q312.26562 44.388256 311.3125 44.388256Q310.35938 44.388256 309.78125 45.12263Q309.20312 45.84138 309.20312 47.044506Q309.20312 48.200756 309.76562 48.96638Q310.32812 49.71638 311.26562 49.71638ZM324.40625 54.71638L316.95312 54.71638L316.95312 53.669506L320.89062 49.294506Q321.76562 48.31013 322.09375 47.68513Q322.42188 47.06013 322.42188 46.40388Q322.42188 45.513256 321.875 44.950756Q321.34375 44.37263 320.45312 44.37263Q319.375 44.37263 318.76562 44.982006Q318.17188 45.59138 318.17188 46.68513L316.73438 46.68513Q316.73438 45.12263 317.73438 44.15388Q318.75 43.18513 320.45312 43.18513Q322.03125 43.18513 322.95312 44.013256Q323.875 44.84138 323.875 46.232006Q323.875 47.90388 321.73438 50.232006L318.6875 53.52888L324.40625 53.52888L324.40625 54.71638ZM325.82812 45.52888Q325.82812 44.49763 326.46875 43.84138Q327.125 43.169506 328.15625 43.169506Q329.1875 43.169506 329.82812 43.84138Q330.48438 44.513256 330.48438 45.575756L330.48438 46.12263Q330.48438 47.15388 329.82812 47.81013Q329.17188 48.46638 328.17188 48.46638Q327.15625 48.46638 326.48438 47.81013Q325.82812 47.15388 325.82812 46.075756L325.82812 45.52888ZM326.90625 46.12263Q326.90625 46.732006 327.25 47.138256Q327.59375 47.52888 328.17188 47.52888Q328.71875 47.52888 329.0625 47.15388Q329.40625 46.763256 329.40625 46.09138L329.40625 45.52888Q329.40625 44.919506 329.0625 44.52888Q328.73438 44.12263 328.15625 44.12263Q327.57812 44.12263 327.23438 44.52888Q326.90625 44.919506 326.90625 45.56013L326.90625 46.12263ZM331.35938 51.919506Q331.35938 50.90388 332.01562 50.24763Q332.67188 49.575756 333.6875 49.575756Q334.71875 49.575756 335.375 50.232006Q336.03125 50.888256 336.03125 51.982006L336.03125 52.52888Q336.03125 53.56013 335.375 54.232006Q334.71875 54.888256 333.70312 54.888256Q332.6875 54.888256 332.01562 54.232006Q331.35938 53.575756 331.35938 52.482006L331.35938 51.919506ZM332.4375 52.52888Q332.4375 53.15388 332.78125 53.544506Q333.125 53.93513 333.70312 53.93513Q334.26562 53.93513 334.59375 53.56013Q334.9375 53.169506 334.9375 52.49763L334.9375 51.919506Q334.9375 51.31013 334.59375 50.919506Q334.26562 50.52888 333.6875 50.52888Q333.14062 50.52888 332.78125 50.919506Q332.4375 51.294506 332.4375 51.950756L332.4375 52.52888ZM328.5 53.857006L327.67188 53.34138L333.23438 44.450756L334.04688 44.96638L328.5 53.857006Z" fill-rule="nonzero"/><path stroke="#ffffff" stroke-width="3.0" stroke-linejoin="round" stroke-linecap="round" d="M412.48438 45.769405Q412.03125 46.300655 411.40625 46.62878Q410.78125 46.956905 410.03125 46.956905Q409.04688 46.956905 408.3125 46.47253Q407.57812 45.988155 407.17188 45.113155Q406.78125 44.238155 406.78125 43.175655Q406.78125 42.03503 407.21875 41.12878Q407.65625 40.206905 408.45312 39.72253Q409.25 39.238155 410.3125 39.238155Q412.0 39.238155 412.96875 40.50378Q413.9375 41.75378 413.9375 43.94128L413.9375 44.363155Q413.9375 47.675655 412.625 49.206905Q411.3125 50.738155 408.67188 50.78503L408.39062 50.78503L408.39062 49.550655L408.6875 49.550655Q410.48438 49.519405 411.4375 48.62878Q412.40625 47.72253 412.48438 45.769405ZM410.26562 45.769405Q410.98438 45.769405 411.59375 45.331905Q412.21875 44.87878 412.5 44.22253L412.5 43.644405Q412.5 42.22253 411.875 41.331905Q411.26562 40.44128 410.3125 40.44128Q409.35938 40.44128 408.78125 41.175655Q408.20312 41.894405 408.20312 43.09753Q408.20312 44.25378 408.76562 45.019405Q409.32812 45.769405 410.26562 45.769405ZM418.04688 44.37878L419.14062 44.37878Q420.15625 44.363155 420.73438 43.84753Q421.32812 43.31628 421.32812 42.425655Q421.32812 40.425655 419.34375 40.425655Q418.40625 40.425655 417.84375 40.956905Q417.28125 41.488155 417.28125 42.37878L415.84375 42.37878Q415.84375 41.019405 416.82812 40.12878Q417.8125 39.238155 419.34375 39.238155Q420.95312 39.238155 421.85938 40.09753Q422.78125 40.94128 422.78125 42.456905Q422.78125 43.19128 422.29688 43.894405Q421.8125 44.581905 420.98438 44.925655Q421.92188 45.22253 422.4375 45.91003Q422.95312 46.59753 422.95312 47.59753Q422.95312 49.12878 421.95312 50.03503Q420.95312 50.925655 419.34375 50.925655Q417.75 50.925655 416.73438 50.06628Q415.73438 49.19128 415.73438 47.769405L417.1875 47.769405Q417.1875 48.66003 417.76562 49.206905Q418.35938 49.738155 419.34375 49.738155Q420.39062 49.738155 420.9375 49.19128Q421.5 48.644405 421.5 47.62878Q421.5 46.62878 420.89062 46.09753Q420.28125 45.56628 419.14062 45.550655L418.04688 45.550655L418.04688 44.37878ZM424.82812 41.581905Q424.82812 40.550655 425.46875 39.894405Q426.125 39.22253 427.15625 39.22253Q428.1875 39.22253 428.82812 39.894405Q429.48438 40.56628 429.48438 41.62878L429.48438 42.175655Q429.48438 43.206905 428.82812 43.863155Q428.17188 44.519405 427.17188 44.519405Q426.15625 44.519405 425.48438 43.863155Q424.82812 43.206905 424.82812 42.12878L424.82812 41.581905ZM425.90625 42.175655Q425.90625 42.78503 426.25 43.19128Q426.59375 43.581905 427.17188 43.581905Q427.71875 43.581905 428.0625 43.206905Q428.40625 42.81628 428.40625 42.144405L428.40625 41.581905Q428.40625 40.97253 428.0625 40.581905Q427.73438 40.175655 427.15625 40.175655Q426.57812 40.175655 426.23438 40.581905Q425.90625 40.97253 425.90625 41.613155L425.90625 42.175655ZM430.35938 47.97253Q430.35938 46.956905 431.01562 46.300655Q431.67188 45.62878 432.6875 45.62878Q433.71875 45.62878 434.375 46.28503Q435.03125 46.94128 435.03125 48.03503L435.03125 48.581905Q435.03125 49.613155 434.375 50.28503Q433.71875 50.94128 432.70312 50.94128Q431.6875 50.94128 431.01562 50.28503Q430.35938 49.62878 430.35938 48.53503L430.35938 47.97253ZM431.4375 48.581905Q431.4375 49.206905 431.78125 49.59753Q432.125 49.988155 432.70312 49.988155Q433.26562 49.988155 433.59375 49.613155Q433.9375 49.22253 433.9375 48.550655L433.9375 47.97253Q433.9375 47.363155 433.59375 46.97253Q433.26562 46.581905 432.6875 46.581905Q432.14062 46.581905 431.78125 46.97253Q431.4375 47.34753 431.4375 48.00378L431.4375 48.581905ZM427.5 49.91003L426.67188 49.394405L432.23438 40.50378L433.04688 41.019405L427.5 49.91003Z" fill-rule="nonzero"/><path fill="#6fa8dc" d="M412.48438 45.769405Q412.03125 46.300655 411.40625 46.62878Q410.78125 46.956905 410.03125 46.956905Q409.04688 46.956905 408.3125 46.47253Q407.57812 45.988155 407.17188 45.113155Q406.78125 44.238155 406.78125 43.175655Q406.78125 42.03503 407.21875 41.12878Q407.65625 40.206905 408.45312 39.72253Q409.25 39.238155 410.3125 39.238155Q412.0 39.238155 412.96875 40.50378Q413.9375 41.75378 413.9375 43.94128L413.9375 44.363155Q413.9375 47.675655 412.625 49.206905Q411.3125 50.738155 408.67188 50.78503L408.39062 50.78503L408.39062 49.550655L408.6875 49.550655Q410.48438 49.519405 411.4375 48.62878Q412.40625 47.72253 412.48438 45.769405ZM410.26562 45.769405Q410.98438 45.769405 411.59375 45.331905Q412.21875 44.87878 412.5 44.22253L412.5 43.644405Q412.5 42.22253 411.875 41.331905Q411.26562 40.44128 410.3125 40.44128Q409.35938 40.44128 408.78125 41.175655Q408.20312 41.894405 408.20312 43.09753Q408.20312 44.25378 408.76562 45.019405Q409.32812 45.769405 410.26562 45.769405ZM418.04688 44.37878L419.14062 44.37878Q420.15625 44.363155 420.73438 43.84753Q421.32812 43.31628 421.32812 42.425655Q421.32812 40.425655 419.34375 40.425655Q418.40625 40.425655 417.84375 40.956905Q417.28125 41.488155 417.28125 42.37878L415.84375 42.37878Q415.84375 41.019405 416.82812 40.12878Q417.8125 39.238155 419.34375 39.238155Q420.95312 39.238155 421.85938 40.09753Q422.78125 40.94128 422.78125 42.456905Q422.78125 43.19128 422.29688 43.894405Q421.8125 44.581905 420.98438 44.925655Q421.92188 45.22253 422.4375 45.91003Q422.95312 46.59753 422.95312 47.59753Q422.95312 49.12878 421.95312 50.03503Q420.95312 50.925655 419.34375 50.925655Q417.75 50.925655 416.73438 50.06628Q415.73438 49.19128 415.73438 47.769405L417.1875 47.769405Q417.1875 48.66003 417.76562 49.206905Q418.35938 49.738155 419.34375 49.738155Q420.39062 49.738155 420.9375 49.19128Q421.5 48.644405 421.5 47.62878Q421.5 46.62878 420.89062 46.09753Q420.28125 45.56628 419.14062 45.550655L418.04688 45.550655L418.04688 44.37878ZM424.82812 41.581905Q424.82812 40.550655 425.46875 39.894405Q426.125 39.22253 427.15625 39.22253Q428.1875 39.22253 428.82812 39.894405Q429.48438 40.56628 429.48438 41.62878L429.48438 42.175655Q429.48438 43.206905 428.82812 43.863155Q428.17188 44.519405 427.17188 44.519405Q426.15625 44.519405 425.48438 43.863155Q424.82812 43.206905 424.82812 42.12878L424.82812 41.581905ZM425.90625 42.175655Q425.90625 42.78503 426.25 43.19128Q426.59375 43.581905 427.17188 43.581905Q427.71875 43.581905 428.0625 43.206905Q428.40625 42.81628 428.40625 42.144405L428.40625 41.581905Q428.40625 40.97253 428.0625 40.581905Q427.73438 40.175655 427.15625 40.175655Q426.57812 40.175655 426.23438 40.581905Q425.90625 40.97253 425.90625 41.613155L425.90625 42.175655ZM430.35938 47.97253Q430.35938 46.956905 431.01562 46.300655Q431.67188 45.62878 432.6875 45.62878Q433.71875 45.62878 434.375 46.28503Q435.03125 46.94128 435.03125 48.03503L435.03125 48.581905Q435.03125 49.613155 434.375 50.28503Q433.71875 50.94128 432.70312 50.94128Q431.6875 50.94128 431.01562 50.28503Q430.35938 49.62878 430.35938 48.53503L430.35938 47.97253ZM431.4375 48.581905Q431.4375 49.206905 431.78125 49.59753Q432.125 49.988155 432.70312 49.988155Q433.26562 49.988155 433.59375 49.613155Q433.9375 49.22253 433.9375 48.550655L433.9375 47.97253Q433.9375 47.363155 433.59375 46.97253Q433.26562 46.581905 432.6875 46.581905Q432.14062 46.581905 431.78125 46.97253Q431.4375 47.34753 431.4375 48.00378L431.4375 48.581905ZM427.5 49.91003L426.67188 49.394405L432.23438 40.50378L433.04688 41.019405L427.5 49.91003Z" fill-rule="nonzero"/><path stroke="#ffffff" stroke-width="3.0" stroke-linejoin="round" stroke-linecap="round" d="M506.20312 28.476595L504.75 28.476595L504.75 18.83597L501.82812 19.914095L501.82812 18.601595L505.96875 17.039095L506.20312 17.039095L506.20312 28.476595ZM517.5781 23.61722Q517.5781 26.164095 516.7031 27.39847Q515.84375 28.632845 514.0 28.632845Q512.1875 28.632845 511.3125 27.42972Q510.4375 26.21097 510.40625 23.820345L510.40625 21.882845Q510.40625 19.382845 511.26562 18.164095Q512.1406 16.945345 513.9844 16.945345Q515.8281 16.945345 516.6875 18.11722Q517.5625 19.289095 517.5781 21.74222L517.5781 23.61722ZM516.1406 21.64847Q516.1406 19.80472 515.625 18.976595Q515.1094 18.132845 513.9844 18.132845Q512.875 18.132845 512.3594 18.976595Q511.85938 19.80472 511.84375 21.539095L511.84375 23.851595Q511.84375 25.695345 512.375 26.570345Q512.9219 27.445345 514.0 27.445345Q515.0781 27.445345 515.59375 26.61722Q516.1094 25.789095 516.1406 24.007845L516.1406 21.64847ZM526.5781 23.61722Q526.5781 26.164095 525.7031 27.39847Q524.84375 28.632845 523.0 28.632845Q521.1875 28.632845 520.3125 27.42972Q519.4375 26.21097 519.40625 23.820345L519.40625 21.882845Q519.40625 19.382845 520.2656 18.164095Q521.1406 16.945345 522.9844 16.945345Q524.8281 16.945345 525.6875 18.11722Q526.5625 19.289095 526.5781 21.74222L526.5781 23.61722ZM525.1406 21.64847Q525.1406 19.80472 524.625 18.976595Q524.1094 18.132845 522.9844 18.132845Q521.875 18.132845 521.3594 18.976595Q520.8594 19.80472 520.84375 21.539095L520.84375 23.851595Q520.84375 25.695345 521.375 26.570345Q521.9219 27.445345 523.0 27.445345Q524.0781 27.445345 524.59375 26.61722Q525.1094 25.789095 525.1406 24.007845L525.1406 21.64847ZM528.3281 19.289095Q528.3281 18.257845 528.96875 17.601595Q529.625 16.92972 530.65625 16.92972Q531.6875 16.92972 532.3281 17.601595Q532.9844 18.27347 532.9844 19.33597L532.9844 19.882845Q532.9844 20.914095 532.3281 21.570345Q531.6719 22.226595 530.6719 22.226595Q529.65625 22.226595 528.9844 21.570345Q528.3281 20.914095 528.3281 19.83597L528.3281 19.289095ZM529.40625 19.882845Q529.40625 20.49222 529.75 20.89847Q530.09375 21.289095 530.6719 21.289095Q531.21875 21.289095 531.5625 20.914095Q531.90625 20.52347 531.90625 19.851595L531.90625 19.289095Q531.90625 18.67972 531.5625 18.289095Q531.2344 17.882845 530.65625 17.882845Q530.0781 17.882845 529.7344 18.289095Q529.40625 18.67972 529.40625 19.320345L529.40625 19.882845ZM533.8594 25.67972Q533.8594 24.664095 534.5156 24.007845Q535.1719 23.33597 536.1875 23.33597Q537.21875 23.33597 537.875 23.99222Q538.53125 24.64847 538.53125 25.74222L538.53125 26.289095Q538.53125 27.320345 537.875 27.99222Q537.21875 28.64847 536.2031 28.64847Q535.1875 28.64847 534.5156 27.99222Q533.8594 27.33597 533.8594 26.24222L533.8594 25.67972ZM534.9375 26.289095Q534.9375 26.914095 535.28125 27.30472Q535.625 27.695345 536.2031 27.695345Q536.7656 27.695345 537.09375 27.320345Q537.4375 26.92972 537.4375 26.257845L537.4375 25.67972Q537.4375 25.070345 537.09375 24.67972Q536.7656 24.289095 536.1875 24.289095Q535.6406 24.289095 535.28125 24.67972Q534.9375 25.05472 534.9375 25.71097L534.9375 26.289095ZM531.0 27.61722L530.1719 27.101595L535.7344 18.21097L536.5469 18.726595L531.0 27.61722Z" fill-rule="nonzero"/><path fill="#93c47d" d="M506.20312 28.476595L504.75 28.476595L504.75 18.83597L501.82812 19.914095L501.82812 18.601595L505.96875 17.039095L506.20312 17.039095L506.20312 28.476595ZM517.5781 23.61722Q517.5781 26.164095 516.7031 27.39847Q515.84375 28.632845 514.0 28.632845Q512.1875 28.632845 511.3125 27.42972Q510.4375 26.21097 510.40625 23.820345L510.40625 21.882845Q510.40625 19.382845 511.26562 18.164095Q512.1406 16.945345 513.9844 16.945345Q515.8281 16.945345 516.6875 18.11722Q517.5625 19.289095 517.5781 21.74222L517.5781 23.61722ZM516.1406 21.64847Q516.1406 19.80472 515.625 18.976595Q515.1094 18.132845 513.9844 18.132845Q512.875 18.132845 512.3594 18.976595Q511.85938 19.80472 511.84375 21.539095L511.84375 23.851595Q511.84375 25.695345 512.375 26.570345Q512.9219 27.445345 514.0 27.445345Q515.0781 27.445345 515.59375 26.61722Q516.1094 25.789095 516.1406 24.007845L516.1406 21.64847ZM526.5781 23.61722Q526.5781 26.164095 525.7031 27.39847Q524.84375 28.632845 523.0 28.632845Q521.1875 28.632845 520.3125 27.42972Q519.4375 26.21097 519.40625 23.820345L519.40625 21.882845Q519.40625 19.382845 520.2656 18.164095Q521.1406 16.945345 522.9844 16.945345Q524.8281 16.945345 525.6875 18.11722Q526.5625 19.289095 526.5781 21.74222L526.5781 23.61722ZM525.1406 21.64847Q525.1406 19.80472 524.625 18.976595Q524.1094 18.132845 522.9844 18.132845Q521.875 18.132845 521.3594 18.976595Q520.8594 19.80472 520.84375 21.539095L520.84375 23.851595Q520.84375 25.695345 521.375 26.570345Q521.9219 27.445345 523.0 27.445345Q524.0781 27.445345 524.59375 26.61722Q525.1094 25.789095 525.1406 24.007845L525.1406 21.64847ZM528.3281 19.289095Q528.3281 18.257845 528.96875 17.601595Q529.625 16.92972 530.65625 16.92972Q531.6875 16.92972 532.3281 17.601595Q532.9844 18.27347 532.9844 19.33597L532.9844 19.882845Q532.9844 20.914095 532.3281 21.570345Q531.6719 22.226595 530.6719 22.226595Q529.65625 22.226595 528.9844 21.570345Q528.3281 20.914095 528.3281 19.83597L528.3281 19.289095ZM529.40625 19.882845Q529.40625 20.49222 529.75 20.89847Q530.09375 21.289095 530.6719 21.289095Q531.21875 21.289095 531.5625 20.914095Q531.90625 20.52347 531.90625 19.851595L531.90625 19.289095Q531.90625 18.67972 531.5625 18.289095Q531.2344 17.882845 530.65625 17.882845Q530.0781 17.882845 529.7344 18.289095Q529.40625 18.67972 529.40625 19.320345L529.40625 19.882845ZM533.8594 25.67972Q533.8594 24.664095 534.5156 24.007845Q535.1719 23.33597 536.1875 23.33597Q537.21875 23.33597 537.875 23.99222Q538.53125 24.64847 538.53125 25.74222L538.53125 26.289095Q538.53125 27.320345 537.875 27.99222Q537.21875 28.64847 536.2031 28.64847Q535.1875 28.64847 534.5156 27.99222Q533.8594 27.33597 533.8594 26.24222L533.8594 25.67972ZM534.9375 26.289095Q534.9375 26.914095 535.28125 27.30472Q535.625 27.695345 536.2031 27.695345Q536.7656 27.695345 537.09375 27.320345Q537.4375 26.92972 537.4375 26.257845L537.4375 25.67972Q537.4375 25.070345 537.09375 24.67972Q536.7656 24.289095 536.1875 24.289095Q535.6406 24.289095 535.28125 24.67972Q534.9375 25.05472 534.9375 25.71097L534.9375 26.289095ZM531.0 27.61722L530.1719 27.101595L535.7344 18.21097L536.5469 18.726595L531.0 27.61722Z" fill-rule="nonzero"/><path fill="#666666" d="M18.171875 216.28723L19.640625 216.16223Q19.8125 217.24036 20.40625 217.78723Q21.0 218.31848 21.84375 218.31848Q22.859375 218.31848 23.5625 217.55286Q24.265625 216.78723 24.265625 215.5216Q24.265625 214.31848 23.59375 213.63098Q22.921875 212.92786 21.828125 212.92786Q21.140625 212.92786 20.59375 213.24036Q20.046875 213.55286 19.734375 214.03723L18.421875 213.86536L19.53125 207.99036L25.21875 207.99036L25.21875 209.3341L20.65625 209.3341L20.03125 212.41223Q21.0625 211.69348 22.203125 211.69348Q23.703125 211.69348 24.734375 212.74036Q25.765625 213.7716 25.765625 215.3966Q25.765625 216.9591 24.859375 218.0841Q23.75 219.49036 21.84375 219.49036Q20.28125 219.49036 19.296875 218.61536Q18.3125 217.72473 18.171875 216.28723ZM27.171875 213.63098Q27.171875 211.59973 27.578125 210.36536Q28.0 209.13098 28.828125 208.4591Q29.65625 207.78723 30.90625 207.78723Q31.828125 207.78723 32.515625 208.16223Q33.21875 208.5216 33.671875 209.22473Q34.125 209.92786 34.375 210.92786Q34.640625 211.92786 34.640625 213.63098Q34.640625 215.6466 34.21875 216.8966Q33.8125 218.13098 32.984375 218.81848Q32.15625 219.49036 30.90625 219.49036Q29.25 219.49036 28.296875 218.28723Q27.171875 216.86536 27.171875 213.63098ZM28.609375 213.63098Q28.609375 216.4591 29.265625 217.3966Q29.9375 218.31848 30.90625 218.31848Q31.875 218.31848 32.53125 217.38098Q33.1875 216.44348 33.1875 213.63098Q33.1875 210.80286 32.53125 209.88098Q31.875 208.94348 30.890625 208.94348Q29.921875 208.94348 29.34375 209.7716Q28.609375 210.81848 28.609375 213.63098ZM36.4375 210.5841Q36.4375 209.34973 37.046875 208.49036Q37.671875 207.63098 38.84375 207.63098Q39.921875 207.63098 40.625 208.41223Q41.328125 209.17786 41.328125 210.66223Q41.328125 212.11536 40.609375 212.91223Q39.90625 213.69348 38.859375 213.69348Q37.8125 213.69348 37.125 212.92786Q36.4375 212.1466 36.4375 210.5841ZM38.875 208.59973Q38.359375 208.59973 38.0 209.05286Q37.65625 209.50598 37.65625 210.72473Q37.65625 211.81848 38.0 212.2716Q38.359375 212.72473 38.875 212.72473Q39.40625 212.72473 39.75 212.2716Q40.109375 211.81848 40.109375 210.61536Q40.109375 209.50598 39.75 209.05286Q39.40625 208.59973 38.875 208.59973ZM38.890625 219.7091L45.15625 207.63098L46.296875 207.63098L40.046875 219.7091L38.890625 219.7091ZM43.84375 216.59973Q43.84375 215.36536 44.453125 214.50598Q45.078125 213.6466 46.25 213.6466Q47.328125 213.6466 48.03125 214.42786Q48.75 215.19348 48.75 216.67786Q48.75 218.13098 48.03125 218.92786Q47.3125 219.7091 46.265625 219.7091Q45.21875 219.7091 44.53125 218.92786Q43.84375 218.1466 43.84375 216.59973ZM46.296875 214.61536Q45.765625 214.61536 45.40625 215.06848Q45.0625 215.5216 45.0625 216.74036Q45.0625 217.8341 45.40625 218.28723Q45.765625 218.74036 46.28125 218.74036Q46.828125 218.74036 47.171875 218.28723Q47.515625 217.8341 47.515625 216.63098Q47.515625 215.5216 47.15625 215.06848Q46.8125 214.61536 46.296875 214.61536Z" fill-rule="nonzero"/><path fill="#666666" d="M25.46875 177.56886L24.0625 177.67824Q23.875 176.85011 23.53125 176.47511Q22.96875 175.88136 22.125 175.88136Q21.453125 175.88136 20.953125 176.25636Q20.28125 176.74074 19.890625 177.67824Q19.515625 178.60011 19.5 180.31886Q20.015625 179.53761 20.75 179.16261Q21.484375 178.78761 22.28125 178.78761Q23.6875 178.78761 24.671875 179.83449Q25.671875 180.86574 25.671875 182.50636Q25.671875 183.58449 25.203125 184.50636Q24.734375 185.42824 23.921875 185.92824Q23.109375 186.42824 22.078125 186.42824Q20.328125 186.42824 19.21875 185.13136Q18.109375 183.83449 18.109375 180.86574Q18.109375 177.53761 19.328125 176.03761Q20.40625 174.72511 22.21875 174.72511Q23.5625 174.72511 24.421875 175.49074Q25.296875 176.24074 25.46875 177.56886ZM19.71875 182.50636Q19.71875 183.24074 20.03125 183.91261Q20.34375 184.56886 20.890625 184.91261Q21.453125 185.25636 22.0625 185.25636Q22.953125 185.25636 23.59375 184.53761Q24.234375 183.81886 24.234375 182.58449Q24.234375 181.39699 23.59375 180.72511Q22.96875 180.03761 22.0 180.03761Q21.046875 180.03761 20.375 180.72511Q19.71875 181.39699 19.71875 182.50636ZM27.171875 180.56886Q27.171875 178.53761 27.578125 177.30324Q28.0 176.06886 28.828125 175.39699Q29.65625 174.72511 30.90625 174.72511Q31.828125 174.72511 32.515625 175.10011Q33.21875 175.45949 33.671875 176.16261Q34.125 176.86574 34.375 177.86574Q34.640625 178.86574 34.640625 180.56886Q34.640625 182.58449 34.21875 183.83449Q33.8125 185.06886 32.984375 185.75636Q32.15625 186.42824 30.90625 186.42824Q29.25 186.42824 28.296875 185.22511Q27.171875 183.80324 27.171875 180.56886ZM28.609375 180.56886Q28.609375 183.39699 29.265625 184.33449Q29.9375 185.25636 30.90625 185.25636Q31.875 185.25636 32.53125 184.31886Q33.1875 183.38136 33.1875 180.56886Q33.1875 177.74074 32.53125 176.81886Q31.875 175.88136 30.890625 175.88136Q29.921875 175.88136 29.34375 176.70949Q28.609375 177.75636 28.609375 180.56886ZM36.4375 177.52199Q36.4375 176.28761 37.046875 175.42824Q37.671875 174.56886 38.84375 174.56886Q39.921875 174.56886 40.625 175.35011Q41.328125 176.11574 41.328125 177.60011Q41.328125 179.05324 40.609375 179.85011Q39.90625 180.63136 38.859375 180.63136Q37.8125 180.63136 37.125 179.86574Q36.4375 179.08449 36.4375 177.52199ZM38.875 175.53761Q38.359375 175.53761 38.0 175.99074Q37.65625 176.44386 37.65625 177.66261Q37.65625 178.75636 38.0 179.20949Q38.359375 179.66261 38.875 179.66261Q39.40625 179.66261 39.75 179.20949Q40.109375 178.75636 40.109375 177.55324Q40.109375 176.44386 39.75 175.99074Q39.40625 175.53761 38.875 175.53761ZM38.890625 186.64699L45.15625 174.56886L46.296875 174.56886L40.046875 186.64699L38.890625 186.64699ZM43.84375 183.53761Q43.84375 182.30324 44.453125 181.44386Q45.078125 180.58449 46.25 180.58449Q47.328125 180.58449 48.03125 181.36574Q48.75 182.13136 48.75 183.61574Q48.75 185.06886 48.03125 185.86574Q47.3125 186.64699 46.265625 186.64699Q45.21875 186.64699 44.53125 185.86574Q43.84375 185.08449 43.84375 183.53761ZM46.296875 181.55324Q45.765625 181.55324 45.40625 182.00636Q45.0625 182.45949 45.0625 183.67824Q45.0625 184.77199 45.40625 185.22511Q45.765625 185.67824 46.28125 185.67824Q46.828125 185.67824 47.171875 185.22511Q47.515625 184.77199 47.515625 183.56886Q47.515625 182.45949 47.15625 182.00636Q46.8125 181.55324 46.296875 181.55324Z" fill-rule="nonzero"/><path fill="#666666" d="M18.265625 143.20985L18.265625 141.85048L25.671875 141.85048L25.671875 142.94423Q24.578125 144.1161 23.5 146.0536Q22.4375 147.97548 21.84375 150.00673Q21.421875 151.44423 21.3125 153.16298L19.859375 153.16298Q19.890625 151.8036 20.390625 149.89735Q20.90625 147.97548 21.84375 146.20985Q22.796875 144.4286 23.875 143.20985L18.265625 143.20985ZM27.171875 147.50673Q27.171875 145.47548 27.578125 144.2411Q28.0 143.00673 28.828125 142.33485Q29.65625 141.66298 30.90625 141.66298Q31.828125 141.66298 32.515625 142.03798Q33.21875 142.39735 33.671875 143.10048Q34.125 143.8036 34.375 144.8036Q34.640625 145.8036 34.640625 147.50673Q34.640625 149.52235 34.21875 150.77235Q33.8125 152.00673 32.984375 152.69423Q32.15625 153.3661 30.90625 153.3661Q29.25 153.3661 28.296875 152.16298Q27.171875 150.7411 27.171875 147.50673ZM28.609375 147.50673Q28.609375 150.33485 29.265625 151.27235Q29.9375 152.19423 30.90625 152.19423Q31.875 152.19423 32.53125 151.25673Q33.1875 150.31923 33.1875 147.50673Q33.1875 144.6786 32.53125 143.75673Q31.875 142.81923 30.890625 142.81923Q29.921875 142.81923 29.34375 143.64735Q28.609375 144.69423 28.609375 147.50673ZM36.4375 144.45985Q36.4375 143.22548 37.046875 142.3661Q37.671875 141.50673 38.84375 141.50673Q39.921875 141.50673 40.625 142.28798Q41.328125 143.0536 41.328125 144.53798Q41.328125 145.9911 40.609375 146.78798Q39.90625 147.56923 38.859375 147.56923Q37.8125 147.56923 37.125 146.8036Q36.4375 146.02235 36.4375 144.45985ZM38.875 142.47548Q38.359375 142.47548 38.0 142.9286Q37.65625 143.38173 37.65625 144.60048Q37.65625 145.69423 38.0 146.14735Q38.359375 146.60048 38.875 146.60048Q39.40625 146.60048 39.75 146.14735Q40.109375 145.69423 40.109375 144.4911Q40.109375 143.38173 39.75 142.9286Q39.40625 142.47548 38.875 142.47548ZM38.890625 153.58485L45.15625 141.50673L46.296875 141.50673L40.046875 153.58485L38.890625 153.58485ZM43.84375 150.47548Q43.84375 149.2411 44.453125 148.38173Q45.078125 147.52235 46.25 147.52235Q47.328125 147.52235 48.03125 148.3036Q48.75 149.06923 48.75 150.5536Q48.75 152.00673 48.03125 152.8036Q47.3125 153.58485 46.265625 153.58485Q45.21875 153.58485 44.53125 152.8036Q43.84375 152.02235 43.84375 150.47548ZM46.296875 148.4911Q45.765625 148.4911 45.40625 148.94423Q45.0625 149.39735 45.0625 150.6161Q45.0625 151.70985 45.40625 152.16298Q45.765625 152.6161 46.28125 152.6161Q46.828125 152.6161 47.171875 152.16298Q47.515625 151.70985 47.515625 150.50673Q47.515625 149.39735 47.15625 148.94423Q46.8125 148.4911 46.296875 148.4911Z" fill-rule="nonzero"/><path fill="#666666" d="M20.328125 113.8821Q19.453125 113.5696 19.03125 112.97585Q18.609375 112.3821 18.609375 111.55398Q18.609375 110.30398 19.5 109.46023Q20.40625 108.60085 21.90625 108.60085Q23.40625 108.60085 24.3125 109.47585Q25.234375 110.33523 25.234375 111.58523Q25.234375 112.3821 24.8125 112.97585Q24.390625 113.5696 23.546875 113.8821Q24.59375 114.22585 25.140625 114.99148Q25.703125 115.7571 25.703125 116.8196Q25.703125 118.28835 24.65625 119.30398Q23.625 120.30398 21.921875 120.30398Q20.234375 120.30398 19.1875 119.30398Q18.15625 118.28835 18.15625 116.78835Q18.15625 115.66335 18.71875 114.91335Q19.28125 114.16335 20.328125 113.8821ZM20.046875 111.5071Q20.046875 112.3196 20.5625 112.83523Q21.09375 113.35085 21.9375 113.35085Q22.75 113.35085 23.265625 112.83523Q23.78125 112.3196 23.78125 111.58523Q23.78125 110.80398 23.25 110.28835Q22.71875 109.7571 21.921875 109.7571Q21.109375 109.7571 20.578125 110.27273Q20.046875 110.78835 20.046875 111.5071ZM19.59375 116.78835Q19.59375 117.39773 19.875 117.96023Q20.171875 118.52273 20.734375 118.83523Q21.296875 119.1321 21.9375 119.1321Q22.953125 119.1321 23.609375 118.49148Q24.265625 117.83523 24.265625 116.83523Q24.265625 115.8196 23.578125 115.16335Q22.90625 114.49148 21.890625 114.49148Q20.90625 114.49148 20.25 115.14773Q19.59375 115.80398 19.59375 116.78835ZM27.171875 114.4446Q27.171875 112.41335 27.578125 111.17898Q28.0 109.9446 28.828125 109.27273Q29.65625 108.60085 30.90625 108.60085Q31.828125 108.60085 32.515625 108.97585Q33.21875 109.33523 33.671875 110.03835Q34.125 110.74148 34.375 111.74148Q34.640625 112.74148 34.640625 114.4446Q34.640625 116.46023 34.21875 117.71023Q33.8125 118.9446 32.984375 119.6321Q32.15625 120.30398 30.90625 120.30398Q29.25 120.30398 28.296875 119.10085Q27.171875 117.67898 27.171875 114.4446ZM28.609375 114.4446Q28.609375 117.27273 29.265625 118.21023Q29.9375 119.1321 30.90625 119.1321Q31.875 119.1321 32.53125 118.1946Q33.1875 117.2571 33.1875 114.4446Q33.1875 111.61648 32.53125 110.6946Q31.875 109.7571 30.890625 109.7571Q29.921875 109.7571 29.34375 110.58523Q28.609375 111.6321 28.609375 114.4446ZM36.4375 111.39773Q36.4375 110.16335 37.046875 109.30398Q37.671875 108.4446 38.84375 108.4446Q39.921875 108.4446 40.625 109.22585Q41.328125 109.99148 41.328125 111.47585Q41.328125 112.92898 40.609375 113.72585Q39.90625 114.5071 38.859375 114.5071Q37.8125 114.5071 37.125 113.74148Q36.4375 112.96023 36.4375 111.39773ZM38.875 109.41335Q38.359375 109.41335 38.0 109.86648Q37.65625 110.3196 37.65625 111.53835Q37.65625 112.6321 38.0 113.08523Q38.359375 113.53835 38.875 113.53835Q39.40625 113.53835 39.75 113.08523Q40.109375 112.6321 40.109375 111.42898Q40.109375 110.3196 39.75 109.86648Q39.40625 109.41335 38.875 109.41335ZM38.890625 120.52273L45.15625 108.4446L46.296875 108.4446L40.046875 120.52273L38.890625 120.52273ZM43.84375 117.41335Q43.84375 116.17898 44.453125 115.3196Q45.078125 114.46023 46.25 114.46023Q47.328125 114.46023 48.03125 115.24148Q48.75 116.0071 48.75 117.49148Q48.75 118.9446 48.03125 119.74148Q47.3125 120.52273 46.265625 120.52273Q45.21875 120.52273 44.53125 119.74148Q43.84375 118.96023 43.84375 117.41335ZM46.296875 115.42898Q45.765625 115.42898 45.40625 115.8821Q45.0625 116.33523 45.0625 117.55398Q45.0625 118.64773 45.40625 119.10085Q45.765625 119.55398 46.28125 119.55398Q46.828125 119.55398 47.171875 119.10085Q47.515625 118.64773 47.515625 117.4446Q47.515625 116.33523 47.15625 115.8821Q46.8125 115.42898 46.296875 115.42898Z" fill-rule="nonzero"/><path fill="#666666" d="M18.375 84.38248L19.734375 84.25748Q19.90625 85.2106 20.390625 85.6481Q20.875 86.06998 21.625 86.06998Q22.28125 86.06998 22.765625 85.7731Q23.25 85.47623 23.5625 84.99185Q23.875 84.49185 24.078125 83.6481Q24.296875 82.80435 24.296875 81.92935Q24.296875 81.8356 24.296875 81.6481Q23.875 82.31998 23.140625 82.74185Q22.40625 83.1481 21.5625 83.1481Q20.140625 83.1481 19.15625 82.11685Q18.171875 81.0856 18.171875 79.3981Q18.171875 77.66373 19.1875 76.60123Q20.21875 75.53873 21.765625 75.53873Q22.890625 75.53873 23.8125 76.1481Q24.734375 76.74185 25.21875 77.85123Q25.703125 78.9606 25.703125 81.06998Q25.703125 83.2731 25.21875 84.56998Q24.75 85.86685 23.796875 86.55435Q22.859375 87.24185 21.59375 87.24185Q20.25 87.24185 19.390625 86.49185Q18.546875 85.74185 18.375 84.38248ZM24.140625 79.3356Q24.140625 78.11685 23.484375 77.41373Q22.84375 76.69498 21.9375 76.69498Q21.0 76.69498 20.296875 77.4606Q19.609375 78.22623 19.609375 79.44498Q19.609375 80.53873 20.265625 81.22623Q20.9375 81.91373 21.90625 81.91373Q22.875 81.91373 23.5 81.22623Q24.140625 80.53873 24.140625 79.3356ZM27.171875 81.38248Q27.171875 79.35123 27.578125 78.11685Q28.0 76.88248 28.828125 76.2106Q29.65625 75.53873 30.90625 75.53873Q31.828125 75.53873 32.515625 75.91373Q33.21875 76.2731 33.671875 76.97623Q34.125 77.67935 34.375 78.67935Q34.640625 79.67935 34.640625 81.38248Q34.640625 83.3981 34.21875 84.6481Q33.8125 85.88248 32.984375 86.56998Q32.15625 87.24185 30.90625 87.24185Q29.25 87.24185 28.296875 86.03873Q27.171875 84.61685 27.171875 81.38248ZM28.609375 81.38248Q28.609375 84.2106 29.265625 85.1481Q29.9375 86.06998 30.90625 86.06998Q31.875 86.06998 32.53125 85.13248Q33.1875 84.19498 33.1875 81.38248Q33.1875 78.55435 32.53125 77.63248Q31.875 76.69498 30.890625 76.69498Q29.921875 76.69498 29.34375 77.5231Q28.609375 78.56998 28.609375 81.38248ZM36.4375 78.3356Q36.4375 77.10123 37.046875 76.24185Q37.671875 75.38248 38.84375 75.38248Q39.921875 75.38248 40.625 76.16373Q41.328125 76.92935 41.328125 78.41373Q41.328125 79.86685 40.609375 80.66373Q39.90625 81.44498 38.859375 81.44498Q37.8125 81.44498 37.125 80.67935Q36.4375 79.8981 36.4375 78.3356ZM38.875 76.35123Q38.359375 76.35123 38.0 76.80435Q37.65625 77.25748 37.65625 78.47623Q37.65625 79.56998 38.0 80.0231Q38.359375 80.47623 38.875 80.47623Q39.40625 80.47623 39.75 80.0231Q40.109375 79.56998 40.109375 78.36685Q40.109375 77.25748 39.75 76.80435Q39.40625 76.35123 38.875 76.35123ZM38.890625 87.4606L45.15625 75.38248L46.296875 75.38248L40.046875 87.4606L38.890625 87.4606ZM43.84375 84.35123Q43.84375 83.11685 44.453125 82.25748Q45.078125 81.3981 46.25 81.3981Q47.328125 81.3981 48.03125 82.17935Q48.75 82.94498 48.75 84.42935Q48.75 85.88248 48.03125 86.67935Q47.3125 87.4606 46.265625 87.4606Q45.21875 87.4606 44.53125 86.67935Q43.84375 85.8981 43.84375 84.35123ZM46.296875 82.36685Q45.765625 82.36685 45.40625 82.81998Q45.0625 83.2731 45.0625 84.49185Q45.0625 85.5856 45.40625 86.03873Q45.765625 86.49185 46.28125 86.49185Q46.828125 86.49185 47.171875 86.03873Q47.515625 85.5856 47.515625 84.38248Q47.515625 83.2731 47.15625 82.81998Q46.8125 82.36685 46.296875 82.36685Z" fill-rule="nonzero"/><path fill="#666666" d="M14.46875 53.976597L13.0625 53.976597L13.0625 45.007847Q12.546875 45.49222 11.71875 45.976597Q10.90625 46.46097 10.25 46.71097L10.25 45.351597Q11.421875 44.789097 12.296875 44.007847Q13.1875 43.21097 13.5625 42.476597L14.46875 42.476597L14.46875 53.976597ZM18.171875 48.320347Q18.171875 46.289097 18.578125 45.05472Q19.0 43.820347 19.828125 43.14847Q20.65625 42.476597 21.90625 42.476597Q22.828125 42.476597 23.515625 42.851597Q24.21875 43.21097 24.671875 43.914097Q25.125 44.61722 25.375 45.61722Q25.640625 46.61722 25.640625 48.320347Q25.640625 50.33597 25.21875 51.58597Q24.8125 52.820347 23.984375 53.507847Q23.15625 54.17972 21.90625 54.17972Q20.25 54.17972 19.296875 52.976597Q18.171875 51.55472 18.171875 48.320347ZM19.609375 48.320347Q19.609375 51.14847 20.265625 52.08597Q20.9375 53.007847 21.90625 53.007847Q22.875 53.007847 23.53125 52.070347Q24.1875 51.132847 24.1875 48.320347Q24.1875 45.49222 23.53125 44.570347Q22.875 43.632847 21.890625 43.632847Q20.921875 43.632847 20.34375 44.46097Q19.609375 45.507847 19.609375 48.320347ZM27.171875 48.320347Q27.171875 46.289097 27.578125 45.05472Q28.0 43.820347 28.828125 43.14847Q29.65625 42.476597 30.90625 42.476597Q31.828125 42.476597 32.515625 42.851597Q33.21875 43.21097 33.671875 43.914097Q34.125 44.61722 34.375 45.61722Q34.640625 46.61722 34.640625 48.320347Q34.640625 50.33597 34.21875 51.58597Q33.8125 52.820347 32.984375 53.507847Q32.15625 54.17972 30.90625 54.17972Q29.25 54.17972 28.296875 52.976597Q27.171875 51.55472 27.171875 48.320347ZM28.609375 48.320347Q28.609375 51.14847 29.265625 52.08597Q29.9375 53.007847 30.90625 53.007847Q31.875 53.007847 32.53125 52.070347Q33.1875 51.132847 33.1875 48.320347Q33.1875 45.49222 32.53125 44.570347Q31.875 43.632847 30.890625 43.632847Q29.921875 43.632847 29.34375 44.46097Q28.609375 45.507847 28.609375 48.320347ZM36.4375 45.27347Q36.4375 44.039097 37.046875 43.17972Q37.671875 42.320347 38.84375 42.320347Q39.921875 42.320347 40.625 43.101597Q41.328125 43.86722 41.328125 45.351597Q41.328125 46.80472 40.609375 47.601597Q39.90625 48.382847 38.859375 48.382847Q37.8125 48.382847 37.125 47.61722Q36.4375 46.83597 36.4375 45.27347ZM38.875 43.289097Q38.359375 43.289097 38.0 43.74222Q37.65625 44.195347 37.65625 45.414097Q37.65625 46.507847 38.0 46.96097Q38.359375 47.414097 38.875 47.414097Q39.40625 47.414097 39.75 46.96097Q40.109375 46.507847 40.109375 45.30472Q40.109375 44.195347 39.75 43.74222Q39.40625 43.289097 38.875 43.289097ZM38.890625 54.39847L45.15625 42.320347L46.296875 42.320347L40.046875 54.39847L38.890625 54.39847ZM43.84375 51.289097Q43.84375 50.05472 44.453125 49.195347Q45.078125 48.33597 46.25 48.33597Q47.328125 48.33597 48.03125 49.11722Q48.75 49.882847 48.75 51.36722Q48.75 52.820347 48.03125 53.61722Q47.3125 54.39847 46.265625 54.39847Q45.21875 54.39847 44.53125 53.61722Q43.84375 52.83597 43.84375 51.289097ZM46.296875 49.30472Q45.765625 49.30472 45.40625 49.757847Q45.0625 50.21097 45.0625 51.42972Q45.0625 52.52347 45.40625 52.976597Q45.765625 53.42972 46.28125 53.42972Q46.828125 53.42972 47.171875 52.976597Q47.515625 52.52347 47.515625 51.320347Q47.515625 50.21097 47.15625 49.757847Q46.8125 49.30472 46.296875 49.30472Z" fill-rule="nonzero"/><path fill="#666666" d="M82.98688 236.78723L82.98688 225.3341L84.5025 225.3341L84.5025 235.42786L90.14313 235.42786L90.14313 236.78723L82.98688 236.78723ZM91.98688 236.78723L91.98688 225.3341L93.5025 225.3341L93.5025 235.42786L99.14313 235.42786L99.14313 236.78723L91.98688 236.78723ZM106.28375 235.75598Q105.5025 236.42786 104.78375 236.7091Q104.065 236.97473 103.23688 236.97473Q101.86188 236.97473 101.1275 236.30286Q100.39313 235.63098 100.39313 234.59973Q100.39313 233.99036 100.67438 233.49036Q100.95563 232.97473 101.39313 232.67786Q101.84625 232.36536 102.40875 232.2091Q102.83063 232.09973 103.65875 232.00598Q105.36188 231.80286 106.17438 231.5216Q106.17438 231.22473 106.17438 231.1466Q106.17438 230.28723 105.78375 229.94348Q105.23688 229.4591 104.17438 229.4591Q103.19 229.4591 102.70563 229.81848Q102.23688 230.16223 102.01813 231.03723L100.64313 230.84973Q100.83063 229.97473 101.2525 229.42786Q101.69 228.88098 102.5025 228.59973Q103.315 228.30286 104.3775 228.30286Q105.44 228.30286 106.09625 228.55286Q106.76813 228.80286 107.08063 229.17786Q107.39313 229.55286 107.51813 230.13098Q107.59625 230.49036 107.59625 231.42786L107.59625 233.30286Q107.59625 235.2716 107.67438 235.78723Q107.76813 236.30286 108.03375 236.78723L106.565 236.78723Q106.34625 236.34973 106.28375 235.75598ZM106.17438 232.61536Q105.40875 232.92786 103.8775 233.1466Q103.0025 233.2716 102.64313 233.42786Q102.28375 233.5841 102.08063 233.8966Q101.89313 234.19348 101.89313 234.55286Q101.89313 235.11536 102.315 235.49036Q102.7525 235.86536 103.565 235.86536Q104.3775 235.86536 105.0025 235.5216Q105.64313 235.16223 105.94 234.53723Q106.17438 234.06848 106.17438 233.13098L106.17438 232.61536ZM110.0025 236.78723L110.0025 225.3341L112.28375 225.3341L115.0025 233.44348Q115.3775 234.56848 115.54938 235.13098Q115.73688 234.50598 116.15875 233.30286L118.89313 225.3341L120.94 225.3341L120.94 236.78723L119.47125 236.78723L119.47125 227.19348L116.14313 236.78723L114.78375 236.78723L111.47125 227.03723L111.47125 236.78723L110.0025 236.78723ZM121.78375 236.78723L126.19 225.3341L127.83063 225.3341L132.51813 236.78723L130.78375 236.78723L129.45563 233.31848L124.65875 233.31848L123.40875 236.78723L121.78375 236.78723ZM125.09625 232.0841L128.98688 232.0841L127.78375 228.91223Q127.23688 227.4591 126.97125 226.53723Q126.7525 227.63098 126.36188 228.72473L125.09625 232.0841ZM133.33063 233.34973L133.33063 231.92786L137.64313 231.92786L137.64313 233.34973L133.33063 233.34973ZM143.78375 236.78723L142.3775 236.78723L142.3775 227.81848Q141.86188 228.30286 141.03375 228.78723Q140.22125 229.2716 139.565 229.5216L139.565 228.16223Q140.73688 227.59973 141.61188 226.81848Q142.5025 226.0216 142.8775 225.28723L143.78375 225.28723L143.78375 236.78723ZM147.48688 233.75598L148.89313 233.56848Q149.14313 234.7716 149.72125 235.30286Q150.29938 235.81848 151.14313 235.81848Q152.1275 235.81848 152.815 235.13098Q153.5025 234.44348 153.5025 233.42786Q153.5025 232.4591 152.86188 231.8341Q152.23688 231.2091 151.2525 231.2091Q150.86188 231.2091 150.26813 231.36536L150.42438 230.13098Q150.565 230.1466 150.64313 230.1466Q151.54938 230.1466 152.26813 229.67786Q152.98688 229.2091 152.98688 228.22473Q152.98688 227.4591 152.45563 226.9591Q151.94 226.44348 151.11188 226.44348Q150.28375 226.44348 149.73688 226.9591Q149.19 227.47473 149.03375 228.50598L147.6275 228.25598Q147.89313 226.8341 148.79938 226.06848Q149.72125 225.28723 151.08063 225.28723Q152.01813 225.28723 152.79938 225.69348Q153.59625 226.0841 154.0025 226.78723Q154.42438 227.47473 154.42438 228.25598Q154.42438 229.00598 154.01813 229.61536Q153.6275 230.22473 152.84625 230.5841Q153.86188 230.81848 154.42438 231.55286Q154.98688 232.28723 154.98688 233.3966Q154.98688 234.8966 153.89313 235.94348Q152.79938 236.99036 151.1275 236.99036Q149.6275 236.99036 148.6275 236.09973Q147.6275 235.19348 147.48688 233.75598ZM156.98688 236.78723L156.98688 225.3341L161.28375 225.3341Q162.59625 225.3341 163.39313 225.67786Q164.19 226.0216 164.6275 226.75598Q165.08063 227.47473 165.08063 228.25598Q165.08063 228.99036 164.67438 229.6466Q164.28375 230.28723 163.48688 230.69348Q164.51813 230.99036 165.08063 231.72473Q165.64313 232.4591 165.64313 233.4591Q165.64313 234.2716 165.29938 234.9591Q164.95563 235.6466 164.45563 236.0216Q163.95563 236.3966 163.20563 236.59973Q162.45563 236.78723 161.36188 236.78723L156.98688 236.78723ZM158.5025 230.1466L160.98688 230.1466Q161.98688 230.1466 162.42438 230.00598Q163.0025 229.8341 163.29938 229.44348Q163.59625 229.03723 163.59625 228.44348Q163.59625 227.86536 163.315 227.44348Q163.04938 227.00598 162.53375 226.84973Q162.03375 226.67786 160.79938 226.67786L158.5025 226.67786L158.5025 230.1466ZM158.5025 235.42786L161.36188 235.42786Q162.09625 235.42786 162.39313 235.38098Q162.90875 235.28723 163.2525 235.06848Q163.61188 234.84973 163.83063 234.42786Q164.065 234.00598 164.065 233.4591Q164.065 232.81848 163.73688 232.34973Q163.40875 231.88098 162.83063 231.69348Q162.2525 231.49036 161.15875 231.49036L158.5025 231.49036L158.5025 235.42786Z" fill-rule="nonzero"/><path fill="#666666" d="M181.76894 236.78723L186.17519 225.3341L187.81581 225.3341L192.50331 236.78723L190.76894 236.78723L189.44081 233.31848L184.64394 233.31848L183.39394 236.78723L181.76894 236.78723ZM185.08144 232.0841L188.97206 232.0841L187.76894 228.91223Q187.22206 227.4591 186.95644 226.53723Q186.73769 227.63098 186.34706 228.72473L185.08144 232.0841ZM193.83144 236.78723L193.83144 225.3341L195.23769 225.3341L195.23769 236.78723L193.83144 236.78723ZM196.86269 239.97473L196.86269 228.49036L198.14394 228.49036L198.14394 229.56848Q198.59706 228.92786 199.15956 228.61536Q199.73769 228.30286 200.55019 228.30286Q201.61269 228.30286 202.42519 228.84973Q203.23769 229.3966 203.64394 230.3966Q204.06581 231.38098 204.06581 232.56848Q204.06581 233.84973 203.59706 234.86536Q203.14394 235.88098 202.26894 236.42786Q201.40956 236.97473 200.44081 236.97473Q199.73769 236.97473 199.17519 236.67786Q198.62831 236.38098 198.26894 235.92786L198.26894 239.97473L196.86269 239.97473ZM198.12831 232.67786Q198.12831 234.28723 198.76894 235.05286Q199.42519 235.81848 200.34706 235.81848Q201.28456 235.81848 201.95644 235.0216Q202.62831 234.22473 202.62831 232.56848Q202.62831 230.97473 201.97206 230.19348Q201.31581 229.3966 200.40956 229.3966Q199.51894 229.3966 198.81581 230.24036Q198.12831 231.0841 198.12831 232.67786ZM211.26894 235.75598Q210.48769 236.42786 209.76894 236.7091Q209.05019 236.97473 208.22206 236.97473Q206.84706 236.97473 206.11269 236.30286Q205.37831 235.63098 205.37831 234.59973Q205.37831 233.99036 205.65956 233.49036Q205.94081 232.97473 206.37831 232.67786Q206.83144 232.36536 207.39394 232.2091Q207.81581 232.09973 208.64394 232.00598Q210.34706 231.80286 211.15956 231.5216Q211.15956 231.22473 211.15956 231.1466Q211.15956 230.28723 210.76894 229.94348Q210.22206 229.4591 209.15956 229.4591Q208.17519 229.4591 207.69081 229.81848Q207.22206 230.16223 207.00331 231.03723L205.62831 230.84973Q205.81581 229.97473 206.23769 229.42786Q206.67519 228.88098 207.48769 228.59973Q208.30019 228.30286 209.36269 228.30286Q210.42519 228.30286 211.08144 228.55286Q211.75331 228.80286 212.06581 229.17786Q212.37831 229.55286 212.50331 230.13098Q212.58144 230.49036 212.58144 231.42786L212.58144 233.30286Q212.58144 235.2716 212.65956 235.78723Q212.75331 236.30286 213.01894 236.78723L211.55019 236.78723Q211.33144 236.34973 211.26894 235.75598ZM211.15956 232.61536Q210.39394 232.92786 208.86269 233.1466Q207.98769 233.2716 207.62831 233.42786Q207.26894 233.5841 207.06581 233.8966Q206.87831 234.19348 206.87831 234.55286Q206.87831 235.11536 207.30019 235.49036Q207.73769 235.86536 208.55019 235.86536Q209.36269 235.86536 209.98769 235.5216Q210.62831 235.16223 210.92519 234.53723Q211.15956 234.06848 211.15956 233.13098L211.15956 232.61536ZM220.26894 233.74036L221.65956 233.92786Q221.42519 235.34973 220.48769 236.16223Q219.56581 236.97473 218.20644 236.97473Q216.50331 236.97473 215.45644 235.86536Q214.42519 234.74036 214.42519 232.66223Q214.42519 231.31848 214.86269 230.31848Q215.31581 229.30286 216.22206 228.80286Q217.14394 228.30286 218.20644 228.30286Q219.56581 228.30286 220.42519 228.99036Q221.28456 229.66223 221.51894 230.92786L220.15956 231.13098Q219.95644 230.30286 219.45644 229.88098Q218.97206 229.4591 218.26894 229.4591Q217.20644 229.4591 216.53456 230.22473Q215.87831 230.97473 215.87831 232.63098Q215.87831 234.30286 216.51894 235.06848Q217.15956 235.81848 218.19081 235.81848Q219.01894 235.81848 219.56581 235.31848Q220.12831 234.80286 220.26894 233.74036ZM228.26894 235.75598Q227.48769 236.42786 226.76894 236.7091Q226.05019 236.97473 225.22206 236.97473Q223.84706 236.97473 223.11269 236.30286Q222.37831 235.63098 222.37831 234.59973Q222.37831 233.99036 222.65956 233.49036Q222.94081 232.97473 223.37831 232.67786Q223.83144 232.36536 224.39394 232.2091Q224.81581 232.09973 225.64394 232.00598Q227.34706 231.80286 228.15956 231.5216Q228.15956 231.22473 228.15956 231.1466Q228.15956 230.28723 227.76894 229.94348Q227.22206 229.4591 226.15956 229.4591Q225.17519 229.4591 224.69081 229.81848Q224.22206 230.16223 224.00331 231.03723L222.62831 230.84973Q222.81581 229.97473 223.23769 229.42786Q223.67519 228.88098 224.48769 228.59973Q225.30019 228.30286 226.36269 228.30286Q227.42519 228.30286 228.08144 228.55286Q228.75331 228.80286 229.06581 229.17786Q229.37831 229.55286 229.50331 230.13098Q229.58144 230.49036 229.58144 231.42786L229.58144 233.30286Q229.58144 235.2716 229.65956 235.78723Q229.75331 236.30286 230.01894 236.78723L228.55019 236.78723Q228.33144 236.34973 228.26894 235.75598ZM228.15956 232.61536Q227.39394 232.92786 225.86269 233.1466Q224.98769 233.2716 224.62831 233.42786Q224.26894 233.5841 224.06581 233.8966Q223.87831 234.19348 223.87831 234.55286Q223.87831 235.11536 224.30019 235.49036Q224.73769 235.86536 225.55019 235.86536Q226.36269 235.86536 226.98769 235.5216Q227.62831 235.16223 227.92519 234.53723Q228.15956 234.06848 228.15956 233.13098L228.15956 232.61536ZM231.31581 233.34973L231.31581 231.92786L235.62831 231.92786L235.62831 233.34973L231.31581 233.34973ZM241.76894 236.78723L240.36269 236.78723L240.36269 227.81848Q239.84706 228.30286 239.01894 228.78723Q238.20644 229.2716 237.55019 229.5216L237.55019 228.16223Q238.72206 227.59973 239.59706 226.81848Q240.48769 226.0216 240.86269 225.28723L241.76894 225.28723L241.76894 236.78723ZM245.47206 233.75598L246.87831 233.56848Q247.12831 234.7716 247.70644 235.30286Q248.28456 235.81848 249.12831 235.81848Q250.11269 235.81848 250.80019 235.13098Q251.48769 234.44348 251.48769 233.42786Q251.48769 232.4591 250.84706 231.8341Q250.22206 231.2091 249.23769 231.2091Q248.84706 231.2091 248.25331 231.36536L248.40956 230.13098Q248.55019 230.1466 248.62831 230.1466Q249.53456 230.1466 250.25331 229.67786Q250.97206 229.2091 250.97206 228.22473Q250.97206 227.4591 250.44081 226.9591Q249.92519 226.44348 249.09706 226.44348Q248.26894 226.44348 247.72206 226.9591Q247.17519 227.47473 247.01894 228.50598L245.61269 228.25598Q245.87831 226.8341 246.78456 226.06848Q247.70644 225.28723 249.06581 225.28723Q250.00331 225.28723 250.78456 225.69348Q251.58144 226.0841 251.98769 226.78723Q252.40956 227.47473 252.40956 228.25598Q252.40956 229.00598 252.00331 229.61536Q251.61269 230.22473 250.83144 230.5841Q251.84706 230.81848 252.40956 231.55286Q252.97206 232.28723 252.97206 233.3966Q252.97206 234.8966 251.87831 235.94348Q250.78456 236.99036 249.11269 236.99036Q247.61269 236.99036 246.61269 236.09973Q245.61269 235.19348 245.47206 233.75598ZM254.97206 236.78723L254.97206 225.3341L259.26892 225.3341Q260.58142 225.3341 261.3783 225.67786Q262.17517 226.0216 262.61267 226.75598Q263.0658 227.47473 263.0658 228.25598Q263.0658 228.99036 262.65955 229.6466Q262.26892 230.28723 261.47205 230.69348Q262.5033 230.99036 263.0658 231.72473Q263.6283 232.4591 263.6283 233.4591Q263.6283 234.2716 263.28455 234.9591Q262.9408 235.6466 262.4408 236.0216Q261.9408 236.3966 261.1908 236.59973Q260.4408 236.78723 259.34705 236.78723L254.97206 236.78723ZM256.48767 230.1466L258.97205 230.1466Q259.97205 230.1466 260.40955 230.00598Q260.98767 229.8341 261.28455 229.44348Q261.58142 229.03723 261.58142 228.44348Q261.58142 227.86536 261.30017 227.44348Q261.03455 227.00598 260.51892 226.84973Q260.01892 226.67786 258.78455 226.67786L256.48767 226.67786L256.48767 230.1466ZM256.48767 235.42786L259.34705 235.42786Q260.08142 235.42786 260.3783 235.38098Q260.89392 235.28723 261.23767 235.06848Q261.59705 234.84973 261.8158 234.42786Q262.05017 234.00598 262.05017 233.4591Q262.05017 232.81848 261.72205 232.34973Q261.39392 231.88098 260.8158 231.69348Q260.23767 231.49036 259.14392 231.49036L256.48767 231.49036L256.48767 235.42786Z" fill-rule="nonzero"/><path fill="#666666" d="M285.801 236.78723L281.3635 225.3341L283.00412 225.3341L285.97287 233.6466Q286.33224 234.6466 286.58224 235.5216Q286.84787 234.5841 287.19162 233.6466L290.28537 225.3341L291.83224 225.3341L287.34787 236.78723L285.801 236.78723ZM293.34787 226.94348L293.34787 225.3341L294.75412 225.3341L294.75412 226.94348L293.34787 226.94348ZM293.34787 236.78723L293.34787 228.49036L294.75412 228.49036L294.75412 236.78723L293.34787 236.78723ZM302.75412 233.74036L304.14474 233.92786Q303.91037 235.34973 302.97287 236.16223Q302.051 236.97473 300.69162 236.97473Q298.9885 236.97473 297.94162 235.86536Q296.91037 234.74036 296.91037 232.66223Q296.91037 231.31848 297.34787 230.31848Q297.801 229.30286 298.70724 228.80286Q299.62912 228.30286 300.69162 228.30286Q302.051 228.30286 302.91037 228.99036Q303.76974 229.66223 304.00412 230.92786L302.64474 231.13098Q302.44162 230.30286 301.94162 229.88098Q301.45724 229.4591 300.75412 229.4591Q299.69162 229.4591 299.01974 230.22473Q298.3635 230.97473 298.3635 232.63098Q298.3635 234.30286 299.00412 235.06848Q299.64474 235.81848 300.676 235.81848Q301.50412 235.81848 302.051 235.31848Q302.6135 234.80286 302.75412 233.74036ZM310.78537 236.78723L310.78537 235.56848Q309.81662 236.97473 308.14474 236.97473Q307.41037 236.97473 306.76974 236.69348Q306.14474 236.41223 305.83224 235.99036Q305.51974 235.55286 305.39474 234.94348Q305.31662 234.5216 305.31662 233.63098L305.31662 228.49036L306.72287 228.49036L306.72287 233.0841Q306.72287 234.19348 306.801 234.56848Q306.94162 235.13098 307.3635 235.44348Q307.801 235.75598 308.426 235.75598Q309.06662 235.75598 309.6135 235.44348Q310.176 235.11536 310.39474 234.55286Q310.62912 233.99036 310.62912 232.92786L310.62912 228.49036L312.03537 228.49036L312.03537 236.78723L310.78537 236.78723ZM313.34787 236.78723L313.34787 228.49036L314.6135 228.49036L314.6135 229.66223Q315.51974 228.30286 317.25412 228.30286Q318.00412 228.30286 318.62912 228.56848Q319.25412 228.8341 319.56662 229.2716Q319.87912 229.7091 320.00412 230.31848Q320.08224 230.7091 320.08224 231.67786L320.08224 236.78723L318.676 236.78723L318.676 231.74036Q318.676 230.88098 318.50412 230.4591Q318.34787 230.0216 317.926 229.7716Q317.51974 229.5216 316.95724 229.5216Q316.051 229.5216 315.39474 230.09973Q314.75412 230.66223 314.75412 232.25598L314.75412 236.78723L313.34787 236.78723ZM326.75412 235.75598Q325.97287 236.42786 325.25412 236.7091Q324.53537 236.97473 323.70724 236.97473Q322.33224 236.97473 321.59787 236.30286Q320.8635 235.63098 320.8635 234.59973Q320.8635 233.99036 321.14474 233.49036Q321.426 232.97473 321.8635 232.67786Q322.31662 232.36536 322.87912 232.2091Q323.301 232.09973 324.12912 232.00598Q325.83224 231.80286 326.64474 231.5216Q326.64474 231.22473 326.64474 231.1466Q326.64474 230.28723 326.25412 229.94348Q325.70724 229.4591 324.64474 229.4591Q323.66037 229.4591 323.176 229.81848Q322.70724 230.16223 322.4885 231.03723L321.1135 230.84973Q321.301 229.97473 321.72287 229.42786Q322.16037 228.88098 322.97287 228.59973Q323.78537 228.30286 324.84787 228.30286Q325.91037 228.30286 326.56662 228.55286Q327.2385 228.80286 327.551 229.17786Q327.8635 229.55286 327.9885 230.13098Q328.06662 230.49036 328.06662 231.42786L328.06662 233.30286Q328.06662 235.2716 328.14474 235.78723Q328.2385 236.30286 328.50412 236.78723L327.03537 236.78723Q326.81662 236.34973 326.75412 235.75598ZM326.64474 232.61536Q325.87912 232.92786 324.34787 233.1466Q323.47287 233.2716 323.1135 233.42786Q322.75412 233.5841 322.551 233.8966Q322.3635 234.19348 322.3635 234.55286Q322.3635 235.11536 322.78537 235.49036Q323.22287 235.86536 324.03537 235.86536Q324.84787 235.86536 325.47287 235.5216Q326.1135 235.16223 326.41037 234.53723Q326.64474 234.06848 326.64474 233.13098L326.64474 232.61536ZM329.801 233.34973L329.801 231.92786L334.1135 231.92786L334.1135 233.34973L329.801 233.34973ZM340.25412 236.78723L338.84787 236.78723L338.84787 227.81848Q338.33224 228.30286 337.50412 228.78723Q336.69162 229.2716 336.03537 229.5216L336.03537 228.16223Q337.20724 227.59973 338.08224 226.81848Q338.97287 226.0216 339.34787 225.28723L340.25412 225.28723L340.25412 236.78723ZM343.95724 233.75598L345.3635 233.56848Q345.6135 234.7716 346.19162 235.30286Q346.76974 235.81848 347.6135 235.81848Q348.59787 235.81848 349.28537 235.13098Q349.97287 234.44348 349.97287 233.42786Q349.97287 232.4591 349.33224 231.8341Q348.70724 231.2091 347.72287 231.2091Q347.33224 231.2091 346.7385 231.36536L346.89474 230.13098Q347.03537 230.1466 347.1135 230.1466Q348.01974 230.1466 348.7385 229.67786Q349.45724 229.2091 349.45724 228.22473Q349.45724 227.4591 348.926 226.9591Q348.41037 226.44348 347.58224 226.44348Q346.75412 226.44348 346.20724 226.9591Q345.66037 227.47473 345.50412 228.50598L344.09787 228.25598Q344.3635 226.8341 345.26974 226.06848Q346.19162 225.28723 347.551 225.28723Q348.4885 225.28723 349.26974 225.69348Q350.06662 226.0841 350.47287 226.78723Q350.89474 227.47473 350.89474 228.25598Q350.89474 229.00598 350.4885 229.61536Q350.09787 230.22473 349.31662 230.5841Q350.33224 230.81848 350.89474 231.55286Q351.45724 232.28723 351.45724 233.3966Q351.45724 234.8966 350.3635 235.94348Q349.26974 236.99036 347.59787 236.99036Q346.09787 236.99036 345.09787 236.09973Q344.09787 235.19348 343.95724 233.75598ZM353.45724 236.78723L353.45724 225.3341L357.75412 225.3341Q359.06662 225.3341 359.8635 225.67786Q360.66037 226.0216 361.09787 226.75598Q361.551 227.47473 361.551 228.25598Q361.551 228.99036 361.14474 229.6466Q360.75412 230.28723 359.95724 230.69348Q360.9885 230.99036 361.551 231.72473Q362.1135 232.4591 362.1135 233.4591Q362.1135 234.2716 361.76974 234.9591Q361.426 235.6466 360.926 236.0216Q360.426 236.3966 359.676 236.59973Q358.926 236.78723 357.83224 236.78723L353.45724 236.78723ZM354.97287 230.1466L357.45724 230.1466Q358.45724 230.1466 358.89474 230.00598Q359.47287 229.8341 359.76974 229.44348Q360.06662 229.03723 360.06662 228.44348Q360.06662 227.86536 359.78537 227.44348Q359.51974 227.00598 359.00412 226.84973Q358.50412 226.67786 357.26974 226.67786L354.97287 226.67786L354.97287 230.1466ZM354.97287 235.42786L357.83224 235.42786Q358.56662 235.42786 358.8635 235.38098Q359.37912 235.28723 359.72287 235.06848Q360.08224 234.84973 360.301 234.42786Q360.53537 234.00598 360.53537 233.4591Q360.53537 232.81848 360.20724 232.34973Q359.87912 231.88098 359.301 231.69348Q358.72287 231.49036 357.62912 231.49036L354.97287 231.49036L354.97287 235.42786Z" fill-rule="nonzero"/><path fill="#666666" d="M405.44244 236.78723L405.44244 225.3341L409.73932 225.3341Q411.05182 225.3341 411.8487 225.67786Q412.64557 226.0216 413.08307 226.75598Q413.5362 227.47473 413.5362 228.25598Q413.5362 228.99036 413.12994 229.6466Q412.73932 230.28723 411.94244 230.69348Q412.9737 230.99036 413.5362 231.72473Q414.0987 232.4591 414.0987 233.4591Q414.0987 234.2716 413.75494 234.9591Q413.4112 235.6466 412.9112 236.0216Q412.4112 236.3966 411.6612 236.59973Q410.9112 236.78723 409.81744 236.78723L405.44244 236.78723ZM406.95807 230.1466L409.44244 230.1466Q410.44244 230.1466 410.87994 230.00598Q411.45807 229.8341 411.75494 229.44348Q412.05182 229.03723 412.05182 228.44348Q412.05182 227.86536 411.77057 227.44348Q411.50494 227.00598 410.98932 226.84973Q410.48932 226.67786 409.25494 226.67786L406.95807 226.67786L406.95807 230.1466ZM406.95807 235.42786L409.81744 235.42786Q410.55182 235.42786 410.8487 235.38098Q411.36432 235.28723 411.70807 235.06848Q412.06744 234.84973 412.2862 234.42786Q412.52057 234.00598 412.52057 233.4591Q412.52057 232.81848 412.19244 232.34973Q411.86432 231.88098 411.2862 231.69348Q410.70807 231.49036 409.61432 231.49036L406.95807 231.49036L406.95807 235.42786ZM421.73932 235.75598Q420.95807 236.42786 420.23932 236.7091Q419.52057 236.97473 418.69244 236.97473Q417.31744 236.97473 416.58307 236.30286Q415.8487 235.63098 415.8487 234.59973Q415.8487 233.99036 416.12994 233.49036Q416.4112 232.97473 416.8487 232.67786Q417.30182 232.36536 417.86432 232.2091Q418.2862 232.09973 419.11432 232.00598Q420.81744 231.80286 421.62994 231.5216Q421.62994 231.22473 421.62994 231.1466Q421.62994 230.28723 421.23932 229.94348Q420.69244 229.4591 419.62994 229.4591Q418.64557 229.4591 418.1612 229.81848Q417.69244 230.16223 417.4737 231.03723L416.0987 230.84973Q416.2862 229.97473 416.70807 229.42786Q417.14557 228.88098 417.95807 228.59973Q418.77057 228.30286 419.83307 228.30286Q420.89557 228.30286 421.55182 228.55286Q422.2237 228.80286 422.5362 229.17786Q422.8487 229.55286 422.9737 230.13098Q423.05182 230.49036 423.05182 231.42786L423.05182 233.30286Q423.05182 235.2716 423.12994 235.78723Q423.2237 236.30286 423.48932 236.78723L422.02057 236.78723Q421.80182 236.34973 421.73932 235.75598ZM421.62994 232.61536Q420.86432 232.92786 419.33307 233.1466Q418.45807 233.2716 418.0987 233.42786Q417.73932 233.5841 417.5362 233.8966Q417.3487 234.19348 417.3487 234.55286Q417.3487 235.11536 417.77057 235.49036Q418.20807 235.86536 419.02057 235.86536Q419.83307 235.86536 420.45807 235.5216Q421.0987 235.16223 421.39557 234.53723Q421.62994 234.06848 421.62994 233.13098L421.62994 232.61536ZM425.31744 236.78723L425.31744 228.49036L426.58307 228.49036L426.58307 229.74036Q427.06744 228.86536 427.4737 228.5841Q427.87994 228.30286 428.37994 228.30286Q429.08307 228.30286 429.81744 228.75598L429.33307 230.05286Q428.81744 229.75598 428.30182 229.75598Q427.8487 229.75598 427.4737 230.03723Q427.11432 230.30286 426.95807 230.80286Q426.7237 231.55286 426.7237 232.44348L426.7237 236.78723L425.31744 236.78723ZM435.70807 236.78723L435.70807 235.74036Q434.92682 236.97473 433.39557 236.97473Q432.39557 236.97473 431.56744 236.42786Q430.73932 235.88098 430.27057 234.8966Q429.81744 233.91223 429.81744 232.6466Q429.81744 231.3966 430.2237 230.3966Q430.64557 229.38098 431.4737 228.84973Q432.30182 228.30286 433.33307 228.30286Q434.08307 228.30286 434.6612 228.61536Q435.25494 228.92786 435.61432 229.44348L435.61432 225.3341L437.02057 225.3341L437.02057 236.78723L435.70807 236.78723ZM431.27057 232.6466Q431.27057 234.24036 431.94244 235.03723Q432.61432 235.81848 433.52057 235.81848Q434.44244 235.81848 435.08307 235.06848Q435.73932 234.30286 435.73932 232.75598Q435.73932 231.05286 435.08307 230.25598Q434.42682 229.4591 433.45807 229.4591Q432.52057 229.4591 431.89557 230.22473Q431.27057 230.99036 431.27057 232.6466Z" fill-rule="nonzero"/><path fill="#666666" d="M497.16202 232.7716L498.67764 233.1466Q498.2089 235.0216 496.9589 236.00598Q495.72452 236.99036 493.94327 236.99036Q492.0839 236.99036 490.92764 236.24036Q489.7714 235.47473 489.16202 234.05286Q488.55264 232.61536 488.55264 230.97473Q488.55264 229.17786 489.24014 227.84973Q489.92764 226.5216 491.17764 225.8341Q492.44327 225.13098 493.9589 225.13098Q495.67764 225.13098 496.84952 226.00598Q498.0214 226.88098 498.49014 228.47473L496.99014 228.81848Q496.59952 227.56848 495.8339 227.00598Q495.0839 226.42786 493.92764 226.42786Q492.61514 226.42786 491.72452 227.06848Q490.8339 227.69348 490.47452 228.7716Q490.11514 229.8341 490.11514 230.9591Q490.11514 232.42786 490.53702 233.5216Q490.97452 234.59973 491.86514 235.1466Q492.7714 235.67786 493.81827 235.67786Q495.0839 235.67786 495.9589 234.94348Q496.84952 234.2091 497.16202 232.7716ZM500.81827 236.78723L500.81827 225.3341L502.22452 225.3341L502.22452 229.44348Q503.2089 228.30286 504.7089 228.30286Q505.63077 228.30286 506.30264 228.66223Q506.99014 229.0216 507.2714 229.66223Q507.56827 230.30286 507.56827 231.5216L507.56827 236.78723L506.16202 236.78723L506.16202 231.5216Q506.16202 230.47473 505.7089 229.99036Q505.25577 229.50598 504.41202 229.50598Q503.78702 229.50598 503.24014 229.8341Q502.69327 230.16223 502.4589 230.72473Q502.22452 231.2716 502.22452 232.24036L502.22452 236.78723L500.81827 236.78723ZM514.2245 235.75598Q513.44324 236.42786 512.7245 236.7091Q512.00574 236.97473 511.17764 236.97473Q509.80264 236.97473 509.06827 236.30286Q508.3339 235.63098 508.3339 234.59973Q508.3339 233.99036 508.61514 233.49036Q508.8964 232.97473 509.3339 232.67786Q509.78702 232.36536 510.34952 232.2091Q510.7714 232.09973 511.59952 232.00598Q513.3026 231.80286 514.1151 231.5216Q514.1151 231.22473 514.1151 231.1466Q514.1151 230.28723 513.7245 229.94348Q513.1776 229.4591 512.1151 229.4591Q511.13077 229.4591 510.6464 229.81848Q510.17764 230.16223 509.9589 231.03723L508.5839 230.84973Q508.7714 229.97473 509.19327 229.42786Q509.63077 228.88098 510.44327 228.59973Q511.25577 228.30286 512.31824 228.30286Q513.38074 228.30286 514.037 228.55286Q514.70886 228.80286 515.02136 229.17786Q515.33386 229.55286 515.45886 230.13098Q515.537 230.49036 515.537 231.42786L515.537 233.30286Q515.537 235.2716 515.6151 235.78723Q515.70886 236.30286 515.9745 236.78723L514.50574 236.78723Q514.287 236.34973 514.2245 235.75598ZM514.1151 232.61536Q513.3495 232.92786 511.81827 233.1466Q510.94327 233.2716 510.5839 233.42786Q510.22452 233.5841 510.0214 233.8966Q509.8339 234.19348 509.8339 234.55286Q509.8339 235.11536 510.25577 235.49036Q510.69327 235.86536 511.50577 235.86536Q512.31824 235.86536 512.94324 235.5216Q513.58386 235.16223 513.88074 234.53723Q514.1151 234.06848 514.1151 233.13098L514.1151 232.61536ZM520.88074 235.5216L521.08386 236.7716Q520.4901 236.8966 520.02136 236.8966Q519.25574 236.8966 518.83386 236.66223Q518.412 236.41223 518.2401 236.0216Q518.06824 235.61536 518.06824 234.34973L518.06824 229.5841L517.037 229.5841L517.037 228.49036L518.06824 228.49036L518.06824 226.42786L519.4745 225.5841L519.4745 228.49036L520.88074 228.49036L520.88074 229.5841L519.4745 229.5841L519.4745 234.42786Q519.4745 235.03723 519.537 235.2091Q519.6151 235.38098 519.787 235.49036Q519.95886 235.5841 520.27136 235.5841Q520.50574 235.5841 520.88074 235.5216ZM527.3495 232.28723L527.3495 230.94348L532.20886 230.94348L532.20886 235.19348Q531.08386 236.0841 529.89636 236.53723Q528.70886 236.99036 527.45886 236.99036Q525.77136 236.99036 524.39636 236.2716Q523.02136 235.53723 522.31824 234.17786Q521.6151 232.80286 521.6151 231.11536Q521.6151 229.44348 522.3026 227.99036Q523.00574 226.53723 524.31824 225.8341Q525.63074 225.13098 527.3495 225.13098Q528.58386 225.13098 529.58386 225.53723Q530.5995 225.94348 531.162 226.66223Q531.7401 227.38098 532.037 228.53723L530.662 228.91223Q530.412 228.03723 530.02136 227.53723Q529.64636 227.03723 528.9276 226.74036Q528.2245 226.42786 527.3495 226.42786Q526.31824 226.42786 525.5526 226.75598Q524.8026 227.06848 524.33386 227.5841Q523.8651 228.09973 523.6151 228.7091Q523.1776 229.7716 523.1776 231.0216Q523.1776 232.55286 523.69324 233.5841Q524.2245 234.61536 525.2245 235.11536Q526.2401 235.61536 527.38074 235.61536Q528.3651 235.61536 529.3026 235.24036Q530.2401 234.84973 530.7245 234.42786L530.7245 232.28723L527.3495 232.28723ZM533.9901 236.78723L533.9901 225.3341L538.31824 225.3341Q539.45886 225.3341 540.0526 225.44348Q540.89636 225.5841 541.45886 225.97473Q542.037 226.36536 542.38074 227.0841Q542.7401 227.78723 542.7401 228.6466Q542.7401 230.09973 541.8026 231.11536Q540.88074 232.13098 538.44324 232.13098L535.50574 232.13098L535.50574 236.78723L533.9901 236.78723ZM535.50574 230.7716L538.4745 230.7716Q539.94324 230.7716 540.5526 230.22473Q541.1776 229.67786 541.1776 228.69348Q541.1776 227.97473 540.8026 227.4591Q540.44324 226.94348 539.8495 226.78723Q539.4745 226.67786 538.44324 226.67786L535.50574 226.67786L535.50574 230.7716ZM547.912 236.78723L547.912 226.67786L544.13074 226.67786L544.13074 225.3341L553.20886 225.3341L553.20886 226.67786L549.4276 226.67786L549.4276 236.78723L547.912 236.78723Z" fill-rule="nonzero"/></svg>