<svg version="1.1" viewBox="0.0 0.0 707.0 272.0" fill="none" stroke="none" stroke-linecap="square" stroke-miterlimit="10" width="707" height="272" xmlns:xlink="http://www.w3.org/1999/xlink" xmlns="http://www.w3.org/2000/svg"><path fill="#ffffff" d="M0 0L707.0 0L707.0 272.0L0 272.0L0 0Z" fill-rule="nonzero"/><path stroke="#333333" stroke-width="1.0" stroke-linecap="butt" d="M81.5 76.5L81.5 198.5" fill-rule="nonzero"/><path stroke="#cccccc" stroke-width="1.0" stroke-linecap="butt" d="M149.5 76.5L149.5 198.5" fill-rule="nonzero"/><path stroke="#cccccc" stroke-width="1.0" stroke-linecap="butt" d="M217.5 76.5L217.5 198.5" fill-rule="nonzero"/><path stroke="#cccccc" stroke-width="1.0" stroke-linecap="butt" d="M285.5 76.5L285.5 198.5" fill-rule="nonzero"/><path stroke="#cccccc" stroke-width="1.0" stroke-linecap="butt" d="M353.5 76.5L353.5 198.5" fill-rule="nonzero"/><path stroke="#cccccc" stroke-width="1.0" stroke-linecap="butt" d="M421.5 76.5L421.5 198.5" fill-rule="nonzero"/><path stroke="#cccccc" stroke-width="1.0" stroke-linecap="butt" d="M489.5 76.5L489.5 198.5" fill-rule="nonzero"/><path stroke="#cccccc" stroke-width="1.0" stroke-linecap="butt" d="M557.5 76.5L557.5 198.5" fill-rule="nonzero"/><path stroke="#cccccc" stroke-width="1.0" stroke-linecap="butt" d="M625.5 76.5L625.5 198.5" fill-rule="nonzero"/><path stroke="#cccccc" stroke-width="1.0" stroke-linecap="butt" d="M693.5 76.5L693.5 198.5" fill-rule="nonzero"/><path stroke="#333333" stroke-width="1.0" stroke-linecap="butt" d="M81.5 198.5L693.5 198.5" fill-rule="nonzero"/><path stroke="#cccccc" stroke-width="1.0" stroke-linecap="butt" d="M81.5 157.5L693.5 157.5" fill-rule="nonzero"/><path stroke="#cccccc" stroke-width="1.0" stroke-linecap="butt" d="M81.5 117.5L693.5 117.5" fill-rule="nonzero"/><path stroke="#cccccc" stroke-width="1.0" stroke-linecap="butt" d="M81.5 76.5L693.5 76.5" fill-rule="nonzero"/><path stroke="#000000" stroke-width="1.0" stroke-linecap="butt" stroke-opacity="0.0" d="M81.5 184.5L693.5 184.5" fill-rule="nonzero"/><path stroke="#000000" stroke-width="1.0" stroke-linecap="butt" stroke-opacity="0.0" d="M81.5 171.5L693.5 171.5" fill-rule="nonzero"/><path stroke="#000000" stroke-width="1.0" stroke-linecap="butt" stroke-opacity="0.0" d="M81.5 144.5L693.5 144.5" fill-rule="nonzero"/><path stroke="#000000" stroke-width="1.0" stroke-linecap="butt" stroke-opacity="0.0" d="M81.5 130.5L693.5 130.5" fill-rule="nonzero"/><path stroke="#000000" stroke-width="1.0" stroke-linecap="butt" stroke-opacity="0.0" d="M81.5 103.5L693.5 103.5" fill-rule="nonzero"/><path stroke="#000000" stroke-width="1.0" stroke-linecap="butt" stroke-opacity="0.0" d="M81.5 90.5L693.5 90.5" fill-rule="nonzero"/><clipPath id="id_0"><path d="M81.6 76.73333L693.4 76.73333L693.4 198.4L81.6 198.4L81.6 76.73333Z" clip-rule="nonzero"/></clipPath><path stroke="#30a2ff" stroke-width="2.0" stroke-linecap="butt" clip-path="url(#id_0)" d="M115.58889 193.2792C115.58889 193.2792 138.24815 193.63368 149.57777 192.4878C160.90741 191.3419 194.8963 186.3455 217.55556 180.31995C240.21481 174.29437 308.1926 143.62157 353.5111 132.34889C398.82962 121.07623 625.42224 93.01904 625.42224 93.01904" fill-rule="nonzero"/><path stroke="#ff6d01" stroke-width="2.0" stroke-linecap="butt" clip-path="url(#id_0)" d="M115.58889 193.84264C115.58889 193.84264 138.24815 194.19493 149.57777 193.65607C160.90741 193.11722 194.8963 192.47168 217.55556 187.56296C240.21481 182.65424 308.1926 151.53978 353.5111 140.84453C398.82962 130.14928 625.42224 105.93838 625.42224 105.93838" fill-rule="nonzero"/><path fill="#000000" fill-opacity="0.0" clip-path="url(#id_0)" d="M118.58889 193.2792C118.58889 194.93607 117.24574 196.2792 115.58889 196.2792C113.93204 196.2792 112.58889 194.93607 112.58889 193.2792C112.58889 191.62236 113.93204 190.2792 115.58889 190.2792C117.24574 190.2792 118.58889 191.62236 118.58889 193.2792Z" fill-rule="nonzero"/><path fill="#000000" fill-opacity="0.0" clip-path="url(#id_0)" d="M152.57777 192.4878C152.57777 194.14464 151.23463 195.4878 149.57777 195.4878C147.92093 195.4878 146.57777 194.14464 146.57777 192.4878C146.57777 190.83093 147.92093 189.4878 149.57777 189.4878C151.23463 189.4878 152.57777 190.83093 152.57777 192.4878Z" fill-rule="nonzero"/><path fill="#000000" fill-opacity="0.0" clip-path="url(#id_0)" d="M220.55556 180.31995C220.55556 181.97679 219.2124 183.31995 217.55556 183.31995C215.8987 183.31995 214.55556 181.97679 214.55556 180.31995C214.55556 178.66309 215.8987 177.31995 217.55556 177.31995C219.2124 177.31995 220.55556 178.66309 220.55556 180.31995Z" fill-rule="nonzero"/><path fill="#000000" fill-opacity="0.0" clip-path="url(#id_0)" d="M356.5111 132.34889C356.5111 134.00575 355.16797 135.34889 353.5111 135.34889C351.85425 135.34889 350.5111 134.00575 350.5111 132.34889C350.5111 130.69205 351.85425 129.34889 353.5111 129.34889C355.16797 129.34889 356.5111 130.69205 356.5111 132.34889Z" fill-rule="nonzero"/><path fill="#000000" fill-opacity="0.0" clip-path="url(#id_0)" d="M628.42224 93.01904C628.42224 94.675896 627.0791 96.01904 625.42224 96.01904C623.7654 96.01904 622.42224 94.675896 622.42224 93.01904C622.42224 91.36219 623.7654 90.01904 625.42224 90.01904C627.0791 90.01904 628.42224 91.36219 628.42224 93.01904Z" fill-rule="nonzero"/><path fill="#000000" fill-opacity="0.0" clip-path="url(#id_0)" d="M118.58889 193.84264C118.58889 195.4995 117.24574 196.84264 115.58889 196.84264C113.93204 196.84264 112.58889 195.4995 112.58889 193.84264C112.58889 192.18579 113.93204 190.84264 115.58889 190.84264C117.24574 190.84264 118.58889 192.18579 118.58889 193.84264Z" fill-rule="nonzero"/><path fill="#000000" fill-opacity="0.0" clip-path="url(#id_0)" d="M152.57777 193.65607C152.57777 195.31293 151.23463 196.65607 149.57777 196.65607C147.92093 196.65607 146.57777 195.31293 146.57777 193.65607C146.57777 191.99922 147.92093 190.65607 149.57777 190.65607C151.23463 190.65607 152.57777 191.99922 152.57777 193.65607Z" fill-rule="nonzero"/><path fill="#000000" fill-opacity="0.0" clip-path="url(#id_0)" d="M220.55556 187.56296C220.55556 189.2198 219.2124 190.56296 217.55556 190.56296C215.8987 190.56296 214.55556 189.2198 214.55556 187.56296C214.55556 185.9061 215.8987 184.56296 217.55556 184.56296C219.2124 184.56296 220.55556 185.9061 220.55556 187.56296Z" fill-rule="nonzero"/><path fill="#000000" fill-opacity="0.0" clip-path="url(#id_0)" d="M356.5111 140.84453C356.5111 142.50139 355.16797 143.84453 353.5111 143.84453C351.85425 143.84453 350.5111 142.50139 350.5111 140.84453C350.5111 139.18767 351.85425 137.84453 353.5111 137.84453C355.16797 137.84453 356.5111 139.18767 356.5111 140.84453Z" fill-rule="nonzero"/><path fill="#000000" fill-opacity="0.0" clip-path="url(#id_0)" d="M628.42224 105.93838C628.42224 107.59524 627.0791 108.93838 625.42224 108.93838C623.7654 108.93838 622.42224 107.59524 622.42224 105.93838C622.42224 104.281525 623.7654 102.93838 625.42224 102.93838C627.0791 102.93838 628.42224 104.281525 628.42224 105.93838Z" fill-rule="nonzero"/><path fill="#000000" d="M319.59375 255.4L319.59375 245.38437L324.04688 245.38437Q325.39062 245.38437 326.07812 245.65Q326.78125 245.91562 327.1875 246.60312Q327.60938 247.29062 327.60938 248.11874Q327.60938 249.18124 326.92188 249.91562Q326.23438 250.63437 324.79688 250.8375Q325.3125 251.0875 325.59375 251.3375Q326.17188 251.86874 326.6875 252.66562L328.4375 255.4L326.76562 255.4L325.4375 253.32187Q324.85938 252.41562 324.48438 251.94687Q324.10938 251.4625 323.8125 251.275Q323.51562 251.07187 323.20312 250.99374Q322.98438 250.94687 322.46875 250.94687L320.92188 250.94687L320.92188 255.4L319.59375 255.4ZM320.92188 249.80624L323.78125 249.80624Q324.6875 249.80624 325.20312 249.61874Q325.71875 249.43124 325.98438 249.025Q326.25 248.60312 326.25 248.11874Q326.25 247.4 325.73438 246.94687Q325.21875 246.47812 324.09375 246.47812L320.92188 246.47812L320.92188 249.80624ZM334.39062 253.05624L335.67188 253.2125Q335.35938 254.3375 334.54688 254.9625Q333.73438 255.57187 332.46875 255.57187Q330.875 255.57187 329.9375 254.5875Q329.01562 253.60312 329.01562 251.8375Q329.01562 249.99374 329.95312 248.99374Q330.90625 247.97812 332.40625 247.97812Q333.85938 247.97812 334.78125 248.97812Q335.70312 249.9625 335.70312 251.75937Q335.70312 251.86874 335.70312 252.0875L330.28125 252.0875Q330.35938 253.275 330.95312 253.91562Q331.5625 254.55624 332.48438 254.55624Q333.15625 254.55624 333.625 254.19687Q334.10938 253.8375 334.39062 253.05624ZM330.35938 251.07187L334.40625 251.07187Q334.32812 250.15 333.9375 249.69687Q333.35938 248.99374 332.42188 248.99374Q331.5625 248.99374 330.98438 249.55624Q330.42188 250.11874 330.35938 251.07187ZM342.04688 258.18124L342.04688 254.63437Q341.76562 255.025 341.25 255.30624Q340.73438 255.57187 340.15625 255.57187Q338.85938 255.57187 337.92188 254.54062Q337.0 253.49374 337.0 251.69687Q337.0 250.60312 337.375 249.74374Q337.75 248.86874 338.46875 248.43124Q339.1875 247.97812 340.0625 247.97812Q341.40625 247.97812 342.17188 249.10312L342.17188 248.13437L343.28125 248.13437L343.28125 258.18124L342.04688 258.18124ZM338.25 251.74374Q338.25 253.15 338.84375 253.85312Q339.4375 254.55624 340.25 254.55624Q341.04688 254.55624 341.60938 253.88437Q342.17188 253.2125 342.17188 251.85312Q342.17188 250.41562 341.57812 249.68124Q340.98438 248.94687 340.17188 248.94687Q339.375 248.94687 338.8125 249.63437Q338.25 250.30624 338.25 251.74374ZM350.1875 255.4L350.1875 254.3375Q349.32812 255.57187 347.875 255.57187Q347.23438 255.57187 346.67188 255.32187Q346.125 255.07187 345.84375 254.69687Q345.57812 254.32187 345.46875 253.79062Q345.39062 253.43124 345.39062 252.63437L345.39062 248.13437L346.625 248.13437L346.625 252.16562Q346.625 253.13437 346.70312 253.4625Q346.8125 253.94687 347.1875 254.22812Q347.5625 254.50937 348.125 254.50937Q348.67188 254.50937 349.15625 254.22812Q349.64062 253.93124 349.84375 253.44687Q350.04688 252.9625 350.04688 252.025L350.04688 248.13437L351.28125 248.13437L351.28125 255.4L350.1875 255.4ZM358.39062 253.05624L359.67188 253.2125Q359.35938 254.3375 358.54688 254.9625Q357.73438 255.57187 356.46875 255.57187Q354.875 255.57187 353.9375 254.5875Q353.01562 253.60312 353.01562 251.8375Q353.01562 249.99374 353.95312 248.99374Q354.90625 247.97812 356.40625 247.97812Q357.85938 247.97812 358.78125 248.97812Q359.70312 249.9625 359.70312 251.75937Q359.70312 251.86874 359.70312 252.0875L354.28125 252.0875Q354.35938 253.275 354.95312 253.91562Q355.5625 254.55624 356.48438 254.55624Q357.15625 254.55624 357.625 254.19687Q358.10938 253.8375 358.39062 253.05624ZM354.35938 251.07187L358.40625 251.07187Q358.32812 250.15 357.9375 249.69687Q357.35938 248.99374 356.42188 248.99374Q355.5625 248.99374 354.98438 249.55624Q354.42188 250.11874 354.35938 251.07187ZM360.9375 253.22812L362.14062 253.04062Q362.25 253.775 362.71875 254.16562Q363.1875 254.55624 364.03125 254.55624Q364.875 254.55624 365.28125 254.2125Q365.70312 253.86874 365.70312 253.4Q365.70312 252.97812 365.32812 252.74374Q365.07812 252.57187 364.07812 252.32187Q362.71875 251.97812 362.1875 251.72812Q361.67188 251.47812 361.40625 251.04062Q361.14062 250.60312 361.14062 250.07187Q361.14062 249.5875 361.35938 249.18124Q361.57812 248.75937 361.96875 248.47812Q362.25 248.275 362.73438 248.13437Q363.23438 247.97812 363.8125 247.97812Q364.65625 247.97812 365.29688 248.22812Q365.95312 248.4625 366.26562 248.88437Q366.57812 249.30624 366.6875 250.00937L365.48438 250.18124Q365.40625 249.61874 365.0 249.30624Q364.60938 248.99374 363.89062 248.99374Q363.04688 248.99374 362.6875 249.275Q362.32812 249.54062 362.32812 249.93124Q362.32812 250.16562 362.46875 250.35312Q362.625 250.55624 362.95312 250.68124Q363.125 250.74374 364.03125 250.99374Q365.34375 251.35312 365.85938 251.57187Q366.375 251.79062 366.65625 252.2125Q366.95312 252.63437 366.95312 253.25937Q366.95312 253.88437 366.59375 254.43124Q366.25 254.9625 365.5625 255.275Q364.89062 255.57187 364.03125 255.57187Q362.625 255.57187 361.875 254.97812Q361.14062 254.38437 360.9375 253.22812ZM371.10938 254.30624L371.28125 255.38437Q370.76562 255.49374 370.35938 255.49374Q369.6875 255.49374 369.3125 255.29062Q368.95312 255.07187 368.79688 254.72812Q368.65625 254.38437 368.65625 253.275L368.65625 249.10312L367.75 249.10312L367.75 248.13437L368.65625 248.13437L368.65625 246.3375L369.875 245.60312L369.875 248.13437L371.10938 248.13437L371.10938 249.10312L369.875 249.10312L369.875 253.3375Q369.875 253.86874 369.9375 254.025Q370.0 254.16562 370.14062 254.25937Q370.29688 254.35312 370.5625 254.35312Q370.78125 254.35312 371.10938 254.30624ZM371.9375 253.22812L373.14062 253.04062Q373.25 253.775 373.71875 254.16562Q374.1875 254.55624 375.03125 254.55624Q375.875 254.55624 376.28125 254.2125Q376.70312 253.86874 376.70312 253.4Q376.70312 252.97812 376.32812 252.74374Q376.07812 252.57187 375.07812 252.32187Q373.71875 251.97812 373.1875 251.72812Q372.67188 251.47812 372.40625 251.04062Q372.14062 250.60312 372.14062 250.07187Q372.14062 249.5875 372.35938 249.18124Q372.57812 248.75937 372.96875 248.47812Q373.25 248.275 373.73438 248.13437Q374.23438 247.97812 374.8125 247.97812Q375.65625 247.97812 376.29688 248.22812Q376.95312 248.4625 377.26562 248.88437Q377.57812 249.30624 377.6875 250.00937L376.48438 250.18124Q376.40625 249.61874 376.0 249.30624Q375.60938 248.99374 374.89062 248.99374Q374.04688 248.99374 373.6875 249.275Q373.32812 249.54062 373.32812 249.93124Q373.32812 250.16562 373.46875 250.35312Q373.625 250.55624 373.95312 250.68124Q374.125 250.74374 375.03125 250.99374Q376.34375 251.35312 376.85938 251.57187Q377.375 251.79062 377.65625 252.2125Q377.95312 252.63437 377.95312 253.25937Q377.95312 253.88437 377.59375 254.43124Q377.25 254.9625 376.5625 255.275Q375.89062 255.57187 375.03125 255.57187Q373.625 255.57187 372.875 254.97812Q372.14062 254.38437 371.9375 253.22812ZM383.57812 255.4L383.57812 245.38437L387.35938 245.38437Q388.35938 245.38437 388.89062 245.47812Q389.625 245.60312 390.125 245.94687Q390.625 246.29062 390.92188 246.91562Q391.23438 247.525 391.23438 248.275Q391.23438 249.55624 390.42188 250.44687Q389.60938 251.32187 387.48438 251.32187L384.90625 251.32187L384.90625 255.4L383.57812 255.4ZM384.90625 250.15L387.5 250.15Q388.78125 250.15 389.3125 249.66562Q389.85938 249.18124 389.85938 248.32187Q389.85938 247.68124 389.54688 247.24374Q389.23438 246.79062 388.70312 246.65Q388.375 246.55624 387.46875 246.55624L384.90625 246.55624L384.90625 250.15ZM397.39062 253.05624L398.67188 253.2125Q398.35938 254.3375 397.54688 254.9625Q396.73438 255.57187 395.46875 255.57187Q393.875 255.57187 392.9375 254.5875Q392.01562 253.60312 392.01562 251.8375Q392.01562 249.99374 392.95312 248.99374Q393.90625 247.97812 395.40625 247.97812Q396.85938 247.97812 397.78125 248.97812Q398.70312 249.9625 398.70312 251.75937Q398.70312 251.86874 398.70312 252.0875L393.28125 252.0875Q393.35938 253.275 393.95312 253.91562Q394.5625 254.55624 395.48438 254.55624Q396.15625 254.55624 396.625 254.19687Q397.10938 253.8375 397.39062 253.05624ZM393.35938 251.07187L397.40625 251.07187Q397.32812 250.15 396.9375 249.69687Q396.35938 248.99374 395.42188 248.99374Q394.5625 248.99374 393.98438 249.55624Q393.42188 250.11874 393.35938 251.07187ZM400.40625 255.4L400.40625 248.13437L401.51562 248.13437L401.51562 249.24374Q401.9375 248.4625 402.29688 248.22812Q402.65625 247.97812 403.09375 247.97812Q403.71875 247.97812 404.35938 248.36874L403.9375 249.50937Q403.48438 249.24374 403.03125 249.24374Q402.625 249.24374 402.29688 249.49374Q401.98438 249.72812 401.84375 250.16562Q401.64062 250.82187 401.64062 251.60312L401.64062 255.4L400.40625 255.4ZM409.125 252.18124L410.375 252.07187Q410.46875 252.82187 410.79688 253.30624Q411.125 253.79062 411.79688 254.0875Q412.48438 254.38437 413.34375 254.38437Q414.09375 254.38437 414.67188 254.16562Q415.26562 253.93124 415.54688 253.54062Q415.82812 253.15 415.82812 252.68124Q415.82812 252.2125 415.54688 251.86874Q415.28125 251.50937 414.65625 251.25937Q414.25 251.10312 412.85938 250.775Q411.48438 250.44687 410.9375 250.15Q410.21875 249.775 409.85938 249.22812Q409.51562 248.66562 409.51562 247.9625Q409.51562 247.2125 409.9375 246.55624Q410.375 245.88437 411.20312 245.55624Q412.03125 245.2125 413.04688 245.2125Q414.15625 245.2125 415.0 245.57187Q415.85938 245.93124 416.3125 246.63437Q416.76562 247.32187 416.8125 248.19687L415.53125 248.29062Q415.4375 247.35312 414.84375 246.86874Q414.25 246.36874 413.09375 246.36874Q411.89062 246.36874 411.34375 246.82187Q410.79688 247.25937 410.79688 247.88437Q410.79688 248.41562 411.1875 248.775Q411.5625 249.11874 413.17188 249.49374Q414.79688 249.85312 415.39062 250.11874Q416.26562 250.525 416.6875 251.15Q417.10938 251.75937 417.10938 252.57187Q417.10938 253.36874 416.64062 254.0875Q416.1875 254.79062 415.32812 255.18124Q414.46875 255.57187 413.40625 255.57187Q412.04688 255.57187 411.125 255.18124Q410.20312 254.775 409.67188 253.97812Q409.15625 253.18124 409.125 252.18124ZM423.39062 253.05624L424.67188 253.2125Q424.35938 254.3375 423.54688 254.9625Q422.73438 255.57187 421.46875 255.57187Q419.875 255.57187 418.9375 254.5875Q418.01562 253.60312 418.01562 251.8375Q418.01562 249.99374 418.95312 248.99374Q419.90625 247.97812 421.40625 247.97812Q422.85938 247.97812 423.78125 248.97812Q424.70312 249.9625 424.70312 251.75937Q424.70312 251.86874 424.70312 252.0875L419.28125 252.0875Q419.35938 253.275 419.95312 253.91562Q420.5625 254.55624 421.48438 254.55624Q422.15625 254.55624 422.625 254.19687Q423.10938 253.8375 423.39062 253.05624ZM419.35938 251.07187L423.40625 251.07187Q423.32812 250.15 422.9375 249.69687Q422.35938 248.99374 421.42188 248.99374Q420.5625 248.99374 419.98438 249.55624Q419.42188 250.11874 419.35938 251.07187ZM431.15625 252.74374L432.375 252.9Q432.17188 254.15 431.34375 254.86874Q430.53125 255.57187 429.34375 255.57187Q427.85938 255.57187 426.95312 254.60312Q426.04688 253.61874 426.04688 251.79062Q426.04688 250.61874 426.4375 249.74374Q426.82812 248.85312 427.625 248.41562Q428.42188 247.97812 429.35938 247.97812Q430.53125 247.97812 431.28125 248.57187Q432.04688 249.16562 432.25 250.275L431.0625 250.4625Q430.89062 249.72812 430.45312 249.36874Q430.01562 248.99374 429.40625 248.99374Q428.46875 248.99374 427.89062 249.66562Q427.3125 250.32187 427.3125 251.75937Q427.3125 253.22812 427.875 253.9Q428.4375 254.55624 429.32812 254.55624Q430.0625 254.55624 430.54688 254.11874Q431.03125 253.66562 431.15625 252.74374ZM432.96875 251.775Q432.96875 249.75937 434.09375 248.775Q435.01562 247.97812 436.375 247.97812Q437.85938 247.97812 438.8125 248.9625Q439.76562 249.93124 439.76562 251.66562Q439.76562 253.07187 439.34375 253.88437Q438.92188 254.68124 438.10938 255.13437Q437.3125 255.57187 436.375 255.57187Q434.84375 255.57187 433.90625 254.5875Q432.96875 253.60312 432.96875 251.775ZM434.23438 251.775Q434.23438 253.16562 434.84375 253.86874Q435.45312 254.55624 436.375 254.55624Q437.28125 254.55624 437.89062 253.85312Q438.5 253.15 438.5 251.72812Q438.5 250.38437 437.89062 249.69687Q437.28125 248.99374 436.375 248.99374Q435.45312 248.99374 434.84375 249.68124Q434.23438 250.36874 434.23438 251.775ZM441.42188 255.4L441.42188 248.13437L442.53125 248.13437L442.53125 249.16562Q443.32812 247.97812 444.84375 247.97812Q445.5 247.97812 446.04688 248.2125Q446.59375 248.44687 446.85938 248.8375Q447.14062 249.2125 447.25 249.74374Q447.32812 250.0875 447.32812 250.93124L447.32812 255.4L446.09375 255.4L446.09375 250.97812Q446.09375 250.22812 445.95312 249.86874Q445.8125 249.49374 445.4375 249.275Q445.07812 249.04062 444.57812 249.04062Q443.79688 249.04062 443.21875 249.54062Q442.65625 250.04062 442.65625 251.43124L442.65625 255.4L441.42188 255.4ZM454.14062 255.4L454.14062 254.47812Q453.4375 255.57187 452.10938 255.57187Q451.23438 255.57187 450.5 255.0875Q449.78125 254.60312 449.375 253.74374Q448.98438 252.88437 448.98438 251.775Q448.98438 250.69687 449.34375 249.80624Q449.70312 248.91562 450.42188 248.44687Q451.15625 247.97812 452.04688 247.97812Q452.70312 247.97812 453.21875 248.25937Q453.73438 248.525 454.04688 248.97812L454.04688 245.38437L455.28125 245.38437L455.28125 255.4L454.14062 255.4ZM450.25 251.775Q450.25 253.16562 450.82812 253.86874Q451.42188 254.55624 452.21875 254.55624Q453.03125 254.55624 453.59375 253.9Q454.15625 253.22812 454.15625 251.88437Q454.15625 250.38437 453.57812 249.69687Q453.0 248.99374 452.17188 248.99374Q451.34375 248.99374 450.79688 249.66562Q450.25 250.3375 450.25 251.775Z" fill-rule="nonzero"/><path fill="#000000" d="M26.599995 204.51979L16.58437 204.51979L16.58437 202.53542L23.67812 200.16042Q24.662495 199.83229 25.162495 199.67604Q24.61562 199.50417 23.55312 199.14479L16.58437 196.75417L16.58437 194.95729L26.599995 194.95729L26.599995 196.23854L18.20937 196.23854L26.599995 199.16042L26.599995 200.34792L18.068745 203.25417L26.599995 203.25417L26.599995 204.51979ZM24.256245 188.67604L24.412495 187.39479Q25.537495 187.70729 26.162495 188.51979Q26.77187 189.33229 26.77187 190.59792Q26.77187 192.19167 25.787495 193.12917Q24.80312 194.05104 23.037495 194.05104Q21.193745 194.05104 20.193745 193.11354Q19.17812 192.16042 19.17812 190.66042Q19.17812 189.20729 20.17812 188.28542Q21.162495 187.36354 22.95937 187.36354Q23.068745 187.36354 23.287495 187.36354L23.287495 192.78542Q24.474995 192.70729 25.11562 192.11354Q25.756245 191.50417 25.756245 190.58229Q25.756245 189.91042 25.39687 189.44167Q25.037495 188.95729 24.256245 188.67604ZM22.27187 192.70729L22.27187 188.66042Q21.349995 188.73854 20.89687 189.12917Q20.193745 189.70729 20.193745 190.64479Q20.193745 191.50417 20.756245 192.08229Q21.318745 192.64479 22.27187 192.70729ZM26.599995 180.92604L25.67812 180.92604Q26.77187 181.62917 26.77187 182.95729Q26.77187 183.83229 26.287495 184.56667Q25.80312 185.28542 24.943745 185.69167Q24.08437 186.08229 22.974995 186.08229Q21.89687 186.08229 21.006245 185.72292Q20.11562 185.36354 19.64687 184.64479Q19.17812 183.91042 19.17812 183.01979Q19.17812 182.36354 19.45937 181.84792Q19.724995 181.33229 20.17812 181.01979L16.58437 181.01979L16.58437 179.78542L26.599995 179.78542L26.599995 180.92604ZM22.974995 184.81667Q24.36562 184.81667 25.068745 184.23854Q25.756245 183.64479 25.756245 182.84792Q25.756245 182.03542 25.099995 181.47292Q24.42812 180.91042 23.08437 180.91042Q21.58437 180.91042 20.89687 181.48854Q20.193745 182.06667 20.193745 182.89479Q20.193745 183.72292 20.86562 184.26979Q21.537495 184.81667 22.974995 184.81667ZM17.99062 177.62917L16.58437 177.62917L16.58437 176.41042L17.99062 176.41042L17.99062 177.62917ZM26.599995 177.62917L19.33437 177.62917L19.33437 176.41042L26.599995 176.41042L26.599995 177.62917ZM25.70937 169.91042Q26.287495 170.58229 26.537495 171.22292Q26.77187 171.84792 26.77187 172.58229Q26.77187 173.76979 26.193745 174.42604Q25.599995 175.06667 24.67812 175.06667Q24.14687 175.06667 23.70937 174.83229Q23.27187 174.58229 23.006245 174.19167Q22.74062 173.78542 22.599995 173.30104Q22.506245 172.94167 22.412495 172.20729Q22.24062 170.70729 21.99062 170.00417Q21.74062 170.00417 21.67812 170.00417Q20.912495 170.00417 20.61562 170.34792Q20.193745 170.81667 20.193745 171.75417Q20.193745 172.61354 20.506245 173.03542Q20.80312 173.44167 21.568745 173.64479L21.412495 174.84792Q20.631245 174.69167 20.162495 174.31667Q19.693745 173.92604 19.443745 173.22292Q19.17812 172.50417 19.17812 171.56667Q19.17812 170.64479 19.39687 170.06667Q19.61562 169.48854 19.943745 169.22292Q20.27187 168.94167 20.787495 168.83229Q21.099995 168.76979 21.912495 168.76979L23.55312 168.76979Q25.27187 168.76979 25.724995 168.69167Q26.17812 168.61354 26.599995 168.37917L26.599995 169.66042Q26.20937 169.84792 25.70937 169.91042ZM22.95937 170.00417Q23.224995 170.67604 23.42812 172.01979Q23.537495 172.76979 23.67812 173.09792Q23.80312 173.41042 24.068745 173.58229Q24.33437 173.75417 24.64687 173.75417Q25.14687 173.75417 25.474995 173.37917Q25.80312 173.00417 25.80312 172.28542Q25.80312 171.56667 25.49062 171.01979Q25.17812 170.47292 24.631245 170.20729Q24.224995 170.00417 23.412495 170.00417L22.95937 170.00417ZM26.599995 166.64479L19.33437 166.64479L19.33437 165.53542L20.36562 165.53542Q19.17812 164.73854 19.17812 163.22292Q19.17812 162.56667 19.412495 162.01979Q19.64687 161.47292 20.037495 161.20729Q20.412495 160.92604 20.943745 160.81667Q21.287495 160.73854 22.131245 160.73854L26.599995 160.73854L26.599995 161.97292L22.17812 161.97292Q21.42812 161.97292 21.068745 162.11354Q20.693745 162.25417 20.474995 162.62917Q20.24062 162.98854 20.24062 163.48854Q20.24062 164.26979 20.74062 164.84792Q21.24062 165.41042 22.631245 165.41042L26.599995 165.41042L26.599995 166.64479ZM26.599995 154.53542L16.58437 154.53542L16.58437 153.20729L25.412495 153.20729L25.412495 148.28542L26.599995 148.28542L26.599995 154.53542ZM25.70937 141.91042Q26.287495 142.58229 26.537495 143.22292Q26.77187 143.84792 26.77187 144.58229Q26.77187 145.76979 26.193745 146.42604Q25.599995 147.06667 24.67812 147.06667Q24.14687 147.06667 23.70937 146.83229Q23.27187 146.58229 23.006245 146.19167Q22.74062 145.78542 22.599995 145.30104Q22.506245 144.94167 22.412495 144.20729Q22.24062 142.70729 21.99062 142.00417Q21.74062 142.00417 21.67812 142.00417Q20.912495 142.00417 20.61562 142.34792Q20.193745 142.81667 20.193745 143.75417Q20.193745 144.61354 20.506245 145.03542Q20.80312 145.44167 21.568745 145.64479L21.412495 146.84792Q20.631245 146.69167 20.162495 146.31667Q19.693745 145.92604 19.443745 145.22292Q19.17812 144.50417 19.17812 143.56667Q19.17812 142.64479 19.39687 142.06667Q19.61562 141.48854 19.943745 141.22292Q20.27187 140.94167 20.787495 140.83229Q21.099995 140.76979 21.912495 140.76979L23.55312 140.76979Q25.27187 140.76979 25.724995 140.69167Q26.17812 140.61354 26.599995 140.37917L26.599995 141.66042Q26.20937 141.84792 25.70937 141.91042ZM22.95937 142.00417Q23.224995 142.67604 23.42812 144.01979Q23.537495 144.76979 23.67812 145.09792Q23.80312 145.41042 24.068745 145.58229Q24.33437 145.75417 24.64687 145.75417Q25.14687 145.75417 25.474995 145.37917Q25.80312 145.00417 25.80312 144.28542Q25.80312 143.56667 25.49062 143.01979Q25.17812 142.47292 24.631245 142.20729Q24.224995 142.00417 23.412495 142.00417L22.95937 142.00417ZM25.506245 135.95729L26.58437 135.78542Q26.693745 136.30104 26.693745 136.70729Q26.693745 137.37917 26.49062 137.75417Q26.27187 138.11354 25.92812 138.26979Q25.58437 138.41042 24.474995 138.41042L20.30312 138.41042L20.30312 139.31667L19.33437 139.31667L19.33437 138.41042L17.537495 138.41042L16.80312 137.19167L19.33437 137.19167L19.33437 135.95729L20.30312 135.95729L20.30312 137.19167L24.537495 137.19167Q25.068745 137.19167 25.224995 137.12917Q25.36562 137.06667 25.45937 136.92604Q25.55312 136.76979 25.55312 136.50417Q25.55312 136.28542 25.506245 135.95729ZM24.256245 129.67604L24.412495 128.39479Q25.537495 128.70729 26.162495 129.51979Q26.77187 130.33229 26.77187 131.59792Q26.77187 133.19167 25.787495 134.12917Q24.80312 135.05104 23.037495 135.05104Q21.193745 135.05104 20.193745 134.11354Q19.17812 133.16042 19.17812 131.66042Q19.17812 130.20729 20.17812 129.28542Q21.162495 128.36354 22.95937 128.36354Q23.068745 128.36354 23.287495 128.36354L23.287495 133.78542Q24.474995 133.70729 25.11562 133.11354Q25.756245 132.50417 25.756245 131.58229Q25.756245 130.91042 25.39687 130.44167Q25.037495 129.95729 24.256245 129.67604ZM22.27187 133.70729L22.27187 129.66042Q21.349995 129.73854 20.89687 130.12917Q20.193745 130.70729 20.193745 131.64479Q20.193745 132.50417 20.756245 133.08229Q21.318745 133.64479 22.27187 133.70729ZM26.599995 126.64479L19.33437 126.64479L19.33437 125.535416L20.36562 125.535416Q19.17812 124.73854 19.17812 123.222916Q19.17812 122.566666 19.412495 122.01979Q19.64687 121.472916 20.037495 121.20729Q20.412495 120.92604 20.943745 120.816666Q21.287495 120.73854 22.131245 120.73854L26.599995 120.73854L26.599995 121.972916L22.17812 121.972916Q21.42812 121.972916 21.068745 122.11354Q20.693745 122.254166 20.474995 122.629166Q20.24062 122.98854 20.24062 123.48854Q20.24062 124.26979 20.74062 124.847916Q21.24062 125.410416 22.631245 125.410416L26.599995 125.410416L26.599995 126.64479ZM23.943745 113.910416L24.099995 112.691666Q25.349995 112.89479 26.068745 113.722916Q26.77187 114.535416 26.77187 115.722916Q26.77187 117.20729 25.80312 118.11354Q24.818745 119.01979 22.99062 119.01979Q21.818745 119.01979 20.943745 118.629166Q20.05312 118.23854 19.61562 117.441666Q19.17812 116.64479 19.17812 115.70729Q19.17812 114.535416 19.77187 113.785416Q20.36562 113.01979 21.474995 112.816666L21.662495 114.004166Q20.92812 114.17604 20.568745 114.61354Q20.193745 115.05104 20.193745 115.660416Q20.193745 116.597916 20.86562 117.17604Q21.52187 117.754166 22.95937 117.754166Q24.42812 117.754166 25.099995 117.191666Q25.756245 116.629166 25.756245 115.73854Q25.756245 115.004166 25.318745 114.51979Q24.86562 114.035416 23.943745 113.910416ZM29.39687 111.691666L28.24062 111.83229Q28.349995 111.42604 28.349995 111.129166Q28.349995 110.722916 28.20937 110.472916Q28.08437 110.222916 27.83437 110.066666Q27.64687 109.95729 26.912495 109.691666Q26.818745 109.660416 26.61562 109.58229L19.33437 112.347916L19.33437 111.01979L23.537495 109.504166Q24.349995 109.20729 25.224995 108.972916Q24.381245 108.76979 23.568745 108.472916L19.33437 106.92604L19.33437 105.691666L26.724995 108.45729Q27.912495 108.89479 28.36562 109.14479Q28.974995 109.472916 29.256245 109.89479Q29.55312 110.316666 29.55312 110.910416Q29.55312 111.254166 29.39687 111.691666ZM29.55312 98.285416Q28.256245 99.316666 26.537495 100.01979Q24.818745 100.722916 22.974995 100.722916Q21.349995 100.722916 19.849995 100.191666Q18.11562 99.58229 16.412495 98.285416L16.412495 97.410416Q17.83437 98.23854 18.443745 98.504166Q19.381245 98.92604 20.412495 99.160416Q21.67812 99.45729 22.974995 99.45729Q26.27187 99.45729 29.55312 97.410416L29.55312 98.285416ZM24.42812 96.129166L24.24062 94.92604Q24.974995 94.816666 25.36562 94.347916Q25.756245 93.879166 25.756245 93.035416Q25.756245 92.191666 25.412495 91.785416Q25.068745 91.36354 24.599995 91.36354Q24.17812 91.36354 23.943745 91.73854Q23.77187 91.98854 23.52187 92.98854Q23.17812 94.347916 22.92812 94.879166Q22.67812 95.39479 22.24062 95.660416Q21.80312 95.92604 21.27187 95.92604Q20.787495 95.92604 20.381245 95.70729Q19.95937 95.48854 19.67812 95.097916Q19.474995 94.816666 19.33437 94.33229Q19.17812 93.83229 19.17812 93.254166Q19.17812 92.410416 19.42812 91.76979Q19.662495 91.11354 20.08437 90.80104Q20.506245 90.48854 21.20937 90.379166L21.381245 91.58229Q20.818745 91.660416 20.506245 92.066666Q20.193745 92.45729 20.193745 93.17604Q20.193745 94.01979 20.474995 94.379166Q20.74062 94.73854 21.131245 94.73854Q21.36562 94.73854 21.55312 94.597916Q21.756245 94.441666 21.881245 94.11354Q21.943745 93.941666 22.193745 93.035416Q22.55312 91.722916 22.77187 91.20729Q22.99062 90.691666 23.412495 90.410416Q23.83437 90.11354 24.45937 90.11354Q25.08437 90.11354 25.631245 90.472916Q26.162495 90.816666 26.474995 91.504166Q26.77187 92.17604 26.77187 93.035416Q26.77187 94.441666 26.17812 95.191666Q25.58437 95.92604 24.42812 96.129166ZM29.55312 87.83229L29.55312 88.722916Q26.27187 86.67604 22.974995 86.67604Q21.693745 86.67604 20.42812 86.972916Q19.39687 87.20729 18.45937 87.61354Q17.849995 87.879166 16.412495 88.722916L16.412495 87.83229Q18.11562 86.55104 19.849995 85.941666Q21.349995 85.410416 22.974995 85.410416Q24.818745 85.410416 26.537495 86.129166Q28.256245 86.83229 29.55312 87.83229Z" fill-rule="nonzero"/><path fill="#000000" d="M67.17812 198.4625Q67.17812 196.68124 67.5375 195.60312Q67.9125 194.50937 68.63125 193.93124Q69.35 193.3375 70.44375 193.3375Q71.25625 193.3375 71.86562 193.66562Q72.475 193.99374 72.86562 194.60312Q73.27187 195.2125 73.49062 196.0875Q73.70937 196.9625 73.70937 198.4625Q73.70937 200.22812 73.35 201.30624Q72.99062 202.38437 72.27187 202.97812Q71.55312 203.57187 70.44375 203.57187Q69.00625 203.57187 68.17812 202.525Q67.17812 201.275 67.17812 198.4625ZM68.44375 198.4625Q68.44375 200.93124 69.02187 201.74374Q69.6 202.55624 70.44375 202.55624Q71.30312 202.55624 71.88125 201.74374Q72.45937 200.91562 72.45937 198.4625Q72.45937 195.97812 71.88125 195.16562Q71.30312 194.35312 70.42812 194.35312Q69.58437 194.35312 69.08437 195.07187Q68.44375 195.99374 68.44375 198.4625Z" fill-rule="nonzero"/><path fill="#000000" d="M57.646873 161.65695L57.646873 162.84445L51.021873 162.84445Q51.00625 162.40695 51.1625 161.98508Q51.428123 161.3132 51.975 160.65695Q52.5375 160.0007 53.584373 159.14133Q55.225 157.79758 55.7875 157.01633Q56.365623 156.23508 56.365623 155.53195Q56.365623 154.79758 55.834373 154.29758Q55.31875 153.79758 54.490623 153.79758Q53.6 153.79758 53.053123 154.32883Q52.521873 154.86008 52.521873 155.8132L51.25625 155.67258Q51.38125 154.26633 52.225 153.53195Q53.084373 152.78195 54.50625 152.78195Q55.959373 152.78195 56.7875 153.57883Q57.63125 154.3757 57.63125 155.5632Q57.63125 156.17258 57.38125 156.7507Q57.146873 157.32883 56.56875 157.96945Q56.00625 158.61008 54.678123 159.73508Q53.56875 160.65695 53.25625 161.0007Q52.94375 161.32883 52.740623 161.65695L57.646873 161.65695ZM59.178123 157.90695Q59.178123 156.1257 59.5375 155.04758Q59.9125 153.95383 60.63125 153.3757Q61.35 152.78195 62.44375 152.78195Q63.25625 152.78195 63.865623 153.11008Q64.475 153.4382 64.86562 154.04758Q65.27187 154.65695 65.49062 155.53195Q65.70937 156.40695 65.70937 157.90695Q65.70937 159.67258 65.35 160.7507Q64.99062 161.82883 64.27187 162.42258Q63.553123 163.01633 62.44375 163.01633Q61.00625 163.01633 60.178123 161.96945Q59.178123 160.71945 59.178123 157.90695ZM60.44375 157.90695Q60.44375 160.3757 61.021873 161.1882Q61.6 162.0007 62.44375 162.0007Q63.303123 162.0007 63.88125 161.1882Q64.45937 160.36008 64.45937 157.90695Q64.45937 155.42258 63.88125 154.61008Q63.303123 153.79758 62.428123 153.79758Q61.584373 153.79758 61.084373 154.51633Q60.44375 155.4382 60.44375 157.90695ZM67.17812 157.90695Q67.17812 156.1257 67.5375 155.04758Q67.9125 153.95383 68.63125 153.3757Q69.35 152.78195 70.44375 152.78195Q71.25625 152.78195 71.86562 153.11008Q72.475 153.4382 72.86562 154.04758Q73.27187 154.65695 73.49062 155.53195Q73.70937 156.40695 73.70937 157.90695Q73.70937 159.67258 73.35 160.7507Q72.99062 161.82883 72.27187 162.42258Q71.55312 163.01633 70.44375 163.01633Q69.00625 163.01633 68.17812 161.96945Q67.17812 160.71945 67.17812 157.90695ZM68.44375 157.90695Q68.44375 160.3757 69.02187 161.1882Q69.6 162.0007 70.44375 162.0007Q71.30312 162.0007 71.88125 161.1882Q72.45937 160.36008 72.45937 157.90695Q72.45937 155.42258 71.88125 154.61008Q71.30312 153.79758 70.42812 153.79758Q69.58437 153.79758 69.08437 154.51633Q68.44375 155.4382 68.44375 157.90695Z" fill-rule="nonzero"/><path fill="#000000" d="M55.13125 122.28889L55.13125 119.88264L50.771873 119.88264L50.771873 118.75764L55.35 112.27326L56.35 112.27326L56.35 118.75764L57.709373 118.75764L57.709373 119.88264L56.35 119.88264L56.35 122.28889L55.13125 122.28889ZM55.13125 118.75764L55.13125 114.24201L51.990623 118.75764L55.13125 118.75764ZM59.178123 117.35139Q59.178123 115.57014 59.5375 114.49201Q59.9125 113.39826 60.63125 112.82014Q61.35 112.22639 62.44375 112.22639Q63.25625 112.22639 63.865623 112.55451Q64.475 112.88264 64.86562 113.49201Q65.27187 114.10139 65.49062 114.97639Q65.70937 115.85139 65.70937 117.35139Q65.70937 119.11701 65.35 120.19514Q64.99062 121.27326 64.27187 121.86701Q63.553123 122.46076 62.44375 122.46076Q61.00625 122.46076 60.178123 121.41389Q59.178123 120.16389 59.178123 117.35139ZM60.44375 117.35139Q60.44375 119.82014 61.021873 120.63264Q61.6 121.44514 62.44375 121.44514Q63.303123 121.44514 63.88125 120.63264Q64.45937 119.80451 64.45937 117.35139Q64.45937 114.86701 63.88125 114.05451Q63.303123 113.24201 62.428123 113.24201Q61.584373 113.24201 61.084373 113.96076Q60.44375 114.88264 60.44375 117.35139ZM67.17812 117.35139Q67.17812 115.57014 67.5375 114.49201Q67.9125 113.39826 68.63125 112.82014Q69.35 112.22639 70.44375 112.22639Q71.25625 112.22639 71.86562 112.55451Q72.475 112.88264 72.86562 113.49201Q73.27187 114.10139 73.49062 114.97639Q73.70937 115.85139 73.70937 117.35139Q73.70937 119.11701 73.35 120.19514Q72.99062 121.27326 72.27187 121.86701Q71.55312 122.46076 70.44375 122.46076Q69.00625 122.46076 68.17812 121.41389Q67.17812 120.16389 67.17812 117.35139ZM68.44375 117.35139Q68.44375 119.82014 69.02187 120.63264Q69.6 121.44514 70.44375 121.44514Q71.30312 121.44514 71.88125 120.63264Q72.45937 119.80451 72.45937 117.35139Q72.45937 114.86701 71.88125 114.05451Q71.30312 113.24201 70.42812 113.24201Q69.58437 113.24201 69.08437 113.96076Q68.44375 114.88264 68.44375 117.35139Z" fill-rule="nonzero"/><path fill="#000000" d="M57.56875 74.17083L56.35 74.26458Q56.178123 73.530205 55.88125 73.20208Q55.38125 72.686455 54.646873 72.686455Q54.053123 72.686455 53.615623 73.01458Q53.0375 73.436455 52.69375 74.248955Q52.365623 75.061455 52.35 76.561455Q52.7875 75.88958 53.428123 75.561455Q54.084373 75.23333 54.7875 75.23333Q56.021873 75.23333 56.88125 76.13958Q57.740623 77.04583 57.740623 78.48333Q57.740623 79.42083 57.334373 80.23333Q56.928123 81.04583 56.209373 81.48333Q55.50625 81.905205 54.6 81.905205Q53.06875 81.905205 52.1 80.780205Q51.13125 79.63958 51.13125 77.04583Q51.13125 74.13958 52.19375 72.811455Q53.13125 71.67083 54.725 71.67083Q55.9125 71.67083 56.6625 72.342705Q57.4125 72.998955 57.56875 74.17083ZM52.5375 78.48333Q52.5375 79.123955 52.803123 79.70208Q53.084373 80.280205 53.56875 80.592705Q54.053123 80.88958 54.584373 80.88958Q55.365623 80.88958 55.928123 80.26458Q56.490623 79.63958 56.490623 78.561455Q56.490623 77.51458 55.928123 76.92083Q55.38125 76.311455 54.5375 76.311455Q53.709373 76.311455 53.115623 76.92083Q52.5375 77.51458 52.5375 78.48333ZM59.178123 76.79583Q59.178123 75.01458 59.5375 73.936455Q59.9125 72.842705 60.63125 72.26458Q61.35 71.67083 62.44375 71.67083Q63.25625 71.67083 63.865623 71.998955Q64.475 72.32708 64.86562 72.936455Q65.27187 73.54583 65.49062 74.42083Q65.70937 75.29583 65.70937 76.79583Q65.70937 78.561455 65.35 79.63958Q64.99062 80.717705 64.27187 81.311455Q63.553123 81.905205 62.44375 81.905205Q61.00625 81.905205 60.178123 80.85833Q59.178123 79.60833 59.178123 76.79583ZM60.44375 76.79583Q60.44375 79.26458 61.021873 80.07708Q61.6 80.88958 62.44375 80.88958Q63.303123 80.88958 63.88125 80.07708Q64.45937 79.248955 64.45937 76.79583Q64.45937 74.311455 63.88125 73.498955Q63.303123 72.686455 62.428123 72.686455Q61.584373 72.686455 61.084373 73.405205Q60.44375 74.32708 60.44375 76.79583ZM67.17812 76.79583Q67.17812 75.01458 67.5375 73.936455Q67.9125 72.842705 68.63125 72.26458Q69.35 71.67083 70.44375 71.67083Q71.25625 71.67083 71.86562 71.998955Q72.475 72.32708 72.86562 72.936455Q73.27187 73.54583 73.49062 74.42083Q73.70937 75.29583 73.70937 76.79583Q73.70937 78.561455 73.35 79.63958Q72.99062 80.717705 72.27187 81.311455Q71.55312 81.905205 70.44375 81.905205Q69.00625 81.905205 68.17812 80.85833Q67.17812 79.60833 67.17812 76.79583ZM68.44375 76.79583Q68.44375 79.26458 69.02187 80.07708Q69.6 80.88958 70.44375 80.88958Q71.30312 80.88958 71.88125 80.07708Q72.45937 79.248955 72.45937 76.79583Q72.45937 74.311455 71.88125 73.498955Q71.30312 72.686455 70.42812 72.686455Q69.58437 72.686455 69.08437 73.405205Q68.44375 74.32708 68.44375 76.79583Z" fill-rule="nonzero"/><path fill="#000000" d="M78.17812 213.4625Q78.17812 211.68124 78.5375 210.60312Q78.9125 209.50937 79.63125 208.93124Q80.35 208.3375 81.44375 208.3375Q82.25625 208.3375 82.86562 208.66562Q83.475 208.99374 83.86562 209.60312Q84.27187 210.2125 84.49062 211.0875Q84.70937 211.9625 84.70937 213.4625Q84.70937 215.22812 84.35 216.30624Q83.99062 217.38437 83.27187 217.97812Q82.55312 218.57187 81.44375 218.57187Q80.00625 218.57187 79.17812 217.525Q78.17812 216.275 78.17812 213.4625ZM79.44375 213.4625Q79.44375 215.93124 80.02187 216.74374Q80.6 217.55624 81.44375 217.55624Q82.30312 217.55624 82.88125 216.74374Q83.45937 215.91562 83.45937 213.4625Q83.45937 210.97812 82.88125 210.16562Q82.30312 209.35312 81.42812 209.35312Q80.58437 209.35312 80.08437 210.07187Q79.44375 210.99374 79.44375 213.4625Z" fill-rule="nonzero"/><path fill="#000000" d="M152.62465 217.2125L152.62465 218.4L145.99965 218.4Q145.98402 217.9625 146.14027 217.54062Q146.4059 216.86874 146.95277 216.2125Q147.51527 215.55624 148.56215 214.69687Q150.20277 213.35312 150.76527 212.57187Q151.3434 211.79062 151.3434 211.0875Q151.3434 210.35312 150.81215 209.85312Q150.29652 209.35312 149.4684 209.35312Q148.57777 209.35312 148.0309 209.88437Q147.49965 210.41562 147.49965 211.36874L146.23402 211.22812Q146.35902 209.82187 147.20277 209.0875Q148.06215 208.3375 149.48402 208.3375Q150.93715 208.3375 151.76527 209.13437Q152.60902 209.93124 152.60902 211.11874Q152.60902 211.72812 152.35902 212.30624Q152.12465 212.88437 151.54652 213.525Q150.98402 214.16562 149.6559 215.29062Q148.54652 216.2125 148.23402 216.55624Q147.92152 216.88437 147.7184 217.2125L152.62465 217.2125Z" fill-rule="nonzero"/><path fill="#000000" d="M218.0868 218.4L218.0868 215.99374L213.72743 215.99374L213.72743 214.86874L218.30556 208.38437L219.30556 208.38437L219.30556 214.86874L220.66493 214.86874L220.66493 215.99374L219.30556 215.99374L219.30556 218.4L218.0868 218.4ZM218.0868 214.86874L218.0868 210.35312L214.94618 214.86874L218.0868 214.86874Z" fill-rule="nonzero"/><path fill="#000000" d="M288.50208 210.8375L287.28333 210.93124Q287.11145 210.19687 286.81458 209.86874Q286.31458 209.35312 285.5802 209.35312Q284.98645 209.35312 284.54895 209.68124Q283.97083 210.10312 283.62708 210.91562Q283.29895 211.72812 283.28333 213.22812Q283.72083 212.55624 284.36145 212.22812Q285.0177 211.9 285.72083 211.9Q286.9552 211.9 287.81458 212.80624Q288.67395 213.7125 288.67395 215.15Q288.67395 216.0875 288.2677 216.9Q287.86145 217.7125 287.1427 218.15Q286.43958 218.57187 285.53333 218.57187Q284.00208 218.57187 283.03333 217.44687Q282.06458 216.30624 282.06458 213.7125Q282.06458 210.80624 283.12708 209.47812Q284.06458 208.3375 285.65833 208.3375Q286.84583 208.3375 287.59583 209.00937Q288.34583 209.66562 288.50208 210.8375ZM283.47083 215.15Q283.47083 215.79062 283.73645 216.36874Q284.0177 216.94687 284.50208 217.25937Q284.98645 217.55624 285.5177 217.55624Q286.29895 217.55624 286.86145 216.93124Q287.42395 216.30624 287.42395 215.22812Q287.42395 214.18124 286.86145 213.5875Q286.31458 212.97812 285.47083 212.97812Q284.6427 212.97812 284.04895 213.5875Q283.47083 214.18124 283.47083 215.15Z" fill-rule="nonzero"/><path fill="#000000" d="M351.97986 212.9625Q351.21423 212.68124 350.83923 212.16562Q350.47986 211.65 350.47986 210.91562Q350.47986 209.82187 351.2611 209.0875Q352.05798 208.3375 353.35486 208.3375Q354.66736 208.3375 355.46423 209.10312Q356.27673 209.86874 356.27673 210.9625Q356.27673 211.65 355.90173 212.16562Q355.54236 212.68124 354.79236 212.9625Q355.71423 213.25937 356.1986 213.93124Q356.68298 214.60312 356.68298 215.54062Q356.68298 216.82187 355.77673 217.69687Q354.87048 218.57187 353.3861 218.57187Q351.90173 218.57187 350.97986 217.69687Q350.0736 216.80624 350.0736 215.49374Q350.0736 214.525 350.5736 213.86874Q351.0736 213.19687 351.97986 212.9625ZM351.74548 210.88437Q351.74548 211.5875 352.1986 212.04062Q352.65173 212.49374 353.3861 212.49374Q354.10486 212.49374 354.55798 212.05624Q355.0111 211.60312 355.0111 210.94687Q355.0111 210.275 354.54236 209.82187Q354.0736 209.35312 353.37048 209.35312Q352.66736 209.35312 352.1986 209.80624Q351.74548 210.24374 351.74548 210.88437ZM351.33923 215.50937Q351.33923 216.04062 351.58923 216.54062Q351.83923 217.025 352.3236 217.29062Q352.8236 217.55624 353.40173 217.55624Q354.27673 217.55624 354.83923 216.99374Q355.41736 216.43124 355.41736 215.55624Q355.41736 214.66562 354.8236 214.0875Q354.24548 213.49374 353.35486 213.49374Q352.47986 213.49374 351.90173 214.07187Q351.33923 214.65 351.33923 215.50937Z" fill-rule="nonzero"/><path fill="#000000" d="M418.70764 218.4L417.47327 218.4L417.47327 210.55624Q417.03577 210.97812 416.3014 211.41562Q415.58264 211.8375 415.02014 212.04062L415.02014 210.85312Q416.0514 210.36874 416.81702 209.68124Q417.59827 208.99374 417.91077 208.3375L418.70764 208.3375L418.70764 218.4ZM422.06702 213.4625Q422.06702 211.68124 422.4264 210.60312Q422.8014 209.50937 423.52014 208.93124Q424.2389 208.3375 425.33264 208.3375Q426.14514 208.3375 426.75452 208.66562Q427.3639 208.99374 427.75452 209.60312Q428.16077 210.2125 428.37952 211.0875Q428.59827 211.9625 428.59827 213.4625Q428.59827 215.22812 428.2389 216.30624Q427.87952 217.38437 427.16077 217.97812Q426.44202 218.57187 425.33264 218.57187Q423.89514 218.57187 423.06702 217.525Q422.06702 216.275 422.06702 213.4625ZM423.33264 213.4625Q423.33264 215.93124 423.91077 216.74374Q424.4889 217.55624 425.33264 217.55624Q426.19202 217.55624 426.77014 216.74374Q427.34827 215.91562 427.34827 213.4625Q427.34827 210.97812 426.77014 210.16562Q426.19202 209.35312 425.31702 209.35312Q424.47327 209.35312 423.97327 210.07187Q423.33264 210.99374 423.33264 213.4625Z" fill-rule="nonzero"/><path fill="#000000" d="M486.68542 218.4L485.45105 218.4L485.45105 210.55624Q485.01355 210.97812 484.27917 211.41562Q483.56042 211.8375 482.99792 212.04062L482.99792 210.85312Q484.02917 210.36874 484.7948 209.68124Q485.57605 208.99374 485.88855 208.3375L486.68542 208.3375L486.68542 218.4ZM496.51355 217.2125L496.51355 218.4L489.88855 218.4Q489.87292 217.9625 490.02917 217.54062Q490.2948 216.86874 490.84167 216.2125Q491.40417 215.55624 492.45105 214.69687Q494.09167 213.35312 494.65417 212.57187Q495.2323 211.79062 495.2323 211.0875Q495.2323 210.35312 494.70105 209.85312Q494.18542 209.35312 493.3573 209.35312Q492.46667 209.35312 491.9198 209.88437Q491.38855 210.41562 491.38855 211.36874L490.12292 211.22812Q490.24792 209.82187 491.09167 209.0875Q491.95105 208.3375 493.37292 208.3375Q494.82605 208.3375 495.65417 209.13437Q496.49792 209.93124 496.49792 211.11874Q496.49792 211.72812 496.24792 212.30624Q496.01355 212.88437 495.43542 213.525Q494.87292 214.16562 493.5448 215.29062Q492.43542 216.2125 492.12292 216.55624Q491.81042 216.88437 491.6073 217.2125L496.51355 217.2125Z" fill-rule="nonzero"/><path fill="#000000" d="M554.6632 218.4L553.42883 218.4L553.42883 210.55624Q552.99133 210.97812 552.25696 211.41562Q551.5382 211.8375 550.9757 212.04062L550.9757 210.85312Q552.00696 210.36874 552.7726 209.68124Q553.55383 208.99374 553.86633 208.3375L554.6632 208.3375L554.6632 218.4ZM561.9757 218.4L561.9757 215.99374L557.61633 215.99374L557.61633 214.86874L562.19446 208.38437L563.19446 208.38437L563.19446 214.86874L564.55383 214.86874L564.55383 215.99374L563.19446 215.99374L563.19446 218.4L561.9757 218.4ZM561.9757 214.86874L561.9757 210.35312L558.8351 214.86874L561.9757 214.86874Z" fill-rule="nonzero"/><path fill="#000000" d="M622.641 218.4L621.4066 218.4L621.4066 210.55624Q620.9691 210.97812 620.23474 211.41562Q619.516 211.8375 618.9535 212.04062L618.9535 210.85312Q619.98474 210.36874 620.75037 209.68124Q621.5316 208.99374 621.8441 208.3375L622.641 208.3375L622.641 218.4ZM632.391 210.8375L631.17224 210.93124Q631.00037 210.19687 630.7035 209.86874Q630.2035 209.35312 629.4691 209.35312Q628.87537 209.35312 628.43787 209.68124Q627.85974 210.10312 627.516 210.91562Q627.18787 211.72812 627.17224 213.22812Q627.60974 212.55624 628.25037 212.22812Q628.9066 211.9 629.60974 211.9Q630.8441 211.9 631.7035 212.80624Q632.56287 213.7125 632.56287 215.15Q632.56287 216.0875 632.1566 216.9Q631.75037 217.7125 631.0316 218.15Q630.3285 218.57187 629.42224 218.57187Q627.891 218.57187 626.92224 217.44687Q625.9535 216.30624 625.9535 213.7125Q625.9535 210.80624 627.016 209.47812Q627.9535 208.3375 629.54724 208.3375Q630.73474 208.3375 631.48474 209.00937Q632.23474 209.66562 632.391 210.8375ZM627.35974 215.15Q627.35974 215.79062 627.62537 216.36874Q627.9066 216.94687 628.391 217.25937Q628.87537 217.55624 629.4066 217.55624Q630.18787 217.55624 630.75037 216.93124Q631.31287 216.30624 631.31287 215.22812Q631.31287 214.18124 630.75037 213.5875Q630.2035 212.97812 629.35974 212.97812Q628.5316 212.97812 627.93787 213.5875Q627.35974 214.18124 627.35974 215.15Z" fill-rule="nonzero"/><path fill="#000000" d="M690.6188 218.4L689.3844 218.4L689.3844 210.55624Q688.9469 210.97812 688.2125 211.41562Q687.4938 211.8375 686.9313 212.04062L686.9313 210.85312Q687.9625 210.36874 688.72815 209.68124Q689.5094 208.99374 689.8219 208.3375L690.6188 208.3375L690.6188 218.4ZM695.8688 212.9625Q695.10315 212.68124 694.72815 212.16562Q694.3688 211.65 694.3688 210.91562Q694.3688 209.82187 695.15 209.0875Q695.9469 208.3375 697.2438 208.3375Q698.5563 208.3375 699.35315 209.10312Q700.16565 209.86874 700.16565 210.9625Q700.16565 211.65 699.79065 212.16562Q699.4313 212.68124 698.6813 212.9625Q699.60315 213.25937 700.0875 213.93124Q700.5719 214.60312 700.5719 215.54062Q700.5719 216.82187 699.66565 217.69687Q698.7594 218.57187 697.275 218.57187Q695.79065 218.57187 694.8688 217.69687Q693.9625 216.80624 693.9625 215.49374Q693.9625 214.525 694.4625 213.86874Q694.9625 213.19687 695.8688 212.9625ZM695.6344 210.88437Q695.6344 211.5875 696.0875 212.04062Q696.54065 212.49374 697.275 212.49374Q697.9938 212.49374 698.4469 212.05624Q698.9 211.60312 698.9 210.94687Q698.9 210.275 698.4313 209.82187Q697.9625 209.35312 697.2594 209.35312Q696.5563 209.35312 696.0875 209.80624Q695.6344 210.24374 695.6344 210.88437ZM695.22815 215.50937Q695.22815 216.04062 695.47815 216.54062Q695.72815 217.025 696.2125 217.29062Q696.7125 217.55624 697.29065 217.55624Q698.16565 217.55624 698.72815 216.99374Q699.3063 216.43124 699.3063 215.55624Q699.3063 214.66562 698.7125 214.0875Q698.1344 213.49374 697.2438 213.49374Q696.3688 213.49374 695.79065 214.07187Q695.22815 214.65 695.22815 215.50937Z" fill-rule="nonzero"/><path stroke="#30a2ff" stroke-width="4.0" stroke-linecap="butt" d="M282.5 51.666668L294.5 51.666668" fill-rule="nonzero"/><path fill="#1a1a1a" d="M305.4375 56.666668L302.67188 49.401043L303.98438 49.401043L305.53125 53.760418Q305.78125 54.463543 306.0 55.213543Q306.17188 54.635418 306.45312 53.838543L308.07812 49.401043L309.34375 49.401043L306.59375 56.666668L305.4375 56.666668ZM310.53125 56.666668L310.53125 46.651043L311.85938 46.651043L311.85938 55.479168L316.78125 55.479168L316.78125 56.666668L310.53125 56.666668ZM318.53125 56.666668L318.53125 46.651043L319.85938 46.651043L319.85938 55.479168L324.78125 55.479168L324.78125 56.666668L318.53125 56.666668ZM326.54688 56.666668L326.54688 46.651043L328.53125 46.651043L330.90625 53.744793Q331.23438 54.729168 331.39062 55.229168Q331.5625 54.682293 331.92188 53.619793L334.3125 46.651043L336.10938 46.651043L336.10938 56.666668L334.82812 56.666668L334.82812 48.276043L331.90625 56.666668L330.71875 56.666668L327.8125 48.135418L327.8125 56.666668L326.54688 56.666668Z" fill-rule="nonzero"/><path stroke="#ff6d01" stroke-width="4.0" stroke-linecap="butt" d="M352.5 51.666668L364.5 51.666668" fill-rule="nonzero"/><path fill="#1a1a1a" d="M373.125 53.447918L374.375 53.338543Q374.46875 54.088543 374.79688 54.572918Q375.125 55.057293 375.79688 55.354168Q376.48438 55.651043 377.34375 55.651043Q378.09375 55.651043 378.67188 55.432293Q379.26562 55.197918 379.54688 54.807293Q379.82812 54.416668 379.82812 53.947918Q379.82812 53.479168 379.54688 53.135418Q379.28125 52.776043 378.65625 52.526043Q378.25 52.369793 376.85938 52.041668Q375.48438 51.713543 374.9375 51.416668Q374.21875 51.041668 373.85938 50.494793Q373.51562 49.932293 373.51562 49.229168Q373.51562 48.479168 373.9375 47.822918Q374.375 47.151043 375.20312 46.822918Q376.03125 46.479168 377.04688 46.479168Q378.15625 46.479168 379.0 46.838543Q379.85938 47.197918 380.3125 47.901043Q380.76562 48.588543 380.8125 49.463543L379.53125 49.557293Q379.4375 48.619793 378.84375 48.135418Q378.25 47.635418 377.09375 47.635418Q375.89062 47.635418 375.34375 48.088543Q374.79688 48.526043 374.79688 49.151043Q374.79688 49.682293 375.1875 50.041668Q375.5625 50.385418 377.17188 50.760418Q378.79688 51.119793 379.39062 51.385418Q380.26562 51.791668 380.6875 52.416668Q381.10938 53.026043 381.10938 53.838543Q381.10938 54.635418 380.64062 55.354168Q380.1875 56.057293 379.32812 56.447918Q378.46875 56.838543 377.40625 56.838543Q376.04688 56.838543 375.125 56.447918Q374.20312 56.041668 373.67188 55.244793Q373.15625 54.447918 373.125 53.447918ZM387.26562 52.729168L387.26562 51.557293L391.51562 51.557293L391.51562 55.276043Q390.53125 56.057293 389.48438 56.447918Q388.45312 56.838543 387.35938 56.838543Q385.89062 56.838543 384.67188 56.213543Q383.46875 55.572918 382.85938 54.385418Q382.25 53.182293 382.25 51.697918Q382.25 50.244793 382.85938 48.979168Q383.46875 47.697918 384.60938 47.088543Q385.76562 46.479168 387.26562 46.479168Q388.34375 46.479168 389.21875 46.838543Q390.10938 47.182293 390.60938 47.807293Q391.10938 48.432293 391.35938 49.447918L390.17188 49.776043Q389.9375 49.010418 389.59375 48.572918Q389.26562 48.135418 388.64062 47.869793Q388.03125 47.604168 387.26562 47.604168Q386.35938 47.604168 385.6875 47.885418Q385.03125 48.166668 384.625 48.619793Q384.21875 49.057293 384.0 49.604168Q383.60938 50.541668 383.60938 51.619793Q383.60938 52.963543 384.0625 53.869793Q384.53125 54.760418 385.40625 55.197918Q386.29688 55.635418 387.29688 55.635418Q388.15625 55.635418 388.96875 55.307293Q389.79688 54.979168 390.21875 54.604168L390.21875 52.729168L387.26562 52.729168ZM393.53125 56.666668L393.53125 46.651043L394.85938 46.651043L394.85938 55.479168L399.78125 55.479168L399.78125 56.666668L393.53125 56.666668ZM406.15625 55.776043Q405.48438 56.354168 404.84375 56.604168Q404.21875 56.838543 403.48438 56.838543Q402.29688 56.838543 401.64062 56.260418Q401.0 55.666668 401.0 54.744793Q401.0 54.213543 401.23438 53.776043Q401.48438 53.338543 401.875 53.072918Q402.28125 52.807293 402.76562 52.666668Q403.125 52.572918 403.85938 52.479168Q405.35938 52.307293 406.0625 52.057293Q406.0625 51.807293 406.0625 51.744793Q406.0625 50.979168 405.71875 50.682293Q405.25 50.260418 404.3125 50.260418Q403.45312 50.260418 403.03125 50.572918Q402.625 50.869793 402.42188 51.635418L401.21875 51.479168Q401.375 50.697918 401.75 50.229168Q402.14062 49.760418 402.84375 49.510418Q403.5625 49.244793 404.5 49.244793Q405.42188 49.244793 406.0 49.463543Q406.57812 49.682293 406.84375 50.010418Q407.125 50.338543 407.23438 50.854168Q407.29688 51.166668 407.29688 51.979168L407.29688 53.619793Q407.29688 55.338543 407.375 55.791668Q407.45312 56.244793 407.6875 56.666668L406.40625 56.666668Q406.21875 56.276043 406.15625 55.776043ZM406.0625 53.026043Q405.39062 53.291668 404.04688 53.494793Q403.29688 53.604168 402.96875 53.744793Q402.65625 53.869793 402.48438 54.135418Q402.3125 54.401043 402.3125 54.713543Q402.3125 55.213543 402.6875 55.541668Q403.0625 55.869793 403.78125 55.869793Q404.5 55.869793 405.04688 55.557293Q405.59375 55.244793 405.85938 54.697918Q406.0625 54.291668 406.0625 53.479168L406.0625 53.026043ZM409.42188 56.666668L409.42188 49.401043L410.53125 49.401043L410.53125 50.432293Q411.32812 49.244793 412.84375 49.244793Q413.5 49.244793 414.04688 49.479168Q414.59375 49.713543 414.85938 50.104168Q415.14062 50.479168 415.25 51.010418Q415.32812 51.354168 415.32812 52.197918L415.32812 56.666668L414.09375 56.666668L414.09375 52.244793Q414.09375 51.494793 413.95312 51.135418Q413.8125 50.760418 413.4375 50.541668Q413.07812 50.307293 412.57812 50.307293Q411.79688 50.307293 411.21875 50.807293Q410.65625 51.307293 410.65625 52.697918L410.65625 56.666668L409.42188 56.666668ZM417.20312 57.276043L418.39062 57.447918Q418.46875 57.994793 418.8125 58.260418Q419.26562 58.588543 420.0625 58.588543Q420.92188 58.588543 421.375 58.244793Q421.84375 57.916668 422.01562 57.291668Q422.10938 56.916668 422.09375 55.713543Q421.29688 56.666668 420.09375 56.666668Q418.59375 56.666668 417.76562 55.588543Q416.95312 54.510418 416.95312 52.994793Q416.95312 51.963543 417.32812 51.088543Q417.70312 50.197918 418.40625 49.729168Q419.125 49.244793 420.09375 49.244793Q421.375 49.244793 422.21875 50.276043L422.21875 49.401043L423.34375 49.401043L423.34375 55.682293Q423.34375 57.385418 423.0 58.088543Q422.65625 58.791668 421.90625 59.197918Q421.15625 59.619793 420.0625 59.619793Q418.76562 59.619793 417.96875 59.026043Q417.17188 58.447918 417.20312 57.276043ZM418.21875 52.901043Q418.21875 54.338543 418.78125 54.994793Q419.34375 55.651043 420.20312 55.651043Q421.04688 55.651043 421.625 54.994793Q422.20312 54.338543 422.20312 52.947918Q422.20312 51.619793 421.60938 50.947918Q421.01562 50.260418 420.1875 50.260418Q419.35938 50.260418 418.78125 50.932293Q418.21875 51.588543 418.21875 52.901043Z" fill-rule="nonzero"/><path fill="#757575" d="M14.9125 30.6L14.9125 17.709375L16.63125 17.709375L16.63125 29.084375L22.975 29.084375L22.975 30.6L14.9125 30.6ZM24.75625 30.6L24.75625 17.709375L26.334375 17.709375L26.334375 30.6L24.75625 30.6ZM34.88125 29.44375Q34.00625 30.19375 33.178123 30.50625Q32.365623 30.81875 31.44375 30.81875Q29.896875 30.81875 29.06875 30.06875Q28.25625 29.303125 28.25625 28.13125Q28.25625 27.459375 28.56875 26.896875Q28.88125 26.31875 29.38125 25.975Q29.88125 25.63125 30.521875 25.459375Q30.990625 25.334375 31.928125 25.225Q33.834373 24.990625 34.740623 24.678125Q34.75625 24.35 34.75625 24.25625Q34.75625 23.303125 34.303123 22.896875Q33.69375 22.365625 32.50625 22.365625Q31.38125 22.365625 30.85 22.75625Q30.31875 23.146875 30.06875 24.146875L28.521875 23.928125Q28.740625 22.928125 29.209375 22.31875Q29.69375 21.709375 30.6 21.38125Q31.521875 21.053125 32.740623 21.053125Q33.928123 21.053125 34.678123 21.334375Q35.428123 21.615625 35.771873 22.053125Q36.13125 22.475 36.271873 23.115625Q36.35 23.521875 36.35 24.584375L36.35 26.69375Q36.35 28.896875 36.44375 29.490625Q36.553123 30.06875 36.85 30.6L35.19375 30.6Q34.94375 30.1 34.88125 29.44375ZM34.740623 25.9125Q33.88125 26.271875 32.1625 26.50625Q31.19375 26.646875 30.7875 26.834375Q30.38125 27.00625 30.1625 27.35Q29.94375 27.678125 29.94375 28.1Q29.94375 28.725 30.4125 29.146875Q30.896875 29.56875 31.81875 29.56875Q32.740623 29.56875 33.44375 29.178125Q34.1625 28.771875 34.490623 28.084375Q34.740623 27.5375 34.740623 26.490625L34.740623 25.9125ZM38.7875 30.6L38.7875 21.271875L40.209373 21.271875L40.209373 22.56875Q40.646873 21.896875 41.365623 21.475Q42.1 21.053125 43.0375 21.053125Q44.06875 21.053125 44.725 21.490625Q45.396873 21.9125 45.6625 22.69375Q46.771873 21.053125 48.553123 21.053125Q49.94375 21.053125 50.678123 21.834375Q51.428123 22.6 51.428123 24.19375L51.428123 30.6L49.865623 30.6L49.865623 24.725Q49.865623 23.771875 49.709373 23.35Q49.553123 22.928125 49.146873 22.678125Q48.740623 22.428125 48.19375 22.428125Q47.209373 22.428125 46.553123 23.084375Q45.9125 23.740625 45.9125 25.178125L45.9125 30.6L44.334373 30.6L44.334373 24.5375Q44.334373 23.475 43.94375 22.959375Q43.553123 22.428125 42.678123 22.428125Q42.00625 22.428125 41.44375 22.7875Q40.88125 23.13125 40.615623 23.803125Q40.365623 24.475 40.365623 25.75625L40.365623 30.6L38.7875 30.6ZM58.88125 29.44375Q58.00625 30.19375 57.178123 30.50625Q56.365623 30.81875 55.44375 30.81875Q53.896873 30.81875 53.06875 30.06875Q52.25625 29.303125 52.25625 28.13125Q52.25625 27.459375 52.56875 26.896875Q52.88125 26.31875 53.38125 25.975Q53.88125 25.63125 54.521873 25.459375Q54.990623 25.334375 55.928123 25.225Q57.834373 24.990625 58.740623 24.678125Q58.75625 24.35 58.75625 24.25625Q58.75625 23.303125 58.303123 22.896875Q57.69375 22.365625 56.50625 22.365625Q55.38125 22.365625 54.85 22.75625Q54.31875 23.146875 54.06875 24.146875L52.521873 23.928125Q52.740623 22.928125 53.209373 22.31875Q53.69375 21.709375 54.6 21.38125Q55.521873 21.053125 56.740623 21.053125Q57.928123 21.053125 58.678123 21.334375Q59.428123 21.615625 59.771873 22.053125Q60.13125 22.475 60.271873 23.115625Q60.35 23.521875 60.35 24.584375L60.35 26.69375Q60.35 28.896875 60.44375 29.490625Q60.553123 30.06875 60.85 30.6L59.19375 30.6Q58.94375 30.1 58.88125 29.44375ZM58.740623 25.9125Q57.88125 26.271875 56.1625 26.50625Q55.19375 26.646875 54.7875 26.834375Q54.38125 27.00625 54.1625 27.35Q53.94375 27.678125 53.94375 28.1Q53.94375 28.725 54.4125 29.146875Q54.896873 29.56875 55.81875 29.56875Q56.740623 29.56875 57.44375 29.178125Q58.1625 28.771875 58.490623 28.084375Q58.740623 27.5375 58.740623 26.490625L58.740623 25.9125ZM62.178123 26.725L62.178123 25.146875L67.0375 25.146875L67.0375 26.725L62.178123 26.725ZM73.4125 30.6L73.4125 27.521875L67.83437 27.521875L67.83437 26.06875L73.70937 17.709375L75.00625 17.709375L75.00625 26.06875L76.74062 26.06875L76.74062 27.521875L75.00625 27.521875L75.00625 30.6L73.4125 30.6ZM73.4125 26.06875L73.4125 20.25625L69.38125 26.06875L73.4125 26.06875ZM78.35 24.240625Q78.35 21.959375 78.81875 20.56875Q79.2875 19.178125 80.20937 18.428125Q81.14687 17.6625 82.55312 17.6625Q83.58437 17.6625 84.36562 18.084375Q85.14687 18.490625 85.64687 19.2875Q86.1625 20.06875 86.45937 21.209375Q86.75625 22.334375 86.75625 24.240625Q86.75625 26.50625 86.2875 27.9125Q85.81875 29.303125 84.88125 30.06875Q83.95937 30.81875 82.55312 30.81875Q80.67812 30.81875 79.61562 29.490625Q78.35 27.88125 78.35 24.240625ZM79.975 24.240625Q79.975 27.4125 80.70937 28.475Q81.45937 29.521875 82.55312 29.521875Q83.63125 29.521875 84.38125 28.475Q85.13125 27.4125 85.13125 24.240625Q85.13125 21.06875 84.38125 20.021875Q83.63125 18.975 82.5375 18.975Q81.44375 18.975 80.7875 19.896875Q79.975 21.06875 79.975 24.240625ZM88.35 27.225L90.00625 27.084375Q90.19375 28.303125 90.86562 28.9125Q91.5375 29.521875 92.49062 29.521875Q93.63125 29.521875 94.4125 28.6625Q95.20937 27.803125 95.20937 26.365625Q95.20937 25.021875 94.44375 24.240625Q93.69375 23.459375 92.45937 23.459375Q91.69375 23.459375 91.06875 23.803125Q90.45937 24.146875 90.11562 24.709375L88.63125 24.50625L89.88125 17.896875L96.2875 17.896875L96.2875 19.396875L91.14687 19.396875L90.44375 22.865625Q91.61562 22.053125 92.88125 22.053125Q94.56875 22.053125 95.725 23.225Q96.89687 24.396875 96.89687 26.225Q96.89687 27.975 95.86562 29.25625Q94.63125 30.81875 92.49062 30.81875Q90.725 30.81875 89.61562 29.834375Q88.50625 28.85 88.35 27.225ZM98.9125 30.6L98.9125 17.709375L103.75625 17.709375Q105.225 17.709375 106.11562 18.1Q107.00625 18.490625 107.50625 19.303125Q108.02187 20.115625 108.02187 21.00625Q108.02187 21.834375 107.56875 22.56875Q107.13125 23.303125 106.225 23.740625Q107.39687 24.084375 108.02187 24.9125Q108.64687 25.740625 108.64687 26.865625Q108.64687 27.771875 108.25625 28.553125Q107.88125 29.31875 107.31875 29.740625Q106.75625 30.1625 105.9125 30.38125Q105.06875 30.6 103.83437 30.6L98.9125 30.6ZM100.63125 23.13125L103.4125 23.13125Q104.5375 23.13125 105.0375 22.975Q105.69375 22.7875 106.02187 22.35Q106.35 21.896875 106.35 21.209375Q106.35 20.56875 106.0375 20.084375Q105.725 19.6 105.14687 19.428125Q104.58437 19.240625 103.19375 19.240625L100.63125 19.240625L100.63125 23.13125ZM100.63125 29.084375L103.83437 29.084375Q104.6625 29.084375 104.99062 29.021875Q105.58437 28.9125 105.975 28.6625Q106.36562 28.4125 106.61562 27.94375Q106.88125 27.475 106.88125 26.865625Q106.88125 26.146875 106.50625 25.615625Q106.14687 25.084375 105.49062 24.865625Q104.83437 24.646875 103.6 24.646875L100.63125 24.646875L100.63125 29.084375ZM118.80312 34.38125Q117.50625 32.740623 116.6 30.521875Q115.69375 28.303125 115.69375 25.928125Q115.69375 23.834375 116.36562 21.928125Q117.1625 19.69375 118.80312 17.490625L119.94375 17.490625Q118.88125 19.31875 118.5375 20.1Q118.00625 21.31875 117.69375 22.63125Q117.31875 24.2875 117.31875 25.94375Q117.31875 30.1625 119.94375 34.38125L118.80312 34.38125ZM122.1625 30.6L122.1625 22.490625L120.77187 22.490625L120.77187 21.271875L122.1625 21.271875L122.1625 20.271875Q122.1625 19.334375 122.33437 18.88125Q122.55312 18.25625 123.13125 17.88125Q123.70937 17.490625 124.75625 17.490625Q125.4125 17.490625 126.225 17.646875L125.99062 19.0375Q125.49062 18.94375 125.05312 18.94375Q124.33437 18.94375 124.0375 19.25625Q123.74062 19.553125 123.74062 20.396875L123.74062 21.271875L125.55312 21.271875L125.55312 22.490625L123.74062 22.490625L123.74062 30.6L122.1625 30.6ZM126.7875 34.178123L126.7875 21.271875L128.225 21.271875L128.225 22.475Q128.74063 21.771875 129.38126 21.4125Q130.02188 21.053125 130.92813 21.053125Q132.13126 21.053125 133.0375 21.678125Q133.95938 22.2875 134.42813 23.4125Q134.89688 24.521875 134.89688 25.865625Q134.89688 27.2875 134.38126 28.44375Q133.86563 29.584375 132.88126 30.209375Q131.89688 30.81875 130.81876 30.81875Q130.0375 30.81875 129.39688 30.490625Q128.77188 30.146875 128.36563 29.63125L128.36563 34.178123L126.7875 34.178123ZM128.225 25.990625Q128.225 27.7875 128.94376 28.646875Q129.67813 29.50625 130.70938 29.50625Q131.77188 29.50625 132.52188 28.615625Q133.27188 27.725 133.27188 25.85Q133.27188 24.06875 132.5375 23.178125Q131.80313 22.2875 130.7875 22.2875Q129.77188 22.2875 128.99063 23.240625Q128.225 24.178125 128.225 25.990625ZM138.7875 23.615625Q137.80313 23.25625 137.31876 22.584375Q136.85 21.9125 136.85 20.990625Q136.85 19.584375 137.85 18.63125Q138.86563 17.6625 140.55313 17.6625Q142.24063 17.6625 143.25626 18.646875Q144.2875 19.615625 144.2875 21.021875Q144.2875 21.928125 143.81876 22.6Q143.35 23.25625 142.39688 23.615625Q143.58438 24.00625 144.19376 24.865625Q144.81876 25.725 144.81876 26.9125Q144.81876 28.56875 143.64688 29.69375Q142.475 30.81875 140.56876 30.81875Q138.6625 30.81875 137.49063 29.69375Q136.33438 28.553125 136.33438 26.865625Q136.33438 25.615625 136.95938 24.771875Q137.6 23.9125 138.7875 23.615625ZM138.45938 20.928125Q138.45938 21.85 139.05313 22.428125Q139.64688 23.00625 140.58438 23.00625Q141.49063 23.00625 142.06876 22.428125Q142.6625 21.85 142.6625 21.021875Q142.6625 20.146875 142.05313 19.553125Q141.45938 18.959375 140.56876 18.959375Q139.6625 18.959375 139.05313 19.5375Q138.45938 20.115625 138.45938 20.928125ZM137.95938 26.88125Q137.95938 27.553125 138.27188 28.19375Q138.6 28.81875 139.225 29.178125Q139.86563 29.521875 140.6 29.521875Q141.725 29.521875 142.45938 28.7875Q143.20938 28.053125 143.20938 26.928125Q143.20938 25.7875 142.44376 25.053125Q141.67813 24.303125 140.5375 24.303125Q139.42813 24.303125 138.69376 25.0375Q137.95938 25.771875 137.95938 26.88125ZM147.81876 34.38125L146.69376 34.38125Q149.31876 30.1625 149.31876 25.94375Q149.31876 24.2875 148.94376 22.6625Q148.64688 21.35 148.1 20.13125Q147.75626 19.334375 146.69376 17.490625L147.81876 17.490625Q149.475 19.69375 150.27188 21.928125Q150.94376 23.834375 150.94376 25.928125Q150.94376 28.303125 150.0375 30.521875Q149.13126 32.740623 147.81876 34.38125ZM157.19376 25.928125Q157.19376 23.334375 158.64688 22.084375Q159.85 21.053125 161.56876 21.053125Q163.50626 21.053125 164.725 22.31875Q165.94376 23.584375 165.94376 25.803125Q165.94376 27.6 165.39688 28.63125Q164.86563 29.6625 163.83438 30.240625Q162.80313 30.81875 161.56876 30.81875Q159.61563 30.81875 158.39688 29.56875Q157.19376 28.303125 157.19376 25.928125ZM158.81876 25.928125Q158.81876 27.725 159.6 28.615625Q160.38126 29.50625 161.56876 29.50625Q162.75626 29.50625 163.5375 28.615625Q164.31876 27.709375 164.31876 25.88125Q164.31876 24.146875 163.52188 23.25625Q162.74063 22.365625 161.56876 22.365625Q160.38126 22.365625 159.6 23.25625Q158.81876 24.146875 158.81876 25.928125ZM167.7875 30.6L167.7875 21.271875L169.20938 21.271875L169.20938 22.6Q170.24063 21.053125 172.17813 21.053125Q173.02188 21.053125 173.725 21.365625Q174.44376 21.6625 174.7875 22.1625Q175.14688 22.646875 175.2875 23.31875Q175.36563 23.75625 175.36563 24.865625L175.36563 30.6L173.7875 30.6L173.7875 24.928125Q173.7875 23.959375 173.6 23.475Q173.42813 22.990625 172.94376 22.709375Q172.475 22.428125 171.85 22.428125Q170.83438 22.428125 170.1 23.06875Q169.36563 23.709375 169.36563 25.50625L169.36563 30.6L167.7875 30.6ZM184.7875 23.615625Q183.80313 23.25625 183.31876 22.584375Q182.85 21.9125 182.85 20.990625Q182.85 19.584375 183.85 18.63125Q184.86563 17.6625 186.55313 17.6625Q188.24063 17.6625 189.25626 18.646875Q190.2875 19.615625 190.2875 21.021875Q190.2875 21.928125 189.81876 22.6Q189.35 23.25625 188.39688 23.615625Q189.58438 24.00625 190.19376 24.865625Q190.81876 25.725 190.81876 26.9125Q190.81876 28.56875 189.64688 29.69375Q188.475 30.81875 186.56876 30.81875Q184.6625 30.81875 183.49063 29.69375Q182.33438 28.553125 182.33438 26.865625Q182.33438 25.615625 182.95938 24.771875Q183.6 23.9125 184.7875 23.615625ZM184.45938 20.928125Q184.45938 21.85 185.05313 22.428125Q185.64688 23.00625 186.58438 23.00625Q187.49063 23.00625 188.06876 22.428125Q188.6625 21.85 188.6625 21.021875Q188.6625 20.146875 188.05313 19.553125Q187.45938 18.959375 186.56876 18.959375Q185.6625 18.959375 185.05313 19.5375Q184.45938 20.115625 184.45938 20.928125ZM183.95938 26.88125Q183.95938 27.553125 184.27188 28.19375Q184.6 28.81875 185.225 29.178125Q185.86563 29.521875 186.6 29.521875Q187.725 29.521875 188.45938 28.7875Q189.20938 28.053125 189.20938 26.928125Q189.20938 25.7875 188.44376 25.053125Q187.67813 24.303125 186.5375 24.303125Q185.42813 24.303125 184.69376 25.0375Q183.95938 25.771875 183.95938 26.88125ZM196.725 30.6L200.14688 25.740625L196.99063 21.271875L198.95938 21.271875L200.39688 23.459375Q200.80313 24.084375 201.05313 24.50625Q201.42813 23.9125 201.75626 23.475L203.33438 21.271875L205.225 21.271875L201.99063 25.6625L205.475 30.6L203.52188 30.6L201.61563 27.69375L201.1 26.9125L198.64688 30.6L196.725 30.6ZM211.0375 30.6L211.0375 17.709375L212.74063 17.709375L212.74063 23.00625L219.44376 23.00625L219.44376 17.709375L221.14688 17.709375L221.14688 30.6L219.44376 30.6L219.44376 24.521875L212.74063 24.521875L212.74063 30.6L211.0375 30.6ZM229.30313 30.6L227.725 30.6L227.725 20.521875Q227.14688 21.06875 226.225 21.615625Q225.30313 22.146875 224.55313 22.428125L224.55313 20.896875Q225.88126 20.271875 226.88126 19.38125Q227.88126 18.490625 228.2875 17.6625L229.30313 17.6625L229.30313 30.6ZM233.35 24.240625Q233.35 21.959375 233.81876 20.56875Q234.2875 19.178125 235.20938 18.428125Q236.14688 17.6625 237.55313 17.6625Q238.58438 17.6625 239.36563 18.084375Q240.14688 18.490625 240.64688 19.2875Q241.1625 20.06875 241.45938 21.209375Q241.75626 22.334375 241.75626 24.240625Q241.75626 26.50625 241.2875 27.9125Q240.81876 29.303125 239.88126 30.06875Q238.95938 30.81875 237.55313 30.81875Q235.67813 30.81875 234.61563 29.490625Q233.35 27.88125 233.35 24.240625ZM234.975 24.240625Q234.975 27.4125 235.70938 28.475Q236.45938 29.521875 237.55313 29.521875Q238.63126 29.521875 239.38126 28.475Q240.13126 27.4125 240.13126 24.240625Q240.13126 21.06875 239.38126 20.021875Q238.63126 18.975 237.5375 18.975Q236.44376 18.975 235.7875 19.896875Q234.975 21.06875 234.975 24.240625ZM243.35 24.240625Q243.35 21.959375 243.81876 20.56875Q244.2875 19.178125 245.20938 18.428125Q246.14688 17.6625 247.55313 17.6625Q248.58438 17.6625 249.36563 18.084375Q250.14688 18.490625 250.64688 19.2875Q251.1625 20.06875 251.45938 21.209375Q251.75626 22.334375 251.75626 24.240625Q251.75626 26.50625 251.2875 27.9125Q250.81876 29.303125 249.88126 30.06875Q248.95938 30.81875 247.55313 30.81875Q245.67813 30.81875 244.61563 29.490625Q243.35 27.88125 243.35 24.240625ZM244.975 24.240625Q244.975 27.4125 245.70938 28.475Q246.45938 29.521875 247.55313 29.521875Q248.63126 29.521875 249.38126 28.475Q250.13126 27.4125 250.13126 24.240625Q250.13126 21.06875 249.38126 20.021875Q248.63126 18.975 247.5375 18.975Q246.44376 18.975 245.7875 19.896875Q244.975 21.06875 244.975 24.240625ZM254.24063 30.6L254.24063 28.803125L256.0375 28.803125L256.0375 30.6L254.24063 30.6ZM263.9125 30.6L263.9125 17.709375L265.63126 17.709375L265.63126 29.084375L271.975 29.084375L271.975 30.6L263.9125 30.6ZM273.19376 25.928125Q273.19376 23.334375 274.64688 22.084375Q275.85 21.053125 277.56876 21.053125Q279.50626 21.053125 280.725 22.31875Q281.94376 23.584375 281.94376 25.803125Q281.94376 27.6 281.39688 28.63125Q280.86563 29.6625 279.83438 30.240625Q278.80313 30.81875 277.56876 30.81875Q275.61563 30.81875 274.39688 29.56875Q273.19376 28.303125 273.19376 25.928125ZM274.81876 25.928125Q274.81876 27.725 275.6 28.615625Q276.38126 29.50625 277.56876 29.50625Q278.75626 29.50625 279.5375 28.615625Q280.31876 27.709375 280.31876 25.88125Q280.31876 24.146875 279.52188 23.25625Q278.74063 22.365625 277.56876 22.365625Q276.38126 22.365625 275.6 23.25625Q274.81876 24.146875 274.81876 25.928125ZM285.50626 30.6L282.64688 21.271875L284.2875 21.271875L285.77188 26.646875L286.33438 28.6625Q286.36563 28.50625 286.80313 26.725L288.30313 21.271875L289.92813 21.271875L291.31876 26.678125L291.7875 28.459375L292.31876 26.6625L293.92813 21.271875L295.45938 21.271875L292.5375 30.6L290.89688 30.6L289.4125 25.00625L289.05313 23.4125L287.1625 30.6L285.50626 30.6ZM303.17813 27.6L304.81876 27.803125Q304.42813 29.225 303.38126 30.021875Q302.33438 30.81875 300.70938 30.81875Q298.6625 30.81875 297.45938 29.553125Q296.25626 28.2875 296.25626 26.00625Q296.25626 23.6625 297.45938 22.365625Q298.67813 21.053125 300.61563 21.053125Q302.49063 21.053125 303.67813 22.334375Q304.86563 23.6 304.86563 25.9125Q304.86563 26.053125 304.85 26.334375L297.89688 26.334375Q297.975 27.88125 298.75626 28.69375Q299.55313 29.50625 300.70938 29.50625Q301.58438 29.50625 302.19376 29.053125Q302.81876 28.6 303.17813 27.6ZM297.975 25.0375L303.19376 25.0375Q303.08438 23.865625 302.6 23.271875Q301.83438 22.35 300.63126 22.35Q299.55313 22.35 298.80313 23.084375Q298.06876 23.81875 297.975 25.0375ZM306.77188 30.6L306.77188 21.271875L308.19376 21.271875L308.19376 22.678125Q308.74063 21.69375 309.19376 21.38125Q309.6625 21.053125 310.20938 21.053125Q311.02188 21.053125 311.83438 21.56875L311.30313 23.0375Q310.70938 22.69375 310.13126 22.69375Q309.61563 22.69375 309.19376 23.00625Q308.7875 23.31875 308.61563 23.865625Q308.35 24.709375 308.35 25.709375L308.35 30.6L306.77188 30.6ZM317.9125 30.6L317.9125 17.709375L319.63126 17.709375L319.63126 29.084375L325.975 29.084375L325.975 30.6L317.9125 30.6ZM333.88126 29.44375Q333.00626 30.19375 332.17813 30.50625Q331.36563 30.81875 330.44376 30.81875Q328.89688 30.81875 328.06876 30.06875Q327.25626 29.303125 327.25626 28.13125Q327.25626 27.459375 327.56876 26.896875Q327.88126 26.31875 328.38126 25.975Q328.88126 25.63125 329.52188 25.459375Q329.99063 25.334375 330.92813 25.225Q332.83438 24.990625 333.74063 24.678125Q333.75626 24.35 333.75626 24.25625Q333.75626 23.303125 333.30313 22.896875Q332.69376 22.365625 331.50626 22.365625Q330.38126 22.365625 329.85 22.75625Q329.31876 23.146875 329.06876 24.146875L327.52188 23.928125Q327.74063 22.928125 328.20938 22.31875Q328.69376 21.709375 329.6 21.38125Q330.52188 21.053125 331.74063 21.053125Q332.92813 21.053125 333.67813 21.334375Q334.42813 21.615625 334.77188 22.053125Q335.13126 22.475 335.27188 23.115625Q335.35 23.521875 335.35 24.584375L335.35 26.69375Q335.35 28.896875 335.44376 29.490625Q335.55313 30.06875 335.85 30.6L334.19376 30.6Q333.94376 30.1 333.88126 29.44375ZM333.74063 25.9125Q332.88126 26.271875 331.1625 26.50625Q330.19376 26.646875 329.7875 26.834375Q329.38126 27.00625 329.1625 27.35Q328.94376 27.678125 328.94376 28.1Q328.94376 28.725 329.4125 29.146875Q329.89688 29.56875 330.81876 29.56875Q331.74063 29.56875 332.44376 29.178125Q333.1625 28.771875 333.49063 28.084375Q333.74063 27.5375 333.74063 26.490625L333.74063 25.9125ZM341.24063 29.178125L341.475 30.584375Q340.80313 30.725 340.27188 30.725Q339.4125 30.725 338.92813 30.459375Q338.45938 30.178125 338.27188 29.740625Q338.08438 29.2875 338.08438 27.865625L338.08438 22.490625L336.9125 22.490625L336.9125 21.271875L338.08438 21.271875L338.08438 18.959375L339.64688 18.00625L339.64688 21.271875L341.24063 21.271875L341.24063 22.490625L339.64688 22.490625L339.64688 27.959375Q339.64688 28.63125 339.725 28.834375Q339.81876 29.021875 340.00626 29.13125Q340.19376 29.240625 340.55313 29.240625Q340.80313 29.240625 341.24063 29.178125ZM349.17813 27.6L350.81876 27.803125Q350.42813 29.225 349.38126 30.021875Q348.33438 30.81875 346.70938 30.81875Q344.6625 30.81875 343.45938 29.553125Q342.25626 28.2875 342.25626 26.00625Q342.25626 23.6625 343.45938 22.365625Q344.67813 21.053125 346.61563 21.053125Q348.49063 21.053125 349.67813 22.334375Q350.86563 23.6 350.86563 25.9125Q350.86563 26.053125 350.85 26.334375L343.89688 26.334375Q343.975 27.88125 344.75626 28.69375Q345.55313 29.50625 346.70938 29.50625Q347.58438 29.50625 348.19376 29.053125Q348.81876 28.6 349.17813 27.6ZM343.975 25.0375L349.19376 25.0375Q349.08438 23.865625 348.6 23.271875Q347.83438 22.35 346.63126 22.35Q345.55313 22.35 344.80313 23.084375Q344.06876 23.81875 343.975 25.0375ZM352.7875 30.6L352.7875 21.271875L354.20938 21.271875L354.20938 22.6Q355.24063 21.053125 357.17813 21.053125Q358.02188 21.053125 358.725 21.365625Q359.44376 21.6625 359.7875 22.1625Q360.14688 22.646875 360.2875 23.31875Q360.36563 23.75625 360.36563 24.865625L360.36563 30.6L358.7875 30.6L358.7875 24.928125Q358.7875 23.959375 358.6 23.475Q358.42813 22.990625 357.94376 22.709375Q357.475 22.428125 356.85 22.428125Q355.83438 22.428125 355.1 23.06875Q354.36563 23.709375 354.36563 25.50625L354.36563 30.6L352.7875 30.6ZM368.88126 27.178125L370.42813 27.38125Q370.17813 28.990625 369.13126 29.9125Q368.08438 30.81875 366.55313 30.81875Q364.63126 30.81875 363.45938 29.56875Q362.30313 28.303125 362.30313 25.975Q362.30313 24.459375 362.80313 23.334375Q363.30313 22.19375 364.31876 21.63125Q365.35 21.053125 366.55313 21.053125Q368.08438 21.053125 369.0375 21.834375Q370.00626 22.6 370.2875 24.00625L368.74063 24.240625Q368.52188 23.303125 367.95938 22.834375Q367.4125 22.35 366.61563 22.35Q365.42813 22.35 364.67813 23.209375Q363.92813 24.06875 363.92813 25.928125Q363.92813 27.803125 364.64688 28.6625Q365.36563 29.50625 366.5375 29.50625Q367.45938 29.50625 368.08438 28.94375Q368.70938 28.365625 368.88126 27.178125ZM371.70938 34.19375L371.5375 32.709373Q372.05313 32.85 372.44376 32.85Q372.975 32.85 373.2875 32.678123Q373.6 32.50625 373.80313 32.178123Q373.95938 31.94375 374.2875 31.00625Q374.33438 30.865625 374.42813 30.615625L370.89688 21.271875L372.6 21.271875L374.5375 26.678125Q374.9125 27.69375 375.20938 28.834375Q375.49063 27.740625 375.86563 26.709375L377.86563 21.271875L379.44376 21.271875L375.89688 30.75625Q375.31876 32.303123 375.00626 32.88125Q374.58438 33.6625 374.0375 34.021873Q373.49063 34.38125 372.74063 34.38125Q372.27188 34.38125 371.70938 34.19375ZM385.80313 19.5375L385.80313 17.709375L387.38126 17.709375L387.38126 19.5375L385.80313 19.5375ZM385.80313 30.6L385.80313 21.271875L387.38126 21.271875L387.38126 30.6L385.80313 30.6ZM389.14688 27.81875L390.725 27.56875Q390.85 28.50625 391.44376 29.00625Q392.05313 29.50625 393.13126 29.50625Q394.225 29.50625 394.75626 29.06875Q395.2875 28.615625 395.2875 28.021875Q395.2875 27.490625 394.81876 27.178125Q394.49063 26.975 393.19376 26.646875Q391.45938 26.209375 390.7875 25.896875Q390.11563 25.56875 389.75626 25.00625Q389.4125 24.428125 389.4125 23.740625Q389.4125 23.115625 389.69376 22.584375Q389.99063 22.053125 390.475 21.709375Q390.85 21.428125 391.49063 21.240625Q392.13126 21.053125 392.85 21.053125Q393.95938 21.053125 394.7875 21.38125Q395.61563 21.69375 396.00626 22.240625Q396.4125 22.771875 396.55313 23.678125L395.00626 23.88125Q394.89688 23.1625 394.39688 22.75625Q393.89688 22.35 392.975 22.35Q391.88126 22.35 391.4125 22.709375Q390.94376 23.06875 390.94376 23.553125Q390.94376 23.865625 391.14688 24.115625Q391.33438 24.365625 391.74063 24.5375Q391.99063 24.615625 393.14688 24.94375Q394.81876 25.38125 395.475 25.678125Q396.14688 25.959375 396.52188 26.50625Q396.9125 27.053125 396.9125 27.85Q396.9125 28.646875 396.44376 29.35Q395.99063 30.053125 395.11563 30.44375Q394.24063 30.81875 393.14688 30.81875Q391.31876 30.81875 390.36563 30.06875Q389.4125 29.303125 389.14688 27.81875ZM403.9125 30.6L403.9125 17.709375L408.75626 17.709375Q410.225 17.709375 411.11563 18.1Q412.00626 18.490625 412.50626 19.303125Q413.02188 20.115625 413.02188 21.00625Q413.02188 21.834375 412.56876 22.56875Q412.13126 23.303125 411.225 23.740625Q412.39688 24.084375 413.02188 24.9125Q413.64688 25.740625 413.64688 26.865625Q413.64688 27.771875 413.25626 28.553125Q412.88126 29.31875 412.31876 29.740625Q411.75626 30.1625 410.9125 30.38125Q410.06876 30.6 408.83438 30.6L403.9125 30.6ZM405.63126 23.13125L408.4125 23.13125Q409.5375 23.13125 410.0375 22.975Q410.69376 22.7875 411.02188 22.35Q411.35 21.896875 411.35 21.209375Q411.35 20.56875 411.0375 20.084375Q410.725 19.6 410.14688 19.428125Q409.58438 19.240625 408.19376 19.240625L405.63126 19.240625L405.63126 23.13125ZM405.63126 29.084375L408.83438 29.084375Q409.6625 29.084375 409.99063 29.021875Q410.58438 28.9125 410.975 28.6625Q411.36563 28.4125 411.61563 27.94375Q411.88126 27.475 411.88126 26.865625Q411.88126 26.146875 411.50626 25.615625Q411.14688 25.084375 410.49063 24.865625Q409.83438 24.646875 408.6 24.646875L405.63126 24.646875L405.63126 29.084375ZM422.17813 27.6L423.81876 27.803125Q423.42813 29.225 422.38126 30.021875Q421.33438 30.81875 419.70938 30.81875Q417.6625 30.81875 416.45938 29.553125Q415.25626 28.2875 415.25626 26.00625Q415.25626 23.6625 416.45938 22.365625Q417.67813 21.053125 419.61563 21.053125Q421.49063 21.053125 422.67813 22.334375Q423.86563 23.6 423.86563 25.9125Q423.86563 26.053125 423.85 26.334375L416.89688 26.334375Q416.975 27.88125 417.75626 28.69375Q418.55313 29.50625 419.70938 29.50625Q420.58438 29.50625 421.19376 29.053125Q421.81876 28.6 422.17813 27.6ZM416.975 25.0375L422.19376 25.0375Q422.08438 23.865625 421.6 23.271875Q420.83438 22.35 419.63126 22.35Q418.55313 22.35 417.80313 23.084375Q417.06876 23.81875 416.975 25.0375ZM429.24063 29.178125L429.475 30.584375Q428.80313 30.725 428.27188 30.725Q427.4125 30.725 426.92813 30.459375Q426.45938 30.178125 426.27188 29.740625Q426.08438 29.2875 426.08438 27.865625L426.08438 22.490625L424.9125 22.490625L424.9125 21.271875L426.08438 21.271875L426.08438 18.959375L427.64688 18.00625L427.64688 21.271875L429.24063 21.271875L429.24063 22.490625L427.64688 22.490625L427.64688 27.959375Q427.64688 28.63125 427.725 28.834375Q427.81876 29.021875 428.00626 29.13125Q428.19376 29.240625 428.55313 29.240625Q428.80313 29.240625 429.24063 29.178125ZM434.24063 29.178125L434.475 30.584375Q433.80313 30.725 433.27188 30.725Q432.4125 30.725 431.92813 30.459375Q431.45938 30.178125 431.27188 29.740625Q431.08438 29.2875 431.08438 27.865625L431.08438 22.490625L429.9125 22.490625L429.9125 21.271875L431.08438 21.271875L431.08438 18.959375L432.64688 18.00625L432.64688 21.271875L434.24063 21.271875L434.24063 22.490625L432.64688 22.490625L432.64688 27.959375Q432.64688 28.63125 432.725 28.834375Q432.81876 29.021875 433.00626 29.13125Q433.19376 29.240625 433.55313 29.240625Q433.80313 29.240625 434.24063 29.178125ZM442.17813 27.6L443.81876 27.803125Q443.42813 29.225 442.38126 30.021875Q441.33438 30.81875 439.70938 30.81875Q437.6625 30.81875 436.45938 29.553125Q435.25626 28.2875 435.25626 26.00625Q435.25626 23.6625 436.45938 22.365625Q437.67813 21.053125 439.61563 21.053125Q441.49063 21.053125 442.67813 22.334375Q443.86563 23.6 443.86563 25.9125Q443.86563 26.053125 443.85 26.334375L436.89688 26.334375Q436.975 27.88125 437.75626 28.69375Q438.55313 29.50625 439.70938 29.50625Q440.58438 29.50625 441.19376 29.053125Q441.81876 28.6 442.17813 27.6ZM436.975 25.0375L442.19376 25.0375Q442.08438 23.865625 441.6 23.271875Q440.83438 22.35 439.63126 22.35Q438.55313 22.35 437.80313 23.084375Q437.06876 23.81875 436.975 25.0375ZM445.77188 30.6L445.77188 21.271875L447.19376 21.271875L447.19376 22.678125Q447.74063 21.69375 448.19376 21.38125Q448.6625 21.053125 449.20938 21.053125Q450.02188 21.053125 450.83438 21.56875L450.30313 23.0375Q449.70938 22.69375 449.13126 22.69375Q448.61563 22.69375 448.19376 23.00625Q447.7875 23.31875 447.61563 23.865625Q447.35 24.709375 447.35 25.709375L447.35 30.6L445.77188 30.6ZM452.24063 30.6L452.24063 28.803125L454.0375 28.803125L454.0375 30.6L452.24063 30.6Z" fill-rule="nonzero"/></svg>