<svg version="1.1" viewBox="0.0 0.0 707.0 272.0" fill="none" stroke="none" stroke-linecap="square" stroke-miterlimit="10" width="707" height="272" xmlns:xlink="http://www.w3.org/1999/xlink" xmlns="http://www.w3.org/2000/svg"><path fill="#ffffff" d="M0 0L707.0 0L707.0 272.0L0 272.0L0 0Z" fill-rule="nonzero"/><path stroke="#333333" stroke-width="1.0" stroke-linecap="butt" d="M89.5 76.5L89.5 198.5" fill-rule="nonzero"/><path stroke="#cccccc" stroke-width="1.0" stroke-linecap="butt" d="M156.5 76.5L156.5 198.5" fill-rule="nonzero"/><path stroke="#cccccc" stroke-width="1.0" stroke-linecap="butt" d="M223.5 76.5L223.5 198.5" fill-rule="nonzero"/><path stroke="#cccccc" stroke-width="1.0" stroke-linecap="butt" d="M290.5 76.5L290.5 198.5" fill-rule="nonzero"/><path stroke="#cccccc" stroke-width="1.0" stroke-linecap="butt" d="M357.5 76.5L357.5 198.5" fill-rule="nonzero"/><path stroke="#cccccc" stroke-width="1.0" stroke-linecap="butt" d="M425.5 76.5L425.5 198.5" fill-rule="nonzero"/><path stroke="#cccccc" stroke-width="1.0" stroke-linecap="butt" d="M492.5 76.5L492.5 198.5" fill-rule="nonzero"/><path stroke="#cccccc" stroke-width="1.0" stroke-linecap="butt" d="M559.5 76.5L559.5 198.5" fill-rule="nonzero"/><path stroke="#cccccc" stroke-width="1.0" stroke-linecap="butt" d="M626.5 76.5L626.5 198.5" fill-rule="nonzero"/><path stroke="#cccccc" stroke-width="1.0" stroke-linecap="butt" d="M693.5 76.5L693.5 198.5" fill-rule="nonzero"/><path stroke="#333333" stroke-width="1.0" stroke-linecap="butt" d="M89.5 198.5L693.5 198.5" fill-rule="nonzero"/><path stroke="#cccccc" stroke-width="1.0" stroke-linecap="butt" d="M89.5 174.5L693.5 174.5" fill-rule="nonzero"/><path stroke="#cccccc" stroke-width="1.0" stroke-linecap="butt" d="M89.5 149.5L693.5 149.5" fill-rule="nonzero"/><path stroke="#cccccc" stroke-width="1.0" stroke-linecap="butt" d="M89.5 125.5L693.5 125.5" fill-rule="nonzero"/><path stroke="#cccccc" stroke-width="1.0" stroke-linecap="butt" d="M89.5 101.5L693.5 101.5" fill-rule="nonzero"/><path stroke="#cccccc" stroke-width="1.0" stroke-linecap="butt" d="M89.5 76.5L693.5 76.5" fill-rule="nonzero"/><path stroke="#000000" stroke-width="1.0" stroke-linecap="butt" stroke-opacity="0.0" d="M89.5 190.5L693.5 190.5" fill-rule="nonzero"/><path stroke="#000000" stroke-width="1.0" stroke-linecap="butt" stroke-opacity="0.0" d="M89.5 182.5L693.5 182.5" fill-rule="nonzero"/><path stroke="#000000" stroke-width="1.0" stroke-linecap="butt" stroke-opacity="0.0" d="M89.5 165.5L693.5 165.5" fill-rule="nonzero"/><path stroke="#000000" stroke-width="1.0" stroke-linecap="butt" stroke-opacity="0.0" d="M89.5 157.5L693.5 157.5" fill-rule="nonzero"/><path stroke="#000000" stroke-width="1.0" stroke-linecap="butt" stroke-opacity="0.0" d="M89.5 141.5L693.5 141.5" fill-rule="nonzero"/><path stroke="#000000" stroke-width="1.0" stroke-linecap="butt" stroke-opacity="0.0" d="M89.5 133.5L693.5 133.5" fill-rule="nonzero"/><path stroke="#000000" stroke-width="1.0" stroke-linecap="butt" stroke-opacity="0.0" d="M89.5 117.5L693.5 117.5" fill-rule="nonzero"/><path stroke="#000000" stroke-width="1.0" stroke-linecap="butt" stroke-opacity="0.0" d="M89.5 109.5L693.5 109.5" fill-rule="nonzero"/><path stroke="#000000" stroke-width="1.0" stroke-linecap="butt" stroke-opacity="0.0" d="M89.5 92.5L693.5 92.5" fill-rule="nonzero"/><path stroke="#000000" stroke-width="1.0" stroke-linecap="butt" stroke-opacity="0.0" d="M89.5 84.5L693.5 84.5" fill-rule="nonzero"/><clipPath id="id_0"><path d="M89.6 76.73333L693.4 76.73333L693.4 198.4L89.6 198.4L89.6 76.73333Z" clip-rule="nonzero"/></clipPath><path stroke="#30a2ff" stroke-width="2.0" stroke-linecap="butt" clip-path="url(#id_0)" d="M123.14445 196.00336C123.14445 196.00336 145.5074 195.43082 156.68889 194.56194C167.87038 193.69307 201.41481 190.17273 223.77777 187.01836C246.14075 183.86398 313.22964 172.01161 357.95557 164.25308C402.6815 156.49457 626.3111 116.68135 626.3111 116.68135" fill-rule="nonzero"/><path stroke="#6aa84f" stroke-width="2.0" stroke-linecap="butt" clip-path="url(#id_0)" d="M123.14445 195.93661C123.14445 195.93661 145.5074 196.00623 156.68889 194.82259C167.87038 193.63896 201.41481 187.36916 223.77777 182.84709C246.14075 178.32501 313.22964 162.50055 357.95557 152.53333C402.6815 142.56609 626.3111 93.554115 626.3111 93.554115" fill-rule="nonzero"/><path stroke="#ff6d01" stroke-width="2.0" stroke-linecap="butt" clip-path="url(#id_0)" d="M123.14445 196.36871C123.14445 196.36871 145.5074 196.19876 156.68889 195.94185C167.87038 195.68495 201.41481 195.35342 223.77777 193.71268C246.14075 192.07191 313.22964 183.77156 357.95557 178.48195C402.6815 173.19232 626.3111 145.46799 626.3111 145.46799" fill-rule="nonzero"/><path fill="#000000" fill-opacity="0.0" clip-path="url(#id_0)" d="M126.14445 196.00336C126.14445 197.66022 124.8013 199.00336 123.14445 199.00336C121.48759 199.00336 120.14445 197.66022 120.14445 196.00336C120.14445 194.3465 121.48759 193.00336 123.14445 193.00336C124.8013 193.00336 126.14445 194.3465 126.14445 196.00336Z" fill-rule="nonzero"/><path fill="#000000" fill-opacity="0.0" clip-path="url(#id_0)" d="M159.68889 194.56194C159.68889 196.2188 158.34575 197.56194 156.68889 197.56194C155.03203 197.56194 153.68889 196.2188 153.68889 194.56194C153.68889 192.90509 155.03203 191.56194 156.68889 191.56194C158.34575 191.56194 159.68889 192.90509 159.68889 194.56194Z" fill-rule="nonzero"/><path fill="#000000" fill-opacity="0.0" clip-path="url(#id_0)" d="M226.77777 187.01836C226.77777 188.6752 225.43463 190.01836 223.77777 190.01836C222.12093 190.01836 220.77777 188.6752 220.77777 187.01836C220.77777 185.3615 222.12093 184.01836 223.77777 184.01836C225.43463 184.01836 226.77777 185.3615 226.77777 187.01836Z" fill-rule="nonzero"/><path fill="#000000" fill-opacity="0.0" clip-path="url(#id_0)" d="M360.95557 164.25308C360.95557 165.90994 359.6124 167.25308 357.95557 167.25308C356.2987 167.25308 354.95557 165.90994 354.95557 164.25308C354.95557 162.59622 356.2987 161.25308 357.95557 161.25308C359.6124 161.25308 360.95557 162.59622 360.95557 164.25308Z" fill-rule="nonzero"/><path fill="#000000" fill-opacity="0.0" clip-path="url(#id_0)" d="M629.3111 116.68135C629.3111 118.33821 627.96796 119.68135 626.3111 119.68135C624.65424 119.68135 623.3111 118.33821 623.3111 116.68135C623.3111 115.0245 624.65424 113.68135 626.3111 113.68135C627.96796 113.68135 629.3111 115.0245 629.3111 116.68135Z" fill-rule="nonzero"/><path fill="#000000" fill-opacity="0.0" clip-path="url(#id_0)" d="M126.14445 195.93661C126.14445 197.59348 124.8013 198.93661 123.14445 198.93661C121.48759 198.93661 120.14445 197.59348 120.14445 195.93661C120.14445 194.27977 121.48759 192.93661 123.14445 192.93661C124.8013 192.93661 126.14445 194.27977 126.14445 195.93661Z" fill-rule="nonzero"/><path fill="#000000" fill-opacity="0.0" clip-path="url(#id_0)" d="M159.68889 194.82259C159.68889 196.47945 158.34575 197.82259 156.68889 197.82259C155.03203 197.82259 153.68889 196.47945 153.68889 194.82259C153.68889 193.16574 155.03203 191.82259 156.68889 191.82259C158.34575 191.82259 159.68889 193.16574 159.68889 194.82259Z" fill-rule="nonzero"/><path fill="#000000" fill-opacity="0.0" clip-path="url(#id_0)" d="M226.77777 182.84709C226.77777 184.50394 225.43463 185.84709 223.77777 185.84709C222.12093 185.84709 220.77777 184.50394 220.77777 182.84709C220.77777 181.19023 222.12093 179.84709 223.77777 179.84709C225.43463 179.84709 226.77777 181.19023 226.77777 182.84709Z" fill-rule="nonzero"/><path fill="#000000" fill-opacity="0.0" clip-path="url(#id_0)" d="M360.95557 152.53333C360.95557 154.19017 359.6124 155.53333 357.95557 155.53333C356.2987 155.53333 354.95557 154.19017 354.95557 152.53333C354.95557 150.87646 356.2987 149.53333 357.95557 149.53333C359.6124 149.53333 360.95557 150.87646 360.95557 152.53333Z" fill-rule="nonzero"/><path fill="#000000" fill-opacity="0.0" clip-path="url(#id_0)" d="M629.3111 93.554115C629.3111 95.21097 627.96796 96.554115 626.3111 96.554115C624.65424 96.554115 623.3111 95.21097 623.3111 93.554115C623.3111 91.89726 624.65424 90.554115 626.3111 90.554115C627.96796 90.554115 629.3111 91.89726 629.3111 93.554115Z" fill-rule="nonzero"/><path fill="#000000" fill-opacity="0.0" clip-path="url(#id_0)" d="M126.14445 196.36871C126.14445 198.02556 124.8013 199.36871 123.14445 199.36871C121.48759 199.36871 120.14445 198.02556 120.14445 196.36871C120.14445 194.71185 121.48759 193.36871 123.14445 193.36871C124.8013 193.36871 126.14445 194.71185 126.14445 196.36871Z" fill-rule="nonzero"/><path fill="#000000" fill-opacity="0.0" clip-path="url(#id_0)" d="M159.68889 195.94185C159.68889 197.59871 158.34575 198.94185 156.68889 198.94185C155.03203 198.94185 153.68889 197.59871 153.68889 195.94185C153.68889 194.285 155.03203 192.94185 156.68889 192.94185C158.34575 192.94185 159.68889 194.285 159.68889 195.94185Z" fill-rule="nonzero"/><path fill="#000000" fill-opacity="0.0" clip-path="url(#id_0)" d="M226.77777 193.71268C226.77777 195.36952 225.43463 196.71268 223.77777 196.71268C222.12093 196.71268 220.77777 195.36952 220.77777 193.71268C220.77777 192.05582 222.12093 190.71268 223.77777 190.71268C225.43463 190.71268 226.77777 192.05582 226.77777 193.71268Z" fill-rule="nonzero"/><path fill="#000000" fill-opacity="0.0" clip-path="url(#id_0)" d="M360.95557 178.48195C360.95557 180.1388 359.6124 181.48195 357.95557 181.48195C356.2987 181.48195 354.95557 180.1388 354.95557 178.48195C354.95557 176.82509 356.2987 175.48195 357.95557 175.48195C359.6124 175.48195 360.95557 176.82509 360.95557 178.48195Z" fill-rule="nonzero"/><path fill="#000000" fill-opacity="0.0" clip-path="url(#id_0)" d="M629.3111 145.46799C629.3111 147.12483 627.96796 148.46799 626.3111 148.46799C624.65424 148.46799 623.3111 147.12483 623.3111 145.46799C623.3111 143.81113 624.65424 142.46799 626.3111 142.46799C627.96796 142.46799 629.3111 143.81113 629.3111 145.46799Z" fill-rule="nonzero"/><path fill="#000000" d="M323.59375 255.4L323.59375 245.38437L328.04688 245.38437Q329.39062 245.38437 330.07812 245.65Q330.78125 245.91562 331.1875 246.60312Q331.60938 247.29062 331.60938 248.11874Q331.60938 249.18124 330.92188 249.91562Q330.23438 250.63437 328.79688 250.8375Q329.3125 251.0875 329.59375 251.3375Q330.17188 251.86874 330.6875 252.66562L332.4375 255.4L330.76562 255.4L329.4375 253.32187Q328.85938 252.41562 328.48438 251.94687Q328.10938 251.4625 327.8125 251.275Q327.51562 251.07187 327.20312 250.99374Q326.98438 250.94687 326.46875 250.94687L324.92188 250.94687L324.92188 255.4L323.59375 255.4ZM324.92188 249.80624L327.78125 249.80624Q328.6875 249.80624 329.20312 249.61874Q329.71875 249.43124 329.98438 249.025Q330.25 248.60312 330.25 248.11874Q330.25 247.4 329.73438 246.94687Q329.21875 246.47812 328.09375 246.47812L324.92188 246.47812L324.92188 249.80624ZM338.39062 253.05624L339.67188 253.2125Q339.35938 254.3375 338.54688 254.9625Q337.73438 255.57187 336.46875 255.57187Q334.875 255.57187 333.9375 254.5875Q333.01562 253.60312 333.01562 251.8375Q333.01562 249.99374 333.95312 248.99374Q334.90625 247.97812 336.40625 247.97812Q337.85938 247.97812 338.78125 248.97812Q339.70312 249.9625 339.70312 251.75937Q339.70312 251.86874 339.70312 252.0875L334.28125 252.0875Q334.35938 253.275 334.95312 253.91562Q335.5625 254.55624 336.48438 254.55624Q337.15625 254.55624 337.625 254.19687Q338.10938 253.8375 338.39062 253.05624ZM334.35938 251.07187L338.40625 251.07187Q338.32812 250.15 337.9375 249.69687Q337.35938 248.99374 336.42188 248.99374Q335.5625 248.99374 334.98438 249.55624Q334.42188 250.11874 334.35938 251.07187ZM346.04688 258.18124L346.04688 254.63437Q345.76562 255.025 345.25 255.30624Q344.73438 255.57187 344.15625 255.57187Q342.85938 255.57187 341.92188 254.54062Q341.0 253.49374 341.0 251.69687Q341.0 250.60312 341.375 249.74374Q341.75 248.86874 342.46875 248.43124Q343.1875 247.97812 344.0625 247.97812Q345.40625 247.97812 346.17188 249.10312L346.17188 248.13437L347.28125 248.13437L347.28125 258.18124L346.04688 258.18124ZM342.25 251.74374Q342.25 253.15 342.84375 253.85312Q343.4375 254.55624 344.25 254.55624Q345.04688 254.55624 345.60938 253.88437Q346.17188 253.2125 346.17188 251.85312Q346.17188 250.41562 345.57812 249.68124Q344.98438 248.94687 344.17188 248.94687Q343.375 248.94687 342.8125 249.63437Q342.25 250.30624 342.25 251.74374ZM354.1875 255.4L354.1875 254.3375Q353.32812 255.57187 351.875 255.57187Q351.23438 255.57187 350.67188 255.32187Q350.125 255.07187 349.84375 254.69687Q349.57812 254.32187 349.46875 253.79062Q349.39062 253.43124 349.39062 252.63437L349.39062 248.13437L350.625 248.13437L350.625 252.16562Q350.625 253.13437 350.70312 253.4625Q350.8125 253.94687 351.1875 254.22812Q351.5625 254.50937 352.125 254.50937Q352.67188 254.50937 353.15625 254.22812Q353.64062 253.93124 353.84375 253.44687Q354.04688 252.9625 354.04688 252.025L354.04688 248.13437L355.28125 248.13437L355.28125 255.4L354.1875 255.4ZM362.39062 253.05624L363.67188 253.2125Q363.35938 254.3375 362.54688 254.9625Q361.73438 255.57187 360.46875 255.57187Q358.875 255.57187 357.9375 254.5875Q357.01562 253.60312 357.01562 251.8375Q357.01562 249.99374 357.95312 248.99374Q358.90625 247.97812 360.40625 247.97812Q361.85938 247.97812 362.78125 248.97812Q363.70312 249.9625 363.70312 251.75937Q363.70312 251.86874 363.70312 252.0875L358.28125 252.0875Q358.35938 253.275 358.95312 253.91562Q359.5625 254.55624 360.48438 254.55624Q361.15625 254.55624 361.625 254.19687Q362.10938 253.8375 362.39062 253.05624ZM358.35938 251.07187L362.40625 251.07187Q362.32812 250.15 361.9375 249.69687Q361.35938 248.99374 360.42188 248.99374Q359.5625 248.99374 358.98438 249.55624Q358.42188 250.11874 358.35938 251.07187ZM364.9375 253.22812L366.14062 253.04062Q366.25 253.775 366.71875 254.16562Q367.1875 254.55624 368.03125 254.55624Q368.875 254.55624 369.28125 254.2125Q369.70312 253.86874 369.70312 253.4Q369.70312 252.97812 369.32812 252.74374Q369.07812 252.57187 368.07812 252.32187Q366.71875 251.97812 366.1875 251.72812Q365.67188 251.47812 365.40625 251.04062Q365.14062 250.60312 365.14062 250.07187Q365.14062 249.5875 365.35938 249.18124Q365.57812 248.75937 365.96875 248.47812Q366.25 248.275 366.73438 248.13437Q367.23438 247.97812 367.8125 247.97812Q368.65625 247.97812 369.29688 248.22812Q369.95312 248.4625 370.26562 248.88437Q370.57812 249.30624 370.6875 250.00937L369.48438 250.18124Q369.40625 249.61874 369.0 249.30624Q368.60938 248.99374 367.89062 248.99374Q367.04688 248.99374 366.6875 249.275Q366.32812 249.54062 366.32812 249.93124Q366.32812 250.16562 366.46875 250.35312Q366.625 250.55624 366.95312 250.68124Q367.125 250.74374 368.03125 250.99374Q369.34375 251.35312 369.85938 251.57187Q370.375 251.79062 370.65625 252.2125Q370.95312 252.63437 370.95312 253.25937Q370.95312 253.88437 370.59375 254.43124Q370.25 254.9625 369.5625 255.275Q368.89062 255.57187 368.03125 255.57187Q366.625 255.57187 365.875 254.97812Q365.14062 254.38437 364.9375 253.22812ZM375.10938 254.30624L375.28125 255.38437Q374.76562 255.49374 374.35938 255.49374Q373.6875 255.49374 373.3125 255.29062Q372.95312 255.07187 372.79688 254.72812Q372.65625 254.38437 372.65625 253.275L372.65625 249.10312L371.75 249.10312L371.75 248.13437L372.65625 248.13437L372.65625 246.3375L373.875 245.60312L373.875 248.13437L375.10938 248.13437L375.10938 249.10312L373.875 249.10312L373.875 253.3375Q373.875 253.86874 373.9375 254.025Q374.0 254.16562 374.14062 254.25937Q374.29688 254.35312 374.5625 254.35312Q374.78125 254.35312 375.10938 254.30624ZM375.9375 253.22812L377.14062 253.04062Q377.25 253.775 377.71875 254.16562Q378.1875 254.55624 379.03125 254.55624Q379.875 254.55624 380.28125 254.2125Q380.70312 253.86874 380.70312 253.4Q380.70312 252.97812 380.32812 252.74374Q380.07812 252.57187 379.07812 252.32187Q377.71875 251.97812 377.1875 251.72812Q376.67188 251.47812 376.40625 251.04062Q376.14062 250.60312 376.14062 250.07187Q376.14062 249.5875 376.35938 249.18124Q376.57812 248.75937 376.96875 248.47812Q377.25 248.275 377.73438 248.13437Q378.23438 247.97812 378.8125 247.97812Q379.65625 247.97812 380.29688 248.22812Q380.95312 248.4625 381.26562 248.88437Q381.57812 249.30624 381.6875 250.00937L380.48438 250.18124Q380.40625 249.61874 380.0 249.30624Q379.60938 248.99374 378.89062 248.99374Q378.04688 248.99374 377.6875 249.275Q377.32812 249.54062 377.32812 249.93124Q377.32812 250.16562 377.46875 250.35312Q377.625 250.55624 377.95312 250.68124Q378.125 250.74374 379.03125 250.99374Q380.34375 251.35312 380.85938 251.57187Q381.375 251.79062 381.65625 252.2125Q381.95312 252.63437 381.95312 253.25937Q381.95312 253.88437 381.59375 254.43124Q381.25 254.9625 380.5625 255.275Q379.89062 255.57187 379.03125 255.57187Q377.625 255.57187 376.875 254.97812Q376.14062 254.38437 375.9375 253.22812ZM387.57812 255.4L387.57812 245.38437L391.35938 245.38437Q392.35938 245.38437 392.89062 245.47812Q393.625 245.60312 394.125 245.94687Q394.625 246.29062 394.92188 246.91562Q395.23438 247.525 395.23438 248.275Q395.23438 249.55624 394.42188 250.44687Q393.60938 251.32187 391.48438 251.32187L388.90625 251.32187L388.90625 255.4L387.57812 255.4ZM388.90625 250.15L391.5 250.15Q392.78125 250.15 393.3125 249.66562Q393.85938 249.18124 393.85938 248.32187Q393.85938 247.68124 393.54688 247.24374Q393.23438 246.79062 392.70312 246.65Q392.375 246.55624 391.46875 246.55624L388.90625 246.55624L388.90625 250.15ZM401.39062 253.05624L402.67188 253.2125Q402.35938 254.3375 401.54688 254.9625Q400.73438 255.57187 399.46875 255.57187Q397.875 255.57187 396.9375 254.5875Q396.01562 253.60312 396.01562 251.8375Q396.01562 249.99374 396.95312 248.99374Q397.90625 247.97812 399.40625 247.97812Q400.85938 247.97812 401.78125 248.97812Q402.70312 249.9625 402.70312 251.75937Q402.70312 251.86874 402.70312 252.0875L397.28125 252.0875Q397.35938 253.275 397.95312 253.91562Q398.5625 254.55624 399.48438 254.55624Q400.15625 254.55624 400.625 254.19687Q401.10938 253.8375 401.39062 253.05624ZM397.35938 251.07187L401.40625 251.07187Q401.32812 250.15 400.9375 249.69687Q400.35938 248.99374 399.42188 248.99374Q398.5625 248.99374 397.98438 249.55624Q397.42188 250.11874 397.35938 251.07187ZM404.40625 255.4L404.40625 248.13437L405.51562 248.13437L405.51562 249.24374Q405.9375 248.4625 406.29688 248.22812Q406.65625 247.97812 407.09375 247.97812Q407.71875 247.97812 408.35938 248.36874L407.9375 249.50937Q407.48438 249.24374 407.03125 249.24374Q406.625 249.24374 406.29688 249.49374Q405.98438 249.72812 405.84375 250.16562Q405.64062 250.82187 405.64062 251.60312L405.64062 255.4L404.40625 255.4ZM413.125 252.18124L414.375 252.07187Q414.46875 252.82187 414.79688 253.30624Q415.125 253.79062 415.79688 254.0875Q416.48438 254.38437 417.34375 254.38437Q418.09375 254.38437 418.67188 254.16562Q419.26562 253.93124 419.54688 253.54062Q419.82812 253.15 419.82812 252.68124Q419.82812 252.2125 419.54688 251.86874Q419.28125 251.50937 418.65625 251.25937Q418.25 251.10312 416.85938 250.775Q415.48438 250.44687 414.9375 250.15Q414.21875 249.775 413.85938 249.22812Q413.51562 248.66562 413.51562 247.9625Q413.51562 247.2125 413.9375 246.55624Q414.375 245.88437 415.20312 245.55624Q416.03125 245.2125 417.04688 245.2125Q418.15625 245.2125 419.0 245.57187Q419.85938 245.93124 420.3125 246.63437Q420.76562 247.32187 420.8125 248.19687L419.53125 248.29062Q419.4375 247.35312 418.84375 246.86874Q418.25 246.36874 417.09375 246.36874Q415.89062 246.36874 415.34375 246.82187Q414.79688 247.25937 414.79688 247.88437Q414.79688 248.41562 415.1875 248.775Q415.5625 249.11874 417.17188 249.49374Q418.79688 249.85312 419.39062 250.11874Q420.26562 250.525 420.6875 251.15Q421.10938 251.75937 421.10938 252.57187Q421.10938 253.36874 420.64062 254.0875Q420.1875 254.79062 419.32812 255.18124Q418.46875 255.57187 417.40625 255.57187Q416.04688 255.57187 415.125 255.18124Q414.20312 254.775 413.67188 253.97812Q413.15625 253.18124 413.125 252.18124ZM427.39062 253.05624L428.67188 253.2125Q428.35938 254.3375 427.54688 254.9625Q426.73438 255.57187 425.46875 255.57187Q423.875 255.57187 422.9375 254.5875Q422.01562 253.60312 422.01562 251.8375Q422.01562 249.99374 422.95312 248.99374Q423.90625 247.97812 425.40625 247.97812Q426.85938 247.97812 427.78125 248.97812Q428.70312 249.9625 428.70312 251.75937Q428.70312 251.86874 428.70312 252.0875L423.28125 252.0875Q423.35938 253.275 423.95312 253.91562Q424.5625 254.55624 425.48438 254.55624Q426.15625 254.55624 426.625 254.19687Q427.10938 253.8375 427.39062 253.05624ZM423.35938 251.07187L427.40625 251.07187Q427.32812 250.15 426.9375 249.69687Q426.35938 248.99374 425.42188 248.99374Q424.5625 248.99374 423.98438 249.55624Q423.42188 250.11874 423.35938 251.07187ZM435.15625 252.74374L436.375 252.9Q436.17188 254.15 435.34375 254.86874Q434.53125 255.57187 433.34375 255.57187Q431.85938 255.57187 430.95312 254.60312Q430.04688 253.61874 430.04688 251.79062Q430.04688 250.61874 430.4375 249.74374Q430.82812 248.85312 431.625 248.41562Q432.42188 247.97812 433.35938 247.97812Q434.53125 247.97812 435.28125 248.57187Q436.04688 249.16562 436.25 250.275L435.0625 250.4625Q434.89062 249.72812 434.45312 249.36874Q434.01562 248.99374 433.40625 248.99374Q432.46875 248.99374 431.89062 249.66562Q431.3125 250.32187 431.3125 251.75937Q431.3125 253.22812 431.875 253.9Q432.4375 254.55624 433.32812 254.55624Q434.0625 254.55624 434.54688 254.11874Q435.03125 253.66562 435.15625 252.74374ZM436.96875 251.775Q436.96875 249.75937 438.09375 248.775Q439.01562 247.97812 440.375 247.97812Q441.85938 247.97812 442.8125 248.9625Q443.76562 249.93124 443.76562 251.66562Q443.76562 253.07187 443.34375 253.88437Q442.92188 254.68124 442.10938 255.13437Q441.3125 255.57187 440.375 255.57187Q438.84375 255.57187 437.90625 254.5875Q436.96875 253.60312 436.96875 251.775ZM438.23438 251.775Q438.23438 253.16562 438.84375 253.86874Q439.45312 254.55624 440.375 254.55624Q441.28125 254.55624 441.89062 253.85312Q442.5 253.15 442.5 251.72812Q442.5 250.38437 441.89062 249.69687Q441.28125 248.99374 440.375 248.99374Q439.45312 248.99374 438.84375 249.68124Q438.23438 250.36874 438.23438 251.775ZM445.42188 255.4L445.42188 248.13437L446.53125 248.13437L446.53125 249.16562Q447.32812 247.97812 448.84375 247.97812Q449.5 247.97812 450.04688 248.2125Q450.59375 248.44687 450.85938 248.8375Q451.14062 249.2125 451.25 249.74374Q451.32812 250.0875 451.32812 250.93124L451.32812 255.4L450.09375 255.4L450.09375 250.97812Q450.09375 250.22812 449.95312 249.86874Q449.8125 249.49374 449.4375 249.275Q449.07812 249.04062 448.57812 249.04062Q447.79688 249.04062 447.21875 249.54062Q446.65625 250.04062 446.65625 251.43124L446.65625 255.4L445.42188 255.4ZM458.14062 255.4L458.14062 254.47812Q457.4375 255.57187 456.10938 255.57187Q455.23438 255.57187 454.5 255.0875Q453.78125 254.60312 453.375 253.74374Q452.98438 252.88437 452.98438 251.775Q452.98438 250.69687 453.34375 249.80624Q453.70312 248.91562 454.42188 248.44687Q455.15625 247.97812 456.04688 247.97812Q456.70312 247.97812 457.21875 248.25937Q457.73438 248.525 458.04688 248.97812L458.04688 245.38437L459.28125 245.38437L459.28125 255.4L458.14062 255.4ZM454.25 251.775Q454.25 253.16562 454.82812 253.86874Q455.42188 254.55624 456.21875 254.55624Q457.03125 254.55624 457.59375 253.9Q458.15625 253.22812 458.15625 251.88437Q458.15625 250.38437 457.57812 249.69687Q457.0 248.99374 456.17188 248.99374Q455.34375 248.99374 454.79688 249.66562Q454.25 250.3375 454.25 251.775Z" fill-rule="nonzero"/><path fill="#000000" d="M26.599995 204.51979L16.58437 204.51979L16.58437 202.53542L23.67812 200.16042Q24.662495 199.83229 25.162495 199.67604Q24.61562 199.50417 23.55312 199.14479L16.58437 196.75417L16.58437 194.95729L26.599995 194.95729L26.599995 196.23854L18.20937 196.23854L26.599995 199.16042L26.599995 200.34792L18.068745 203.25417L26.599995 203.25417L26.599995 204.51979ZM24.256245 188.67604L24.412495 187.39479Q25.537495 187.70729 26.162495 188.51979Q26.77187 189.33229 26.77187 190.59792Q26.77187 192.19167 25.787495 193.12917Q24.80312 194.05104 23.037495 194.05104Q21.193745 194.05104 20.193745 193.11354Q19.17812 192.16042 19.17812 190.66042Q19.17812 189.20729 20.17812 188.28542Q21.162495 187.36354 22.95937 187.36354Q23.068745 187.36354 23.287495 187.36354L23.287495 192.78542Q24.474995 192.70729 25.11562 192.11354Q25.756245 191.50417 25.756245 190.58229Q25.756245 189.91042 25.39687 189.44167Q25.037495 188.95729 24.256245 188.67604ZM22.27187 192.70729L22.27187 188.66042Q21.349995 188.73854 20.89687 189.12917Q20.193745 189.70729 20.193745 190.64479Q20.193745 191.50417 20.756245 192.08229Q21.318745 192.64479 22.27187 192.70729ZM26.599995 180.92604L25.67812 180.92604Q26.77187 181.62917 26.77187 182.95729Q26.77187 183.83229 26.287495 184.56667Q25.80312 185.28542 24.943745 185.69167Q24.08437 186.08229 22.974995 186.08229Q21.89687 186.08229 21.006245 185.72292Q20.11562 185.36354 19.64687 184.64479Q19.17812 183.91042 19.17812 183.01979Q19.17812 182.36354 19.45937 181.84792Q19.724995 181.33229 20.17812 181.01979L16.58437 181.01979L16.58437 179.78542L26.599995 179.78542L26.599995 180.92604ZM22.974995 184.81667Q24.36562 184.81667 25.068745 184.23854Q25.756245 183.64479 25.756245 182.84792Q25.756245 182.03542 25.099995 181.47292Q24.42812 180.91042 23.08437 180.91042Q21.58437 180.91042 20.89687 181.48854Q20.193745 182.06667 20.193745 182.89479Q20.193745 183.72292 20.86562 184.26979Q21.537495 184.81667 22.974995 184.81667ZM17.99062 177.62917L16.58437 177.62917L16.58437 176.41042L17.99062 176.41042L17.99062 177.62917ZM26.599995 177.62917L19.33437 177.62917L19.33437 176.41042L26.599995 176.41042L26.599995 177.62917ZM25.70937 169.91042Q26.287495 170.58229 26.537495 171.22292Q26.77187 171.84792 26.77187 172.58229Q26.77187 173.76979 26.193745 174.42604Q25.599995 175.06667 24.67812 175.06667Q24.14687 175.06667 23.70937 174.83229Q23.27187 174.58229 23.006245 174.19167Q22.74062 173.78542 22.599995 173.30104Q22.506245 172.94167 22.412495 172.20729Q22.24062 170.70729 21.99062 170.00417Q21.74062 170.00417 21.67812 170.00417Q20.912495 170.00417 20.61562 170.34792Q20.193745 170.81667 20.193745 171.75417Q20.193745 172.61354 20.506245 173.03542Q20.80312 173.44167 21.568745 173.64479L21.412495 174.84792Q20.631245 174.69167 20.162495 174.31667Q19.693745 173.92604 19.443745 173.22292Q19.17812 172.50417 19.17812 171.56667Q19.17812 170.64479 19.39687 170.06667Q19.61562 169.48854 19.943745 169.22292Q20.27187 168.94167 20.787495 168.83229Q21.099995 168.76979 21.912495 168.76979L23.55312 168.76979Q25.27187 168.76979 25.724995 168.69167Q26.17812 168.61354 26.599995 168.37917L26.599995 169.66042Q26.20937 169.84792 25.70937 169.91042ZM22.95937 170.00417Q23.224995 170.67604 23.42812 172.01979Q23.537495 172.76979 23.67812 173.09792Q23.80312 173.41042 24.068745 173.58229Q24.33437 173.75417 24.64687 173.75417Q25.14687 173.75417 25.474995 173.37917Q25.80312 173.00417 25.80312 172.28542Q25.80312 171.56667 25.49062 171.01979Q25.17812 170.47292 24.631245 170.20729Q24.224995 170.00417 23.412495 170.00417L22.95937 170.00417ZM26.599995 166.64479L19.33437 166.64479L19.33437 165.53542L20.36562 165.53542Q19.17812 164.73854 19.17812 163.22292Q19.17812 162.56667 19.412495 162.01979Q19.64687 161.47292 20.037495 161.20729Q20.412495 160.92604 20.943745 160.81667Q21.287495 160.73854 22.131245 160.73854L26.599995 160.73854L26.599995 161.97292L22.17812 161.97292Q21.42812 161.97292 21.068745 162.11354Q20.693745 162.25417 20.474995 162.62917Q20.24062 162.98854 20.24062 163.48854Q20.24062 164.26979 20.74062 164.84792Q21.24062 165.41042 22.631245 165.41042L26.599995 165.41042L26.599995 166.64479ZM26.599995 154.53542L16.58437 154.53542L16.58437 153.20729L25.412495 153.20729L25.412495 148.28542L26.599995 148.28542L26.599995 154.53542ZM25.70937 141.91042Q26.287495 142.58229 26.537495 143.22292Q26.77187 143.84792 26.77187 144.58229Q26.77187 145.76979 26.193745 146.42604Q25.599995 147.06667 24.67812 147.06667Q24.14687 147.06667 23.70937 146.83229Q23.27187 146.58229 23.006245 146.19167Q22.74062 145.78542 22.599995 145.30104Q22.506245 144.94167 22.412495 144.20729Q22.24062 142.70729 21.99062 142.00417Q21.74062 142.00417 21.67812 142.00417Q20.912495 142.00417 20.61562 142.34792Q20.193745 142.81667 20.193745 143.75417Q20.193745 144.61354 20.506245 145.03542Q20.80312 145.44167 21.568745 145.64479L21.412495 146.84792Q20.631245 146.69167 20.162495 146.31667Q19.693745 145.92604 19.443745 145.22292Q19.17812 144.50417 19.17812 143.56667Q19.17812 142.64479 19.39687 142.06667Q19.61562 141.48854 19.943745 141.22292Q20.27187 140.94167 20.787495 140.83229Q21.099995 140.76979 21.912495 140.76979L23.55312 140.76979Q25.27187 140.76979 25.724995 140.69167Q26.17812 140.61354 26.599995 140.37917L26.599995 141.66042Q26.20937 141.84792 25.70937 141.91042ZM22.95937 142.00417Q23.224995 142.67604 23.42812 144.01979Q23.537495 144.76979 23.67812 145.09792Q23.80312 145.41042 24.068745 145.58229Q24.33437 145.75417 24.64687 145.75417Q25.14687 145.75417 25.474995 145.37917Q25.80312 145.00417 25.80312 144.28542Q25.80312 143.56667 25.49062 143.01979Q25.17812 142.47292 24.631245 142.20729Q24.224995 142.00417 23.412495 142.00417L22.95937 142.00417ZM25.506245 135.95729L26.58437 135.78542Q26.693745 136.30104 26.693745 136.70729Q26.693745 137.37917 26.49062 137.75417Q26.27187 138.11354 25.92812 138.26979Q25.58437 138.41042 24.474995 138.41042L20.30312 138.41042L20.30312 139.31667L19.33437 139.31667L19.33437 138.41042L17.537495 138.41042L16.80312 137.19167L19.33437 137.19167L19.33437 135.95729L20.30312 135.95729L20.30312 137.19167L24.537495 137.19167Q25.068745 137.19167 25.224995 137.12917Q25.36562 137.06667 25.45937 136.92604Q25.55312 136.76979 25.55312 136.50417Q25.55312 136.28542 25.506245 135.95729ZM24.256245 129.67604L24.412495 128.39479Q25.537495 128.70729 26.162495 129.51979Q26.77187 130.33229 26.77187 131.59792Q26.77187 133.19167 25.787495 134.12917Q24.80312 135.05104 23.037495 135.05104Q21.193745 135.05104 20.193745 134.11354Q19.17812 133.16042 19.17812 131.66042Q19.17812 130.20729 20.17812 129.28542Q21.162495 128.36354 22.95937 128.36354Q23.068745 128.36354 23.287495 128.36354L23.287495 133.78542Q24.474995 133.70729 25.11562 133.11354Q25.756245 132.50417 25.756245 131.58229Q25.756245 130.91042 25.39687 130.44167Q25.037495 129.95729 24.256245 129.67604ZM22.27187 133.70729L22.27187 129.66042Q21.349995 129.73854 20.89687 130.12917Q20.193745 130.70729 20.193745 131.64479Q20.193745 132.50417 20.756245 133.08229Q21.318745 133.64479 22.27187 133.70729ZM26.599995 126.64479L19.33437 126.64479L19.33437 125.535416L20.36562 125.535416Q19.17812 124.73854 19.17812 123.222916Q19.17812 122.566666 19.412495 122.01979Q19.64687 121.472916 20.037495 121.20729Q20.412495 120.92604 20.943745 120.816666Q21.287495 120.73854 22.131245 120.73854L26.599995 120.73854L26.599995 121.972916L22.17812 121.972916Q21.42812 121.972916 21.068745 122.11354Q20.693745 122.254166 20.474995 122.629166Q20.24062 122.98854 20.24062 123.48854Q20.24062 124.26979 20.74062 124.847916Q21.24062 125.410416 22.631245 125.410416L26.599995 125.410416L26.599995 126.64479ZM23.943745 113.910416L24.099995 112.691666Q25.349995 112.89479 26.068745 113.722916Q26.77187 114.535416 26.77187 115.722916Q26.77187 117.20729 25.80312 118.11354Q24.818745 119.01979 22.99062 119.01979Q21.818745 119.01979 20.943745 118.629166Q20.05312 118.23854 19.61562 117.441666Q19.17812 116.64479 19.17812 115.70729Q19.17812 114.535416 19.77187 113.785416Q20.36562 113.01979 21.474995 112.816666L21.662495 114.004166Q20.92812 114.17604 20.568745 114.61354Q20.193745 115.05104 20.193745 115.660416Q20.193745 116.597916 20.86562 117.17604Q21.52187 117.754166 22.95937 117.754166Q24.42812 117.754166 25.099995 117.191666Q25.756245 116.629166 25.756245 115.73854Q25.756245 115.004166 25.318745 114.51979Q24.86562 114.035416 23.943745 113.910416ZM29.39687 111.691666L28.24062 111.83229Q28.349995 111.42604 28.349995 111.129166Q28.349995 110.722916 28.20937 110.472916Q28.08437 110.222916 27.83437 110.066666Q27.64687 109.95729 26.912495 109.691666Q26.818745 109.660416 26.61562 109.58229L19.33437 112.347916L19.33437 111.01979L23.537495 109.504166Q24.349995 109.20729 25.224995 108.972916Q24.381245 108.76979 23.568745 108.472916L19.33437 106.92604L19.33437 105.691666L26.724995 108.45729Q27.912495 108.89479 28.36562 109.14479Q28.974995 109.472916 29.256245 109.89479Q29.55312 110.316666 29.55312 110.910416Q29.55312 111.254166 29.39687 111.691666ZM29.55312 98.285416Q28.256245 99.316666 26.537495 100.01979Q24.818745 100.722916 22.974995 100.722916Q21.349995 100.722916 19.849995 100.191666Q18.11562 99.58229 16.412495 98.285416L16.412495 97.410416Q17.83437 98.23854 18.443745 98.504166Q19.381245 98.92604 20.412495 99.160416Q21.67812 99.45729 22.974995 99.45729Q26.27187 99.45729 29.55312 97.410416L29.55312 98.285416ZM24.42812 96.129166L24.24062 94.92604Q24.974995 94.816666 25.36562 94.347916Q25.756245 93.879166 25.756245 93.035416Q25.756245 92.191666 25.412495 91.785416Q25.068745 91.36354 24.599995 91.36354Q24.17812 91.36354 23.943745 91.73854Q23.77187 91.98854 23.52187 92.98854Q23.17812 94.347916 22.92812 94.879166Q22.67812 95.39479 22.24062 95.660416Q21.80312 95.92604 21.27187 95.92604Q20.787495 95.92604 20.381245 95.70729Q19.95937 95.48854 19.67812 95.097916Q19.474995 94.816666 19.33437 94.33229Q19.17812 93.83229 19.17812 93.254166Q19.17812 92.410416 19.42812 91.76979Q19.662495 91.11354 20.08437 90.80104Q20.506245 90.48854 21.20937 90.379166L21.381245 91.58229Q20.818745 91.660416 20.506245 92.066666Q20.193745 92.45729 20.193745 93.17604Q20.193745 94.01979 20.474995 94.379166Q20.74062 94.73854 21.131245 94.73854Q21.36562 94.73854 21.55312 94.597916Q21.756245 94.441666 21.881245 94.11354Q21.943745 93.941666 22.193745 93.035416Q22.55312 91.722916 22.77187 91.20729Q22.99062 90.691666 23.412495 90.410416Q23.83437 90.11354 24.45937 90.11354Q25.08437 90.11354 25.631245 90.472916Q26.162495 90.816666 26.474995 91.504166Q26.77187 92.17604 26.77187 93.035416Q26.77187 94.441666 26.17812 95.191666Q25.58437 95.92604 24.42812 96.129166ZM29.55312 87.83229L29.55312 88.722916Q26.27187 86.67604 22.974995 86.67604Q21.693745 86.67604 20.42812 86.972916Q19.39687 87.20729 18.45937 87.61354Q17.849995 87.879166 16.412495 88.722916L16.412495 87.83229Q18.11562 86.55104 19.849995 85.941666Q21.349995 85.410416 22.974995 85.410416Q24.818745 85.410416 26.537495 86.129166Q28.256245 86.83229 29.55312 87.83229Z" fill-rule="nonzero"/><path fill="#000000" d="M75.17812 198.4625Q75.17812 196.68124 75.5375 195.60312Q75.9125 194.50937 76.63125 193.93124Q77.35 193.3375 78.44375 193.3375Q79.25625 193.3375 79.86562 193.66562Q80.475 193.99374 80.86562 194.60312Q81.27187 195.2125 81.49062 196.0875Q81.70937 196.9625 81.70937 198.4625Q81.70937 200.22812 81.35 201.30624Q80.99062 202.38437 80.27187 202.97812Q79.55312 203.57187 78.44375 203.57187Q77.00625 203.57187 76.17812 202.525Q75.17812 201.275 75.17812 198.4625ZM76.44375 198.4625Q76.44375 200.93124 77.02187 201.74374Q77.6 202.55624 78.44375 202.55624Q79.30312 202.55624 79.88125 201.74374Q80.45937 200.91562 80.45937 198.4625Q80.45937 195.97812 79.88125 195.16562Q79.30312 194.35312 78.42812 194.35312Q77.58437 194.35312 77.08437 195.07187Q76.44375 195.99374 76.44375 198.4625Z" fill-rule="nonzero"/><path fill="#000000" d="M65.64687 177.87917L65.64687 179.06667L59.021873 179.06667Q59.00625 178.62917 59.1625 178.20729Q59.428123 177.53542 59.975 176.87917Q60.5375 176.22292 61.584373 175.36354Q63.225 174.01979 63.7875 173.23854Q64.36562 172.45729 64.36562 171.75417Q64.36562 171.01979 63.834373 170.51979Q63.31875 170.01979 62.490623 170.01979Q61.6 170.01979 61.053123 170.55104Q60.521873 171.08229 60.521873 172.03542L59.25625 171.89479Q59.38125 170.48854 60.225 169.75417Q61.084373 169.00417 62.50625 169.00417Q63.959373 169.00417 64.7875 169.80104Q65.63125 170.59792 65.63125 171.78542Q65.63125 172.39479 65.38125 172.97292Q65.14687 173.55104 64.56875 174.19167Q64.00625 174.83229 62.678123 175.95729Q61.56875 176.87917 61.25625 177.22292Q60.94375 177.55104 60.740623 177.87917L65.64687 177.87917ZM67.17812 176.44167L68.475 176.33229Q68.61562 177.26979 69.13125 177.75417Q69.6625 178.22292 70.39687 178.22292Q71.2875 178.22292 71.89687 177.55104Q72.52187 176.87917 72.52187 175.78542Q72.52187 174.72292 71.92812 174.11354Q71.33437 173.50417 70.38125 173.50417Q69.7875 173.50417 69.30312 173.78542Q68.83437 174.05104 68.55312 174.47292L67.39687 174.33229L68.36562 169.17604L73.35 169.17604L73.35 170.36354L69.35 170.36354L68.81875 173.05104Q69.725 172.42604 70.70937 172.42604Q72.02187 172.42604 72.9125 173.33229Q73.81875 174.23854 73.81875 175.67604Q73.81875 177.03542 73.0375 178.01979Q72.06875 179.23854 70.39687 179.23854Q69.0375 179.23854 68.1625 178.47292Q67.30312 177.70729 67.17812 176.44167ZM75.17812 174.12917Q75.17812 172.34792 75.5375 171.26979Q75.9125 170.17604 76.63125 169.59792Q77.35 169.00417 78.44375 169.00417Q79.25625 169.00417 79.86562 169.33229Q80.475 169.66042 80.86562 170.26979Q81.27187 170.87917 81.49062 171.75417Q81.70937 172.62917 81.70937 174.12917Q81.70937 175.89479 81.35 176.97292Q80.99062 178.05104 80.27187 178.64479Q79.55312 179.23854 78.44375 179.23854Q77.00625 179.23854 76.17812 178.19167Q75.17812 176.94167 75.17812 174.12917ZM76.44375 174.12917Q76.44375 176.59792 77.02187 177.41042Q77.6 178.22292 78.44375 178.22292Q79.30312 178.22292 79.88125 177.41042Q80.45937 176.58229 80.45937 174.12917Q80.45937 171.64479 79.88125 170.83229Q79.30312 170.01979 78.42812 170.01979Q77.58437 170.01979 77.08437 170.73854Q76.44375 171.66042 76.44375 174.12917Z" fill-rule="nonzero"/><path fill="#000000" d="M59.178123 152.10834L60.475 151.99896Q60.615623 152.93646 61.13125 153.42084Q61.6625 153.88959 62.396873 153.88959Q63.2875 153.88959 63.896873 153.21771Q64.52187 152.54584 64.52187 151.45209Q64.52187 150.38959 63.928123 149.78021Q63.334373 149.17084 62.38125 149.17084Q61.7875 149.17084 61.303123 149.45209Q60.834373 149.71771 60.553123 150.13959L59.396873 149.99896L60.365623 144.84271L65.35 144.84271L65.35 146.03021L61.35 146.03021L60.81875 148.71771Q61.725 148.09271 62.709373 148.09271Q64.02187 148.09271 64.9125 148.99896Q65.81875 149.90521 65.81875 151.34271Q65.81875 152.70209 65.0375 153.68646Q64.06875 154.90521 62.396873 154.90521Q61.0375 154.90521 60.1625 154.13959Q59.303123 153.37396 59.178123 152.10834ZM67.17812 149.79584Q67.17812 148.01459 67.5375 146.93646Q67.9125 145.84271 68.63125 145.26459Q69.35 144.67084 70.44375 144.67084Q71.25625 144.67084 71.86562 144.99896Q72.475 145.32709 72.86562 145.93646Q73.27187 146.54584 73.49062 147.42084Q73.70937 148.29584 73.70937 149.79584Q73.70937 151.56146 73.35 152.63959Q72.99062 153.71771 72.27187 154.31146Q71.55312 154.90521 70.44375 154.90521Q69.00625 154.90521 68.17812 153.85834Q67.17812 152.60834 67.17812 149.79584ZM68.44375 149.79584Q68.44375 152.26459 69.02187 153.07709Q69.6 153.88959 70.44375 153.88959Q71.30312 153.88959 71.88125 153.07709Q72.45937 152.24896 72.45937 149.79584Q72.45937 147.31146 71.88125 146.49896Q71.30312 145.68646 70.42812 145.68646Q69.58437 145.68646 69.08437 146.40521Q68.44375 147.32709 68.44375 149.79584ZM75.17812 149.79584Q75.17812 148.01459 75.5375 146.93646Q75.9125 145.84271 76.63125 145.26459Q77.35 144.67084 78.44375 144.67084Q79.25625 144.67084 79.86562 144.99896Q80.475 145.32709 80.86562 145.93646Q81.27187 146.54584 81.49062 147.42084Q81.70937 148.29584 81.70937 149.79584Q81.70937 151.56146 81.35 152.63959Q80.99062 153.71771 80.27187 154.31146Q79.55312 154.90521 78.44375 154.90521Q77.00625 154.90521 76.17812 153.85834Q75.17812 152.60834 75.17812 149.79584ZM76.44375 149.79584Q76.44375 152.26459 77.02187 153.07709Q77.6 153.88959 78.44375 153.88959Q79.30312 153.88959 79.88125 153.07709Q80.45937 152.24896 80.45937 149.79584Q80.45937 147.31146 79.88125 146.49896Q79.30312 145.68646 78.42812 145.68646Q77.58437 145.68646 77.08437 146.40521Q76.44375 147.32709 76.44375 149.79584Z" fill-rule="nonzero"/><path fill="#000000" d="M59.25625 121.69687L59.25625 120.50937L65.75625 120.50937L65.75625 121.462494Q64.7875 122.47812 63.85 124.16562Q62.9125 125.85312 62.396873 127.649994Q62.0375 128.9 61.928123 130.4L60.6625 130.4Q60.678123 129.2125 61.115623 127.54062Q61.56875 125.868744 62.396873 124.32187Q63.240623 122.75937 64.17812 121.69687L59.25625 121.69687ZM67.17812 127.774994L68.475 127.66562Q68.61562 128.60312 69.13125 129.0875Q69.6625 129.55624 70.39687 129.55624Q71.2875 129.55624 71.89687 128.88437Q72.52187 128.2125 72.52187 127.118744Q72.52187 126.056244 71.92812 125.44687Q71.33437 124.837494 70.38125 124.837494Q69.7875 124.837494 69.30312 125.118744Q68.83437 125.38437 68.55312 125.806244L67.39687 125.66562L68.36562 120.50937L73.35 120.50937L73.35 121.69687L69.35 121.69687L68.81875 124.38437Q69.725 123.75937 70.70937 123.75937Q72.02187 123.75937 72.9125 124.66562Q73.81875 125.57187 73.81875 127.00937Q73.81875 128.36874 73.0375 129.35312Q72.06875 130.57187 70.39687 130.57187Q69.0375 130.57187 68.1625 129.80624Q67.30312 129.04062 67.17812 127.774994ZM75.17812 125.462494Q75.17812 123.681244 75.5375 122.60312Q75.9125 121.50937 76.63125 120.931244Q77.35 120.337494 78.44375 120.337494Q79.25625 120.337494 79.86562 120.66562Q80.475 120.993744 80.86562 121.60312Q81.27187 122.212494 81.49062 123.087494Q81.70937 123.962494 81.70937 125.462494Q81.70937 127.22812 81.35 128.30624Q80.99062 129.38437 80.27187 129.97812Q79.55312 130.57187 78.44375 130.57187Q77.00625 130.57187 76.17812 129.525Q75.17812 128.275 75.17812 125.462494ZM76.44375 125.462494Q76.44375 127.931244 77.02187 128.74374Q77.6 129.55624 78.44375 129.55624Q79.30312 129.55624 79.88125 128.74374Q80.45937 127.91562 80.45937 125.462494Q80.45937 122.97812 79.88125 122.16562Q79.30312 121.35312 78.42812 121.35312Q77.58437 121.35312 77.08437 122.07187Q76.44375 122.993744 76.44375 125.462494Z" fill-rule="nonzero"/><path fill="#000000" d="M55.81875 106.066666L54.584373 106.066666L54.584373 98.222916Q54.146873 98.64479 53.4125 99.08229Q52.69375 99.504166 52.13125 99.70729L52.13125 98.51979Q53.1625 98.035416 53.928123 97.347916Q54.709373 96.660416 55.021873 96.004166L55.81875 96.004166L55.81875 106.066666ZM59.178123 101.129166Q59.178123 99.347916 59.5375 98.26979Q59.9125 97.17604 60.63125 96.597916Q61.35 96.004166 62.44375 96.004166Q63.25625 96.004166 63.865623 96.33229Q64.475 96.660416 64.86562 97.26979Q65.27187 97.879166 65.49062 98.754166Q65.70937 99.629166 65.70937 101.129166Q65.70937 102.89479 65.35 103.972916Q64.99062 105.05104 64.27187 105.64479Q63.553123 106.23854 62.44375 106.23854Q61.00625 106.23854 60.178123 105.191666Q59.178123 103.941666 59.178123 101.129166ZM60.44375 101.129166Q60.44375 103.597916 61.021873 104.410416Q61.6 105.222916 62.44375 105.222916Q63.303123 105.222916 63.88125 104.410416Q64.45937 103.58229 64.45937 101.129166Q64.45937 98.64479 63.88125 97.83229Q63.303123 97.01979 62.428123 97.01979Q61.584373 97.01979 61.084373 97.73854Q60.44375 98.660416 60.44375 101.129166ZM67.17812 101.129166Q67.17812 99.347916 67.5375 98.26979Q67.9125 97.17604 68.63125 96.597916Q69.35 96.004166 70.44375 96.004166Q71.25625 96.004166 71.86562 96.33229Q72.475 96.660416 72.86562 97.26979Q73.27187 97.879166 73.49062 98.754166Q73.70937 99.629166 73.70937 101.129166Q73.70937 102.89479 73.35 103.972916Q72.99062 105.05104 72.27187 105.64479Q71.55312 106.23854 70.44375 106.23854Q69.00625 106.23854 68.17812 105.191666Q67.17812 103.941666 67.17812 101.129166ZM68.44375 101.129166Q68.44375 103.597916 69.02187 104.410416Q69.6 105.222916 70.44375 105.222916Q71.30312 105.222916 71.88125 104.410416Q72.45937 103.58229 72.45937 101.129166Q72.45937 98.64479 71.88125 97.83229Q71.30312 97.01979 70.42812 97.01979Q69.58437 97.01979 69.08437 97.73854Q68.44375 98.660416 68.44375 101.129166ZM75.17812 101.129166Q75.17812 99.347916 75.5375 98.26979Q75.9125 97.17604 76.63125 96.597916Q77.35 96.004166 78.44375 96.004166Q79.25625 96.004166 79.86562 96.33229Q80.475 96.660416 80.86562 97.26979Q81.27187 97.879166 81.49062 98.754166Q81.70937 99.629166 81.70937 101.129166Q81.70937 102.89479 81.35 103.972916Q80.99062 105.05104 80.27187 105.64479Q79.55312 106.23854 78.44375 106.23854Q77.00625 106.23854 76.17812 105.191666Q75.17812 103.941666 75.17812 101.129166ZM76.44375 101.129166Q76.44375 103.597916 77.02187 104.410416Q77.6 105.222916 78.44375 105.222916Q79.30312 105.222916 79.88125 104.410416Q80.45937 103.58229 80.45937 101.129166Q80.45937 98.64479 79.88125 97.83229Q79.30312 97.01979 78.42812 97.01979Q77.58437 97.01979 77.08437 97.73854Q76.44375 98.660416 76.44375 101.129166Z" fill-rule="nonzero"/><path fill="#000000" d="M55.81875 81.73333L54.584373 81.73333L54.584373 73.88958Q54.146873 74.311455 53.4125 74.748955Q52.69375 75.17083 52.13125 75.373955L52.13125 74.186455Q53.1625 73.70208 53.928123 73.01458Q54.709373 72.32708 55.021873 71.67083L55.81875 71.67083L55.81875 81.73333ZM65.64687 80.54583L65.64687 81.73333L59.021873 81.73333Q59.00625 81.29583 59.1625 80.873955Q59.428123 80.20208 59.975 79.54583Q60.5375 78.88958 61.584373 78.030205Q63.225 76.686455 63.7875 75.905205Q64.36562 75.123955 64.36562 74.42083Q64.36562 73.686455 63.834373 73.186455Q63.31875 72.686455 62.490623 72.686455Q61.6 72.686455 61.053123 73.217705Q60.521873 73.748955 60.521873 74.70208L59.25625 74.561455Q59.38125 73.155205 60.225 72.42083Q61.084373 71.67083 62.50625 71.67083Q63.959373 71.67083 64.7875 72.467705Q65.63125 73.26458 65.63125 74.45208Q65.63125 75.061455 65.38125 75.63958Q65.14687 76.217705 64.56875 76.85833Q64.00625 77.498955 62.678123 78.623955Q61.56875 79.54583 61.25625 79.88958Q60.94375 80.217705 60.740623 80.54583L65.64687 80.54583ZM67.17812 79.10833L68.475 78.998955Q68.61562 79.936455 69.13125 80.42083Q69.6625 80.88958 70.39687 80.88958Q71.2875 80.88958 71.89687 80.217705Q72.52187 79.54583 72.52187 78.45208Q72.52187 77.38958 71.92812 76.780205Q71.33437 76.17083 70.38125 76.17083Q69.7875 76.17083 69.30312 76.45208Q68.83437 76.717705 68.55312 77.13958L67.39687 76.998955L68.36562 71.842705L73.35 71.842705L73.35 73.030205L69.35 73.030205L68.81875 75.717705Q69.725 75.092705 70.70937 75.092705Q72.02187 75.092705 72.9125 75.998955Q73.81875 76.905205 73.81875 78.342705Q73.81875 79.70208 73.0375 80.686455Q72.06875 81.905205 70.39687 81.905205Q69.0375 81.905205 68.1625 81.13958Q67.30312 80.373955 67.17812 79.10833ZM75.17812 76.79583Q75.17812 75.01458 75.5375 73.936455Q75.9125 72.842705 76.63125 72.26458Q77.35 71.67083 78.44375 71.67083Q79.25625 71.67083 79.86562 71.998955Q80.475 72.32708 80.86562 72.936455Q81.27187 73.54583 81.49062 74.42083Q81.70937 75.29583 81.70937 76.79583Q81.70937 78.561455 81.35 79.63958Q80.99062 80.717705 80.27187 81.311455Q79.55312 81.905205 78.44375 81.905205Q77.00625 81.905205 76.17812 80.85833Q75.17812 79.60833 75.17812 76.79583ZM76.44375 76.79583Q76.44375 79.26458 77.02187 80.07708Q77.6 80.88958 78.44375 80.88958Q79.30312 80.88958 79.88125 80.07708Q80.45937 79.248955 80.45937 76.79583Q80.45937 74.311455 79.88125 73.498955Q79.30312 72.686455 78.42812 72.686455Q77.58437 72.686455 77.08437 73.405205Q76.44375 74.32708 76.44375 76.79583Z" fill-rule="nonzero"/><path fill="#000000" d="M86.17812 213.4625Q86.17812 211.68124 86.5375 210.60312Q86.9125 209.50937 87.63125 208.93124Q88.35 208.3375 89.44375 208.3375Q90.25625 208.3375 90.86562 208.66562Q91.475 208.99374 91.86562 209.60312Q92.27187 210.2125 92.49062 211.0875Q92.70937 211.9625 92.70937 213.4625Q92.70937 215.22812 92.35 216.30624Q91.99062 217.38437 91.27187 217.97812Q90.55312 218.57187 89.44375 218.57187Q88.00625 218.57187 87.17812 217.525Q86.17812 216.275 86.17812 213.4625ZM87.44375 213.4625Q87.44375 215.93124 88.02187 216.74374Q88.6 217.55624 89.44375 217.55624Q90.30312 217.55624 90.88125 216.74374Q91.45937 215.91562 91.45937 213.4625Q91.45937 210.97812 90.88125 210.16562Q90.30312 209.35312 89.42812 209.35312Q88.58437 209.35312 88.08437 210.07187Q87.44375 210.99374 87.44375 213.4625Z" fill-rule="nonzero"/><path fill="#000000" d="M159.73576 217.2125L159.73576 218.4L153.11076 218.4Q153.09514 217.9625 153.25139 217.54062Q153.51701 216.86874 154.06389 216.2125Q154.62639 215.55624 155.67326 214.69687Q157.31389 213.35312 157.87639 212.57187Q158.45451 211.79062 158.45451 211.0875Q158.45451 210.35312 157.92326 209.85312Q157.40764 209.35312 156.57951 209.35312Q155.68889 209.35312 155.14201 209.88437Q154.61076 210.41562 154.61076 211.36874L153.34514 211.22812Q153.47014 209.82187 154.31389 209.0875Q155.17326 208.3375 156.59514 208.3375Q158.04826 208.3375 158.87639 209.13437Q159.72014 209.93124 159.72014 211.11874Q159.72014 211.72812 159.47014 212.30624Q159.23576 212.88437 158.65764 213.525Q158.09514 214.16562 156.76701 215.29062Q155.65764 216.2125 155.34514 216.55624Q155.03264 216.88437 154.82951 217.2125L159.73576 217.2125Z" fill-rule="nonzero"/><path fill="#000000" d="M224.30902 218.4L224.30902 215.99374L219.94965 215.99374L219.94965 214.86874L224.52777 208.38437L225.52777 208.38437L225.52777 214.86874L226.88715 214.86874L226.88715 215.99374L225.52777 215.99374L225.52777 218.4L224.30902 218.4ZM224.30902 214.86874L224.30902 210.35312L221.1684 214.86874L224.30902 214.86874Z" fill-rule="nonzero"/><path fill="#000000" d="M293.83542 210.8375L292.61667 210.93124Q292.4448 210.19687 292.14792 209.86874Q291.64792 209.35312 290.91354 209.35312Q290.3198 209.35312 289.8823 209.68124Q289.30417 210.10312 288.96042 210.91562Q288.6323 211.72812 288.61667 213.22812Q289.05417 212.55624 289.6948 212.22812Q290.35104 211.9 291.05417 211.9Q292.28854 211.9 293.14792 212.80624Q294.0073 213.7125 294.0073 215.15Q294.0073 216.0875 293.60104 216.9Q293.1948 217.7125 292.47604 218.15Q291.77292 218.57187 290.86667 218.57187Q289.33542 218.57187 288.36667 217.44687Q287.39792 216.30624 287.39792 213.7125Q287.39792 210.80624 288.46042 209.47812Q289.39792 208.3375 290.99167 208.3375Q292.17917 208.3375 292.92917 209.00937Q293.67917 209.66562 293.83542 210.8375ZM288.80417 215.15Q288.80417 215.79062 289.0698 216.36874Q289.35104 216.94687 289.83542 217.25937Q290.3198 217.55624 290.85104 217.55624Q291.6323 217.55624 292.1948 216.93124Q292.7573 216.30624 292.7573 215.22812Q292.7573 214.18124 292.1948 213.5875Q291.64792 212.97812 290.80417 212.97812Q289.97604 212.97812 289.3823 213.5875Q288.80417 214.18124 288.80417 215.15Z" fill-rule="nonzero"/><path fill="#000000" d="M356.42432 212.9625Q355.6587 212.68124 355.2837 212.16562Q354.92432 211.65 354.92432 210.91562Q354.92432 209.82187 355.70557 209.0875Q356.50244 208.3375 357.79932 208.3375Q359.11182 208.3375 359.9087 209.10312Q360.7212 209.86874 360.7212 210.9625Q360.7212 211.65 360.3462 212.16562Q359.98682 212.68124 359.23682 212.9625Q360.1587 213.25937 360.64307 213.93124Q361.12744 214.60312 361.12744 215.54062Q361.12744 216.82187 360.2212 217.69687Q359.31494 218.57187 357.83057 218.57187Q356.3462 218.57187 355.42432 217.69687Q354.51807 216.80624 354.51807 215.49374Q354.51807 214.525 355.01807 213.86874Q355.51807 213.19687 356.42432 212.9625ZM356.18994 210.88437Q356.18994 211.5875 356.64307 212.04062Q357.0962 212.49374 357.83057 212.49374Q358.54932 212.49374 359.00244 212.05624Q359.45557 211.60312 359.45557 210.94687Q359.45557 210.275 358.98682 209.82187Q358.51807 209.35312 357.81494 209.35312Q357.11182 209.35312 356.64307 209.80624Q356.18994 210.24374 356.18994 210.88437ZM355.7837 215.50937Q355.7837 216.04062 356.0337 216.54062Q356.2837 217.025 356.76807 217.29062Q357.26807 217.55624 357.8462 217.55624Q358.7212 217.55624 359.2837 216.99374Q359.86182 216.43124 359.86182 215.55624Q359.86182 214.66562 359.26807 214.0875Q358.68994 213.49374 357.79932 213.49374Q356.92432 213.49374 356.3462 214.07187Q355.7837 214.65 355.7837 215.50937Z" fill-rule="nonzero"/><path fill="#000000" d="M422.26318 218.4L421.0288 218.4L421.0288 210.55624Q420.5913 210.97812 419.85693 211.41562Q419.13818 211.8375 418.57568 212.04062L418.57568 210.85312Q419.60693 210.36874 420.37256 209.68124Q421.1538 208.99374 421.4663 208.3375L422.26318 208.3375L422.26318 218.4ZM425.62256 213.4625Q425.62256 211.68124 425.98193 210.60312Q426.35693 209.50937 427.07568 208.93124Q427.79443 208.3375 428.88818 208.3375Q429.70068 208.3375 430.31006 208.66562Q430.91943 208.99374 431.31006 209.60312Q431.7163 210.2125 431.93506 211.0875Q432.1538 211.9625 432.1538 213.4625Q432.1538 215.22812 431.79443 216.30624Q431.43506 217.38437 430.7163 217.97812Q429.99756 218.57187 428.88818 218.57187Q427.45068 218.57187 426.62256 217.525Q425.62256 216.275 425.62256 213.4625ZM426.88818 213.4625Q426.88818 215.93124 427.4663 216.74374Q428.04443 217.55624 428.88818 217.55624Q429.74756 217.55624 430.32568 216.74374Q430.9038 215.91562 430.9038 213.4625Q430.9038 210.97812 430.32568 210.16562Q429.74756 209.35312 428.87256 209.35312Q428.0288 209.35312 427.5288 210.07187Q426.88818 210.99374 426.88818 213.4625Z" fill-rule="nonzero"/><path fill="#000000" d="M489.35208 218.4L488.1177 218.4L488.1177 210.55624Q487.6802 210.97812 486.94583 211.41562Q486.22708 211.8375 485.66458 212.04062L485.66458 210.85312Q486.69583 210.36874 487.46146 209.68124Q488.2427 208.99374 488.5552 208.3375L489.35208 208.3375L489.35208 218.4ZM499.1802 217.2125L499.1802 218.4L492.5552 218.4Q492.53958 217.9625 492.69583 217.54062Q492.96146 216.86874 493.50833 216.2125Q494.07083 215.55624 495.1177 214.69687Q496.75833 213.35312 497.32083 212.57187Q497.89896 211.79062 497.89896 211.0875Q497.89896 210.35312 497.3677 209.85312Q496.85208 209.35312 496.02396 209.35312Q495.13333 209.35312 494.58646 209.88437Q494.0552 210.41562 494.0552 211.36874L492.78958 211.22812Q492.91458 209.82187 493.75833 209.0875Q494.6177 208.3375 496.03958 208.3375Q497.4927 208.3375 498.32083 209.13437Q499.16458 209.93124 499.16458 211.11874Q499.16458 211.72812 498.91458 212.30624Q498.6802 212.88437 498.10208 213.525Q497.53958 214.16562 496.21146 215.29062Q495.10208 216.2125 494.78958 216.55624Q494.47708 216.88437 494.27396 217.2125L499.1802 217.2125Z" fill-rule="nonzero"/><path fill="#000000" d="M556.441 218.4L555.2066 218.4L555.2066 210.55624Q554.7691 210.97812 554.0347 211.41562Q553.316 211.8375 552.7535 212.04062L552.7535 210.85312Q553.7847 210.36874 554.55035 209.68124Q555.3316 208.99374 555.6441 208.3375L556.441 208.3375L556.441 218.4ZM563.7535 218.4L563.7535 215.99374L559.3941 215.99374L559.3941 214.86874L563.9722 208.38437L564.9722 208.38437L564.9722 214.86874L566.3316 214.86874L566.3316 215.99374L564.9722 215.99374L564.9722 218.4L563.7535 218.4ZM563.7535 214.86874L563.7535 210.35312L560.61285 214.86874L563.7535 214.86874Z" fill-rule="nonzero"/><path fill="#000000" d="M623.52985 218.4L622.2955 218.4L622.2955 210.55624Q621.858 210.97812 621.1236 211.41562Q620.40485 211.8375 619.84235 212.04062L619.84235 210.85312Q620.8736 210.36874 621.6392 209.68124Q622.4205 208.99374 622.733 208.3375L623.52985 208.3375L623.52985 218.4ZM633.27985 210.8375L632.0611 210.93124Q631.8892 210.19687 631.59235 209.86874Q631.09235 209.35312 630.358 209.35312Q629.7642 209.35312 629.3267 209.68124Q628.7486 210.10312 628.40485 210.91562Q628.0767 211.72812 628.0611 213.22812Q628.4986 212.55624 629.1392 212.22812Q629.7955 211.9 630.4986 211.9Q631.733 211.9 632.59235 212.80624Q633.4517 213.7125 633.4517 215.15Q633.4517 216.0875 633.0455 216.9Q632.6392 217.7125 631.9205 218.15Q631.21735 218.57187 630.3111 218.57187Q628.77985 218.57187 627.8111 217.44687Q626.84235 216.30624 626.84235 213.7125Q626.84235 210.80624 627.90485 209.47812Q628.84235 208.3375 630.4361 208.3375Q631.6236 208.3375 632.3736 209.00937Q633.1236 209.66562 633.27985 210.8375ZM628.2486 215.15Q628.2486 215.79062 628.5142 216.36874Q628.7955 216.94687 629.27985 217.25937Q629.7642 217.55624 630.2955 217.55624Q631.0767 217.55624 631.6392 216.93124Q632.2017 216.30624 632.2017 215.22812Q632.2017 214.18124 631.6392 213.5875Q631.09235 212.97812 630.2486 212.97812Q629.4205 212.97812 628.8267 213.5875Q628.2486 214.18124 628.2486 215.15Z" fill-rule="nonzero"/><path fill="#000000" d="M690.6188 218.4L689.3844 218.4L689.3844 210.55624Q688.9469 210.97812 688.2125 211.41562Q687.4938 211.8375 686.9313 212.04062L686.9313 210.85312Q687.9625 210.36874 688.72815 209.68124Q689.5094 208.99374 689.8219 208.3375L690.6188 208.3375L690.6188 218.4ZM695.8688 212.9625Q695.10315 212.68124 694.72815 212.16562Q694.3688 211.65 694.3688 210.91562Q694.3688 209.82187 695.15 209.0875Q695.9469 208.3375 697.2438 208.3375Q698.5563 208.3375 699.35315 209.10312Q700.16565 209.86874 700.16565 210.9625Q700.16565 211.65 699.79065 212.16562Q699.4313 212.68124 698.6813 212.9625Q699.60315 213.25937 700.0875 213.93124Q700.5719 214.60312 700.5719 215.54062Q700.5719 216.82187 699.66565 217.69687Q698.7594 218.57187 697.275 218.57187Q695.79065 218.57187 694.8688 217.69687Q693.9625 216.80624 693.9625 215.49374Q693.9625 214.525 694.4625 213.86874Q694.9625 213.19687 695.8688 212.9625ZM695.6344 210.88437Q695.6344 211.5875 696.0875 212.04062Q696.54065 212.49374 697.275 212.49374Q697.9938 212.49374 698.4469 212.05624Q698.9 211.60312 698.9 210.94687Q698.9 210.275 698.4313 209.82187Q697.9625 209.35312 697.2594 209.35312Q696.5563 209.35312 696.0875 209.80624Q695.6344 210.24374 695.6344 210.88437ZM695.22815 215.50937Q695.22815 216.04062 695.47815 216.54062Q695.72815 217.025 696.2125 217.29062Q696.7125 217.55624 697.29065 217.55624Q698.16565 217.55624 698.72815 216.99374Q699.3063 216.43124 699.3063 215.55624Q699.3063 214.66562 698.7125 214.0875Q698.1344 213.49374 697.2438 213.49374Q696.3688 213.49374 695.79065 214.07187Q695.22815 214.65 695.22815 215.50937Z" fill-rule="nonzero"/><path stroke="#30a2ff" stroke-width="4.0" stroke-linecap="butt" d="M216.5 51.666668L228.5 51.666668" fill-rule="nonzero"/><path fill="#1a1a1a" d="M239.4375 56.666668L236.67188 49.401043L237.98438 49.401043L239.53125 53.760418Q239.78125 54.463543 240.0 55.213543Q240.17188 54.635418 240.45312 53.838543L242.07812 49.401043L243.34375 49.401043L240.59375 56.666668L239.4375 56.666668ZM244.53125 56.666668L244.53125 46.651043L245.85938 46.651043L245.85938 55.479168L250.78125 55.479168L250.78125 56.666668L244.53125 56.666668ZM252.53125 56.666668L252.53125 46.651043L253.85938 46.651043L253.85938 55.479168L258.78125 55.479168L258.78125 56.666668L252.53125 56.666668ZM260.54688 56.666668L260.54688 46.651043L262.53125 46.651043L264.90625 53.744793Q265.23438 54.729168 265.39062 55.229168Q265.5625 54.682293 265.92188 53.619793L268.3125 46.651043L270.10938 46.651043L270.10938 56.666668L268.82812 56.666668L268.82812 48.276043L265.90625 56.666668L264.71875 56.666668L261.8125 48.135418L261.8125 56.666668L260.54688 56.666668Z" fill-rule="nonzero"/><path stroke="#6aa84f" stroke-width="4.0" stroke-linecap="butt" d="M286.5 51.666668L298.5 51.666668" fill-rule="nonzero"/><path fill="#1a1a1a" d="M310.125 56.666668L310.125 47.822918L306.82812 47.822918L306.82812 46.651043L314.76562 46.651043L314.76562 47.822918L311.45312 47.822918L311.45312 56.666668L310.125 56.666668ZM321.39062 54.322918L322.67188 54.479168Q322.35938 55.604168 321.54688 56.229168Q320.73438 56.838543 319.46875 56.838543Q317.875 56.838543 316.9375 55.854168Q316.01562 54.869793 316.01562 53.104168Q316.01562 51.260418 316.95312 50.260418Q317.90625 49.244793 319.40625 49.244793Q320.85938 49.244793 321.78125 50.244793Q322.70312 51.229168 322.70312 53.026043Q322.70312 53.135418 322.70312 53.354168L317.28125 53.354168Q317.35938 54.541668 317.95312 55.182293Q318.5625 55.822918 319.48438 55.822918Q320.15625 55.822918 320.625 55.463543Q321.10938 55.104168 321.39062 54.322918ZM317.35938 52.338543L321.40625 52.338543Q321.32812 51.416668 320.9375 50.963543Q320.35938 50.260418 319.42188 50.260418Q318.5625 50.260418 317.98438 50.822918Q317.42188 51.385418 317.35938 52.338543ZM324.42188 56.666668L324.42188 49.401043L325.53125 49.401043L325.53125 50.432293Q326.32812 49.244793 327.84375 49.244793Q328.5 49.244793 329.04688 49.479168Q329.59375 49.713543 329.85938 50.104168Q330.14062 50.479168 330.25 51.010418Q330.32812 51.354168 330.32812 52.197918L330.32812 56.666668L329.09375 56.666668L329.09375 52.244793Q329.09375 51.494793 328.95312 51.135418Q328.8125 50.760418 328.4375 50.541668Q328.07812 50.307293 327.57812 50.307293Q326.79688 50.307293 326.21875 50.807293Q325.65625 51.307293 325.65625 52.697918L325.65625 56.666668L324.42188 56.666668ZM331.9375 54.494793L333.14062 54.307293Q333.25 55.041668 333.71875 55.432293Q334.1875 55.822918 335.03125 55.822918Q335.875 55.822918 336.28125 55.479168Q336.70312 55.135418 336.70312 54.666668Q336.70312 54.244793 336.32812 54.010418Q336.07812 53.838543 335.07812 53.588543Q333.71875 53.244793 333.1875 52.994793Q332.67188 52.744793 332.40625 52.307293Q332.14062 51.869793 332.14062 51.338543Q332.14062 50.854168 332.35938 50.447918Q332.57812 50.026043 332.96875 49.744793Q333.25 49.541668 333.73438 49.401043Q334.23438 49.244793 334.8125 49.244793Q335.65625 49.244793 336.29688 49.494793Q336.95312 49.729168 337.26562 50.151043Q337.57812 50.572918 337.6875 51.276043L336.48438 51.447918Q336.40625 50.885418 336.0 50.572918Q335.60938 50.260418 334.89062 50.260418Q334.04688 50.260418 333.6875 50.541668Q333.32812 50.807293 333.32812 51.197918Q333.32812 51.432293 333.46875 51.619793Q333.625 51.822918 333.95312 51.947918Q334.125 52.010418 335.03125 52.260418Q336.34375 52.619793 336.85938 52.838543Q337.375 53.057293 337.65625 53.479168Q337.95312 53.901043 337.95312 54.526043Q337.95312 55.151043 337.59375 55.697918Q337.25 56.229168 336.5625 56.541668Q335.89062 56.838543 335.03125 56.838543Q333.625 56.838543 332.875 56.244793Q332.14062 55.651043 331.9375 54.494793ZM338.96875 53.041668Q338.96875 51.026043 340.09375 50.041668Q341.01562 49.244793 342.375 49.244793Q343.85938 49.244793 344.8125 50.229168Q345.76562 51.197918 345.76562 52.932293Q345.76562 54.338543 345.34375 55.151043Q344.92188 55.947918 344.10938 56.401043Q343.3125 56.838543 342.375 56.838543Q340.84375 56.838543 339.90625 55.854168Q338.96875 54.869793 338.96875 53.041668ZM340.23438 53.041668Q340.23438 54.432293 340.84375 55.135418Q341.45312 55.822918 342.375 55.822918Q343.28125 55.822918 343.89062 55.119793Q344.5 54.416668 344.5 52.994793Q344.5 51.651043 343.89062 50.963543Q343.28125 50.260418 342.375 50.260418Q341.45312 50.260418 340.84375 50.947918Q340.23438 51.635418 340.23438 53.041668ZM347.40625 56.666668L347.40625 49.401043L348.51562 49.401043L348.51562 50.510418Q348.9375 49.729168 349.29688 49.494793Q349.65625 49.244793 350.09375 49.244793Q350.71875 49.244793 351.35938 49.635418L350.9375 50.776043Q350.48438 50.510418 350.03125 50.510418Q349.625 50.510418 349.29688 50.760418Q348.98438 50.994793 348.84375 51.432293Q348.64062 52.088543 348.64062 52.869793L348.64062 56.666668L347.40625 56.666668ZM352.59375 56.666668L352.59375 46.651043L357.04688 46.651043Q358.39062 46.651043 359.07812 46.916668Q359.78125 47.182293 360.1875 47.869793Q360.60938 48.557293 360.60938 49.385418Q360.60938 50.447918 359.92188 51.182293Q359.23438 51.901043 357.79688 52.104168Q358.3125 52.354168 358.59375 52.604168Q359.17188 53.135418 359.6875 53.932293L361.4375 56.666668L359.76562 56.666668L358.4375 54.588543Q357.85938 53.682293 357.48438 53.213543Q357.10938 52.729168 356.8125 52.541668Q356.51562 52.338543 356.20312 52.260418Q355.98438 52.213543 355.46875 52.213543L353.92188 52.213543L353.92188 56.666668L352.59375 56.666668ZM353.92188 51.072918L356.78125 51.072918Q357.6875 51.072918 358.20312 50.885418Q358.71875 50.697918 358.98438 50.291668Q359.25 49.869793 359.25 49.385418Q359.25 48.666668 358.73438 48.213543Q358.21875 47.744793 357.09375 47.744793L353.92188 47.744793L353.92188 51.072918ZM365.125 56.666668L365.125 47.822918L361.82812 47.822918L361.82812 46.651043L369.76562 46.651043L369.76562 47.822918L366.45312 47.822918L366.45312 56.666668L365.125 56.666668ZM370.9375 53.651043L370.9375 52.416668L374.71875 52.416668L374.71875 53.651043L370.9375 53.651043ZM376.53125 56.666668L376.53125 46.651043L377.85938 46.651043L377.85938 55.479168L382.78125 55.479168L382.78125 56.666668L376.53125 56.666668ZM384.53125 56.666668L384.53125 46.651043L385.85938 46.651043L385.85938 55.479168L390.78125 55.479168L390.78125 56.666668L384.53125 56.666668ZM392.54688 56.666668L392.54688 46.651043L394.53125 46.651043L396.90625 53.744793Q397.23438 54.729168 397.39062 55.229168Q397.5625 54.682293 397.92188 53.619793L400.3125 46.651043L402.10938 46.651043L402.10938 56.666668L400.82812 56.666668L400.82812 48.276043L397.90625 56.666668L396.71875 56.666668L393.8125 48.135418L393.8125 56.666668L392.54688 56.666668Z" fill-rule="nonzero"/><path stroke="#ff6d01" stroke-width="4.0" stroke-linecap="butt" d="M418.5 51.666668L430.5 51.666668" fill-rule="nonzero"/><path fill="#1a1a1a" d="M439.125 53.447918L440.375 53.338543Q440.46875 54.088543 440.79688 54.572918Q441.125 55.057293 441.79688 55.354168Q442.48438 55.651043 443.34375 55.651043Q444.09375 55.651043 444.67188 55.432293Q445.26562 55.197918 445.54688 54.807293Q445.82812 54.416668 445.82812 53.947918Q445.82812 53.479168 445.54688 53.135418Q445.28125 52.776043 444.65625 52.526043Q444.25 52.369793 442.85938 52.041668Q441.48438 51.713543 440.9375 51.416668Q440.21875 51.041668 439.85938 50.494793Q439.51562 49.932293 439.51562 49.229168Q439.51562 48.479168 439.9375 47.822918Q440.375 47.151043 441.20312 46.822918Q442.03125 46.479168 443.04688 46.479168Q444.15625 46.479168 445.0 46.838543Q445.85938 47.197918 446.3125 47.901043Q446.76562 48.588543 446.8125 49.463543L445.53125 49.557293Q445.4375 48.619793 444.84375 48.135418Q444.25 47.635418 443.09375 47.635418Q441.89062 47.635418 441.34375 48.088543Q440.79688 48.526043 440.79688 49.151043Q440.79688 49.682293 441.1875 50.041668Q441.5625 50.385418 443.17188 50.760418Q444.79688 51.119793 445.39062 51.385418Q446.26562 51.791668 446.6875 52.416668Q447.10938 53.026043 447.10938 53.838543Q447.10938 54.635418 446.64062 55.354168Q446.1875 56.057293 445.32812 56.447918Q444.46875 56.838543 443.40625 56.838543Q442.04688 56.838543 441.125 56.447918Q440.20312 56.041668 439.67188 55.244793Q439.15625 54.447918 439.125 53.447918ZM453.26562 52.729168L453.26562 51.557293L457.51562 51.557293L457.51562 55.276043Q456.53125 56.057293 455.48438 56.447918Q454.45312 56.838543 453.35938 56.838543Q451.89062 56.838543 450.67188 56.213543Q449.46875 55.572918 448.85938 54.385418Q448.25 53.182293 448.25 51.697918Q448.25 50.244793 448.85938 48.979168Q449.46875 47.697918 450.60938 47.088543Q451.76562 46.479168 453.26562 46.479168Q454.34375 46.479168 455.21875 46.838543Q456.10938 47.182293 456.60938 47.807293Q457.10938 48.432293 457.35938 49.447918L456.17188 49.776043Q455.9375 49.010418 455.59375 48.572918Q455.26562 48.135418 454.64062 47.869793Q454.03125 47.604168 453.26562 47.604168Q452.35938 47.604168 451.6875 47.885418Q451.03125 48.166668 450.625 48.619793Q450.21875 49.057293 450.0 49.604168Q449.60938 50.541668 449.60938 51.619793Q449.60938 52.963543 450.0625 53.869793Q450.53125 54.760418 451.40625 55.197918Q452.29688 55.635418 453.29688 55.635418Q454.15625 55.635418 454.96875 55.307293Q455.79688 54.979168 456.21875 54.604168L456.21875 52.729168L453.26562 52.729168ZM459.53125 56.666668L459.53125 46.651043L460.85938 46.651043L460.85938 55.479168L465.78125 55.479168L465.78125 56.666668L459.53125 56.666668ZM472.15625 55.776043Q471.48438 56.354168 470.84375 56.604168Q470.21875 56.838543 469.48438 56.838543Q468.29688 56.838543 467.64062 56.260418Q467.0 55.666668 467.0 54.744793Q467.0 54.213543 467.23438 53.776043Q467.48438 53.338543 467.875 53.072918Q468.28125 52.807293 468.76562 52.666668Q469.125 52.572918 469.85938 52.479168Q471.35938 52.307293 472.0625 52.057293Q472.0625 51.807293 472.0625 51.744793Q472.0625 50.979168 471.71875 50.682293Q471.25 50.260418 470.3125 50.260418Q469.45312 50.260418 469.03125 50.572918Q468.625 50.869793 468.42188 51.635418L467.21875 51.479168Q467.375 50.697918 467.75 50.229168Q468.14062 49.760418 468.84375 49.510418Q469.5625 49.244793 470.5 49.244793Q471.42188 49.244793 472.0 49.463543Q472.57812 49.682293 472.84375 50.010418Q473.125 50.338543 473.23438 50.854168Q473.29688 51.166668 473.29688 51.979168L473.29688 53.619793Q473.29688 55.338543 473.375 55.791668Q473.45312 56.244793 473.6875 56.666668L472.40625 56.666668Q472.21875 56.276043 472.15625 55.776043ZM472.0625 53.026043Q471.39062 53.291668 470.04688 53.494793Q469.29688 53.604168 468.96875 53.744793Q468.65625 53.869793 468.48438 54.135418Q468.3125 54.401043 468.3125 54.713543Q468.3125 55.213543 468.6875 55.541668Q469.0625 55.869793 469.78125 55.869793Q470.5 55.869793 471.04688 55.557293Q471.59375 55.244793 471.85938 54.697918Q472.0625 54.291668 472.0625 53.479168L472.0625 53.026043ZM475.42188 56.666668L475.42188 49.401043L476.53125 49.401043L476.53125 50.432293Q477.32812 49.244793 478.84375 49.244793Q479.5 49.244793 480.04688 49.479168Q480.59375 49.713543 480.85938 50.104168Q481.14062 50.479168 481.25 51.010418Q481.32812 51.354168 481.32812 52.197918L481.32812 56.666668L480.09375 56.666668L480.09375 52.244793Q480.09375 51.494793 479.95312 51.135418Q479.8125 50.760418 479.4375 50.541668Q479.07812 50.307293 478.57812 50.307293Q477.79688 50.307293 477.21875 50.807293Q476.65625 51.307293 476.65625 52.697918L476.65625 56.666668L475.42188 56.666668ZM483.20312 57.276043L484.39062 57.447918Q484.46875 57.994793 484.8125 58.260418Q485.26562 58.588543 486.0625 58.588543Q486.92188 58.588543 487.375 58.244793Q487.84375 57.916668 488.01562 57.291668Q488.10938 56.916668 488.09375 55.713543Q487.29688 56.666668 486.09375 56.666668Q484.59375 56.666668 483.76562 55.588543Q482.95312 54.510418 482.95312 52.994793Q482.95312 51.963543 483.32812 51.088543Q483.70312 50.197918 484.40625 49.729168Q485.125 49.244793 486.09375 49.244793Q487.375 49.244793 488.21875 50.276043L488.21875 49.401043L489.34375 49.401043L489.34375 55.682293Q489.34375 57.385418 489.0 58.088543Q488.65625 58.791668 487.90625 59.197918Q487.15625 59.619793 486.0625 59.619793Q484.76562 59.619793 483.96875 59.026043Q483.17188 58.447918 483.20312 57.276043ZM484.21875 52.901043Q484.21875 54.338543 484.78125 54.994793Q485.34375 55.651043 486.20312 55.651043Q487.04688 55.651043 487.625 54.994793Q488.20312 54.338543 488.20312 52.947918Q488.20312 51.619793 487.60938 50.947918Q487.01562 50.260418 486.1875 50.260418Q485.35938 50.260418 484.78125 50.932293Q484.21875 51.588543 484.21875 52.901043Z" fill-rule="nonzero"/><path fill="#757575" d="M14.9125 30.6L14.9125 17.709375L16.63125 17.709375L16.63125 29.084375L22.975 29.084375L22.975 30.6L14.9125 30.6ZM24.75625 30.6L24.75625 17.709375L26.334375 17.709375L26.334375 30.6L24.75625 30.6ZM34.88125 29.44375Q34.00625 30.19375 33.178123 30.50625Q32.365623 30.81875 31.44375 30.81875Q29.896875 30.81875 29.06875 30.06875Q28.25625 29.303125 28.25625 28.13125Q28.25625 27.459375 28.56875 26.896875Q28.88125 26.31875 29.38125 25.975Q29.88125 25.63125 30.521875 25.459375Q30.990625 25.334375 31.928125 25.225Q33.834373 24.990625 34.740623 24.678125Q34.75625 24.35 34.75625 24.25625Q34.75625 23.303125 34.303123 22.896875Q33.69375 22.365625 32.50625 22.365625Q31.38125 22.365625 30.85 22.75625Q30.31875 23.146875 30.06875 24.146875L28.521875 23.928125Q28.740625 22.928125 29.209375 22.31875Q29.69375 21.709375 30.6 21.38125Q31.521875 21.053125 32.740623 21.053125Q33.928123 21.053125 34.678123 21.334375Q35.428123 21.615625 35.771873 22.053125Q36.13125 22.475 36.271873 23.115625Q36.35 23.521875 36.35 24.584375L36.35 26.69375Q36.35 28.896875 36.44375 29.490625Q36.553123 30.06875 36.85 30.6L35.19375 30.6Q34.94375 30.1 34.88125 29.44375ZM34.740623 25.9125Q33.88125 26.271875 32.1625 26.50625Q31.19375 26.646875 30.7875 26.834375Q30.38125 27.00625 30.1625 27.35Q29.94375 27.678125 29.94375 28.1Q29.94375 28.725 30.4125 29.146875Q30.896875 29.56875 31.81875 29.56875Q32.740623 29.56875 33.44375 29.178125Q34.1625 28.771875 34.490623 28.084375Q34.740623 27.5375 34.740623 26.490625L34.740623 25.9125ZM38.7875 30.6L38.7875 21.271875L40.209373 21.271875L40.209373 22.56875Q40.646873 21.896875 41.365623 21.475Q42.1 21.053125 43.0375 21.053125Q44.06875 21.053125 44.725 21.490625Q45.396873 21.9125 45.6625 22.69375Q46.771873 21.053125 48.553123 21.053125Q49.94375 21.053125 50.678123 21.834375Q51.428123 22.6 51.428123 24.19375L51.428123 30.6L49.865623 30.6L49.865623 24.725Q49.865623 23.771875 49.709373 23.35Q49.553123 22.928125 49.146873 22.678125Q48.740623 22.428125 48.19375 22.428125Q47.209373 22.428125 46.553123 23.084375Q45.9125 23.740625 45.9125 25.178125L45.9125 30.6L44.334373 30.6L44.334373 24.5375Q44.334373 23.475 43.94375 22.959375Q43.553123 22.428125 42.678123 22.428125Q42.00625 22.428125 41.44375 22.7875Q40.88125 23.13125 40.615623 23.803125Q40.365623 24.475 40.365623 25.75625L40.365623 30.6L38.7875 30.6ZM58.88125 29.44375Q58.00625 30.19375 57.178123 30.50625Q56.365623 30.81875 55.44375 30.81875Q53.896873 30.81875 53.06875 30.06875Q52.25625 29.303125 52.25625 28.13125Q52.25625 27.459375 52.56875 26.896875Q52.88125 26.31875 53.38125 25.975Q53.88125 25.63125 54.521873 25.459375Q54.990623 25.334375 55.928123 25.225Q57.834373 24.990625 58.740623 24.678125Q58.75625 24.35 58.75625 24.25625Q58.75625 23.303125 58.303123 22.896875Q57.69375 22.365625 56.50625 22.365625Q55.38125 22.365625 54.85 22.75625Q54.31875 23.146875 54.06875 24.146875L52.521873 23.928125Q52.740623 22.928125 53.209373 22.31875Q53.69375 21.709375 54.6 21.38125Q55.521873 21.053125 56.740623 21.053125Q57.928123 21.053125 58.678123 21.334375Q59.428123 21.615625 59.771873 22.053125Q60.13125 22.475 60.271873 23.115625Q60.35 23.521875 60.35 24.584375L60.35 26.69375Q60.35 28.896875 60.44375 29.490625Q60.553123 30.06875 60.85 30.6L59.19375 30.6Q58.94375 30.1 58.88125 29.44375ZM58.740623 25.9125Q57.88125 26.271875 56.1625 26.50625Q55.19375 26.646875 54.7875 26.834375Q54.38125 27.00625 54.1625 27.35Q53.94375 27.678125 53.94375 28.1Q53.94375 28.725 54.4125 29.146875Q54.896873 29.56875 55.81875 29.56875Q56.740623 29.56875 57.44375 29.178125Q58.1625 28.771875 58.490623 28.084375Q58.740623 27.5375 58.740623 26.490625L58.740623 25.9125ZM62.178123 26.725L62.178123 25.146875L67.0375 25.146875L67.0375 26.725L62.178123 26.725ZM73.4125 30.6L73.4125 27.521875L67.83437 27.521875L67.83437 26.06875L73.70937 17.709375L75.00625 17.709375L75.00625 26.06875L76.74062 26.06875L76.74062 27.521875L75.00625 27.521875L75.00625 30.6L73.4125 30.6ZM73.4125 26.06875L73.4125 20.25625L69.38125 26.06875L73.4125 26.06875ZM78.35 24.240625Q78.35 21.959375 78.81875 20.56875Q79.2875 19.178125 80.20937 18.428125Q81.14687 17.6625 82.55312 17.6625Q83.58437 17.6625 84.36562 18.084375Q85.14687 18.490625 85.64687 19.2875Q86.1625 20.06875 86.45937 21.209375Q86.75625 22.334375 86.75625 24.240625Q86.75625 26.50625 86.2875 27.9125Q85.81875 29.303125 84.88125 30.06875Q83.95937 30.81875 82.55312 30.81875Q80.67812 30.81875 79.61562 29.490625Q78.35 27.88125 78.35 24.240625ZM79.975 24.240625Q79.975 27.4125 80.70937 28.475Q81.45937 29.521875 82.55312 29.521875Q83.63125 29.521875 84.38125 28.475Q85.13125 27.4125 85.13125 24.240625Q85.13125 21.06875 84.38125 20.021875Q83.63125 18.975 82.5375 18.975Q81.44375 18.975 80.7875 19.896875Q79.975 21.06875 79.975 24.240625ZM88.35 27.225L90.00625 27.084375Q90.19375 28.303125 90.86562 28.9125Q91.5375 29.521875 92.49062 29.521875Q93.63125 29.521875 94.4125 28.6625Q95.20937 27.803125 95.20937 26.365625Q95.20937 25.021875 94.44375 24.240625Q93.69375 23.459375 92.45937 23.459375Q91.69375 23.459375 91.06875 23.803125Q90.45937 24.146875 90.11562 24.709375L88.63125 24.50625L89.88125 17.896875L96.2875 17.896875L96.2875 19.396875L91.14687 19.396875L90.44375 22.865625Q91.61562 22.053125 92.88125 22.053125Q94.56875 22.053125 95.725 23.225Q96.89687 24.396875 96.89687 26.225Q96.89687 27.975 95.86562 29.25625Q94.63125 30.81875 92.49062 30.81875Q90.725 30.81875 89.61562 29.834375Q88.50625 28.85 88.35 27.225ZM98.9125 30.6L98.9125 17.709375L103.75625 17.709375Q105.225 17.709375 106.11562 18.1Q107.00625 18.490625 107.50625 19.303125Q108.02187 20.115625 108.02187 21.00625Q108.02187 21.834375 107.56875 22.56875Q107.13125 23.303125 106.225 23.740625Q107.39687 24.084375 108.02187 24.9125Q108.64687 25.740625 108.64687 26.865625Q108.64687 27.771875 108.25625 28.553125Q107.88125 29.31875 107.31875 29.740625Q106.75625 30.1625 105.9125 30.38125Q105.06875 30.6 103.83437 30.6L98.9125 30.6ZM100.63125 23.13125L103.4125 23.13125Q104.5375 23.13125 105.0375 22.975Q105.69375 22.7875 106.02187 22.35Q106.35 21.896875 106.35 21.209375Q106.35 20.56875 106.0375 20.084375Q105.725 19.6 105.14687 19.428125Q104.58437 19.240625 103.19375 19.240625L100.63125 19.240625L100.63125 23.13125ZM100.63125 29.084375L103.83437 29.084375Q104.6625 29.084375 104.99062 29.021875Q105.58437 28.9125 105.975 28.6625Q106.36562 28.4125 106.61562 27.94375Q106.88125 27.475 106.88125 26.865625Q106.88125 26.146875 106.50625 25.615625Q106.14687 25.084375 105.49062 24.865625Q104.83437 24.646875 103.6 24.646875L100.63125 24.646875L100.63125 29.084375ZM118.80312 34.38125Q117.50625 32.740623 116.6 30.521875Q115.69375 28.303125 115.69375 25.928125Q115.69375 23.834375 116.36562 21.928125Q117.1625 19.69375 118.80312 17.490625L119.94375 17.490625Q118.88125 19.31875 118.5375 20.1Q118.00625 21.31875 117.69375 22.63125Q117.31875 24.2875 117.31875 25.94375Q117.31875 30.1625 119.94375 34.38125L118.80312 34.38125ZM122.1625 30.6L122.1625 22.490625L120.77187 22.490625L120.77187 21.271875L122.1625 21.271875L122.1625 20.271875Q122.1625 19.334375 122.33437 18.88125Q122.55312 18.25625 123.13125 17.88125Q123.70937 17.490625 124.75625 17.490625Q125.4125 17.490625 126.225 17.646875L125.99062 19.0375Q125.49062 18.94375 125.05312 18.94375Q124.33437 18.94375 124.0375 19.25625Q123.74062 19.553125 123.74062 20.396875L123.74062 21.271875L125.55312 21.271875L125.55312 22.490625L123.74062 22.490625L123.74062 30.6L122.1625 30.6ZM126.7875 34.178123L126.7875 21.271875L128.225 21.271875L128.225 22.475Q128.74063 21.771875 129.38126 21.4125Q130.02188 21.053125 130.92813 21.053125Q132.13126 21.053125 133.0375 21.678125Q133.95938 22.2875 134.42813 23.4125Q134.89688 24.521875 134.89688 25.865625Q134.89688 27.2875 134.38126 28.44375Q133.86563 29.584375 132.88126 30.209375Q131.89688 30.81875 130.81876 30.81875Q130.0375 30.81875 129.39688 30.490625Q128.77188 30.146875 128.36563 29.63125L128.36563 34.178123L126.7875 34.178123ZM128.225 25.990625Q128.225 27.7875 128.94376 28.646875Q129.67813 29.50625 130.70938 29.50625Q131.77188 29.50625 132.52188 28.615625Q133.27188 27.725 133.27188 25.85Q133.27188 24.06875 132.5375 23.178125Q131.80313 22.2875 130.7875 22.2875Q129.77188 22.2875 128.99063 23.240625Q128.225 24.178125 128.225 25.990625ZM138.7875 23.615625Q137.80313 23.25625 137.31876 22.584375Q136.85 21.9125 136.85 20.990625Q136.85 19.584375 137.85 18.63125Q138.86563 17.6625 140.55313 17.6625Q142.24063 17.6625 143.25626 18.646875Q144.2875 19.615625 144.2875 21.021875Q144.2875 21.928125 143.81876 22.6Q143.35 23.25625 142.39688 23.615625Q143.58438 24.00625 144.19376 24.865625Q144.81876 25.725 144.81876 26.9125Q144.81876 28.56875 143.64688 29.69375Q142.475 30.81875 140.56876 30.81875Q138.6625 30.81875 137.49063 29.69375Q136.33438 28.553125 136.33438 26.865625Q136.33438 25.615625 136.95938 24.771875Q137.6 23.9125 138.7875 23.615625ZM138.45938 20.928125Q138.45938 21.85 139.05313 22.428125Q139.64688 23.00625 140.58438 23.00625Q141.49063 23.00625 142.06876 22.428125Q142.6625 21.85 142.6625 21.021875Q142.6625 20.146875 142.05313 19.553125Q141.45938 18.959375 140.56876 18.959375Q139.6625 18.959375 139.05313 19.5375Q138.45938 20.115625 138.45938 20.928125ZM137.95938 26.88125Q137.95938 27.553125 138.27188 28.19375Q138.6 28.81875 139.225 29.178125Q139.86563 29.521875 140.6 29.521875Q141.725 29.521875 142.45938 28.7875Q143.20938 28.053125 143.20938 26.928125Q143.20938 25.7875 142.44376 25.053125Q141.67813 24.303125 140.5375 24.303125Q139.42813 24.303125 138.69376 25.0375Q137.95938 25.771875 137.95938 26.88125ZM147.81876 34.38125L146.69376 34.38125Q149.31876 30.1625 149.31876 25.94375Q149.31876 24.2875 148.94376 22.6625Q148.64688 21.35 148.1 20.13125Q147.75626 19.334375 146.69376 17.490625L147.81876 17.490625Q149.475 19.69375 150.27188 21.928125Q150.94376 23.834375 150.94376 25.928125Q150.94376 28.303125 150.0375 30.521875Q149.13126 32.740623 147.81876 34.38125ZM157.19376 25.928125Q157.19376 23.334375 158.64688 22.084375Q159.85 21.053125 161.56876 21.053125Q163.50626 21.053125 164.725 22.31875Q165.94376 23.584375 165.94376 25.803125Q165.94376 27.6 165.39688 28.63125Q164.86563 29.6625 163.83438 30.240625Q162.80313 30.81875 161.56876 30.81875Q159.61563 30.81875 158.39688 29.56875Q157.19376 28.303125 157.19376 25.928125ZM158.81876 25.928125Q158.81876 27.725 159.6 28.615625Q160.38126 29.50625 161.56876 29.50625Q162.75626 29.50625 163.5375 28.615625Q164.31876 27.709375 164.31876 25.88125Q164.31876 24.146875 163.52188 23.25625Q162.74063 22.365625 161.56876 22.365625Q160.38126 22.365625 159.6 23.25625Q158.81876 24.146875 158.81876 25.928125ZM167.7875 30.6L167.7875 21.271875L169.20938 21.271875L169.20938 22.6Q170.24063 21.053125 172.17813 21.053125Q173.02188 21.053125 173.725 21.365625Q174.44376 21.6625 174.7875 22.1625Q175.14688 22.646875 175.2875 23.31875Q175.36563 23.75625 175.36563 24.865625L175.36563 30.6L173.7875 30.6L173.7875 24.928125Q173.7875 23.959375 173.6 23.475Q173.42813 22.990625 172.94376 22.709375Q172.475 22.428125 171.85 22.428125Q170.83438 22.428125 170.1 23.06875Q169.36563 23.709375 169.36563 25.50625L169.36563 30.6L167.7875 30.6ZM184.7875 23.615625Q183.80313 23.25625 183.31876 22.584375Q182.85 21.9125 182.85 20.990625Q182.85 19.584375 183.85 18.63125Q184.86563 17.6625 186.55313 17.6625Q188.24063 17.6625 189.25626 18.646875Q190.2875 19.615625 190.2875 21.021875Q190.2875 21.928125 189.81876 22.6Q189.35 23.25625 188.39688 23.615625Q189.58438 24.00625 190.19376 24.865625Q190.81876 25.725 190.81876 26.9125Q190.81876 28.56875 189.64688 29.69375Q188.475 30.81875 186.56876 30.81875Q184.6625 30.81875 183.49063 29.69375Q182.33438 28.553125 182.33438 26.865625Q182.33438 25.615625 182.95938 24.771875Q183.6 23.9125 184.7875 23.615625ZM184.45938 20.928125Q184.45938 21.85 185.05313 22.428125Q185.64688 23.00625 186.58438 23.00625Q187.49063 23.00625 188.06876 22.428125Q188.6625 21.85 188.6625 21.021875Q188.6625 20.146875 188.05313 19.553125Q187.45938 18.959375 186.56876 18.959375Q185.6625 18.959375 185.05313 19.5375Q184.45938 20.115625 184.45938 20.928125ZM183.95938 26.88125Q183.95938 27.553125 184.27188 28.19375Q184.6 28.81875 185.225 29.178125Q185.86563 29.521875 186.6 29.521875Q187.725 29.521875 188.45938 28.7875Q189.20938 28.053125 189.20938 26.928125Q189.20938 25.7875 188.44376 25.053125Q187.67813 24.303125 186.5375 24.303125Q185.42813 24.303125 184.69376 25.0375Q183.95938 25.771875 183.95938 26.88125ZM196.725 30.6L200.14688 25.740625L196.99063 21.271875L198.95938 21.271875L200.39688 23.459375Q200.80313 24.084375 201.05313 24.50625Q201.42813 23.9125 201.75626 23.475L203.33438 21.271875L205.225 21.271875L201.99063 25.6625L205.475 30.6L203.52188 30.6L201.61563 27.69375L201.1 26.9125L198.64688 30.6L196.725 30.6ZM211.0375 30.6L211.0375 17.709375L212.74063 17.709375L212.74063 23.00625L219.44376 23.00625L219.44376 17.709375L221.14688 17.709375L221.14688 30.6L219.44376 30.6L219.44376 24.521875L212.74063 24.521875L212.74063 30.6L211.0375 30.6ZM229.30313 30.6L227.725 30.6L227.725 20.521875Q227.14688 21.06875 226.225 21.615625Q225.30313 22.146875 224.55313 22.428125L224.55313 20.896875Q225.88126 20.271875 226.88126 19.38125Q227.88126 18.490625 228.2875 17.6625L229.30313 17.6625L229.30313 30.6ZM233.35 24.240625Q233.35 21.959375 233.81876 20.56875Q234.2875 19.178125 235.20938 18.428125Q236.14688 17.6625 237.55313 17.6625Q238.58438 17.6625 239.36563 18.084375Q240.14688 18.490625 240.64688 19.2875Q241.1625 20.06875 241.45938 21.209375Q241.75626 22.334375 241.75626 24.240625Q241.75626 26.50625 241.2875 27.9125Q240.81876 29.303125 239.88126 30.06875Q238.95938 30.81875 237.55313 30.81875Q235.67813 30.81875 234.61563 29.490625Q233.35 27.88125 233.35 24.240625ZM234.975 24.240625Q234.975 27.4125 235.70938 28.475Q236.45938 29.521875 237.55313 29.521875Q238.63126 29.521875 239.38126 28.475Q240.13126 27.4125 240.13126 24.240625Q240.13126 21.06875 239.38126 20.021875Q238.63126 18.975 237.5375 18.975Q236.44376 18.975 235.7875 19.896875Q234.975 21.06875 234.975 24.240625ZM243.35 24.240625Q243.35 21.959375 243.81876 20.56875Q244.2875 19.178125 245.20938 18.428125Q246.14688 17.6625 247.55313 17.6625Q248.58438 17.6625 249.36563 18.084375Q250.14688 18.490625 250.64688 19.2875Q251.1625 20.06875 251.45938 21.209375Q251.75626 22.334375 251.75626 24.240625Q251.75626 26.50625 251.2875 27.9125Q250.81876 29.303125 249.88126 30.06875Q248.95938 30.81875 247.55313 30.81875Q245.67813 30.81875 244.61563 29.490625Q243.35 27.88125 243.35 24.240625ZM244.975 24.240625Q244.975 27.4125 245.70938 28.475Q246.45938 29.521875 247.55313 29.521875Q248.63126 29.521875 249.38126 28.475Q250.13126 27.4125 250.13126 24.240625Q250.13126 21.06875 249.38126 20.021875Q248.63126 18.975 247.5375 18.975Q246.44376 18.975 245.7875 19.896875Q244.975 21.06875 244.975 24.240625ZM254.24063 30.6L254.24063 28.803125L256.0375 28.803125L256.0375 30.6L254.24063 30.6ZM263.9125 30.6L263.9125 17.709375L265.63126 17.709375L265.63126 29.084375L271.975 29.084375L271.975 30.6L263.9125 30.6ZM273.19376 25.928125Q273.19376 23.334375 274.64688 22.084375Q275.85 21.053125 277.56876 21.053125Q279.50626 21.053125 280.725 22.31875Q281.94376 23.584375 281.94376 25.803125Q281.94376 27.6 281.39688 28.63125Q280.86563 29.6625 279.83438 30.240625Q278.80313 30.81875 277.56876 30.81875Q275.61563 30.81875 274.39688 29.56875Q273.19376 28.303125 273.19376 25.928125ZM274.81876 25.928125Q274.81876 27.725 275.6 28.615625Q276.38126 29.50625 277.56876 29.50625Q278.75626 29.50625 279.5375 28.615625Q280.31876 27.709375 280.31876 25.88125Q280.31876 24.146875 279.52188 23.25625Q278.74063 22.365625 277.56876 22.365625Q276.38126 22.365625 275.6 23.25625Q274.81876 24.146875 274.81876 25.928125ZM285.50626 30.6L282.64688 21.271875L284.2875 21.271875L285.77188 26.646875L286.33438 28.6625Q286.36563 28.50625 286.80313 26.725L288.30313 21.271875L289.92813 21.271875L291.31876 26.678125L291.7875 28.459375L292.31876 26.6625L293.92813 21.271875L295.45938 21.271875L292.5375 30.6L290.89688 30.6L289.4125 25.00625L289.05313 23.4125L287.1625 30.6L285.50626 30.6ZM303.17813 27.6L304.81876 27.803125Q304.42813 29.225 303.38126 30.021875Q302.33438 30.81875 300.70938 30.81875Q298.6625 30.81875 297.45938 29.553125Q296.25626 28.2875 296.25626 26.00625Q296.25626 23.6625 297.45938 22.365625Q298.67813 21.053125 300.61563 21.053125Q302.49063 21.053125 303.67813 22.334375Q304.86563 23.6 304.86563 25.9125Q304.86563 26.053125 304.85 26.334375L297.89688 26.334375Q297.975 27.88125 298.75626 28.69375Q299.55313 29.50625 300.70938 29.50625Q301.58438 29.50625 302.19376 29.053125Q302.81876 28.6 303.17813 27.6ZM297.975 25.0375L303.19376 25.0375Q303.08438 23.865625 302.6 23.271875Q301.83438 22.35 300.63126 22.35Q299.55313 22.35 298.80313 23.084375Q298.06876 23.81875 297.975 25.0375ZM306.77188 30.6L306.77188 21.271875L308.19376 21.271875L308.19376 22.678125Q308.74063 21.69375 309.19376 21.38125Q309.6625 21.053125 310.20938 21.053125Q311.02188 21.053125 311.83438 21.56875L311.30313 23.0375Q310.70938 22.69375 310.13126 22.69375Q309.61563 22.69375 309.19376 23.00625Q308.7875 23.31875 308.61563 23.865625Q308.35 24.709375 308.35 25.709375L308.35 30.6L306.77188 30.6ZM317.9125 30.6L317.9125 17.709375L319.63126 17.709375L319.63126 29.084375L325.975 29.084375L325.975 30.6L317.9125 30.6ZM333.88126 29.44375Q333.00626 30.19375 332.17813 30.50625Q331.36563 30.81875 330.44376 30.81875Q328.89688 30.81875 328.06876 30.06875Q327.25626 29.303125 327.25626 28.13125Q327.25626 27.459375 327.56876 26.896875Q327.88126 26.31875 328.38126 25.975Q328.88126 25.63125 329.52188 25.459375Q329.99063 25.334375 330.92813 25.225Q332.83438 24.990625 333.74063 24.678125Q333.75626 24.35 333.75626 24.25625Q333.75626 23.303125 333.30313 22.896875Q332.69376 22.365625 331.50626 22.365625Q330.38126 22.365625 329.85 22.75625Q329.31876 23.146875 329.06876 24.146875L327.52188 23.928125Q327.74063 22.928125 328.20938 22.31875Q328.69376 21.709375 329.6 21.38125Q330.52188 21.053125 331.74063 21.053125Q332.92813 21.053125 333.67813 21.334375Q334.42813 21.615625 334.77188 22.053125Q335.13126 22.475 335.27188 23.115625Q335.35 23.521875 335.35 24.584375L335.35 26.69375Q335.35 28.896875 335.44376 29.490625Q335.55313 30.06875 335.85 30.6L334.19376 30.6Q333.94376 30.1 333.88126 29.44375ZM333.74063 25.9125Q332.88126 26.271875 331.1625 26.50625Q330.19376 26.646875 329.7875 26.834375Q329.38126 27.00625 329.1625 27.35Q328.94376 27.678125 328.94376 28.1Q328.94376 28.725 329.4125 29.146875Q329.89688 29.56875 330.81876 29.56875Q331.74063 29.56875 332.44376 29.178125Q333.1625 28.771875 333.49063 28.084375Q333.74063 27.5375 333.74063 26.490625L333.74063 25.9125ZM341.24063 29.178125L341.475 30.584375Q340.80313 30.725 340.27188 30.725Q339.4125 30.725 338.92813 30.459375Q338.45938 30.178125 338.27188 29.740625Q338.08438 29.2875 338.08438 27.865625L338.08438 22.490625L336.9125 22.490625L336.9125 21.271875L338.08438 21.271875L338.08438 18.959375L339.64688 18.00625L339.64688 21.271875L341.24063 21.271875L341.24063 22.490625L339.64688 22.490625L339.64688 27.959375Q339.64688 28.63125 339.725 28.834375Q339.81876 29.021875 340.00626 29.13125Q340.19376 29.240625 340.55313 29.240625Q340.80313 29.240625 341.24063 29.178125ZM349.17813 27.6L350.81876 27.803125Q350.42813 29.225 349.38126 30.021875Q348.33438 30.81875 346.70938 30.81875Q344.6625 30.81875 343.45938 29.553125Q342.25626 28.2875 342.25626 26.00625Q342.25626 23.6625 343.45938 22.365625Q344.67813 21.053125 346.61563 21.053125Q348.49063 21.053125 349.67813 22.334375Q350.86563 23.6 350.86563 25.9125Q350.86563 26.053125 350.85 26.334375L343.89688 26.334375Q343.975 27.88125 344.75626 28.69375Q345.55313 29.50625 346.70938 29.50625Q347.58438 29.50625 348.19376 29.053125Q348.81876 28.6 349.17813 27.6ZM343.975 25.0375L349.19376 25.0375Q349.08438 23.865625 348.6 23.271875Q347.83438 22.35 346.63126 22.35Q345.55313 22.35 344.80313 23.084375Q344.06876 23.81875 343.975 25.0375ZM352.7875 30.6L352.7875 21.271875L354.20938 21.271875L354.20938 22.6Q355.24063 21.053125 357.17813 21.053125Q358.02188 21.053125 358.725 21.365625Q359.44376 21.6625 359.7875 22.1625Q360.14688 22.646875 360.2875 23.31875Q360.36563 23.75625 360.36563 24.865625L360.36563 30.6L358.7875 30.6L358.7875 24.928125Q358.7875 23.959375 358.6 23.475Q358.42813 22.990625 357.94376 22.709375Q357.475 22.428125 356.85 22.428125Q355.83438 22.428125 355.1 23.06875Q354.36563 23.709375 354.36563 25.50625L354.36563 30.6L352.7875 30.6ZM368.88126 27.178125L370.42813 27.38125Q370.17813 28.990625 369.13126 29.9125Q368.08438 30.81875 366.55313 30.81875Q364.63126 30.81875 363.45938 29.56875Q362.30313 28.303125 362.30313 25.975Q362.30313 24.459375 362.80313 23.334375Q363.30313 22.19375 364.31876 21.63125Q365.35 21.053125 366.55313 21.053125Q368.08438 21.053125 369.0375 21.834375Q370.00626 22.6 370.2875 24.00625L368.74063 24.240625Q368.52188 23.303125 367.95938 22.834375Q367.4125 22.35 366.61563 22.35Q365.42813 22.35 364.67813 23.209375Q363.92813 24.06875 363.92813 25.928125Q363.92813 27.803125 364.64688 28.6625Q365.36563 29.50625 366.5375 29.50625Q367.45938 29.50625 368.08438 28.94375Q368.70938 28.365625 368.88126 27.178125ZM371.70938 34.19375L371.5375 32.709373Q372.05313 32.85 372.44376 32.85Q372.975 32.85 373.2875 32.678123Q373.6 32.50625 373.80313 32.178123Q373.95938 31.94375 374.2875 31.00625Q374.33438 30.865625 374.42813 30.615625L370.89688 21.271875L372.6 21.271875L374.5375 26.678125Q374.9125 27.69375 375.20938 28.834375Q375.49063 27.740625 375.86563 26.709375L377.86563 21.271875L379.44376 21.271875L375.89688 30.75625Q375.31876 32.303123 375.00626 32.88125Q374.58438 33.6625 374.0375 34.021873Q373.49063 34.38125 372.74063 34.38125Q372.27188 34.38125 371.70938 34.19375ZM385.80313 19.5375L385.80313 17.709375L387.38126 17.709375L387.38126 19.5375L385.80313 19.5375ZM385.80313 30.6L385.80313 21.271875L387.38126 21.271875L387.38126 30.6L385.80313 30.6ZM389.14688 27.81875L390.725 27.56875Q390.85 28.50625 391.44376 29.00625Q392.05313 29.50625 393.13126 29.50625Q394.225 29.50625 394.75626 29.06875Q395.2875 28.615625 395.2875 28.021875Q395.2875 27.490625 394.81876 27.178125Q394.49063 26.975 393.19376 26.646875Q391.45938 26.209375 390.7875 25.896875Q390.11563 25.56875 389.75626 25.00625Q389.4125 24.428125 389.4125 23.740625Q389.4125 23.115625 389.69376 22.584375Q389.99063 22.053125 390.475 21.709375Q390.85 21.428125 391.49063 21.240625Q392.13126 21.053125 392.85 21.053125Q393.95938 21.053125 394.7875 21.38125Q395.61563 21.69375 396.00626 22.240625Q396.4125 22.771875 396.55313 23.678125L395.00626 23.88125Q394.89688 23.1625 394.39688 22.75625Q393.89688 22.35 392.975 22.35Q391.88126 22.35 391.4125 22.709375Q390.94376 23.06875 390.94376 23.553125Q390.94376 23.865625 391.14688 24.115625Q391.33438 24.365625 391.74063 24.5375Q391.99063 24.615625 393.14688 24.94375Q394.81876 25.38125 395.475 25.678125Q396.14688 25.959375 396.52188 26.50625Q396.9125 27.053125 396.9125 27.85Q396.9125 28.646875 396.44376 29.35Q395.99063 30.053125 395.11563 30.44375Q394.24063 30.81875 393.14688 30.81875Q391.31876 30.81875 390.36563 30.06875Q389.4125 29.303125 389.14688 27.81875ZM403.9125 30.6L403.9125 17.709375L408.75626 17.709375Q410.225 17.709375 411.11563 18.1Q412.00626 18.490625 412.50626 19.303125Q413.02188 20.115625 413.02188 21.00625Q413.02188 21.834375 412.56876 22.56875Q412.13126 23.303125 411.225 23.740625Q412.39688 24.084375 413.02188 24.9125Q413.64688 25.740625 413.64688 26.865625Q413.64688 27.771875 413.25626 28.553125Q412.88126 29.31875 412.31876 29.740625Q411.75626 30.1625 410.9125 30.38125Q410.06876 30.6 408.83438 30.6L403.9125 30.6ZM405.63126 23.13125L408.4125 23.13125Q409.5375 23.13125 410.0375 22.975Q410.69376 22.7875 411.02188 22.35Q411.35 21.896875 411.35 21.209375Q411.35 20.56875 411.0375 20.084375Q410.725 19.6 410.14688 19.428125Q409.58438 19.240625 408.19376 19.240625L405.63126 19.240625L405.63126 23.13125ZM405.63126 29.084375L408.83438 29.084375Q409.6625 29.084375 409.99063 29.021875Q410.58438 28.9125 410.975 28.6625Q411.36563 28.4125 411.61563 27.94375Q411.88126 27.475 411.88126 26.865625Q411.88126 26.146875 411.50626 25.615625Q411.14688 25.084375 410.49063 24.865625Q409.83438 24.646875 408.6 24.646875L405.63126 24.646875L405.63126 29.084375ZM422.17813 27.6L423.81876 27.803125Q423.42813 29.225 422.38126 30.021875Q421.33438 30.81875 419.70938 30.81875Q417.6625 30.81875 416.45938 29.553125Q415.25626 28.2875 415.25626 26.00625Q415.25626 23.6625 416.45938 22.365625Q417.67813 21.053125 419.61563 21.053125Q421.49063 21.053125 422.67813 22.334375Q423.86563 23.6 423.86563 25.9125Q423.86563 26.053125 423.85 26.334375L416.89688 26.334375Q416.975 27.88125 417.75626 28.69375Q418.55313 29.50625 419.70938 29.50625Q420.58438 29.50625 421.19376 29.053125Q421.81876 28.6 422.17813 27.6ZM416.975 25.0375L422.19376 25.0375Q422.08438 23.865625 421.6 23.271875Q420.83438 22.35 419.63126 22.35Q418.55313 22.35 417.80313 23.084375Q417.06876 23.81875 416.975 25.0375ZM429.24063 29.178125L429.475 30.584375Q428.80313 30.725 428.27188 30.725Q427.4125 30.725 426.92813 30.459375Q426.45938 30.178125 426.27188 29.740625Q426.08438 29.2875 426.08438 27.865625L426.08438 22.490625L424.9125 22.490625L424.9125 21.271875L426.08438 21.271875L426.08438 18.959375L427.64688 18.00625L427.64688 21.271875L429.24063 21.271875L429.24063 22.490625L427.64688 22.490625L427.64688 27.959375Q427.64688 28.63125 427.725 28.834375Q427.81876 29.021875 428.00626 29.13125Q428.19376 29.240625 428.55313 29.240625Q428.80313 29.240625 429.24063 29.178125ZM434.24063 29.178125L434.475 30.584375Q433.80313 30.725 433.27188 30.725Q432.4125 30.725 431.92813 30.459375Q431.45938 30.178125 431.27188 29.740625Q431.08438 29.2875 431.08438 27.865625L431.08438 22.490625L429.9125 22.490625L429.9125 21.271875L431.08438 21.271875L431.08438 18.959375L432.64688 18.00625L432.64688 21.271875L434.24063 21.271875L434.24063 22.490625L432.64688 22.490625L432.64688 27.959375Q432.64688 28.63125 432.725 28.834375Q432.81876 29.021875 433.00626 29.13125Q433.19376 29.240625 433.55313 29.240625Q433.80313 29.240625 434.24063 29.178125ZM442.17813 27.6L443.81876 27.803125Q443.42813 29.225 442.38126 30.021875Q441.33438 30.81875 439.70938 30.81875Q437.6625 30.81875 436.45938 29.553125Q435.25626 28.2875 435.25626 26.00625Q435.25626 23.6625 436.45938 22.365625Q437.67813 21.053125 439.61563 21.053125Q441.49063 21.053125 442.67813 22.334375Q443.86563 23.6 443.86563 25.9125Q443.86563 26.053125 443.85 26.334375L436.89688 26.334375Q436.975 27.88125 437.75626 28.69375Q438.55313 29.50625 439.70938 29.50625Q440.58438 29.50625 441.19376 29.053125Q441.81876 28.6 442.17813 27.6ZM436.975 25.0375L442.19376 25.0375Q442.08438 23.865625 441.6 23.271875Q440.83438 22.35 439.63126 22.35Q438.55313 22.35 437.80313 23.084375Q437.06876 23.81875 436.975 25.0375ZM445.77188 30.6L445.77188 21.271875L447.19376 21.271875L447.19376 22.678125Q447.74063 21.69375 448.19376 21.38125Q448.6625 21.053125 449.20938 21.053125Q450.02188 21.053125 450.83438 21.56875L450.30313 23.0375Q449.70938 22.69375 449.13126 22.69375Q448.61563 22.69375 448.19376 23.00625Q447.7875 23.31875 447.61563 23.865625Q447.35 24.709375 447.35 25.709375L447.35 30.6L445.77188 30.6ZM452.24063 30.6L452.24063 28.803125L454.0375 28.803125L454.0375 30.6L452.24063 30.6Z" fill-rule="nonzero"/></svg>