<svg version="1.1" viewBox="0.0 0.0 648.0 272.0" fill="none" stroke="none" stroke-linecap="square" stroke-miterlimit="10" width="648" height="272" xmlns:xlink="http://www.w3.org/1999/xlink" xmlns="http://www.w3.org/2000/svg"><path fill="#ffffff" d="M0 0L648.0 0L648.0 272.0L0 272.0L0 0Z" fill-rule="nonzero"/><path stroke="#333333" stroke-width="1.0" stroke-linecap="butt" d="M89.5 76.5L89.5 198.5" fill-rule="nonzero"/><path stroke="#cccccc" stroke-width="1.0" stroke-linecap="butt" d="M150.5 76.5L150.5 198.5" fill-rule="nonzero"/><path stroke="#cccccc" stroke-width="1.0" stroke-linecap="butt" d="M210.5 76.5L210.5 198.5" fill-rule="nonzero"/><path stroke="#cccccc" stroke-width="1.0" stroke-linecap="butt" d="M271.5 76.5L271.5 198.5" fill-rule="nonzero"/><path stroke="#cccccc" stroke-width="1.0" stroke-linecap="butt" d="M331.5 76.5L331.5 198.5" fill-rule="nonzero"/><path stroke="#cccccc" stroke-width="1.0" stroke-linecap="butt" d="M392.5 76.5L392.5 198.5" fill-rule="nonzero"/><path stroke="#cccccc" stroke-width="1.0" stroke-linecap="butt" d="M452.5 76.5L452.5 198.5" fill-rule="nonzero"/><path stroke="#cccccc" stroke-width="1.0" stroke-linecap="butt" d="M513.5 76.5L513.5 198.5" fill-rule="nonzero"/><path stroke="#cccccc" stroke-width="1.0" stroke-linecap="butt" d="M573.5 76.5L573.5 198.5" fill-rule="nonzero"/><path stroke="#cccccc" stroke-width="1.0" stroke-linecap="butt" d="M634.5 76.5L634.5 198.5" fill-rule="nonzero"/><path stroke="#333333" stroke-width="1.0" stroke-linecap="butt" d="M89.5 198.5L634.5 198.5" fill-rule="nonzero"/><path stroke="#cccccc" stroke-width="1.0" stroke-linecap="butt" d="M89.5 174.5L634.5 174.5" fill-rule="nonzero"/><path stroke="#cccccc" stroke-width="1.0" stroke-linecap="butt" d="M89.5 149.5L634.5 149.5" fill-rule="nonzero"/><path stroke="#cccccc" stroke-width="1.0" stroke-linecap="butt" d="M89.5 125.5L634.5 125.5" fill-rule="nonzero"/><path stroke="#cccccc" stroke-width="1.0" stroke-linecap="butt" d="M89.5 101.5L634.5 101.5" fill-rule="nonzero"/><path stroke="#cccccc" stroke-width="1.0" stroke-linecap="butt" d="M89.5 76.5L634.5 76.5" fill-rule="nonzero"/><path stroke="#000000" stroke-width="1.0" stroke-linecap="butt" stroke-opacity="0.0" d="M89.5 190.5L634.5 190.5" fill-rule="nonzero"/><path stroke="#000000" stroke-width="1.0" stroke-linecap="butt" stroke-opacity="0.0" d="M89.5 182.5L634.5 182.5" fill-rule="nonzero"/><path stroke="#000000" stroke-width="1.0" stroke-linecap="butt" stroke-opacity="0.0" d="M89.5 165.5L634.5 165.5" fill-rule="nonzero"/><path stroke="#000000" stroke-width="1.0" stroke-linecap="butt" stroke-opacity="0.0" d="M89.5 157.5L634.5 157.5" fill-rule="nonzero"/><path stroke="#000000" stroke-width="1.0" stroke-linecap="butt" stroke-opacity="0.0" d="M89.5 141.5L634.5 141.5" fill-rule="nonzero"/><path stroke="#000000" stroke-width="1.0" stroke-linecap="butt" stroke-opacity="0.0" d="M89.5 133.5L634.5 133.5" fill-rule="nonzero"/><path stroke="#000000" stroke-width="1.0" stroke-linecap="butt" stroke-opacity="0.0" d="M89.5 117.5L634.5 117.5" fill-rule="nonzero"/><path stroke="#000000" stroke-width="1.0" stroke-linecap="butt" stroke-opacity="0.0" d="M89.5 109.5L634.5 109.5" fill-rule="nonzero"/><path stroke="#000000" stroke-width="1.0" stroke-linecap="butt" stroke-opacity="0.0" d="M89.5 92.5L634.5 92.5" fill-rule="nonzero"/><path stroke="#000000" stroke-width="1.0" stroke-linecap="butt" stroke-opacity="0.0" d="M89.5 84.5L634.5 84.5" fill-rule="nonzero"/><clipPath id="id_0"><path d="M89.6 76.73333L634.4 76.73333L634.4 198.4L89.6 198.4L89.6 76.73333Z" clip-rule="nonzero"/></clipPath><path stroke="#4285f4" stroke-width="2.0" stroke-linecap="butt" clip-path="url(#id_0)" d="M119.86667 196.00336C119.86667 196.00336 140.04445 195.43082 150.13333 194.56194C160.22223 193.69307 190.48889 190.17273 210.66667 187.01836C230.84445 183.86398 291.37778 172.01161 331.73334 164.25308C372.0889 156.49457 573.86664 116.68135 573.86664 116.68135" fill-rule="nonzero"/><path stroke="#ea4335" stroke-width="2.0" stroke-linecap="butt" clip-path="url(#id_0)" d="M119.86667 195.93661C119.86667 195.93661 140.04445 196.00623 150.13333 194.82259C160.22223 193.63896 190.48889 187.36916 210.66667 182.84709C230.84445 178.32501 291.37778 162.50055 331.73334 152.53333C372.0889 142.56609 573.86664 93.554115 573.86664 93.554115" fill-rule="nonzero"/><path stroke="#fbbc04" stroke-width="2.0" stroke-linecap="butt" clip-path="url(#id_0)" d="M119.86667 196.36871C119.86667 196.36871 140.04445 196.19876 150.13333 195.94185C160.22223 195.68495 190.48889 195.35342 210.66667 193.71268C230.84445 192.07191 291.37778 183.77156 331.73334 178.48195C372.0889 173.19232 573.86664 145.46799 573.86664 145.46799" fill-rule="nonzero"/><path fill="#000000" fill-opacity="0.0" clip-path="url(#id_0)" d="M122.86667 196.00336C122.86667 197.66022 121.52352 199.00336 119.86667 199.00336C118.209816 199.00336 116.86667 197.66022 116.86667 196.00336C116.86667 194.3465 118.209816 193.00336 119.86667 193.00336C121.52352 193.00336 122.86667 194.3465 122.86667 196.00336Z" fill-rule="nonzero"/><path fill="#000000" fill-opacity="0.0" clip-path="url(#id_0)" d="M153.13333 194.56194C153.13333 196.2188 151.79019 197.56194 150.13333 197.56194C148.47649 197.56194 147.13333 196.2188 147.13333 194.56194C147.13333 192.90509 148.47649 191.56194 150.13333 191.56194C151.79019 191.56194 153.13333 192.90509 153.13333 194.56194Z" fill-rule="nonzero"/><path fill="#000000" fill-opacity="0.0" clip-path="url(#id_0)" d="M213.66667 187.01836C213.66667 188.6752 212.32352 190.01836 210.66667 190.01836C209.00981 190.01836 207.66667 188.6752 207.66667 187.01836C207.66667 185.3615 209.00981 184.01836 210.66667 184.01836C212.32352 184.01836 213.66667 185.3615 213.66667 187.01836Z" fill-rule="nonzero"/><path fill="#000000" fill-opacity="0.0" clip-path="url(#id_0)" d="M334.73334 164.25308C334.73334 165.90994 333.3902 167.25308 331.73334 167.25308C330.07648 167.25308 328.73334 165.90994 328.73334 164.25308C328.73334 162.59622 330.07648 161.25308 331.73334 161.25308C333.3902 161.25308 334.73334 162.59622 334.73334 164.25308Z" fill-rule="nonzero"/><path fill="#000000" fill-opacity="0.0" clip-path="url(#id_0)" d="M576.86664 116.68135C576.86664 118.33821 575.5235 119.68135 573.86664 119.68135C572.20984 119.68135 570.86664 118.33821 570.86664 116.68135C570.86664 115.0245 572.20984 113.68135 573.86664 113.68135C575.5235 113.68135 576.86664 115.0245 576.86664 116.68135Z" fill-rule="nonzero"/><path fill="#000000" fill-opacity="0.0" clip-path="url(#id_0)" d="M122.86667 195.93661C122.86667 197.59348 121.52352 198.93661 119.86667 198.93661C118.209816 198.93661 116.86667 197.59348 116.86667 195.93661C116.86667 194.27977 118.209816 192.93661 119.86667 192.93661C121.52352 192.93661 122.86667 194.27977 122.86667 195.93661Z" fill-rule="nonzero"/><path fill="#000000" fill-opacity="0.0" clip-path="url(#id_0)" d="M153.13333 194.82259C153.13333 196.47945 151.79019 197.82259 150.13333 197.82259C148.47649 197.82259 147.13333 196.47945 147.13333 194.82259C147.13333 193.16574 148.47649 191.82259 150.13333 191.82259C151.79019 191.82259 153.13333 193.16574 153.13333 194.82259Z" fill-rule="nonzero"/><path fill="#000000" fill-opacity="0.0" clip-path="url(#id_0)" d="M213.66667 182.84709C213.66667 184.50394 212.32352 185.84709 210.66667 185.84709C209.00981 185.84709 207.66667 184.50394 207.66667 182.84709C207.66667 181.19023 209.00981 179.84709 210.66667 179.84709C212.32352 179.84709 213.66667 181.19023 213.66667 182.84709Z" fill-rule="nonzero"/><path fill="#000000" fill-opacity="0.0" clip-path="url(#id_0)" d="M334.73334 152.53333C334.73334 154.19017 333.3902 155.53333 331.73334 155.53333C330.07648 155.53333 328.73334 154.19017 328.73334 152.53333C328.73334 150.87646 330.07648 149.53333 331.73334 149.53333C333.3902 149.53333 334.73334 150.87646 334.73334 152.53333Z" fill-rule="nonzero"/><path fill="#000000" fill-opacity="0.0" clip-path="url(#id_0)" d="M576.86664 93.554115C576.86664 95.21097 575.5235 96.554115 573.86664 96.554115C572.20984 96.554115 570.86664 95.21097 570.86664 93.554115C570.86664 91.89726 572.20984 90.554115 573.86664 90.554115C575.5235 90.554115 576.86664 91.89726 576.86664 93.554115Z" fill-rule="nonzero"/><path fill="#000000" fill-opacity="0.0" clip-path="url(#id_0)" d="M122.86667 196.36871C122.86667 198.02556 121.52352 199.36871 119.86667 199.36871C118.209816 199.36871 116.86667 198.02556 116.86667 196.36871C116.86667 194.71185 118.209816 193.36871 119.86667 193.36871C121.52352 193.36871 122.86667 194.71185 122.86667 196.36871Z" fill-rule="nonzero"/><path fill="#000000" fill-opacity="0.0" clip-path="url(#id_0)" d="M153.13333 195.94185C153.13333 197.59871 151.79019 198.94185 150.13333 198.94185C148.47649 198.94185 147.13333 197.59871 147.13333 195.94185C147.13333 194.285 148.47649 192.94185 150.13333 192.94185C151.79019 192.94185 153.13333 194.285 153.13333 195.94185Z" fill-rule="nonzero"/><path fill="#000000" fill-opacity="0.0" clip-path="url(#id_0)" d="M213.66667 193.71268C213.66667 195.36952 212.32352 196.71268 210.66667 196.71268C209.00981 196.71268 207.66667 195.36952 207.66667 193.71268C207.66667 192.05582 209.00981 190.71268 210.66667 190.71268C212.32352 190.71268 213.66667 192.05582 213.66667 193.71268Z" fill-rule="nonzero"/><path fill="#000000" fill-opacity="0.0" clip-path="url(#id_0)" d="M334.73334 178.48195C334.73334 180.1388 333.3902 181.48195 331.73334 181.48195C330.07648 181.48195 328.73334 180.1388 328.73334 178.48195C328.73334 176.82509 330.07648 175.48195 331.73334 175.48195C333.3902 175.48195 334.73334 176.82509 334.73334 178.48195Z" fill-rule="nonzero"/><path fill="#000000" fill-opacity="0.0" clip-path="url(#id_0)" d="M576.86664 145.46799C576.86664 147.12483 575.5235 148.46799 573.86664 148.46799C572.20984 148.46799 570.86664 147.12483 570.86664 145.46799C570.86664 143.81113 572.20984 142.46799 573.86664 142.46799C575.5235 142.46799 576.86664 143.81113 576.86664 145.46799Z" fill-rule="nonzero"/><path fill="#000000" d="M294.09375 255.4L294.09375 245.38437L298.54688 245.38437Q299.89062 245.38437 300.57812 245.65Q301.28125 245.91562 301.6875 246.60312Q302.10938 247.29062 302.10938 248.11874Q302.10938 249.18124 301.42188 249.91562Q300.73438 250.63437 299.29688 250.8375Q299.8125 251.0875 300.09375 251.3375Q300.67188 251.86874 301.1875 252.66562L302.9375 255.4L301.26562 255.4L299.9375 253.32187Q299.35938 252.41562 298.98438 251.94687Q298.60938 251.4625 298.3125 251.275Q298.01562 251.07187 297.70312 250.99374Q297.48438 250.94687 296.96875 250.94687L295.42188 250.94687L295.42188 255.4L294.09375 255.4ZM295.42188 249.80624L298.28125 249.80624Q299.1875 249.80624 299.70312 249.61874Q300.21875 249.43124 300.48438 249.025Q300.75 248.60312 300.75 248.11874Q300.75 247.4 300.23438 246.94687Q299.71875 246.47812 298.59375 246.47812L295.42188 246.47812L295.42188 249.80624ZM308.89062 253.05624L310.17188 253.2125Q309.85938 254.3375 309.04688 254.9625Q308.23438 255.57187 306.96875 255.57187Q305.375 255.57187 304.4375 254.5875Q303.51562 253.60312 303.51562 251.8375Q303.51562 249.99374 304.45312 248.99374Q305.40625 247.97812 306.90625 247.97812Q308.35938 247.97812 309.28125 248.97812Q310.20312 249.9625 310.20312 251.75937Q310.20312 251.86874 310.20312 252.0875L304.78125 252.0875Q304.85938 253.275 305.45312 253.91562Q306.0625 254.55624 306.98438 254.55624Q307.65625 254.55624 308.125 254.19687Q308.60938 253.8375 308.89062 253.05624ZM304.85938 251.07187L308.90625 251.07187Q308.82812 250.15 308.4375 249.69687Q307.85938 248.99374 306.92188 248.99374Q306.0625 248.99374 305.48438 249.55624Q304.92188 250.11874 304.85938 251.07187ZM316.54688 258.18124L316.54688 254.63437Q316.26562 255.025 315.75 255.30624Q315.23438 255.57187 314.65625 255.57187Q313.35938 255.57187 312.42188 254.54062Q311.5 253.49374 311.5 251.69687Q311.5 250.60312 311.875 249.74374Q312.25 248.86874 312.96875 248.43124Q313.6875 247.97812 314.5625 247.97812Q315.90625 247.97812 316.67188 249.10312L316.67188 248.13437L317.78125 248.13437L317.78125 258.18124L316.54688 258.18124ZM312.75 251.74374Q312.75 253.15 313.34375 253.85312Q313.9375 254.55624 314.75 254.55624Q315.54688 254.55624 316.10938 253.88437Q316.67188 253.2125 316.67188 251.85312Q316.67188 250.41562 316.07812 249.68124Q315.48438 248.94687 314.67188 248.94687Q313.875 248.94687 313.3125 249.63437Q312.75 250.30624 312.75 251.74374ZM324.6875 255.4L324.6875 254.3375Q323.82812 255.57187 322.375 255.57187Q321.73438 255.57187 321.17188 255.32187Q320.625 255.07187 320.34375 254.69687Q320.07812 254.32187 319.96875 253.79062Q319.89062 253.43124 319.89062 252.63437L319.89062 248.13437L321.125 248.13437L321.125 252.16562Q321.125 253.13437 321.20312 253.4625Q321.3125 253.94687 321.6875 254.22812Q322.0625 254.50937 322.625 254.50937Q323.17188 254.50937 323.65625 254.22812Q324.14062 253.93124 324.34375 253.44687Q324.54688 252.9625 324.54688 252.025L324.54688 248.13437L325.78125 248.13437L325.78125 255.4L324.6875 255.4ZM332.89062 253.05624L334.17188 253.2125Q333.85938 254.3375 333.04688 254.9625Q332.23438 255.57187 330.96875 255.57187Q329.375 255.57187 328.4375 254.5875Q327.51562 253.60312 327.51562 251.8375Q327.51562 249.99374 328.45312 248.99374Q329.40625 247.97812 330.90625 247.97812Q332.35938 247.97812 333.28125 248.97812Q334.20312 249.9625 334.20312 251.75937Q334.20312 251.86874 334.20312 252.0875L328.78125 252.0875Q328.85938 253.275 329.45312 253.91562Q330.0625 254.55624 330.98438 254.55624Q331.65625 254.55624 332.125 254.19687Q332.60938 253.8375 332.89062 253.05624ZM328.85938 251.07187L332.90625 251.07187Q332.82812 250.15 332.4375 249.69687Q331.85938 248.99374 330.92188 248.99374Q330.0625 248.99374 329.48438 249.55624Q328.92188 250.11874 328.85938 251.07187ZM335.4375 253.22812L336.64062 253.04062Q336.75 253.775 337.21875 254.16562Q337.6875 254.55624 338.53125 254.55624Q339.375 254.55624 339.78125 254.2125Q340.20312 253.86874 340.20312 253.4Q340.20312 252.97812 339.82812 252.74374Q339.57812 252.57187 338.57812 252.32187Q337.21875 251.97812 336.6875 251.72812Q336.17188 251.47812 335.90625 251.04062Q335.64062 250.60312 335.64062 250.07187Q335.64062 249.5875 335.85938 249.18124Q336.07812 248.75937 336.46875 248.47812Q336.75 248.275 337.23438 248.13437Q337.73438 247.97812 338.3125 247.97812Q339.15625 247.97812 339.79688 248.22812Q340.45312 248.4625 340.76562 248.88437Q341.07812 249.30624 341.1875 250.00937L339.98438 250.18124Q339.90625 249.61874 339.5 249.30624Q339.10938 248.99374 338.39062 248.99374Q337.54688 248.99374 337.1875 249.275Q336.82812 249.54062 336.82812 249.93124Q336.82812 250.16562 336.96875 250.35312Q337.125 250.55624 337.45312 250.68124Q337.625 250.74374 338.53125 250.99374Q339.84375 251.35312 340.35938 251.57187Q340.875 251.79062 341.15625 252.2125Q341.45312 252.63437 341.45312 253.25937Q341.45312 253.88437 341.09375 254.43124Q340.75 254.9625 340.0625 255.275Q339.39062 255.57187 338.53125 255.57187Q337.125 255.57187 336.375 254.97812Q335.64062 254.38437 335.4375 253.22812ZM345.60938 254.30624L345.78125 255.38437Q345.26562 255.49374 344.85938 255.49374Q344.1875 255.49374 343.8125 255.29062Q343.45312 255.07187 343.29688 254.72812Q343.15625 254.38437 343.15625 253.275L343.15625 249.10312L342.25 249.10312L342.25 248.13437L343.15625 248.13437L343.15625 246.3375L344.375 245.60312L344.375 248.13437L345.60938 248.13437L345.60938 249.10312L344.375 249.10312L344.375 253.3375Q344.375 253.86874 344.4375 254.025Q344.5 254.16562 344.64062 254.25937Q344.79688 254.35312 345.0625 254.35312Q345.28125 254.35312 345.60938 254.30624ZM346.4375 253.22812L347.64062 253.04062Q347.75 253.775 348.21875 254.16562Q348.6875 254.55624 349.53125 254.55624Q350.375 254.55624 350.78125 254.2125Q351.20312 253.86874 351.20312 253.4Q351.20312 252.97812 350.82812 252.74374Q350.57812 252.57187 349.57812 252.32187Q348.21875 251.97812 347.6875 251.72812Q347.17188 251.47812 346.90625 251.04062Q346.64062 250.60312 346.64062 250.07187Q346.64062 249.5875 346.85938 249.18124Q347.07812 248.75937 347.46875 248.47812Q347.75 248.275 348.23438 248.13437Q348.73438 247.97812 349.3125 247.97812Q350.15625 247.97812 350.79688 248.22812Q351.45312 248.4625 351.76562 248.88437Q352.07812 249.30624 352.1875 250.00937L350.98438 250.18124Q350.90625 249.61874 350.5 249.30624Q350.10938 248.99374 349.39062 248.99374Q348.54688 248.99374 348.1875 249.275Q347.82812 249.54062 347.82812 249.93124Q347.82812 250.16562 347.96875 250.35312Q348.125 250.55624 348.45312 250.68124Q348.625 250.74374 349.53125 250.99374Q350.84375 251.35312 351.35938 251.57187Q351.875 251.79062 352.15625 252.2125Q352.45312 252.63437 352.45312 253.25937Q352.45312 253.88437 352.09375 254.43124Q351.75 254.9625 351.0625 255.275Q350.39062 255.57187 349.53125 255.57187Q348.125 255.57187 347.375 254.97812Q346.64062 254.38437 346.4375 253.22812ZM358.07812 255.4L358.07812 245.38437L361.85938 245.38437Q362.85938 245.38437 363.39062 245.47812Q364.125 245.60312 364.625 245.94687Q365.125 246.29062 365.42188 246.91562Q365.73438 247.525 365.73438 248.275Q365.73438 249.55624 364.92188 250.44687Q364.10938 251.32187 361.98438 251.32187L359.40625 251.32187L359.40625 255.4L358.07812 255.4ZM359.40625 250.15L362.0 250.15Q363.28125 250.15 363.8125 249.66562Q364.35938 249.18124 364.35938 248.32187Q364.35938 247.68124 364.04688 247.24374Q363.73438 246.79062 363.20312 246.65Q362.875 246.55624 361.96875 246.55624L359.40625 246.55624L359.40625 250.15ZM371.89062 253.05624L373.17188 253.2125Q372.85938 254.3375 372.04688 254.9625Q371.23438 255.57187 369.96875 255.57187Q368.375 255.57187 367.4375 254.5875Q366.51562 253.60312 366.51562 251.8375Q366.51562 249.99374 367.45312 248.99374Q368.40625 247.97812 369.90625 247.97812Q371.35938 247.97812 372.28125 248.97812Q373.20312 249.9625 373.20312 251.75937Q373.20312 251.86874 373.20312 252.0875L367.78125 252.0875Q367.85938 253.275 368.45312 253.91562Q369.0625 254.55624 369.98438 254.55624Q370.65625 254.55624 371.125 254.19687Q371.60938 253.8375 371.89062 253.05624ZM367.85938 251.07187L371.90625 251.07187Q371.82812 250.15 371.4375 249.69687Q370.85938 248.99374 369.92188 248.99374Q369.0625 248.99374 368.48438 249.55624Q367.92188 250.11874 367.85938 251.07187ZM374.90625 255.4L374.90625 248.13437L376.01562 248.13437L376.01562 249.24374Q376.4375 248.4625 376.79688 248.22812Q377.15625 247.97812 377.59375 247.97812Q378.21875 247.97812 378.85938 248.36874L378.4375 249.50937Q377.98438 249.24374 377.53125 249.24374Q377.125 249.24374 376.79688 249.49374Q376.48438 249.72812 376.34375 250.16562Q376.14062 250.82187 376.14062 251.60312L376.14062 255.4L374.90625 255.4ZM383.625 252.18124L384.875 252.07187Q384.96875 252.82187 385.29688 253.30624Q385.625 253.79062 386.29688 254.0875Q386.98438 254.38437 387.84375 254.38437Q388.59375 254.38437 389.17188 254.16562Q389.76562 253.93124 390.04688 253.54062Q390.32812 253.15 390.32812 252.68124Q390.32812 252.2125 390.04688 251.86874Q389.78125 251.50937 389.15625 251.25937Q388.75 251.10312 387.35938 250.775Q385.98438 250.44687 385.4375 250.15Q384.71875 249.775 384.35938 249.22812Q384.01562 248.66562 384.01562 247.9625Q384.01562 247.2125 384.4375 246.55624Q384.875 245.88437 385.70312 245.55624Q386.53125 245.2125 387.54688 245.2125Q388.65625 245.2125 389.5 245.57187Q390.35938 245.93124 390.8125 246.63437Q391.26562 247.32187 391.3125 248.19687L390.03125 248.29062Q389.9375 247.35312 389.34375 246.86874Q388.75 246.36874 387.59375 246.36874Q386.39062 246.36874 385.84375 246.82187Q385.29688 247.25937 385.29688 247.88437Q385.29688 248.41562 385.6875 248.775Q386.0625 249.11874 387.67188 249.49374Q389.29688 249.85312 389.89062 250.11874Q390.76562 250.525 391.1875 251.15Q391.60938 251.75937 391.60938 252.57187Q391.60938 253.36874 391.14062 254.0875Q390.6875 254.79062 389.82812 255.18124Q388.96875 255.57187 387.90625 255.57187Q386.54688 255.57187 385.625 255.18124Q384.70312 254.775 384.17188 253.97812Q383.65625 253.18124 383.625 252.18124ZM397.89062 253.05624L399.17188 253.2125Q398.85938 254.3375 398.04688 254.9625Q397.23438 255.57187 395.96875 255.57187Q394.375 255.57187 393.4375 254.5875Q392.51562 253.60312 392.51562 251.8375Q392.51562 249.99374 393.45312 248.99374Q394.40625 247.97812 395.90625 247.97812Q397.35938 247.97812 398.28125 248.97812Q399.20312 249.9625 399.20312 251.75937Q399.20312 251.86874 399.20312 252.0875L393.78125 252.0875Q393.85938 253.275 394.45312 253.91562Q395.0625 254.55624 395.98438 254.55624Q396.65625 254.55624 397.125 254.19687Q397.60938 253.8375 397.89062 253.05624ZM393.85938 251.07187L397.90625 251.07187Q397.82812 250.15 397.4375 249.69687Q396.85938 248.99374 395.92188 248.99374Q395.0625 248.99374 394.48438 249.55624Q393.92188 250.11874 393.85938 251.07187ZM405.65625 252.74374L406.875 252.9Q406.67188 254.15 405.84375 254.86874Q405.03125 255.57187 403.84375 255.57187Q402.35938 255.57187 401.45312 254.60312Q400.54688 253.61874 400.54688 251.79062Q400.54688 250.61874 400.9375 249.74374Q401.32812 248.85312 402.125 248.41562Q402.92188 247.97812 403.85938 247.97812Q405.03125 247.97812 405.78125 248.57187Q406.54688 249.16562 406.75 250.275L405.5625 250.4625Q405.39062 249.72812 404.95312 249.36874Q404.51562 248.99374 403.90625 248.99374Q402.96875 248.99374 402.39062 249.66562Q401.8125 250.32187 401.8125 251.75937Q401.8125 253.22812 402.375 253.9Q402.9375 254.55624 403.82812 254.55624Q404.5625 254.55624 405.04688 254.11874Q405.53125 253.66562 405.65625 252.74374ZM407.46875 251.775Q407.46875 249.75937 408.59375 248.775Q409.51562 247.97812 410.875 247.97812Q412.35938 247.97812 413.3125 248.9625Q414.26562 249.93124 414.26562 251.66562Q414.26562 253.07187 413.84375 253.88437Q413.42188 254.68124 412.60938 255.13437Q411.8125 255.57187 410.875 255.57187Q409.34375 255.57187 408.40625 254.5875Q407.46875 253.60312 407.46875 251.775ZM408.73438 251.775Q408.73438 253.16562 409.34375 253.86874Q409.95312 254.55624 410.875 254.55624Q411.78125 254.55624 412.39062 253.85312Q413.0 253.15 413.0 251.72812Q413.0 250.38437 412.39062 249.69687Q411.78125 248.99374 410.875 248.99374Q409.95312 248.99374 409.34375 249.68124Q408.73438 250.36874 408.73438 251.775ZM415.92188 255.4L415.92188 248.13437L417.03125 248.13437L417.03125 249.16562Q417.82812 247.97812 419.34375 247.97812Q420.0 247.97812 420.54688 248.2125Q421.09375 248.44687 421.35938 248.8375Q421.64062 249.2125 421.75 249.74374Q421.82812 250.0875 421.82812 250.93124L421.82812 255.4L420.59375 255.4L420.59375 250.97812Q420.59375 250.22812 420.45312 249.86874Q420.3125 249.49374 419.9375 249.275Q419.57812 249.04062 419.07812 249.04062Q418.29688 249.04062 417.71875 249.54062Q417.15625 250.04062 417.15625 251.43124L417.15625 255.4L415.92188 255.4ZM428.64062 255.4L428.64062 254.47812Q427.9375 255.57187 426.60938 255.57187Q425.73438 255.57187 425.0 255.0875Q424.28125 254.60312 423.875 253.74374Q423.48438 252.88437 423.48438 251.775Q423.48438 250.69687 423.84375 249.80624Q424.20312 248.91562 424.92188 248.44687Q425.65625 247.97812 426.54688 247.97812Q427.20312 247.97812 427.71875 248.25937Q428.23438 248.525 428.54688 248.97812L428.54688 245.38437L429.78125 245.38437L429.78125 255.4L428.64062 255.4ZM424.75 251.775Q424.75 253.16562 425.32812 253.86874Q425.92188 254.55624 426.71875 254.55624Q427.53125 254.55624 428.09375 253.9Q428.65625 253.22812 428.65625 251.88437Q428.65625 250.38437 428.07812 249.69687Q427.5 248.99374 426.67188 248.99374Q425.84375 248.99374 425.29688 249.66562Q424.75 250.3375 424.75 251.775Z" fill-rule="nonzero"/><path fill="#000000" d="M26.599995 204.51979L16.58437 204.51979L16.58437 202.53542L23.67812 200.16042Q24.662495 199.83229 25.162495 199.67604Q24.61562 199.50417 23.55312 199.14479L16.58437 196.75417L16.58437 194.95729L26.599995 194.95729L26.599995 196.23854L18.20937 196.23854L26.599995 199.16042L26.599995 200.34792L18.068745 203.25417L26.599995 203.25417L26.599995 204.51979ZM24.256245 188.67604L24.412495 187.39479Q25.537495 187.70729 26.162495 188.51979Q26.77187 189.33229 26.77187 190.59792Q26.77187 192.19167 25.787495 193.12917Q24.80312 194.05104 23.037495 194.05104Q21.193745 194.05104 20.193745 193.11354Q19.17812 192.16042 19.17812 190.66042Q19.17812 189.20729 20.17812 188.28542Q21.162495 187.36354 22.95937 187.36354Q23.068745 187.36354 23.287495 187.36354L23.287495 192.78542Q24.474995 192.70729 25.11562 192.11354Q25.756245 191.50417 25.756245 190.58229Q25.756245 189.91042 25.39687 189.44167Q25.037495 188.95729 24.256245 188.67604ZM22.27187 192.70729L22.27187 188.66042Q21.349995 188.73854 20.89687 189.12917Q20.193745 189.70729 20.193745 190.64479Q20.193745 191.50417 20.756245 192.08229Q21.318745 192.64479 22.27187 192.70729ZM26.599995 180.92604L25.67812 180.92604Q26.77187 181.62917 26.77187 182.95729Q26.77187 183.83229 26.287495 184.56667Q25.80312 185.28542 24.943745 185.69167Q24.08437 186.08229 22.974995 186.08229Q21.89687 186.08229 21.006245 185.72292Q20.11562 185.36354 19.64687 184.64479Q19.17812 183.91042 19.17812 183.01979Q19.17812 182.36354 19.45937 181.84792Q19.724995 181.33229 20.17812 181.01979L16.58437 181.01979L16.58437 179.78542L26.599995 179.78542L26.599995 180.92604ZM22.974995 184.81667Q24.36562 184.81667 25.068745 184.23854Q25.756245 183.64479 25.756245 182.84792Q25.756245 182.03542 25.099995 181.47292Q24.42812 180.91042 23.08437 180.91042Q21.58437 180.91042 20.89687 181.48854Q20.193745 182.06667 20.193745 182.89479Q20.193745 183.72292 20.86562 184.26979Q21.537495 184.81667 22.974995 184.81667ZM17.99062 177.62917L16.58437 177.62917L16.58437 176.41042L17.99062 176.41042L17.99062 177.62917ZM26.599995 177.62917L19.33437 177.62917L19.33437 176.41042L26.599995 176.41042L26.599995 177.62917ZM25.70937 169.91042Q26.287495 170.58229 26.537495 171.22292Q26.77187 171.84792 26.77187 172.58229Q26.77187 173.76979 26.193745 174.42604Q25.599995 175.06667 24.67812 175.06667Q24.14687 175.06667 23.70937 174.83229Q23.27187 174.58229 23.006245 174.19167Q22.74062 173.78542 22.599995 173.30104Q22.506245 172.94167 22.412495 172.20729Q22.24062 170.70729 21.99062 170.00417Q21.74062 170.00417 21.67812 170.00417Q20.912495 170.00417 20.61562 170.34792Q20.193745 170.81667 20.193745 171.75417Q20.193745 172.61354 20.506245 173.03542Q20.80312 173.44167 21.568745 173.64479L21.412495 174.84792Q20.631245 174.69167 20.162495 174.31667Q19.693745 173.92604 19.443745 173.22292Q19.17812 172.50417 19.17812 171.56667Q19.17812 170.64479 19.39687 170.06667Q19.61562 169.48854 19.943745 169.22292Q20.27187 168.94167 20.787495 168.83229Q21.099995 168.76979 21.912495 168.76979L23.55312 168.76979Q25.27187 168.76979 25.724995 168.69167Q26.17812 168.61354 26.599995 168.37917L26.599995 169.66042Q26.20937 169.84792 25.70937 169.91042ZM22.95937 170.00417Q23.224995 170.67604 23.42812 172.01979Q23.537495 172.76979 23.67812 173.09792Q23.80312 173.41042 24.068745 173.58229Q24.33437 173.75417 24.64687 173.75417Q25.14687 173.75417 25.474995 173.37917Q25.80312 173.00417 25.80312 172.28542Q25.80312 171.56667 25.49062 171.01979Q25.17812 170.47292 24.631245 170.20729Q24.224995 170.00417 23.412495 170.00417L22.95937 170.00417ZM26.599995 166.64479L19.33437 166.64479L19.33437 165.53542L20.36562 165.53542Q19.17812 164.73854 19.17812 163.22292Q19.17812 162.56667 19.412495 162.01979Q19.64687 161.47292 20.037495 161.20729Q20.412495 160.92604 20.943745 160.81667Q21.287495 160.73854 22.131245 160.73854L26.599995 160.73854L26.599995 161.97292L22.17812 161.97292Q21.42812 161.97292 21.068745 162.11354Q20.693745 162.25417 20.474995 162.62917Q20.24062 162.98854 20.24062 163.48854Q20.24062 164.26979 20.74062 164.84792Q21.24062 165.41042 22.631245 165.41042L26.599995 165.41042L26.599995 166.64479ZM26.599995 154.53542L16.58437 154.53542L16.58437 153.20729L25.412495 153.20729L25.412495 148.28542L26.599995 148.28542L26.599995 154.53542ZM25.70937 141.91042Q26.287495 142.58229 26.537495 143.22292Q26.77187 143.84792 26.77187 144.58229Q26.77187 145.76979 26.193745 146.42604Q25.599995 147.06667 24.67812 147.06667Q24.14687 147.06667 23.70937 146.83229Q23.27187 146.58229 23.006245 146.19167Q22.74062 145.78542 22.599995 145.30104Q22.506245 144.94167 22.412495 144.20729Q22.24062 142.70729 21.99062 142.00417Q21.74062 142.00417 21.67812 142.00417Q20.912495 142.00417 20.61562 142.34792Q20.193745 142.81667 20.193745 143.75417Q20.193745 144.61354 20.506245 145.03542Q20.80312 145.44167 21.568745 145.64479L21.412495 146.84792Q20.631245 146.69167 20.162495 146.31667Q19.693745 145.92604 19.443745 145.22292Q19.17812 144.50417 19.17812 143.56667Q19.17812 142.64479 19.39687 142.06667Q19.61562 141.48854 19.943745 141.22292Q20.27187 140.94167 20.787495 140.83229Q21.099995 140.76979 21.912495 140.76979L23.55312 140.76979Q25.27187 140.76979 25.724995 140.69167Q26.17812 140.61354 26.599995 140.37917L26.599995 141.66042Q26.20937 141.84792 25.70937 141.91042ZM22.95937 142.00417Q23.224995 142.67604 23.42812 144.01979Q23.537495 144.76979 23.67812 145.09792Q23.80312 145.41042 24.068745 145.58229Q24.33437 145.75417 24.64687 145.75417Q25.14687 145.75417 25.474995 145.37917Q25.80312 145.00417 25.80312 144.28542Q25.80312 143.56667 25.49062 143.01979Q25.17812 142.47292 24.631245 142.20729Q24.224995 142.00417 23.412495 142.00417L22.95937 142.00417ZM25.506245 135.95729L26.58437 135.78542Q26.693745 136.30104 26.693745 136.70729Q26.693745 137.37917 26.49062 137.75417Q26.27187 138.11354 25.92812 138.26979Q25.58437 138.41042 24.474995 138.41042L20.30312 138.41042L20.30312 139.31667L19.33437 139.31667L19.33437 138.41042L17.537495 138.41042L16.80312 137.19167L19.33437 137.19167L19.33437 135.95729L20.30312 135.95729L20.30312 137.19167L24.537495 137.19167Q25.068745 137.19167 25.224995 137.12917Q25.36562 137.06667 25.45937 136.92604Q25.55312 136.76979 25.55312 136.50417Q25.55312 136.28542 25.506245 135.95729ZM24.256245 129.67604L24.412495 128.39479Q25.537495 128.70729 26.162495 129.51979Q26.77187 130.33229 26.77187 131.59792Q26.77187 133.19167 25.787495 134.12917Q24.80312 135.05104 23.037495 135.05104Q21.193745 135.05104 20.193745 134.11354Q19.17812 133.16042 19.17812 131.66042Q19.17812 130.20729 20.17812 129.28542Q21.162495 128.36354 22.95937 128.36354Q23.068745 128.36354 23.287495 128.36354L23.287495 133.78542Q24.474995 133.70729 25.11562 133.11354Q25.756245 132.50417 25.756245 131.58229Q25.756245 130.91042 25.39687 130.44167Q25.037495 129.95729 24.256245 129.67604ZM22.27187 133.70729L22.27187 129.66042Q21.349995 129.73854 20.89687 130.12917Q20.193745 130.70729 20.193745 131.64479Q20.193745 132.50417 20.756245 133.08229Q21.318745 133.64479 22.27187 133.70729ZM26.599995 126.64479L19.33437 126.64479L19.33437 125.535416L20.36562 125.535416Q19.17812 124.73854 19.17812 123.222916Q19.17812 122.566666 19.412495 122.01979Q19.64687 121.472916 20.037495 121.20729Q20.412495 120.92604 20.943745 120.816666Q21.287495 120.73854 22.131245 120.73854L26.599995 120.73854L26.599995 121.972916L22.17812 121.972916Q21.42812 121.972916 21.068745 122.11354Q20.693745 122.254166 20.474995 122.629166Q20.24062 122.98854 20.24062 123.48854Q20.24062 124.26979 20.74062 124.847916Q21.24062 125.410416 22.631245 125.410416L26.599995 125.410416L26.599995 126.64479ZM23.943745 113.910416L24.099995 112.691666Q25.349995 112.89479 26.068745 113.722916Q26.77187 114.535416 26.77187 115.722916Q26.77187 117.20729 25.80312 118.11354Q24.818745 119.01979 22.99062 119.01979Q21.818745 119.01979 20.943745 118.629166Q20.05312 118.23854 19.61562 117.441666Q19.17812 116.64479 19.17812 115.70729Q19.17812 114.535416 19.77187 113.785416Q20.36562 113.01979 21.474995 112.816666L21.662495 114.004166Q20.92812 114.17604 20.568745 114.61354Q20.193745 115.05104 20.193745 115.660416Q20.193745 116.597916 20.86562 117.17604Q21.52187 117.754166 22.95937 117.754166Q24.42812 117.754166 25.099995 117.191666Q25.756245 116.629166 25.756245 115.73854Q25.756245 115.004166 25.318745 114.51979Q24.86562 114.035416 23.943745 113.910416ZM29.39687 111.691666L28.24062 111.83229Q28.349995 111.42604 28.349995 111.129166Q28.349995 110.722916 28.20937 110.472916Q28.08437 110.222916 27.83437 110.066666Q27.64687 109.95729 26.912495 109.691666Q26.818745 109.660416 26.61562 109.58229L19.33437 112.347916L19.33437 111.01979L23.537495 109.504166Q24.349995 109.20729 25.224995 108.972916Q24.381245 108.76979 23.568745 108.472916L19.33437 106.92604L19.33437 105.691666L26.724995 108.45729Q27.912495 108.89479 28.36562 109.14479Q28.974995 109.472916 29.256245 109.89479Q29.55312 110.316666 29.55312 110.910416Q29.55312 111.254166 29.39687 111.691666ZM29.55312 98.285416Q28.256245 99.316666 26.537495 100.01979Q24.818745 100.722916 22.974995 100.722916Q21.349995 100.722916 19.849995 100.191666Q18.11562 99.58229 16.412495 98.285416L16.412495 97.410416Q17.83437 98.23854 18.443745 98.504166Q19.381245 98.92604 20.412495 99.160416Q21.67812 99.45729 22.974995 99.45729Q26.27187 99.45729 29.55312 97.410416L29.55312 98.285416ZM24.42812 96.129166L24.24062 94.92604Q24.974995 94.816666 25.36562 94.347916Q25.756245 93.879166 25.756245 93.035416Q25.756245 92.191666 25.412495 91.785416Q25.068745 91.36354 24.599995 91.36354Q24.17812 91.36354 23.943745 91.73854Q23.77187 91.98854 23.52187 92.98854Q23.17812 94.347916 22.92812 94.879166Q22.67812 95.39479 22.24062 95.660416Q21.80312 95.92604 21.27187 95.92604Q20.787495 95.92604 20.381245 95.70729Q19.95937 95.48854 19.67812 95.097916Q19.474995 94.816666 19.33437 94.33229Q19.17812 93.83229 19.17812 93.254166Q19.17812 92.410416 19.42812 91.76979Q19.662495 91.11354 20.08437 90.80104Q20.506245 90.48854 21.20937 90.379166L21.381245 91.58229Q20.818745 91.660416 20.506245 92.066666Q20.193745 92.45729 20.193745 93.17604Q20.193745 94.01979 20.474995 94.379166Q20.74062 94.73854 21.131245 94.73854Q21.36562 94.73854 21.55312 94.597916Q21.756245 94.441666 21.881245 94.11354Q21.943745 93.941666 22.193745 93.035416Q22.55312 91.722916 22.77187 91.20729Q22.99062 90.691666 23.412495 90.410416Q23.83437 90.11354 24.45937 90.11354Q25.08437 90.11354 25.631245 90.472916Q26.162495 90.816666 26.474995 91.504166Q26.77187 92.17604 26.77187 93.035416Q26.77187 94.441666 26.17812 95.191666Q25.58437 95.92604 24.42812 96.129166ZM29.55312 87.83229L29.55312 88.722916Q26.27187 86.67604 22.974995 86.67604Q21.693745 86.67604 20.42812 86.972916Q19.39687 87.20729 18.45937 87.61354Q17.849995 87.879166 16.412495 88.722916L16.412495 87.83229Q18.11562 86.55104 19.849995 85.941666Q21.349995 85.410416 22.974995 85.410416Q24.818745 85.410416 26.537495 86.129166Q28.256245 86.83229 29.55312 87.83229Z" fill-rule="nonzero"/><path fill="#000000" d="M75.17812 198.4625Q75.17812 196.68124 75.5375 195.60312Q75.9125 194.50937 76.63125 193.93124Q77.35 193.3375 78.44375 193.3375Q79.25625 193.3375 79.86562 193.66562Q80.475 193.99374 80.86562 194.60312Q81.27187 195.2125 81.49062 196.0875Q81.70937 196.9625 81.70937 198.4625Q81.70937 200.22812 81.35 201.30624Q80.99062 202.38437 80.27187 202.97812Q79.55312 203.57187 78.44375 203.57187Q77.00625 203.57187 76.17812 202.525Q75.17812 201.275 75.17812 198.4625ZM76.44375 198.4625Q76.44375 200.93124 77.02187 201.74374Q77.6 202.55624 78.44375 202.55624Q79.30312 202.55624 79.88125 201.74374Q80.45937 200.91562 80.45937 198.4625Q80.45937 195.97812 79.88125 195.16562Q79.30312 194.35312 78.42812 194.35312Q77.58437 194.35312 77.08437 195.07187Q76.44375 195.99374 76.44375 198.4625Z" fill-rule="nonzero"/><path fill="#000000" d="M65.64687 177.87917L65.64687 179.06667L59.021873 179.06667Q59.00625 178.62917 59.1625 178.20729Q59.428123 177.53542 59.975 176.87917Q60.5375 176.22292 61.584373 175.36354Q63.225 174.01979 63.7875 173.23854Q64.36562 172.45729 64.36562 171.75417Q64.36562 171.01979 63.834373 170.51979Q63.31875 170.01979 62.490623 170.01979Q61.6 170.01979 61.053123 170.55104Q60.521873 171.08229 60.521873 172.03542L59.25625 171.89479Q59.38125 170.48854 60.225 169.75417Q61.084373 169.00417 62.50625 169.00417Q63.959373 169.00417 64.7875 169.80104Q65.63125 170.59792 65.63125 171.78542Q65.63125 172.39479 65.38125 172.97292Q65.14687 173.55104 64.56875 174.19167Q64.00625 174.83229 62.678123 175.95729Q61.56875 176.87917 61.25625 177.22292Q60.94375 177.55104 60.740623 177.87917L65.64687 177.87917ZM67.17812 176.44167L68.475 176.33229Q68.61562 177.26979 69.13125 177.75417Q69.6625 178.22292 70.39687 178.22292Q71.2875 178.22292 71.89687 177.55104Q72.52187 176.87917 72.52187 175.78542Q72.52187 174.72292 71.92812 174.11354Q71.33437 173.50417 70.38125 173.50417Q69.7875 173.50417 69.30312 173.78542Q68.83437 174.05104 68.55312 174.47292L67.39687 174.33229L68.36562 169.17604L73.35 169.17604L73.35 170.36354L69.35 170.36354L68.81875 173.05104Q69.725 172.42604 70.70937 172.42604Q72.02187 172.42604 72.9125 173.33229Q73.81875 174.23854 73.81875 175.67604Q73.81875 177.03542 73.0375 178.01979Q72.06875 179.23854 70.39687 179.23854Q69.0375 179.23854 68.1625 178.47292Q67.30312 177.70729 67.17812 176.44167ZM75.17812 174.12917Q75.17812 172.34792 75.5375 171.26979Q75.9125 170.17604 76.63125 169.59792Q77.35 169.00417 78.44375 169.00417Q79.25625 169.00417 79.86562 169.33229Q80.475 169.66042 80.86562 170.26979Q81.27187 170.87917 81.49062 171.75417Q81.70937 172.62917 81.70937 174.12917Q81.70937 175.89479 81.35 176.97292Q80.99062 178.05104 80.27187 178.64479Q79.55312 179.23854 78.44375 179.23854Q77.00625 179.23854 76.17812 178.19167Q75.17812 176.94167 75.17812 174.12917ZM76.44375 174.12917Q76.44375 176.59792 77.02187 177.41042Q77.6 178.22292 78.44375 178.22292Q79.30312 178.22292 79.88125 177.41042Q80.45937 176.58229 80.45937 174.12917Q80.45937 171.64479 79.88125 170.83229Q79.30312 170.01979 78.42812 170.01979Q77.58437 170.01979 77.08437 170.73854Q76.44375 171.66042 76.44375 174.12917Z" fill-rule="nonzero"/><path fill="#000000" d="M59.178123 152.10834L60.475 151.99896Q60.615623 152.93646 61.13125 153.42084Q61.6625 153.88959 62.396873 153.88959Q63.2875 153.88959 63.896873 153.21771Q64.52187 152.54584 64.52187 151.45209Q64.52187 150.38959 63.928123 149.78021Q63.334373 149.17084 62.38125 149.17084Q61.7875 149.17084 61.303123 149.45209Q60.834373 149.71771 60.553123 150.13959L59.396873 149.99896L60.365623 144.84271L65.35 144.84271L65.35 146.03021L61.35 146.03021L60.81875 148.71771Q61.725 148.09271 62.709373 148.09271Q64.02187 148.09271 64.9125 148.99896Q65.81875 149.90521 65.81875 151.34271Q65.81875 152.70209 65.0375 153.68646Q64.06875 154.90521 62.396873 154.90521Q61.0375 154.90521 60.1625 154.13959Q59.303123 153.37396 59.178123 152.10834ZM67.17812 149.79584Q67.17812 148.01459 67.5375 146.93646Q67.9125 145.84271 68.63125 145.26459Q69.35 144.67084 70.44375 144.67084Q71.25625 144.67084 71.86562 144.99896Q72.475 145.32709 72.86562 145.93646Q73.27187 146.54584 73.49062 147.42084Q73.70937 148.29584 73.70937 149.79584Q73.70937 151.56146 73.35 152.63959Q72.99062 153.71771 72.27187 154.31146Q71.55312 154.90521 70.44375 154.90521Q69.00625 154.90521 68.17812 153.85834Q67.17812 152.60834 67.17812 149.79584ZM68.44375 149.79584Q68.44375 152.26459 69.02187 153.07709Q69.6 153.88959 70.44375 153.88959Q71.30312 153.88959 71.88125 153.07709Q72.45937 152.24896 72.45937 149.79584Q72.45937 147.31146 71.88125 146.49896Q71.30312 145.68646 70.42812 145.68646Q69.58437 145.68646 69.08437 146.40521Q68.44375 147.32709 68.44375 149.79584ZM75.17812 149.79584Q75.17812 148.01459 75.5375 146.93646Q75.9125 145.84271 76.63125 145.26459Q77.35 144.67084 78.44375 144.67084Q79.25625 144.67084 79.86562 144.99896Q80.475 145.32709 80.86562 145.93646Q81.27187 146.54584 81.49062 147.42084Q81.70937 148.29584 81.70937 149.79584Q81.70937 151.56146 81.35 152.63959Q80.99062 153.71771 80.27187 154.31146Q79.55312 154.90521 78.44375 154.90521Q77.00625 154.90521 76.17812 153.85834Q75.17812 152.60834 75.17812 149.79584ZM76.44375 149.79584Q76.44375 152.26459 77.02187 153.07709Q77.6 153.88959 78.44375 153.88959Q79.30312 153.88959 79.88125 153.07709Q80.45937 152.24896 80.45937 149.79584Q80.45937 147.31146 79.88125 146.49896Q79.30312 145.68646 78.42812 145.68646Q77.58437 145.68646 77.08437 146.40521Q76.44375 147.32709 76.44375 149.79584Z" fill-rule="nonzero"/><path fill="#000000" d="M59.25625 121.69687L59.25625 120.50937L65.75625 120.50937L65.75625 121.462494Q64.7875 122.47812 63.85 124.16562Q62.9125 125.85312 62.396873 127.649994Q62.0375 128.9 61.928123 130.4L60.6625 130.4Q60.678123 129.2125 61.115623 127.54062Q61.56875 125.868744 62.396873 124.32187Q63.240623 122.75937 64.17812 121.69687L59.25625 121.69687ZM67.17812 127.774994L68.475 127.66562Q68.61562 128.60312 69.13125 129.0875Q69.6625 129.55624 70.39687 129.55624Q71.2875 129.55624 71.89687 128.88437Q72.52187 128.2125 72.52187 127.118744Q72.52187 126.056244 71.92812 125.44687Q71.33437 124.837494 70.38125 124.837494Q69.7875 124.837494 69.30312 125.118744Q68.83437 125.38437 68.55312 125.806244L67.39687 125.66562L68.36562 120.50937L73.35 120.50937L73.35 121.69687L69.35 121.69687L68.81875 124.38437Q69.725 123.75937 70.70937 123.75937Q72.02187 123.75937 72.9125 124.66562Q73.81875 125.57187 73.81875 127.00937Q73.81875 128.36874 73.0375 129.35312Q72.06875 130.57187 70.39687 130.57187Q69.0375 130.57187 68.1625 129.80624Q67.30312 129.04062 67.17812 127.774994ZM75.17812 125.462494Q75.17812 123.681244 75.5375 122.60312Q75.9125 121.50937 76.63125 120.931244Q77.35 120.337494 78.44375 120.337494Q79.25625 120.337494 79.86562 120.66562Q80.475 120.993744 80.86562 121.60312Q81.27187 122.212494 81.49062 123.087494Q81.70937 123.962494 81.70937 125.462494Q81.70937 127.22812 81.35 128.30624Q80.99062 129.38437 80.27187 129.97812Q79.55312 130.57187 78.44375 130.57187Q77.00625 130.57187 76.17812 129.525Q75.17812 128.275 75.17812 125.462494ZM76.44375 125.462494Q76.44375 127.931244 77.02187 128.74374Q77.6 129.55624 78.44375 129.55624Q79.30312 129.55624 79.88125 128.74374Q80.45937 127.91562 80.45937 125.462494Q80.45937 122.97812 79.88125 122.16562Q79.30312 121.35312 78.42812 121.35312Q77.58437 121.35312 77.08437 122.07187Q76.44375 122.993744 76.44375 125.462494Z" fill-rule="nonzero"/><path fill="#000000" d="M55.81875 106.066666L54.584373 106.066666L54.584373 98.222916Q54.146873 98.64479 53.4125 99.08229Q52.69375 99.504166 52.13125 99.70729L52.13125 98.51979Q53.1625 98.035416 53.928123 97.347916Q54.709373 96.660416 55.021873 96.004166L55.81875 96.004166L55.81875 106.066666ZM59.178123 101.129166Q59.178123 99.347916 59.5375 98.26979Q59.9125 97.17604 60.63125 96.597916Q61.35 96.004166 62.44375 96.004166Q63.25625 96.004166 63.865623 96.33229Q64.475 96.660416 64.86562 97.26979Q65.27187 97.879166 65.49062 98.754166Q65.70937 99.629166 65.70937 101.129166Q65.70937 102.89479 65.35 103.972916Q64.99062 105.05104 64.27187 105.64479Q63.553123 106.23854 62.44375 106.23854Q61.00625 106.23854 60.178123 105.191666Q59.178123 103.941666 59.178123 101.129166ZM60.44375 101.129166Q60.44375 103.597916 61.021873 104.410416Q61.6 105.222916 62.44375 105.222916Q63.303123 105.222916 63.88125 104.410416Q64.45937 103.58229 64.45937 101.129166Q64.45937 98.64479 63.88125 97.83229Q63.303123 97.01979 62.428123 97.01979Q61.584373 97.01979 61.084373 97.73854Q60.44375 98.660416 60.44375 101.129166ZM67.17812 101.129166Q67.17812 99.347916 67.5375 98.26979Q67.9125 97.17604 68.63125 96.597916Q69.35 96.004166 70.44375 96.004166Q71.25625 96.004166 71.86562 96.33229Q72.475 96.660416 72.86562 97.26979Q73.27187 97.879166 73.49062 98.754166Q73.70937 99.629166 73.70937 101.129166Q73.70937 102.89479 73.35 103.972916Q72.99062 105.05104 72.27187 105.64479Q71.55312 106.23854 70.44375 106.23854Q69.00625 106.23854 68.17812 105.191666Q67.17812 103.941666 67.17812 101.129166ZM68.44375 101.129166Q68.44375 103.597916 69.02187 104.410416Q69.6 105.222916 70.44375 105.222916Q71.30312 105.222916 71.88125 104.410416Q72.45937 103.58229 72.45937 101.129166Q72.45937 98.64479 71.88125 97.83229Q71.30312 97.01979 70.42812 97.01979Q69.58437 97.01979 69.08437 97.73854Q68.44375 98.660416 68.44375 101.129166ZM75.17812 101.129166Q75.17812 99.347916 75.5375 98.26979Q75.9125 97.17604 76.63125 96.597916Q77.35 96.004166 78.44375 96.004166Q79.25625 96.004166 79.86562 96.33229Q80.475 96.660416 80.86562 97.26979Q81.27187 97.879166 81.49062 98.754166Q81.70937 99.629166 81.70937 101.129166Q81.70937 102.89479 81.35 103.972916Q80.99062 105.05104 80.27187 105.64479Q79.55312 106.23854 78.44375 106.23854Q77.00625 106.23854 76.17812 105.191666Q75.17812 103.941666 75.17812 101.129166ZM76.44375 101.129166Q76.44375 103.597916 77.02187 104.410416Q77.6 105.222916 78.44375 105.222916Q79.30312 105.222916 79.88125 104.410416Q80.45937 103.58229 80.45937 101.129166Q80.45937 98.64479 79.88125 97.83229Q79.30312 97.01979 78.42812 97.01979Q77.58437 97.01979 77.08437 97.73854Q76.44375 98.660416 76.44375 101.129166Z" fill-rule="nonzero"/><path fill="#000000" d="M55.81875 81.73333L54.584373 81.73333L54.584373 73.88958Q54.146873 74.311455 53.4125 74.748955Q52.69375 75.17083 52.13125 75.373955L52.13125 74.186455Q53.1625 73.70208 53.928123 73.01458Q54.709373 72.32708 55.021873 71.67083L55.81875 71.67083L55.81875 81.73333ZM65.64687 80.54583L65.64687 81.73333L59.021873 81.73333Q59.00625 81.29583 59.1625 80.873955Q59.428123 80.20208 59.975 79.54583Q60.5375 78.88958 61.584373 78.030205Q63.225 76.686455 63.7875 75.905205Q64.36562 75.123955 64.36562 74.42083Q64.36562 73.686455 63.834373 73.186455Q63.31875 72.686455 62.490623 72.686455Q61.6 72.686455 61.053123 73.217705Q60.521873 73.748955 60.521873 74.70208L59.25625 74.561455Q59.38125 73.155205 60.225 72.42083Q61.084373 71.67083 62.50625 71.67083Q63.959373 71.67083 64.7875 72.467705Q65.63125 73.26458 65.63125 74.45208Q65.63125 75.061455 65.38125 75.63958Q65.14687 76.217705 64.56875 76.85833Q64.00625 77.498955 62.678123 78.623955Q61.56875 79.54583 61.25625 79.88958Q60.94375 80.217705 60.740623 80.54583L65.64687 80.54583ZM67.17812 79.10833L68.475 78.998955Q68.61562 79.936455 69.13125 80.42083Q69.6625 80.88958 70.39687 80.88958Q71.2875 80.88958 71.89687 80.217705Q72.52187 79.54583 72.52187 78.45208Q72.52187 77.38958 71.92812 76.780205Q71.33437 76.17083 70.38125 76.17083Q69.7875 76.17083 69.30312 76.45208Q68.83437 76.717705 68.55312 77.13958L67.39687 76.998955L68.36562 71.842705L73.35 71.842705L73.35 73.030205L69.35 73.030205L68.81875 75.717705Q69.725 75.092705 70.70937 75.092705Q72.02187 75.092705 72.9125 75.998955Q73.81875 76.905205 73.81875 78.342705Q73.81875 79.70208 73.0375 80.686455Q72.06875 81.905205 70.39687 81.905205Q69.0375 81.905205 68.1625 81.13958Q67.30312 80.373955 67.17812 79.10833ZM75.17812 76.79583Q75.17812 75.01458 75.5375 73.936455Q75.9125 72.842705 76.63125 72.26458Q77.35 71.67083 78.44375 71.67083Q79.25625 71.67083 79.86562 71.998955Q80.475 72.32708 80.86562 72.936455Q81.27187 73.54583 81.49062 74.42083Q81.70937 75.29583 81.70937 76.79583Q81.70937 78.561455 81.35 79.63958Q80.99062 80.717705 80.27187 81.311455Q79.55312 81.905205 78.44375 81.905205Q77.00625 81.905205 76.17812 80.85833Q75.17812 79.60833 75.17812 76.79583ZM76.44375 76.79583Q76.44375 79.26458 77.02187 80.07708Q77.6 80.88958 78.44375 80.88958Q79.30312 80.88958 79.88125 80.07708Q80.45937 79.248955 80.45937 76.79583Q80.45937 74.311455 79.88125 73.498955Q79.30312 72.686455 78.42812 72.686455Q77.58437 72.686455 77.08437 73.405205Q76.44375 74.32708 76.44375 76.79583Z" fill-rule="nonzero"/><path fill="#000000" d="M86.17812 213.4625Q86.17812 211.68124 86.5375 210.60312Q86.9125 209.50937 87.63125 208.93124Q88.35 208.3375 89.44375 208.3375Q90.25625 208.3375 90.86562 208.66562Q91.475 208.99374 91.86562 209.60312Q92.27187 210.2125 92.49062 211.0875Q92.70937 211.9625 92.70937 213.4625Q92.70937 215.22812 92.35 216.30624Q91.99062 217.38437 91.27187 217.97812Q90.55312 218.57187 89.44375 218.57187Q88.00625 218.57187 87.17812 217.525Q86.17812 216.275 86.17812 213.4625ZM87.44375 213.4625Q87.44375 215.93124 88.02187 216.74374Q88.6 217.55624 89.44375 217.55624Q90.30312 217.55624 90.88125 216.74374Q91.45937 215.91562 91.45937 213.4625Q91.45937 210.97812 90.88125 210.16562Q90.30312 209.35312 89.42812 209.35312Q88.58437 209.35312 88.08437 210.07187Q87.44375 210.99374 87.44375 213.4625Z" fill-rule="nonzero"/><path fill="#000000" d="M153.1802 217.2125L153.1802 218.4L146.5552 218.4Q146.53958 217.9625 146.69583 217.54062Q146.96146 216.86874 147.50833 216.2125Q148.07083 215.55624 149.1177 214.69687Q150.75833 213.35312 151.32083 212.57187Q151.89896 211.79062 151.89896 211.0875Q151.89896 210.35312 151.3677 209.85312Q150.85208 209.35312 150.02396 209.35312Q149.13333 209.35312 148.58646 209.88437Q148.0552 210.41562 148.0552 211.36874L146.78958 211.22812Q146.91458 209.82187 147.75833 209.0875Q148.6177 208.3375 150.03958 208.3375Q151.4927 208.3375 152.32083 209.13437Q153.16458 209.93124 153.16458 211.11874Q153.16458 211.72812 152.91458 212.30624Q152.6802 212.88437 152.10208 213.525Q151.53958 214.16562 150.21146 215.29062Q149.10208 216.2125 148.78958 216.55624Q148.47708 216.88437 148.27396 217.2125L153.1802 217.2125Z" fill-rule="nonzero"/><path fill="#000000" d="M211.19792 218.4L211.19792 215.99374L206.83855 215.99374L206.83855 214.86874L211.41667 208.38437L212.41667 208.38437L212.41667 214.86874L213.77605 214.86874L213.77605 215.99374L212.41667 215.99374L212.41667 218.4L211.19792 218.4ZM211.19792 214.86874L211.19792 210.35312L208.0573 214.86874L211.19792 214.86874Z" fill-rule="nonzero"/><path fill="#000000" d="M274.16876 210.8375L272.95 210.93124Q272.77814 210.19687 272.48126 209.86874Q271.98126 209.35312 271.2469 209.35312Q270.65314 209.35312 270.21564 209.68124Q269.6375 210.10312 269.29376 210.91562Q268.96564 211.72812 268.95 213.22812Q269.3875 212.55624 270.02814 212.22812Q270.6844 211.9 271.3875 211.9Q272.6219 211.9 273.48126 212.80624Q274.34064 213.7125 274.34064 215.15Q274.34064 216.0875 273.9344 216.9Q273.52814 217.7125 272.8094 218.15Q272.10626 218.57187 271.2 218.57187Q269.66876 218.57187 268.7 217.44687Q267.73126 216.30624 267.73126 213.7125Q267.73126 210.80624 268.79376 209.47812Q269.73126 208.3375 271.325 208.3375Q272.5125 208.3375 273.2625 209.00937Q274.0125 209.66562 274.16876 210.8375ZM269.1375 215.15Q269.1375 215.79062 269.40314 216.36874Q269.6844 216.94687 270.16876 217.25937Q270.65314 217.55624 271.1844 217.55624Q271.96564 217.55624 272.52814 216.93124Q273.09064 216.30624 273.09064 215.22812Q273.09064 214.18124 272.52814 213.5875Q271.98126 212.97812 271.1375 212.97812Q270.3094 212.97812 269.71564 213.5875Q269.1375 214.18124 269.1375 215.15Z" fill-rule="nonzero"/><path fill="#000000" d="M330.2021 212.9625Q329.43646 212.68124 329.06146 212.16562Q328.7021 211.65 328.7021 210.91562Q328.7021 209.82187 329.48334 209.0875Q330.2802 208.3375 331.5771 208.3375Q332.8896 208.3375 333.68646 209.10312Q334.49896 209.86874 334.49896 210.9625Q334.49896 211.65 334.12396 212.16562Q333.7646 212.68124 333.0146 212.9625Q333.93646 213.25937 334.42084 213.93124Q334.9052 214.60312 334.9052 215.54062Q334.9052 216.82187 333.99896 217.69687Q333.0927 218.57187 331.60834 218.57187Q330.12396 218.57187 329.2021 217.69687Q328.29584 216.80624 328.29584 215.49374Q328.29584 214.525 328.79584 213.86874Q329.29584 213.19687 330.2021 212.9625ZM329.9677 210.88437Q329.9677 211.5875 330.42084 212.04062Q330.87396 212.49374 331.60834 212.49374Q332.3271 212.49374 332.7802 212.05624Q333.23334 211.60312 333.23334 210.94687Q333.23334 210.275 332.7646 209.82187Q332.29584 209.35312 331.5927 209.35312Q330.8896 209.35312 330.42084 209.80624Q329.9677 210.24374 329.9677 210.88437ZM329.56146 215.50937Q329.56146 216.04062 329.81146 216.54062Q330.06146 217.025 330.54584 217.29062Q331.04584 217.55624 331.62396 217.55624Q332.49896 217.55624 333.06146 216.99374Q333.6396 216.43124 333.6396 215.55624Q333.6396 214.66562 333.04584 214.0875Q332.4677 213.49374 331.5771 213.49374Q330.7021 213.49374 330.12396 214.07187Q329.56146 214.65 329.56146 215.50937Z" fill-rule="nonzero"/><path fill="#000000" d="M389.4854 218.4L388.25104 218.4L388.25104 210.55624Q387.81354 210.97812 387.07916 211.41562Q386.3604 211.8375 385.7979 212.04062L385.7979 210.85312Q386.82916 210.36874 387.5948 209.68124Q388.37604 208.99374 388.68854 208.3375L389.4854 208.3375L389.4854 218.4ZM392.8448 213.4625Q392.8448 211.68124 393.20416 210.60312Q393.57916 209.50937 394.2979 208.93124Q395.01666 208.3375 396.1104 208.3375Q396.9229 208.3375 397.5323 208.66562Q398.14166 208.99374 398.5323 209.60312Q398.93854 210.2125 399.1573 211.0875Q399.37604 211.9625 399.37604 213.4625Q399.37604 215.22812 399.01666 216.30624Q398.6573 217.38437 397.93854 217.97812Q397.2198 218.57187 396.1104 218.57187Q394.6729 218.57187 393.8448 217.525Q392.8448 216.275 392.8448 213.4625ZM394.1104 213.4625Q394.1104 215.93124 394.68854 216.74374Q395.26666 217.55624 396.1104 217.55624Q396.9698 217.55624 397.5479 216.74374Q398.12604 215.91562 398.12604 213.4625Q398.12604 210.97812 397.5479 210.16562Q396.9698 209.35312 396.0948 209.35312Q395.25104 209.35312 394.75104 210.07187Q394.1104 210.99374 394.1104 213.4625Z" fill-rule="nonzero"/><path fill="#000000" d="M450.01874 218.4L448.78436 218.4L448.78436 210.55624Q448.34686 210.97812 447.6125 211.41562Q446.89374 211.8375 446.33124 212.04062L446.33124 210.85312Q447.3625 210.36874 448.1281 209.68124Q448.90936 208.99374 449.22186 208.3375L450.01874 208.3375L450.01874 218.4ZM459.84686 217.2125L459.84686 218.4L453.22186 218.4Q453.20624 217.9625 453.3625 217.54062Q453.6281 216.86874 454.175 216.2125Q454.7375 215.55624 455.78436 214.69687Q457.425 213.35312 457.9875 212.57187Q458.5656 211.79062 458.5656 211.0875Q458.5656 210.35312 458.03436 209.85312Q457.51874 209.35312 456.6906 209.35312Q455.8 209.35312 455.2531 209.88437Q454.72186 210.41562 454.72186 211.36874L453.45624 211.22812Q453.58124 209.82187 454.425 209.0875Q455.28436 208.3375 456.70624 208.3375Q458.15936 208.3375 458.9875 209.13437Q459.83124 209.93124 459.83124 211.11874Q459.83124 211.72812 459.58124 212.30624Q459.34686 212.88437 458.76874 213.525Q458.20624 214.16562 456.8781 215.29062Q455.76874 216.2125 455.45624 216.55624Q455.14374 216.88437 454.9406 217.2125L459.84686 217.2125Z" fill-rule="nonzero"/><path fill="#000000" d="M510.5521 218.4L509.31772 218.4L509.31772 210.55624Q508.88022 210.97812 508.14584 211.41562Q507.4271 211.8375 506.8646 212.04062L506.8646 210.85312Q507.89584 210.36874 508.66147 209.68124Q509.44272 208.99374 509.75522 208.3375L510.5521 208.3375L510.5521 218.4ZM517.8646 218.4L517.8646 215.99374L513.50525 215.99374L513.50525 214.86874L518.0834 208.38437L519.0834 208.38437L519.0834 214.86874L520.44275 214.86874L520.44275 215.99374L519.0834 215.99374L519.0834 218.4L517.8646 218.4ZM517.8646 214.86874L517.8646 210.35312L514.724 214.86874L517.8646 214.86874Z" fill-rule="nonzero"/><path fill="#000000" d="M571.0854 218.4L569.851 218.4L569.851 210.55624Q569.4135 210.97812 568.67914 211.41562Q567.9604 211.8375 567.3979 212.04062L567.3979 210.85312Q568.42914 210.36874 569.19476 209.68124Q569.976 208.99374 570.2885 208.3375L571.0854 208.3375L571.0854 218.4ZM580.8354 210.8375L579.61664 210.93124Q579.44476 210.19687 579.1479 209.86874Q578.6479 209.35312 577.9135 209.35312Q577.31976 209.35312 576.88226 209.68124Q576.30414 210.10312 575.9604 210.91562Q575.63226 211.72812 575.61664 213.22812Q576.05414 212.55624 576.69476 212.22812Q577.351 211.9 578.05414 211.9Q579.2885 211.9 580.1479 212.80624Q581.00726 213.7125 581.00726 215.15Q581.00726 216.0875 580.601 216.9Q580.19476 217.7125 579.476 218.15Q578.7729 218.57187 577.86664 218.57187Q576.3354 218.57187 575.36664 217.44687Q574.3979 216.30624 574.3979 213.7125Q574.3979 210.80624 575.4604 209.47812Q576.3979 208.3375 577.99164 208.3375Q579.17914 208.3375 579.92914 209.00937Q580.67914 209.66562 580.8354 210.8375ZM575.80414 215.15Q575.80414 215.79062 576.06976 216.36874Q576.351 216.94687 576.8354 217.25937Q577.31976 217.55624 577.851 217.55624Q578.63226 217.55624 579.19476 216.93124Q579.75726 216.30624 579.75726 215.22812Q579.75726 214.18124 579.19476 213.5875Q578.6479 212.97812 577.80414 212.97812Q576.976 212.97812 576.38226 213.5875Q575.80414 214.18124 575.80414 215.15Z" fill-rule="nonzero"/><path fill="#000000" d="M631.6188 218.4L630.3844 218.4L630.3844 210.55624Q629.9469 210.97812 629.2125 211.41562Q628.4938 211.8375 627.9313 212.04062L627.9313 210.85312Q628.9625 210.36874 629.72815 209.68124Q630.5094 208.99374 630.8219 208.3375L631.6188 208.3375L631.6188 218.4ZM636.8688 212.9625Q636.10315 212.68124 635.72815 212.16562Q635.3688 211.65 635.3688 210.91562Q635.3688 209.82187 636.15 209.0875Q636.9469 208.3375 638.2438 208.3375Q639.5563 208.3375 640.35315 209.10312Q641.16565 209.86874 641.16565 210.9625Q641.16565 211.65 640.79065 212.16562Q640.4313 212.68124 639.6813 212.9625Q640.60315 213.25937 641.0875 213.93124Q641.5719 214.60312 641.5719 215.54062Q641.5719 216.82187 640.66565 217.69687Q639.7594 218.57187 638.275 218.57187Q636.79065 218.57187 635.8688 217.69687Q634.9625 216.80624 634.9625 215.49374Q634.9625 214.525 635.4625 213.86874Q635.9625 213.19687 636.8688 212.9625ZM636.6344 210.88437Q636.6344 211.5875 637.0875 212.04062Q637.54065 212.49374 638.275 212.49374Q638.9938 212.49374 639.4469 212.05624Q639.9 211.60312 639.9 210.94687Q639.9 210.275 639.4313 209.82187Q638.9625 209.35312 638.2594 209.35312Q637.5563 209.35312 637.0875 209.80624Q636.6344 210.24374 636.6344 210.88437ZM636.22815 215.50937Q636.22815 216.04062 636.47815 216.54062Q636.72815 217.025 637.2125 217.29062Q637.7125 217.55624 638.29065 217.55624Q639.16565 217.55624 639.72815 216.99374Q640.3063 216.43124 640.3063 215.55624Q640.3063 214.66562 639.7125 214.0875Q639.1344 213.49374 638.2438 213.49374Q637.3688 213.49374 636.79065 214.07187Q636.22815 214.65 636.22815 215.50937Z" fill-rule="nonzero"/><path stroke="#4285f4" stroke-width="4.0" stroke-linecap="butt" d="M187.0 51.666668L199.0 51.666668" fill-rule="nonzero"/><path fill="#1a1a1a" d="M209.9375 56.666668L207.17188 49.401043L208.48438 49.401043L210.03125 53.760418Q210.28125 54.463543 210.5 55.213543Q210.67188 54.635418 210.95312 53.838543L212.57812 49.401043L213.84375 49.401043L211.09375 56.666668L209.9375 56.666668ZM215.03125 56.666668L215.03125 46.651043L216.35938 46.651043L216.35938 55.479168L221.28125 55.479168L221.28125 56.666668L215.03125 56.666668ZM223.03125 56.666668L223.03125 46.651043L224.35938 46.651043L224.35938 55.479168L229.28125 55.479168L229.28125 56.666668L223.03125 56.666668ZM231.04688 56.666668L231.04688 46.651043L233.03125 46.651043L235.40625 53.744793Q235.73438 54.729168 235.89062 55.229168Q236.0625 54.682293 236.42188 53.619793L238.8125 46.651043L240.60938 46.651043L240.60938 56.666668L239.32812 56.666668L239.32812 48.276043L236.40625 56.666668L235.21875 56.666668L232.3125 48.135418L232.3125 56.666668L231.04688 56.666668Z" fill-rule="nonzero"/><path stroke="#ea4335" stroke-width="4.0" stroke-linecap="butt" d="M257.0 51.666668L269.0 51.666668" fill-rule="nonzero"/><path fill="#1a1a1a" d="M280.625 56.666668L280.625 47.822918L277.32812 47.822918L277.32812 46.651043L285.26562 46.651043L285.26562 47.822918L281.95312 47.822918L281.95312 56.666668L280.625 56.666668ZM291.89062 54.322918L293.17188 54.479168Q292.85938 55.604168 292.04688 56.229168Q291.23438 56.838543 289.96875 56.838543Q288.375 56.838543 287.4375 55.854168Q286.51562 54.869793 286.51562 53.104168Q286.51562 51.260418 287.45312 50.260418Q288.40625 49.244793 289.90625 49.244793Q291.35938 49.244793 292.28125 50.244793Q293.20312 51.229168 293.20312 53.026043Q293.20312 53.135418 293.20312 53.354168L287.78125 53.354168Q287.85938 54.541668 288.45312 55.182293Q289.0625 55.822918 289.98438 55.822918Q290.65625 55.822918 291.125 55.463543Q291.60938 55.104168 291.89062 54.322918ZM287.85938 52.338543L291.90625 52.338543Q291.82812 51.416668 291.4375 50.963543Q290.85938 50.260418 289.92188 50.260418Q289.0625 50.260418 288.48438 50.822918Q287.92188 51.385418 287.85938 52.338543ZM294.92188 56.666668L294.92188 49.401043L296.03125 49.401043L296.03125 50.432293Q296.82812 49.244793 298.34375 49.244793Q299.0 49.244793 299.54688 49.479168Q300.09375 49.713543 300.35938 50.104168Q300.64062 50.479168 300.75 51.010418Q300.82812 51.354168 300.82812 52.197918L300.82812 56.666668L299.59375 56.666668L299.59375 52.244793Q299.59375 51.494793 299.45312 51.135418Q299.3125 50.760418 298.9375 50.541668Q298.57812 50.307293 298.07812 50.307293Q297.29688 50.307293 296.71875 50.807293Q296.15625 51.307293 296.15625 52.697918L296.15625 56.666668L294.92188 56.666668ZM302.4375 54.494793L303.64062 54.307293Q303.75 55.041668 304.21875 55.432293Q304.6875 55.822918 305.53125 55.822918Q306.375 55.822918 306.78125 55.479168Q307.20312 55.135418 307.20312 54.666668Q307.20312 54.244793 306.82812 54.010418Q306.57812 53.838543 305.57812 53.588543Q304.21875 53.244793 303.6875 52.994793Q303.17188 52.744793 302.90625 52.307293Q302.64062 51.869793 302.64062 51.338543Q302.64062 50.854168 302.85938 50.447918Q303.07812 50.026043 303.46875 49.744793Q303.75 49.541668 304.23438 49.401043Q304.73438 49.244793 305.3125 49.244793Q306.15625 49.244793 306.79688 49.494793Q307.45312 49.729168 307.76562 50.151043Q308.07812 50.572918 308.1875 51.276043L306.98438 51.447918Q306.90625 50.885418 306.5 50.572918Q306.10938 50.260418 305.39062 50.260418Q304.54688 50.260418 304.1875 50.541668Q303.82812 50.807293 303.82812 51.197918Q303.82812 51.432293 303.96875 51.619793Q304.125 51.822918 304.45312 51.947918Q304.625 52.010418 305.53125 52.260418Q306.84375 52.619793 307.35938 52.838543Q307.875 53.057293 308.15625 53.479168Q308.45312 53.901043 308.45312 54.526043Q308.45312 55.151043 308.09375 55.697918Q307.75 56.229168 307.0625 56.541668Q306.39062 56.838543 305.53125 56.838543Q304.125 56.838543 303.375 56.244793Q302.64062 55.651043 302.4375 54.494793ZM309.46875 53.041668Q309.46875 51.026043 310.59375 50.041668Q311.51562 49.244793 312.875 49.244793Q314.35938 49.244793 315.3125 50.229168Q316.26562 51.197918 316.26562 52.932293Q316.26562 54.338543 315.84375 55.151043Q315.42188 55.947918 314.60938 56.401043Q313.8125 56.838543 312.875 56.838543Q311.34375 56.838543 310.40625 55.854168Q309.46875 54.869793 309.46875 53.041668ZM310.73438 53.041668Q310.73438 54.432293 311.34375 55.135418Q311.95312 55.822918 312.875 55.822918Q313.78125 55.822918 314.39062 55.119793Q315.0 54.416668 315.0 52.994793Q315.0 51.651043 314.39062 50.963543Q313.78125 50.260418 312.875 50.260418Q311.95312 50.260418 311.34375 50.947918Q310.73438 51.635418 310.73438 53.041668ZM317.90625 56.666668L317.90625 49.401043L319.01562 49.401043L319.01562 50.510418Q319.4375 49.729168 319.79688 49.494793Q320.15625 49.244793 320.59375 49.244793Q321.21875 49.244793 321.85938 49.635418L321.4375 50.776043Q320.98438 50.510418 320.53125 50.510418Q320.125 50.510418 319.79688 50.760418Q319.48438 50.994793 319.34375 51.432293Q319.14062 52.088543 319.14062 52.869793L319.14062 56.666668L317.90625 56.666668ZM323.09375 56.666668L323.09375 46.651043L327.54688 46.651043Q328.89062 46.651043 329.57812 46.916668Q330.28125 47.182293 330.6875 47.869793Q331.10938 48.557293 331.10938 49.385418Q331.10938 50.447918 330.42188 51.182293Q329.73438 51.901043 328.29688 52.104168Q328.8125 52.354168 329.09375 52.604168Q329.67188 53.135418 330.1875 53.932293L331.9375 56.666668L330.26562 56.666668L328.9375 54.588543Q328.35938 53.682293 327.98438 53.213543Q327.60938 52.729168 327.3125 52.541668Q327.01562 52.338543 326.70312 52.260418Q326.48438 52.213543 325.96875 52.213543L324.42188 52.213543L324.42188 56.666668L323.09375 56.666668ZM324.42188 51.072918L327.28125 51.072918Q328.1875 51.072918 328.70312 50.885418Q329.21875 50.697918 329.48438 50.291668Q329.75 49.869793 329.75 49.385418Q329.75 48.666668 329.23438 48.213543Q328.71875 47.744793 327.59375 47.744793L324.42188 47.744793L324.42188 51.072918ZM335.625 56.666668L335.625 47.822918L332.32812 47.822918L332.32812 46.651043L340.26562 46.651043L340.26562 47.822918L336.95312 47.822918L336.95312 56.666668L335.625 56.666668ZM341.4375 53.651043L341.4375 52.416668L345.21875 52.416668L345.21875 53.651043L341.4375 53.651043ZM347.03125 56.666668L347.03125 46.651043L348.35938 46.651043L348.35938 55.479168L353.28125 55.479168L353.28125 56.666668L347.03125 56.666668ZM355.03125 56.666668L355.03125 46.651043L356.35938 46.651043L356.35938 55.479168L361.28125 55.479168L361.28125 56.666668L355.03125 56.666668ZM363.04688 56.666668L363.04688 46.651043L365.03125 46.651043L367.40625 53.744793Q367.73438 54.729168 367.89062 55.229168Q368.0625 54.682293 368.42188 53.619793L370.8125 46.651043L372.60938 46.651043L372.60938 56.666668L371.32812 56.666668L371.32812 48.276043L368.40625 56.666668L367.21875 56.666668L364.3125 48.135418L364.3125 56.666668L363.04688 56.666668Z" fill-rule="nonzero"/><path stroke="#fbbc04" stroke-width="4.0" stroke-linecap="butt" d="M389.0 51.666668L401.0 51.666668" fill-rule="nonzero"/><path fill="#1a1a1a" d="M409.625 53.447918L410.875 53.338543Q410.96875 54.088543 411.29688 54.572918Q411.625 55.057293 412.29688 55.354168Q412.98438 55.651043 413.84375 55.651043Q414.59375 55.651043 415.17188 55.432293Q415.76562 55.197918 416.04688 54.807293Q416.32812 54.416668 416.32812 53.947918Q416.32812 53.479168 416.04688 53.135418Q415.78125 52.776043 415.15625 52.526043Q414.75 52.369793 413.35938 52.041668Q411.98438 51.713543 411.4375 51.416668Q410.71875 51.041668 410.35938 50.494793Q410.01562 49.932293 410.01562 49.229168Q410.01562 48.479168 410.4375 47.822918Q410.875 47.151043 411.70312 46.822918Q412.53125 46.479168 413.54688 46.479168Q414.65625 46.479168 415.5 46.838543Q416.35938 47.197918 416.8125 47.901043Q417.26562 48.588543 417.3125 49.463543L416.03125 49.557293Q415.9375 48.619793 415.34375 48.135418Q414.75 47.635418 413.59375 47.635418Q412.39062 47.635418 411.84375 48.088543Q411.29688 48.526043 411.29688 49.151043Q411.29688 49.682293 411.6875 50.041668Q412.0625 50.385418 413.67188 50.760418Q415.29688 51.119793 415.89062 51.385418Q416.76562 51.791668 417.1875 52.416668Q417.60938 53.026043 417.60938 53.838543Q417.60938 54.635418 417.14062 55.354168Q416.6875 56.057293 415.82812 56.447918Q414.96875 56.838543 413.90625 56.838543Q412.54688 56.838543 411.625 56.447918Q410.70312 56.041668 410.17188 55.244793Q409.65625 54.447918 409.625 53.447918ZM423.76562 52.729168L423.76562 51.557293L428.01562 51.557293L428.01562 55.276043Q427.03125 56.057293 425.98438 56.447918Q424.95312 56.838543 423.85938 56.838543Q422.39062 56.838543 421.17188 56.213543Q419.96875 55.572918 419.35938 54.385418Q418.75 53.182293 418.75 51.697918Q418.75 50.244793 419.35938 48.979168Q419.96875 47.697918 421.10938 47.088543Q422.26562 46.479168 423.76562 46.479168Q424.84375 46.479168 425.71875 46.838543Q426.60938 47.182293 427.10938 47.807293Q427.60938 48.432293 427.85938 49.447918L426.67188 49.776043Q426.4375 49.010418 426.09375 48.572918Q425.76562 48.135418 425.14062 47.869793Q424.53125 47.604168 423.76562 47.604168Q422.85938 47.604168 422.1875 47.885418Q421.53125 48.166668 421.125 48.619793Q420.71875 49.057293 420.5 49.604168Q420.10938 50.541668 420.10938 51.619793Q420.10938 52.963543 420.5625 53.869793Q421.03125 54.760418 421.90625 55.197918Q422.79688 55.635418 423.79688 55.635418Q424.65625 55.635418 425.46875 55.307293Q426.29688 54.979168 426.71875 54.604168L426.71875 52.729168L423.76562 52.729168ZM430.03125 56.666668L430.03125 46.651043L431.35938 46.651043L431.35938 55.479168L436.28125 55.479168L436.28125 56.666668L430.03125 56.666668ZM442.65625 55.776043Q441.98438 56.354168 441.34375 56.604168Q440.71875 56.838543 439.98438 56.838543Q438.79688 56.838543 438.14062 56.260418Q437.5 55.666668 437.5 54.744793Q437.5 54.213543 437.73438 53.776043Q437.98438 53.338543 438.375 53.072918Q438.78125 52.807293 439.26562 52.666668Q439.625 52.572918 440.35938 52.479168Q441.85938 52.307293 442.5625 52.057293Q442.5625 51.807293 442.5625 51.744793Q442.5625 50.979168 442.21875 50.682293Q441.75 50.260418 440.8125 50.260418Q439.95312 50.260418 439.53125 50.572918Q439.125 50.869793 438.92188 51.635418L437.71875 51.479168Q437.875 50.697918 438.25 50.229168Q438.64062 49.760418 439.34375 49.510418Q440.0625 49.244793 441.0 49.244793Q441.92188 49.244793 442.5 49.463543Q443.07812 49.682293 443.34375 50.010418Q443.625 50.338543 443.73438 50.854168Q443.79688 51.166668 443.79688 51.979168L443.79688 53.619793Q443.79688 55.338543 443.875 55.791668Q443.95312 56.244793 444.1875 56.666668L442.90625 56.666668Q442.71875 56.276043 442.65625 55.776043ZM442.5625 53.026043Q441.89062 53.291668 440.54688 53.494793Q439.79688 53.604168 439.46875 53.744793Q439.15625 53.869793 438.98438 54.135418Q438.8125 54.401043 438.8125 54.713543Q438.8125 55.213543 439.1875 55.541668Q439.5625 55.869793 440.28125 55.869793Q441.0 55.869793 441.54688 55.557293Q442.09375 55.244793 442.35938 54.697918Q442.5625 54.291668 442.5625 53.479168L442.5625 53.026043ZM445.92188 56.666668L445.92188 49.401043L447.03125 49.401043L447.03125 50.432293Q447.82812 49.244793 449.34375 49.244793Q450.0 49.244793 450.54688 49.479168Q451.09375 49.713543 451.35938 50.104168Q451.64062 50.479168 451.75 51.010418Q451.82812 51.354168 451.82812 52.197918L451.82812 56.666668L450.59375 56.666668L450.59375 52.244793Q450.59375 51.494793 450.45312 51.135418Q450.3125 50.760418 449.9375 50.541668Q449.57812 50.307293 449.07812 50.307293Q448.29688 50.307293 447.71875 50.807293Q447.15625 51.307293 447.15625 52.697918L447.15625 56.666668L445.92188 56.666668ZM453.70312 57.276043L454.89062 57.447918Q454.96875 57.994793 455.3125 58.260418Q455.76562 58.588543 456.5625 58.588543Q457.42188 58.588543 457.875 58.244793Q458.34375 57.916668 458.51562 57.291668Q458.60938 56.916668 458.59375 55.713543Q457.79688 56.666668 456.59375 56.666668Q455.09375 56.666668 454.26562 55.588543Q453.45312 54.510418 453.45312 52.994793Q453.45312 51.963543 453.82812 51.088543Q454.20312 50.197918 454.90625 49.729168Q455.625 49.244793 456.59375 49.244793Q457.875 49.244793 458.71875 50.276043L458.71875 49.401043L459.84375 49.401043L459.84375 55.682293Q459.84375 57.385418 459.5 58.088543Q459.15625 58.791668 458.40625 59.197918Q457.65625 59.619793 456.5625 59.619793Q455.26562 59.619793 454.46875 59.026043Q453.67188 58.447918 453.70312 57.276043ZM454.71875 52.901043Q454.71875 54.338543 455.28125 54.994793Q455.84375 55.651043 456.70312 55.651043Q457.54688 55.651043 458.125 54.994793Q458.70312 54.338543 458.70312 52.947918Q458.70312 51.619793 458.10938 50.947918Q457.51562 50.260418 456.6875 50.260418Q455.85938 50.260418 455.28125 50.932293Q454.71875 51.588543 454.71875 52.901043Z" fill-rule="nonzero"/><path fill="#757575" d="M14.9125 30.6L14.9125 17.709375L16.63125 17.709375L16.63125 29.084375L22.975 29.084375L22.975 30.6L14.9125 30.6ZM24.75625 30.6L24.75625 17.709375L26.334375 17.709375L26.334375 30.6L24.75625 30.6ZM34.88125 29.44375Q34.00625 30.19375 33.178123 30.50625Q32.365623 30.81875 31.44375 30.81875Q29.896875 30.81875 29.06875 30.06875Q28.25625 29.303125 28.25625 28.13125Q28.25625 27.459375 28.56875 26.896875Q28.88125 26.31875 29.38125 25.975Q29.88125 25.63125 30.521875 25.459375Q30.990625 25.334375 31.928125 25.225Q33.834373 24.990625 34.740623 24.678125Q34.75625 24.35 34.75625 24.25625Q34.75625 23.303125 34.303123 22.896875Q33.69375 22.365625 32.50625 22.365625Q31.38125 22.365625 30.85 22.75625Q30.31875 23.146875 30.06875 24.146875L28.521875 23.928125Q28.740625 22.928125 29.209375 22.31875Q29.69375 21.709375 30.6 21.38125Q31.521875 21.053125 32.740623 21.053125Q33.928123 21.053125 34.678123 21.334375Q35.428123 21.615625 35.771873 22.053125Q36.13125 22.475 36.271873 23.115625Q36.35 23.521875 36.35 24.584375L36.35 26.69375Q36.35 28.896875 36.44375 29.490625Q36.553123 30.06875 36.85 30.6L35.19375 30.6Q34.94375 30.1 34.88125 29.44375ZM34.740623 25.9125Q33.88125 26.271875 32.1625 26.50625Q31.19375 26.646875 30.7875 26.834375Q30.38125 27.00625 30.1625 27.35Q29.94375 27.678125 29.94375 28.1Q29.94375 28.725 30.4125 29.146875Q30.896875 29.56875 31.81875 29.56875Q32.740623 29.56875 33.44375 29.178125Q34.1625 28.771875 34.490623 28.084375Q34.740623 27.5375 34.740623 26.490625L34.740623 25.9125ZM38.7875 30.6L38.7875 21.271875L40.209373 21.271875L40.209373 22.56875Q40.646873 21.896875 41.365623 21.475Q42.1 21.053125 43.0375 21.053125Q44.06875 21.053125 44.725 21.490625Q45.396873 21.9125 45.6625 22.69375Q46.771873 21.053125 48.553123 21.053125Q49.94375 21.053125 50.678123 21.834375Q51.428123 22.6 51.428123 24.19375L51.428123 30.6L49.865623 30.6L49.865623 24.725Q49.865623 23.771875 49.709373 23.35Q49.553123 22.928125 49.146873 22.678125Q48.740623 22.428125 48.19375 22.428125Q47.209373 22.428125 46.553123 23.084375Q45.9125 23.740625 45.9125 25.178125L45.9125 30.6L44.334373 30.6L44.334373 24.5375Q44.334373 23.475 43.94375 22.959375Q43.553123 22.428125 42.678123 22.428125Q42.00625 22.428125 41.44375 22.7875Q40.88125 23.13125 40.615623 23.803125Q40.365623 24.475 40.365623 25.75625L40.365623 30.6L38.7875 30.6ZM58.88125 29.44375Q58.00625 30.19375 57.178123 30.50625Q56.365623 30.81875 55.44375 30.81875Q53.896873 30.81875 53.06875 30.06875Q52.25625 29.303125 52.25625 28.13125Q52.25625 27.459375 52.56875 26.896875Q52.88125 26.31875 53.38125 25.975Q53.88125 25.63125 54.521873 25.459375Q54.990623 25.334375 55.928123 25.225Q57.834373 24.990625 58.740623 24.678125Q58.75625 24.35 58.75625 24.25625Q58.75625 23.303125 58.303123 22.896875Q57.69375 22.365625 56.50625 22.365625Q55.38125 22.365625 54.85 22.75625Q54.31875 23.146875 54.06875 24.146875L52.521873 23.928125Q52.740623 22.928125 53.209373 22.31875Q53.69375 21.709375 54.6 21.38125Q55.521873 21.053125 56.740623 21.053125Q57.928123 21.053125 58.678123 21.334375Q59.428123 21.615625 59.771873 22.053125Q60.13125 22.475 60.271873 23.115625Q60.35 23.521875 60.35 24.584375L60.35 26.69375Q60.35 28.896875 60.44375 29.490625Q60.553123 30.06875 60.85 30.6L59.19375 30.6Q58.94375 30.1 58.88125 29.44375ZM58.740623 25.9125Q57.88125 26.271875 56.1625 26.50625Q55.19375 26.646875 54.7875 26.834375Q54.38125 27.00625 54.1625 27.35Q53.94375 27.678125 53.94375 28.1Q53.94375 28.725 54.4125 29.146875Q54.896873 29.56875 55.81875 29.56875Q56.740623 29.56875 57.44375 29.178125Q58.1625 28.771875 58.490623 28.084375Q58.740623 27.5375 58.740623 26.490625L58.740623 25.9125ZM62.178123 26.725L62.178123 25.146875L67.0375 25.146875L67.0375 26.725L62.178123 26.725ZM73.4125 30.6L73.4125 27.521875L67.83437 27.521875L67.83437 26.06875L73.70937 17.709375L75.00625 17.709375L75.00625 26.06875L76.74062 26.06875L76.74062 27.521875L75.00625 27.521875L75.00625 30.6L73.4125 30.6ZM73.4125 26.06875L73.4125 20.25625L69.38125 26.06875L73.4125 26.06875ZM78.35 24.240625Q78.35 21.959375 78.81875 20.56875Q79.2875 19.178125 80.20937 18.428125Q81.14687 17.6625 82.55312 17.6625Q83.58437 17.6625 84.36562 18.084375Q85.14687 18.490625 85.64687 19.2875Q86.1625 20.06875 86.45937 21.209375Q86.75625 22.334375 86.75625 24.240625Q86.75625 26.50625 86.2875 27.9125Q85.81875 29.303125 84.88125 30.06875Q83.95937 30.81875 82.55312 30.81875Q80.67812 30.81875 79.61562 29.490625Q78.35 27.88125 78.35 24.240625ZM79.975 24.240625Q79.975 27.4125 80.70937 28.475Q81.45937 29.521875 82.55312 29.521875Q83.63125 29.521875 84.38125 28.475Q85.13125 27.4125 85.13125 24.240625Q85.13125 21.06875 84.38125 20.021875Q83.63125 18.975 82.5375 18.975Q81.44375 18.975 80.7875 19.896875Q79.975 21.06875 79.975 24.240625ZM88.35 27.225L90.00625 27.084375Q90.19375 28.303125 90.86562 28.9125Q91.5375 29.521875 92.49062 29.521875Q93.63125 29.521875 94.4125 28.6625Q95.20937 27.803125 95.20937 26.365625Q95.20937 25.021875 94.44375 24.240625Q93.69375 23.459375 92.45937 23.459375Q91.69375 23.459375 91.06875 23.803125Q90.45937 24.146875 90.11562 24.709375L88.63125 24.50625L89.88125 17.896875L96.2875 17.896875L96.2875 19.396875L91.14687 19.396875L90.44375 22.865625Q91.61562 22.053125 92.88125 22.053125Q94.56875 22.053125 95.725 23.225Q96.89687 24.396875 96.89687 26.225Q96.89687 27.975 95.86562 29.25625Q94.63125 30.81875 92.49062 30.81875Q90.725 30.81875 89.61562 29.834375Q88.50625 28.85 88.35 27.225ZM98.9125 30.6L98.9125 17.709375L103.75625 17.709375Q105.225 17.709375 106.11562 18.1Q107.00625 18.490625 107.50625 19.303125Q108.02187 20.115625 108.02187 21.00625Q108.02187 21.834375 107.56875 22.56875Q107.13125 23.303125 106.225 23.740625Q107.39687 24.084375 108.02187 24.9125Q108.64687 25.740625 108.64687 26.865625Q108.64687 27.771875 108.25625 28.553125Q107.88125 29.31875 107.31875 29.740625Q106.75625 30.1625 105.9125 30.38125Q105.06875 30.6 103.83437 30.6L98.9125 30.6ZM100.63125 23.13125L103.4125 23.13125Q104.5375 23.13125 105.0375 22.975Q105.69375 22.7875 106.02187 22.35Q106.35 21.896875 106.35 21.209375Q106.35 20.56875 106.0375 20.084375Q105.725 19.6 105.14687 19.428125Q104.58437 19.240625 103.19375 19.240625L100.63125 19.240625L100.63125 23.13125ZM100.63125 29.084375L103.83437 29.084375Q104.6625 29.084375 104.99062 29.021875Q105.58437 28.9125 105.975 28.6625Q106.36562 28.4125 106.61562 27.94375Q106.88125 27.475 106.88125 26.865625Q106.88125 26.146875 106.50625 25.615625Q106.14687 25.084375 105.49062 24.865625Q104.83437 24.646875 103.6 24.646875L100.63125 24.646875L100.63125 29.084375ZM118.80312 34.38125Q117.50625 32.740623 116.6 30.521875Q115.69375 28.303125 115.69375 25.928125Q115.69375 23.834375 116.36562 21.928125Q117.1625 19.69375 118.80312 17.490625L119.94375 17.490625Q118.88125 19.31875 118.5375 20.1Q118.00625 21.31875 117.69375 22.63125Q117.31875 24.2875 117.31875 25.94375Q117.31875 30.1625 119.94375 34.38125L118.80312 34.38125ZM122.1625 30.6L122.1625 22.490625L120.77187 22.490625L120.77187 21.271875L122.1625 21.271875L122.1625 20.271875Q122.1625 19.334375 122.33437 18.88125Q122.55312 18.25625 123.13125 17.88125Q123.70937 17.490625 124.75625 17.490625Q125.4125 17.490625 126.225 17.646875L125.99062 19.0375Q125.49062 18.94375 125.05312 18.94375Q124.33437 18.94375 124.0375 19.25625Q123.74062 19.553125 123.74062 20.396875L123.74062 21.271875L125.55312 21.271875L125.55312 22.490625L123.74062 22.490625L123.74062 30.6L122.1625 30.6ZM126.7875 34.178123L126.7875 21.271875L128.225 21.271875L128.225 22.475Q128.74063 21.771875 129.38126 21.4125Q130.02188 21.053125 130.92813 21.053125Q132.13126 21.053125 133.0375 21.678125Q133.95938 22.2875 134.42813 23.4125Q134.89688 24.521875 134.89688 25.865625Q134.89688 27.2875 134.38126 28.44375Q133.86563 29.584375 132.88126 30.209375Q131.89688 30.81875 130.81876 30.81875Q130.0375 30.81875 129.39688 30.490625Q128.77188 30.146875 128.36563 29.63125L128.36563 34.178123L126.7875 34.178123ZM128.225 25.990625Q128.225 27.7875 128.94376 28.646875Q129.67813 29.50625 130.70938 29.50625Q131.77188 29.50625 132.52188 28.615625Q133.27188 27.725 133.27188 25.85Q133.27188 24.06875 132.5375 23.178125Q131.80313 22.2875 130.7875 22.2875Q129.77188 22.2875 128.99063 23.240625Q128.225 24.178125 128.225 25.990625ZM138.7875 23.615625Q137.80313 23.25625 137.31876 22.584375Q136.85 21.9125 136.85 20.990625Q136.85 19.584375 137.85 18.63125Q138.86563 17.6625 140.55313 17.6625Q142.24063 17.6625 143.25626 18.646875Q144.2875 19.615625 144.2875 21.021875Q144.2875 21.928125 143.81876 22.6Q143.35 23.25625 142.39688 23.615625Q143.58438 24.00625 144.19376 24.865625Q144.81876 25.725 144.81876 26.9125Q144.81876 28.56875 143.64688 29.69375Q142.475 30.81875 140.56876 30.81875Q138.6625 30.81875 137.49063 29.69375Q136.33438 28.553125 136.33438 26.865625Q136.33438 25.615625 136.95938 24.771875Q137.6 23.9125 138.7875 23.615625ZM138.45938 20.928125Q138.45938 21.85 139.05313 22.428125Q139.64688 23.00625 140.58438 23.00625Q141.49063 23.00625 142.06876 22.428125Q142.6625 21.85 142.6625 21.021875Q142.6625 20.146875 142.05313 19.553125Q141.45938 18.959375 140.56876 18.959375Q139.6625 18.959375 139.05313 19.5375Q138.45938 20.115625 138.45938 20.928125ZM137.95938 26.88125Q137.95938 27.553125 138.27188 28.19375Q138.6 28.81875 139.225 29.178125Q139.86563 29.521875 140.6 29.521875Q141.725 29.521875 142.45938 28.7875Q143.20938 28.053125 143.20938 26.928125Q143.20938 25.7875 142.44376 25.053125Q141.67813 24.303125 140.5375 24.303125Q139.42813 24.303125 138.69376 25.0375Q137.95938 25.771875 137.95938 26.88125ZM147.81876 34.38125L146.69376 34.38125Q149.31876 30.1625 149.31876 25.94375Q149.31876 24.2875 148.94376 22.6625Q148.64688 21.35 148.1 20.13125Q147.75626 19.334375 146.69376 17.490625L147.81876 17.490625Q149.475 19.69375 150.27188 21.928125Q150.94376 23.834375 150.94376 25.928125Q150.94376 28.303125 150.0375 30.521875Q149.13126 32.740623 147.81876 34.38125ZM157.19376 25.928125Q157.19376 23.334375 158.64688 22.084375Q159.85 21.053125 161.56876 21.053125Q163.50626 21.053125 164.725 22.31875Q165.94376 23.584375 165.94376 25.803125Q165.94376 27.6 165.39688 28.63125Q164.86563 29.6625 163.83438 30.240625Q162.80313 30.81875 161.56876 30.81875Q159.61563 30.81875 158.39688 29.56875Q157.19376 28.303125 157.19376 25.928125ZM158.81876 25.928125Q158.81876 27.725 159.6 28.615625Q160.38126 29.50625 161.56876 29.50625Q162.75626 29.50625 163.5375 28.615625Q164.31876 27.709375 164.31876 25.88125Q164.31876 24.146875 163.52188 23.25625Q162.74063 22.365625 161.56876 22.365625Q160.38126 22.365625 159.6 23.25625Q158.81876 24.146875 158.81876 25.928125ZM167.7875 30.6L167.7875 21.271875L169.20938 21.271875L169.20938 22.6Q170.24063 21.053125 172.17813 21.053125Q173.02188 21.053125 173.725 21.365625Q174.44376 21.6625 174.7875 22.1625Q175.14688 22.646875 175.2875 23.31875Q175.36563 23.75625 175.36563 24.865625L175.36563 30.6L173.7875 30.6L173.7875 24.928125Q173.7875 23.959375 173.6 23.475Q173.42813 22.990625 172.94376 22.709375Q172.475 22.428125 171.85 22.428125Q170.83438 22.428125 170.1 23.06875Q169.36563 23.709375 169.36563 25.50625L169.36563 30.6L167.7875 30.6ZM184.7875 23.615625Q183.80313 23.25625 183.31876 22.584375Q182.85 21.9125 182.85 20.990625Q182.85 19.584375 183.85 18.63125Q184.86563 17.6625 186.55313 17.6625Q188.24063 17.6625 189.25626 18.646875Q190.2875 19.615625 190.2875 21.021875Q190.2875 21.928125 189.81876 22.6Q189.35 23.25625 188.39688 23.615625Q189.58438 24.00625 190.19376 24.865625Q190.81876 25.725 190.81876 26.9125Q190.81876 28.56875 189.64688 29.69375Q188.475 30.81875 186.56876 30.81875Q184.6625 30.81875 183.49063 29.69375Q182.33438 28.553125 182.33438 26.865625Q182.33438 25.615625 182.95938 24.771875Q183.6 23.9125 184.7875 23.615625ZM184.45938 20.928125Q184.45938 21.85 185.05313 22.428125Q185.64688 23.00625 186.58438 23.00625Q187.49063 23.00625 188.06876 22.428125Q188.6625 21.85 188.6625 21.021875Q188.6625 20.146875 188.05313 19.553125Q187.45938 18.959375 186.56876 18.959375Q185.6625 18.959375 185.05313 19.5375Q184.45938 20.115625 184.45938 20.928125ZM183.95938 26.88125Q183.95938 27.553125 184.27188 28.19375Q184.6 28.81875 185.225 29.178125Q185.86563 29.521875 186.6 29.521875Q187.725 29.521875 188.45938 28.7875Q189.20938 28.053125 189.20938 26.928125Q189.20938 25.7875 188.44376 25.053125Q187.67813 24.303125 186.5375 24.303125Q185.42813 24.303125 184.69376 25.0375Q183.95938 25.771875 183.95938 26.88125ZM196.725 30.6L200.14688 25.740625L196.99063 21.271875L198.95938 21.271875L200.39688 23.459375Q200.80313 24.084375 201.05313 24.50625Q201.42813 23.9125 201.75626 23.475L203.33438 21.271875L205.225 21.271875L201.99063 25.6625L205.475 30.6L203.52188 30.6L201.61563 27.69375L201.1 26.9125L198.64688 30.6L196.725 30.6ZM211.0375 30.6L211.0375 17.709375L212.74063 17.709375L212.74063 23.00625L219.44376 23.00625L219.44376 17.709375L221.14688 17.709375L221.14688 30.6L219.44376 30.6L219.44376 24.521875L212.74063 24.521875L212.74063 30.6L211.0375 30.6ZM229.30313 30.6L227.725 30.6L227.725 20.521875Q227.14688 21.06875 226.225 21.615625Q225.30313 22.146875 224.55313 22.428125L224.55313 20.896875Q225.88126 20.271875 226.88126 19.38125Q227.88126 18.490625 228.2875 17.6625L229.30313 17.6625L229.30313 30.6ZM233.35 24.240625Q233.35 21.959375 233.81876 20.56875Q234.2875 19.178125 235.20938 18.428125Q236.14688 17.6625 237.55313 17.6625Q238.58438 17.6625 239.36563 18.084375Q240.14688 18.490625 240.64688 19.2875Q241.1625 20.06875 241.45938 21.209375Q241.75626 22.334375 241.75626 24.240625Q241.75626 26.50625 241.2875 27.9125Q240.81876 29.303125 239.88126 30.06875Q238.95938 30.81875 237.55313 30.81875Q235.67813 30.81875 234.61563 29.490625Q233.35 27.88125 233.35 24.240625ZM234.975 24.240625Q234.975 27.4125 235.70938 28.475Q236.45938 29.521875 237.55313 29.521875Q238.63126 29.521875 239.38126 28.475Q240.13126 27.4125 240.13126 24.240625Q240.13126 21.06875 239.38126 20.021875Q238.63126 18.975 237.5375 18.975Q236.44376 18.975 235.7875 19.896875Q234.975 21.06875 234.975 24.240625ZM243.35 24.240625Q243.35 21.959375 243.81876 20.56875Q244.2875 19.178125 245.20938 18.428125Q246.14688 17.6625 247.55313 17.6625Q248.58438 17.6625 249.36563 18.084375Q250.14688 18.490625 250.64688 19.2875Q251.1625 20.06875 251.45938 21.209375Q251.75626 22.334375 251.75626 24.240625Q251.75626 26.50625 251.2875 27.9125Q250.81876 29.303125 249.88126 30.06875Q248.95938 30.81875 247.55313 30.81875Q245.67813 30.81875 244.61563 29.490625Q243.35 27.88125 243.35 24.240625ZM244.975 24.240625Q244.975 27.4125 245.70938 28.475Q246.45938 29.521875 247.55313 29.521875Q248.63126 29.521875 249.38126 28.475Q250.13126 27.4125 250.13126 24.240625Q250.13126 21.06875 249.38126 20.021875Q248.63126 18.975 247.5375 18.975Q246.44376 18.975 245.7875 19.896875Q244.975 21.06875 244.975 24.240625ZM254.24063 30.6L254.24063 28.803125L256.0375 28.803125L256.0375 30.6L254.24063 30.6ZM263.9125 30.6L263.9125 17.709375L265.63126 17.709375L265.63126 29.084375L271.975 29.084375L271.975 30.6L263.9125 30.6ZM273.19376 25.928125Q273.19376 23.334375 274.64688 22.084375Q275.85 21.053125 277.56876 21.053125Q279.50626 21.053125 280.725 22.31875Q281.94376 23.584375 281.94376 25.803125Q281.94376 27.6 281.39688 28.63125Q280.86563 29.6625 279.83438 30.240625Q278.80313 30.81875 277.56876 30.81875Q275.61563 30.81875 274.39688 29.56875Q273.19376 28.303125 273.19376 25.928125ZM274.81876 25.928125Q274.81876 27.725 275.6 28.615625Q276.38126 29.50625 277.56876 29.50625Q278.75626 29.50625 279.5375 28.615625Q280.31876 27.709375 280.31876 25.88125Q280.31876 24.146875 279.52188 23.25625Q278.74063 22.365625 277.56876 22.365625Q276.38126 22.365625 275.6 23.25625Q274.81876 24.146875 274.81876 25.928125ZM285.50626 30.6L282.64688 21.271875L284.2875 21.271875L285.77188 26.646875L286.33438 28.6625Q286.36563 28.50625 286.80313 26.725L288.30313 21.271875L289.92813 21.271875L291.31876 26.678125L291.7875 28.459375L292.31876 26.6625L293.92813 21.271875L295.45938 21.271875L292.5375 30.6L290.89688 30.6L289.4125 25.00625L289.05313 23.4125L287.1625 30.6L285.50626 30.6ZM303.17813 27.6L304.81876 27.803125Q304.42813 29.225 303.38126 30.021875Q302.33438 30.81875 300.70938 30.81875Q298.6625 30.81875 297.45938 29.553125Q296.25626 28.2875 296.25626 26.00625Q296.25626 23.6625 297.45938 22.365625Q298.67813 21.053125 300.61563 21.053125Q302.49063 21.053125 303.67813 22.334375Q304.86563 23.6 304.86563 25.9125Q304.86563 26.053125 304.85 26.334375L297.89688 26.334375Q297.975 27.88125 298.75626 28.69375Q299.55313 29.50625 300.70938 29.50625Q301.58438 29.50625 302.19376 29.053125Q302.81876 28.6 303.17813 27.6ZM297.975 25.0375L303.19376 25.0375Q303.08438 23.865625 302.6 23.271875Q301.83438 22.35 300.63126 22.35Q299.55313 22.35 298.80313 23.084375Q298.06876 23.81875 297.975 25.0375ZM306.77188 30.6L306.77188 21.271875L308.19376 21.271875L308.19376 22.678125Q308.74063 21.69375 309.19376 21.38125Q309.6625 21.053125 310.20938 21.053125Q311.02188 21.053125 311.83438 21.56875L311.30313 23.0375Q310.70938 22.69375 310.13126 22.69375Q309.61563 22.69375 309.19376 23.00625Q308.7875 23.31875 308.61563 23.865625Q308.35 24.709375 308.35 25.709375L308.35 30.6L306.77188 30.6ZM317.9125 30.6L317.9125 17.709375L319.63126 17.709375L319.63126 29.084375L325.975 29.084375L325.975 30.6L317.9125 30.6ZM333.88126 29.44375Q333.00626 30.19375 332.17813 30.50625Q331.36563 30.81875 330.44376 30.81875Q328.89688 30.81875 328.06876 30.06875Q327.25626 29.303125 327.25626 28.13125Q327.25626 27.459375 327.56876 26.896875Q327.88126 26.31875 328.38126 25.975Q328.88126 25.63125 329.52188 25.459375Q329.99063 25.334375 330.92813 25.225Q332.83438 24.990625 333.74063 24.678125Q333.75626 24.35 333.75626 24.25625Q333.75626 23.303125 333.30313 22.896875Q332.69376 22.365625 331.50626 22.365625Q330.38126 22.365625 329.85 22.75625Q329.31876 23.146875 329.06876 24.146875L327.52188 23.928125Q327.74063 22.928125 328.20938 22.31875Q328.69376 21.709375 329.6 21.38125Q330.52188 21.053125 331.74063 21.053125Q332.92813 21.053125 333.67813 21.334375Q334.42813 21.615625 334.77188 22.053125Q335.13126 22.475 335.27188 23.115625Q335.35 23.521875 335.35 24.584375L335.35 26.69375Q335.35 28.896875 335.44376 29.490625Q335.55313 30.06875 335.85 30.6L334.19376 30.6Q333.94376 30.1 333.88126 29.44375ZM333.74063 25.9125Q332.88126 26.271875 331.1625 26.50625Q330.19376 26.646875 329.7875 26.834375Q329.38126 27.00625 329.1625 27.35Q328.94376 27.678125 328.94376 28.1Q328.94376 28.725 329.4125 29.146875Q329.89688 29.56875 330.81876 29.56875Q331.74063 29.56875 332.44376 29.178125Q333.1625 28.771875 333.49063 28.084375Q333.74063 27.5375 333.74063 26.490625L333.74063 25.9125ZM341.24063 29.178125L341.475 30.584375Q340.80313 30.725 340.27188 30.725Q339.4125 30.725 338.92813 30.459375Q338.45938 30.178125 338.27188 29.740625Q338.08438 29.2875 338.08438 27.865625L338.08438 22.490625L336.9125 22.490625L336.9125 21.271875L338.08438 21.271875L338.08438 18.959375L339.64688 18.00625L339.64688 21.271875L341.24063 21.271875L341.24063 22.490625L339.64688 22.490625L339.64688 27.959375Q339.64688 28.63125 339.725 28.834375Q339.81876 29.021875 340.00626 29.13125Q340.19376 29.240625 340.55313 29.240625Q340.80313 29.240625 341.24063 29.178125ZM349.17813 27.6L350.81876 27.803125Q350.42813 29.225 349.38126 30.021875Q348.33438 30.81875 346.70938 30.81875Q344.6625 30.81875 343.45938 29.553125Q342.25626 28.2875 342.25626 26.00625Q342.25626 23.6625 343.45938 22.365625Q344.67813 21.053125 346.61563 21.053125Q348.49063 21.053125 349.67813 22.334375Q350.86563 23.6 350.86563 25.9125Q350.86563 26.053125 350.85 26.334375L343.89688 26.334375Q343.975 27.88125 344.75626 28.69375Q345.55313 29.50625 346.70938 29.50625Q347.58438 29.50625 348.19376 29.053125Q348.81876 28.6 349.17813 27.6ZM343.975 25.0375L349.19376 25.0375Q349.08438 23.865625 348.6 23.271875Q347.83438 22.35 346.63126 22.35Q345.55313 22.35 344.80313 23.084375Q344.06876 23.81875 343.975 25.0375ZM352.7875 30.6L352.7875 21.271875L354.20938 21.271875L354.20938 22.6Q355.24063 21.053125 357.17813 21.053125Q358.02188 21.053125 358.725 21.365625Q359.44376 21.6625 359.7875 22.1625Q360.14688 22.646875 360.2875 23.31875Q360.36563 23.75625 360.36563 24.865625L360.36563 30.6L358.7875 30.6L358.7875 24.928125Q358.7875 23.959375 358.6 23.475Q358.42813 22.990625 357.94376 22.709375Q357.475 22.428125 356.85 22.428125Q355.83438 22.428125 355.1 23.06875Q354.36563 23.709375 354.36563 25.50625L354.36563 30.6L352.7875 30.6ZM368.88126 27.178125L370.42813 27.38125Q370.17813 28.990625 369.13126 29.9125Q368.08438 30.81875 366.55313 30.81875Q364.63126 30.81875 363.45938 29.56875Q362.30313 28.303125 362.30313 25.975Q362.30313 24.459375 362.80313 23.334375Q363.30313 22.19375 364.31876 21.63125Q365.35 21.053125 366.55313 21.053125Q368.08438 21.053125 369.0375 21.834375Q370.00626 22.6 370.2875 24.00625L368.74063 24.240625Q368.52188 23.303125 367.95938 22.834375Q367.4125 22.35 366.61563 22.35Q365.42813 22.35 364.67813 23.209375Q363.92813 24.06875 363.92813 25.928125Q363.92813 27.803125 364.64688 28.6625Q365.36563 29.50625 366.5375 29.50625Q367.45938 29.50625 368.08438 28.94375Q368.70938 28.365625 368.88126 27.178125ZM371.70938 34.19375L371.5375 32.709373Q372.05313 32.85 372.44376 32.85Q372.975 32.85 373.2875 32.678123Q373.6 32.50625 373.80313 32.178123Q373.95938 31.94375 374.2875 31.00625Q374.33438 30.865625 374.42813 30.615625L370.89688 21.271875L372.6 21.271875L374.5375 26.678125Q374.9125 27.69375 375.20938 28.834375Q375.49063 27.740625 375.86563 26.709375L377.86563 21.271875L379.44376 21.271875L375.89688 30.75625Q375.31876 32.303123 375.00626 32.88125Q374.58438 33.6625 374.0375 34.021873Q373.49063 34.38125 372.74063 34.38125Q372.27188 34.38125 371.70938 34.19375ZM385.80313 19.5375L385.80313 17.709375L387.38126 17.709375L387.38126 19.5375L385.80313 19.5375ZM385.80313 30.6L385.80313 21.271875L387.38126 21.271875L387.38126 30.6L385.80313 30.6ZM389.14688 27.81875L390.725 27.56875Q390.85 28.50625 391.44376 29.00625Q392.05313 29.50625 393.13126 29.50625Q394.225 29.50625 394.75626 29.06875Q395.2875 28.615625 395.2875 28.021875Q395.2875 27.490625 394.81876 27.178125Q394.49063 26.975 393.19376 26.646875Q391.45938 26.209375 390.7875 25.896875Q390.11563 25.56875 389.75626 25.00625Q389.4125 24.428125 389.4125 23.740625Q389.4125 23.115625 389.69376 22.584375Q389.99063 22.053125 390.475 21.709375Q390.85 21.428125 391.49063 21.240625Q392.13126 21.053125 392.85 21.053125Q393.95938 21.053125 394.7875 21.38125Q395.61563 21.69375 396.00626 22.240625Q396.4125 22.771875 396.55313 23.678125L395.00626 23.88125Q394.89688 23.1625 394.39688 22.75625Q393.89688 22.35 392.975 22.35Q391.88126 22.35 391.4125 22.709375Q390.94376 23.06875 390.94376 23.553125Q390.94376 23.865625 391.14688 24.115625Q391.33438 24.365625 391.74063 24.5375Q391.99063 24.615625 393.14688 24.94375Q394.81876 25.38125 395.475 25.678125Q396.14688 25.959375 396.52188 26.50625Q396.9125 27.053125 396.9125 27.85Q396.9125 28.646875 396.44376 29.35Q395.99063 30.053125 395.11563 30.44375Q394.24063 30.81875 393.14688 30.81875Q391.31876 30.81875 390.36563 30.06875Q389.4125 29.303125 389.14688 27.81875ZM403.9125 30.6L403.9125 17.709375L408.75626 17.709375Q410.225 17.709375 411.11563 18.1Q412.00626 18.490625 412.50626 19.303125Q413.02188 20.115625 413.02188 21.00625Q413.02188 21.834375 412.56876 22.56875Q412.13126 23.303125 411.225 23.740625Q412.39688 24.084375 413.02188 24.9125Q413.64688 25.740625 413.64688 26.865625Q413.64688 27.771875 413.25626 28.553125Q412.88126 29.31875 412.31876 29.740625Q411.75626 30.1625 410.9125 30.38125Q410.06876 30.6 408.83438 30.6L403.9125 30.6ZM405.63126 23.13125L408.4125 23.13125Q409.5375 23.13125 410.0375 22.975Q410.69376 22.7875 411.02188 22.35Q411.35 21.896875 411.35 21.209375Q411.35 20.56875 411.0375 20.084375Q410.725 19.6 410.14688 19.428125Q409.58438 19.240625 408.19376 19.240625L405.63126 19.240625L405.63126 23.13125ZM405.63126 29.084375L408.83438 29.084375Q409.6625 29.084375 409.99063 29.021875Q410.58438 28.9125 410.975 28.6625Q411.36563 28.4125 411.61563 27.94375Q411.88126 27.475 411.88126 26.865625Q411.88126 26.146875 411.50626 25.615625Q411.14688 25.084375 410.49063 24.865625Q409.83438 24.646875 408.6 24.646875L405.63126 24.646875L405.63126 29.084375ZM422.17813 27.6L423.81876 27.803125Q423.42813 29.225 422.38126 30.021875Q421.33438 30.81875 419.70938 30.81875Q417.6625 30.81875 416.45938 29.553125Q415.25626 28.2875 415.25626 26.00625Q415.25626 23.6625 416.45938 22.365625Q417.67813 21.053125 419.61563 21.053125Q421.49063 21.053125 422.67813 22.334375Q423.86563 23.6 423.86563 25.9125Q423.86563 26.053125 423.85 26.334375L416.89688 26.334375Q416.975 27.88125 417.75626 28.69375Q418.55313 29.50625 419.70938 29.50625Q420.58438 29.50625 421.19376 29.053125Q421.81876 28.6 422.17813 27.6ZM416.975 25.0375L422.19376 25.0375Q422.08438 23.865625 421.6 23.271875Q420.83438 22.35 419.63126 22.35Q418.55313 22.35 417.80313 23.084375Q417.06876 23.81875 416.975 25.0375ZM429.24063 29.178125L429.475 30.584375Q428.80313 30.725 428.27188 30.725Q427.4125 30.725 426.92813 30.459375Q426.45938 30.178125 426.27188 29.740625Q426.08438 29.2875 426.08438 27.865625L426.08438 22.490625L424.9125 22.490625L424.9125 21.271875L426.08438 21.271875L426.08438 18.959375L427.64688 18.00625L427.64688 21.271875L429.24063 21.271875L429.24063 22.490625L427.64688 22.490625L427.64688 27.959375Q427.64688 28.63125 427.725 28.834375Q427.81876 29.021875 428.00626 29.13125Q428.19376 29.240625 428.55313 29.240625Q428.80313 29.240625 429.24063 29.178125ZM434.24063 29.178125L434.475 30.584375Q433.80313 30.725 433.27188 30.725Q432.4125 30.725 431.92813 30.459375Q431.45938 30.178125 431.27188 29.740625Q431.08438 29.2875 431.08438 27.865625L431.08438 22.490625L429.9125 22.490625L429.9125 21.271875L431.08438 21.271875L431.08438 18.959375L432.64688 18.00625L432.64688 21.271875L434.24063 21.271875L434.24063 22.490625L432.64688 22.490625L432.64688 27.959375Q432.64688 28.63125 432.725 28.834375Q432.81876 29.021875 433.00626 29.13125Q433.19376 29.240625 433.55313 29.240625Q433.80313 29.240625 434.24063 29.178125ZM442.17813 27.6L443.81876 27.803125Q443.42813 29.225 442.38126 30.021875Q441.33438 30.81875 439.70938 30.81875Q437.6625 30.81875 436.45938 29.553125Q435.25626 28.2875 435.25626 26.00625Q435.25626 23.6625 436.45938 22.365625Q437.67813 21.053125 439.61563 21.053125Q441.49063 21.053125 442.67813 22.334375Q443.86563 23.6 443.86563 25.9125Q443.86563 26.053125 443.85 26.334375L436.89688 26.334375Q436.975 27.88125 437.75626 28.69375Q438.55313 29.50625 439.70938 29.50625Q440.58438 29.50625 441.19376 29.053125Q441.81876 28.6 442.17813 27.6ZM436.975 25.0375L442.19376 25.0375Q442.08438 23.865625 441.6 23.271875Q440.83438 22.35 439.63126 22.35Q438.55313 22.35 437.80313 23.084375Q437.06876 23.81875 436.975 25.0375ZM445.77188 30.6L445.77188 21.271875L447.19376 21.271875L447.19376 22.678125Q447.74063 21.69375 448.19376 21.38125Q448.6625 21.053125 449.20938 21.053125Q450.02188 21.053125 450.83438 21.56875L450.30313 23.0375Q449.70938 22.69375 449.13126 22.69375Q448.61563 22.69375 448.19376 23.00625Q447.7875 23.31875 447.61563 23.865625Q447.35 24.709375 447.35 25.709375L447.35 30.6L445.77188 30.6ZM452.24063 30.6L452.24063 28.803125L454.0375 28.803125L454.0375 30.6L452.24063 30.6Z" fill-rule="nonzero"/></svg>