<svg version="1.1" viewBox="0.0 0.0 707.0 272.0" fill="none" stroke="none" stroke-linecap="square" stroke-miterlimit="10" width="707" height="272" xmlns:xlink="http://www.w3.org/1999/xlink" xmlns="http://www.w3.org/2000/svg"><path fill="#ffffff" d="M0 0L707.0 0L707.0 272.0L0 272.0L0 0Z" fill-rule="nonzero"/><path stroke="#333333" stroke-width="1.0" stroke-linecap="butt" d="M81.5 76.5L81.5 198.5" fill-rule="nonzero"/><path stroke="#cccccc" stroke-width="1.0" stroke-linecap="butt" d="M149.5 76.5L149.5 198.5" fill-rule="nonzero"/><path stroke="#cccccc" stroke-width="1.0" stroke-linecap="butt" d="M217.5 76.5L217.5 198.5" fill-rule="nonzero"/><path stroke="#cccccc" stroke-width="1.0" stroke-linecap="butt" d="M285.5 76.5L285.5 198.5" fill-rule="nonzero"/><path stroke="#cccccc" stroke-width="1.0" stroke-linecap="butt" d="M353.5 76.5L353.5 198.5" fill-rule="nonzero"/><path stroke="#cccccc" stroke-width="1.0" stroke-linecap="butt" d="M421.5 76.5L421.5 198.5" fill-rule="nonzero"/><path stroke="#cccccc" stroke-width="1.0" stroke-linecap="butt" d="M489.5 76.5L489.5 198.5" fill-rule="nonzero"/><path stroke="#cccccc" stroke-width="1.0" stroke-linecap="butt" d="M557.5 76.5L557.5 198.5" fill-rule="nonzero"/><path stroke="#cccccc" stroke-width="1.0" stroke-linecap="butt" d="M625.5 76.5L625.5 198.5" fill-rule="nonzero"/><path stroke="#cccccc" stroke-width="1.0" stroke-linecap="butt" d="M693.5 76.5L693.5 198.5" fill-rule="nonzero"/><path stroke="#333333" stroke-width="1.0" stroke-linecap="butt" d="M81.5 198.5L693.5 198.5" fill-rule="nonzero"/><path stroke="#cccccc" stroke-width="1.0" stroke-linecap="butt" d="M81.5 174.5L693.5 174.5" fill-rule="nonzero"/><path stroke="#cccccc" stroke-width="1.0" stroke-linecap="butt" d="M81.5 149.5L693.5 149.5" fill-rule="nonzero"/><path stroke="#cccccc" stroke-width="1.0" stroke-linecap="butt" d="M81.5 125.5L693.5 125.5" fill-rule="nonzero"/><path stroke="#cccccc" stroke-width="1.0" stroke-linecap="butt" d="M81.5 101.5L693.5 101.5" fill-rule="nonzero"/><path stroke="#cccccc" stroke-width="1.0" stroke-linecap="butt" d="M81.5 76.5L693.5 76.5" fill-rule="nonzero"/><clipPath id="id_0"><path d="M81.6 76.73333L693.4 76.73333L693.4 198.4L81.6 198.4L81.6 76.73333Z" clip-rule="nonzero"/></clipPath><path stroke="#30a2ff" stroke-width="2.0" stroke-linecap="butt" clip-path="url(#id_0)" d="M115.58889 190.23468C115.58889 190.23468 138.24815 188.75114 149.57777 187.96338C160.90741 187.17561 194.8963 192.10406 217.55556 183.05284C240.21481 174.00162 308.1926 113.39275 353.5111 84.259254C398.82962 55.12576 625.42224 -67.75556 625.42224 -67.75556" fill-rule="nonzero"/><path stroke="#6aa84f" stroke-width="2.0" stroke-linecap="butt" clip-path="url(#id_0)" d="M115.58889 190.51021C115.58889 190.51021 138.24815 190.01668 149.57777 189.51193C160.90741 189.0072 194.8963 187.0475 217.55556 185.4516C240.21481 183.85571 308.1926 180.7966 353.5111 174.42154C398.82962 168.04648 625.42224 119.98096 625.42224 119.98096" fill-rule="nonzero"/><path stroke="#ff6d01" stroke-width="2.0" stroke-linecap="butt" clip-path="url(#id_0)" d="M115.58889 190.82912C115.58889 190.82912 138.24815 190.05519 149.57777 189.81918C160.90741 189.58316 194.8963 189.97704 217.55556 189.00694C240.21481 188.03683 308.1926 186.72205 353.5111 178.99025C398.82962 171.25845 625.42224 106.242096 625.42224 106.242096" fill-rule="nonzero"/><path fill="#000000" fill-opacity="0.0" clip-path="url(#id_0)" d="M118.58889 190.23468C118.58889 191.89154 117.24574 193.23468 115.58889 193.23468C113.93204 193.23468 112.58889 191.89154 112.58889 190.23468C112.58889 188.57782 113.93204 187.23468 115.58889 187.23468C117.24574 187.23468 118.58889 188.57782 118.58889 190.23468Z" fill-rule="nonzero"/><path fill="#000000" fill-opacity="0.0" clip-path="url(#id_0)" d="M152.57777 187.96338C152.57777 189.62022 151.23463 190.96338 149.57777 190.96338C147.92093 190.96338 146.57777 189.62022 146.57777 187.96338C146.57777 186.30652 147.92093 184.96338 149.57777 184.96338C151.23463 184.96338 152.57777 186.30652 152.57777 187.96338Z" fill-rule="nonzero"/><path fill="#000000" fill-opacity="0.0" clip-path="url(#id_0)" d="M220.55556 183.05284C220.55556 184.70969 219.2124 186.05284 217.55556 186.05284C215.8987 186.05284 214.55556 184.70969 214.55556 183.05284C214.55556 181.39598 215.8987 180.05284 217.55556 180.05284C219.2124 180.05284 220.55556 181.39598 220.55556 183.05284Z" fill-rule="nonzero"/><path fill="#000000" fill-opacity="0.0" clip-path="url(#id_0)" d="M356.5111 84.259254C356.5111 85.91611 355.16797 87.259254 353.5111 87.259254C351.85425 87.259254 350.5111 85.91611 350.5111 84.259254C350.5111 82.6024 351.85425 81.259254 353.5111 81.259254C355.16797 81.259254 356.5111 82.6024 356.5111 84.259254Z" fill-rule="nonzero"/><path fill="#000000" fill-opacity="0.0" clip-path="url(#id_0)" d="M628.42224 -67.75556C628.42224 -66.09871 627.0791 -64.75556 625.42224 -64.75556C623.7654 -64.75556 622.42224 -66.09871 622.42224 -67.75556C622.42224 -69.412415 623.7654 -70.75556 625.42224 -70.75556C627.0791 -70.75556 628.42224 -69.412415 628.42224 -67.75556Z" fill-rule="nonzero"/><path fill="#000000" fill-opacity="0.0" clip-path="url(#id_0)" d="M118.58889 190.51021C118.58889 192.16707 117.24574 193.51021 115.58889 193.51021C113.93204 193.51021 112.58889 192.16707 112.58889 190.51021C112.58889 188.85335 113.93204 187.51021 115.58889 187.51021C117.24574 187.51021 118.58889 188.85335 118.58889 190.51021Z" fill-rule="nonzero"/><path fill="#000000" fill-opacity="0.0" clip-path="url(#id_0)" d="M152.57777 189.51193C152.57777 191.1688 151.23463 192.51193 149.57777 192.51193C147.92093 192.51193 146.57777 191.1688 146.57777 189.51193C146.57777 187.85509 147.92093 186.51193 149.57777 186.51193C151.23463 186.51193 152.57777 187.85509 152.57777 189.51193Z" fill-rule="nonzero"/><path fill="#000000" fill-opacity="0.0" clip-path="url(#id_0)" d="M220.55556 185.4516C220.55556 187.10846 219.2124 188.4516 217.55556 188.4516C215.8987 188.4516 214.55556 187.10846 214.55556 185.4516C214.55556 183.79475 215.8987 182.4516 217.55556 182.4516C219.2124 182.4516 220.55556 183.79475 220.55556 185.4516Z" fill-rule="nonzero"/><path fill="#000000" fill-opacity="0.0" clip-path="url(#id_0)" d="M356.5111 174.42154C356.5111 176.07838 355.16797 177.42154 353.5111 177.42154C351.85425 177.42154 350.5111 176.07838 350.5111 174.42154C350.5111 172.76468 351.85425 171.42154 353.5111 171.42154C355.16797 171.42154 356.5111 172.76468 356.5111 174.42154Z" fill-rule="nonzero"/><path fill="#000000" fill-opacity="0.0" clip-path="url(#id_0)" d="M628.42224 119.98096C628.42224 121.63781 627.0791 122.98096 625.42224 122.98096C623.7654 122.98096 622.42224 121.63781 622.42224 119.98096C622.42224 118.324104 623.7654 116.98096 625.42224 116.98096C627.0791 116.98096 628.42224 118.324104 628.42224 119.98096Z" fill-rule="nonzero"/><path fill="#000000" fill-opacity="0.0" clip-path="url(#id_0)" d="M118.58889 190.82912C118.58889 192.48598 117.24574 193.82912 115.58889 193.82912C113.93204 193.82912 112.58889 192.48598 112.58889 190.82912C112.58889 189.17227 113.93204 187.82912 115.58889 187.82912C117.24574 187.82912 118.58889 189.17227 118.58889 190.82912Z" fill-rule="nonzero"/><path fill="#000000" fill-opacity="0.0" clip-path="url(#id_0)" d="M152.57777 189.81918C152.57777 191.47603 151.23463 192.81918 149.57777 192.81918C147.92093 192.81918 146.57777 191.47603 146.57777 189.81918C146.57777 188.16232 147.92093 186.81918 149.57777 186.81918C151.23463 186.81918 152.57777 188.16232 152.57777 189.81918Z" fill-rule="nonzero"/><path fill="#000000" fill-opacity="0.0" clip-path="url(#id_0)" d="M220.55556 189.00694C220.55556 190.66379 219.2124 192.00694 217.55556 192.00694C215.8987 192.00694 214.55556 190.66379 214.55556 189.00694C214.55556 187.35008 215.8987 186.00694 217.55556 186.00694C219.2124 186.00694 220.55556 187.35008 220.55556 189.00694Z" fill-rule="nonzero"/><path fill="#000000" fill-opacity="0.0" clip-path="url(#id_0)" d="M356.5111 178.99025C356.5111 180.64711 355.16797 181.99025 353.5111 181.99025C351.85425 181.99025 350.5111 180.64711 350.5111 178.99025C350.5111 177.33339 351.85425 175.99025 353.5111 175.99025C355.16797 175.99025 356.5111 177.33339 356.5111 178.99025Z" fill-rule="nonzero"/><path fill="#000000" fill-opacity="0.0" clip-path="url(#id_0)" d="M628.42224 106.242096C628.42224 107.89895 627.0791 109.242096 625.42224 109.242096C623.7654 109.242096 622.42224 107.89895 622.42224 106.242096C622.42224 104.58524 623.7654 103.242096 625.42224 103.242096C627.0791 103.242096 628.42224 104.58524 628.42224 106.242096Z" fill-rule="nonzero"/><path fill="#000000" d="M319.59375 255.4L319.59375 245.38437L324.04688 245.38437Q325.39062 245.38437 326.07812 245.65Q326.78125 245.91562 327.1875 246.60312Q327.60938 247.29062 327.60938 248.11874Q327.60938 249.18124 326.92188 249.91562Q326.23438 250.63437 324.79688 250.8375Q325.3125 251.0875 325.59375 251.3375Q326.17188 251.86874 326.6875 252.66562L328.4375 255.4L326.76562 255.4L325.4375 253.32187Q324.85938 252.41562 324.48438 251.94687Q324.10938 251.4625 323.8125 251.275Q323.51562 251.07187 323.20312 250.99374Q322.98438 250.94687 322.46875 250.94687L320.92188 250.94687L320.92188 255.4L319.59375 255.4ZM320.92188 249.80624L323.78125 249.80624Q324.6875 249.80624 325.20312 249.61874Q325.71875 249.43124 325.98438 249.025Q326.25 248.60312 326.25 248.11874Q326.25 247.4 325.73438 246.94687Q325.21875 246.47812 324.09375 246.47812L320.92188 246.47812L320.92188 249.80624ZM334.39062 253.05624L335.67188 253.2125Q335.35938 254.3375 334.54688 254.9625Q333.73438 255.57187 332.46875 255.57187Q330.875 255.57187 329.9375 254.5875Q329.01562 253.60312 329.01562 251.8375Q329.01562 249.99374 329.95312 248.99374Q330.90625 247.97812 332.40625 247.97812Q333.85938 247.97812 334.78125 248.97812Q335.70312 249.9625 335.70312 251.75937Q335.70312 251.86874 335.70312 252.0875L330.28125 252.0875Q330.35938 253.275 330.95312 253.91562Q331.5625 254.55624 332.48438 254.55624Q333.15625 254.55624 333.625 254.19687Q334.10938 253.8375 334.39062 253.05624ZM330.35938 251.07187L334.40625 251.07187Q334.32812 250.15 333.9375 249.69687Q333.35938 248.99374 332.42188 248.99374Q331.5625 248.99374 330.98438 249.55624Q330.42188 250.11874 330.35938 251.07187ZM342.04688 258.18124L342.04688 254.63437Q341.76562 255.025 341.25 255.30624Q340.73438 255.57187 340.15625 255.57187Q338.85938 255.57187 337.92188 254.54062Q337.0 253.49374 337.0 251.69687Q337.0 250.60312 337.375 249.74374Q337.75 248.86874 338.46875 248.43124Q339.1875 247.97812 340.0625 247.97812Q341.40625 247.97812 342.17188 249.10312L342.17188 248.13437L343.28125 248.13437L343.28125 258.18124L342.04688 258.18124ZM338.25 251.74374Q338.25 253.15 338.84375 253.85312Q339.4375 254.55624 340.25 254.55624Q341.04688 254.55624 341.60938 253.88437Q342.17188 253.2125 342.17188 251.85312Q342.17188 250.41562 341.57812 249.68124Q340.98438 248.94687 340.17188 248.94687Q339.375 248.94687 338.8125 249.63437Q338.25 250.30624 338.25 251.74374ZM350.1875 255.4L350.1875 254.3375Q349.32812 255.57187 347.875 255.57187Q347.23438 255.57187 346.67188 255.32187Q346.125 255.07187 345.84375 254.69687Q345.57812 254.32187 345.46875 253.79062Q345.39062 253.43124 345.39062 252.63437L345.39062 248.13437L346.625 248.13437L346.625 252.16562Q346.625 253.13437 346.70312 253.4625Q346.8125 253.94687 347.1875 254.22812Q347.5625 254.50937 348.125 254.50937Q348.67188 254.50937 349.15625 254.22812Q349.64062 253.93124 349.84375 253.44687Q350.04688 252.9625 350.04688 252.025L350.04688 248.13437L351.28125 248.13437L351.28125 255.4L350.1875 255.4ZM358.39062 253.05624L359.67188 253.2125Q359.35938 254.3375 358.54688 254.9625Q357.73438 255.57187 356.46875 255.57187Q354.875 255.57187 353.9375 254.5875Q353.01562 253.60312 353.01562 251.8375Q353.01562 249.99374 353.95312 248.99374Q354.90625 247.97812 356.40625 247.97812Q357.85938 247.97812 358.78125 248.97812Q359.70312 249.9625 359.70312 251.75937Q359.70312 251.86874 359.70312 252.0875L354.28125 252.0875Q354.35938 253.275 354.95312 253.91562Q355.5625 254.55624 356.48438 254.55624Q357.15625 254.55624 357.625 254.19687Q358.10938 253.8375 358.39062 253.05624ZM354.35938 251.07187L358.40625 251.07187Q358.32812 250.15 357.9375 249.69687Q357.35938 248.99374 356.42188 248.99374Q355.5625 248.99374 354.98438 249.55624Q354.42188 250.11874 354.35938 251.07187ZM360.9375 253.22812L362.14062 253.04062Q362.25 253.775 362.71875 254.16562Q363.1875 254.55624 364.03125 254.55624Q364.875 254.55624 365.28125 254.2125Q365.70312 253.86874 365.70312 253.4Q365.70312 252.97812 365.32812 252.74374Q365.07812 252.57187 364.07812 252.32187Q362.71875 251.97812 362.1875 251.72812Q361.67188 251.47812 361.40625 251.04062Q361.14062 250.60312 361.14062 250.07187Q361.14062 249.5875 361.35938 249.18124Q361.57812 248.75937 361.96875 248.47812Q362.25 248.275 362.73438 248.13437Q363.23438 247.97812 363.8125 247.97812Q364.65625 247.97812 365.29688 248.22812Q365.95312 248.4625 366.26562 248.88437Q366.57812 249.30624 366.6875 250.00937L365.48438 250.18124Q365.40625 249.61874 365.0 249.30624Q364.60938 248.99374 363.89062 248.99374Q363.04688 248.99374 362.6875 249.275Q362.32812 249.54062 362.32812 249.93124Q362.32812 250.16562 362.46875 250.35312Q362.625 250.55624 362.95312 250.68124Q363.125 250.74374 364.03125 250.99374Q365.34375 251.35312 365.85938 251.57187Q366.375 251.79062 366.65625 252.2125Q366.95312 252.63437 366.95312 253.25937Q366.95312 253.88437 366.59375 254.43124Q366.25 254.9625 365.5625 255.275Q364.89062 255.57187 364.03125 255.57187Q362.625 255.57187 361.875 254.97812Q361.14062 254.38437 360.9375 253.22812ZM371.10938 254.30624L371.28125 255.38437Q370.76562 255.49374 370.35938 255.49374Q369.6875 255.49374 369.3125 255.29062Q368.95312 255.07187 368.79688 254.72812Q368.65625 254.38437 368.65625 253.275L368.65625 249.10312L367.75 249.10312L367.75 248.13437L368.65625 248.13437L368.65625 246.3375L369.875 245.60312L369.875 248.13437L371.10938 248.13437L371.10938 249.10312L369.875 249.10312L369.875 253.3375Q369.875 253.86874 369.9375 254.025Q370.0 254.16562 370.14062 254.25937Q370.29688 254.35312 370.5625 254.35312Q370.78125 254.35312 371.10938 254.30624ZM371.9375 253.22812L373.14062 253.04062Q373.25 253.775 373.71875 254.16562Q374.1875 254.55624 375.03125 254.55624Q375.875 254.55624 376.28125 254.2125Q376.70312 253.86874 376.70312 253.4Q376.70312 252.97812 376.32812 252.74374Q376.07812 252.57187 375.07812 252.32187Q373.71875 251.97812 373.1875 251.72812Q372.67188 251.47812 372.40625 251.04062Q372.14062 250.60312 372.14062 250.07187Q372.14062 249.5875 372.35938 249.18124Q372.57812 248.75937 372.96875 248.47812Q373.25 248.275 373.73438 248.13437Q374.23438 247.97812 374.8125 247.97812Q375.65625 247.97812 376.29688 248.22812Q376.95312 248.4625 377.26562 248.88437Q377.57812 249.30624 377.6875 250.00937L376.48438 250.18124Q376.40625 249.61874 376.0 249.30624Q375.60938 248.99374 374.89062 248.99374Q374.04688 248.99374 373.6875 249.275Q373.32812 249.54062 373.32812 249.93124Q373.32812 250.16562 373.46875 250.35312Q373.625 250.55624 373.95312 250.68124Q374.125 250.74374 375.03125 250.99374Q376.34375 251.35312 376.85938 251.57187Q377.375 251.79062 377.65625 252.2125Q377.95312 252.63437 377.95312 253.25937Q377.95312 253.88437 377.59375 254.43124Q377.25 254.9625 376.5625 255.275Q375.89062 255.57187 375.03125 255.57187Q373.625 255.57187 372.875 254.97812Q372.14062 254.38437 371.9375 253.22812ZM383.57812 255.4L383.57812 245.38437L387.35938 245.38437Q388.35938 245.38437 388.89062 245.47812Q389.625 245.60312 390.125 245.94687Q390.625 246.29062 390.92188 246.91562Q391.23438 247.525 391.23438 248.275Q391.23438 249.55624 390.42188 250.44687Q389.60938 251.32187 387.48438 251.32187L384.90625 251.32187L384.90625 255.4L383.57812 255.4ZM384.90625 250.15L387.5 250.15Q388.78125 250.15 389.3125 249.66562Q389.85938 249.18124 389.85938 248.32187Q389.85938 247.68124 389.54688 247.24374Q389.23438 246.79062 388.70312 246.65Q388.375 246.55624 387.46875 246.55624L384.90625 246.55624L384.90625 250.15ZM397.39062 253.05624L398.67188 253.2125Q398.35938 254.3375 397.54688 254.9625Q396.73438 255.57187 395.46875 255.57187Q393.875 255.57187 392.9375 254.5875Q392.01562 253.60312 392.01562 251.8375Q392.01562 249.99374 392.95312 248.99374Q393.90625 247.97812 395.40625 247.97812Q396.85938 247.97812 397.78125 248.97812Q398.70312 249.9625 398.70312 251.75937Q398.70312 251.86874 398.70312 252.0875L393.28125 252.0875Q393.35938 253.275 393.95312 253.91562Q394.5625 254.55624 395.48438 254.55624Q396.15625 254.55624 396.625 254.19687Q397.10938 253.8375 397.39062 253.05624ZM393.35938 251.07187L397.40625 251.07187Q397.32812 250.15 396.9375 249.69687Q396.35938 248.99374 395.42188 248.99374Q394.5625 248.99374 393.98438 249.55624Q393.42188 250.11874 393.35938 251.07187ZM400.40625 255.4L400.40625 248.13437L401.51562 248.13437L401.51562 249.24374Q401.9375 248.4625 402.29688 248.22812Q402.65625 247.97812 403.09375 247.97812Q403.71875 247.97812 404.35938 248.36874L403.9375 249.50937Q403.48438 249.24374 403.03125 249.24374Q402.625 249.24374 402.29688 249.49374Q401.98438 249.72812 401.84375 250.16562Q401.64062 250.82187 401.64062 251.60312L401.64062 255.4L400.40625 255.4ZM409.125 252.18124L410.375 252.07187Q410.46875 252.82187 410.79688 253.30624Q411.125 253.79062 411.79688 254.0875Q412.48438 254.38437 413.34375 254.38437Q414.09375 254.38437 414.67188 254.16562Q415.26562 253.93124 415.54688 253.54062Q415.82812 253.15 415.82812 252.68124Q415.82812 252.2125 415.54688 251.86874Q415.28125 251.50937 414.65625 251.25937Q414.25 251.10312 412.85938 250.775Q411.48438 250.44687 410.9375 250.15Q410.21875 249.775 409.85938 249.22812Q409.51562 248.66562 409.51562 247.9625Q409.51562 247.2125 409.9375 246.55624Q410.375 245.88437 411.20312 245.55624Q412.03125 245.2125 413.04688 245.2125Q414.15625 245.2125 415.0 245.57187Q415.85938 245.93124 416.3125 246.63437Q416.76562 247.32187 416.8125 248.19687L415.53125 248.29062Q415.4375 247.35312 414.84375 246.86874Q414.25 246.36874 413.09375 246.36874Q411.89062 246.36874 411.34375 246.82187Q410.79688 247.25937 410.79688 247.88437Q410.79688 248.41562 411.1875 248.775Q411.5625 249.11874 413.17188 249.49374Q414.79688 249.85312 415.39062 250.11874Q416.26562 250.525 416.6875 251.15Q417.10938 251.75937 417.10938 252.57187Q417.10938 253.36874 416.64062 254.0875Q416.1875 254.79062 415.32812 255.18124Q414.46875 255.57187 413.40625 255.57187Q412.04688 255.57187 411.125 255.18124Q410.20312 254.775 409.67188 253.97812Q409.15625 253.18124 409.125 252.18124ZM423.39062 253.05624L424.67188 253.2125Q424.35938 254.3375 423.54688 254.9625Q422.73438 255.57187 421.46875 255.57187Q419.875 255.57187 418.9375 254.5875Q418.01562 253.60312 418.01562 251.8375Q418.01562 249.99374 418.95312 248.99374Q419.90625 247.97812 421.40625 247.97812Q422.85938 247.97812 423.78125 248.97812Q424.70312 249.9625 424.70312 251.75937Q424.70312 251.86874 424.70312 252.0875L419.28125 252.0875Q419.35938 253.275 419.95312 253.91562Q420.5625 254.55624 421.48438 254.55624Q422.15625 254.55624 422.625 254.19687Q423.10938 253.8375 423.39062 253.05624ZM419.35938 251.07187L423.40625 251.07187Q423.32812 250.15 422.9375 249.69687Q422.35938 248.99374 421.42188 248.99374Q420.5625 248.99374 419.98438 249.55624Q419.42188 250.11874 419.35938 251.07187ZM431.15625 252.74374L432.375 252.9Q432.17188 254.15 431.34375 254.86874Q430.53125 255.57187 429.34375 255.57187Q427.85938 255.57187 426.95312 254.60312Q426.04688 253.61874 426.04688 251.79062Q426.04688 250.61874 426.4375 249.74374Q426.82812 248.85312 427.625 248.41562Q428.42188 247.97812 429.35938 247.97812Q430.53125 247.97812 431.28125 248.57187Q432.04688 249.16562 432.25 250.275L431.0625 250.4625Q430.89062 249.72812 430.45312 249.36874Q430.01562 248.99374 429.40625 248.99374Q428.46875 248.99374 427.89062 249.66562Q427.3125 250.32187 427.3125 251.75937Q427.3125 253.22812 427.875 253.9Q428.4375 254.55624 429.32812 254.55624Q430.0625 254.55624 430.54688 254.11874Q431.03125 253.66562 431.15625 252.74374ZM432.96875 251.775Q432.96875 249.75937 434.09375 248.775Q435.01562 247.97812 436.375 247.97812Q437.85938 247.97812 438.8125 248.9625Q439.76562 249.93124 439.76562 251.66562Q439.76562 253.07187 439.34375 253.88437Q438.92188 254.68124 438.10938 255.13437Q437.3125 255.57187 436.375 255.57187Q434.84375 255.57187 433.90625 254.5875Q432.96875 253.60312 432.96875 251.775ZM434.23438 251.775Q434.23438 253.16562 434.84375 253.86874Q435.45312 254.55624 436.375 254.55624Q437.28125 254.55624 437.89062 253.85312Q438.5 253.15 438.5 251.72812Q438.5 250.38437 437.89062 249.69687Q437.28125 248.99374 436.375 248.99374Q435.45312 248.99374 434.84375 249.68124Q434.23438 250.36874 434.23438 251.775ZM441.42188 255.4L441.42188 248.13437L442.53125 248.13437L442.53125 249.16562Q443.32812 247.97812 444.84375 247.97812Q445.5 247.97812 446.04688 248.2125Q446.59375 248.44687 446.85938 248.8375Q447.14062 249.2125 447.25 249.74374Q447.32812 250.0875 447.32812 250.93124L447.32812 255.4L446.09375 255.4L446.09375 250.97812Q446.09375 250.22812 445.95312 249.86874Q445.8125 249.49374 445.4375 249.275Q445.07812 249.04062 444.57812 249.04062Q443.79688 249.04062 443.21875 249.54062Q442.65625 250.04062 442.65625 251.43124L442.65625 255.4L441.42188 255.4ZM454.14062 255.4L454.14062 254.47812Q453.4375 255.57187 452.10938 255.57187Q451.23438 255.57187 450.5 255.0875Q449.78125 254.60312 449.375 253.74374Q448.98438 252.88437 448.98438 251.775Q448.98438 250.69687 449.34375 249.80624Q449.70312 248.91562 450.42188 248.44687Q451.15625 247.97812 452.04688 247.97812Q452.70312 247.97812 453.21875 248.25937Q453.73438 248.525 454.04688 248.97812L454.04688 245.38437L455.28125 245.38437L455.28125 255.4L454.14062 255.4ZM450.25 251.775Q450.25 253.16562 450.82812 253.86874Q451.42188 254.55624 452.21875 254.55624Q453.03125 254.55624 453.59375 253.9Q454.15625 253.22812 454.15625 251.88437Q454.15625 250.38437 453.57812 249.69687Q453.0 248.99374 452.17188 248.99374Q451.34375 248.99374 450.79688 249.66562Q450.25 250.3375 450.25 251.775Z" fill-rule="nonzero"/><path fill="#000000" d="M26.599995 204.51979L16.58437 204.51979L16.58437 202.53542L23.67812 200.16042Q24.662495 199.83229 25.162495 199.67604Q24.61562 199.50417 23.55312 199.14479L16.58437 196.75417L16.58437 194.95729L26.599995 194.95729L26.599995 196.23854L18.20937 196.23854L26.599995 199.16042L26.599995 200.34792L18.068745 203.25417L26.599995 203.25417L26.599995 204.51979ZM24.256245 188.67604L24.412495 187.39479Q25.537495 187.70729 26.162495 188.51979Q26.77187 189.33229 26.77187 190.59792Q26.77187 192.19167 25.787495 193.12917Q24.80312 194.05104 23.037495 194.05104Q21.193745 194.05104 20.193745 193.11354Q19.17812 192.16042 19.17812 190.66042Q19.17812 189.20729 20.17812 188.28542Q21.162495 187.36354 22.95937 187.36354Q23.068745 187.36354 23.287495 187.36354L23.287495 192.78542Q24.474995 192.70729 25.11562 192.11354Q25.756245 191.50417 25.756245 190.58229Q25.756245 189.91042 25.39687 189.44167Q25.037495 188.95729 24.256245 188.67604ZM22.27187 192.70729L22.27187 188.66042Q21.349995 188.73854 20.89687 189.12917Q20.193745 189.70729 20.193745 190.64479Q20.193745 191.50417 20.756245 192.08229Q21.318745 192.64479 22.27187 192.70729ZM26.599995 180.92604L25.67812 180.92604Q26.77187 181.62917 26.77187 182.95729Q26.77187 183.83229 26.287495 184.56667Q25.80312 185.28542 24.943745 185.69167Q24.08437 186.08229 22.974995 186.08229Q21.89687 186.08229 21.006245 185.72292Q20.11562 185.36354 19.64687 184.64479Q19.17812 183.91042 19.17812 183.01979Q19.17812 182.36354 19.45937 181.84792Q19.724995 181.33229 20.17812 181.01979L16.58437 181.01979L16.58437 179.78542L26.599995 179.78542L26.599995 180.92604ZM22.974995 184.81667Q24.36562 184.81667 25.068745 184.23854Q25.756245 183.64479 25.756245 182.84792Q25.756245 182.03542 25.099995 181.47292Q24.42812 180.91042 23.08437 180.91042Q21.58437 180.91042 20.89687 181.48854Q20.193745 182.06667 20.193745 182.89479Q20.193745 183.72292 20.86562 184.26979Q21.537495 184.81667 22.974995 184.81667ZM17.99062 177.62917L16.58437 177.62917L16.58437 176.41042L17.99062 176.41042L17.99062 177.62917ZM26.599995 177.62917L19.33437 177.62917L19.33437 176.41042L26.599995 176.41042L26.599995 177.62917ZM25.70937 169.91042Q26.287495 170.58229 26.537495 171.22292Q26.77187 171.84792 26.77187 172.58229Q26.77187 173.76979 26.193745 174.42604Q25.599995 175.06667 24.67812 175.06667Q24.14687 175.06667 23.70937 174.83229Q23.27187 174.58229 23.006245 174.19167Q22.74062 173.78542 22.599995 173.30104Q22.506245 172.94167 22.412495 172.20729Q22.24062 170.70729 21.99062 170.00417Q21.74062 170.00417 21.67812 170.00417Q20.912495 170.00417 20.61562 170.34792Q20.193745 170.81667 20.193745 171.75417Q20.193745 172.61354 20.506245 173.03542Q20.80312 173.44167 21.568745 173.64479L21.412495 174.84792Q20.631245 174.69167 20.162495 174.31667Q19.693745 173.92604 19.443745 173.22292Q19.17812 172.50417 19.17812 171.56667Q19.17812 170.64479 19.39687 170.06667Q19.61562 169.48854 19.943745 169.22292Q20.27187 168.94167 20.787495 168.83229Q21.099995 168.76979 21.912495 168.76979L23.55312 168.76979Q25.27187 168.76979 25.724995 168.69167Q26.17812 168.61354 26.599995 168.37917L26.599995 169.66042Q26.20937 169.84792 25.70937 169.91042ZM22.95937 170.00417Q23.224995 170.67604 23.42812 172.01979Q23.537495 172.76979 23.67812 173.09792Q23.80312 173.41042 24.068745 173.58229Q24.33437 173.75417 24.64687 173.75417Q25.14687 173.75417 25.474995 173.37917Q25.80312 173.00417 25.80312 172.28542Q25.80312 171.56667 25.49062 171.01979Q25.17812 170.47292 24.631245 170.20729Q24.224995 170.00417 23.412495 170.00417L22.95937 170.00417ZM26.599995 166.64479L19.33437 166.64479L19.33437 165.53542L20.36562 165.53542Q19.17812 164.73854 19.17812 163.22292Q19.17812 162.56667 19.412495 162.01979Q19.64687 161.47292 20.037495 161.20729Q20.412495 160.92604 20.943745 160.81667Q21.287495 160.73854 22.131245 160.73854L26.599995 160.73854L26.599995 161.97292L22.17812 161.97292Q21.42812 161.97292 21.068745 162.11354Q20.693745 162.25417 20.474995 162.62917Q20.24062 162.98854 20.24062 163.48854Q20.24062 164.26979 20.74062 164.84792Q21.24062 165.41042 22.631245 165.41042L26.599995 165.41042L26.599995 166.64479ZM26.599995 154.53542L16.58437 154.53542L16.58437 153.20729L25.412495 153.20729L25.412495 148.28542L26.599995 148.28542L26.599995 154.53542ZM25.70937 141.91042Q26.287495 142.58229 26.537495 143.22292Q26.77187 143.84792 26.77187 144.58229Q26.77187 145.76979 26.193745 146.42604Q25.599995 147.06667 24.67812 147.06667Q24.14687 147.06667 23.70937 146.83229Q23.27187 146.58229 23.006245 146.19167Q22.74062 145.78542 22.599995 145.30104Q22.506245 144.94167 22.412495 144.20729Q22.24062 142.70729 21.99062 142.00417Q21.74062 142.00417 21.67812 142.00417Q20.912495 142.00417 20.61562 142.34792Q20.193745 142.81667 20.193745 143.75417Q20.193745 144.61354 20.506245 145.03542Q20.80312 145.44167 21.568745 145.64479L21.412495 146.84792Q20.631245 146.69167 20.162495 146.31667Q19.693745 145.92604 19.443745 145.22292Q19.17812 144.50417 19.17812 143.56667Q19.17812 142.64479 19.39687 142.06667Q19.61562 141.48854 19.943745 141.22292Q20.27187 140.94167 20.787495 140.83229Q21.099995 140.76979 21.912495 140.76979L23.55312 140.76979Q25.27187 140.76979 25.724995 140.69167Q26.17812 140.61354 26.599995 140.37917L26.599995 141.66042Q26.20937 141.84792 25.70937 141.91042ZM22.95937 142.00417Q23.224995 142.67604 23.42812 144.01979Q23.537495 144.76979 23.67812 145.09792Q23.80312 145.41042 24.068745 145.58229Q24.33437 145.75417 24.64687 145.75417Q25.14687 145.75417 25.474995 145.37917Q25.80312 145.00417 25.80312 144.28542Q25.80312 143.56667 25.49062 143.01979Q25.17812 142.47292 24.631245 142.20729Q24.224995 142.00417 23.412495 142.00417L22.95937 142.00417ZM25.506245 135.95729L26.58437 135.78542Q26.693745 136.30104 26.693745 136.70729Q26.693745 137.37917 26.49062 137.75417Q26.27187 138.11354 25.92812 138.26979Q25.58437 138.41042 24.474995 138.41042L20.30312 138.41042L20.30312 139.31667L19.33437 139.31667L19.33437 138.41042L17.537495 138.41042L16.80312 137.19167L19.33437 137.19167L19.33437 135.95729L20.30312 135.95729L20.30312 137.19167L24.537495 137.19167Q25.068745 137.19167 25.224995 137.12917Q25.36562 137.06667 25.45937 136.92604Q25.55312 136.76979 25.55312 136.50417Q25.55312 136.28542 25.506245 135.95729ZM24.256245 129.67604L24.412495 128.39479Q25.537495 128.70729 26.162495 129.51979Q26.77187 130.33229 26.77187 131.59792Q26.77187 133.19167 25.787495 134.12917Q24.80312 135.05104 23.037495 135.05104Q21.193745 135.05104 20.193745 134.11354Q19.17812 133.16042 19.17812 131.66042Q19.17812 130.20729 20.17812 129.28542Q21.162495 128.36354 22.95937 128.36354Q23.068745 128.36354 23.287495 128.36354L23.287495 133.78542Q24.474995 133.70729 25.11562 133.11354Q25.756245 132.50417 25.756245 131.58229Q25.756245 130.91042 25.39687 130.44167Q25.037495 129.95729 24.256245 129.67604ZM22.27187 133.70729L22.27187 129.66042Q21.349995 129.73854 20.89687 130.12917Q20.193745 130.70729 20.193745 131.64479Q20.193745 132.50417 20.756245 133.08229Q21.318745 133.64479 22.27187 133.70729ZM26.599995 126.64479L19.33437 126.64479L19.33437 125.535416L20.36562 125.535416Q19.17812 124.73854 19.17812 123.222916Q19.17812 122.566666 19.412495 122.01979Q19.64687 121.472916 20.037495 121.20729Q20.412495 120.92604 20.943745 120.816666Q21.287495 120.73854 22.131245 120.73854L26.599995 120.73854L26.599995 121.972916L22.17812 121.972916Q21.42812 121.972916 21.068745 122.11354Q20.693745 122.254166 20.474995 122.629166Q20.24062 122.98854 20.24062 123.48854Q20.24062 124.26979 20.74062 124.847916Q21.24062 125.410416 22.631245 125.410416L26.599995 125.410416L26.599995 126.64479ZM23.943745 113.910416L24.099995 112.691666Q25.349995 112.89479 26.068745 113.722916Q26.77187 114.535416 26.77187 115.722916Q26.77187 117.20729 25.80312 118.11354Q24.818745 119.01979 22.99062 119.01979Q21.818745 119.01979 20.943745 118.629166Q20.05312 118.23854 19.61562 117.441666Q19.17812 116.64479 19.17812 115.70729Q19.17812 114.535416 19.77187 113.785416Q20.36562 113.01979 21.474995 112.816666L21.662495 114.004166Q20.92812 114.17604 20.568745 114.61354Q20.193745 115.05104 20.193745 115.660416Q20.193745 116.597916 20.86562 117.17604Q21.52187 117.754166 22.95937 117.754166Q24.42812 117.754166 25.099995 117.191666Q25.756245 116.629166 25.756245 115.73854Q25.756245 115.004166 25.318745 114.51979Q24.86562 114.035416 23.943745 113.910416ZM29.39687 111.691666L28.24062 111.83229Q28.349995 111.42604 28.349995 111.129166Q28.349995 110.722916 28.20937 110.472916Q28.08437 110.222916 27.83437 110.066666Q27.64687 109.95729 26.912495 109.691666Q26.818745 109.660416 26.61562 109.58229L19.33437 112.347916L19.33437 111.01979L23.537495 109.504166Q24.349995 109.20729 25.224995 108.972916Q24.381245 108.76979 23.568745 108.472916L19.33437 106.92604L19.33437 105.691666L26.724995 108.45729Q27.912495 108.89479 28.36562 109.14479Q28.974995 109.472916 29.256245 109.89479Q29.55312 110.316666 29.55312 110.910416Q29.55312 111.254166 29.39687 111.691666ZM29.55312 98.285416Q28.256245 99.316666 26.537495 100.01979Q24.818745 100.722916 22.974995 100.722916Q21.349995 100.722916 19.849995 100.191666Q18.11562 99.58229 16.412495 98.285416L16.412495 97.410416Q17.83437 98.23854 18.443745 98.504166Q19.381245 98.92604 20.412495 99.160416Q21.67812 99.45729 22.974995 99.45729Q26.27187 99.45729 29.55312 97.410416L29.55312 98.285416ZM24.42812 96.129166L24.24062 94.92604Q24.974995 94.816666 25.36562 94.347916Q25.756245 93.879166 25.756245 93.035416Q25.756245 92.191666 25.412495 91.785416Q25.068745 91.36354 24.599995 91.36354Q24.17812 91.36354 23.943745 91.73854Q23.77187 91.98854 23.52187 92.98854Q23.17812 94.347916 22.92812 94.879166Q22.67812 95.39479 22.24062 95.660416Q21.80312 95.92604 21.27187 95.92604Q20.787495 95.92604 20.381245 95.70729Q19.95937 95.48854 19.67812 95.097916Q19.474995 94.816666 19.33437 94.33229Q19.17812 93.83229 19.17812 93.254166Q19.17812 92.410416 19.42812 91.76979Q19.662495 91.11354 20.08437 90.80104Q20.506245 90.48854 21.20937 90.379166L21.381245 91.58229Q20.818745 91.660416 20.506245 92.066666Q20.193745 92.45729 20.193745 93.17604Q20.193745 94.01979 20.474995 94.379166Q20.74062 94.73854 21.131245 94.73854Q21.36562 94.73854 21.55312 94.597916Q21.756245 94.441666 21.881245 94.11354Q21.943745 93.941666 22.193745 93.035416Q22.55312 91.722916 22.77187 91.20729Q22.99062 90.691666 23.412495 90.410416Q23.83437 90.11354 24.45937 90.11354Q25.08437 90.11354 25.631245 90.472916Q26.162495 90.816666 26.474995 91.504166Q26.77187 92.17604 26.77187 93.035416Q26.77187 94.441666 26.17812 95.191666Q25.58437 95.92604 24.42812 96.129166ZM29.55312 87.83229L29.55312 88.722916Q26.27187 86.67604 22.974995 86.67604Q21.693745 86.67604 20.42812 86.972916Q19.39687 87.20729 18.45937 87.61354Q17.849995 87.879166 16.412495 88.722916L16.412495 87.83229Q18.11562 86.55104 19.849995 85.941666Q21.349995 85.410416 22.974995 85.410416Q24.818745 85.410416 26.537495 86.129166Q28.256245 86.83229 29.55312 87.83229Z" fill-rule="nonzero"/><path fill="#000000" d="M67.17812 198.4625Q67.17812 196.68124 67.5375 195.60312Q67.9125 194.50937 68.63125 193.93124Q69.35 193.3375 70.44375 193.3375Q71.25625 193.3375 71.86562 193.66562Q72.475 193.99374 72.86562 194.60312Q73.27187 195.2125 73.49062 196.0875Q73.70937 196.9625 73.70937 198.4625Q73.70937 200.22812 73.35 201.30624Q72.99062 202.38437 72.27187 202.97812Q71.55312 203.57187 70.44375 203.57187Q69.00625 203.57187 68.17812 202.525Q67.17812 201.275 67.17812 198.4625ZM68.44375 198.4625Q68.44375 200.93124 69.02187 201.74374Q69.6 202.55624 70.44375 202.55624Q71.30312 202.55624 71.88125 201.74374Q72.45937 200.91562 72.45937 198.4625Q72.45937 195.97812 71.88125 195.16562Q71.30312 194.35312 70.42812 194.35312Q69.58437 194.35312 69.08437 195.07187Q68.44375 195.99374 68.44375 198.4625Z" fill-rule="nonzero"/><path fill="#000000" d="M65.64687 177.87917L65.64687 179.06667L59.021873 179.06667Q59.00625 178.62917 59.1625 178.20729Q59.428123 177.53542 59.975 176.87917Q60.5375 176.22292 61.584373 175.36354Q63.225 174.01979 63.7875 173.23854Q64.36562 172.45729 64.36562 171.75417Q64.36562 171.01979 63.834373 170.51979Q63.31875 170.01979 62.490623 170.01979Q61.6 170.01979 61.053123 170.55104Q60.521873 171.08229 60.521873 172.03542L59.25625 171.89479Q59.38125 170.48854 60.225 169.75417Q61.084373 169.00417 62.50625 169.00417Q63.959373 169.00417 64.7875 169.80104Q65.63125 170.59792 65.63125 171.78542Q65.63125 172.39479 65.38125 172.97292Q65.14687 173.55104 64.56875 174.19167Q64.00625 174.83229 62.678123 175.95729Q61.56875 176.87917 61.25625 177.22292Q60.94375 177.55104 60.740623 177.87917L65.64687 177.87917ZM67.17812 176.44167L68.475 176.33229Q68.61562 177.26979 69.13125 177.75417Q69.6625 178.22292 70.39687 178.22292Q71.2875 178.22292 71.89687 177.55104Q72.52187 176.87917 72.52187 175.78542Q72.52187 174.72292 71.92812 174.11354Q71.33437 173.50417 70.38125 173.50417Q69.7875 173.50417 69.30312 173.78542Q68.83437 174.05104 68.55312 174.47292L67.39687 174.33229L68.36562 169.17604L73.35 169.17604L73.35 170.36354L69.35 170.36354L68.81875 173.05104Q69.725 172.42604 70.70937 172.42604Q72.02187 172.42604 72.9125 173.33229Q73.81875 174.23854 73.81875 175.67604Q73.81875 177.03542 73.0375 178.01979Q72.06875 179.23854 70.39687 179.23854Q69.0375 179.23854 68.1625 178.47292Q67.30312 177.70729 67.17812 176.44167Z" fill-rule="nonzero"/><path fill="#000000" d="M59.178123 152.10834L60.475 151.99896Q60.615623 152.93646 61.13125 153.42084Q61.6625 153.88959 62.396873 153.88959Q63.2875 153.88959 63.896873 153.21771Q64.52187 152.54584 64.52187 151.45209Q64.52187 150.38959 63.928123 149.78021Q63.334373 149.17084 62.38125 149.17084Q61.7875 149.17084 61.303123 149.45209Q60.834373 149.71771 60.553123 150.13959L59.396873 149.99896L60.365623 144.84271L65.35 144.84271L65.35 146.03021L61.35 146.03021L60.81875 148.71771Q61.725 148.09271 62.709373 148.09271Q64.02187 148.09271 64.9125 148.99896Q65.81875 149.90521 65.81875 151.34271Q65.81875 152.70209 65.0375 153.68646Q64.06875 154.90521 62.396873 154.90521Q61.0375 154.90521 60.1625 154.13959Q59.303123 153.37396 59.178123 152.10834ZM67.17812 149.79584Q67.17812 148.01459 67.5375 146.93646Q67.9125 145.84271 68.63125 145.26459Q69.35 144.67084 70.44375 144.67084Q71.25625 144.67084 71.86562 144.99896Q72.475 145.32709 72.86562 145.93646Q73.27187 146.54584 73.49062 147.42084Q73.70937 148.29584 73.70937 149.79584Q73.70937 151.56146 73.35 152.63959Q72.99062 153.71771 72.27187 154.31146Q71.55312 154.90521 70.44375 154.90521Q69.00625 154.90521 68.17812 153.85834Q67.17812 152.60834 67.17812 149.79584ZM68.44375 149.79584Q68.44375 152.26459 69.02187 153.07709Q69.6 153.88959 70.44375 153.88959Q71.30312 153.88959 71.88125 153.07709Q72.45937 152.24896 72.45937 149.79584Q72.45937 147.31146 71.88125 146.49896Q71.30312 145.68646 70.42812 145.68646Q69.58437 145.68646 69.08437 146.40521Q68.44375 147.32709 68.44375 149.79584Z" fill-rule="nonzero"/><path fill="#000000" d="M59.25625 121.69687L59.25625 120.50937L65.75625 120.50937L65.75625 121.462494Q64.7875 122.47812 63.85 124.16562Q62.9125 125.85312 62.396873 127.649994Q62.0375 128.9 61.928123 130.4L60.6625 130.4Q60.678123 129.2125 61.115623 127.54062Q61.56875 125.868744 62.396873 124.32187Q63.240623 122.75937 64.17812 121.69687L59.25625 121.69687ZM67.17812 127.774994L68.475 127.66562Q68.61562 128.60312 69.13125 129.0875Q69.6625 129.55624 70.39687 129.55624Q71.2875 129.55624 71.89687 128.88437Q72.52187 128.2125 72.52187 127.118744Q72.52187 126.056244 71.92812 125.44687Q71.33437 124.837494 70.38125 124.837494Q69.7875 124.837494 69.30312 125.118744Q68.83437 125.38437 68.55312 125.806244L67.39687 125.66562L68.36562 120.50937L73.35 120.50937L73.35 121.69687L69.35 121.69687L68.81875 124.38437Q69.725 123.75937 70.70937 123.75937Q72.02187 123.75937 72.9125 124.66562Q73.81875 125.57187 73.81875 127.00937Q73.81875 128.36874 73.0375 129.35312Q72.06875 130.57187 70.39687 130.57187Q69.0375 130.57187 68.1625 129.80624Q67.30312 129.04062 67.17812 127.774994Z" fill-rule="nonzero"/><path fill="#000000" d="M55.81875 106.066666L54.584373 106.066666L54.584373 98.222916Q54.146873 98.64479 53.4125 99.08229Q52.69375 99.504166 52.13125 99.70729L52.13125 98.51979Q53.1625 98.035416 53.928123 97.347916Q54.709373 96.660416 55.021873 96.004166L55.81875 96.004166L55.81875 106.066666ZM59.178123 101.129166Q59.178123 99.347916 59.5375 98.26979Q59.9125 97.17604 60.63125 96.597916Q61.35 96.004166 62.44375 96.004166Q63.25625 96.004166 63.865623 96.33229Q64.475 96.660416 64.86562 97.26979Q65.27187 97.879166 65.49062 98.754166Q65.70937 99.629166 65.70937 101.129166Q65.70937 102.89479 65.35 103.972916Q64.99062 105.05104 64.27187 105.64479Q63.553123 106.23854 62.44375 106.23854Q61.00625 106.23854 60.178123 105.191666Q59.178123 103.941666 59.178123 101.129166ZM60.44375 101.129166Q60.44375 103.597916 61.021873 104.410416Q61.6 105.222916 62.44375 105.222916Q63.303123 105.222916 63.88125 104.410416Q64.45937 103.58229 64.45937 101.129166Q64.45937 98.64479 63.88125 97.83229Q63.303123 97.01979 62.428123 97.01979Q61.584373 97.01979 61.084373 97.73854Q60.44375 98.660416 60.44375 101.129166ZM67.17812 101.129166Q67.17812 99.347916 67.5375 98.26979Q67.9125 97.17604 68.63125 96.597916Q69.35 96.004166 70.44375 96.004166Q71.25625 96.004166 71.86562 96.33229Q72.475 96.660416 72.86562 97.26979Q73.27187 97.879166 73.49062 98.754166Q73.70937 99.629166 73.70937 101.129166Q73.70937 102.89479 73.35 103.972916Q72.99062 105.05104 72.27187 105.64479Q71.55312 106.23854 70.44375 106.23854Q69.00625 106.23854 68.17812 105.191666Q67.17812 103.941666 67.17812 101.129166ZM68.44375 101.129166Q68.44375 103.597916 69.02187 104.410416Q69.6 105.222916 70.44375 105.222916Q71.30312 105.222916 71.88125 104.410416Q72.45937 103.58229 72.45937 101.129166Q72.45937 98.64479 71.88125 97.83229Q71.30312 97.01979 70.42812 97.01979Q69.58437 97.01979 69.08437 97.73854Q68.44375 98.660416 68.44375 101.129166Z" fill-rule="nonzero"/><path fill="#000000" d="M55.81875 81.73333L54.584373 81.73333L54.584373 73.88958Q54.146873 74.311455 53.4125 74.748955Q52.69375 75.17083 52.13125 75.373955L52.13125 74.186455Q53.1625 73.70208 53.928123 73.01458Q54.709373 72.32708 55.021873 71.67083L55.81875 71.67083L55.81875 81.73333ZM65.64687 80.54583L65.64687 81.73333L59.021873 81.73333Q59.00625 81.29583 59.1625 80.873955Q59.428123 80.20208 59.975 79.54583Q60.5375 78.88958 61.584373 78.030205Q63.225 76.686455 63.7875 75.905205Q64.36562 75.123955 64.36562 74.42083Q64.36562 73.686455 63.834373 73.186455Q63.31875 72.686455 62.490623 72.686455Q61.6 72.686455 61.053123 73.217705Q60.521873 73.748955 60.521873 74.70208L59.25625 74.561455Q59.38125 73.155205 60.225 72.42083Q61.084373 71.67083 62.50625 71.67083Q63.959373 71.67083 64.7875 72.467705Q65.63125 73.26458 65.63125 74.45208Q65.63125 75.061455 65.38125 75.63958Q65.14687 76.217705 64.56875 76.85833Q64.00625 77.498955 62.678123 78.623955Q61.56875 79.54583 61.25625 79.88958Q60.94375 80.217705 60.740623 80.54583L65.64687 80.54583ZM67.17812 79.10833L68.475 78.998955Q68.61562 79.936455 69.13125 80.42083Q69.6625 80.88958 70.39687 80.88958Q71.2875 80.88958 71.89687 80.217705Q72.52187 79.54583 72.52187 78.45208Q72.52187 77.38958 71.92812 76.780205Q71.33437 76.17083 70.38125 76.17083Q69.7875 76.17083 69.30312 76.45208Q68.83437 76.717705 68.55312 77.13958L67.39687 76.998955L68.36562 71.842705L73.35 71.842705L73.35 73.030205L69.35 73.030205L68.81875 75.717705Q69.725 75.092705 70.70937 75.092705Q72.02187 75.092705 72.9125 75.998955Q73.81875 76.905205 73.81875 78.342705Q73.81875 79.70208 73.0375 80.686455Q72.06875 81.905205 70.39687 81.905205Q69.0375 81.905205 68.1625 81.13958Q67.30312 80.373955 67.17812 79.10833Z" fill-rule="nonzero"/><path fill="#000000" d="M78.17812 213.4625Q78.17812 211.68124 78.5375 210.60312Q78.9125 209.50937 79.63125 208.93124Q80.35 208.3375 81.44375 208.3375Q82.25625 208.3375 82.86562 208.66562Q83.475 208.99374 83.86562 209.60312Q84.27187 210.2125 84.49062 211.0875Q84.70937 211.9625 84.70937 213.4625Q84.70937 215.22812 84.35 216.30624Q83.99062 217.38437 83.27187 217.97812Q82.55312 218.57187 81.44375 218.57187Q80.00625 218.57187 79.17812 217.525Q78.17812 216.275 78.17812 213.4625ZM79.44375 213.4625Q79.44375 215.93124 80.02187 216.74374Q80.6 217.55624 81.44375 217.55624Q82.30312 217.55624 82.88125 216.74374Q83.45937 215.91562 83.45937 213.4625Q83.45937 210.97812 82.88125 210.16562Q82.30312 209.35312 81.42812 209.35312Q80.58437 209.35312 80.08437 210.07187Q79.44375 210.99374 79.44375 213.4625Z" fill-rule="nonzero"/><path fill="#000000" d="M152.62465 217.2125L152.62465 218.4L145.99965 218.4Q145.98402 217.9625 146.14027 217.54062Q146.4059 216.86874 146.95277 216.2125Q147.51527 215.55624 148.56215 214.69687Q150.20277 213.35312 150.76527 212.57187Q151.3434 211.79062 151.3434 211.0875Q151.3434 210.35312 150.81215 209.85312Q150.29652 209.35312 149.4684 209.35312Q148.57777 209.35312 148.0309 209.88437Q147.49965 210.41562 147.49965 211.36874L146.23402 211.22812Q146.35902 209.82187 147.20277 209.0875Q148.06215 208.3375 149.48402 208.3375Q150.93715 208.3375 151.76527 209.13437Q152.60902 209.93124 152.60902 211.11874Q152.60902 211.72812 152.35902 212.30624Q152.12465 212.88437 151.54652 213.525Q150.98402 214.16562 149.6559 215.29062Q148.54652 216.2125 148.23402 216.55624Q147.92152 216.88437 147.7184 217.2125L152.62465 217.2125Z" fill-rule="nonzero"/><path fill="#000000" d="M218.0868 218.4L218.0868 215.99374L213.72743 215.99374L213.72743 214.86874L218.30556 208.38437L219.30556 208.38437L219.30556 214.86874L220.66493 214.86874L220.66493 215.99374L219.30556 215.99374L219.30556 218.4L218.0868 218.4ZM218.0868 214.86874L218.0868 210.35312L214.94618 214.86874L218.0868 214.86874Z" fill-rule="nonzero"/><path fill="#000000" d="M288.50208 210.8375L287.28333 210.93124Q287.11145 210.19687 286.81458 209.86874Q286.31458 209.35312 285.5802 209.35312Q284.98645 209.35312 284.54895 209.68124Q283.97083 210.10312 283.62708 210.91562Q283.29895 211.72812 283.28333 213.22812Q283.72083 212.55624 284.36145 212.22812Q285.0177 211.9 285.72083 211.9Q286.9552 211.9 287.81458 212.80624Q288.67395 213.7125 288.67395 215.15Q288.67395 216.0875 288.2677 216.9Q287.86145 217.7125 287.1427 218.15Q286.43958 218.57187 285.53333 218.57187Q284.00208 218.57187 283.03333 217.44687Q282.06458 216.30624 282.06458 213.7125Q282.06458 210.80624 283.12708 209.47812Q284.06458 208.3375 285.65833 208.3375Q286.84583 208.3375 287.59583 209.00937Q288.34583 209.66562 288.50208 210.8375ZM283.47083 215.15Q283.47083 215.79062 283.73645 216.36874Q284.0177 216.94687 284.50208 217.25937Q284.98645 217.55624 285.5177 217.55624Q286.29895 217.55624 286.86145 216.93124Q287.42395 216.30624 287.42395 215.22812Q287.42395 214.18124 286.86145 213.5875Q286.31458 212.97812 285.47083 212.97812Q284.6427 212.97812 284.04895 213.5875Q283.47083 214.18124 283.47083 215.15Z" fill-rule="nonzero"/><path fill="#000000" d="M351.97986 212.9625Q351.21423 212.68124 350.83923 212.16562Q350.47986 211.65 350.47986 210.91562Q350.47986 209.82187 351.2611 209.0875Q352.05798 208.3375 353.35486 208.3375Q354.66736 208.3375 355.46423 209.10312Q356.27673 209.86874 356.27673 210.9625Q356.27673 211.65 355.90173 212.16562Q355.54236 212.68124 354.79236 212.9625Q355.71423 213.25937 356.1986 213.93124Q356.68298 214.60312 356.68298 215.54062Q356.68298 216.82187 355.77673 217.69687Q354.87048 218.57187 353.3861 218.57187Q351.90173 218.57187 350.97986 217.69687Q350.0736 216.80624 350.0736 215.49374Q350.0736 214.525 350.5736 213.86874Q351.0736 213.19687 351.97986 212.9625ZM351.74548 210.88437Q351.74548 211.5875 352.1986 212.04062Q352.65173 212.49374 353.3861 212.49374Q354.10486 212.49374 354.55798 212.05624Q355.0111 211.60312 355.0111 210.94687Q355.0111 210.275 354.54236 209.82187Q354.0736 209.35312 353.37048 209.35312Q352.66736 209.35312 352.1986 209.80624Q351.74548 210.24374 351.74548 210.88437ZM351.33923 215.50937Q351.33923 216.04062 351.58923 216.54062Q351.83923 217.025 352.3236 217.29062Q352.8236 217.55624 353.40173 217.55624Q354.27673 217.55624 354.83923 216.99374Q355.41736 216.43124 355.41736 215.55624Q355.41736 214.66562 354.8236 214.0875Q354.24548 213.49374 353.35486 213.49374Q352.47986 213.49374 351.90173 214.07187Q351.33923 214.65 351.33923 215.50937Z" fill-rule="nonzero"/><path fill="#000000" d="M418.70764 218.4L417.47327 218.4L417.47327 210.55624Q417.03577 210.97812 416.3014 211.41562Q415.58264 211.8375 415.02014 212.04062L415.02014 210.85312Q416.0514 210.36874 416.81702 209.68124Q417.59827 208.99374 417.91077 208.3375L418.70764 208.3375L418.70764 218.4ZM422.06702 213.4625Q422.06702 211.68124 422.4264 210.60312Q422.8014 209.50937 423.52014 208.93124Q424.2389 208.3375 425.33264 208.3375Q426.14514 208.3375 426.75452 208.66562Q427.3639 208.99374 427.75452 209.60312Q428.16077 210.2125 428.37952 211.0875Q428.59827 211.9625 428.59827 213.4625Q428.59827 215.22812 428.2389 216.30624Q427.87952 217.38437 427.16077 217.97812Q426.44202 218.57187 425.33264 218.57187Q423.89514 218.57187 423.06702 217.525Q422.06702 216.275 422.06702 213.4625ZM423.33264 213.4625Q423.33264 215.93124 423.91077 216.74374Q424.4889 217.55624 425.33264 217.55624Q426.19202 217.55624 426.77014 216.74374Q427.34827 215.91562 427.34827 213.4625Q427.34827 210.97812 426.77014 210.16562Q426.19202 209.35312 425.31702 209.35312Q424.47327 209.35312 423.97327 210.07187Q423.33264 210.99374 423.33264 213.4625Z" fill-rule="nonzero"/><path fill="#000000" d="M486.68542 218.4L485.45105 218.4L485.45105 210.55624Q485.01355 210.97812 484.27917 211.41562Q483.56042 211.8375 482.99792 212.04062L482.99792 210.85312Q484.02917 210.36874 484.7948 209.68124Q485.57605 208.99374 485.88855 208.3375L486.68542 208.3375L486.68542 218.4ZM496.51355 217.2125L496.51355 218.4L489.88855 218.4Q489.87292 217.9625 490.02917 217.54062Q490.2948 216.86874 490.84167 216.2125Q491.40417 215.55624 492.45105 214.69687Q494.09167 213.35312 494.65417 212.57187Q495.2323 211.79062 495.2323 211.0875Q495.2323 210.35312 494.70105 209.85312Q494.18542 209.35312 493.3573 209.35312Q492.46667 209.35312 491.9198 209.88437Q491.38855 210.41562 491.38855 211.36874L490.12292 211.22812Q490.24792 209.82187 491.09167 209.0875Q491.95105 208.3375 493.37292 208.3375Q494.82605 208.3375 495.65417 209.13437Q496.49792 209.93124 496.49792 211.11874Q496.49792 211.72812 496.24792 212.30624Q496.01355 212.88437 495.43542 213.525Q494.87292 214.16562 493.5448 215.29062Q492.43542 216.2125 492.12292 216.55624Q491.81042 216.88437 491.6073 217.2125L496.51355 217.2125Z" fill-rule="nonzero"/><path fill="#000000" d="M554.6632 218.4L553.42883 218.4L553.42883 210.55624Q552.99133 210.97812 552.25696 211.41562Q551.5382 211.8375 550.9757 212.04062L550.9757 210.85312Q552.00696 210.36874 552.7726 209.68124Q553.55383 208.99374 553.86633 208.3375L554.6632 208.3375L554.6632 218.4ZM561.9757 218.4L561.9757 215.99374L557.61633 215.99374L557.61633 214.86874L562.19446 208.38437L563.19446 208.38437L563.19446 214.86874L564.55383 214.86874L564.55383 215.99374L563.19446 215.99374L563.19446 218.4L561.9757 218.4ZM561.9757 214.86874L561.9757 210.35312L558.8351 214.86874L561.9757 214.86874Z" fill-rule="nonzero"/><path fill="#000000" d="M622.641 218.4L621.4066 218.4L621.4066 210.55624Q620.9691 210.97812 620.23474 211.41562Q619.516 211.8375 618.9535 212.04062L618.9535 210.85312Q619.98474 210.36874 620.75037 209.68124Q621.5316 208.99374 621.8441 208.3375L622.641 208.3375L622.641 218.4ZM632.391 210.8375L631.17224 210.93124Q631.00037 210.19687 630.7035 209.86874Q630.2035 209.35312 629.4691 209.35312Q628.87537 209.35312 628.43787 209.68124Q627.85974 210.10312 627.516 210.91562Q627.18787 211.72812 627.17224 213.22812Q627.60974 212.55624 628.25037 212.22812Q628.9066 211.9 629.60974 211.9Q630.8441 211.9 631.7035 212.80624Q632.56287 213.7125 632.56287 215.15Q632.56287 216.0875 632.1566 216.9Q631.75037 217.7125 631.0316 218.15Q630.3285 218.57187 629.42224 218.57187Q627.891 218.57187 626.92224 217.44687Q625.9535 216.30624 625.9535 213.7125Q625.9535 210.80624 627.016 209.47812Q627.9535 208.3375 629.54724 208.3375Q630.73474 208.3375 631.48474 209.00937Q632.23474 209.66562 632.391 210.8375ZM627.35974 215.15Q627.35974 215.79062 627.62537 216.36874Q627.9066 216.94687 628.391 217.25937Q628.87537 217.55624 629.4066 217.55624Q630.18787 217.55624 630.75037 216.93124Q631.31287 216.30624 631.31287 215.22812Q631.31287 214.18124 630.75037 213.5875Q630.2035 212.97812 629.35974 212.97812Q628.5316 212.97812 627.93787 213.5875Q627.35974 214.18124 627.35974 215.15Z" fill-rule="nonzero"/><path fill="#000000" d="M690.6188 218.4L689.3844 218.4L689.3844 210.55624Q688.9469 210.97812 688.2125 211.41562Q687.4938 211.8375 686.9313 212.04062L686.9313 210.85312Q687.9625 210.36874 688.72815 209.68124Q689.5094 208.99374 689.8219 208.3375L690.6188 208.3375L690.6188 218.4ZM695.8688 212.9625Q695.10315 212.68124 694.72815 212.16562Q694.3688 211.65 694.3688 210.91562Q694.3688 209.82187 695.15 209.0875Q695.9469 208.3375 697.2438 208.3375Q698.5563 208.3375 699.35315 209.10312Q700.16565 209.86874 700.16565 210.9625Q700.16565 211.65 699.79065 212.16562Q699.4313 212.68124 698.6813 212.9625Q699.60315 213.25937 700.0875 213.93124Q700.5719 214.60312 700.5719 215.54062Q700.5719 216.82187 699.66565 217.69687Q698.7594 218.57187 697.275 218.57187Q695.79065 218.57187 694.8688 217.69687Q693.9625 216.80624 693.9625 215.49374Q693.9625 214.525 694.4625 213.86874Q694.9625 213.19687 695.8688 212.9625ZM695.6344 210.88437Q695.6344 211.5875 696.0875 212.04062Q696.54065 212.49374 697.275 212.49374Q697.9938 212.49374 698.4469 212.05624Q698.9 211.60312 698.9 210.94687Q698.9 210.275 698.4313 209.82187Q697.9625 209.35312 697.2594 209.35312Q696.5563 209.35312 696.0875 209.80624Q695.6344 210.24374 695.6344 210.88437ZM695.22815 215.50937Q695.22815 216.04062 695.47815 216.54062Q695.72815 217.025 696.2125 217.29062Q696.7125 217.55624 697.29065 217.55624Q698.16565 217.55624 698.72815 216.99374Q699.3063 216.43124 699.3063 215.55624Q699.3063 214.66562 698.7125 214.0875Q698.1344 213.49374 697.2438 213.49374Q696.3688 213.49374 695.79065 214.07187Q695.22815 214.65 695.22815 215.50937Z" fill-rule="nonzero"/><path stroke="#30a2ff" stroke-width="4.0" stroke-linecap="butt" d="M216.5 51.666668L228.5 51.666668" fill-rule="nonzero"/><path fill="#1a1a1a" d="M239.4375 56.666668L236.67188 49.401043L237.98438 49.401043L239.53125 53.760418Q239.78125 54.463543 240.0 55.213543Q240.17188 54.635418 240.45312 53.838543L242.07812 49.401043L243.34375 49.401043L240.59375 56.666668L239.4375 56.666668ZM244.53125 56.666668L244.53125 46.651043L245.85938 46.651043L245.85938 55.479168L250.78125 55.479168L250.78125 56.666668L244.53125 56.666668ZM252.53125 56.666668L252.53125 46.651043L253.85938 46.651043L253.85938 55.479168L258.78125 55.479168L258.78125 56.666668L252.53125 56.666668ZM260.54688 56.666668L260.54688 46.651043L262.53125 46.651043L264.90625 53.744793Q265.23438 54.729168 265.39062 55.229168Q265.5625 54.682293 265.92188 53.619793L268.3125 46.651043L270.10938 46.651043L270.10938 56.666668L268.82812 56.666668L268.82812 48.276043L265.90625 56.666668L264.71875 56.666668L261.8125 48.135418L261.8125 56.666668L260.54688 56.666668Z" fill-rule="nonzero"/><path stroke="#6aa84f" stroke-width="4.0" stroke-linecap="butt" d="M286.5 51.666668L298.5 51.666668" fill-rule="nonzero"/><path fill="#1a1a1a" d="M310.125 56.666668L310.125 47.822918L306.82812 47.822918L306.82812 46.651043L314.76562 46.651043L314.76562 47.822918L311.45312 47.822918L311.45312 56.666668L310.125 56.666668ZM321.39062 54.322918L322.67188 54.479168Q322.35938 55.604168 321.54688 56.229168Q320.73438 56.838543 319.46875 56.838543Q317.875 56.838543 316.9375 55.854168Q316.01562 54.869793 316.01562 53.104168Q316.01562 51.260418 316.95312 50.260418Q317.90625 49.244793 319.40625 49.244793Q320.85938 49.244793 321.78125 50.244793Q322.70312 51.229168 322.70312 53.026043Q322.70312 53.135418 322.70312 53.354168L317.28125 53.354168Q317.35938 54.541668 317.95312 55.182293Q318.5625 55.822918 319.48438 55.822918Q320.15625 55.822918 320.625 55.463543Q321.10938 55.104168 321.39062 54.322918ZM317.35938 52.338543L321.40625 52.338543Q321.32812 51.416668 320.9375 50.963543Q320.35938 50.260418 319.42188 50.260418Q318.5625 50.260418 317.98438 50.822918Q317.42188 51.385418 317.35938 52.338543ZM324.42188 56.666668L324.42188 49.401043L325.53125 49.401043L325.53125 50.432293Q326.32812 49.244793 327.84375 49.244793Q328.5 49.244793 329.04688 49.479168Q329.59375 49.713543 329.85938 50.104168Q330.14062 50.479168 330.25 51.010418Q330.32812 51.354168 330.32812 52.197918L330.32812 56.666668L329.09375 56.666668L329.09375 52.244793Q329.09375 51.494793 328.95312 51.135418Q328.8125 50.760418 328.4375 50.541668Q328.07812 50.307293 327.57812 50.307293Q326.79688 50.307293 326.21875 50.807293Q325.65625 51.307293 325.65625 52.697918L325.65625 56.666668L324.42188 56.666668ZM331.9375 54.494793L333.14062 54.307293Q333.25 55.041668 333.71875 55.432293Q334.1875 55.822918 335.03125 55.822918Q335.875 55.822918 336.28125 55.479168Q336.70312 55.135418 336.70312 54.666668Q336.70312 54.244793 336.32812 54.010418Q336.07812 53.838543 335.07812 53.588543Q333.71875 53.244793 333.1875 52.994793Q332.67188 52.744793 332.40625 52.307293Q332.14062 51.869793 332.14062 51.338543Q332.14062 50.854168 332.35938 50.447918Q332.57812 50.026043 332.96875 49.744793Q333.25 49.541668 333.73438 49.401043Q334.23438 49.244793 334.8125 49.244793Q335.65625 49.244793 336.29688 49.494793Q336.95312 49.729168 337.26562 50.151043Q337.57812 50.572918 337.6875 51.276043L336.48438 51.447918Q336.40625 50.885418 336.0 50.572918Q335.60938 50.260418 334.89062 50.260418Q334.04688 50.260418 333.6875 50.541668Q333.32812 50.807293 333.32812 51.197918Q333.32812 51.432293 333.46875 51.619793Q333.625 51.822918 333.95312 51.947918Q334.125 52.010418 335.03125 52.260418Q336.34375 52.619793 336.85938 52.838543Q337.375 53.057293 337.65625 53.479168Q337.95312 53.901043 337.95312 54.526043Q337.95312 55.151043 337.59375 55.697918Q337.25 56.229168 336.5625 56.541668Q335.89062 56.838543 335.03125 56.838543Q333.625 56.838543 332.875 56.244793Q332.14062 55.651043 331.9375 54.494793ZM338.96875 53.041668Q338.96875 51.026043 340.09375 50.041668Q341.01562 49.244793 342.375 49.244793Q343.85938 49.244793 344.8125 50.229168Q345.76562 51.197918 345.76562 52.932293Q345.76562 54.338543 345.34375 55.151043Q344.92188 55.947918 344.10938 56.401043Q343.3125 56.838543 342.375 56.838543Q340.84375 56.838543 339.90625 55.854168Q338.96875 54.869793 338.96875 53.041668ZM340.23438 53.041668Q340.23438 54.432293 340.84375 55.135418Q341.45312 55.822918 342.375 55.822918Q343.28125 55.822918 343.89062 55.119793Q344.5 54.416668 344.5 52.994793Q344.5 51.651043 343.89062 50.963543Q343.28125 50.260418 342.375 50.260418Q341.45312 50.260418 340.84375 50.947918Q340.23438 51.635418 340.23438 53.041668ZM347.40625 56.666668L347.40625 49.401043L348.51562 49.401043L348.51562 50.510418Q348.9375 49.729168 349.29688 49.494793Q349.65625 49.244793 350.09375 49.244793Q350.71875 49.244793 351.35938 49.635418L350.9375 50.776043Q350.48438 50.510418 350.03125 50.510418Q349.625 50.510418 349.29688 50.760418Q348.98438 50.994793 348.84375 51.432293Q348.64062 52.088543 348.64062 52.869793L348.64062 56.666668L347.40625 56.666668ZM352.59375 56.666668L352.59375 46.651043L357.04688 46.651043Q358.39062 46.651043 359.07812 46.916668Q359.78125 47.182293 360.1875 47.869793Q360.60938 48.557293 360.60938 49.385418Q360.60938 50.447918 359.92188 51.182293Q359.23438 51.901043 357.79688 52.104168Q358.3125 52.354168 358.59375 52.604168Q359.17188 53.135418 359.6875 53.932293L361.4375 56.666668L359.76562 56.666668L358.4375 54.588543Q357.85938 53.682293 357.48438 53.213543Q357.10938 52.729168 356.8125 52.541668Q356.51562 52.338543 356.20312 52.260418Q355.98438 52.213543 355.46875 52.213543L353.92188 52.213543L353.92188 56.666668L352.59375 56.666668ZM353.92188 51.072918L356.78125 51.072918Q357.6875 51.072918 358.20312 50.885418Q358.71875 50.697918 358.98438 50.291668Q359.25 49.869793 359.25 49.385418Q359.25 48.666668 358.73438 48.213543Q358.21875 47.744793 357.09375 47.744793L353.92188 47.744793L353.92188 51.072918ZM365.125 56.666668L365.125 47.822918L361.82812 47.822918L361.82812 46.651043L369.76562 46.651043L369.76562 47.822918L366.45312 47.822918L366.45312 56.666668L365.125 56.666668ZM370.9375 53.651043L370.9375 52.416668L374.71875 52.416668L374.71875 53.651043L370.9375 53.651043ZM376.53125 56.666668L376.53125 46.651043L377.85938 46.651043L377.85938 55.479168L382.78125 55.479168L382.78125 56.666668L376.53125 56.666668ZM384.53125 56.666668L384.53125 46.651043L385.85938 46.651043L385.85938 55.479168L390.78125 55.479168L390.78125 56.666668L384.53125 56.666668ZM392.54688 56.666668L392.54688 46.651043L394.53125 46.651043L396.90625 53.744793Q397.23438 54.729168 397.39062 55.229168Q397.5625 54.682293 397.92188 53.619793L400.3125 46.651043L402.10938 46.651043L402.10938 56.666668L400.82812 56.666668L400.82812 48.276043L397.90625 56.666668L396.71875 56.666668L393.8125 48.135418L393.8125 56.666668L392.54688 56.666668Z" fill-rule="nonzero"/><path stroke="#ff6d01" stroke-width="4.0" stroke-linecap="butt" d="M418.5 51.666668L430.5 51.666668" fill-rule="nonzero"/><path fill="#1a1a1a" d="M439.125 53.447918L440.375 53.338543Q440.46875 54.088543 440.79688 54.572918Q441.125 55.057293 441.79688 55.354168Q442.48438 55.651043 443.34375 55.651043Q444.09375 55.651043 444.67188 55.432293Q445.26562 55.197918 445.54688 54.807293Q445.82812 54.416668 445.82812 53.947918Q445.82812 53.479168 445.54688 53.135418Q445.28125 52.776043 444.65625 52.526043Q444.25 52.369793 442.85938 52.041668Q441.48438 51.713543 440.9375 51.416668Q440.21875 51.041668 439.85938 50.494793Q439.51562 49.932293 439.51562 49.229168Q439.51562 48.479168 439.9375 47.822918Q440.375 47.151043 441.20312 46.822918Q442.03125 46.479168 443.04688 46.479168Q444.15625 46.479168 445.0 46.838543Q445.85938 47.197918 446.3125 47.901043Q446.76562 48.588543 446.8125 49.463543L445.53125 49.557293Q445.4375 48.619793 444.84375 48.135418Q444.25 47.635418 443.09375 47.635418Q441.89062 47.635418 441.34375 48.088543Q440.79688 48.526043 440.79688 49.151043Q440.79688 49.682293 441.1875 50.041668Q441.5625 50.385418 443.17188 50.760418Q444.79688 51.119793 445.39062 51.385418Q446.26562 51.791668 446.6875 52.416668Q447.10938 53.026043 447.10938 53.838543Q447.10938 54.635418 446.64062 55.354168Q446.1875 56.057293 445.32812 56.447918Q444.46875 56.838543 443.40625 56.838543Q442.04688 56.838543 441.125 56.447918Q440.20312 56.041668 439.67188 55.244793Q439.15625 54.447918 439.125 53.447918ZM453.26562 52.729168L453.26562 51.557293L457.51562 51.557293L457.51562 55.276043Q456.53125 56.057293 455.48438 56.447918Q454.45312 56.838543 453.35938 56.838543Q451.89062 56.838543 450.67188 56.213543Q449.46875 55.572918 448.85938 54.385418Q448.25 53.182293 448.25 51.697918Q448.25 50.244793 448.85938 48.979168Q449.46875 47.697918 450.60938 47.088543Q451.76562 46.479168 453.26562 46.479168Q454.34375 46.479168 455.21875 46.838543Q456.10938 47.182293 456.60938 47.807293Q457.10938 48.432293 457.35938 49.447918L456.17188 49.776043Q455.9375 49.010418 455.59375 48.572918Q455.26562 48.135418 454.64062 47.869793Q454.03125 47.604168 453.26562 47.604168Q452.35938 47.604168 451.6875 47.885418Q451.03125 48.166668 450.625 48.619793Q450.21875 49.057293 450.0 49.604168Q449.60938 50.541668 449.60938 51.619793Q449.60938 52.963543 450.0625 53.869793Q450.53125 54.760418 451.40625 55.197918Q452.29688 55.635418 453.29688 55.635418Q454.15625 55.635418 454.96875 55.307293Q455.79688 54.979168 456.21875 54.604168L456.21875 52.729168L453.26562 52.729168ZM459.53125 56.666668L459.53125 46.651043L460.85938 46.651043L460.85938 55.479168L465.78125 55.479168L465.78125 56.666668L459.53125 56.666668ZM472.15625 55.776043Q471.48438 56.354168 470.84375 56.604168Q470.21875 56.838543 469.48438 56.838543Q468.29688 56.838543 467.64062 56.260418Q467.0 55.666668 467.0 54.744793Q467.0 54.213543 467.23438 53.776043Q467.48438 53.338543 467.875 53.072918Q468.28125 52.807293 468.76562 52.666668Q469.125 52.572918 469.85938 52.479168Q471.35938 52.307293 472.0625 52.057293Q472.0625 51.807293 472.0625 51.744793Q472.0625 50.979168 471.71875 50.682293Q471.25 50.260418 470.3125 50.260418Q469.45312 50.260418 469.03125 50.572918Q468.625 50.869793 468.42188 51.635418L467.21875 51.479168Q467.375 50.697918 467.75 50.229168Q468.14062 49.760418 468.84375 49.510418Q469.5625 49.244793 470.5 49.244793Q471.42188 49.244793 472.0 49.463543Q472.57812 49.682293 472.84375 50.010418Q473.125 50.338543 473.23438 50.854168Q473.29688 51.166668 473.29688 51.979168L473.29688 53.619793Q473.29688 55.338543 473.375 55.791668Q473.45312 56.244793 473.6875 56.666668L472.40625 56.666668Q472.21875 56.276043 472.15625 55.776043ZM472.0625 53.026043Q471.39062 53.291668 470.04688 53.494793Q469.29688 53.604168 468.96875 53.744793Q468.65625 53.869793 468.48438 54.135418Q468.3125 54.401043 468.3125 54.713543Q468.3125 55.213543 468.6875 55.541668Q469.0625 55.869793 469.78125 55.869793Q470.5 55.869793 471.04688 55.557293Q471.59375 55.244793 471.85938 54.697918Q472.0625 54.291668 472.0625 53.479168L472.0625 53.026043ZM475.42188 56.666668L475.42188 49.401043L476.53125 49.401043L476.53125 50.432293Q477.32812 49.244793 478.84375 49.244793Q479.5 49.244793 480.04688 49.479168Q480.59375 49.713543 480.85938 50.104168Q481.14062 50.479168 481.25 51.010418Q481.32812 51.354168 481.32812 52.197918L481.32812 56.666668L480.09375 56.666668L480.09375 52.244793Q480.09375 51.494793 479.95312 51.135418Q479.8125 50.760418 479.4375 50.541668Q479.07812 50.307293 478.57812 50.307293Q477.79688 50.307293 477.21875 50.807293Q476.65625 51.307293 476.65625 52.697918L476.65625 56.666668L475.42188 56.666668ZM483.20312 57.276043L484.39062 57.447918Q484.46875 57.994793 484.8125 58.260418Q485.26562 58.588543 486.0625 58.588543Q486.92188 58.588543 487.375 58.244793Q487.84375 57.916668 488.01562 57.291668Q488.10938 56.916668 488.09375 55.713543Q487.29688 56.666668 486.09375 56.666668Q484.59375 56.666668 483.76562 55.588543Q482.95312 54.510418 482.95312 52.994793Q482.95312 51.963543 483.32812 51.088543Q483.70312 50.197918 484.40625 49.729168Q485.125 49.244793 486.09375 49.244793Q487.375 49.244793 488.21875 50.276043L488.21875 49.401043L489.34375 49.401043L489.34375 55.682293Q489.34375 57.385418 489.0 58.088543Q488.65625 58.791668 487.90625 59.197918Q487.15625 59.619793 486.0625 59.619793Q484.76562 59.619793 483.96875 59.026043Q483.17188 58.447918 483.20312 57.276043ZM484.21875 52.901043Q484.21875 54.338543 484.78125 54.994793Q485.34375 55.651043 486.20312 55.651043Q487.04688 55.651043 487.625 54.994793Q488.20312 54.338543 488.20312 52.947918Q488.20312 51.619793 487.60938 50.947918Q487.01562 50.260418 486.1875 50.260418Q485.35938 50.260418 484.78125 50.932293Q484.21875 51.588543 484.21875 52.901043Z" fill-rule="nonzero"/><path fill="#757575" d="M14.9125 30.6L14.9125 17.709375L16.63125 17.709375L16.63125 29.084375L22.975 29.084375L22.975 30.6L14.9125 30.6ZM24.75625 30.6L24.75625 17.709375L26.334375 17.709375L26.334375 30.6L24.75625 30.6ZM34.88125 29.44375Q34.00625 30.19375 33.178123 30.50625Q32.365623 30.81875 31.44375 30.81875Q29.896875 30.81875 29.06875 30.06875Q28.25625 29.303125 28.25625 28.13125Q28.25625 27.459375 28.56875 26.896875Q28.88125 26.31875 29.38125 25.975Q29.88125 25.63125 30.521875 25.459375Q30.990625 25.334375 31.928125 25.225Q33.834373 24.990625 34.740623 24.678125Q34.75625 24.35 34.75625 24.25625Q34.75625 23.303125 34.303123 22.896875Q33.69375 22.365625 32.50625 22.365625Q31.38125 22.365625 30.85 22.75625Q30.31875 23.146875 30.06875 24.146875L28.521875 23.928125Q28.740625 22.928125 29.209375 22.31875Q29.69375 21.709375 30.6 21.38125Q31.521875 21.053125 32.740623 21.053125Q33.928123 21.053125 34.678123 21.334375Q35.428123 21.615625 35.771873 22.053125Q36.13125 22.475 36.271873 23.115625Q36.35 23.521875 36.35 24.584375L36.35 26.69375Q36.35 28.896875 36.44375 29.490625Q36.553123 30.06875 36.85 30.6L35.19375 30.6Q34.94375 30.1 34.88125 29.44375ZM34.740623 25.9125Q33.88125 26.271875 32.1625 26.50625Q31.19375 26.646875 30.7875 26.834375Q30.38125 27.00625 30.1625 27.35Q29.94375 27.678125 29.94375 28.1Q29.94375 28.725 30.4125 29.146875Q30.896875 29.56875 31.81875 29.56875Q32.740623 29.56875 33.44375 29.178125Q34.1625 28.771875 34.490623 28.084375Q34.740623 27.5375 34.740623 26.490625L34.740623 25.9125ZM38.7875 30.6L38.7875 21.271875L40.209373 21.271875L40.209373 22.56875Q40.646873 21.896875 41.365623 21.475Q42.1 21.053125 43.0375 21.053125Q44.06875 21.053125 44.725 21.490625Q45.396873 21.9125 45.6625 22.69375Q46.771873 21.053125 48.553123 21.053125Q49.94375 21.053125 50.678123 21.834375Q51.428123 22.6 51.428123 24.19375L51.428123 30.6L49.865623 30.6L49.865623 24.725Q49.865623 23.771875 49.709373 23.35Q49.553123 22.928125 49.146873 22.678125Q48.740623 22.428125 48.19375 22.428125Q47.209373 22.428125 46.553123 23.084375Q45.9125 23.740625 45.9125 25.178125L45.9125 30.6L44.334373 30.6L44.334373 24.5375Q44.334373 23.475 43.94375 22.959375Q43.553123 22.428125 42.678123 22.428125Q42.00625 22.428125 41.44375 22.7875Q40.88125 23.13125 40.615623 23.803125Q40.365623 24.475 40.365623 25.75625L40.365623 30.6L38.7875 30.6ZM58.88125 29.44375Q58.00625 30.19375 57.178123 30.50625Q56.365623 30.81875 55.44375 30.81875Q53.896873 30.81875 53.06875 30.06875Q52.25625 29.303125 52.25625 28.13125Q52.25625 27.459375 52.56875 26.896875Q52.88125 26.31875 53.38125 25.975Q53.88125 25.63125 54.521873 25.459375Q54.990623 25.334375 55.928123 25.225Q57.834373 24.990625 58.740623 24.678125Q58.75625 24.35 58.75625 24.25625Q58.75625 23.303125 58.303123 22.896875Q57.69375 22.365625 56.50625 22.365625Q55.38125 22.365625 54.85 22.75625Q54.31875 23.146875 54.06875 24.146875L52.521873 23.928125Q52.740623 22.928125 53.209373 22.31875Q53.69375 21.709375 54.6 21.38125Q55.521873 21.053125 56.740623 21.053125Q57.928123 21.053125 58.678123 21.334375Q59.428123 21.615625 59.771873 22.053125Q60.13125 22.475 60.271873 23.115625Q60.35 23.521875 60.35 24.584375L60.35 26.69375Q60.35 28.896875 60.44375 29.490625Q60.553123 30.06875 60.85 30.6L59.19375 30.6Q58.94375 30.1 58.88125 29.44375ZM58.740623 25.9125Q57.88125 26.271875 56.1625 26.50625Q55.19375 26.646875 54.7875 26.834375Q54.38125 27.00625 54.1625 27.35Q53.94375 27.678125 53.94375 28.1Q53.94375 28.725 54.4125 29.146875Q54.896873 29.56875 55.81875 29.56875Q56.740623 29.56875 57.44375 29.178125Q58.1625 28.771875 58.490623 28.084375Q58.740623 27.5375 58.740623 26.490625L58.740623 25.9125ZM62.178123 26.725L62.178123 25.146875L67.0375 25.146875L67.0375 26.725L62.178123 26.725ZM68.45937 19.396875L68.45937 17.88125L76.7875 17.88125L76.7875 19.115625Q75.56875 20.428125 74.35 22.6Q73.14687 24.75625 72.49062 27.053125Q72.00625 28.678125 71.88125 30.6L70.25625 30.6Q70.2875 29.084375 70.85 26.928125Q71.42812 24.771875 72.49062 22.771875Q73.55312 20.771875 74.75625 19.396875L68.45937 19.396875ZM78.35 24.240625Q78.35 21.959375 78.81875 20.56875Q79.2875 19.178125 80.20937 18.428125Q81.14687 17.6625 82.55312 17.6625Q83.58437 17.6625 84.36562 18.084375Q85.14687 18.490625 85.64687 19.2875Q86.1625 20.06875 86.45937 21.209375Q86.75625 22.334375 86.75625 24.240625Q86.75625 26.50625 86.2875 27.9125Q85.81875 29.303125 84.88125 30.06875Q83.95937 30.81875 82.55312 30.81875Q80.67812 30.81875 79.61562 29.490625Q78.35 27.88125 78.35 24.240625ZM79.975 24.240625Q79.975 27.4125 80.70937 28.475Q81.45937 29.521875 82.55312 29.521875Q83.63125 29.521875 84.38125 28.475Q85.13125 27.4125 85.13125 24.240625Q85.13125 21.06875 84.38125 20.021875Q83.63125 18.975 82.5375 18.975Q81.44375 18.975 80.7875 19.896875Q79.975 21.06875 79.975 24.240625ZM88.9125 30.6L88.9125 17.709375L93.75625 17.709375Q95.225 17.709375 96.11562 18.1Q97.00625 18.490625 97.50625 19.303125Q98.02187 20.115625 98.02187 21.00625Q98.02187 21.834375 97.56875 22.56875Q97.13125 23.303125 96.225 23.740625Q97.39687 24.084375 98.02187 24.9125Q98.64687 25.740625 98.64687 26.865625Q98.64687 27.771875 98.25625 28.553125Q97.88125 29.31875 97.31875 29.740625Q96.75625 30.1625 95.9125 30.38125Q95.06875 30.6 93.83437 30.6L88.9125 30.6ZM90.63125 23.13125L93.4125 23.13125Q94.5375 23.13125 95.0375 22.975Q95.69375 22.7875 96.02187 22.35Q96.35 21.896875 96.35 21.209375Q96.35 20.56875 96.0375 20.084375Q95.725 19.6 95.14687 19.428125Q94.58437 19.240625 93.19375 19.240625L90.63125 19.240625L90.63125 23.13125ZM90.63125 29.084375L93.83437 29.084375Q94.6625 29.084375 94.99062 29.021875Q95.58437 28.9125 95.975 28.6625Q96.36562 28.4125 96.61562 27.94375Q96.88125 27.475 96.88125 26.865625Q96.88125 26.146875 96.50625 25.615625Q96.14687 25.084375 95.49062 24.865625Q94.83437 24.646875 93.6 24.646875L90.63125 24.646875L90.63125 29.084375ZM108.80312 34.38125Q107.50625 32.740623 106.6 30.521875Q105.69375 28.303125 105.69375 25.928125Q105.69375 23.834375 106.36562 21.928125Q107.1625 19.69375 108.80312 17.490625L109.94375 17.490625Q108.88125 19.31875 108.5375 20.1Q108.00625 21.31875 107.69375 22.63125Q107.31875 24.2875 107.31875 25.94375Q107.31875 30.1625 109.94375 34.38125L108.80312 34.38125ZM112.1625 30.6L112.1625 22.490625L110.77187 22.490625L110.77187 21.271875L112.1625 21.271875L112.1625 20.271875Q112.1625 19.334375 112.33437 18.88125Q112.55312 18.25625 113.13125 17.88125Q113.70937 17.490625 114.75625 17.490625Q115.4125 17.490625 116.225 17.646875L115.99062 19.0375Q115.49062 18.94375 115.05312 18.94375Q114.33437 18.94375 114.0375 19.25625Q113.74062 19.553125 113.74062 20.396875L113.74062 21.271875L115.55312 21.271875L115.55312 22.490625L113.74062 22.490625L113.74062 30.6L112.1625 30.6ZM116.7875 34.178123L116.7875 21.271875L118.225 21.271875L118.225 22.475Q118.74062 21.771875 119.38125 21.4125Q120.02187 21.053125 120.92812 21.053125Q122.13125 21.053125 123.0375 21.678125Q123.95937 22.2875 124.42812 23.4125Q124.89687 24.521875 124.89687 25.865625Q124.89687 27.2875 124.38125 28.44375Q123.86562 29.584375 122.88125 30.209375Q121.89687 30.81875 120.81875 30.81875Q120.0375 30.81875 119.39687 30.490625Q118.77187 30.146875 118.36562 29.63125L118.36562 34.178123L116.7875 34.178123ZM118.225 25.990625Q118.225 27.7875 118.94375 28.646875Q119.67812 29.50625 120.70937 29.50625Q121.77187 29.50625 122.52187 28.615625Q123.27187 27.725 123.27187 25.85Q123.27187 24.06875 122.5375 23.178125Q121.80312 22.2875 120.7875 22.2875Q119.77187 22.2875 118.99062 23.240625Q118.225 24.178125 118.225 25.990625ZM128.7875 23.615625Q127.80312 23.25625 127.31875 22.584375Q126.85 21.9125 126.85 20.990625Q126.85 19.584375 127.85 18.63125Q128.86563 17.6625 130.55313 17.6625Q132.24063 17.6625 133.25626 18.646875Q134.2875 19.615625 134.2875 21.021875Q134.2875 21.928125 133.81876 22.6Q133.35 23.25625 132.39688 23.615625Q133.58438 24.00625 134.19376 24.865625Q134.81876 25.725 134.81876 26.9125Q134.81876 28.56875 133.64688 29.69375Q132.475 30.81875 130.56876 30.81875Q128.6625 30.81875 127.49062 29.69375Q126.33437 28.553125 126.33437 26.865625Q126.33437 25.615625 126.95937 24.771875Q127.6 23.9125 128.7875 23.615625ZM128.45938 20.928125Q128.45938 21.85 129.05313 22.428125Q129.64688 23.00625 130.58438 23.00625Q131.49063 23.00625 132.06876 22.428125Q132.6625 21.85 132.6625 21.021875Q132.6625 20.146875 132.05313 19.553125Q131.45938 18.959375 130.56876 18.959375Q129.6625 18.959375 129.05313 19.5375Q128.45938 20.115625 128.45938 20.928125ZM127.95937 26.88125Q127.95937 27.553125 128.27188 28.19375Q128.6 28.81875 129.225 29.178125Q129.86563 29.521875 130.6 29.521875Q131.725 29.521875 132.45938 28.7875Q133.20938 28.053125 133.20938 26.928125Q133.20938 25.7875 132.44376 25.053125Q131.67813 24.303125 130.5375 24.303125Q129.42813 24.303125 128.69376 25.0375Q127.95937 25.771875 127.95937 26.88125ZM137.81876 34.38125L136.69376 34.38125Q139.31876 30.1625 139.31876 25.94375Q139.31876 24.2875 138.94376 22.6625Q138.64688 21.35 138.1 20.13125Q137.75626 19.334375 136.69376 17.490625L137.81876 17.490625Q139.475 19.69375 140.27188 21.928125Q140.94376 23.834375 140.94376 25.928125Q140.94376 28.303125 140.0375 30.521875Q139.13126 32.740623 137.81876 34.38125ZM147.19376 25.928125Q147.19376 23.334375 148.64688 22.084375Q149.85 21.053125 151.56876 21.053125Q153.50626 21.053125 154.725 22.31875Q155.94376 23.584375 155.94376 25.803125Q155.94376 27.6 155.39688 28.63125Q154.86563 29.6625 153.83438 30.240625Q152.80313 30.81875 151.56876 30.81875Q149.61563 30.81875 148.39688 29.56875Q147.19376 28.303125 147.19376 25.928125ZM148.81876 25.928125Q148.81876 27.725 149.6 28.615625Q150.38126 29.50625 151.56876 29.50625Q152.75626 29.50625 153.5375 28.615625Q154.31876 27.709375 154.31876 25.88125Q154.31876 24.146875 153.52188 23.25625Q152.74063 22.365625 151.56876 22.365625Q150.38126 22.365625 149.6 23.25625Q148.81876 24.146875 148.81876 25.928125ZM157.7875 30.6L157.7875 21.271875L159.20938 21.271875L159.20938 22.6Q160.24063 21.053125 162.17813 21.053125Q163.02188 21.053125 163.725 21.365625Q164.44376 21.6625 164.7875 22.1625Q165.14688 22.646875 165.2875 23.31875Q165.36563 23.75625 165.36563 24.865625L165.36563 30.6L163.7875 30.6L163.7875 24.928125Q163.7875 23.959375 163.6 23.475Q163.42813 22.990625 162.94376 22.709375Q162.475 22.428125 161.85 22.428125Q160.83438 22.428125 160.1 23.06875Q159.36563 23.709375 159.36563 25.50625L159.36563 30.6L157.7875 30.6ZM174.7875 23.615625Q173.80313 23.25625 173.31876 22.584375Q172.85 21.9125 172.85 20.990625Q172.85 19.584375 173.85 18.63125Q174.86563 17.6625 176.55313 17.6625Q178.24063 17.6625 179.25626 18.646875Q180.2875 19.615625 180.2875 21.021875Q180.2875 21.928125 179.81876 22.6Q179.35 23.25625 178.39688 23.615625Q179.58438 24.00625 180.19376 24.865625Q180.81876 25.725 180.81876 26.9125Q180.81876 28.56875 179.64688 29.69375Q178.475 30.81875 176.56876 30.81875Q174.6625 30.81875 173.49063 29.69375Q172.33438 28.553125 172.33438 26.865625Q172.33438 25.615625 172.95938 24.771875Q173.6 23.9125 174.7875 23.615625ZM174.45938 20.928125Q174.45938 21.85 175.05313 22.428125Q175.64688 23.00625 176.58438 23.00625Q177.49063 23.00625 178.06876 22.428125Q178.6625 21.85 178.6625 21.021875Q178.6625 20.146875 178.05313 19.553125Q177.45938 18.959375 176.56876 18.959375Q175.6625 18.959375 175.05313 19.5375Q174.45938 20.115625 174.45938 20.928125ZM173.95938 26.88125Q173.95938 27.553125 174.27188 28.19375Q174.6 28.81875 175.225 29.178125Q175.86563 29.521875 176.6 29.521875Q177.725 29.521875 178.45938 28.7875Q179.20938 28.053125 179.20938 26.928125Q179.20938 25.7875 178.44376 25.053125Q177.67813 24.303125 176.5375 24.303125Q175.42813 24.303125 174.69376 25.0375Q173.95938 25.771875 173.95938 26.88125ZM186.725 30.6L190.14688 25.740625L186.99063 21.271875L188.95938 21.271875L190.39688 23.459375Q190.80313 24.084375 191.05313 24.50625Q191.42813 23.9125 191.75626 23.475L193.33438 21.271875L195.225 21.271875L191.99063 25.6625L195.475 30.6L193.52188 30.6L191.61563 27.69375L191.1 26.9125L188.64688 30.6L186.725 30.6ZM201.0375 30.6L201.0375 17.709375L202.74063 17.709375L202.74063 23.00625L209.44376 23.00625L209.44376 17.709375L211.14688 17.709375L211.14688 30.6L209.44376 30.6L209.44376 24.521875L202.74063 24.521875L202.74063 30.6L201.0375 30.6ZM219.30313 30.6L217.725 30.6L217.725 20.521875Q217.14688 21.06875 216.225 21.615625Q215.30313 22.146875 214.55313 22.428125L214.55313 20.896875Q215.88126 20.271875 216.88126 19.38125Q217.88126 18.490625 218.2875 17.6625L219.30313 17.6625L219.30313 30.6ZM223.35 24.240625Q223.35 21.959375 223.81876 20.56875Q224.2875 19.178125 225.20938 18.428125Q226.14688 17.6625 227.55313 17.6625Q228.58438 17.6625 229.36563 18.084375Q230.14688 18.490625 230.64688 19.2875Q231.1625 20.06875 231.45938 21.209375Q231.75626 22.334375 231.75626 24.240625Q231.75626 26.50625 231.2875 27.9125Q230.81876 29.303125 229.88126 30.06875Q228.95938 30.81875 227.55313 30.81875Q225.67813 30.81875 224.61563 29.490625Q223.35 27.88125 223.35 24.240625ZM224.975 24.240625Q224.975 27.4125 225.70938 28.475Q226.45938 29.521875 227.55313 29.521875Q228.63126 29.521875 229.38126 28.475Q230.13126 27.4125 230.13126 24.240625Q230.13126 21.06875 229.38126 20.021875Q228.63126 18.975 227.5375 18.975Q226.44376 18.975 225.7875 19.896875Q224.975 21.06875 224.975 24.240625ZM233.35 24.240625Q233.35 21.959375 233.81876 20.56875Q234.2875 19.178125 235.20938 18.428125Q236.14688 17.6625 237.55313 17.6625Q238.58438 17.6625 239.36563 18.084375Q240.14688 18.490625 240.64688 19.2875Q241.1625 20.06875 241.45938 21.209375Q241.75626 22.334375 241.75626 24.240625Q241.75626 26.50625 241.2875 27.9125Q240.81876 29.303125 239.88126 30.06875Q238.95938 30.81875 237.55313 30.81875Q235.67813 30.81875 234.61563 29.490625Q233.35 27.88125 233.35 24.240625ZM234.975 24.240625Q234.975 27.4125 235.70938 28.475Q236.45938 29.521875 237.55313 29.521875Q238.63126 29.521875 239.38126 28.475Q240.13126 27.4125 240.13126 24.240625Q240.13126 21.06875 239.38126 20.021875Q238.63126 18.975 237.5375 18.975Q236.44376 18.975 235.7875 19.896875Q234.975 21.06875 234.975 24.240625ZM244.24063 30.6L244.24063 28.803125L246.0375 28.803125L246.0375 30.6L244.24063 30.6ZM253.9125 30.6L253.9125 17.709375L255.63126 17.709375L255.63126 29.084375L261.975 29.084375L261.975 30.6L253.9125 30.6ZM263.19376 25.928125Q263.19376 23.334375 264.64688 22.084375Q265.85 21.053125 267.56876 21.053125Q269.50626 21.053125 270.725 22.31875Q271.94376 23.584375 271.94376 25.803125Q271.94376 27.6 271.39688 28.63125Q270.86563 29.6625 269.83438 30.240625Q268.80313 30.81875 267.56876 30.81875Q265.61563 30.81875 264.39688 29.56875Q263.19376 28.303125 263.19376 25.928125ZM264.81876 25.928125Q264.81876 27.725 265.6 28.615625Q266.38126 29.50625 267.56876 29.50625Q268.75626 29.50625 269.5375 28.615625Q270.31876 27.709375 270.31876 25.88125Q270.31876 24.146875 269.52188 23.25625Q268.74063 22.365625 267.56876 22.365625Q266.38126 22.365625 265.6 23.25625Q264.81876 24.146875 264.81876 25.928125ZM275.50626 30.6L272.64688 21.271875L274.2875 21.271875L275.77188 26.646875L276.33438 28.6625Q276.36563 28.50625 276.80313 26.725L278.30313 21.271875L279.92813 21.271875L281.31876 26.678125L281.7875 28.459375L282.31876 26.6625L283.92813 21.271875L285.45938 21.271875L282.5375 30.6L280.89688 30.6L279.4125 25.00625L279.05313 23.4125L277.1625 30.6L275.50626 30.6ZM293.17813 27.6L294.81876 27.803125Q294.42813 29.225 293.38126 30.021875Q292.33438 30.81875 290.70938 30.81875Q288.6625 30.81875 287.45938 29.553125Q286.25626 28.2875 286.25626 26.00625Q286.25626 23.6625 287.45938 22.365625Q288.67813 21.053125 290.61563 21.053125Q292.49063 21.053125 293.67813 22.334375Q294.86563 23.6 294.86563 25.9125Q294.86563 26.053125 294.85 26.334375L287.89688 26.334375Q287.975 27.88125 288.75626 28.69375Q289.55313 29.50625 290.70938 29.50625Q291.58438 29.50625 292.19376 29.053125Q292.81876 28.6 293.17813 27.6ZM287.975 25.0375L293.19376 25.0375Q293.08438 23.865625 292.6 23.271875Q291.83438 22.35 290.63126 22.35Q289.55313 22.35 288.80313 23.084375Q288.06876 23.81875 287.975 25.0375ZM296.77188 30.6L296.77188 21.271875L298.19376 21.271875L298.19376 22.678125Q298.74063 21.69375 299.19376 21.38125Q299.6625 21.053125 300.20938 21.053125Q301.02188 21.053125 301.83438 21.56875L301.30313 23.0375Q300.70938 22.69375 300.13126 22.69375Q299.61563 22.69375 299.19376 23.00625Q298.7875 23.31875 298.61563 23.865625Q298.35 24.709375 298.35 25.709375L298.35 30.6L296.77188 30.6ZM307.9125 30.6L307.9125 17.709375L309.63126 17.709375L309.63126 29.084375L315.975 29.084375L315.975 30.6L307.9125 30.6ZM323.88126 29.44375Q323.00626 30.19375 322.17813 30.50625Q321.36563 30.81875 320.44376 30.81875Q318.89688 30.81875 318.06876 30.06875Q317.25626 29.303125 317.25626 28.13125Q317.25626 27.459375 317.56876 26.896875Q317.88126 26.31875 318.38126 25.975Q318.88126 25.63125 319.52188 25.459375Q319.99063 25.334375 320.92813 25.225Q322.83438 24.990625 323.74063 24.678125Q323.75626 24.35 323.75626 24.25625Q323.75626 23.303125 323.30313 22.896875Q322.69376 22.365625 321.50626 22.365625Q320.38126 22.365625 319.85 22.75625Q319.31876 23.146875 319.06876 24.146875L317.52188 23.928125Q317.74063 22.928125 318.20938 22.31875Q318.69376 21.709375 319.6 21.38125Q320.52188 21.053125 321.74063 21.053125Q322.92813 21.053125 323.67813 21.334375Q324.42813 21.615625 324.77188 22.053125Q325.13126 22.475 325.27188 23.115625Q325.35 23.521875 325.35 24.584375L325.35 26.69375Q325.35 28.896875 325.44376 29.490625Q325.55313 30.06875 325.85 30.6L324.19376 30.6Q323.94376 30.1 323.88126 29.44375ZM323.74063 25.9125Q322.88126 26.271875 321.1625 26.50625Q320.19376 26.646875 319.7875 26.834375Q319.38126 27.00625 319.1625 27.35Q318.94376 27.678125 318.94376 28.1Q318.94376 28.725 319.4125 29.146875Q319.89688 29.56875 320.81876 29.56875Q321.74063 29.56875 322.44376 29.178125Q323.1625 28.771875 323.49063 28.084375Q323.74063 27.5375 323.74063 26.490625L323.74063 25.9125ZM331.24063 29.178125L331.475 30.584375Q330.80313 30.725 330.27188 30.725Q329.4125 30.725 328.92813 30.459375Q328.45938 30.178125 328.27188 29.740625Q328.08438 29.2875 328.08438 27.865625L328.08438 22.490625L326.9125 22.490625L326.9125 21.271875L328.08438 21.271875L328.08438 18.959375L329.64688 18.00625L329.64688 21.271875L331.24063 21.271875L331.24063 22.490625L329.64688 22.490625L329.64688 27.959375Q329.64688 28.63125 329.725 28.834375Q329.81876 29.021875 330.00626 29.13125Q330.19376 29.240625 330.55313 29.240625Q330.80313 29.240625 331.24063 29.178125ZM339.17813 27.6L340.81876 27.803125Q340.42813 29.225 339.38126 30.021875Q338.33438 30.81875 336.70938 30.81875Q334.6625 30.81875 333.45938 29.553125Q332.25626 28.2875 332.25626 26.00625Q332.25626 23.6625 333.45938 22.365625Q334.67813 21.053125 336.61563 21.053125Q338.49063 21.053125 339.67813 22.334375Q340.86563 23.6 340.86563 25.9125Q340.86563 26.053125 340.85 26.334375L333.89688 26.334375Q333.975 27.88125 334.75626 28.69375Q335.55313 29.50625 336.70938 29.50625Q337.58438 29.50625 338.19376 29.053125Q338.81876 28.6 339.17813 27.6ZM333.975 25.0375L339.19376 25.0375Q339.08438 23.865625 338.6 23.271875Q337.83438 22.35 336.63126 22.35Q335.55313 22.35 334.80313 23.084375Q334.06876 23.81875 333.975 25.0375ZM342.7875 30.6L342.7875 21.271875L344.20938 21.271875L344.20938 22.6Q345.24063 21.053125 347.17813 21.053125Q348.02188 21.053125 348.725 21.365625Q349.44376 21.6625 349.7875 22.1625Q350.14688 22.646875 350.2875 23.31875Q350.36563 23.75625 350.36563 24.865625L350.36563 30.6L348.7875 30.6L348.7875 24.928125Q348.7875 23.959375 348.6 23.475Q348.42813 22.990625 347.94376 22.709375Q347.475 22.428125 346.85 22.428125Q345.83438 22.428125 345.1 23.06875Q344.36563 23.709375 344.36563 25.50625L344.36563 30.6L342.7875 30.6ZM358.88126 27.178125L360.42813 27.38125Q360.17813 28.990625 359.13126 29.9125Q358.08438 30.81875 356.55313 30.81875Q354.63126 30.81875 353.45938 29.56875Q352.30313 28.303125 352.30313 25.975Q352.30313 24.459375 352.80313 23.334375Q353.30313 22.19375 354.31876 21.63125Q355.35 21.053125 356.55313 21.053125Q358.08438 21.053125 359.0375 21.834375Q360.00626 22.6 360.2875 24.00625L358.74063 24.240625Q358.52188 23.303125 357.95938 22.834375Q357.4125 22.35 356.61563 22.35Q355.42813 22.35 354.67813 23.209375Q353.92813 24.06875 353.92813 25.928125Q353.92813 27.803125 354.64688 28.6625Q355.36563 29.50625 356.5375 29.50625Q357.45938 29.50625 358.08438 28.94375Q358.70938 28.365625 358.88126 27.178125ZM361.70938 34.19375L361.5375 32.709373Q362.05313 32.85 362.44376 32.85Q362.975 32.85 363.2875 32.678123Q363.6 32.50625 363.80313 32.178123Q363.95938 31.94375 364.2875 31.00625Q364.33438 30.865625 364.42813 30.615625L360.89688 21.271875L362.6 21.271875L364.5375 26.678125Q364.9125 27.69375 365.20938 28.834375Q365.49063 27.740625 365.86563 26.709375L367.86563 21.271875L369.44376 21.271875L365.89688 30.75625Q365.31876 32.303123 365.00626 32.88125Q364.58438 33.6625 364.0375 34.021873Q363.49063 34.38125 362.74063 34.38125Q362.27188 34.38125 361.70938 34.19375ZM375.80313 19.5375L375.80313 17.709375L377.38126 17.709375L377.38126 19.5375L375.80313 19.5375ZM375.80313 30.6L375.80313 21.271875L377.38126 21.271875L377.38126 30.6L375.80313 30.6ZM379.14688 27.81875L380.725 27.56875Q380.85 28.50625 381.44376 29.00625Q382.05313 29.50625 383.13126 29.50625Q384.225 29.50625 384.75626 29.06875Q385.2875 28.615625 385.2875 28.021875Q385.2875 27.490625 384.81876 27.178125Q384.49063 26.975 383.19376 26.646875Q381.45938 26.209375 380.7875 25.896875Q380.11563 25.56875 379.75626 25.00625Q379.4125 24.428125 379.4125 23.740625Q379.4125 23.115625 379.69376 22.584375Q379.99063 22.053125 380.475 21.709375Q380.85 21.428125 381.49063 21.240625Q382.13126 21.053125 382.85 21.053125Q383.95938 21.053125 384.7875 21.38125Q385.61563 21.69375 386.00626 22.240625Q386.4125 22.771875 386.55313 23.678125L385.00626 23.88125Q384.89688 23.1625 384.39688 22.75625Q383.89688 22.35 382.975 22.35Q381.88126 22.35 381.4125 22.709375Q380.94376 23.06875 380.94376 23.553125Q380.94376 23.865625 381.14688 24.115625Q381.33438 24.365625 381.74063 24.5375Q381.99063 24.615625 383.14688 24.94375Q384.81876 25.38125 385.475 25.678125Q386.14688 25.959375 386.52188 26.50625Q386.9125 27.053125 386.9125 27.85Q386.9125 28.646875 386.44376 29.35Q385.99063 30.053125 385.11563 30.44375Q384.24063 30.81875 383.14688 30.81875Q381.31876 30.81875 380.36563 30.06875Q379.4125 29.303125 379.14688 27.81875ZM393.9125 30.6L393.9125 17.709375L398.75626 17.709375Q400.225 17.709375 401.11563 18.1Q402.00626 18.490625 402.50626 19.303125Q403.02188 20.115625 403.02188 21.00625Q403.02188 21.834375 402.56876 22.56875Q402.13126 23.303125 401.225 23.740625Q402.39688 24.084375 403.02188 24.9125Q403.64688 25.740625 403.64688 26.865625Q403.64688 27.771875 403.25626 28.553125Q402.88126 29.31875 402.31876 29.740625Q401.75626 30.1625 400.9125 30.38125Q400.06876 30.6 398.83438 30.6L393.9125 30.6ZM395.63126 23.13125L398.4125 23.13125Q399.5375 23.13125 400.0375 22.975Q400.69376 22.7875 401.02188 22.35Q401.35 21.896875 401.35 21.209375Q401.35 20.56875 401.0375 20.084375Q400.725 19.6 400.14688 19.428125Q399.58438 19.240625 398.19376 19.240625L395.63126 19.240625L395.63126 23.13125ZM395.63126 29.084375L398.83438 29.084375Q399.6625 29.084375 399.99063 29.021875Q400.58438 28.9125 400.975 28.6625Q401.36563 28.4125 401.61563 27.94375Q401.88126 27.475 401.88126 26.865625Q401.88126 26.146875 401.50626 25.615625Q401.14688 25.084375 400.49063 24.865625Q399.83438 24.646875 398.6 24.646875L395.63126 24.646875L395.63126 29.084375ZM412.17813 27.6L413.81876 27.803125Q413.42813 29.225 412.38126 30.021875Q411.33438 30.81875 409.70938 30.81875Q407.6625 30.81875 406.45938 29.553125Q405.25626 28.2875 405.25626 26.00625Q405.25626 23.6625 406.45938 22.365625Q407.67813 21.053125 409.61563 21.053125Q411.49063 21.053125 412.67813 22.334375Q413.86563 23.6 413.86563 25.9125Q413.86563 26.053125 413.85 26.334375L406.89688 26.334375Q406.975 27.88125 407.75626 28.69375Q408.55313 29.50625 409.70938 29.50625Q410.58438 29.50625 411.19376 29.053125Q411.81876 28.6 412.17813 27.6ZM406.975 25.0375L412.19376 25.0375Q412.08438 23.865625 411.6 23.271875Q410.83438 22.35 409.63126 22.35Q408.55313 22.35 407.80313 23.084375Q407.06876 23.81875 406.975 25.0375ZM419.24063 29.178125L419.475 30.584375Q418.80313 30.725 418.27188 30.725Q417.4125 30.725 416.92813 30.459375Q416.45938 30.178125 416.27188 29.740625Q416.08438 29.2875 416.08438 27.865625L416.08438 22.490625L414.9125 22.490625L414.9125 21.271875L416.08438 21.271875L416.08438 18.959375L417.64688 18.00625L417.64688 21.271875L419.24063 21.271875L419.24063 22.490625L417.64688 22.490625L417.64688 27.959375Q417.64688 28.63125 417.725 28.834375Q417.81876 29.021875 418.00626 29.13125Q418.19376 29.240625 418.55313 29.240625Q418.80313 29.240625 419.24063 29.178125ZM424.24063 29.178125L424.475 30.584375Q423.80313 30.725 423.27188 30.725Q422.4125 30.725 421.92813 30.459375Q421.45938 30.178125 421.27188 29.740625Q421.08438 29.2875 421.08438 27.865625L421.08438 22.490625L419.9125 22.490625L419.9125 21.271875L421.08438 21.271875L421.08438 18.959375L422.64688 18.00625L422.64688 21.271875L424.24063 21.271875L424.24063 22.490625L422.64688 22.490625L422.64688 27.959375Q422.64688 28.63125 422.725 28.834375Q422.81876 29.021875 423.00626 29.13125Q423.19376 29.240625 423.55313 29.240625Q423.80313 29.240625 424.24063 29.178125ZM432.17813 27.6L433.81876 27.803125Q433.42813 29.225 432.38126 30.021875Q431.33438 30.81875 429.70938 30.81875Q427.6625 30.81875 426.45938 29.553125Q425.25626 28.2875 425.25626 26.00625Q425.25626 23.6625 426.45938 22.365625Q427.67813 21.053125 429.61563 21.053125Q431.49063 21.053125 432.67813 22.334375Q433.86563 23.6 433.86563 25.9125Q433.86563 26.053125 433.85 26.334375L426.89688 26.334375Q426.975 27.88125 427.75626 28.69375Q428.55313 29.50625 429.70938 29.50625Q430.58438 29.50625 431.19376 29.053125Q431.81876 28.6 432.17813 27.6ZM426.975 25.0375L432.19376 25.0375Q432.08438 23.865625 431.6 23.271875Q430.83438 22.35 429.63126 22.35Q428.55313 22.35 427.80313 23.084375Q427.06876 23.81875 426.975 25.0375ZM435.77188 30.6L435.77188 21.271875L437.19376 21.271875L437.19376 22.678125Q437.74063 21.69375 438.19376 21.38125Q438.6625 21.053125 439.20938 21.053125Q440.02188 21.053125 440.83438 21.56875L440.30313 23.0375Q439.70938 22.69375 439.13126 22.69375Q438.61563 22.69375 438.19376 23.00625Q437.7875 23.31875 437.61563 23.865625Q437.35 24.709375 437.35 25.709375L437.35 30.6L435.77188 30.6ZM442.24063 30.6L442.24063 28.803125L444.0375 28.803125L444.0375 30.6L442.24063 30.6Z" fill-rule="nonzero"/></svg>