<svg version="1.1" viewBox="0.0 0.0 648.0 272.0" fill="none" stroke="none" stroke-linecap="square" stroke-miterlimit="10" width="648" height="272" xmlns:xlink="http://www.w3.org/1999/xlink" xmlns="http://www.w3.org/2000/svg"><path fill="#ffffff" d="M0 0L648.0 0L648.0 272.0L0 272.0L0 0Z" fill-rule="nonzero"/><path stroke="#333333" stroke-width="1.0" stroke-linecap="butt" d="M92.5 203.5L634.5 203.5" fill-rule="nonzero"/><path stroke="#cccccc" stroke-width="1.0" stroke-linecap="butt" d="M92.5 172.5L634.5 172.5" fill-rule="nonzero"/><path stroke="#cccccc" stroke-width="1.0" stroke-linecap="butt" d="M92.5 140.5L634.5 140.5" fill-rule="nonzero"/><path stroke="#cccccc" stroke-width="1.0" stroke-linecap="butt" d="M92.5 108.5L634.5 108.5" fill-rule="nonzero"/><path stroke="#cccccc" stroke-width="1.0" stroke-linecap="butt" d="M92.5 76.5L634.5 76.5" fill-rule="nonzero"/><clipPath id="id_0"><path d="M92.1 76.23333L634.4 76.23333L634.4 203.98334L92.1 203.98334L92.1 76.23333Z" clip-rule="nonzero"/></clipPath><path stroke="#000000" stroke-width="2.0" stroke-linecap="butt" stroke-opacity="0.0" clip-path="url(#id_0)" d="M149.0 204.0L129.0 204.0L129.0 175.0C129.0 173.89543 129.89543 173.0 131.0 173.0L147.0 173.0C148.10457 173.0 149.0 173.89543 149.0 175.0Z" fill-rule="nonzero"/><path fill="#4285f4" clip-path="url(#id_0)" d="M149.0 204.0L129.0 204.0L129.0 175.0C129.0 173.89543 129.89543 173.0 131.0 173.0L147.0 173.0C148.10457 173.0 149.0 173.89543 149.0 175.0Z" fill-rule="nonzero"/><path stroke="#000000" stroke-width="2.0" stroke-linecap="butt" stroke-opacity="0.0" clip-path="url(#id_0)" d="M250.0 204.0L230.0 204.0L230.0 177.0C230.0 175.89543 230.89543 175.0 232.0 175.0L248.0 175.0C249.10457 175.0 250.0 175.89543 250.0 177.0Z" fill-rule="nonzero"/><path fill="#4285f4" clip-path="url(#id_0)" d="M250.0 204.0L230.0 204.0L230.0 177.0C230.0 175.89543 230.89543 175.0 232.0 175.0L248.0 175.0C249.10457 175.0 250.0 175.89543 250.0 177.0Z" fill-rule="nonzero"/><path stroke="#000000" stroke-width="2.0" stroke-linecap="butt" stroke-opacity="0.0" clip-path="url(#id_0)" d="M351.0 204.0L331.0 204.0L331.0 176.0C331.0 174.89543 331.89542 174.0 333.0 174.0L349.0 174.0C350.10458 174.0 351.0 174.89543 351.0 176.0Z" fill-rule="nonzero"/><path fill="#4285f4" clip-path="url(#id_0)" d="M351.0 204.0L331.0 204.0L331.0 176.0C331.0 174.89543 331.89542 174.0 333.0 174.0L349.0 174.0C350.10458 174.0 351.0 174.89543 351.0 176.0Z" fill-rule="nonzero"/><path stroke="#000000" stroke-width="2.0" stroke-linecap="butt" stroke-opacity="0.0" clip-path="url(#id_0)" d="M453.0 204.0L433.0 204.0L433.0 177.0C433.0 175.89543 433.89542 175.0 435.0 175.0L451.0 175.0C452.10458 175.0 453.0 175.89543 453.0 177.0Z" fill-rule="nonzero"/><path fill="#4285f4" clip-path="url(#id_0)" d="M453.0 204.0L433.0 204.0L433.0 177.0C433.0 175.89543 433.89542 175.0 435.0 175.0L451.0 175.0C452.10458 175.0 453.0 175.89543 453.0 177.0Z" fill-rule="nonzero"/><path stroke="#000000" stroke-width="2.0" stroke-linecap="butt" stroke-opacity="0.0" clip-path="url(#id_0)" d="M554.0 204.0L534.0 204.0L534.0 180.0C534.0 178.89543 534.89545 178.0 536.0 178.0L552.0 178.0C553.10455 178.0 554.0 178.89543 554.0 180.0Z" fill-rule="nonzero"/><path fill="#4285f4" clip-path="url(#id_0)" d="M554.0 204.0L534.0 204.0L534.0 180.0C534.0 178.89543 534.89545 178.0 536.0 178.0L552.0 178.0C553.10455 178.0 554.0 178.89543 554.0 180.0Z" fill-rule="nonzero"/><path stroke="#000000" stroke-width="2.0" stroke-linecap="butt" stroke-opacity="0.0" clip-path="url(#id_0)" d="M171.0 204.0L151.0 204.0L151.0 121.0C151.0 119.89543 151.89543 119.0 153.0 119.0L169.0 119.0C170.10457 119.0 171.0 119.89543 171.0 121.0Z" fill-rule="nonzero"/><path fill="#ea4335" clip-path="url(#id_0)" d="M171.0 204.0L151.0 204.0L151.0 121.0C151.0 119.89543 151.89543 119.0 153.0 119.0L169.0 119.0C170.10457 119.0 171.0 119.89543 171.0 121.0Z" fill-rule="nonzero"/><path stroke="#000000" stroke-width="2.0" stroke-linecap="butt" stroke-opacity="0.0" clip-path="url(#id_0)" d="M272.0 204.0L252.0 204.0L252.0 124.0C252.0 122.89543 252.89543 122.0 254.0 122.0L270.0 122.0C271.10458 122.0 272.0 122.89543 272.0 124.0Z" fill-rule="nonzero"/><path fill="#ea4335" clip-path="url(#id_0)" d="M272.0 204.0L252.0 204.0L252.0 124.0C252.0 122.89543 252.89543 122.0 254.0 122.0L270.0 122.0C271.10458 122.0 272.0 122.89543 272.0 124.0Z" fill-rule="nonzero"/><path stroke="#000000" stroke-width="2.0" stroke-linecap="butt" stroke-opacity="0.0" clip-path="url(#id_0)" d="M373.0 204.0L353.0 204.0L353.0 127.0C353.0 125.89543 353.89542 125.0 355.0 125.0L371.0 125.0C372.10458 125.0 373.0 125.89543 373.0 127.0Z" fill-rule="nonzero"/><path fill="#ea4335" clip-path="url(#id_0)" d="M373.0 204.0L353.0 204.0L353.0 127.0C353.0 125.89543 353.89542 125.0 355.0 125.0L371.0 125.0C372.10458 125.0 373.0 125.89543 373.0 127.0Z" fill-rule="nonzero"/><path stroke="#000000" stroke-width="2.0" stroke-linecap="butt" stroke-opacity="0.0" clip-path="url(#id_0)" d="M475.0 204.0L455.0 204.0L455.0 130.0C455.0 128.89543 455.89542 128.0 457.0 128.0L473.0 128.0C474.10458 128.0 475.0 128.89543 475.0 130.0Z" fill-rule="nonzero"/><path fill="#ea4335" clip-path="url(#id_0)" d="M475.0 204.0L455.0 204.0L455.0 130.0C455.0 128.89543 455.89542 128.0 457.0 128.0L473.0 128.0C474.10458 128.0 475.0 128.89543 475.0 130.0Z" fill-rule="nonzero"/><path stroke="#000000" stroke-width="2.0" stroke-linecap="butt" stroke-opacity="0.0" clip-path="url(#id_0)" d="M576.0 204.0L556.0 204.0L556.0 143.0C556.0 141.89543 556.89545 141.0 558.0 141.0L574.0 141.0C575.10455 141.0 576.0 141.89543 576.0 143.0Z" fill-rule="nonzero"/><path fill="#ea4335" clip-path="url(#id_0)" d="M576.0 204.0L556.0 204.0L556.0 143.0C556.0 141.89543 556.89545 141.0 558.0 141.0L574.0 141.0C575.10455 141.0 576.0 141.89543 576.0 143.0Z" fill-rule="nonzero"/><path stroke="#000000" stroke-width="2.0" stroke-linecap="butt" stroke-opacity="0.0" clip-path="url(#id_0)" d="M193.0 204.0L173.0 204.0L173.0 108.0C173.0 106.89543 173.89543 106.0 175.0 106.0L191.0 106.0C192.10457 106.0 193.0 106.89543 193.0 108.0Z" fill-rule="nonzero"/><path fill="#fbbc04" clip-path="url(#id_0)" d="M193.0 204.0L173.0 204.0L173.0 108.0C173.0 106.89543 173.89543 106.0 175.0 106.0L191.0 106.0C192.10457 106.0 193.0 106.89543 193.0 108.0Z" fill-rule="nonzero"/><path stroke="#000000" stroke-width="2.0" stroke-linecap="butt" stroke-opacity="0.0" clip-path="url(#id_0)" d="M294.0 204.0L274.0 204.0L274.0 117.0C274.0 115.89543 274.89542 115.0 276.0 115.0L292.0 115.0C293.10458 115.0 294.0 115.89543 294.0 117.0Z" fill-rule="nonzero"/><path fill="#fbbc04" clip-path="url(#id_0)" d="M294.0 204.0L274.0 204.0L274.0 117.0C274.0 115.89543 274.89542 115.0 276.0 115.0L292.0 115.0C293.10458 115.0 294.0 115.89543 294.0 117.0Z" fill-rule="nonzero"/><path stroke="#000000" stroke-width="2.0" stroke-linecap="butt" stroke-opacity="0.0" clip-path="url(#id_0)" d="M395.0 204.0L375.0 204.0L375.0 94.0C375.0 92.89543 375.89542 92.0 377.0 92.0L393.0 92.0C394.10458 92.0 395.0 92.89543 395.0 94.0Z" fill-rule="nonzero"/><path fill="#fbbc04" clip-path="url(#id_0)" d="M395.0 204.0L375.0 204.0L375.0 94.0C375.0 92.89543 375.89542 92.0 377.0 92.0L393.0 92.0C394.10458 92.0 395.0 92.89543 395.0 94.0Z" fill-rule="nonzero"/><path stroke="#000000" stroke-width="2.0" stroke-linecap="butt" stroke-opacity="0.0" clip-path="url(#id_0)" d="M497.0 204.0L477.0 204.0L477.0 107.0C477.0 105.89543 477.89542 105.0 479.0 105.0L495.0 105.0C496.10458 105.0 497.0 105.89543 497.0 107.0Z" fill-rule="nonzero"/><path fill="#fbbc04" clip-path="url(#id_0)" d="M497.0 204.0L477.0 204.0L477.0 107.0C477.0 105.89543 477.89542 105.0 479.0 105.0L495.0 105.0C496.10458 105.0 497.0 105.89543 497.0 107.0Z" fill-rule="nonzero"/><path stroke="#000000" stroke-width="2.0" stroke-linecap="butt" stroke-opacity="0.0" clip-path="url(#id_0)" d="M598.0 204.0L578.0 204.0L578.0 126.0C578.0 124.89543 578.89545 124.0 580.0 124.0L596.0 124.0C597.10455 124.0 598.0 124.89543 598.0 126.0Z" fill-rule="nonzero"/><path fill="#fbbc04" clip-path="url(#id_0)" d="M598.0 204.0L578.0 204.0L578.0 126.0C578.0 124.89543 578.89545 124.0 580.0 124.0L596.0 124.0C597.10455 124.0 598.0 124.89543 598.0 126.0Z" fill-rule="nonzero"/><path fill="#000000" d="M21.724995 253.39479Q19.224995 253.39479 17.818745 252.05104Q16.39687 250.70729 16.39687 248.59792Q16.39687 247.20729 17.068745 246.09792Q17.724995 244.97292 18.912495 244.39479Q20.099995 243.80104 21.599995 243.80104Q23.131245 243.80104 24.33437 244.42604Q25.537495 245.03542 26.162495 246.16042Q26.77187 247.28542 26.77187 248.59792Q26.77187 250.01979 26.08437 251.12917Q25.39687 252.23854 24.224995 252.81667Q23.037495 253.39479 21.724995 253.39479ZM21.74062 252.01979Q23.55312 252.01979 24.599995 251.05104Q25.631245 250.06667 25.631245 248.59792Q25.631245 247.11354 24.58437 246.14479Q23.537495 245.17604 21.599995 245.17604Q20.36562 245.17604 19.45937 245.59792Q18.55312 246.00417 18.05312 246.80104Q17.537495 247.59792 17.537495 248.58229Q17.537495 249.98854 18.506245 251.00417Q19.474995 252.01979 21.74062 252.01979ZM26.599995 237.37917L25.537495 237.37917Q26.77187 238.23854 26.77187 239.69167Q26.77187 240.33229 26.52187 240.89479Q26.27187 241.44167 25.89687 241.72292Q25.52187 241.98854 24.99062 242.09792Q24.631245 242.17604 23.83437 242.17604L19.33437 242.17604L19.33437 240.94167L23.36562 240.94167Q24.33437 240.94167 24.662495 240.86354Q25.14687 240.75417 25.42812 240.37917Q25.70937 240.00417 25.70937 239.44167Q25.70937 238.89479 25.42812 238.41042Q25.131245 237.92604 24.64687 237.72292Q24.162495 237.51979 23.224995 237.51979L19.33437 237.51979L19.33437 236.28542L26.599995 236.28542L26.599995 237.37917ZM25.506245 231.45729L26.58437 231.28542Q26.693745 231.80104 26.693745 232.20729Q26.693745 232.87917 26.49062 233.25417Q26.27187 233.61354 25.92812 233.76979Q25.58437 233.91042 24.474995 233.91042L20.30312 233.91042L20.30312 234.81667L19.33437 234.81667L19.33437 233.91042L17.537495 233.91042L16.80312 232.69167L19.33437 232.69167L19.33437 231.45729L20.30312 231.45729L20.30312 232.69167L24.537495 232.69167Q25.068745 232.69167 25.224995 232.62917Q25.36562 232.56667 25.45937 232.42604Q25.55312 232.26979 25.55312 232.00417Q25.55312 231.78542 25.506245 231.45729ZM29.381245 230.14479L19.33437 230.14479L19.33437 229.01979L20.287495 229.01979Q19.724995 228.62917 19.45937 228.12917Q19.17812 227.62917 19.17812 226.91042Q19.17812 225.98854 19.662495 225.28542Q20.131245 224.56667 21.006245 224.20729Q21.881245 223.84792 22.912495 223.84792Q24.02187 223.84792 24.92812 224.25417Q25.818745 224.64479 26.30312 225.41042Q26.77187 226.16042 26.77187 227.00417Q26.77187 227.61354 26.506245 228.11354Q26.24062 228.59792 25.849995 228.91042L29.381245 228.91042L29.381245 230.14479ZM23.006245 229.03542Q24.412495 229.03542 25.08437 228.47292Q25.756245 227.89479 25.756245 227.08229Q25.756245 226.26979 25.068745 225.69167Q24.36562 225.09792 22.912495 225.09792Q21.52187 225.09792 20.83437 225.67604Q20.14687 226.23854 20.14687 227.03542Q20.14687 227.81667 20.881245 228.42604Q21.61562 229.03542 23.006245 229.03542ZM26.599995 217.37917L25.537495 217.37917Q26.77187 218.23854 26.77187 219.69167Q26.77187 220.33229 26.52187 220.89479Q26.27187 221.44167 25.89687 221.72292Q25.52187 221.98854 24.99062 222.09792Q24.631245 222.17604 23.83437 222.17604L19.33437 222.17604L19.33437 220.94167L23.36562 220.94167Q24.33437 220.94167 24.662495 220.86354Q25.14687 220.75417 25.42812 220.37917Q25.70937 220.00417 25.70937 219.44167Q25.70937 218.89479 25.42812 218.41042Q25.131245 217.92604 24.64687 217.72292Q24.162495 217.51979 23.224995 217.51979L19.33437 217.51979L19.33437 216.28542L26.599995 216.28542L26.599995 217.37917ZM25.506245 211.45729L26.58437 211.28542Q26.693745 211.80104 26.693745 212.20729Q26.693745 212.87917 26.49062 213.25417Q26.27187 213.61354 25.92812 213.76979Q25.58437 213.91042 24.474995 213.91042L20.30312 213.91042L20.30312 214.81667L19.33437 214.81667L19.33437 213.91042L17.537495 213.91042L16.80312 212.69167L19.33437 212.69167L19.33437 211.45729L20.30312 211.45729L20.30312 212.69167L24.537495 212.69167Q25.068745 212.69167 25.224995 212.62917Q25.36562 212.56667 25.45937 212.42604Q25.55312 212.26979 25.55312 212.00417Q25.55312 211.78542 25.506245 211.45729ZM26.599995 203.44167L17.756245 203.44167L17.756245 206.73854L16.58437 206.73854L16.58437 198.80104L17.756245 198.80104L17.756245 202.11354L26.599995 202.11354L26.599995 203.44167ZM26.599995 197.14479L16.58437 197.14479L16.58437 195.91042L20.17812 195.91042Q19.17812 195.05104 19.17812 193.73854Q19.17812 192.92604 19.506245 192.33229Q19.818745 191.73854 20.381245 191.48854Q20.92812 191.22292 22.006245 191.22292L26.599995 191.22292L26.599995 192.45729L22.006245 192.45729Q21.068745 192.45729 20.662495 192.86354Q20.24062 193.25417 20.24062 193.98854Q20.24062 194.53542 20.52187 195.01979Q20.80312 195.50417 21.287495 195.70729Q21.77187 195.91042 22.631245 195.91042L26.599995 195.91042L26.599995 197.14479ZM26.599995 189.16042L19.33437 189.16042L19.33437 188.05104L20.443745 188.05104Q19.662495 187.62917 19.42812 187.26979Q19.17812 186.91042 19.17812 186.47292Q19.17812 185.84792 19.568745 185.20729L20.70937 185.62917Q20.443745 186.08229 20.443745 186.53542Q20.443745 186.94167 20.693745 187.26979Q20.92812 187.58229 21.36562 187.72292Q22.02187 187.92604 22.80312 187.92604L26.599995 187.92604L26.599995 189.16042ZM22.974995 184.59792Q20.95937 184.59792 19.974995 183.47292Q19.17812 182.55104 19.17812 181.19167Q19.17812 179.70729 20.162495 178.75417Q21.131245 177.80104 22.86562 177.80104Q24.27187 177.80104 25.08437 178.22292Q25.881245 178.64479 26.33437 179.45729Q26.77187 180.25417 26.77187 181.19167Q26.77187 182.72292 25.787495 183.66042Q24.80312 184.59792 22.974995 184.59792ZM22.974995 183.33229Q24.36562 183.33229 25.068745 182.72292Q25.756245 182.11354 25.756245 181.19167Q25.756245 180.28542 25.05312 179.67604Q24.349995 179.06667 22.92812 179.06667Q21.58437 179.06667 20.89687 179.67604Q20.193745 180.28542 20.193745 181.19167Q20.193745 182.11354 20.881245 182.72292Q21.568745 183.33229 22.974995 183.33229ZM26.599995 171.37917L25.537495 171.37917Q26.77187 172.23854 26.77187 173.69167Q26.77187 174.33229 26.52187 174.89479Q26.27187 175.44167 25.89687 175.72292Q25.52187 175.98854 24.99062 176.09792Q24.631245 176.17604 23.83437 176.17604L19.33437 176.17604L19.33437 174.94167L23.36562 174.94167Q24.33437 174.94167 24.662495 174.86354Q25.14687 174.75417 25.42812 174.37917Q25.70937 174.00417 25.70937 173.44167Q25.70937 172.89479 25.42812 172.41042Q25.131245 171.92604 24.64687 171.72292Q24.162495 171.51979 23.224995 171.51979L19.33437 171.51979L19.33437 170.28542L26.599995 170.28542L26.599995 171.37917ZM27.20937 168.36354L27.381245 167.17604Q27.92812 167.09792 28.193745 166.75417Q28.52187 166.30104 28.52187 165.50417Q28.52187 164.64479 28.17812 164.19167Q27.849995 163.72292 27.224995 163.55104Q26.849995 163.45729 25.64687 163.47292Q26.599995 164.26979 26.599995 165.47292Q26.599995 166.97292 25.52187 167.80104Q24.443745 168.61354 22.92812 168.61354Q21.89687 168.61354 21.02187 168.23854Q20.131245 167.86354 19.662495 167.16042Q19.17812 166.44167 19.17812 165.47292Q19.17812 164.19167 20.20937 163.34792L19.33437 163.34792L19.33437 162.22292L25.61562 162.22292Q27.318745 162.22292 28.02187 162.56667Q28.724995 162.91042 29.131245 163.66042Q29.55312 164.41042 29.55312 165.50417Q29.55312 166.80104 28.95937 167.59792Q28.381245 168.39479 27.20937 168.36354ZM22.83437 167.34792Q24.27187 167.34792 24.92812 166.78542Q25.58437 166.22292 25.58437 165.36354Q25.58437 164.51979 24.92812 163.94167Q24.27187 163.36354 22.881245 163.36354Q21.55312 163.36354 20.881245 163.95729Q20.193745 164.55104 20.193745 165.37917Q20.193745 166.20729 20.86562 166.78542Q21.52187 167.34792 22.83437 167.34792ZM26.599995 160.14479L16.58437 160.14479L16.58437 158.91042L20.17812 158.91042Q19.17812 158.05104 19.17812 156.73854Q19.17812 155.92604 19.506245 155.33229Q19.818745 154.73854 20.381245 154.48854Q20.92812 154.22292 22.006245 154.22292L26.599995 154.22292L26.599995 155.45729L22.006245 155.45729Q21.068745 155.45729 20.662495 155.86354Q20.24062 156.25417 20.24062 156.98854Q20.24062 157.53542 20.52187 158.01979Q20.80312 158.50417 21.287495 158.70729Q21.77187 158.91042 22.631245 158.91042L26.599995 158.91042L26.599995 160.14479ZM29.381245 152.14479L19.33437 152.14479L19.33437 151.01979L20.287495 151.01979Q19.724995 150.62917 19.45937 150.12917Q19.17812 149.62917 19.17812 148.91042Q19.17812 147.98854 19.662495 147.28542Q20.131245 146.56667 21.006245 146.20729Q21.881245 145.84792 22.912495 145.84792Q24.02187 145.84792 24.92812 146.25417Q25.818745 146.64479 26.30312 147.41042Q26.77187 148.16042 26.77187 149.00417Q26.77187 149.61354 26.506245 150.11354Q26.24062 150.59792 25.849995 150.91042L29.381245 150.91042L29.381245 152.14479ZM23.006245 151.03542Q24.412495 151.03542 25.08437 150.47292Q25.756245 149.89479 25.756245 149.08229Q25.756245 148.26979 25.068745 147.69167Q24.36562 147.09792 22.912495 147.09792Q21.52187 147.09792 20.83437 147.67604Q20.14687 148.23854 20.14687 149.03542Q20.14687 149.81667 20.881245 150.42604Q21.61562 151.03542 23.006245 151.03542ZM26.599995 139.37917L25.537495 139.37917Q26.77187 140.23854 26.77187 141.69167Q26.77187 142.33229 26.52187 142.89479Q26.27187 143.44167 25.89687 143.72292Q25.52187 143.98854 24.99062 144.09792Q24.631245 144.17604 23.83437 144.17604L19.33437 144.17604L19.33437 142.94167L23.36562 142.94167Q24.33437 142.94167 24.662495 142.86354Q25.14687 142.75417 25.42812 142.37917Q25.70937 142.00417 25.70937 141.44167Q25.70937 140.89479 25.42812 140.41042Q25.131245 139.92604 24.64687 139.72292Q24.162495 139.51979 23.224995 139.51979L19.33437 139.51979L19.33437 138.28542L26.599995 138.28542L26.599995 139.37917ZM25.506245 133.45729L26.58437 133.28542Q26.693745 133.80104 26.693745 134.20729Q26.693745 134.87917 26.49062 135.25417Q26.27187 135.61354 25.92812 135.76979Q25.58437 135.91042 24.474995 135.91042L20.30312 135.91042L20.30312 136.81667L19.33437 136.81667L19.33437 135.91042L17.537495 135.91042L16.80312 134.69167L19.33437 134.69167L19.33437 133.45729L20.30312 133.45729L20.30312 134.69167L24.537495 134.69167Q25.068745 134.69167 25.224995 134.62917Q25.36562 134.56667 25.45937 134.42604Q25.55312 134.26979 25.55312 134.00417Q25.55312 133.78542 25.506245 133.45729ZM29.55312 125.785416Q28.256245 126.816666 26.537495 127.51979Q24.818745 128.22292 22.974995 128.22292Q21.349995 128.22292 19.849995 127.691666Q18.11562 127.08229 16.412495 125.785416L16.412495 124.910416Q17.83437 125.73854 18.443745 126.004166Q19.381245 126.42604 20.412495 126.660416Q21.67812 126.95729 22.974995 126.95729Q26.27187 126.95729 29.55312 124.910416L29.55312 125.785416ZM25.506245 120.45729L26.58437 120.285416Q26.693745 120.80104 26.693745 121.20729Q26.693745 121.879166 26.49062 122.254166Q26.27187 122.61354 25.92812 122.76979Q25.58437 122.910416 24.474995 122.910416L20.30312 122.910416L20.30312 123.816666L19.33437 123.816666L19.33437 122.910416L17.537495 122.910416L16.80312 121.691666L19.33437 121.691666L19.33437 120.45729L20.30312 120.45729L20.30312 121.691666L24.537495 121.691666Q25.068745 121.691666 25.224995 121.629166Q25.36562 121.566666 25.45937 121.42604Q25.55312 121.26979 25.55312 121.004166Q25.55312 120.785416 25.506245 120.45729ZM22.974995 119.597916Q20.95937 119.597916 19.974995 118.472916Q19.17812 117.55104 19.17812 116.191666Q19.17812 114.70729 20.162495 113.754166Q21.131245 112.80104 22.86562 112.80104Q24.27187 112.80104 25.08437 113.222916Q25.881245 113.64479 26.33437 114.45729Q26.77187 115.254166 26.77187 116.191666Q26.77187 117.722916 25.787495 118.660416Q24.80312 119.597916 22.974995 119.597916ZM22.974995 118.33229Q24.36562 118.33229 25.068745 117.722916Q25.756245 117.11354 25.756245 116.191666Q25.756245 115.285416 25.05312 114.67604Q24.349995 114.066666 22.92812 114.066666Q21.58437 114.066666 20.89687 114.67604Q20.193745 115.285416 20.193745 116.191666Q20.193745 117.11354 20.881245 117.722916Q21.568745 118.33229 22.974995 118.33229ZM26.599995 111.129166L16.58437 111.129166L16.58437 109.910416L22.287495 109.910416L19.33437 106.98854L19.33437 105.39479L22.037495 108.17604L26.599995 105.11354L26.599995 106.64479L22.881245 109.035416L23.724995 109.910416L26.599995 109.910416L26.599995 111.129166ZM24.256245 99.17604L24.412495 97.89479Q25.537495 98.20729 26.162495 99.01979Q26.77187 99.83229 26.77187 101.097916Q26.77187 102.691666 25.787495 103.629166Q24.80312 104.55104 23.037495 104.55104Q21.193745 104.55104 20.193745 103.61354Q19.17812 102.660416 19.17812 101.160416Q19.17812 99.70729 20.17812 98.785416Q21.162495 97.86354 22.95937 97.86354Q23.068745 97.86354 23.287495 97.86354L23.287495 103.285416Q24.474995 103.20729 25.11562 102.61354Q25.756245 102.004166 25.756245 101.08229Q25.756245 100.410416 25.39687 99.941666Q25.037495 99.45729 24.256245 99.17604ZM22.27187 103.20729L22.27187 99.160416Q21.349995 99.23854 20.89687 99.629166Q20.193745 100.20729 20.193745 101.14479Q20.193745 102.004166 20.756245 102.58229Q21.318745 103.14479 22.27187 103.20729ZM26.599995 96.14479L19.33437 96.14479L19.33437 95.035416L20.36562 95.035416Q19.17812 94.23854 19.17812 92.722916Q19.17812 92.066666 19.412495 91.51979Q19.64687 90.972916 20.037495 90.70729Q20.412495 90.42604 20.943745 90.316666Q21.287495 90.23854 22.131245 90.23854L26.599995 90.23854L26.599995 91.472916L22.17812 91.472916Q21.42812 91.472916 21.068745 91.61354Q20.693745 91.754166 20.474995 92.129166Q20.24062 92.48854 20.24062 92.98854Q20.24062 93.76979 20.74062 94.347916Q21.24062 94.910416 22.631245 94.910416L26.599995 94.910416L26.599995 96.14479ZM26.77187 89.066666L16.412495 86.160416L16.412495 85.17604L26.77187 88.08229L26.77187 89.066666ZM24.42812 84.629166L24.24062 83.42604Q24.974995 83.316666 25.36562 82.847916Q25.756245 82.379166 25.756245 81.535416Q25.756245 80.691666 25.412495 80.285416Q25.068745 79.86354 24.599995 79.86354Q24.17812 79.86354 23.943745 80.23854Q23.77187 80.48854 23.52187 81.48854Q23.17812 82.847916 22.92812 83.379166Q22.67812 83.89479 22.24062 84.160416Q21.80312 84.42604 21.27187 84.42604Q20.787495 84.42604 20.381245 84.20729Q19.95937 83.98854 19.67812 83.597916Q19.474995 83.316666 19.33437 82.83229Q19.17812 82.33229 19.17812 81.754166Q19.17812 80.910416 19.42812 80.26979Q19.662495 79.61354 20.08437 79.30104Q20.506245 78.98854 21.20937 78.879166L21.381245 80.08229Q20.818745 80.160416 20.506245 80.566666Q20.193745 80.95729 20.193745 81.67604Q20.193745 82.51979 20.474995 82.879166Q20.74062 83.23854 21.131245 83.23854Q21.36562 83.23854 21.55312 83.097916Q21.756245 82.941666 21.881245 82.61354Q21.943745 82.441666 22.193745 81.535416Q22.55312 80.222916 22.77187 79.70729Q22.99062 79.191666 23.412495 78.910416Q23.83437 78.61354 24.45937 78.61354Q25.08437 78.61354 25.631245 78.972916Q26.162495 79.316666 26.474995 80.004166Q26.77187 80.67604 26.77187 81.535416Q26.77187 82.941666 26.17812 83.691666Q25.58437 84.42604 24.42812 84.629166ZM29.55312 76.33229L29.55312 77.222916Q26.27187 75.17604 22.974995 75.17604Q21.693745 75.17604 20.42812 75.472916Q19.39687 75.70729 18.45937 76.11354Q17.849995 76.379166 16.412495 77.222916L16.412495 76.33229Q18.11562 75.05104 19.849995 74.441666Q21.349995 73.910416 22.974995 73.910416Q24.818745 73.910416 26.537495 74.629166Q28.256245 75.33229 29.55312 76.33229Z" fill-rule="nonzero"/><path fill="#000000" d="M79.14687 203.88959Q79.14687 202.24896 79.475 201.24896Q79.81875 200.23334 80.49062 199.68646Q81.1625 199.13959 82.17812 199.13959Q82.92812 199.13959 83.49062 199.45209Q84.05312 199.74896 84.4125 200.31146Q84.7875 200.87396 84.99062 201.70209Q85.20937 202.51459 85.20937 203.88959Q85.20937 205.53021 84.86562 206.54584Q84.5375 207.54584 83.86562 208.09271Q83.19375 208.63959 82.17812 208.63959Q80.83437 208.63959 80.05312 207.67084Q79.14687 206.51459 79.14687 203.88959ZM80.31875 203.88959Q80.31875 206.18646 80.85 206.95209Q81.38125 207.70209 82.17812 207.70209Q82.95937 207.70209 83.49062 206.95209Q84.0375 206.18646 84.0375 203.88959Q84.0375 201.59271 83.49062 200.84271Q82.95937 200.09271 82.1625 200.09271Q81.38125 200.09271 80.89687 200.74896Q80.31875 201.60834 80.31875 203.88959Z" fill-rule="nonzero"/><path fill="#000000" d="M64.14687 175.45209L64.14687 176.54584L57.990623 176.54584Q57.975 176.13959 58.13125 175.74896Q58.365623 175.12396 58.88125 174.51459Q59.396873 173.90521 60.38125 173.10834Q61.896873 171.85834 62.428123 171.13959Q62.959373 170.40521 62.959373 169.76459Q62.959373 169.07709 62.475 168.62396Q61.990623 168.15521 61.209373 168.15521Q60.38125 168.15521 59.88125 168.65521Q59.396873 169.13959 59.38125 170.01459L58.209373 169.88959Q58.334373 168.57709 59.115623 167.88959Q59.896873 167.20209 61.225 167.20209Q62.56875 167.20209 63.35 167.95209Q64.13125 168.68646 64.13125 169.78021Q64.13125 170.34271 63.896873 170.88959Q63.678123 171.42084 63.146873 172.03021Q62.615623 172.62396 61.38125 173.65521Q60.35 174.51459 60.053123 174.82709Q59.771873 175.13959 59.584373 175.45209L64.14687 175.45209ZM65.14687 174.10834L66.33437 173.99896Q66.475 174.88959 66.95937 175.32709Q67.44375 175.76459 68.13125 175.76459Q68.95937 175.76459 69.52187 175.13959Q70.1 174.51459 70.1 173.49896Q70.1 172.51459 69.55312 171.95209Q69.00625 171.38959 68.11562 171.38959Q67.55312 171.38959 67.1 171.63959Q66.6625 171.88959 66.4125 172.28021L65.35 172.13959L66.24062 167.37396L70.86562 167.37396L70.86562 168.45209L67.1625 168.45209L66.6625 170.95209Q67.49062 170.37396 68.4125 170.37396Q69.63125 170.37396 70.45937 171.21771Q71.30312 172.06146 71.30312 173.38959Q71.30312 174.65521 70.56875 175.57709Q69.67812 176.70209 68.13125 176.70209Q66.86562 176.70209 66.05312 175.99896Q65.25625 175.28021 65.14687 174.10834ZM72.14687 171.95209Q72.14687 170.31146 72.475 169.31146Q72.81875 168.29584 73.49062 167.74896Q74.1625 167.20209 75.17812 167.20209Q75.92812 167.20209 76.49062 167.51459Q77.05312 167.81146 77.4125 168.37396Q77.7875 168.93646 77.99062 169.76459Q78.20937 170.57709 78.20937 171.95209Q78.20937 173.59271 77.86562 174.60834Q77.5375 175.60834 76.86562 176.15521Q76.19375 176.70209 75.17812 176.70209Q73.83437 176.70209 73.05312 175.73334Q72.14687 174.57709 72.14687 171.95209ZM73.31875 171.95209Q73.31875 174.24896 73.85 175.01459Q74.38125 175.76459 75.17812 175.76459Q75.95937 175.76459 76.49062 175.01459Q77.0375 174.24896 77.0375 171.95209Q77.0375 169.65521 76.49062 168.90521Q75.95937 168.15521 75.1625 168.15521Q74.38125 168.15521 73.89687 168.81146Q73.31875 169.67084 73.31875 171.95209ZM79.14687 171.95209Q79.14687 170.31146 79.475 169.31146Q79.81875 168.29584 80.49062 167.74896Q81.1625 167.20209 82.17812 167.20209Q82.92812 167.20209 83.49062 167.51459Q84.05312 167.81146 84.4125 168.37396Q84.7875 168.93646 84.99062 169.76459Q85.20937 170.57709 85.20937 171.95209Q85.20937 173.59271 84.86562 174.60834Q84.5375 175.60834 83.86562 176.15521Q83.19375 176.70209 82.17812 176.70209Q80.83437 176.70209 80.05312 175.73334Q79.14687 174.57709 79.14687 171.95209ZM80.31875 171.95209Q80.31875 174.24896 80.85 175.01459Q81.38125 175.76459 82.17812 175.76459Q82.95937 175.76459 83.49062 175.01459Q84.0375 174.24896 84.0375 171.95209Q84.0375 169.65521 83.49062 168.90521Q82.95937 168.15521 82.1625 168.15521Q81.38125 168.15521 80.89687 168.81146Q80.31875 169.67084 80.31875 171.95209Z" fill-rule="nonzero"/><path fill="#000000" d="M58.146873 142.17084L59.334373 142.06146Q59.475 142.95209 59.959373 143.38959Q60.44375 143.82709 61.13125 143.82709Q61.959373 143.82709 62.521873 143.20209Q63.1 142.57709 63.1 141.56146Q63.1 140.57709 62.553123 140.01459Q62.00625 139.45209 61.115623 139.45209Q60.553123 139.45209 60.1 139.70209Q59.6625 139.95209 59.4125 140.34271L58.35 140.20209L59.240623 135.43646L63.865623 135.43646L63.865623 136.51459L60.1625 136.51459L59.6625 139.01459Q60.490623 138.43646 61.4125 138.43646Q62.63125 138.43646 63.459373 139.28021Q64.30312 140.12396 64.30312 141.45209Q64.30312 142.71771 63.56875 143.63959Q62.678123 144.76459 61.13125 144.76459Q59.865623 144.76459 59.053123 144.06146Q58.25625 143.34271 58.146873 142.17084ZM65.14687 140.01459Q65.14687 138.37396 65.475 137.37396Q65.81875 136.35834 66.49062 135.81146Q67.1625 135.26459 68.17812 135.26459Q68.92812 135.26459 69.49062 135.57709Q70.05312 135.87396 70.4125 136.43646Q70.7875 136.99896 70.99062 137.82709Q71.20937 138.63959 71.20937 140.01459Q71.20937 141.65521 70.86562 142.67084Q70.5375 143.67084 69.86562 144.21771Q69.19375 144.76459 68.17812 144.76459Q66.83437 144.76459 66.05312 143.79584Q65.14687 142.63959 65.14687 140.01459ZM66.31875 140.01459Q66.31875 142.31146 66.85 143.07709Q67.38125 143.82709 68.17812 143.82709Q68.95937 143.82709 69.49062 143.07709Q70.0375 142.31146 70.0375 140.01459Q70.0375 137.71771 69.49062 136.96771Q68.95937 136.21771 68.1625 136.21771Q67.38125 136.21771 66.89687 136.87396Q66.31875 137.73334 66.31875 140.01459ZM72.14687 140.01459Q72.14687 138.37396 72.475 137.37396Q72.81875 136.35834 73.49062 135.81146Q74.1625 135.26459 75.17812 135.26459Q75.92812 135.26459 76.49062 135.57709Q77.05312 135.87396 77.4125 136.43646Q77.7875 136.99896 77.99062 137.82709Q78.20937 138.63959 78.20937 140.01459Q78.20937 141.65521 77.86562 142.67084Q77.5375 143.67084 76.86562 144.21771Q76.19375 144.76459 75.17812 144.76459Q73.83437 144.76459 73.05312 143.79584Q72.14687 142.63959 72.14687 140.01459ZM73.31875 140.01459Q73.31875 142.31146 73.85 143.07709Q74.38125 143.82709 75.17812 143.82709Q75.95937 143.82709 76.49062 143.07709Q77.0375 142.31146 77.0375 140.01459Q77.0375 137.71771 76.49062 136.96771Q75.95937 136.21771 75.1625 136.21771Q74.38125 136.21771 73.89687 136.87396Q73.31875 137.73334 73.31875 140.01459ZM79.14687 140.01459Q79.14687 138.37396 79.475 137.37396Q79.81875 136.35834 80.49062 135.81146Q81.1625 135.26459 82.17812 135.26459Q82.92812 135.26459 83.49062 135.57709Q84.05312 135.87396 84.4125 136.43646Q84.7875 136.99896 84.99062 137.82709Q85.20937 138.63959 85.20937 140.01459Q85.20937 141.65521 84.86562 142.67084Q84.5375 143.67084 83.86562 144.21771Q83.19375 144.76459 82.17812 144.76459Q80.83437 144.76459 80.05312 143.79584Q79.14687 142.63959 79.14687 140.01459ZM80.31875 140.01459Q80.31875 142.31146 80.85 143.07709Q81.38125 143.82709 82.17812 143.82709Q82.95937 143.82709 83.49062 143.07709Q84.0375 142.31146 84.0375 140.01459Q84.0375 137.71771 83.49062 136.96771Q82.95937 136.21771 82.1625 136.21771Q81.38125 136.21771 80.89687 136.87396Q80.31875 137.73334 80.31875 140.01459Z" fill-rule="nonzero"/><path fill="#000000" d="M58.209373 104.57708L58.209373 103.48333L64.24062 103.48333L64.24062 104.373955Q63.35 105.32708 62.475 106.88958Q61.6 108.45208 61.13125 110.10833Q60.7875 111.280205 60.69375 112.67083L59.521873 112.67083Q59.5375 111.57708 59.94375 110.030205Q60.365623 108.467705 61.13125 107.030205Q61.896873 105.57708 62.771873 104.57708L58.209373 104.57708ZM65.14687 110.23333L66.33437 110.123955Q66.475 111.01458 66.95937 111.45208Q67.44375 111.88958 68.13125 111.88958Q68.95937 111.88958 69.52187 111.26458Q70.1 110.63958 70.1 109.623955Q70.1 108.63958 69.55312 108.07708Q69.00625 107.51458 68.11562 107.51458Q67.55312 107.51458 67.1 107.76458Q66.6625 108.01458 66.4125 108.405205L65.35 108.26458L66.24062 103.498955L70.86562 103.498955L70.86562 104.57708L67.1625 104.57708L66.6625 107.07708Q67.49062 106.498955 68.4125 106.498955Q69.63125 106.498955 70.45937 107.342705Q71.30312 108.186455 71.30312 109.51458Q71.30312 110.780205 70.56875 111.70208Q69.67812 112.82708 68.13125 112.82708Q66.86562 112.82708 66.05312 112.123955Q65.25625 111.405205 65.14687 110.23333ZM72.14687 108.07708Q72.14687 106.436455 72.475 105.436455Q72.81875 104.42083 73.49062 103.873955Q74.1625 103.32708 75.17812 103.32708Q75.92812 103.32708 76.49062 103.63958Q77.05312 103.936455 77.4125 104.498955Q77.7875 105.061455 77.99062 105.88958Q78.20937 106.70208 78.20937 108.07708Q78.20937 109.717705 77.86562 110.73333Q77.5375 111.73333 76.86562 112.280205Q76.19375 112.82708 75.17812 112.82708Q73.83437 112.82708 73.05312 111.85833Q72.14687 110.70208 72.14687 108.07708ZM73.31875 108.07708Q73.31875 110.373955 73.85 111.13958Q74.38125 111.88958 75.17812 111.88958Q75.95937 111.88958 76.49062 111.13958Q77.0375 110.373955 77.0375 108.07708Q77.0375 105.780205 76.49062 105.030205Q75.95937 104.280205 75.1625 104.280205Q74.38125 104.280205 73.89687 104.936455Q73.31875 105.79583 73.31875 108.07708ZM79.14687 108.07708Q79.14687 106.436455 79.475 105.436455Q79.81875 104.42083 80.49062 103.873955Q81.1625 103.32708 82.17812 103.32708Q82.92812 103.32708 83.49062 103.63958Q84.05312 103.936455 84.4125 104.498955Q84.7875 105.061455 84.99062 105.88958Q85.20937 106.70208 85.20937 108.07708Q85.20937 109.717705 84.86562 110.73333Q84.5375 111.73333 83.86562 112.280205Q83.19375 112.82708 82.17812 112.82708Q80.83437 112.82708 80.05312 111.85833Q79.14687 110.70208 79.14687 108.07708ZM80.31875 108.07708Q80.31875 110.373955 80.85 111.13958Q81.38125 111.88958 82.17812 111.88958Q82.95937 111.88958 83.49062 111.13958Q84.0375 110.373955 84.0375 108.07708Q84.0375 105.780205 83.49062 105.030205Q82.95937 104.280205 82.1625 104.280205Q81.38125 104.280205 80.89687 104.936455Q80.31875 105.79583 80.31875 108.07708Z" fill-rule="nonzero"/><path fill="#000000" d="M55.44375 80.73333L54.303123 80.73333L54.303123 73.45208Q53.88125 73.842705 53.209373 74.248955Q52.553123 74.63958 52.021873 74.82708L52.021873 73.717705Q52.975 73.280205 53.69375 72.63958Q54.4125 71.998955 54.709373 71.38958L55.44375 71.38958L55.44375 80.73333ZM58.146873 76.13958Q58.146873 74.498955 58.475 73.498955Q58.81875 72.48333 59.490623 71.936455Q60.1625 71.38958 61.178123 71.38958Q61.928123 71.38958 62.490623 71.70208Q63.053123 71.998955 63.4125 72.561455Q63.7875 73.123955 63.990623 73.95208Q64.20937 74.76458 64.20937 76.13958Q64.20937 77.780205 63.865623 78.79583Q63.5375 79.79583 62.865623 80.342705Q62.19375 80.88958 61.178123 80.88958Q59.834373 80.88958 59.053123 79.92083Q58.146873 78.76458 58.146873 76.13958ZM59.31875 76.13958Q59.31875 78.436455 59.85 79.20208Q60.38125 79.95208 61.178123 79.95208Q61.959373 79.95208 62.490623 79.20208Q63.0375 78.436455 63.0375 76.13958Q63.0375 73.842705 62.490623 73.092705Q61.959373 72.342705 61.1625 72.342705Q60.38125 72.342705 59.896873 72.998955Q59.31875 73.85833 59.31875 76.13958ZM65.14687 76.13958Q65.14687 74.498955 65.475 73.498955Q65.81875 72.48333 66.49062 71.936455Q67.1625 71.38958 68.17812 71.38958Q68.92812 71.38958 69.49062 71.70208Q70.05312 71.998955 70.4125 72.561455Q70.7875 73.123955 70.99062 73.95208Q71.20937 74.76458 71.20937 76.13958Q71.20937 77.780205 70.86562 78.79583Q70.5375 79.79583 69.86562 80.342705Q69.19375 80.88958 68.17812 80.88958Q66.83437 80.88958 66.05312 79.92083Q65.14687 78.76458 65.14687 76.13958ZM66.31875 76.13958Q66.31875 78.436455 66.85 79.20208Q67.38125 79.95208 68.17812 79.95208Q68.95937 79.95208 69.49062 79.20208Q70.0375 78.436455 70.0375 76.13958Q70.0375 73.842705 69.49062 73.092705Q68.95937 72.342705 68.1625 72.342705Q67.38125 72.342705 66.89687 72.998955Q66.31875 73.85833 66.31875 76.13958ZM72.14687 76.13958Q72.14687 74.498955 72.475 73.498955Q72.81875 72.48333 73.49062 71.936455Q74.1625 71.38958 75.17812 71.38958Q75.92812 71.38958 76.49062 71.70208Q77.05312 71.998955 77.4125 72.561455Q77.7875 73.123955 77.99062 73.95208Q78.20937 74.76458 78.20937 76.13958Q78.20937 77.780205 77.86562 78.79583Q77.5375 79.79583 76.86562 80.342705Q76.19375 80.88958 75.17812 80.88958Q73.83437 80.88958 73.05312 79.92083Q72.14687 78.76458 72.14687 76.13958ZM73.31875 76.13958Q73.31875 78.436455 73.85 79.20208Q74.38125 79.95208 75.17812 79.95208Q75.95937 79.95208 76.49062 79.20208Q77.0375 78.436455 77.0375 76.13958Q77.0375 73.842705 76.49062 73.092705Q75.95937 72.342705 75.1625 72.342705Q74.38125 72.342705 73.89687 72.998955Q73.31875 73.85833 73.31875 76.13958ZM79.14687 76.13958Q79.14687 74.498955 79.475 73.498955Q79.81875 72.48333 80.49062 71.936455Q81.1625 71.38958 82.17812 71.38958Q82.92812 71.38958 83.49062 71.70208Q84.05312 71.998955 84.4125 72.561455Q84.7875 73.123955 84.99062 73.95208Q85.20937 74.76458 85.20937 76.13958Q85.20937 77.780205 84.86562 78.79583Q84.5375 79.79583 83.86562 80.342705Q83.19375 80.88958 82.17812 80.88958Q80.83437 80.88958 80.05312 79.92083Q79.14687 78.76458 79.14687 76.13958ZM80.31875 76.13958Q80.31875 78.436455 80.85 79.20208Q81.38125 79.95208 82.17812 79.95208Q82.95937 79.95208 83.49062 79.20208Q84.0375 78.436455 84.0375 76.13958Q84.0375 73.842705 83.49062 73.092705Q82.95937 72.342705 82.1625 72.342705Q81.38125 72.342705 80.89687 72.998955Q80.31875 73.85833 80.31875 76.13958Z" fill-rule="nonzero"/><path fill="#000000" d="M137.40747 252.48166L130.32535 245.39954L131.25343 244.47145L138.33554 251.55357L137.40747 252.48166ZM139.25258 250.63655L134.115 245.49898L134.89944 244.71452L135.62865 245.44373Q135.35243 244.04056 136.42415 242.96886Q136.88818 242.50482 137.44061 242.28384Q137.99304 242.06288 138.45708 242.15126Q138.92111 242.21756 139.37411 242.51587Q139.67242 242.70369 140.26904 243.30031L143.42892 246.46019L142.55609 247.33302L139.42935 244.2063Q138.89902 243.67596 138.54547 243.52129Q138.18086 243.35556 137.76102 243.46603Q137.34117 243.55443 136.98763 243.90799Q136.4352 244.4604 136.37996 245.22276Q136.33575 245.97406 137.31908 246.95738L140.12541 249.7637L139.25258 250.63655ZM149.7266 244.09581L140.67784 235.04704L142.60028 233.1246L143.31844 233.84276L142.26883 234.89236L149.88127 242.50482L150.9309 241.4552L151.64905 242.17336L149.7266 244.09581ZM148.46706 237.70975L149.30675 236.71538Q150.0691 237.27885 150.7762 237.25676Q151.4833 237.21257 152.0026 236.69328Q152.63235 236.06352 152.58817 235.15753Q152.55502 234.24051 151.78162 233.4671Q151.03032 232.7158 150.17958 232.70476Q149.32884 232.69371 148.65489 233.36768Q148.23505 233.78752 148.09142 234.32889Q147.94778 234.84818 148.04721 235.34537L147.13019 236.06352L144.16917 231.73248L147.69366 228.20801L148.53336 229.04768L145.70493 231.87611L147.22963 234.15211Q147.4285 233.06937 148.12456 232.3733Q149.05263 231.44522 150.32321 231.45627Q151.60484 231.45627 152.6213 232.47273Q153.58253 233.43396 153.72617 234.68245Q153.90294 236.22925 152.72075 237.41144Q151.75952 238.37267 150.59943 238.45Q149.45038 238.5163 148.46706 237.70975ZM159.26149 230.62764L158.38866 231.50047L152.84229 225.9541Q152.83124 226.56177 152.6213 227.39041Q152.41139 228.19696 152.15727 228.73833L151.31758 227.89864Q151.70428 226.82693 151.75952 225.79942Q151.82582 224.76085 151.58275 224.07585L152.14622 223.51237L159.26149 230.62764ZM165.37134 222.83841L166.21103 223.6781L161.52644 228.36269Q161.20602 228.06438 161.0182 227.65558Q160.73094 226.99266 160.65361 226.14192Q160.58731 225.28014 160.7199 223.93222Q160.92982 221.82195 160.77513 220.87177Q160.6315 219.91055 160.13432 219.41336Q159.61504 218.89407 158.88583 218.91618Q158.16768 218.92723 157.5821 219.5128Q156.95235 220.14256 156.9413 220.9049Q156.9413 221.65622 157.61525 222.33017L156.62088 223.12567Q155.7149 222.04291 155.79225 220.92702Q155.86958 219.78902 156.875 218.7836Q157.90251 217.75607 159.05156 217.73398Q160.21167 217.70084 161.05135 218.54053Q161.48224 218.97142 161.71426 219.55699Q161.95734 220.13152 162.00153 220.9933Q162.05676 221.84404 161.91313 223.57866Q161.78055 225.01497 161.80266 225.479Q161.8137 225.932 161.90208 226.30765L165.37134 222.83841ZM167.76886 222.12025L166.77449 221.12589L167.75781 220.14256L168.75218 221.13693Q169.29356 221.67831 169.42615 222.20865Q169.58083 222.73897 169.3488 223.34665L168.73009 223.21407Q168.88477 222.81631 168.78534 222.4517Q168.6859 222.08711 168.255 221.63412L167.76886 222.12025Z" fill-rule="nonzero"/><path fill="#000000" d="M233.1151 258.13852L226.03299 251.0564L226.96106 250.12831L234.04318 257.21042L233.1151 258.13852ZM234.9602 256.2934L229.82263 251.15582L230.60709 250.37138L231.33629 251.10059Q231.06007 249.69742 232.13177 248.6257Q232.59583 248.16167 233.14824 247.9407Q233.70067 247.71973 234.16472 247.80812Q234.62875 247.8744 235.08174 248.17271Q235.38005 248.36055 235.97667 248.95717L239.13655 252.11705L238.26372 252.98988L235.13698 249.86314Q234.60666 249.33281 234.2531 249.17813Q233.8885 249.0124 233.46866 249.1229Q233.04881 249.21129 232.69525 249.56483Q232.14282 250.11726 232.08759 250.87961Q232.0434 251.63092 233.02672 252.61423L235.83304 255.42056L234.9602 256.2934ZM245.43423 249.75266L236.38547 240.7039L238.30792 238.78146L239.02608 239.49962L237.97646 240.54922L245.58891 248.16167L246.63852 247.11206L247.35667 247.83022L245.43423 249.75266ZM249.76526 239.80898L250.60495 240.64867L245.92036 245.33324Q245.59996 245.03493 245.41212 244.62613Q245.12486 243.96323 245.04753 243.11249Q244.98123 242.2507 245.11382 240.90277Q245.32375 238.79251 245.16907 237.84233Q245.02544 236.8811 244.52824 236.38393Q244.00897 235.86464 243.27975 235.88673Q242.5616 235.89778 241.97603 236.48335Q241.34627 237.11313 241.33522 237.87547Q241.33522 238.62677 242.00919 239.30074L241.01482 240.09624Q240.10883 239.01347 240.18617 237.89757Q240.2635 236.75957 241.26892 235.75415Q242.29645 234.72664 243.4455 234.70454Q244.60559 234.6714 245.44528 235.5111Q245.87617 235.94199 246.10818 236.52756Q246.35126 237.10208 246.39545 237.96387Q246.4507 238.8146 246.30707 240.54922Q246.17448 241.98553 246.19658 242.44957Q246.20763 242.90256 246.29602 243.27821L249.76526 239.80898ZM248.19637 236.07457Q246.93683 234.81503 246.42859 233.79857Q245.92036 232.76 246.0198 231.84297Q246.10818 230.9149 246.88159 230.1415Q247.45612 229.56697 248.11902 229.3681Q248.78192 229.16924 249.48903 229.32391Q250.20718 229.46754 250.98059 229.93158Q251.75398 230.39563 252.81464 231.45628Q254.06313 232.70477 254.57137 233.72124Q255.07959 234.7377 254.99121 235.66577Q254.90282 236.59386 254.11838 237.3783Q253.10191 238.39476 251.7761 238.24008Q250.1851 238.06331 248.19637 236.07457ZM249.0913 235.17963Q250.83696 236.92531 251.82028 237.09103Q252.8036 237.25676 253.40022 236.66014Q254.0079 236.05246 253.84216 235.06915Q253.66537 234.07478 251.93076 232.34016Q250.17404 230.58345 249.19072 230.41772Q248.20741 230.25198 247.5887 230.8707Q246.99207 231.46732 247.14674 232.3291Q247.34563 233.43396 249.0913 235.17963ZM260.13983 231.11378L258.43835 229.41231L255.3558 232.49484L254.56032 231.69936L253.21239 223.87698L253.9195 223.16988L258.50464 227.75502L259.46588 226.7938L260.26135 227.5893L259.30014 228.55052L261.00162 230.252L260.13983 231.11378ZM257.64285 228.6168L254.44983 225.42378L255.4221 230.83757L257.64285 228.6168ZM260.49338 223.07043Q259.75314 223.41295 259.12335 223.3135Q258.50464 223.20302 257.98535 222.68375Q257.21198 221.91034 257.24512 220.83864Q257.27826 219.74483 258.19528 218.8278Q259.12335 217.89972 260.2282 217.87762Q261.34412 217.84448 262.11752 218.61787Q262.60364 219.10402 262.7031 219.73378Q262.81357 220.3525 262.48212 221.0817Q263.3439 220.63976 264.1615 220.77234Q264.9791 220.90492 265.642 221.56784Q266.54797 222.47382 266.52588 223.73335Q266.50378 224.99289 265.45416 226.0425Q264.40457 227.0921 263.13397 227.12526Q261.8634 227.1363 260.93533 226.20822Q260.2503 225.52321 260.13983 224.70563Q260.01828 223.87698 260.49338 223.07043ZM258.8582 221.76671Q259.35538 222.2639 259.9962 222.2639Q260.63702 222.2639 261.15628 221.74461Q261.66452 221.23637 261.67557 220.60661Q261.67557 219.9658 261.21155 219.50175Q260.73645 219.02667 260.0846 219.03772Q259.42166 219.03772 258.9245 219.53491Q258.4273 220.03209 258.41626 220.68396Q258.4052 221.31372 258.8582 221.76671ZM261.8413 225.32434Q262.21695 225.7 262.74728 225.87677Q263.26657 226.0425 263.7969 225.88782Q264.3383 225.72209 264.74707 225.3133Q265.36578 224.69458 265.36578 223.89908Q265.37683 223.09253 264.75812 222.47382Q264.12836 221.84406 263.2997 221.8551Q262.47107 221.84406 261.8413 222.47382Q261.2226 223.09253 261.2226 223.91013Q261.23364 224.71667 261.8413 225.32434ZM269.13333 222.12027L268.13898 221.1259L269.12228 220.14258L270.11667 221.13695Q270.65805 221.67833 270.79062 222.20865Q270.9453 222.73898 270.7133 223.34665L270.09457 223.21407Q270.24924 222.81633 270.1498 222.45172Q270.05038 222.08711 269.61948 221.63412L269.13333 222.12027Z" fill-rule="nonzero"/><path fill="#000000" d="M340.13644 252.48164L333.05432 245.39954L333.9824 244.47145L341.0645 251.55357L340.13644 252.48164ZM341.98154 250.63655L336.84396 245.49898L337.62842 244.71452L338.35764 245.44373Q338.08142 244.04056 339.1531 242.96886Q339.61716 242.50482 340.1696 242.28384Q340.72202 242.06288 341.18607 242.15126Q341.6501 242.21756 342.1031 242.51587Q342.4014 242.70369 342.99802 243.30031L346.1579 246.46019L345.28506 247.33302L342.15833 244.2063Q341.628 243.67596 341.27444 243.52129Q340.90985 243.35556 340.49 243.46603Q340.07016 243.55443 339.71658 243.90797Q339.16418 244.4604 339.10892 245.22276Q339.06473 245.97406 340.04807 246.95738L342.85437 249.7637L341.98154 250.63655ZM352.45557 244.09581L343.4068 235.04704L345.32925 233.1246L346.04742 233.84276L344.9978 234.89236L352.61026 242.50482L353.65985 241.4552L354.37802 242.17336L352.45557 244.09581ZM351.19604 237.70975L352.03574 236.71538Q352.79807 237.27885 353.5052 237.25676Q354.21228 237.21257 354.73157 236.69328Q355.36133 236.06352 355.31714 235.15753Q355.284 234.24051 354.5106 233.4671Q353.7593 232.7158 352.90857 232.70476Q352.05783 232.69371 351.38385 233.36768Q350.96402 233.78752 350.82037 234.32889Q350.67676 234.84818 350.77618 235.34535L349.85916 236.06352L346.89816 231.73248L350.42264 228.20801L351.26233 229.04768L348.4339 231.87611L349.9586 234.15211Q350.15747 233.06937 350.85352 232.3733Q351.78162 231.44522 353.0522 231.45627Q354.33383 231.45627 355.35028 232.47273Q356.31152 233.43396 356.45514 234.68245Q356.63193 236.22925 355.44974 237.41144Q354.4885 238.37267 353.3284 238.45Q352.17935 238.5163 351.19604 237.70975ZM361.99045 230.62762L361.1176 231.50047L355.57126 225.9541Q355.5602 226.56177 355.35028 227.39041Q355.14035 228.19695 354.88626 228.73833L354.04657 227.89864Q354.43326 226.82693 354.4885 225.79942Q354.55478 224.76085 354.31174 224.07585L354.8752 223.51237L361.99045 230.62762ZM368.1003 222.83841L368.94 223.6781L364.2554 228.36269Q363.935 228.06438 363.7472 227.65558Q363.45993 226.99266 363.38257 226.14192Q363.31628 225.28014 363.44888 223.93222Q363.65878 221.82195 363.50412 220.87177Q363.36047 219.91054 362.86328 219.41336Q362.34402 218.89407 361.6148 218.91617Q360.89667 218.92723 360.3111 219.5128Q359.6813 220.14256 359.67026 220.9049Q359.67026 221.65622 360.34424 222.33017L359.34985 223.12567Q358.44388 222.04291 358.5212 220.92702Q358.59857 219.78902 359.60397 218.7836Q360.6315 217.75607 361.78055 217.73398Q362.94064 217.70084 363.78033 218.54053Q364.2112 218.97142 364.44324 219.55699Q364.6863 220.13152 364.7305 220.9933Q364.78574 221.84404 364.64212 223.57866Q364.50952 225.01497 364.53162 225.479Q364.54266 225.932 364.63107 226.30765L368.1003 222.83841ZM370.49783 222.12025L369.50348 221.12589L370.4868 220.14256L371.48117 221.13693Q372.02255 221.67831 372.15512 222.20865Q372.3098 222.73897 372.0778 223.34663L371.45908 223.21407Q371.61374 222.81631 371.5143 222.4517Q371.41486 222.08711 370.98398 221.63412L370.49783 222.12025Z" fill-rule="nonzero"/><path fill="#000000" d="M435.84406 258.13852L428.76193 251.0564L429.69003 250.12833L436.77216 257.21045L435.84406 258.13852ZM437.68918 256.2934L432.5516 251.15584L433.33603 250.37138L434.06525 251.10059Q433.78903 249.69743 434.86075 248.62572Q435.32477 248.16168 435.8772 247.9407Q436.42963 247.71974 436.89368 247.80812Q437.35773 247.87442 437.8107 248.17273Q438.109 248.36055 438.70563 248.95717L441.8655 252.11707L440.99268 252.9899L437.86594 249.86316Q437.3356 249.33282 436.98206 249.17815Q436.61746 249.01242 436.19763 249.12291Q435.77777 249.21129 435.42422 249.56485Q434.8718 250.11728 434.81656 250.87962Q434.77237 251.63092 435.75568 252.61424L438.562 255.42058L437.68918 256.2934ZM448.16318 249.75267L439.11444 240.70392L441.03687 238.78146L441.75504 239.49962L440.7054 240.54924L448.31787 248.16168L449.3675 247.11208L450.08563 247.83023L448.16318 249.75267ZM452.49423 239.80898L453.3339 240.64867L448.64932 245.33325Q448.32892 245.03494 448.14108 244.62614Q447.85382 243.96323 447.7765 243.1125Q447.7102 242.25072 447.84277 240.90279Q448.0527 238.79251 447.898 237.84235Q447.7544 236.88112 447.2572 236.38393Q446.7379 235.86465 446.00873 235.88675Q445.29056 235.8978 444.705 236.48337Q444.07523 237.11314 444.06418 237.87549Q444.06418 238.62679 444.73813 239.30075L443.74377 240.09624Q442.8378 239.01349 442.91513 237.89758Q442.99246 236.75958 443.9979 235.75417Q445.0254 234.72665 446.17444 234.70456Q447.33453 234.6714 448.17422 235.5111Q448.60513 235.94199 448.83716 236.52756Q449.08023 237.10208 449.12442 237.96387Q449.17966 238.8146 449.036 240.54924Q448.90344 241.98555 448.92554 242.44958Q448.93658 242.90257 449.02496 243.27823L452.49423 239.80898ZM450.92532 236.07457Q449.6658 234.81503 449.15756 233.79857Q448.64932 232.76001 448.74875 231.84299Q448.83716 230.9149 449.61053 230.14151Q450.18506 229.56699 450.848 229.3681Q451.5109 229.16924 452.21802 229.32391Q452.93616 229.46754 453.70956 229.93158Q454.48297 230.39563 455.5436 231.45628Q456.7921 232.70477 457.30032 233.72124Q457.80856 234.7377 457.72018 235.66577Q457.6318 236.59386 456.84735 237.3783Q455.83087 238.39478 454.50507 238.24008Q452.91406 238.06331 450.92532 236.07457ZM451.82025 235.17964Q453.56592 236.92531 454.54926 237.09103Q455.53256 237.25677 456.12918 236.66014Q456.73685 236.05247 456.57114 235.06915Q456.39435 234.07478 454.65973 232.34016Q452.903 230.58345 451.9197 230.41772Q450.93637 230.252 450.31766 230.87071Q449.72104 231.46733 449.8757 232.32912Q450.0746 233.43398 451.82025 235.17964ZM462.8688 231.11378L461.16733 229.41231L458.08478 232.49484L457.28928 231.69936L455.94138 223.87698L456.64847 223.16988L461.2336 227.75502L462.19482 226.7938L462.99033 227.5893L462.0291 228.55052L463.7306 230.252L462.8688 231.11378ZM460.37183 228.6168L457.1788 225.42378L458.15106 230.83757L460.37183 228.6168ZM463.22235 223.07043Q462.48212 223.41295 461.85233 223.3135Q461.2336 223.20302 460.71432 222.68375Q459.94095 221.91034 459.9741 220.83864Q460.00723 219.74483 460.92426 218.8278Q461.85233 217.89972 462.95718 217.87762Q464.0731 217.84448 464.8465 218.61787Q465.3326 219.104 465.43207 219.73378Q465.54254 220.3525 465.2111 221.0817Q466.07288 220.63976 466.89047 220.77234Q467.70807 220.90492 468.37097 221.56784Q469.27695 222.47382 469.25485 223.73335Q469.23276 224.99289 468.18314 226.0425Q467.13354 227.0921 465.86295 227.12526Q464.59238 227.1363 463.6643 226.20822Q462.97928 225.52321 462.8688 224.70563Q462.74725 223.87698 463.22235 223.07043ZM461.58716 221.76671Q462.08435 222.2639 462.72516 222.2639Q463.366 222.2639 463.88525 221.74461Q464.3935 221.23637 464.40454 220.60661Q464.40454 219.9658 463.94052 219.50175Q463.46542 219.02667 462.81357 219.03772Q462.15063 219.03772 461.65347 219.5349Q461.15628 220.03209 461.14523 220.68396Q461.1342 221.31372 461.58716 221.76671ZM464.57028 225.32434Q464.94592 225.7 465.47626 225.87677Q465.99554 226.0425 466.52588 225.88782Q467.06726 225.72209 467.47604 225.3133Q468.09476 224.69458 468.09476 223.89908Q468.1058 223.09253 467.4871 222.47382Q466.85733 221.84406 466.0287 221.8551Q465.20004 221.84406 464.57028 222.47382Q463.95157 223.09253 463.95157 223.91013Q463.96262 224.71667 464.57028 225.32434ZM471.8623 222.12027L470.86795 221.1259L471.85126 220.14258L472.84564 221.13695Q473.38702 221.67831 473.5196 222.20865Q473.6743 222.73898 473.44226 223.34665L472.82355 223.21407Q472.9782 222.81631 472.87878 222.45172Q472.77936 222.08711 472.34845 221.63412L471.8623 222.12027Z" fill-rule="nonzero"/><path fill="#000000" d="M532.3251 258.46997L533.13165 257.50876Q533.7283 257.9728 534.3028 258.08328Q534.8773 258.19376 535.5623 257.9286Q536.25836 257.65237 536.866 257.0447Q537.39636 256.5144 537.65045 255.95091Q537.9046 255.36534 537.8273 254.89026Q537.74994 254.41516 537.41846 254.08371Q537.087 253.75226 536.6451 253.70805Q536.2031 253.64177 535.5844 253.90694Q535.18665 254.08371 533.9713 254.835Q532.767 255.57526 532.1704 255.75204Q531.39703 255.9951 530.75616 255.86252Q530.11536 255.70784 529.61816 255.21066Q529.0878 254.68033 528.9221 253.91798Q528.7564 253.13353 529.11 252.31595Q529.45245 251.4873 530.1706 250.76915Q530.9551 249.9847 531.8058 249.6422Q532.6676 249.28864 533.48517 249.46542Q534.29175 249.63115 534.9436 250.21672L534.1039 251.189Q533.3747 250.59238 532.61237 250.66971Q531.8389 250.73601 531.02136 251.55359Q530.1706 252.40433 530.1043 253.11143Q530.027 253.8075 530.46893 254.24944Q530.8446 254.62509 531.3749 254.603Q531.8831 254.58089 533.2863 253.70805Q534.68945 252.81313 535.2971 252.5811Q536.2031 252.24965 536.94336 252.39328Q537.6726 252.52586 538.24713 253.10039Q538.8106 253.66386 538.98737 254.50356Q539.1641 255.32115 538.8327 256.20502Q538.5012 257.08893 537.74994 257.8402Q536.7887 258.80145 535.8606 259.1771Q534.9215 259.5417 533.98236 259.35385Q533.05426 259.155 532.3251 258.46997ZM541.175 254.1721L534.09283 247.08998L534.9657 246.21715L537.50684 248.75832Q537.4074 247.44354 538.3355 246.51546Q538.91003 245.94093 539.5619 245.75311Q540.2027 245.55423 540.7772 245.7752Q541.35175 245.97408 542.1141 246.73643L545.36237 249.9847L544.4895 250.85753L541.2413 247.60927Q540.57837 246.94635 540.00385 246.94635Q539.4293 246.92426 538.91003 247.44354Q538.5233 247.83023 538.3797 248.37161Q538.236 248.913 538.43494 249.39912Q538.6338 249.88527 539.24146 250.49294L542.0478 253.29927L541.175 254.1721ZM549.54974 244.53777Q549.48346 245.42165 549.2073 246.05142Q548.931 246.65909 548.41174 247.17838Q547.5721 248.01807 546.6992 248.0733Q545.8264 248.10645 545.17456 247.45459Q544.7989 247.07893 544.6553 246.60385Q544.5227 246.1177 544.6111 245.65367Q544.7105 245.17859 544.95355 244.73665Q545.1414 244.41623 545.59436 243.83066Q546.5335 242.64847 546.85394 241.9745Q546.6771 241.79773 546.63293 241.75354Q546.09155 241.21216 545.63855 241.2453Q545.0088 241.27844 544.3459 241.94136Q543.7382 242.54903 543.6609 243.06831Q543.58356 243.56549 543.9813 244.2505L543.0201 244.99075Q542.5781 244.32785 542.51184 243.73123Q542.4566 243.12355 542.777 242.4496Q543.0974 241.75354 543.7603 241.09062Q544.4122 240.43875 544.97565 240.18465Q545.5391 239.93053 545.959 239.97472Q546.3899 240.00786 546.83185 240.29512Q547.097 240.47191 547.6715 241.04643L548.8316 242.20653Q550.04694 243.42186 550.4226 243.68703Q550.7982 243.9522 551.26227 244.08478L550.3563 244.99075Q549.9475 244.84712 549.54974 244.53777ZM547.53894 242.65952Q547.25165 243.32243 546.4451 244.41623Q545.9921 245.02391 545.85956 245.35536Q545.727 245.66472 545.7933 245.97408Q545.85956 246.28343 546.0805 246.50441Q546.4341 246.85796 546.9313 246.82481Q547.42847 246.79167 547.93665 246.28343Q548.4449 245.7752 548.61066 245.16754Q548.77637 244.55986 548.5775 243.98534Q548.43384 243.55444 547.8593 242.97992L547.53894 242.65952ZM552.4776 242.86945L547.34 237.73187L548.1245 236.94742L548.90894 237.73187Q548.65485 236.88113 548.7432 236.46129Q548.82056 236.0304 549.12994 235.72102Q549.57184 235.27908 550.3011 235.10231L550.8093 236.20717Q550.3011 236.33975 549.98065 236.66016Q549.6934 236.94742 549.6381 237.35622Q549.5829 237.74292 549.79285 238.1517Q550.1132 238.75938 550.66565 239.31181L553.35046 241.9966L552.4776 242.86945ZM557.8804 234.15213L558.89685 233.35664Q559.4714 234.37311 559.33875 235.38957Q559.1951 236.39499 558.30023 237.28992Q557.1733 238.41687 555.8143 238.38373Q554.4664 238.33954 553.2179 237.09105Q551.9141 235.78732 551.86993 234.4173Q551.82574 233.02519 552.8864 231.96452Q553.91394 230.93701 555.2729 230.99225Q556.62085 231.03645 557.8914 232.30704Q557.96875 232.38437 558.1234 232.53905L554.2896 236.3729Q555.1845 237.15735 556.0574 237.19049Q556.9412 237.21259 557.5931 236.56071Q558.0682 236.08563 558.1455 235.50006Q558.2339 234.90344 557.8804 234.15213ZM553.62665 235.5995L556.4882 232.73793Q555.7811 232.1413 555.1845 232.0971Q554.27856 232.00871 553.6156 232.67163Q553.00793 233.2793 552.9969 234.08585Q552.9969 234.88135 553.62665 235.5995ZM562.3219 227.45673L561.4932 226.62808L564.4984 223.62288L567.128 226.25243Q566.9844 227.50092 566.5203 228.51738Q566.0673 229.5228 565.29395 230.29619Q564.2554 231.33476 562.95166 231.75461Q561.6479 232.15234 560.3773 231.74356Q559.0957 231.32372 558.0461 230.2741Q557.01855 229.24658 556.55457 227.92076Q556.07947 226.5839 556.4551 225.34645Q556.8418 224.09796 557.90247 223.03731Q558.6648 222.27495 559.53766 221.91035Q560.41046 221.52365 561.206 221.61205Q562.00146 221.70042 562.8964 222.2418L562.28876 223.31352Q561.5816 222.93787 561.0292 222.87158Q560.4878 222.79424 559.85803 223.04836Q559.2393 223.29141 558.69794 223.8328Q558.0571 224.47362 557.78094 225.14757Q557.51575 225.81049 557.5489 226.41815Q557.571 227.01479 557.80304 227.55615Q558.1897 228.49529 558.9521 229.25763Q559.9022 230.20781 560.86346 230.52821Q561.8247 230.82652 562.75275 230.51717Q563.6919 230.19676 564.399 229.48965Q565.00665 228.88199 565.3492 228.07544Q565.70276 227.25784 565.7359 226.69437L564.41003 225.36855L562.3219 227.45673ZM569.5697 225.77734L562.4876 218.69522L565.1614 216.02148Q565.86847 215.31438 566.3104 215.005Q566.9181 214.57411 567.5147 214.46364Q568.1113 214.35315 568.7632 214.58517Q569.41504 214.79509 569.9454 215.32542Q570.8514 216.2314 570.9066 217.43568Q570.9508 218.62894 569.4482 220.13153L567.6252 221.95454L570.50885 224.83821L569.5697 225.77734ZM566.7965 221.1259L568.6306 219.29184Q569.53656 218.38586 569.5697 217.66771Q569.6139 216.9385 569.0062 216.33084Q568.5533 215.87785 568.02295 215.78946Q567.48157 215.69002 567.0065 215.96623Q566.7081 216.13196 566.0673 216.77278L564.2554 218.58475L566.7965 221.1259Z" fill-rule="nonzero"/><path fill="#4285f4" d="M187.0 46.666668C187.0 46.114384 187.44771 45.666668 188.0 45.666668L198.0 45.666668C198.55229 45.666668 199.0 46.114384 199.0 46.666668L199.0 56.666668C199.0 57.218952 198.55229 57.666668 198.0 57.666668L188.0 57.666668C187.44771 57.666668 187.0 57.218952 187.0 56.666668Z" fill-rule="nonzero"/><path fill="#1a1a1a" d="M209.9375 56.666668L207.17188 49.401043L208.48438 49.401043L210.03125 53.760418Q210.28125 54.463543 210.5 55.213543Q210.67188 54.635418 210.95312 53.838543L212.57812 49.401043L213.84375 49.401043L211.09375 56.666668L209.9375 56.666668ZM215.03125 56.666668L215.03125 46.651043L216.35938 46.651043L216.35938 55.479168L221.28125 55.479168L221.28125 56.666668L215.03125 56.666668ZM223.03125 56.666668L223.03125 46.651043L224.35938 46.651043L224.35938 55.479168L229.28125 55.479168L229.28125 56.666668L223.03125 56.666668ZM231.04688 56.666668L231.04688 46.651043L233.03125 46.651043L235.40625 53.744793Q235.73438 54.729168 235.89062 55.229168Q236.0625 54.682293 236.42188 53.619793L238.8125 46.651043L240.60938 46.651043L240.60938 56.666668L239.32812 56.666668L239.32812 48.276043L236.40625 56.666668L235.21875 56.666668L232.3125 48.135418L232.3125 56.666668L231.04688 56.666668Z" fill-rule="nonzero"/><path fill="#ea4335" d="M257.0 46.666668C257.0 46.114384 257.44772 45.666668 258.0 45.666668L268.0 45.666668C268.55228 45.666668 269.0 46.114384 269.0 46.666668L269.0 56.666668C269.0 57.218952 268.55228 57.666668 268.0 57.666668L258.0 57.666668C257.44772 57.666668 257.0 57.218952 257.0 56.666668Z" fill-rule="nonzero"/><path fill="#1a1a1a" d="M280.625 56.666668L280.625 47.822918L277.32812 47.822918L277.32812 46.651043L285.26562 46.651043L285.26562 47.822918L281.95312 47.822918L281.95312 56.666668L280.625 56.666668ZM291.89062 54.322918L293.17188 54.479168Q292.85938 55.604168 292.04688 56.229168Q291.23438 56.838543 289.96875 56.838543Q288.375 56.838543 287.4375 55.854168Q286.51562 54.869793 286.51562 53.104168Q286.51562 51.260418 287.45312 50.260418Q288.40625 49.244793 289.90625 49.244793Q291.35938 49.244793 292.28125 50.244793Q293.20312 51.229168 293.20312 53.026043Q293.20312 53.135418 293.20312 53.354168L287.78125 53.354168Q287.85938 54.541668 288.45312 55.182293Q289.0625 55.822918 289.98438 55.822918Q290.65625 55.822918 291.125 55.463543Q291.60938 55.104168 291.89062 54.322918ZM287.85938 52.338543L291.90625 52.338543Q291.82812 51.416668 291.4375 50.963543Q290.85938 50.260418 289.92188 50.260418Q289.0625 50.260418 288.48438 50.822918Q287.92188 51.385418 287.85938 52.338543ZM294.92188 56.666668L294.92188 49.401043L296.03125 49.401043L296.03125 50.432293Q296.82812 49.244793 298.34375 49.244793Q299.0 49.244793 299.54688 49.479168Q300.09375 49.713543 300.35938 50.104168Q300.64062 50.479168 300.75 51.010418Q300.82812 51.354168 300.82812 52.197918L300.82812 56.666668L299.59375 56.666668L299.59375 52.244793Q299.59375 51.494793 299.45312 51.135418Q299.3125 50.760418 298.9375 50.541668Q298.57812 50.307293 298.07812 50.307293Q297.29688 50.307293 296.71875 50.807293Q296.15625 51.307293 296.15625 52.697918L296.15625 56.666668L294.92188 56.666668ZM302.4375 54.494793L303.64062 54.307293Q303.75 55.041668 304.21875 55.432293Q304.6875 55.822918 305.53125 55.822918Q306.375 55.822918 306.78125 55.479168Q307.20312 55.135418 307.20312 54.666668Q307.20312 54.244793 306.82812 54.010418Q306.57812 53.838543 305.57812 53.588543Q304.21875 53.244793 303.6875 52.994793Q303.17188 52.744793 302.90625 52.307293Q302.64062 51.869793 302.64062 51.338543Q302.64062 50.854168 302.85938 50.447918Q303.07812 50.026043 303.46875 49.744793Q303.75 49.541668 304.23438 49.401043Q304.73438 49.244793 305.3125 49.244793Q306.15625 49.244793 306.79688 49.494793Q307.45312 49.729168 307.76562 50.151043Q308.07812 50.572918 308.1875 51.276043L306.98438 51.447918Q306.90625 50.885418 306.5 50.572918Q306.10938 50.260418 305.39062 50.260418Q304.54688 50.260418 304.1875 50.541668Q303.82812 50.807293 303.82812 51.197918Q303.82812 51.432293 303.96875 51.619793Q304.125 51.822918 304.45312 51.947918Q304.625 52.010418 305.53125 52.260418Q306.84375 52.619793 307.35938 52.838543Q307.875 53.057293 308.15625 53.479168Q308.45312 53.901043 308.45312 54.526043Q308.45312 55.151043 308.09375 55.697918Q307.75 56.229168 307.0625 56.541668Q306.39062 56.838543 305.53125 56.838543Q304.125 56.838543 303.375 56.244793Q302.64062 55.651043 302.4375 54.494793ZM309.46875 53.041668Q309.46875 51.026043 310.59375 50.041668Q311.51562 49.244793 312.875 49.244793Q314.35938 49.244793 315.3125 50.229168Q316.26562 51.197918 316.26562 52.932293Q316.26562 54.338543 315.84375 55.151043Q315.42188 55.947918 314.60938 56.401043Q313.8125 56.838543 312.875 56.838543Q311.34375 56.838543 310.40625 55.854168Q309.46875 54.869793 309.46875 53.041668ZM310.73438 53.041668Q310.73438 54.432293 311.34375 55.135418Q311.95312 55.822918 312.875 55.822918Q313.78125 55.822918 314.39062 55.119793Q315.0 54.416668 315.0 52.994793Q315.0 51.651043 314.39062 50.963543Q313.78125 50.260418 312.875 50.260418Q311.95312 50.260418 311.34375 50.947918Q310.73438 51.635418 310.73438 53.041668ZM317.90625 56.666668L317.90625 49.401043L319.01562 49.401043L319.01562 50.510418Q319.4375 49.729168 319.79688 49.494793Q320.15625 49.244793 320.59375 49.244793Q321.21875 49.244793 321.85938 49.635418L321.4375 50.776043Q320.98438 50.510418 320.53125 50.510418Q320.125 50.510418 319.79688 50.760418Q319.48438 50.994793 319.34375 51.432293Q319.14062 52.088543 319.14062 52.869793L319.14062 56.666668L317.90625 56.666668ZM323.09375 56.666668L323.09375 46.651043L327.54688 46.651043Q328.89062 46.651043 329.57812 46.916668Q330.28125 47.182293 330.6875 47.869793Q331.10938 48.557293 331.10938 49.385418Q331.10938 50.447918 330.42188 51.182293Q329.73438 51.901043 328.29688 52.104168Q328.8125 52.354168 329.09375 52.604168Q329.67188 53.135418 330.1875 53.932293L331.9375 56.666668L330.26562 56.666668L328.9375 54.588543Q328.35938 53.682293 327.98438 53.213543Q327.60938 52.729168 327.3125 52.541668Q327.01562 52.338543 326.70312 52.260418Q326.48438 52.213543 325.96875 52.213543L324.42188 52.213543L324.42188 56.666668L323.09375 56.666668ZM324.42188 51.072918L327.28125 51.072918Q328.1875 51.072918 328.70312 50.885418Q329.21875 50.697918 329.48438 50.291668Q329.75 49.869793 329.75 49.385418Q329.75 48.666668 329.23438 48.213543Q328.71875 47.744793 327.59375 47.744793L324.42188 47.744793L324.42188 51.072918ZM335.625 56.666668L335.625 47.822918L332.32812 47.822918L332.32812 46.651043L340.26562 46.651043L340.26562 47.822918L336.95312 47.822918L336.95312 56.666668L335.625 56.666668ZM341.4375 53.651043L341.4375 52.416668L345.21875 52.416668L345.21875 53.651043L341.4375 53.651043ZM347.03125 56.666668L347.03125 46.651043L348.35938 46.651043L348.35938 55.479168L353.28125 55.479168L353.28125 56.666668L347.03125 56.666668ZM355.03125 56.666668L355.03125 46.651043L356.35938 46.651043L356.35938 55.479168L361.28125 55.479168L361.28125 56.666668L355.03125 56.666668ZM363.04688 56.666668L363.04688 46.651043L365.03125 46.651043L367.40625 53.744793Q367.73438 54.729168 367.89062 55.229168Q368.0625 54.682293 368.42188 53.619793L370.8125 46.651043L372.60938 46.651043L372.60938 56.666668L371.32812 56.666668L371.32812 48.276043L368.40625 56.666668L367.21875 56.666668L364.3125 48.135418L364.3125 56.666668L363.04688 56.666668Z" fill-rule="nonzero"/><path fill="#fbbc04" d="M389.0 46.666668C389.0 46.114384 389.44772 45.666668 390.0 45.666668L400.0 45.666668C400.55228 45.666668 401.0 46.114384 401.0 46.666668L401.0 56.666668C401.0 57.218952 400.55228 57.666668 400.0 57.666668L390.0 57.666668C389.44772 57.666668 389.0 57.218952 389.0 56.666668Z" fill-rule="nonzero"/><path fill="#1a1a1a" d="M409.625 53.447918L410.875 53.338543Q410.96875 54.088543 411.29688 54.572918Q411.625 55.057293 412.29688 55.354168Q412.98438 55.651043 413.84375 55.651043Q414.59375 55.651043 415.17188 55.432293Q415.76562 55.197918 416.04688 54.807293Q416.32812 54.416668 416.32812 53.947918Q416.32812 53.479168 416.04688 53.135418Q415.78125 52.776043 415.15625 52.526043Q414.75 52.369793 413.35938 52.041668Q411.98438 51.713543 411.4375 51.416668Q410.71875 51.041668 410.35938 50.494793Q410.01562 49.932293 410.01562 49.229168Q410.01562 48.479168 410.4375 47.822918Q410.875 47.151043 411.70312 46.822918Q412.53125 46.479168 413.54688 46.479168Q414.65625 46.479168 415.5 46.838543Q416.35938 47.197918 416.8125 47.901043Q417.26562 48.588543 417.3125 49.463543L416.03125 49.557293Q415.9375 48.619793 415.34375 48.135418Q414.75 47.635418 413.59375 47.635418Q412.39062 47.635418 411.84375 48.088543Q411.29688 48.526043 411.29688 49.151043Q411.29688 49.682293 411.6875 50.041668Q412.0625 50.385418 413.67188 50.760418Q415.29688 51.119793 415.89062 51.385418Q416.76562 51.791668 417.1875 52.416668Q417.60938 53.026043 417.60938 53.838543Q417.60938 54.635418 417.14062 55.354168Q416.6875 56.057293 415.82812 56.447918Q414.96875 56.838543 413.90625 56.838543Q412.54688 56.838543 411.625 56.447918Q410.70312 56.041668 410.17188 55.244793Q409.65625 54.447918 409.625 53.447918ZM423.76562 52.729168L423.76562 51.557293L428.01562 51.557293L428.01562 55.276043Q427.03125 56.057293 425.98438 56.447918Q424.95312 56.838543 423.85938 56.838543Q422.39062 56.838543 421.17188 56.213543Q419.96875 55.572918 419.35938 54.385418Q418.75 53.182293 418.75 51.697918Q418.75 50.244793 419.35938 48.979168Q419.96875 47.697918 421.10938 47.088543Q422.26562 46.479168 423.76562 46.479168Q424.84375 46.479168 425.71875 46.838543Q426.60938 47.182293 427.10938 47.807293Q427.60938 48.432293 427.85938 49.447918L426.67188 49.776043Q426.4375 49.010418 426.09375 48.572918Q425.76562 48.135418 425.14062 47.869793Q424.53125 47.604168 423.76562 47.604168Q422.85938 47.604168 422.1875 47.885418Q421.53125 48.166668 421.125 48.619793Q420.71875 49.057293 420.5 49.604168Q420.10938 50.541668 420.10938 51.619793Q420.10938 52.963543 420.5625 53.869793Q421.03125 54.760418 421.90625 55.197918Q422.79688 55.635418 423.79688 55.635418Q424.65625 55.635418 425.46875 55.307293Q426.29688 54.979168 426.71875 54.604168L426.71875 52.729168L423.76562 52.729168ZM430.03125 56.666668L430.03125 46.651043L431.35938 46.651043L431.35938 55.479168L436.28125 55.479168L436.28125 56.666668L430.03125 56.666668ZM442.65625 55.776043Q441.98438 56.354168 441.34375 56.604168Q440.71875 56.838543 439.98438 56.838543Q438.79688 56.838543 438.14062 56.260418Q437.5 55.666668 437.5 54.744793Q437.5 54.213543 437.73438 53.776043Q437.98438 53.338543 438.375 53.072918Q438.78125 52.807293 439.26562 52.666668Q439.625 52.572918 440.35938 52.479168Q441.85938 52.307293 442.5625 52.057293Q442.5625 51.807293 442.5625 51.744793Q442.5625 50.979168 442.21875 50.682293Q441.75 50.260418 440.8125 50.260418Q439.95312 50.260418 439.53125 50.572918Q439.125 50.869793 438.92188 51.635418L437.71875 51.479168Q437.875 50.697918 438.25 50.229168Q438.64062 49.760418 439.34375 49.510418Q440.0625 49.244793 441.0 49.244793Q441.92188 49.244793 442.5 49.463543Q443.07812 49.682293 443.34375 50.010418Q443.625 50.338543 443.73438 50.854168Q443.79688 51.166668 443.79688 51.979168L443.79688 53.619793Q443.79688 55.338543 443.875 55.791668Q443.95312 56.244793 444.1875 56.666668L442.90625 56.666668Q442.71875 56.276043 442.65625 55.776043ZM442.5625 53.026043Q441.89062 53.291668 440.54688 53.494793Q439.79688 53.604168 439.46875 53.744793Q439.15625 53.869793 438.98438 54.135418Q438.8125 54.401043 438.8125 54.713543Q438.8125 55.213543 439.1875 55.541668Q439.5625 55.869793 440.28125 55.869793Q441.0 55.869793 441.54688 55.557293Q442.09375 55.244793 442.35938 54.697918Q442.5625 54.291668 442.5625 53.479168L442.5625 53.026043ZM445.92188 56.666668L445.92188 49.401043L447.03125 49.401043L447.03125 50.432293Q447.82812 49.244793 449.34375 49.244793Q450.0 49.244793 450.54688 49.479168Q451.09375 49.713543 451.35938 50.104168Q451.64062 50.479168 451.75 51.010418Q451.82812 51.354168 451.82812 52.197918L451.82812 56.666668L450.59375 56.666668L450.59375 52.244793Q450.59375 51.494793 450.45312 51.135418Q450.3125 50.760418 449.9375 50.541668Q449.57812 50.307293 449.07812 50.307293Q448.29688 50.307293 447.71875 50.807293Q447.15625 51.307293 447.15625 52.697918L447.15625 56.666668L445.92188 56.666668ZM453.70312 57.276043L454.89062 57.447918Q454.96875 57.994793 455.3125 58.260418Q455.76562 58.588543 456.5625 58.588543Q457.42188 58.588543 457.875 58.244793Q458.34375 57.916668 458.51562 57.291668Q458.60938 56.916668 458.59375 55.713543Q457.79688 56.666668 456.59375 56.666668Q455.09375 56.666668 454.26562 55.588543Q453.45312 54.510418 453.45312 52.994793Q453.45312 51.963543 453.82812 51.088543Q454.20312 50.197918 454.90625 49.729168Q455.625 49.244793 456.59375 49.244793Q457.875 49.244793 458.71875 50.276043L458.71875 49.401043L459.84375 49.401043L459.84375 55.682293Q459.84375 57.385418 459.5 58.088543Q459.15625 58.791668 458.40625 59.197918Q457.65625 59.619793 456.5625 59.619793Q455.26562 59.619793 454.46875 59.026043Q453.67188 58.447918 453.70312 57.276043ZM454.71875 52.901043Q454.71875 54.338543 455.28125 54.994793Q455.84375 55.651043 456.70312 55.651043Q457.54688 55.651043 458.125 54.994793Q458.70312 54.338543 458.70312 52.947918Q458.70312 51.619793 458.10938 50.947918Q457.51562 50.260418 456.6875 50.260418Q455.85938 50.260418 455.28125 50.932293Q454.71875 51.588543 454.71875 52.901043Z" fill-rule="nonzero"/><path fill="#757575" d="M14.9125 30.6L14.9125 17.709375L16.63125 17.709375L16.63125 29.084375L22.975 29.084375L22.975 30.6L14.9125 30.6ZM24.75625 30.6L24.75625 17.709375L26.334375 17.709375L26.334375 30.6L24.75625 30.6ZM34.88125 29.44375Q34.00625 30.19375 33.178123 30.50625Q32.365623 30.81875 31.44375 30.81875Q29.896875 30.81875 29.06875 30.06875Q28.25625 29.303125 28.25625 28.13125Q28.25625 27.459375 28.56875 26.896875Q28.88125 26.31875 29.38125 25.975Q29.88125 25.63125 30.521875 25.459375Q30.990625 25.334375 31.928125 25.225Q33.834373 24.990625 34.740623 24.678125Q34.75625 24.35 34.75625 24.25625Q34.75625 23.303125 34.303123 22.896875Q33.69375 22.365625 32.50625 22.365625Q31.38125 22.365625 30.85 22.75625Q30.31875 23.146875 30.06875 24.146875L28.521875 23.928125Q28.740625 22.928125 29.209375 22.31875Q29.69375 21.709375 30.6 21.38125Q31.521875 21.053125 32.740623 21.053125Q33.928123 21.053125 34.678123 21.334375Q35.428123 21.615625 35.771873 22.053125Q36.13125 22.475 36.271873 23.115625Q36.35 23.521875 36.35 24.584375L36.35 26.69375Q36.35 28.896875 36.44375 29.490625Q36.553123 30.06875 36.85 30.6L35.19375 30.6Q34.94375 30.1 34.88125 29.44375ZM34.740623 25.9125Q33.88125 26.271875 32.1625 26.50625Q31.19375 26.646875 30.7875 26.834375Q30.38125 27.00625 30.1625 27.35Q29.94375 27.678125 29.94375 28.1Q29.94375 28.725 30.4125 29.146875Q30.896875 29.56875 31.81875 29.56875Q32.740623 29.56875 33.44375 29.178125Q34.1625 28.771875 34.490623 28.084375Q34.740623 27.5375 34.740623 26.490625L34.740623 25.9125ZM38.7875 30.6L38.7875 21.271875L40.209373 21.271875L40.209373 22.56875Q40.646873 21.896875 41.365623 21.475Q42.1 21.053125 43.0375 21.053125Q44.06875 21.053125 44.725 21.490625Q45.396873 21.9125 45.6625 22.69375Q46.771873 21.053125 48.553123 21.053125Q49.94375 21.053125 50.678123 21.834375Q51.428123 22.6 51.428123 24.19375L51.428123 30.6L49.865623 30.6L49.865623 24.725Q49.865623 23.771875 49.709373 23.35Q49.553123 22.928125 49.146873 22.678125Q48.740623 22.428125 48.19375 22.428125Q47.209373 22.428125 46.553123 23.084375Q45.9125 23.740625 45.9125 25.178125L45.9125 30.6L44.334373 30.6L44.334373 24.5375Q44.334373 23.475 43.94375 22.959375Q43.553123 22.428125 42.678123 22.428125Q42.00625 22.428125 41.44375 22.7875Q40.88125 23.13125 40.615623 23.803125Q40.365623 24.475 40.365623 25.75625L40.365623 30.6L38.7875 30.6ZM58.88125 29.44375Q58.00625 30.19375 57.178123 30.50625Q56.365623 30.81875 55.44375 30.81875Q53.896873 30.81875 53.06875 30.06875Q52.25625 29.303125 52.25625 28.13125Q52.25625 27.459375 52.56875 26.896875Q52.88125 26.31875 53.38125 25.975Q53.88125 25.63125 54.521873 25.459375Q54.990623 25.334375 55.928123 25.225Q57.834373 24.990625 58.740623 24.678125Q58.75625 24.35 58.75625 24.25625Q58.75625 23.303125 58.303123 22.896875Q57.69375 22.365625 56.50625 22.365625Q55.38125 22.365625 54.85 22.75625Q54.31875 23.146875 54.06875 24.146875L52.521873 23.928125Q52.740623 22.928125 53.209373 22.31875Q53.69375 21.709375 54.6 21.38125Q55.521873 21.053125 56.740623 21.053125Q57.928123 21.053125 58.678123 21.334375Q59.428123 21.615625 59.771873 22.053125Q60.13125 22.475 60.271873 23.115625Q60.35 23.521875 60.35 24.584375L60.35 26.69375Q60.35 28.896875 60.44375 29.490625Q60.553123 30.06875 60.85 30.6L59.19375 30.6Q58.94375 30.1 58.88125 29.44375ZM58.740623 25.9125Q57.88125 26.271875 56.1625 26.50625Q55.19375 26.646875 54.7875 26.834375Q54.38125 27.00625 54.1625 27.35Q53.94375 27.678125 53.94375 28.1Q53.94375 28.725 54.4125 29.146875Q54.896873 29.56875 55.81875 29.56875Q56.740623 29.56875 57.44375 29.178125Q58.1625 28.771875 58.490623 28.084375Q58.740623 27.5375 58.740623 26.490625L58.740623 25.9125ZM62.178123 26.725L62.178123 25.146875L67.0375 25.146875L67.0375 26.725L62.178123 26.725ZM68.45937 19.396875L68.45937 17.88125L76.7875 17.88125L76.7875 19.115625Q75.56875 20.428125 74.35 22.6Q73.14687 24.75625 72.49062 27.053125Q72.00625 28.678125 71.88125 30.6L70.25625 30.6Q70.2875 29.084375 70.85 26.928125Q71.42812 24.771875 72.49062 22.771875Q73.55312 20.771875 74.75625 19.396875L68.45937 19.396875ZM78.35 24.240625Q78.35 21.959375 78.81875 20.56875Q79.2875 19.178125 80.20937 18.428125Q81.14687 17.6625 82.55312 17.6625Q83.58437 17.6625 84.36562 18.084375Q85.14687 18.490625 85.64687 19.2875Q86.1625 20.06875 86.45937 21.209375Q86.75625 22.334375 86.75625 24.240625Q86.75625 26.50625 86.2875 27.9125Q85.81875 29.303125 84.88125 30.06875Q83.95937 30.81875 82.55312 30.81875Q80.67812 30.81875 79.61562 29.490625Q78.35 27.88125 78.35 24.240625ZM79.975 24.240625Q79.975 27.4125 80.70937 28.475Q81.45937 29.521875 82.55312 29.521875Q83.63125 29.521875 84.38125 28.475Q85.13125 27.4125 85.13125 24.240625Q85.13125 21.06875 84.38125 20.021875Q83.63125 18.975 82.5375 18.975Q81.44375 18.975 80.7875 19.896875Q79.975 21.06875 79.975 24.240625ZM88.9125 30.6L88.9125 17.709375L93.75625 17.709375Q95.225 17.709375 96.11562 18.1Q97.00625 18.490625 97.50625 19.303125Q98.02187 20.115625 98.02187 21.00625Q98.02187 21.834375 97.56875 22.56875Q97.13125 23.303125 96.225 23.740625Q97.39687 24.084375 98.02187 24.9125Q98.64687 25.740625 98.64687 26.865625Q98.64687 27.771875 98.25625 28.553125Q97.88125 29.31875 97.31875 29.740625Q96.75625 30.1625 95.9125 30.38125Q95.06875 30.6 93.83437 30.6L88.9125 30.6ZM90.63125 23.13125L93.4125 23.13125Q94.5375 23.13125 95.0375 22.975Q95.69375 22.7875 96.02187 22.35Q96.35 21.896875 96.35 21.209375Q96.35 20.56875 96.0375 20.084375Q95.725 19.6 95.14687 19.428125Q94.58437 19.240625 93.19375 19.240625L90.63125 19.240625L90.63125 23.13125ZM90.63125 29.084375L93.83437 29.084375Q94.6625 29.084375 94.99062 29.021875Q95.58437 28.9125 95.975 28.6625Q96.36562 28.4125 96.61562 27.94375Q96.88125 27.475 96.88125 26.865625Q96.88125 26.146875 96.50625 25.615625Q96.14687 25.084375 95.49062 24.865625Q94.83437 24.646875 93.6 24.646875L90.63125 24.646875L90.63125 29.084375ZM108.80312 34.38125Q107.50625 32.740623 106.6 30.521875Q105.69375 28.303125 105.69375 25.928125Q105.69375 23.834375 106.36562 21.928125Q107.1625 19.69375 108.80312 17.490625L109.94375 17.490625Q108.88125 19.31875 108.5375 20.1Q108.00625 21.31875 107.69375 22.63125Q107.31875 24.2875 107.31875 25.94375Q107.31875 30.1625 109.94375 34.38125L108.80312 34.38125ZM112.1625 30.6L112.1625 22.490625L110.77187 22.490625L110.77187 21.271875L112.1625 21.271875L112.1625 20.271875Q112.1625 19.334375 112.33437 18.88125Q112.55312 18.25625 113.13125 17.88125Q113.70937 17.490625 114.75625 17.490625Q115.4125 17.490625 116.225 17.646875L115.99062 19.0375Q115.49062 18.94375 115.05312 18.94375Q114.33437 18.94375 114.0375 19.25625Q113.74062 19.553125 113.74062 20.396875L113.74062 21.271875L115.55312 21.271875L115.55312 22.490625L113.74062 22.490625L113.74062 30.6L112.1625 30.6ZM116.7875 34.178123L116.7875 21.271875L118.225 21.271875L118.225 22.475Q118.74062 21.771875 119.38125 21.4125Q120.02187 21.053125 120.92812 21.053125Q122.13125 21.053125 123.0375 21.678125Q123.95937 22.2875 124.42812 23.4125Q124.89687 24.521875 124.89687 25.865625Q124.89687 27.2875 124.38125 28.44375Q123.86562 29.584375 122.88125 30.209375Q121.89687 30.81875 120.81875 30.81875Q120.0375 30.81875 119.39687 30.490625Q118.77187 30.146875 118.36562 29.63125L118.36562 34.178123L116.7875 34.178123ZM118.225 25.990625Q118.225 27.7875 118.94375 28.646875Q119.67812 29.50625 120.70937 29.50625Q121.77187 29.50625 122.52187 28.615625Q123.27187 27.725 123.27187 25.85Q123.27187 24.06875 122.5375 23.178125Q121.80312 22.2875 120.7875 22.2875Q119.77187 22.2875 118.99062 23.240625Q118.225 24.178125 118.225 25.990625ZM128.7875 23.615625Q127.80312 23.25625 127.31875 22.584375Q126.85 21.9125 126.85 20.990625Q126.85 19.584375 127.85 18.63125Q128.86563 17.6625 130.55313 17.6625Q132.24063 17.6625 133.25626 18.646875Q134.2875 19.615625 134.2875 21.021875Q134.2875 21.928125 133.81876 22.6Q133.35 23.25625 132.39688 23.615625Q133.58438 24.00625 134.19376 24.865625Q134.81876 25.725 134.81876 26.9125Q134.81876 28.56875 133.64688 29.69375Q132.475 30.81875 130.56876 30.81875Q128.6625 30.81875 127.49062 29.69375Q126.33437 28.553125 126.33437 26.865625Q126.33437 25.615625 126.95937 24.771875Q127.6 23.9125 128.7875 23.615625ZM128.45938 20.928125Q128.45938 21.85 129.05313 22.428125Q129.64688 23.00625 130.58438 23.00625Q131.49063 23.00625 132.06876 22.428125Q132.6625 21.85 132.6625 21.021875Q132.6625 20.146875 132.05313 19.553125Q131.45938 18.959375 130.56876 18.959375Q129.6625 18.959375 129.05313 19.5375Q128.45938 20.115625 128.45938 20.928125ZM127.95937 26.88125Q127.95937 27.553125 128.27188 28.19375Q128.6 28.81875 129.225 29.178125Q129.86563 29.521875 130.6 29.521875Q131.725 29.521875 132.45938 28.7875Q133.20938 28.053125 133.20938 26.928125Q133.20938 25.7875 132.44376 25.053125Q131.67813 24.303125 130.5375 24.303125Q129.42813 24.303125 128.69376 25.0375Q127.95937 25.771875 127.95937 26.88125ZM137.81876 34.38125L136.69376 34.38125Q139.31876 30.1625 139.31876 25.94375Q139.31876 24.2875 138.94376 22.6625Q138.64688 21.35 138.1 20.13125Q137.75626 19.334375 136.69376 17.490625L137.81876 17.490625Q139.475 19.69375 140.27188 21.928125Q140.94376 23.834375 140.94376 25.928125Q140.94376 28.303125 140.0375 30.521875Q139.13126 32.740623 137.81876 34.38125ZM147.19376 25.928125Q147.19376 23.334375 148.64688 22.084375Q149.85 21.053125 151.56876 21.053125Q153.50626 21.053125 154.725 22.31875Q155.94376 23.584375 155.94376 25.803125Q155.94376 27.6 155.39688 28.63125Q154.86563 29.6625 153.83438 30.240625Q152.80313 30.81875 151.56876 30.81875Q149.61563 30.81875 148.39688 29.56875Q147.19376 28.303125 147.19376 25.928125ZM148.81876 25.928125Q148.81876 27.725 149.6 28.615625Q150.38126 29.50625 151.56876 29.50625Q152.75626 29.50625 153.5375 28.615625Q154.31876 27.709375 154.31876 25.88125Q154.31876 24.146875 153.52188 23.25625Q152.74063 22.365625 151.56876 22.365625Q150.38126 22.365625 149.6 23.25625Q148.81876 24.146875 148.81876 25.928125ZM157.7875 30.6L157.7875 21.271875L159.20938 21.271875L159.20938 22.6Q160.24063 21.053125 162.17813 21.053125Q163.02188 21.053125 163.725 21.365625Q164.44376 21.6625 164.7875 22.1625Q165.14688 22.646875 165.2875 23.31875Q165.36563 23.75625 165.36563 24.865625L165.36563 30.6L163.7875 30.6L163.7875 24.928125Q163.7875 23.959375 163.6 23.475Q163.42813 22.990625 162.94376 22.709375Q162.475 22.428125 161.85 22.428125Q160.83438 22.428125 160.1 23.06875Q159.36563 23.709375 159.36563 25.50625L159.36563 30.6L157.7875 30.6ZM174.7875 23.615625Q173.80313 23.25625 173.31876 22.584375Q172.85 21.9125 172.85 20.990625Q172.85 19.584375 173.85 18.63125Q174.86563 17.6625 176.55313 17.6625Q178.24063 17.6625 179.25626 18.646875Q180.2875 19.615625 180.2875 21.021875Q180.2875 21.928125 179.81876 22.6Q179.35 23.25625 178.39688 23.615625Q179.58438 24.00625 180.19376 24.865625Q180.81876 25.725 180.81876 26.9125Q180.81876 28.56875 179.64688 29.69375Q178.475 30.81875 176.56876 30.81875Q174.6625 30.81875 173.49063 29.69375Q172.33438 28.553125 172.33438 26.865625Q172.33438 25.615625 172.95938 24.771875Q173.6 23.9125 174.7875 23.615625ZM174.45938 20.928125Q174.45938 21.85 175.05313 22.428125Q175.64688 23.00625 176.58438 23.00625Q177.49063 23.00625 178.06876 22.428125Q178.6625 21.85 178.6625 21.021875Q178.6625 20.146875 178.05313 19.553125Q177.45938 18.959375 176.56876 18.959375Q175.6625 18.959375 175.05313 19.5375Q174.45938 20.115625 174.45938 20.928125ZM173.95938 26.88125Q173.95938 27.553125 174.27188 28.19375Q174.6 28.81875 175.225 29.178125Q175.86563 29.521875 176.6 29.521875Q177.725 29.521875 178.45938 28.7875Q179.20938 28.053125 179.20938 26.928125Q179.20938 25.7875 178.44376 25.053125Q177.67813 24.303125 176.5375 24.303125Q175.42813 24.303125 174.69376 25.0375Q173.95938 25.771875 173.95938 26.88125ZM186.725 30.6L190.14688 25.740625L186.99063 21.271875L188.95938 21.271875L190.39688 23.459375Q190.80313 24.084375 191.05313 24.50625Q191.42813 23.9125 191.75626 23.475L193.33438 21.271875L195.225 21.271875L191.99063 25.6625L195.475 30.6L193.52188 30.6L191.61563 27.69375L191.1 26.9125L188.64688 30.6L186.725 30.6ZM201.0375 30.6L201.0375 17.709375L202.74063 17.709375L202.74063 23.00625L209.44376 23.00625L209.44376 17.709375L211.14688 17.709375L211.14688 30.6L209.44376 30.6L209.44376 24.521875L202.74063 24.521875L202.74063 30.6L201.0375 30.6ZM219.30313 30.6L217.725 30.6L217.725 20.521875Q217.14688 21.06875 216.225 21.615625Q215.30313 22.146875 214.55313 22.428125L214.55313 20.896875Q215.88126 20.271875 216.88126 19.38125Q217.88126 18.490625 218.2875 17.6625L219.30313 17.6625L219.30313 30.6ZM223.35 24.240625Q223.35 21.959375 223.81876 20.56875Q224.2875 19.178125 225.20938 18.428125Q226.14688 17.6625 227.55313 17.6625Q228.58438 17.6625 229.36563 18.084375Q230.14688 18.490625 230.64688 19.2875Q231.1625 20.06875 231.45938 21.209375Q231.75626 22.334375 231.75626 24.240625Q231.75626 26.50625 231.2875 27.9125Q230.81876 29.303125 229.88126 30.06875Q228.95938 30.81875 227.55313 30.81875Q225.67813 30.81875 224.61563 29.490625Q223.35 27.88125 223.35 24.240625ZM224.975 24.240625Q224.975 27.4125 225.70938 28.475Q226.45938 29.521875 227.55313 29.521875Q228.63126 29.521875 229.38126 28.475Q230.13126 27.4125 230.13126 24.240625Q230.13126 21.06875 229.38126 20.021875Q228.63126 18.975 227.5375 18.975Q226.44376 18.975 225.7875 19.896875Q224.975 21.06875 224.975 24.240625ZM233.35 24.240625Q233.35 21.959375 233.81876 20.56875Q234.2875 19.178125 235.20938 18.428125Q236.14688 17.6625 237.55313 17.6625Q238.58438 17.6625 239.36563 18.084375Q240.14688 18.490625 240.64688 19.2875Q241.1625 20.06875 241.45938 21.209375Q241.75626 22.334375 241.75626 24.240625Q241.75626 26.50625 241.2875 27.9125Q240.81876 29.303125 239.88126 30.06875Q238.95938 30.81875 237.55313 30.81875Q235.67813 30.81875 234.61563 29.490625Q233.35 27.88125 233.35 24.240625ZM234.975 24.240625Q234.975 27.4125 235.70938 28.475Q236.45938 29.521875 237.55313 29.521875Q238.63126 29.521875 239.38126 28.475Q240.13126 27.4125 240.13126 24.240625Q240.13126 21.06875 239.38126 20.021875Q238.63126 18.975 237.5375 18.975Q236.44376 18.975 235.7875 19.896875Q234.975 21.06875 234.975 24.240625ZM244.24063 30.6L244.24063 28.803125L246.0375 28.803125L246.0375 30.6L244.24063 30.6ZM254.0375 30.6L254.0375 17.709375L255.74063 17.709375L255.74063 23.00625L262.44376 23.00625L262.44376 17.709375L264.14688 17.709375L264.14688 30.6L262.44376 30.6L262.44376 24.521875L255.74063 24.521875L255.74063 30.6L254.0375 30.6ZM266.80313 19.5375L266.80313 17.709375L268.38126 17.709375L268.38126 19.5375L266.80313 19.5375ZM266.80313 30.6L266.80313 21.271875L268.38126 21.271875L268.38126 30.6L266.80313 30.6ZM270.49063 31.38125L272.0375 31.6Q272.13126 32.31875 272.56876 32.646873Q273.1625 33.084373 274.17813 33.084373Q275.27188 33.084373 275.86563 32.63125Q276.475 32.19375 276.67813 31.4125Q276.80313 30.928125 276.80313 29.38125Q275.75626 30.6 274.20938 30.6Q272.2875 30.6 271.225 29.209375Q270.17813 27.81875 270.17813 25.88125Q270.17813 24.5375 270.6625 23.4125Q271.14688 22.2875 272.06876 21.678125Q272.99063 21.053125 274.225 21.053125Q275.88126 21.053125 276.94376 22.396875L276.94376 21.271875L278.4125 21.271875L278.4125 29.334375Q278.4125 31.521875 277.95938 32.428123Q277.52188 33.334373 276.55313 33.85Q275.6 34.38125 274.19376 34.38125Q272.52188 34.38125 271.49063 33.63125Q270.45938 32.88125 270.49063 31.38125ZM271.80313 25.771875Q271.80313 27.6 272.5375 28.44375Q273.27188 29.2875 274.36563 29.2875Q275.45938 29.2875 276.19376 28.459375Q276.92813 27.615625 276.92813 25.81875Q276.92813 24.1 276.1625 23.240625Q275.4125 22.365625 274.33438 22.365625Q273.2875 22.365625 272.5375 23.225Q271.80313 24.084375 271.80313 25.771875ZM280.7875 30.6L280.7875 17.709375L282.36563 17.709375L282.36563 22.334375Q283.475 21.053125 285.1625 21.053125Q286.19376 21.053125 286.95938 21.459375Q287.725 21.865625 288.05313 22.6Q288.39688 23.31875 288.39688 24.678125L288.39688 30.6L286.80313 30.6L286.80313 24.678125Q286.80313 23.490625 286.2875 22.959375Q285.77188 22.4125 284.83438 22.4125Q284.13126 22.4125 283.50626 22.7875Q282.89688 23.146875 282.63126 23.771875Q282.36563 24.396875 282.36563 25.490625L282.36563 30.6L280.7875 30.6ZM297.17813 27.6L298.81876 27.803125Q298.42813 29.225 297.38126 30.021875Q296.33438 30.81875 294.70938 30.81875Q292.6625 30.81875 291.45938 29.553125Q290.25626 28.2875 290.25626 26.00625Q290.25626 23.6625 291.45938 22.365625Q292.67813 21.053125 294.61563 21.053125Q296.49063 21.053125 297.67813 22.334375Q298.86563 23.6 298.86563 25.9125Q298.86563 26.053125 298.85 26.334375L291.89688 26.334375Q291.975 27.88125 292.75626 28.69375Q293.55313 29.50625 294.70938 29.50625Q295.58438 29.50625 296.19376 29.053125Q296.81876 28.6 297.17813 27.6ZM291.975 25.0375L297.19376 25.0375Q297.08438 23.865625 296.6 23.271875Q295.83438 22.35 294.63126 22.35Q293.55313 22.35 292.80313 23.084375Q292.06876 23.81875 291.975 25.0375ZM300.77188 30.6L300.77188 21.271875L302.19376 21.271875L302.19376 22.678125Q302.74063 21.69375 303.19376 21.38125Q303.6625 21.053125 304.20938 21.053125Q305.02188 21.053125 305.83438 21.56875L305.30313 23.0375Q304.70938 22.69375 304.13126 22.69375Q303.61563 22.69375 303.19376 23.00625Q302.7875 23.31875 302.61563 23.865625Q302.35 24.709375 302.35 25.709375L302.35 30.6L300.77188 30.6ZM315.27188 30.6L315.27188 19.240625L311.02188 19.240625L311.02188 17.709375L321.24063 17.709375L321.24063 19.240625L316.975 19.240625L316.975 30.6L315.27188 30.6ZM323.7875 30.6L323.7875 17.709375L325.36563 17.709375L325.36563 22.334375Q326.475 21.053125 328.1625 21.053125Q329.19376 21.053125 329.95938 21.459375Q330.725 21.865625 331.05313 22.6Q331.39688 23.31875 331.39688 24.678125L331.39688 30.6L329.80313 30.6L329.80313 24.678125Q329.80313 23.490625 329.2875 22.959375Q328.77188 22.4125 327.83438 22.4125Q327.13126 22.4125 326.50626 22.7875Q325.89688 23.146875 325.63126 23.771875Q325.36563 24.396875 325.36563 25.490625L325.36563 30.6L323.7875 30.6ZM333.77188 30.6L333.77188 21.271875L335.19376 21.271875L335.19376 22.678125Q335.74063 21.69375 336.19376 21.38125Q336.6625 21.053125 337.20938 21.053125Q338.02188 21.053125 338.83438 21.56875L338.30313 23.0375Q337.70938 22.69375 337.13126 22.69375Q336.61563 22.69375 336.19376 23.00625Q335.7875 23.31875 335.61563 23.865625Q335.35 24.709375 335.35 25.709375L335.35 30.6L333.77188 30.6ZM339.19376 25.928125Q339.19376 23.334375 340.64688 22.084375Q341.85 21.053125 343.56876 21.053125Q345.50626 21.053125 346.725 22.31875Q347.94376 23.584375 347.94376 25.803125Q347.94376 27.6 347.39688 28.63125Q346.86563 29.6625 345.83438 30.240625Q344.80313 30.81875 343.56876 30.81875Q341.61563 30.81875 340.39688 29.56875Q339.19376 28.303125 339.19376 25.928125ZM340.81876 25.928125Q340.81876 27.725 341.6 28.615625Q342.38126 29.50625 343.56876 29.50625Q344.75626 29.50625 345.5375 28.615625Q346.31876 27.709375 346.31876 25.88125Q346.31876 24.146875 345.52188 23.25625Q344.74063 22.365625 343.56876 22.365625Q342.38126 22.365625 341.6 23.25625Q340.81876 24.146875 340.81876 25.928125ZM355.89688 30.6L355.89688 29.225Q354.81876 30.81875 352.94376 30.81875Q352.11563 30.81875 351.39688 30.50625Q350.67813 30.178125 350.33438 29.709375Q349.99063 29.225 349.85 28.521875Q349.75626 28.053125 349.75626 27.053125L349.75626 21.271875L351.33438 21.271875L351.33438 26.44375Q351.33438 27.678125 351.42813 28.115625Q351.58438 28.740625 352.06876 29.1Q352.55313 29.44375 353.25626 29.44375Q353.975 29.44375 354.6 29.084375Q355.225 28.725 355.475 28.1Q355.74063 27.459375 355.74063 26.271875L355.74063 21.271875L357.31876 21.271875L357.31876 30.6L355.89688 30.6ZM359.49063 31.38125L361.0375 31.6Q361.13126 32.31875 361.56876 32.646873Q362.1625 33.084373 363.17813 33.084373Q364.27188 33.084373 364.86563 32.63125Q365.475 32.19375 365.67813 31.4125Q365.80313 30.928125 365.80313 29.38125Q364.75626 30.6 363.20938 30.6Q361.2875 30.6 360.225 29.209375Q359.17813 27.81875 359.17813 25.88125Q359.17813 24.5375 359.6625 23.4125Q360.14688 22.2875 361.06876 21.678125Q361.99063 21.053125 363.225 21.053125Q364.88126 21.053125 365.94376 22.396875L365.94376 21.271875L367.4125 21.271875L367.4125 29.334375Q367.4125 31.521875 366.95938 32.428123Q366.52188 33.334373 365.55313 33.85Q364.6 34.38125 363.19376 34.38125Q361.52188 34.38125 360.49063 33.63125Q359.45938 32.88125 359.49063 31.38125ZM360.80313 25.771875Q360.80313 27.6 361.5375 28.44375Q362.27188 29.2875 363.36563 29.2875Q364.45938 29.2875 365.19376 28.459375Q365.92813 27.615625 365.92813 25.81875Q365.92813 24.1 365.1625 23.240625Q364.4125 22.365625 363.33438 22.365625Q362.2875 22.365625 361.5375 23.225Q360.80313 24.084375 360.80313 25.771875ZM369.7875 30.6L369.7875 17.709375L371.36563 17.709375L371.36563 22.334375Q372.475 21.053125 374.1625 21.053125Q375.19376 21.053125 375.95938 21.459375Q376.725 21.865625 377.05313 22.6Q377.39688 23.31875 377.39688 24.678125L377.39688 30.6L375.80313 30.6L375.80313 24.678125Q375.80313 23.490625 375.2875 22.959375Q374.77188 22.4125 373.83438 22.4125Q373.13126 22.4125 372.50626 22.7875Q371.89688 23.146875 371.63126 23.771875Q371.36563 24.396875 371.36563 25.490625L371.36563 30.6L369.7875 30.6ZM379.7875 34.178123L379.7875 21.271875L381.225 21.271875L381.225 22.475Q381.74063 21.771875 382.38126 21.4125Q383.02188 21.053125 383.92813 21.053125Q385.13126 21.053125 386.0375 21.678125Q386.95938 22.2875 387.42813 23.4125Q387.89688 24.521875 387.89688 25.865625Q387.89688 27.2875 387.38126 28.44375Q386.86563 29.584375 385.88126 30.209375Q384.89688 30.81875 383.81876 30.81875Q383.0375 30.81875 382.39688 30.490625Q381.77188 30.146875 381.36563 29.63125L381.36563 34.178123L379.7875 34.178123ZM381.225 25.990625Q381.225 27.7875 381.94376 28.646875Q382.67813 29.50625 383.70938 29.50625Q384.77188 29.50625 385.52188 28.615625Q386.27188 27.725 386.27188 25.85Q386.27188 24.06875 385.5375 23.178125Q384.80313 22.2875 383.7875 22.2875Q382.77188 22.2875 381.99063 23.240625Q381.225 24.178125 381.225 25.990625ZM395.89688 30.6L395.89688 29.225Q394.81876 30.81875 392.94376 30.81875Q392.11563 30.81875 391.39688 30.50625Q390.67813 30.178125 390.33438 29.709375Q389.99063 29.225 389.85 28.521875Q389.75626 28.053125 389.75626 27.053125L389.75626 21.271875L391.33438 21.271875L391.33438 26.44375Q391.33438 27.678125 391.42813 28.115625Q391.58438 28.740625 392.06876 29.1Q392.55313 29.44375 393.25626 29.44375Q393.975 29.44375 394.6 29.084375Q395.225 28.725 395.475 28.1Q395.74063 27.459375 395.74063 26.271875L395.74063 21.271875L397.31876 21.271875L397.31876 30.6L395.89688 30.6ZM403.24063 29.178125L403.475 30.584375Q402.80313 30.725 402.27188 30.725Q401.4125 30.725 400.92813 30.459375Q400.45938 30.178125 400.27188 29.740625Q400.08438 29.2875 400.08438 27.865625L400.08438 22.490625L398.9125 22.490625L398.9125 21.271875L400.08438 21.271875L400.08438 18.959375L401.64688 18.00625L401.64688 21.271875L403.24063 21.271875L403.24063 22.490625L401.64688 22.490625L401.64688 27.959375Q401.64688 28.63125 401.725 28.834375Q401.81876 29.021875 402.00626 29.13125Q402.19376 29.240625 402.55313 29.240625Q402.80313 29.240625 403.24063 29.178125ZM409.80313 19.5375L409.80313 17.709375L411.38126 17.709375L411.38126 19.5375L409.80313 19.5375ZM409.80313 30.6L409.80313 21.271875L411.38126 21.271875L411.38126 30.6L409.80313 30.6ZM413.14688 27.81875L414.725 27.56875Q414.85 28.50625 415.44376 29.00625Q416.05313 29.50625 417.13126 29.50625Q418.225 29.50625 418.75626 29.06875Q419.2875 28.615625 419.2875 28.021875Q419.2875 27.490625 418.81876 27.178125Q418.49063 26.975 417.19376 26.646875Q415.45938 26.209375 414.7875 25.896875Q414.11563 25.56875 413.75626 25.00625Q413.4125 24.428125 413.4125 23.740625Q413.4125 23.115625 413.69376 22.584375Q413.99063 22.053125 414.475 21.709375Q414.85 21.428125 415.49063 21.240625Q416.13126 21.053125 416.85 21.053125Q417.95938 21.053125 418.7875 21.38125Q419.61563 21.69375 420.00626 22.240625Q420.4125 22.771875 420.55313 23.678125L419.00626 23.88125Q418.89688 23.1625 418.39688 22.75625Q417.89688 22.35 416.975 22.35Q415.88126 22.35 415.4125 22.709375Q414.94376 23.06875 414.94376 23.553125Q414.94376 23.865625 415.14688 24.115625Q415.33438 24.365625 415.74063 24.5375Q415.99063 24.615625 417.14688 24.94375Q418.81876 25.38125 419.475 25.678125Q420.14688 25.959375 420.52188 26.50625Q420.9125 27.053125 420.9125 27.85Q420.9125 28.646875 420.44376 29.35Q419.99063 30.053125 419.11563 30.44375Q418.24063 30.81875 417.14688 30.81875Q415.31876 30.81875 414.36563 30.06875Q413.4125 29.303125 413.14688 27.81875ZM427.9125 30.6L427.9125 17.709375L432.75626 17.709375Q434.225 17.709375 435.11563 18.1Q436.00626 18.490625 436.50626 19.303125Q437.02188 20.115625 437.02188 21.00625Q437.02188 21.834375 436.56876 22.56875Q436.13126 23.303125 435.225 23.740625Q436.39688 24.084375 437.02188 24.9125Q437.64688 25.740625 437.64688 26.865625Q437.64688 27.771875 437.25626 28.553125Q436.88126 29.31875 436.31876 29.740625Q435.75626 30.1625 434.9125 30.38125Q434.06876 30.6 432.83438 30.6L427.9125 30.6ZM429.63126 23.13125L432.4125 23.13125Q433.5375 23.13125 434.0375 22.975Q434.69376 22.7875 435.02188 22.35Q435.35 21.896875 435.35 21.209375Q435.35 20.56875 435.0375 20.084375Q434.725 19.6 434.14688 19.428125Q433.58438 19.240625 432.19376 19.240625L429.63126 19.240625L429.63126 23.13125ZM429.63126 29.084375L432.83438 29.084375Q433.6625 29.084375 433.99063 29.021875Q434.58438 28.9125 434.975 28.6625Q435.36563 28.4125 435.61563 27.94375Q435.88126 27.475 435.88126 26.865625Q435.88126 26.146875 435.50626 25.615625Q435.14688 25.084375 434.49063 24.865625Q433.83438 24.646875 432.6 24.646875L429.63126 24.646875L429.63126 29.084375ZM446.17813 27.6L447.81876 27.803125Q447.42813 29.225 446.38126 30.021875Q445.33438 30.81875 443.70938 30.81875Q441.6625 30.81875 440.45938 29.553125Q439.25626 28.2875 439.25626 26.00625Q439.25626 23.6625 440.45938 22.365625Q441.67813 21.053125 443.61563 21.053125Q445.49063 21.053125 446.67813 22.334375Q447.86563 23.6 447.86563 25.9125Q447.86563 26.053125 447.85 26.334375L440.89688 26.334375Q440.975 27.88125 441.75626 28.69375Q442.55313 29.50625 443.70938 29.50625Q444.58438 29.50625 445.19376 29.053125Q445.81876 28.6 446.17813 27.6ZM440.975 25.0375L446.19376 25.0375Q446.08438 23.865625 445.6 23.271875Q444.83438 22.35 443.63126 22.35Q442.55313 22.35 441.80313 23.084375Q441.06876 23.81875 440.975 25.0375ZM453.24063 29.178125L453.475 30.584375Q452.80313 30.725 452.27188 30.725Q451.4125 30.725 450.92813 30.459375Q450.45938 30.178125 450.27188 29.740625Q450.08438 29.2875 450.08438 27.865625L450.08438 22.490625L448.9125 22.490625L448.9125 21.271875L450.08438 21.271875L450.08438 18.959375L451.64688 18.00625L451.64688 21.271875L453.24063 21.271875L453.24063 22.490625L451.64688 22.490625L451.64688 27.959375Q451.64688 28.63125 451.725 28.834375Q451.81876 29.021875 452.00626 29.13125Q452.19376 29.240625 452.55313 29.240625Q452.80313 29.240625 453.24063 29.178125ZM458.24063 29.178125L458.475 30.584375Q457.80313 30.725 457.27188 30.725Q456.4125 30.725 455.92813 30.459375Q455.45938 30.178125 455.27188 29.740625Q455.08438 29.2875 455.08438 27.865625L455.08438 22.490625L453.9125 22.490625L453.9125 21.271875L455.08438 21.271875L455.08438 18.959375L456.64688 18.00625L456.64688 21.271875L458.24063 21.271875L458.24063 22.490625L456.64688 22.490625L456.64688 27.959375Q456.64688 28.63125 456.725 28.834375Q456.81876 29.021875 457.00626 29.13125Q457.19376 29.240625 457.55313 29.240625Q457.80313 29.240625 458.24063 29.178125ZM466.17813 27.6L467.81876 27.803125Q467.42813 29.225 466.38126 30.021875Q465.33438 30.81875 463.70938 30.81875Q461.6625 30.81875 460.45938 29.553125Q459.25626 28.2875 459.25626 26.00625Q459.25626 23.6625 460.45938 22.365625Q461.67813 21.053125 463.61563 21.053125Q465.49063 21.053125 466.67813 22.334375Q467.86563 23.6 467.86563 25.9125Q467.86563 26.053125 467.85 26.334375L460.89688 26.334375Q460.975 27.88125 461.75626 28.69375Q462.55313 29.50625 463.70938 29.50625Q464.58438 29.50625 465.19376 29.053125Q465.81876 28.6 466.17813 27.6ZM460.975 25.0375L466.19376 25.0375Q466.08438 23.865625 465.6 23.271875Q464.83438 22.35 463.63126 22.35Q462.55313 22.35 461.80313 23.084375Q461.06876 23.81875 460.975 25.0375ZM469.77188 30.6L469.77188 21.271875L471.19376 21.271875L471.19376 22.678125Q471.74063 21.69375 472.19376 21.38125Q472.6625 21.053125 473.20938 21.053125Q474.02188 21.053125 474.83438 21.56875L474.30313 23.0375Q473.70938 22.69375 473.13126 22.69375Q472.61563 22.69375 472.19376 23.00625Q471.7875 23.31875 471.61563 23.865625Q471.35 24.709375 471.35 25.709375L471.35 30.6L469.77188 30.6ZM476.24063 30.6L476.24063 28.803125L478.0375 28.803125L478.0375 30.6L476.24063 30.6Z" fill-rule="nonzero"/></svg>