<svg version="1.1" viewBox="0.0 0.0 708.0 272.0" fill="none" stroke="none" stroke-linecap="square" stroke-miterlimit="10" width="708" height="272" xmlns:xlink="http://www.w3.org/1999/xlink" xmlns="http://www.w3.org/2000/svg"><path fill="#ffffff" d="M0 0L708.0 0L708.0 272.0L0 272.0L0 0Z" fill-rule="nonzero"/><path stroke="#333333" stroke-width="1.0" stroke-linecap="butt" d="M81.5 76.5L81.5 198.5" fill-rule="nonzero"/><path stroke="#cccccc" stroke-width="1.0" stroke-linecap="butt" d="M149.5 76.5L149.5 198.5" fill-rule="nonzero"/><path stroke="#cccccc" stroke-width="1.0" stroke-linecap="butt" d="M217.5 76.5L217.5 198.5" fill-rule="nonzero"/><path stroke="#cccccc" stroke-width="1.0" stroke-linecap="butt" d="M285.5 76.5L285.5 198.5" fill-rule="nonzero"/><path stroke="#cccccc" stroke-width="1.0" stroke-linecap="butt" d="M353.5 76.5L353.5 198.5" fill-rule="nonzero"/><path stroke="#cccccc" stroke-width="1.0" stroke-linecap="butt" d="M422.5 76.5L422.5 198.5" fill-rule="nonzero"/><path stroke="#cccccc" stroke-width="1.0" stroke-linecap="butt" d="M490.5 76.5L490.5 198.5" fill-rule="nonzero"/><path stroke="#cccccc" stroke-width="1.0" stroke-linecap="butt" d="M558.5 76.5L558.5 198.5" fill-rule="nonzero"/><path stroke="#cccccc" stroke-width="1.0" stroke-linecap="butt" d="M626.5 76.5L626.5 198.5" fill-rule="nonzero"/><path stroke="#cccccc" stroke-width="1.0" stroke-linecap="butt" d="M694.5 76.5L694.5 198.5" fill-rule="nonzero"/><path stroke="#333333" stroke-width="1.0" stroke-linecap="butt" d="M81.5 198.5L694.5 198.5" fill-rule="nonzero"/><path stroke="#cccccc" stroke-width="1.0" stroke-linecap="butt" d="M81.5 167.5L694.5 167.5" fill-rule="nonzero"/><path stroke="#cccccc" stroke-width="1.0" stroke-linecap="butt" d="M81.5 137.5L694.5 137.5" fill-rule="nonzero"/><path stroke="#cccccc" stroke-width="1.0" stroke-linecap="butt" d="M81.5 107.5L694.5 107.5" fill-rule="nonzero"/><path stroke="#cccccc" stroke-width="1.0" stroke-linecap="butt" d="M81.5 76.5L694.5 76.5" fill-rule="nonzero"/><clipPath id="id_0"><path d="M81.6 76.73333L694.4 76.73333L694.4 198.4L81.6 198.4L81.6 76.73333Z" clip-rule="nonzero"/></clipPath><path stroke="#30a2ff" stroke-width="2.0" stroke-linecap="butt" clip-path="url(#id_0)" d="M115.64445 192.59622C115.64445 192.59622 138.34074 191.44968 149.68889 188.58955C161.03703 185.72942 195.08148 173.33876 217.77777 162.28131C240.47408 151.22388 308.56296 101.454834 353.95557 82.2085C399.34814 62.962173 626.3111 11.398175 626.3111 11.398175" fill-rule="nonzero"/><path stroke="#6aa84f" stroke-width="2.0" stroke-linecap="butt" clip-path="url(#id_0)" d="M115.64445 193.1351C115.64445 193.1351 138.34074 192.77608 149.68889 192.20648C161.03703 191.63689 195.08148 189.98476 217.77777 187.22856C240.47408 184.47238 308.56296 170.2449 353.95557 164.11015C399.34814 157.9754 626.3111 136.72998 626.3111 136.72998" fill-rule="nonzero"/><path stroke="#ff6d01" stroke-width="2.0" stroke-linecap="butt" clip-path="url(#id_0)" d="M115.64445 193.77888C115.64445 193.77888 138.34074 193.42105 149.68889 193.09656C161.03703 192.77206 195.08148 194.38152 217.77777 190.56726C240.47408 186.75302 308.56296 161.19067 353.95557 149.85493C399.34814 138.51921 626.3111 95.25085 626.3111 95.25085" fill-rule="nonzero"/><path fill="#000000" fill-opacity="0.0" clip-path="url(#id_0)" d="M118.64445 192.59622C118.64445 194.25307 117.3013 195.59622 115.64445 195.59622C113.98759 195.59622 112.64445 194.25307 112.64445 192.59622C112.64445 190.93936 113.98759 189.59622 115.64445 189.59622C117.3013 189.59622 118.64445 190.93936 118.64445 192.59622Z" fill-rule="nonzero"/><path fill="#000000" fill-opacity="0.0" clip-path="url(#id_0)" d="M152.68889 188.58955C152.68889 190.2464 151.34575 191.58955 149.68889 191.58955C148.03203 191.58955 146.68889 190.2464 146.68889 188.58955C146.68889 186.9327 148.03203 185.58955 149.68889 185.58955C151.34575 185.58955 152.68889 186.9327 152.68889 188.58955Z" fill-rule="nonzero"/><path fill="#000000" fill-opacity="0.0" clip-path="url(#id_0)" d="M220.77777 162.28131C220.77777 163.93817 219.43463 165.28131 217.77777 165.28131C216.12093 165.28131 214.77777 163.93817 214.77777 162.28131C214.77777 160.62447 216.12093 159.28131 217.77777 159.28131C219.43463 159.28131 220.77777 160.62447 220.77777 162.28131Z" fill-rule="nonzero"/><path fill="#000000" fill-opacity="0.0" clip-path="url(#id_0)" d="M356.95557 82.2085C356.95557 83.86536 355.6124 85.2085 353.95557 85.2085C352.2987 85.2085 350.95557 83.86536 350.95557 82.2085C350.95557 80.55165 352.2987 79.2085 353.95557 79.2085C355.6124 79.2085 356.95557 80.55165 356.95557 82.2085Z" fill-rule="nonzero"/><path fill="#000000" fill-opacity="0.0" clip-path="url(#id_0)" d="M629.3111 11.398175C629.3111 13.05503 627.96796 14.398175 626.3111 14.398175C624.65424 14.398175 623.3111 13.05503 623.3111 11.398175C623.3111 9.741321 624.65424 8.398175 626.3111 8.398175C627.96796 8.398175 629.3111 9.741321 629.3111 11.398175Z" fill-rule="nonzero"/><path fill="#000000" fill-opacity="0.0" clip-path="url(#id_0)" d="M118.64445 193.1351C118.64445 194.79195 117.3013 196.1351 115.64445 196.1351C113.98759 196.1351 112.64445 194.79195 112.64445 193.1351C112.64445 191.47824 113.98759 190.1351 115.64445 190.1351C117.3013 190.1351 118.64445 191.47824 118.64445 193.1351Z" fill-rule="nonzero"/><path fill="#000000" fill-opacity="0.0" clip-path="url(#id_0)" d="M152.68889 192.20648C152.68889 193.86334 151.34575 195.20648 149.68889 195.20648C148.03203 195.20648 146.68889 193.86334 146.68889 192.20648C146.68889 190.54964 148.03203 189.20648 149.68889 189.20648C151.34575 189.20648 152.68889 190.54964 152.68889 192.20648Z" fill-rule="nonzero"/><path fill="#000000" fill-opacity="0.0" clip-path="url(#id_0)" d="M220.77777 187.22856C220.77777 188.88542 219.43463 190.22856 217.77777 190.22856C216.12093 190.22856 214.77777 188.88542 214.77777 187.22856C214.77777 185.57172 216.12093 184.22856 217.77777 184.22856C219.43463 184.22856 220.77777 185.57172 220.77777 187.22856Z" fill-rule="nonzero"/><path fill="#000000" fill-opacity="0.0" clip-path="url(#id_0)" d="M356.95557 164.11015C356.95557 165.767 355.6124 167.11015 353.95557 167.11015C352.2987 167.11015 350.95557 165.767 350.95557 164.11015C350.95557 162.4533 352.2987 161.11015 353.95557 161.11015C355.6124 161.11015 356.95557 162.4533 356.95557 164.11015Z" fill-rule="nonzero"/><path fill="#000000" fill-opacity="0.0" clip-path="url(#id_0)" d="M629.3111 136.72998C629.3111 138.38683 627.96796 139.72998 626.3111 139.72998C624.65424 139.72998 623.3111 138.38683 623.3111 136.72998C623.3111 135.07312 624.65424 133.72998 626.3111 133.72998C627.96796 133.72998 629.3111 135.07312 629.3111 136.72998Z" fill-rule="nonzero"/><path fill="#000000" fill-opacity="0.0" clip-path="url(#id_0)" d="M118.64445 193.77888C118.64445 195.43575 117.3013 196.77888 115.64445 196.77888C113.98759 196.77888 112.64445 195.43575 112.64445 193.77888C112.64445 192.12204 113.98759 190.77888 115.64445 190.77888C117.3013 190.77888 118.64445 192.12204 118.64445 193.77888Z" fill-rule="nonzero"/><path fill="#000000" fill-opacity="0.0" clip-path="url(#id_0)" d="M152.68889 193.09656C152.68889 194.75342 151.34575 196.09656 149.68889 196.09656C148.03203 196.09656 146.68889 194.75342 146.68889 193.09656C146.68889 191.4397 148.03203 190.09656 149.68889 190.09656C151.34575 190.09656 152.68889 191.4397 152.68889 193.09656Z" fill-rule="nonzero"/><path fill="#000000" fill-opacity="0.0" clip-path="url(#id_0)" d="M220.77777 190.56726C220.77777 192.22412 219.43463 193.56726 217.77777 193.56726C216.12093 193.56726 214.77777 192.22412 214.77777 190.56726C214.77777 188.91042 216.12093 187.56726 217.77777 187.56726C219.43463 187.56726 220.77777 188.91042 220.77777 190.56726Z" fill-rule="nonzero"/><path fill="#000000" fill-opacity="0.0" clip-path="url(#id_0)" d="M356.95557 149.85493C356.95557 151.5118 355.6124 152.85493 353.95557 152.85493C352.2987 152.85493 350.95557 151.5118 350.95557 149.85493C350.95557 148.19809 352.2987 146.85493 353.95557 146.85493C355.6124 146.85493 356.95557 148.19809 356.95557 149.85493Z" fill-rule="nonzero"/><path fill="#000000" fill-opacity="0.0" clip-path="url(#id_0)" d="M629.3111 95.25085C629.3111 96.9077 627.96796 98.25085 626.3111 98.25085C624.65424 98.25085 623.3111 96.9077 623.3111 95.25085C623.3111 93.59399 624.65424 92.25085 626.3111 92.25085C627.96796 92.25085 629.3111 93.59399 629.3111 95.25085Z" fill-rule="nonzero"/><path fill="#000000" d="M320.09375 255.4L320.09375 245.38437L324.54688 245.38437Q325.89062 245.38437 326.57812 245.65Q327.28125 245.91562 327.6875 246.60312Q328.10938 247.29062 328.10938 248.11874Q328.10938 249.18124 327.42188 249.91562Q326.73438 250.63437 325.29688 250.8375Q325.8125 251.0875 326.09375 251.3375Q326.67188 251.86874 327.1875 252.66562L328.9375 255.4L327.26562 255.4L325.9375 253.32187Q325.35938 252.41562 324.98438 251.94687Q324.60938 251.4625 324.3125 251.275Q324.01562 251.07187 323.70312 250.99374Q323.48438 250.94687 322.96875 250.94687L321.42188 250.94687L321.42188 255.4L320.09375 255.4ZM321.42188 249.80624L324.28125 249.80624Q325.1875 249.80624 325.70312 249.61874Q326.21875 249.43124 326.48438 249.025Q326.75 248.60312 326.75 248.11874Q326.75 247.4 326.23438 246.94687Q325.71875 246.47812 324.59375 246.47812L321.42188 246.47812L321.42188 249.80624ZM334.89062 253.05624L336.17188 253.2125Q335.85938 254.3375 335.04688 254.9625Q334.23438 255.57187 332.96875 255.57187Q331.375 255.57187 330.4375 254.5875Q329.51562 253.60312 329.51562 251.8375Q329.51562 249.99374 330.45312 248.99374Q331.40625 247.97812 332.90625 247.97812Q334.35938 247.97812 335.28125 248.97812Q336.20312 249.9625 336.20312 251.75937Q336.20312 251.86874 336.20312 252.0875L330.78125 252.0875Q330.85938 253.275 331.45312 253.91562Q332.0625 254.55624 332.98438 254.55624Q333.65625 254.55624 334.125 254.19687Q334.60938 253.8375 334.89062 253.05624ZM330.85938 251.07187L334.90625 251.07187Q334.82812 250.15 334.4375 249.69687Q333.85938 248.99374 332.92188 248.99374Q332.0625 248.99374 331.48438 249.55624Q330.92188 250.11874 330.85938 251.07187ZM342.54688 258.18124L342.54688 254.63437Q342.26562 255.025 341.75 255.30624Q341.23438 255.57187 340.65625 255.57187Q339.35938 255.57187 338.42188 254.54062Q337.5 253.49374 337.5 251.69687Q337.5 250.60312 337.875 249.74374Q338.25 248.86874 338.96875 248.43124Q339.6875 247.97812 340.5625 247.97812Q341.90625 247.97812 342.67188 249.10312L342.67188 248.13437L343.78125 248.13437L343.78125 258.18124L342.54688 258.18124ZM338.75 251.74374Q338.75 253.15 339.34375 253.85312Q339.9375 254.55624 340.75 254.55624Q341.54688 254.55624 342.10938 253.88437Q342.67188 253.2125 342.67188 251.85312Q342.67188 250.41562 342.07812 249.68124Q341.48438 248.94687 340.67188 248.94687Q339.875 248.94687 339.3125 249.63437Q338.75 250.30624 338.75 251.74374ZM350.6875 255.4L350.6875 254.3375Q349.82812 255.57187 348.375 255.57187Q347.73438 255.57187 347.17188 255.32187Q346.625 255.07187 346.34375 254.69687Q346.07812 254.32187 345.96875 253.79062Q345.89062 253.43124 345.89062 252.63437L345.89062 248.13437L347.125 248.13437L347.125 252.16562Q347.125 253.13437 347.20312 253.4625Q347.3125 253.94687 347.6875 254.22812Q348.0625 254.50937 348.625 254.50937Q349.17188 254.50937 349.65625 254.22812Q350.14062 253.93124 350.34375 253.44687Q350.54688 252.9625 350.54688 252.025L350.54688 248.13437L351.78125 248.13437L351.78125 255.4L350.6875 255.4ZM358.89062 253.05624L360.17188 253.2125Q359.85938 254.3375 359.04688 254.9625Q358.23438 255.57187 356.96875 255.57187Q355.375 255.57187 354.4375 254.5875Q353.51562 253.60312 353.51562 251.8375Q353.51562 249.99374 354.45312 248.99374Q355.40625 247.97812 356.90625 247.97812Q358.35938 247.97812 359.28125 248.97812Q360.20312 249.9625 360.20312 251.75937Q360.20312 251.86874 360.20312 252.0875L354.78125 252.0875Q354.85938 253.275 355.45312 253.91562Q356.0625 254.55624 356.98438 254.55624Q357.65625 254.55624 358.125 254.19687Q358.60938 253.8375 358.89062 253.05624ZM354.85938 251.07187L358.90625 251.07187Q358.82812 250.15 358.4375 249.69687Q357.85938 248.99374 356.92188 248.99374Q356.0625 248.99374 355.48438 249.55624Q354.92188 250.11874 354.85938 251.07187ZM361.4375 253.22812L362.64062 253.04062Q362.75 253.775 363.21875 254.16562Q363.6875 254.55624 364.53125 254.55624Q365.375 254.55624 365.78125 254.2125Q366.20312 253.86874 366.20312 253.4Q366.20312 252.97812 365.82812 252.74374Q365.57812 252.57187 364.57812 252.32187Q363.21875 251.97812 362.6875 251.72812Q362.17188 251.47812 361.90625 251.04062Q361.64062 250.60312 361.64062 250.07187Q361.64062 249.5875 361.85938 249.18124Q362.07812 248.75937 362.46875 248.47812Q362.75 248.275 363.23438 248.13437Q363.73438 247.97812 364.3125 247.97812Q365.15625 247.97812 365.79688 248.22812Q366.45312 248.4625 366.76562 248.88437Q367.07812 249.30624 367.1875 250.00937L365.98438 250.18124Q365.90625 249.61874 365.5 249.30624Q365.10938 248.99374 364.39062 248.99374Q363.54688 248.99374 363.1875 249.275Q362.82812 249.54062 362.82812 249.93124Q362.82812 250.16562 362.96875 250.35312Q363.125 250.55624 363.45312 250.68124Q363.625 250.74374 364.53125 250.99374Q365.84375 251.35312 366.35938 251.57187Q366.875 251.79062 367.15625 252.2125Q367.45312 252.63437 367.45312 253.25937Q367.45312 253.88437 367.09375 254.43124Q366.75 254.9625 366.0625 255.275Q365.39062 255.57187 364.53125 255.57187Q363.125 255.57187 362.375 254.97812Q361.64062 254.38437 361.4375 253.22812ZM371.60938 254.30624L371.78125 255.38437Q371.26562 255.49374 370.85938 255.49374Q370.1875 255.49374 369.8125 255.29062Q369.45312 255.07187 369.29688 254.72812Q369.15625 254.38437 369.15625 253.275L369.15625 249.10312L368.25 249.10312L368.25 248.13437L369.15625 248.13437L369.15625 246.3375L370.375 245.60312L370.375 248.13437L371.60938 248.13437L371.60938 249.10312L370.375 249.10312L370.375 253.3375Q370.375 253.86874 370.4375 254.025Q370.5 254.16562 370.64062 254.25937Q370.79688 254.35312 371.0625 254.35312Q371.28125 254.35312 371.60938 254.30624ZM372.4375 253.22812L373.64062 253.04062Q373.75 253.775 374.21875 254.16562Q374.6875 254.55624 375.53125 254.55624Q376.375 254.55624 376.78125 254.2125Q377.20312 253.86874 377.20312 253.4Q377.20312 252.97812 376.82812 252.74374Q376.57812 252.57187 375.57812 252.32187Q374.21875 251.97812 373.6875 251.72812Q373.17188 251.47812 372.90625 251.04062Q372.64062 250.60312 372.64062 250.07187Q372.64062 249.5875 372.85938 249.18124Q373.07812 248.75937 373.46875 248.47812Q373.75 248.275 374.23438 248.13437Q374.73438 247.97812 375.3125 247.97812Q376.15625 247.97812 376.79688 248.22812Q377.45312 248.4625 377.76562 248.88437Q378.07812 249.30624 378.1875 250.00937L376.98438 250.18124Q376.90625 249.61874 376.5 249.30624Q376.10938 248.99374 375.39062 248.99374Q374.54688 248.99374 374.1875 249.275Q373.82812 249.54062 373.82812 249.93124Q373.82812 250.16562 373.96875 250.35312Q374.125 250.55624 374.45312 250.68124Q374.625 250.74374 375.53125 250.99374Q376.84375 251.35312 377.35938 251.57187Q377.875 251.79062 378.15625 252.2125Q378.45312 252.63437 378.45312 253.25937Q378.45312 253.88437 378.09375 254.43124Q377.75 254.9625 377.0625 255.275Q376.39062 255.57187 375.53125 255.57187Q374.125 255.57187 373.375 254.97812Q372.64062 254.38437 372.4375 253.22812ZM384.07812 255.4L384.07812 245.38437L387.85938 245.38437Q388.85938 245.38437 389.39062 245.47812Q390.125 245.60312 390.625 245.94687Q391.125 246.29062 391.42188 246.91562Q391.73438 247.525 391.73438 248.275Q391.73438 249.55624 390.92188 250.44687Q390.10938 251.32187 387.98438 251.32187L385.40625 251.32187L385.40625 255.4L384.07812 255.4ZM385.40625 250.15L388.0 250.15Q389.28125 250.15 389.8125 249.66562Q390.35938 249.18124 390.35938 248.32187Q390.35938 247.68124 390.04688 247.24374Q389.73438 246.79062 389.20312 246.65Q388.875 246.55624 387.96875 246.55624L385.40625 246.55624L385.40625 250.15ZM397.89062 253.05624L399.17188 253.2125Q398.85938 254.3375 398.04688 254.9625Q397.23438 255.57187 395.96875 255.57187Q394.375 255.57187 393.4375 254.5875Q392.51562 253.60312 392.51562 251.8375Q392.51562 249.99374 393.45312 248.99374Q394.40625 247.97812 395.90625 247.97812Q397.35938 247.97812 398.28125 248.97812Q399.20312 249.9625 399.20312 251.75937Q399.20312 251.86874 399.20312 252.0875L393.78125 252.0875Q393.85938 253.275 394.45312 253.91562Q395.0625 254.55624 395.98438 254.55624Q396.65625 254.55624 397.125 254.19687Q397.60938 253.8375 397.89062 253.05624ZM393.85938 251.07187L397.90625 251.07187Q397.82812 250.15 397.4375 249.69687Q396.85938 248.99374 395.92188 248.99374Q395.0625 248.99374 394.48438 249.55624Q393.92188 250.11874 393.85938 251.07187ZM400.90625 255.4L400.90625 248.13437L402.01562 248.13437L402.01562 249.24374Q402.4375 248.4625 402.79688 248.22812Q403.15625 247.97812 403.59375 247.97812Q404.21875 247.97812 404.85938 248.36874L404.4375 249.50937Q403.98438 249.24374 403.53125 249.24374Q403.125 249.24374 402.79688 249.49374Q402.48438 249.72812 402.34375 250.16562Q402.14062 250.82187 402.14062 251.60312L402.14062 255.4L400.90625 255.4ZM409.625 252.18124L410.875 252.07187Q410.96875 252.82187 411.29688 253.30624Q411.625 253.79062 412.29688 254.0875Q412.98438 254.38437 413.84375 254.38437Q414.59375 254.38437 415.17188 254.16562Q415.76562 253.93124 416.04688 253.54062Q416.32812 253.15 416.32812 252.68124Q416.32812 252.2125 416.04688 251.86874Q415.78125 251.50937 415.15625 251.25937Q414.75 251.10312 413.35938 250.775Q411.98438 250.44687 411.4375 250.15Q410.71875 249.775 410.35938 249.22812Q410.01562 248.66562 410.01562 247.9625Q410.01562 247.2125 410.4375 246.55624Q410.875 245.88437 411.70312 245.55624Q412.53125 245.2125 413.54688 245.2125Q414.65625 245.2125 415.5 245.57187Q416.35938 245.93124 416.8125 246.63437Q417.26562 247.32187 417.3125 248.19687L416.03125 248.29062Q415.9375 247.35312 415.34375 246.86874Q414.75 246.36874 413.59375 246.36874Q412.39062 246.36874 411.84375 246.82187Q411.29688 247.25937 411.29688 247.88437Q411.29688 248.41562 411.6875 248.775Q412.0625 249.11874 413.67188 249.49374Q415.29688 249.85312 415.89062 250.11874Q416.76562 250.525 417.1875 251.15Q417.60938 251.75937 417.60938 252.57187Q417.60938 253.36874 417.14062 254.0875Q416.6875 254.79062 415.82812 255.18124Q414.96875 255.57187 413.90625 255.57187Q412.54688 255.57187 411.625 255.18124Q410.70312 254.775 410.17188 253.97812Q409.65625 253.18124 409.625 252.18124ZM423.89062 253.05624L425.17188 253.2125Q424.85938 254.3375 424.04688 254.9625Q423.23438 255.57187 421.96875 255.57187Q420.375 255.57187 419.4375 254.5875Q418.51562 253.60312 418.51562 251.8375Q418.51562 249.99374 419.45312 248.99374Q420.40625 247.97812 421.90625 247.97812Q423.35938 247.97812 424.28125 248.97812Q425.20312 249.9625 425.20312 251.75937Q425.20312 251.86874 425.20312 252.0875L419.78125 252.0875Q419.85938 253.275 420.45312 253.91562Q421.0625 254.55624 421.98438 254.55624Q422.65625 254.55624 423.125 254.19687Q423.60938 253.8375 423.89062 253.05624ZM419.85938 251.07187L423.90625 251.07187Q423.82812 250.15 423.4375 249.69687Q422.85938 248.99374 421.92188 248.99374Q421.0625 248.99374 420.48438 249.55624Q419.92188 250.11874 419.85938 251.07187ZM431.65625 252.74374L432.875 252.9Q432.67188 254.15 431.84375 254.86874Q431.03125 255.57187 429.84375 255.57187Q428.35938 255.57187 427.45312 254.60312Q426.54688 253.61874 426.54688 251.79062Q426.54688 250.61874 426.9375 249.74374Q427.32812 248.85312 428.125 248.41562Q428.92188 247.97812 429.85938 247.97812Q431.03125 247.97812 431.78125 248.57187Q432.54688 249.16562 432.75 250.275L431.5625 250.4625Q431.39062 249.72812 430.95312 249.36874Q430.51562 248.99374 429.90625 248.99374Q428.96875 248.99374 428.39062 249.66562Q427.8125 250.32187 427.8125 251.75937Q427.8125 253.22812 428.375 253.9Q428.9375 254.55624 429.82812 254.55624Q430.5625 254.55624 431.04688 254.11874Q431.53125 253.66562 431.65625 252.74374ZM433.46875 251.775Q433.46875 249.75937 434.59375 248.775Q435.51562 247.97812 436.875 247.97812Q438.35938 247.97812 439.3125 248.9625Q440.26562 249.93124 440.26562 251.66562Q440.26562 253.07187 439.84375 253.88437Q439.42188 254.68124 438.60938 255.13437Q437.8125 255.57187 436.875 255.57187Q435.34375 255.57187 434.40625 254.5875Q433.46875 253.60312 433.46875 251.775ZM434.73438 251.775Q434.73438 253.16562 435.34375 253.86874Q435.95312 254.55624 436.875 254.55624Q437.78125 254.55624 438.39062 253.85312Q439.0 253.15 439.0 251.72812Q439.0 250.38437 438.39062 249.69687Q437.78125 248.99374 436.875 248.99374Q435.95312 248.99374 435.34375 249.68124Q434.73438 250.36874 434.73438 251.775ZM441.92188 255.4L441.92188 248.13437L443.03125 248.13437L443.03125 249.16562Q443.82812 247.97812 445.34375 247.97812Q446.0 247.97812 446.54688 248.2125Q447.09375 248.44687 447.35938 248.8375Q447.64062 249.2125 447.75 249.74374Q447.82812 250.0875 447.82812 250.93124L447.82812 255.4L446.59375 255.4L446.59375 250.97812Q446.59375 250.22812 446.45312 249.86874Q446.3125 249.49374 445.9375 249.275Q445.57812 249.04062 445.07812 249.04062Q444.29688 249.04062 443.71875 249.54062Q443.15625 250.04062 443.15625 251.43124L443.15625 255.4L441.92188 255.4ZM454.64062 255.4L454.64062 254.47812Q453.9375 255.57187 452.60938 255.57187Q451.73438 255.57187 451.0 255.0875Q450.28125 254.60312 449.875 253.74374Q449.48438 252.88437 449.48438 251.775Q449.48438 250.69687 449.84375 249.80624Q450.20312 248.91562 450.92188 248.44687Q451.65625 247.97812 452.54688 247.97812Q453.20312 247.97812 453.71875 248.25937Q454.23438 248.525 454.54688 248.97812L454.54688 245.38437L455.78125 245.38437L455.78125 255.4L454.64062 255.4ZM450.75 251.775Q450.75 253.16562 451.32812 253.86874Q451.92188 254.55624 452.71875 254.55624Q453.53125 254.55624 454.09375 253.9Q454.65625 253.22812 454.65625 251.88437Q454.65625 250.38437 454.07812 249.69687Q453.5 248.99374 452.67188 248.99374Q451.84375 248.99374 451.29688 249.66562Q450.75 250.3375 450.75 251.775Z" fill-rule="nonzero"/><path fill="#000000" d="M26.599995 204.51979L16.58437 204.51979L16.58437 202.53542L23.67812 200.16042Q24.662495 199.83229 25.162495 199.67604Q24.61562 199.50417 23.55312 199.14479L16.58437 196.75417L16.58437 194.95729L26.599995 194.95729L26.599995 196.23854L18.20937 196.23854L26.599995 199.16042L26.599995 200.34792L18.068745 203.25417L26.599995 203.25417L26.599995 204.51979ZM24.256245 188.67604L24.412495 187.39479Q25.537495 187.70729 26.162495 188.51979Q26.77187 189.33229 26.77187 190.59792Q26.77187 192.19167 25.787495 193.12917Q24.80312 194.05104 23.037495 194.05104Q21.193745 194.05104 20.193745 193.11354Q19.17812 192.16042 19.17812 190.66042Q19.17812 189.20729 20.17812 188.28542Q21.162495 187.36354 22.95937 187.36354Q23.068745 187.36354 23.287495 187.36354L23.287495 192.78542Q24.474995 192.70729 25.11562 192.11354Q25.756245 191.50417 25.756245 190.58229Q25.756245 189.91042 25.39687 189.44167Q25.037495 188.95729 24.256245 188.67604ZM22.27187 192.70729L22.27187 188.66042Q21.349995 188.73854 20.89687 189.12917Q20.193745 189.70729 20.193745 190.64479Q20.193745 191.50417 20.756245 192.08229Q21.318745 192.64479 22.27187 192.70729ZM26.599995 180.92604L25.67812 180.92604Q26.77187 181.62917 26.77187 182.95729Q26.77187 183.83229 26.287495 184.56667Q25.80312 185.28542 24.943745 185.69167Q24.08437 186.08229 22.974995 186.08229Q21.89687 186.08229 21.006245 185.72292Q20.11562 185.36354 19.64687 184.64479Q19.17812 183.91042 19.17812 183.01979Q19.17812 182.36354 19.45937 181.84792Q19.724995 181.33229 20.17812 181.01979L16.58437 181.01979L16.58437 179.78542L26.599995 179.78542L26.599995 180.92604ZM22.974995 184.81667Q24.36562 184.81667 25.068745 184.23854Q25.756245 183.64479 25.756245 182.84792Q25.756245 182.03542 25.099995 181.47292Q24.42812 180.91042 23.08437 180.91042Q21.58437 180.91042 20.89687 181.48854Q20.193745 182.06667 20.193745 182.89479Q20.193745 183.72292 20.86562 184.26979Q21.537495 184.81667 22.974995 184.81667ZM17.99062 177.62917L16.58437 177.62917L16.58437 176.41042L17.99062 176.41042L17.99062 177.62917ZM26.599995 177.62917L19.33437 177.62917L19.33437 176.41042L26.599995 176.41042L26.599995 177.62917ZM25.70937 169.91042Q26.287495 170.58229 26.537495 171.22292Q26.77187 171.84792 26.77187 172.58229Q26.77187 173.76979 26.193745 174.42604Q25.599995 175.06667 24.67812 175.06667Q24.14687 175.06667 23.70937 174.83229Q23.27187 174.58229 23.006245 174.19167Q22.74062 173.78542 22.599995 173.30104Q22.506245 172.94167 22.412495 172.20729Q22.24062 170.70729 21.99062 170.00417Q21.74062 170.00417 21.67812 170.00417Q20.912495 170.00417 20.61562 170.34792Q20.193745 170.81667 20.193745 171.75417Q20.193745 172.61354 20.506245 173.03542Q20.80312 173.44167 21.568745 173.64479L21.412495 174.84792Q20.631245 174.69167 20.162495 174.31667Q19.693745 173.92604 19.443745 173.22292Q19.17812 172.50417 19.17812 171.56667Q19.17812 170.64479 19.39687 170.06667Q19.61562 169.48854 19.943745 169.22292Q20.27187 168.94167 20.787495 168.83229Q21.099995 168.76979 21.912495 168.76979L23.55312 168.76979Q25.27187 168.76979 25.724995 168.69167Q26.17812 168.61354 26.599995 168.37917L26.599995 169.66042Q26.20937 169.84792 25.70937 169.91042ZM22.95937 170.00417Q23.224995 170.67604 23.42812 172.01979Q23.537495 172.76979 23.67812 173.09792Q23.80312 173.41042 24.068745 173.58229Q24.33437 173.75417 24.64687 173.75417Q25.14687 173.75417 25.474995 173.37917Q25.80312 173.00417 25.80312 172.28542Q25.80312 171.56667 25.49062 171.01979Q25.17812 170.47292 24.631245 170.20729Q24.224995 170.00417 23.412495 170.00417L22.95937 170.00417ZM26.599995 166.64479L19.33437 166.64479L19.33437 165.53542L20.36562 165.53542Q19.17812 164.73854 19.17812 163.22292Q19.17812 162.56667 19.412495 162.01979Q19.64687 161.47292 20.037495 161.20729Q20.412495 160.92604 20.943745 160.81667Q21.287495 160.73854 22.131245 160.73854L26.599995 160.73854L26.599995 161.97292L22.17812 161.97292Q21.42812 161.97292 21.068745 162.11354Q20.693745 162.25417 20.474995 162.62917Q20.24062 162.98854 20.24062 163.48854Q20.24062 164.26979 20.74062 164.84792Q21.24062 165.41042 22.631245 165.41042L26.599995 165.41042L26.599995 166.64479ZM26.599995 154.53542L16.58437 154.53542L16.58437 153.20729L25.412495 153.20729L25.412495 148.28542L26.599995 148.28542L26.599995 154.53542ZM25.70937 141.91042Q26.287495 142.58229 26.537495 143.22292Q26.77187 143.84792 26.77187 144.58229Q26.77187 145.76979 26.193745 146.42604Q25.599995 147.06667 24.67812 147.06667Q24.14687 147.06667 23.70937 146.83229Q23.27187 146.58229 23.006245 146.19167Q22.74062 145.78542 22.599995 145.30104Q22.506245 144.94167 22.412495 144.20729Q22.24062 142.70729 21.99062 142.00417Q21.74062 142.00417 21.67812 142.00417Q20.912495 142.00417 20.61562 142.34792Q20.193745 142.81667 20.193745 143.75417Q20.193745 144.61354 20.506245 145.03542Q20.80312 145.44167 21.568745 145.64479L21.412495 146.84792Q20.631245 146.69167 20.162495 146.31667Q19.693745 145.92604 19.443745 145.22292Q19.17812 144.50417 19.17812 143.56667Q19.17812 142.64479 19.39687 142.06667Q19.61562 141.48854 19.943745 141.22292Q20.27187 140.94167 20.787495 140.83229Q21.099995 140.76979 21.912495 140.76979L23.55312 140.76979Q25.27187 140.76979 25.724995 140.69167Q26.17812 140.61354 26.599995 140.37917L26.599995 141.66042Q26.20937 141.84792 25.70937 141.91042ZM22.95937 142.00417Q23.224995 142.67604 23.42812 144.01979Q23.537495 144.76979 23.67812 145.09792Q23.80312 145.41042 24.068745 145.58229Q24.33437 145.75417 24.64687 145.75417Q25.14687 145.75417 25.474995 145.37917Q25.80312 145.00417 25.80312 144.28542Q25.80312 143.56667 25.49062 143.01979Q25.17812 142.47292 24.631245 142.20729Q24.224995 142.00417 23.412495 142.00417L22.95937 142.00417ZM25.506245 135.95729L26.58437 135.78542Q26.693745 136.30104 26.693745 136.70729Q26.693745 137.37917 26.49062 137.75417Q26.27187 138.11354 25.92812 138.26979Q25.58437 138.41042 24.474995 138.41042L20.30312 138.41042L20.30312 139.31667L19.33437 139.31667L19.33437 138.41042L17.537495 138.41042L16.80312 137.19167L19.33437 137.19167L19.33437 135.95729L20.30312 135.95729L20.30312 137.19167L24.537495 137.19167Q25.068745 137.19167 25.224995 137.12917Q25.36562 137.06667 25.45937 136.92604Q25.55312 136.76979 25.55312 136.50417Q25.55312 136.28542 25.506245 135.95729ZM24.256245 129.67604L24.412495 128.39479Q25.537495 128.70729 26.162495 129.51979Q26.77187 130.33229 26.77187 131.59792Q26.77187 133.19167 25.787495 134.12917Q24.80312 135.05104 23.037495 135.05104Q21.193745 135.05104 20.193745 134.11354Q19.17812 133.16042 19.17812 131.66042Q19.17812 130.20729 20.17812 129.28542Q21.162495 128.36354 22.95937 128.36354Q23.068745 128.36354 23.287495 128.36354L23.287495 133.78542Q24.474995 133.70729 25.11562 133.11354Q25.756245 132.50417 25.756245 131.58229Q25.756245 130.91042 25.39687 130.44167Q25.037495 129.95729 24.256245 129.67604ZM22.27187 133.70729L22.27187 129.66042Q21.349995 129.73854 20.89687 130.12917Q20.193745 130.70729 20.193745 131.64479Q20.193745 132.50417 20.756245 133.08229Q21.318745 133.64479 22.27187 133.70729ZM26.599995 126.64479L19.33437 126.64479L19.33437 125.535416L20.36562 125.535416Q19.17812 124.73854 19.17812 123.222916Q19.17812 122.566666 19.412495 122.01979Q19.64687 121.472916 20.037495 121.20729Q20.412495 120.92604 20.943745 120.816666Q21.287495 120.73854 22.131245 120.73854L26.599995 120.73854L26.599995 121.972916L22.17812 121.972916Q21.42812 121.972916 21.068745 122.11354Q20.693745 122.254166 20.474995 122.629166Q20.24062 122.98854 20.24062 123.48854Q20.24062 124.26979 20.74062 124.847916Q21.24062 125.410416 22.631245 125.410416L26.599995 125.410416L26.599995 126.64479ZM23.943745 113.910416L24.099995 112.691666Q25.349995 112.89479 26.068745 113.722916Q26.77187 114.535416 26.77187 115.722916Q26.77187 117.20729 25.80312 118.11354Q24.818745 119.01979 22.99062 119.01979Q21.818745 119.01979 20.943745 118.629166Q20.05312 118.23854 19.61562 117.441666Q19.17812 116.64479 19.17812 115.70729Q19.17812 114.535416 19.77187 113.785416Q20.36562 113.01979 21.474995 112.816666L21.662495 114.004166Q20.92812 114.17604 20.568745 114.61354Q20.193745 115.05104 20.193745 115.660416Q20.193745 116.597916 20.86562 117.17604Q21.52187 117.754166 22.95937 117.754166Q24.42812 117.754166 25.099995 117.191666Q25.756245 116.629166 25.756245 115.73854Q25.756245 115.004166 25.318745 114.51979Q24.86562 114.035416 23.943745 113.910416ZM29.39687 111.691666L28.24062 111.83229Q28.349995 111.42604 28.349995 111.129166Q28.349995 110.722916 28.20937 110.472916Q28.08437 110.222916 27.83437 110.066666Q27.64687 109.95729 26.912495 109.691666Q26.818745 109.660416 26.61562 109.58229L19.33437 112.347916L19.33437 111.01979L23.537495 109.504166Q24.349995 109.20729 25.224995 108.972916Q24.381245 108.76979 23.568745 108.472916L19.33437 106.92604L19.33437 105.691666L26.724995 108.45729Q27.912495 108.89479 28.36562 109.14479Q28.974995 109.472916 29.256245 109.89479Q29.55312 110.316666 29.55312 110.910416Q29.55312 111.254166 29.39687 111.691666ZM29.55312 98.285416Q28.256245 99.316666 26.537495 100.01979Q24.818745 100.722916 22.974995 100.722916Q21.349995 100.722916 19.849995 100.191666Q18.11562 99.58229 16.412495 98.285416L16.412495 97.410416Q17.83437 98.23854 18.443745 98.504166Q19.381245 98.92604 20.412495 99.160416Q21.67812 99.45729 22.974995 99.45729Q26.27187 99.45729 29.55312 97.410416L29.55312 98.285416ZM24.42812 96.129166L24.24062 94.92604Q24.974995 94.816666 25.36562 94.347916Q25.756245 93.879166 25.756245 93.035416Q25.756245 92.191666 25.412495 91.785416Q25.068745 91.36354 24.599995 91.36354Q24.17812 91.36354 23.943745 91.73854Q23.77187 91.98854 23.52187 92.98854Q23.17812 94.347916 22.92812 94.879166Q22.67812 95.39479 22.24062 95.660416Q21.80312 95.92604 21.27187 95.92604Q20.787495 95.92604 20.381245 95.70729Q19.95937 95.48854 19.67812 95.097916Q19.474995 94.816666 19.33437 94.33229Q19.17812 93.83229 19.17812 93.254166Q19.17812 92.410416 19.42812 91.76979Q19.662495 91.11354 20.08437 90.80104Q20.506245 90.48854 21.20937 90.379166L21.381245 91.58229Q20.818745 91.660416 20.506245 92.066666Q20.193745 92.45729 20.193745 93.17604Q20.193745 94.01979 20.474995 94.379166Q20.74062 94.73854 21.131245 94.73854Q21.36562 94.73854 21.55312 94.597916Q21.756245 94.441666 21.881245 94.11354Q21.943745 93.941666 22.193745 93.035416Q22.55312 91.722916 22.77187 91.20729Q22.99062 90.691666 23.412495 90.410416Q23.83437 90.11354 24.45937 90.11354Q25.08437 90.11354 25.631245 90.472916Q26.162495 90.816666 26.474995 91.504166Q26.77187 92.17604 26.77187 93.035416Q26.77187 94.441666 26.17812 95.191666Q25.58437 95.92604 24.42812 96.129166ZM29.55312 87.83229L29.55312 88.722916Q26.27187 86.67604 22.974995 86.67604Q21.693745 86.67604 20.42812 86.972916Q19.39687 87.20729 18.45937 87.61354Q17.849995 87.879166 16.412495 88.722916L16.412495 87.83229Q18.11562 86.55104 19.849995 85.941666Q21.349995 85.410416 22.974995 85.410416Q24.818745 85.410416 26.537495 86.129166Q28.256245 86.83229 29.55312 87.83229Z" fill-rule="nonzero"/><path fill="#000000" d="M67.17812 198.4625Q67.17812 196.68124 67.5375 195.60312Q67.9125 194.50937 68.63125 193.93124Q69.35 193.3375 70.44375 193.3375Q71.25625 193.3375 71.86562 193.66562Q72.475 193.99374 72.86562 194.60312Q73.27187 195.2125 73.49062 196.0875Q73.70937 196.9625 73.70937 198.4625Q73.70937 200.22812 73.35 201.30624Q72.99062 202.38437 72.27187 202.97812Q71.55312 203.57187 70.44375 203.57187Q69.00625 203.57187 68.17812 202.525Q67.17812 201.275 67.17812 198.4625ZM68.44375 198.4625Q68.44375 200.93124 69.02187 201.74374Q69.6 202.55624 70.44375 202.55624Q71.30312 202.55624 71.88125 201.74374Q72.45937 200.91562 72.45937 198.4625Q72.45937 195.97812 71.88125 195.16562Q71.30312 194.35312 70.42812 194.35312Q69.58437 194.35312 69.08437 195.07187Q68.44375 195.99374 68.44375 198.4625Z" fill-rule="nonzero"/><path fill="#000000" d="M55.81875 172.98334L54.584373 172.98334L54.584373 165.13959Q54.146873 165.56146 53.4125 165.99896Q52.69375 166.42084 52.13125 166.62396L52.13125 165.43646Q53.1625 164.95209 53.928123 164.26459Q54.709373 163.57709 55.021873 162.92084L55.81875 162.92084L55.81875 172.98334ZM59.178123 168.04584Q59.178123 166.26459 59.5375 165.18646Q59.9125 164.09271 60.63125 163.51459Q61.35 162.92084 62.44375 162.92084Q63.25625 162.92084 63.865623 163.24896Q64.475 163.57709 64.86562 164.18646Q65.27187 164.79584 65.49062 165.67084Q65.70937 166.54584 65.70937 168.04584Q65.70937 169.81146 65.35 170.88959Q64.99062 171.96771 64.27187 172.56146Q63.553123 173.15521 62.44375 173.15521Q61.00625 173.15521 60.178123 172.10834Q59.178123 170.85834 59.178123 168.04584ZM60.44375 168.04584Q60.44375 170.51459 61.021873 171.32709Q61.6 172.13959 62.44375 172.13959Q63.303123 172.13959 63.88125 171.32709Q64.45937 170.49896 64.45937 168.04584Q64.45937 165.56146 63.88125 164.74896Q63.303123 163.93646 62.428123 163.93646Q61.584373 163.93646 61.084373 164.65521Q60.44375 165.57709 60.44375 168.04584ZM67.17812 168.04584Q67.17812 166.26459 67.5375 165.18646Q67.9125 164.09271 68.63125 163.51459Q69.35 162.92084 70.44375 162.92084Q71.25625 162.92084 71.86562 163.24896Q72.475 163.57709 72.86562 164.18646Q73.27187 164.79584 73.49062 165.67084Q73.70937 166.54584 73.70937 168.04584Q73.70937 169.81146 73.35 170.88959Q72.99062 171.96771 72.27187 172.56146Q71.55312 173.15521 70.44375 173.15521Q69.00625 173.15521 68.17812 172.10834Q67.17812 170.85834 67.17812 168.04584ZM68.44375 168.04584Q68.44375 170.51459 69.02187 171.32709Q69.6 172.13959 70.44375 172.13959Q71.30312 172.13959 71.88125 171.32709Q72.45937 170.49896 72.45937 168.04584Q72.45937 165.56146 71.88125 164.74896Q71.30312 163.93646 70.42812 163.93646Q69.58437 163.93646 69.08437 164.65521Q68.44375 165.57709 68.44375 168.04584Z" fill-rule="nonzero"/><path fill="#000000" d="M57.646873 141.37917L57.646873 142.56667L51.021873 142.56667Q51.00625 142.12917 51.1625 141.70729Q51.428123 141.03542 51.975 140.37917Q52.5375 139.72292 53.584373 138.86354Q55.225 137.51979 55.7875 136.73854Q56.365623 135.95729 56.365623 135.25417Q56.365623 134.51979 55.834373 134.01979Q55.31875 133.51979 54.490623 133.51979Q53.6 133.51979 53.053123 134.05104Q52.521873 134.58229 52.521873 135.53542L51.25625 135.39479Q51.38125 133.98854 52.225 133.25417Q53.084373 132.50417 54.50625 132.50417Q55.959373 132.50417 56.7875 133.30104Q57.63125 134.09792 57.63125 135.28542Q57.63125 135.89479 57.38125 136.47292Q57.146873 137.05104 56.56875 137.69167Q56.00625 138.33229 54.678123 139.45729Q53.56875 140.37917 53.25625 140.72292Q52.94375 141.05104 52.740623 141.37917L57.646873 141.37917ZM59.178123 137.62917Q59.178123 135.84792 59.5375 134.76979Q59.9125 133.67604 60.63125 133.09792Q61.35 132.50417 62.44375 132.50417Q63.25625 132.50417 63.865623 132.83229Q64.475 133.16042 64.86562 133.76979Q65.27187 134.37917 65.49062 135.25417Q65.70937 136.12917 65.70937 137.62917Q65.70937 139.39479 65.35 140.47292Q64.99062 141.55104 64.27187 142.14479Q63.553123 142.73854 62.44375 142.73854Q61.00625 142.73854 60.178123 141.69167Q59.178123 140.44167 59.178123 137.62917ZM60.44375 137.62917Q60.44375 140.09792 61.021873 140.91042Q61.6 141.72292 62.44375 141.72292Q63.303123 141.72292 63.88125 140.91042Q64.45937 140.08229 64.45937 137.62917Q64.45937 135.14479 63.88125 134.33229Q63.303123 133.51979 62.428123 133.51979Q61.584373 133.51979 61.084373 134.23854Q60.44375 135.16042 60.44375 137.62917ZM67.17812 137.62917Q67.17812 135.84792 67.5375 134.76979Q67.9125 133.67604 68.63125 133.09792Q69.35 132.50417 70.44375 132.50417Q71.25625 132.50417 71.86562 132.83229Q72.475 133.16042 72.86562 133.76979Q73.27187 134.37917 73.49062 135.25417Q73.70937 136.12917 73.70937 137.62917Q73.70937 139.39479 73.35 140.47292Q72.99062 141.55104 72.27187 142.14479Q71.55312 142.73854 70.44375 142.73854Q69.00625 142.73854 68.17812 141.69167Q67.17812 140.44167 67.17812 137.62917ZM68.44375 137.62917Q68.44375 140.09792 69.02187 140.91042Q69.6 141.72292 70.44375 141.72292Q71.30312 141.72292 71.88125 140.91042Q72.45937 140.08229 72.45937 137.62917Q72.45937 135.14479 71.88125 134.33229Q71.30312 133.51979 70.42812 133.51979Q69.58437 133.51979 69.08437 134.23854Q68.44375 135.16042 68.44375 137.62917Z" fill-rule="nonzero"/><path fill="#000000" d="M51.19375 109.50938L52.4125 109.3375Q52.63125 110.38438 53.13125 110.85313Q53.646873 111.30625 54.38125 111.30625Q55.25625 111.30625 55.85 110.7125Q56.44375 110.10313 56.44375 109.2125Q56.44375 108.36875 55.88125 107.82188Q55.334373 107.275 54.490623 107.275Q54.13125 107.275 53.615623 107.4L53.75625 106.32188Q53.88125 106.3375 53.94375 106.3375Q54.740623 106.3375 55.365623 105.93125Q55.990623 105.525 55.990623 104.66563Q55.990623 103.99375 55.5375 103.55625Q55.084373 103.10313 54.35 103.10313Q53.63125 103.10313 53.146873 103.55625Q52.678123 103.99375 52.5375 104.9L51.31875 104.68125Q51.5375 103.44688 52.334373 102.775Q53.13125 102.0875 54.31875 102.0875Q55.146873 102.0875 55.834373 102.44688Q56.521873 102.79063 56.88125 103.4Q57.25625 104.00938 57.25625 104.69688Q57.25625 105.3375 56.9125 105.86875Q56.56875 106.4 55.88125 106.72813Q56.771873 106.93125 57.25625 107.57188Q57.75625 108.2125 57.75625 109.19688Q57.75625 110.50938 56.7875 111.41563Q55.834373 112.32188 54.38125 112.32188Q53.053123 112.32188 52.178123 111.54063Q51.31875 110.75938 51.19375 109.50938ZM59.178123 107.2125Q59.178123 105.43125 59.5375 104.35313Q59.9125 103.25938 60.63125 102.68125Q61.35 102.0875 62.44375 102.0875Q63.25625 102.0875 63.865623 102.41563Q64.475 102.74375 64.86562 103.35313Q65.27187 103.9625 65.49062 104.8375Q65.70937 105.7125 65.70937 107.2125Q65.70937 108.97813 65.35 110.05625Q64.99062 111.13438 64.27187 111.72813Q63.553123 112.32188 62.44375 112.32188Q61.00625 112.32188 60.178123 111.275Q59.178123 110.025 59.178123 107.2125ZM60.44375 107.2125Q60.44375 109.68125 61.021873 110.49375Q61.6 111.30625 62.44375 111.30625Q63.303123 111.30625 63.88125 110.49375Q64.45937 109.66563 64.45937 107.2125Q64.45937 104.72813 63.88125 103.91563Q63.303123 103.10313 62.428123 103.10313Q61.584373 103.10313 61.084373 103.82188Q60.44375 104.74375 60.44375 107.2125ZM67.17812 107.2125Q67.17812 105.43125 67.5375 104.35313Q67.9125 103.25938 68.63125 102.68125Q69.35 102.0875 70.44375 102.0875Q71.25625 102.0875 71.86562 102.41563Q72.475 102.74375 72.86562 103.35313Q73.27187 103.9625 73.49062 104.8375Q73.70937 105.7125 73.70937 107.2125Q73.70937 108.97813 73.35 110.05625Q72.99062 111.13438 72.27187 111.72813Q71.55312 112.32188 70.44375 112.32188Q69.00625 112.32188 68.17812 111.275Q67.17812 110.025 67.17812 107.2125ZM68.44375 107.2125Q68.44375 109.68125 69.02187 110.49375Q69.6 111.30625 70.44375 111.30625Q71.30312 111.30625 71.88125 110.49375Q72.45937 109.66563 72.45937 107.2125Q72.45937 104.72813 71.88125 103.91563Q71.30312 103.10313 70.42812 103.10313Q69.58437 103.10313 69.08437 103.82188Q68.44375 104.74375 68.44375 107.2125Z" fill-rule="nonzero"/><path fill="#000000" d="M55.13125 81.73333L55.13125 79.32708L50.771873 79.32708L50.771873 78.20208L55.35 71.717705L56.35 71.717705L56.35 78.20208L57.709373 78.20208L57.709373 79.32708L56.35 79.32708L56.35 81.73333L55.13125 81.73333ZM55.13125 78.20208L55.13125 73.686455L51.990623 78.20208L55.13125 78.20208ZM59.178123 76.79583Q59.178123 75.01458 59.5375 73.936455Q59.9125 72.842705 60.63125 72.26458Q61.35 71.67083 62.44375 71.67083Q63.25625 71.67083 63.865623 71.998955Q64.475 72.32708 64.86562 72.936455Q65.27187 73.54583 65.49062 74.42083Q65.70937 75.29583 65.70937 76.79583Q65.70937 78.561455 65.35 79.63958Q64.99062 80.717705 64.27187 81.311455Q63.553123 81.905205 62.44375 81.905205Q61.00625 81.905205 60.178123 80.85833Q59.178123 79.60833 59.178123 76.79583ZM60.44375 76.79583Q60.44375 79.26458 61.021873 80.07708Q61.6 80.88958 62.44375 80.88958Q63.303123 80.88958 63.88125 80.07708Q64.45937 79.248955 64.45937 76.79583Q64.45937 74.311455 63.88125 73.498955Q63.303123 72.686455 62.428123 72.686455Q61.584373 72.686455 61.084373 73.405205Q60.44375 74.32708 60.44375 76.79583ZM67.17812 76.79583Q67.17812 75.01458 67.5375 73.936455Q67.9125 72.842705 68.63125 72.26458Q69.35 71.67083 70.44375 71.67083Q71.25625 71.67083 71.86562 71.998955Q72.475 72.32708 72.86562 72.936455Q73.27187 73.54583 73.49062 74.42083Q73.70937 75.29583 73.70937 76.79583Q73.70937 78.561455 73.35 79.63958Q72.99062 80.717705 72.27187 81.311455Q71.55312 81.905205 70.44375 81.905205Q69.00625 81.905205 68.17812 80.85833Q67.17812 79.60833 67.17812 76.79583ZM68.44375 76.79583Q68.44375 79.26458 69.02187 80.07708Q69.6 80.88958 70.44375 80.88958Q71.30312 80.88958 71.88125 80.07708Q72.45937 79.248955 72.45937 76.79583Q72.45937 74.311455 71.88125 73.498955Q71.30312 72.686455 70.42812 72.686455Q69.58437 72.686455 69.08437 73.405205Q68.44375 74.32708 68.44375 76.79583Z" fill-rule="nonzero"/><path fill="#000000" d="M78.17812 213.4625Q78.17812 211.68124 78.5375 210.60312Q78.9125 209.50937 79.63125 208.93124Q80.35 208.3375 81.44375 208.3375Q82.25625 208.3375 82.86562 208.66562Q83.475 208.99374 83.86562 209.60312Q84.27187 210.2125 84.49062 211.0875Q84.70937 211.9625 84.70937 213.4625Q84.70937 215.22812 84.35 216.30624Q83.99062 217.38437 83.27187 217.97812Q82.55312 218.57187 81.44375 218.57187Q80.00625 218.57187 79.17812 217.525Q78.17812 216.275 78.17812 213.4625ZM79.44375 213.4625Q79.44375 215.93124 80.02187 216.74374Q80.6 217.55624 81.44375 217.55624Q82.30312 217.55624 82.88125 216.74374Q83.45937 215.91562 83.45937 213.4625Q83.45937 210.97812 82.88125 210.16562Q82.30312 209.35312 81.42812 209.35312Q80.58437 209.35312 80.08437 210.07187Q79.44375 210.99374 79.44375 213.4625Z" fill-rule="nonzero"/><path fill="#000000" d="M152.73576 217.2125L152.73576 218.4L146.11076 218.4Q146.09514 217.9625 146.25139 217.54062Q146.51701 216.86874 147.06389 216.2125Q147.62639 215.55624 148.67326 214.69687Q150.31389 213.35312 150.87639 212.57187Q151.45451 211.79062 151.45451 211.0875Q151.45451 210.35312 150.92326 209.85312Q150.40764 209.35312 149.57951 209.35312Q148.68889 209.35312 148.14201 209.88437Q147.61076 210.41562 147.61076 211.36874L146.34514 211.22812Q146.47014 209.82187 147.31389 209.0875Q148.17326 208.3375 149.59514 208.3375Q151.04826 208.3375 151.87639 209.13437Q152.72014 209.93124 152.72014 211.11874Q152.72014 211.72812 152.47014 212.30624Q152.23576 212.88437 151.65764 213.525Q151.09514 214.16562 149.76701 215.29062Q148.65764 216.2125 148.34514 216.55624Q148.03264 216.88437 147.82951 217.2125L152.73576 217.2125Z" fill-rule="nonzero"/><path fill="#000000" d="M218.30902 218.4L218.30902 215.99374L213.94965 215.99374L213.94965 214.86874L218.52777 208.38437L219.52777 208.38437L219.52777 214.86874L220.88715 214.86874L220.88715 215.99374L219.52777 215.99374L219.52777 218.4L218.30902 218.4ZM218.30902 214.86874L218.30902 210.35312L215.1684 214.86874L218.30902 214.86874Z" fill-rule="nonzero"/><path fill="#000000" d="M288.83542 210.8375L287.61667 210.93124Q287.4448 210.19687 287.14792 209.86874Q286.64792 209.35312 285.91354 209.35312Q285.3198 209.35312 284.8823 209.68124Q284.30417 210.10312 283.96042 210.91562Q283.6323 211.72812 283.61667 213.22812Q284.05417 212.55624 284.6948 212.22812Q285.35104 211.9 286.05417 211.9Q287.28854 211.9 288.14792 212.80624Q289.0073 213.7125 289.0073 215.15Q289.0073 216.0875 288.60104 216.9Q288.1948 217.7125 287.47604 218.15Q286.77292 218.57187 285.86667 218.57187Q284.33542 218.57187 283.36667 217.44687Q282.39792 216.30624 282.39792 213.7125Q282.39792 210.80624 283.46042 209.47812Q284.39792 208.3375 285.99167 208.3375Q287.17917 208.3375 287.92917 209.00937Q288.67917 209.66562 288.83542 210.8375ZM283.80417 215.15Q283.80417 215.79062 284.0698 216.36874Q284.35104 216.94687 284.83542 217.25937Q285.3198 217.55624 285.85104 217.55624Q286.6323 217.55624 287.1948 216.93124Q287.7573 216.30624 287.7573 215.22812Q287.7573 214.18124 287.1948 213.5875Q286.64792 212.97812 285.80417 212.97812Q284.97604 212.97812 284.3823 213.5875Q283.80417 214.18124 283.80417 215.15Z" fill-rule="nonzero"/><path fill="#000000" d="M352.42432 212.9625Q351.6587 212.68124 351.2837 212.16562Q350.92432 211.65 350.92432 210.91562Q350.92432 209.82187 351.70557 209.0875Q352.50244 208.3375 353.79932 208.3375Q355.11182 208.3375 355.9087 209.10312Q356.7212 209.86874 356.7212 210.9625Q356.7212 211.65 356.3462 212.16562Q355.98682 212.68124 355.23682 212.9625Q356.1587 213.25937 356.64307 213.93124Q357.12744 214.60312 357.12744 215.54062Q357.12744 216.82187 356.2212 217.69687Q355.31494 218.57187 353.83057 218.57187Q352.3462 218.57187 351.42432 217.69687Q350.51807 216.80624 350.51807 215.49374Q350.51807 214.525 351.01807 213.86874Q351.51807 213.19687 352.42432 212.9625ZM352.18994 210.88437Q352.18994 211.5875 352.64307 212.04062Q353.0962 212.49374 353.83057 212.49374Q354.54932 212.49374 355.00244 212.05624Q355.45557 211.60312 355.45557 210.94687Q355.45557 210.275 354.98682 209.82187Q354.51807 209.35312 353.81494 209.35312Q353.11182 209.35312 352.64307 209.80624Q352.18994 210.24374 352.18994 210.88437ZM351.7837 215.50937Q351.7837 216.04062 352.0337 216.54062Q352.2837 217.025 352.76807 217.29062Q353.26807 217.55624 353.8462 217.55624Q354.7212 217.55624 355.2837 216.99374Q355.86182 216.43124 355.86182 215.55624Q355.86182 214.66562 355.26807 214.0875Q354.68994 213.49374 353.79932 213.49374Q352.92432 213.49374 352.3462 214.07187Q351.7837 214.65 351.7837 215.50937Z" fill-rule="nonzero"/><path fill="#000000" d="M419.26318 218.4L418.0288 218.4L418.0288 210.55624Q417.5913 210.97812 416.85693 211.41562Q416.13818 211.8375 415.57568 212.04062L415.57568 210.85312Q416.60693 210.36874 417.37256 209.68124Q418.1538 208.99374 418.4663 208.3375L419.26318 208.3375L419.26318 218.4ZM422.62256 213.4625Q422.62256 211.68124 422.98193 210.60312Q423.35693 209.50937 424.07568 208.93124Q424.79443 208.3375 425.88818 208.3375Q426.70068 208.3375 427.31006 208.66562Q427.91943 208.99374 428.31006 209.60312Q428.7163 210.2125 428.93506 211.0875Q429.1538 211.9625 429.1538 213.4625Q429.1538 215.22812 428.79443 216.30624Q428.43506 217.38437 427.7163 217.97812Q426.99756 218.57187 425.88818 218.57187Q424.45068 218.57187 423.62256 217.525Q422.62256 216.275 422.62256 213.4625ZM423.88818 213.4625Q423.88818 215.93124 424.4663 216.74374Q425.04443 217.55624 425.88818 217.55624Q426.74756 217.55624 427.32568 216.74374Q427.9038 215.91562 427.9038 213.4625Q427.9038 210.97812 427.32568 210.16562Q426.74756 209.35312 425.87256 209.35312Q425.0288 209.35312 424.5288 210.07187Q423.88818 210.99374 423.88818 213.4625Z" fill-rule="nonzero"/><path fill="#000000" d="M487.35208 218.4L486.1177 218.4L486.1177 210.55624Q485.6802 210.97812 484.94583 211.41562Q484.22708 211.8375 483.66458 212.04062L483.66458 210.85312Q484.69583 210.36874 485.46146 209.68124Q486.2427 208.99374 486.5552 208.3375L487.35208 208.3375L487.35208 218.4ZM497.1802 217.2125L497.1802 218.4L490.5552 218.4Q490.53958 217.9625 490.69583 217.54062Q490.96146 216.86874 491.50833 216.2125Q492.07083 215.55624 493.1177 214.69687Q494.75833 213.35312 495.32083 212.57187Q495.89896 211.79062 495.89896 211.0875Q495.89896 210.35312 495.3677 209.85312Q494.85208 209.35312 494.02396 209.35312Q493.13333 209.35312 492.58646 209.88437Q492.0552 210.41562 492.0552 211.36874L490.78958 211.22812Q490.91458 209.82187 491.75833 209.0875Q492.6177 208.3375 494.03958 208.3375Q495.4927 208.3375 496.32083 209.13437Q497.16458 209.93124 497.16458 211.11874Q497.16458 211.72812 496.91458 212.30624Q496.6802 212.88437 496.10208 213.525Q495.53958 214.16562 494.21146 215.29062Q493.10208 216.2125 492.78958 216.55624Q492.47708 216.88437 492.27396 217.2125L497.1802 217.2125Z" fill-rule="nonzero"/><path fill="#000000" d="M555.441 218.4L554.2066 218.4L554.2066 210.55624Q553.7691 210.97812 553.0347 211.41562Q552.316 211.8375 551.7535 212.04062L551.7535 210.85312Q552.7847 210.36874 553.55035 209.68124Q554.3316 208.99374 554.6441 208.3375L555.441 208.3375L555.441 218.4ZM562.7535 218.4L562.7535 215.99374L558.3941 215.99374L558.3941 214.86874L562.9722 208.38437L563.9722 208.38437L563.9722 214.86874L565.3316 214.86874L565.3316 215.99374L563.9722 215.99374L563.9722 218.4L562.7535 218.4ZM562.7535 214.86874L562.7535 210.35312L559.61285 214.86874L562.7535 214.86874Z" fill-rule="nonzero"/><path fill="#000000" d="M623.52985 218.4L622.2955 218.4L622.2955 210.55624Q621.858 210.97812 621.1236 211.41562Q620.40485 211.8375 619.84235 212.04062L619.84235 210.85312Q620.8736 210.36874 621.6392 209.68124Q622.4205 208.99374 622.733 208.3375L623.52985 208.3375L623.52985 218.4ZM633.27985 210.8375L632.0611 210.93124Q631.8892 210.19687 631.59235 209.86874Q631.09235 209.35312 630.358 209.35312Q629.7642 209.35312 629.3267 209.68124Q628.7486 210.10312 628.40485 210.91562Q628.0767 211.72812 628.0611 213.22812Q628.4986 212.55624 629.1392 212.22812Q629.7955 211.9 630.4986 211.9Q631.733 211.9 632.59235 212.80624Q633.4517 213.7125 633.4517 215.15Q633.4517 216.0875 633.0455 216.9Q632.6392 217.7125 631.9205 218.15Q631.21735 218.57187 630.3111 218.57187Q628.77985 218.57187 627.8111 217.44687Q626.84235 216.30624 626.84235 213.7125Q626.84235 210.80624 627.90485 209.47812Q628.84235 208.3375 630.4361 208.3375Q631.6236 208.3375 632.3736 209.00937Q633.1236 209.66562 633.27985 210.8375ZM628.2486 215.15Q628.2486 215.79062 628.5142 216.36874Q628.7955 216.94687 629.27985 217.25937Q629.7642 217.55624 630.2955 217.55624Q631.0767 217.55624 631.6392 216.93124Q632.2017 216.30624 632.2017 215.22812Q632.2017 214.18124 631.6392 213.5875Q631.09235 212.97812 630.2486 212.97812Q629.4205 212.97812 628.8267 213.5875Q628.2486 214.18124 628.2486 215.15Z" fill-rule="nonzero"/><path fill="#000000" d="M691.6188 218.4L690.3844 218.4L690.3844 210.55624Q689.9469 210.97812 689.2125 211.41562Q688.4938 211.8375 687.9313 212.04062L687.9313 210.85312Q688.9625 210.36874 689.72815 209.68124Q690.5094 208.99374 690.8219 208.3375L691.6188 208.3375L691.6188 218.4ZM696.8688 212.9625Q696.10315 212.68124 695.72815 212.16562Q695.3688 211.65 695.3688 210.91562Q695.3688 209.82187 696.15 209.0875Q696.9469 208.3375 698.2438 208.3375Q699.5563 208.3375 700.35315 209.10312Q701.16565 209.86874 701.16565 210.9625Q701.16565 211.65 700.79065 212.16562Q700.4313 212.68124 699.6813 212.9625Q700.60315 213.25937 701.0875 213.93124Q701.5719 214.60312 701.5719 215.54062Q701.5719 216.82187 700.66565 217.69687Q699.7594 218.57187 698.275 218.57187Q696.79065 218.57187 695.8688 217.69687Q694.9625 216.80624 694.9625 215.49374Q694.9625 214.525 695.4625 213.86874Q695.9625 213.19687 696.8688 212.9625ZM696.6344 210.88437Q696.6344 211.5875 697.0875 212.04062Q697.54065 212.49374 698.275 212.49374Q698.9938 212.49374 699.4469 212.05624Q699.9 211.60312 699.9 210.94687Q699.9 210.275 699.4313 209.82187Q698.9625 209.35312 698.2594 209.35312Q697.5563 209.35312 697.0875 209.80624Q696.6344 210.24374 696.6344 210.88437ZM696.22815 215.50937Q696.22815 216.04062 696.47815 216.54062Q696.72815 217.025 697.2125 217.29062Q697.7125 217.55624 698.29065 217.55624Q699.16565 217.55624 699.72815 216.99374Q700.3063 216.43124 700.3063 215.55624Q700.3063 214.66562 699.7125 214.0875Q699.1344 213.49374 698.2438 213.49374Q697.3688 213.49374 696.79065 214.07187Q696.22815 214.65 696.22815 215.50937Z" fill-rule="nonzero"/><path stroke="#30a2ff" stroke-width="4.0" stroke-linecap="butt" d="M217.0 51.666668L229.0 51.666668" fill-rule="nonzero"/><path fill="#1a1a1a" d="M239.9375 56.666668L237.17188 49.401043L238.48438 49.401043L240.03125 53.760418Q240.28125 54.463543 240.5 55.213543Q240.67188 54.635418 240.95312 53.838543L242.57812 49.401043L243.84375 49.401043L241.09375 56.666668L239.9375 56.666668ZM245.03125 56.666668L245.03125 46.651043L246.35938 46.651043L246.35938 55.479168L251.28125 55.479168L251.28125 56.666668L245.03125 56.666668ZM253.03125 56.666668L253.03125 46.651043L254.35938 46.651043L254.35938 55.479168L259.28125 55.479168L259.28125 56.666668L253.03125 56.666668ZM261.04688 56.666668L261.04688 46.651043L263.03125 46.651043L265.40625 53.744793Q265.73438 54.729168 265.89062 55.229168Q266.0625 54.682293 266.42188 53.619793L268.8125 46.651043L270.60938 46.651043L270.60938 56.666668L269.32812 56.666668L269.32812 48.276043L266.40625 56.666668L265.21875 56.666668L262.3125 48.135418L262.3125 56.666668L261.04688 56.666668Z" fill-rule="nonzero"/><path stroke="#6aa84f" stroke-width="4.0" stroke-linecap="butt" d="M287.0 51.666668L299.0 51.666668" fill-rule="nonzero"/><path fill="#1a1a1a" d="M310.625 56.666668L310.625 47.822918L307.32812 47.822918L307.32812 46.651043L315.26562 46.651043L315.26562 47.822918L311.95312 47.822918L311.95312 56.666668L310.625 56.666668ZM321.89062 54.322918L323.17188 54.479168Q322.85938 55.604168 322.04688 56.229168Q321.23438 56.838543 319.96875 56.838543Q318.375 56.838543 317.4375 55.854168Q316.51562 54.869793 316.51562 53.104168Q316.51562 51.260418 317.45312 50.260418Q318.40625 49.244793 319.90625 49.244793Q321.35938 49.244793 322.28125 50.244793Q323.20312 51.229168 323.20312 53.026043Q323.20312 53.135418 323.20312 53.354168L317.78125 53.354168Q317.85938 54.541668 318.45312 55.182293Q319.0625 55.822918 319.98438 55.822918Q320.65625 55.822918 321.125 55.463543Q321.60938 55.104168 321.89062 54.322918ZM317.85938 52.338543L321.90625 52.338543Q321.82812 51.416668 321.4375 50.963543Q320.85938 50.260418 319.92188 50.260418Q319.0625 50.260418 318.48438 50.822918Q317.92188 51.385418 317.85938 52.338543ZM324.92188 56.666668L324.92188 49.401043L326.03125 49.401043L326.03125 50.432293Q326.82812 49.244793 328.34375 49.244793Q329.0 49.244793 329.54688 49.479168Q330.09375 49.713543 330.35938 50.104168Q330.64062 50.479168 330.75 51.010418Q330.82812 51.354168 330.82812 52.197918L330.82812 56.666668L329.59375 56.666668L329.59375 52.244793Q329.59375 51.494793 329.45312 51.135418Q329.3125 50.760418 328.9375 50.541668Q328.57812 50.307293 328.07812 50.307293Q327.29688 50.307293 326.71875 50.807293Q326.15625 51.307293 326.15625 52.697918L326.15625 56.666668L324.92188 56.666668ZM332.4375 54.494793L333.64062 54.307293Q333.75 55.041668 334.21875 55.432293Q334.6875 55.822918 335.53125 55.822918Q336.375 55.822918 336.78125 55.479168Q337.20312 55.135418 337.20312 54.666668Q337.20312 54.244793 336.82812 54.010418Q336.57812 53.838543 335.57812 53.588543Q334.21875 53.244793 333.6875 52.994793Q333.17188 52.744793 332.90625 52.307293Q332.64062 51.869793 332.64062 51.338543Q332.64062 50.854168 332.85938 50.447918Q333.07812 50.026043 333.46875 49.744793Q333.75 49.541668 334.23438 49.401043Q334.73438 49.244793 335.3125 49.244793Q336.15625 49.244793 336.79688 49.494793Q337.45312 49.729168 337.76562 50.151043Q338.07812 50.572918 338.1875 51.276043L336.98438 51.447918Q336.90625 50.885418 336.5 50.572918Q336.10938 50.260418 335.39062 50.260418Q334.54688 50.260418 334.1875 50.541668Q333.82812 50.807293 333.82812 51.197918Q333.82812 51.432293 333.96875 51.619793Q334.125 51.822918 334.45312 51.947918Q334.625 52.010418 335.53125 52.260418Q336.84375 52.619793 337.35938 52.838543Q337.875 53.057293 338.15625 53.479168Q338.45312 53.901043 338.45312 54.526043Q338.45312 55.151043 338.09375 55.697918Q337.75 56.229168 337.0625 56.541668Q336.39062 56.838543 335.53125 56.838543Q334.125 56.838543 333.375 56.244793Q332.64062 55.651043 332.4375 54.494793ZM339.46875 53.041668Q339.46875 51.026043 340.59375 50.041668Q341.51562 49.244793 342.875 49.244793Q344.35938 49.244793 345.3125 50.229168Q346.26562 51.197918 346.26562 52.932293Q346.26562 54.338543 345.84375 55.151043Q345.42188 55.947918 344.60938 56.401043Q343.8125 56.838543 342.875 56.838543Q341.34375 56.838543 340.40625 55.854168Q339.46875 54.869793 339.46875 53.041668ZM340.73438 53.041668Q340.73438 54.432293 341.34375 55.135418Q341.95312 55.822918 342.875 55.822918Q343.78125 55.822918 344.39062 55.119793Q345.0 54.416668 345.0 52.994793Q345.0 51.651043 344.39062 50.963543Q343.78125 50.260418 342.875 50.260418Q341.95312 50.260418 341.34375 50.947918Q340.73438 51.635418 340.73438 53.041668ZM347.90625 56.666668L347.90625 49.401043L349.01562 49.401043L349.01562 50.510418Q349.4375 49.729168 349.79688 49.494793Q350.15625 49.244793 350.59375 49.244793Q351.21875 49.244793 351.85938 49.635418L351.4375 50.776043Q350.98438 50.510418 350.53125 50.510418Q350.125 50.510418 349.79688 50.760418Q349.48438 50.994793 349.34375 51.432293Q349.14062 52.088543 349.14062 52.869793L349.14062 56.666668L347.90625 56.666668ZM353.09375 56.666668L353.09375 46.651043L357.54688 46.651043Q358.89062 46.651043 359.57812 46.916668Q360.28125 47.182293 360.6875 47.869793Q361.10938 48.557293 361.10938 49.385418Q361.10938 50.447918 360.42188 51.182293Q359.73438 51.901043 358.29688 52.104168Q358.8125 52.354168 359.09375 52.604168Q359.67188 53.135418 360.1875 53.932293L361.9375 56.666668L360.26562 56.666668L358.9375 54.588543Q358.35938 53.682293 357.98438 53.213543Q357.60938 52.729168 357.3125 52.541668Q357.01562 52.338543 356.70312 52.260418Q356.48438 52.213543 355.96875 52.213543L354.42188 52.213543L354.42188 56.666668L353.09375 56.666668ZM354.42188 51.072918L357.28125 51.072918Q358.1875 51.072918 358.70312 50.885418Q359.21875 50.697918 359.48438 50.291668Q359.75 49.869793 359.75 49.385418Q359.75 48.666668 359.23438 48.213543Q358.71875 47.744793 357.59375 47.744793L354.42188 47.744793L354.42188 51.072918ZM365.625 56.666668L365.625 47.822918L362.32812 47.822918L362.32812 46.651043L370.26562 46.651043L370.26562 47.822918L366.95312 47.822918L366.95312 56.666668L365.625 56.666668ZM371.4375 53.651043L371.4375 52.416668L375.21875 52.416668L375.21875 53.651043L371.4375 53.651043ZM377.03125 56.666668L377.03125 46.651043L378.35938 46.651043L378.35938 55.479168L383.28125 55.479168L383.28125 56.666668L377.03125 56.666668ZM385.03125 56.666668L385.03125 46.651043L386.35938 46.651043L386.35938 55.479168L391.28125 55.479168L391.28125 56.666668L385.03125 56.666668ZM393.04688 56.666668L393.04688 46.651043L395.03125 46.651043L397.40625 53.744793Q397.73438 54.729168 397.89062 55.229168Q398.0625 54.682293 398.42188 53.619793L400.8125 46.651043L402.60938 46.651043L402.60938 56.666668L401.32812 56.666668L401.32812 48.276043L398.40625 56.666668L397.21875 56.666668L394.3125 48.135418L394.3125 56.666668L393.04688 56.666668Z" fill-rule="nonzero"/><path stroke="#ff6d01" stroke-width="4.0" stroke-linecap="butt" d="M419.0 51.666668L431.0 51.666668" fill-rule="nonzero"/><path fill="#1a1a1a" d="M439.625 53.447918L440.875 53.338543Q440.96875 54.088543 441.29688 54.572918Q441.625 55.057293 442.29688 55.354168Q442.98438 55.651043 443.84375 55.651043Q444.59375 55.651043 445.17188 55.432293Q445.76562 55.197918 446.04688 54.807293Q446.32812 54.416668 446.32812 53.947918Q446.32812 53.479168 446.04688 53.135418Q445.78125 52.776043 445.15625 52.526043Q444.75 52.369793 443.35938 52.041668Q441.98438 51.713543 441.4375 51.416668Q440.71875 51.041668 440.35938 50.494793Q440.01562 49.932293 440.01562 49.229168Q440.01562 48.479168 440.4375 47.822918Q440.875 47.151043 441.70312 46.822918Q442.53125 46.479168 443.54688 46.479168Q444.65625 46.479168 445.5 46.838543Q446.35938 47.197918 446.8125 47.901043Q447.26562 48.588543 447.3125 49.463543L446.03125 49.557293Q445.9375 48.619793 445.34375 48.135418Q444.75 47.635418 443.59375 47.635418Q442.39062 47.635418 441.84375 48.088543Q441.29688 48.526043 441.29688 49.151043Q441.29688 49.682293 441.6875 50.041668Q442.0625 50.385418 443.67188 50.760418Q445.29688 51.119793 445.89062 51.385418Q446.76562 51.791668 447.1875 52.416668Q447.60938 53.026043 447.60938 53.838543Q447.60938 54.635418 447.14062 55.354168Q446.6875 56.057293 445.82812 56.447918Q444.96875 56.838543 443.90625 56.838543Q442.54688 56.838543 441.625 56.447918Q440.70312 56.041668 440.17188 55.244793Q439.65625 54.447918 439.625 53.447918ZM453.76562 52.729168L453.76562 51.557293L458.01562 51.557293L458.01562 55.276043Q457.03125 56.057293 455.98438 56.447918Q454.95312 56.838543 453.85938 56.838543Q452.39062 56.838543 451.17188 56.213543Q449.96875 55.572918 449.35938 54.385418Q448.75 53.182293 448.75 51.697918Q448.75 50.244793 449.35938 48.979168Q449.96875 47.697918 451.10938 47.088543Q452.26562 46.479168 453.76562 46.479168Q454.84375 46.479168 455.71875 46.838543Q456.60938 47.182293 457.10938 47.807293Q457.60938 48.432293 457.85938 49.447918L456.67188 49.776043Q456.4375 49.010418 456.09375 48.572918Q455.76562 48.135418 455.14062 47.869793Q454.53125 47.604168 453.76562 47.604168Q452.85938 47.604168 452.1875 47.885418Q451.53125 48.166668 451.125 48.619793Q450.71875 49.057293 450.5 49.604168Q450.10938 50.541668 450.10938 51.619793Q450.10938 52.963543 450.5625 53.869793Q451.03125 54.760418 451.90625 55.197918Q452.79688 55.635418 453.79688 55.635418Q454.65625 55.635418 455.46875 55.307293Q456.29688 54.979168 456.71875 54.604168L456.71875 52.729168L453.76562 52.729168ZM460.03125 56.666668L460.03125 46.651043L461.35938 46.651043L461.35938 55.479168L466.28125 55.479168L466.28125 56.666668L460.03125 56.666668ZM472.65625 55.776043Q471.98438 56.354168 471.34375 56.604168Q470.71875 56.838543 469.98438 56.838543Q468.79688 56.838543 468.14062 56.260418Q467.5 55.666668 467.5 54.744793Q467.5 54.213543 467.73438 53.776043Q467.98438 53.338543 468.375 53.072918Q468.78125 52.807293 469.26562 52.666668Q469.625 52.572918 470.35938 52.479168Q471.85938 52.307293 472.5625 52.057293Q472.5625 51.807293 472.5625 51.744793Q472.5625 50.979168 472.21875 50.682293Q471.75 50.260418 470.8125 50.260418Q469.95312 50.260418 469.53125 50.572918Q469.125 50.869793 468.92188 51.635418L467.71875 51.479168Q467.875 50.697918 468.25 50.229168Q468.64062 49.760418 469.34375 49.510418Q470.0625 49.244793 471.0 49.244793Q471.92188 49.244793 472.5 49.463543Q473.07812 49.682293 473.34375 50.010418Q473.625 50.338543 473.73438 50.854168Q473.79688 51.166668 473.79688 51.979168L473.79688 53.619793Q473.79688 55.338543 473.875 55.791668Q473.95312 56.244793 474.1875 56.666668L472.90625 56.666668Q472.71875 56.276043 472.65625 55.776043ZM472.5625 53.026043Q471.89062 53.291668 470.54688 53.494793Q469.79688 53.604168 469.46875 53.744793Q469.15625 53.869793 468.98438 54.135418Q468.8125 54.401043 468.8125 54.713543Q468.8125 55.213543 469.1875 55.541668Q469.5625 55.869793 470.28125 55.869793Q471.0 55.869793 471.54688 55.557293Q472.09375 55.244793 472.35938 54.697918Q472.5625 54.291668 472.5625 53.479168L472.5625 53.026043ZM475.92188 56.666668L475.92188 49.401043L477.03125 49.401043L477.03125 50.432293Q477.82812 49.244793 479.34375 49.244793Q480.0 49.244793 480.54688 49.479168Q481.09375 49.713543 481.35938 50.104168Q481.64062 50.479168 481.75 51.010418Q481.82812 51.354168 481.82812 52.197918L481.82812 56.666668L480.59375 56.666668L480.59375 52.244793Q480.59375 51.494793 480.45312 51.135418Q480.3125 50.760418 479.9375 50.541668Q479.57812 50.307293 479.07812 50.307293Q478.29688 50.307293 477.71875 50.807293Q477.15625 51.307293 477.15625 52.697918L477.15625 56.666668L475.92188 56.666668ZM483.70312 57.276043L484.89062 57.447918Q484.96875 57.994793 485.3125 58.260418Q485.76562 58.588543 486.5625 58.588543Q487.42188 58.588543 487.875 58.244793Q488.34375 57.916668 488.51562 57.291668Q488.60938 56.916668 488.59375 55.713543Q487.79688 56.666668 486.59375 56.666668Q485.09375 56.666668 484.26562 55.588543Q483.45312 54.510418 483.45312 52.994793Q483.45312 51.963543 483.82812 51.088543Q484.20312 50.197918 484.90625 49.729168Q485.625 49.244793 486.59375 49.244793Q487.875 49.244793 488.71875 50.276043L488.71875 49.401043L489.84375 49.401043L489.84375 55.682293Q489.84375 57.385418 489.5 58.088543Q489.15625 58.791668 488.40625 59.197918Q487.65625 59.619793 486.5625 59.619793Q485.26562 59.619793 484.46875 59.026043Q483.67188 58.447918 483.70312 57.276043ZM484.71875 52.901043Q484.71875 54.338543 485.28125 54.994793Q485.84375 55.651043 486.70312 55.651043Q487.54688 55.651043 488.125 54.994793Q488.70312 54.338543 488.70312 52.947918Q488.70312 51.619793 488.10938 50.947918Q487.51562 50.260418 486.6875 50.260418Q485.85938 50.260418 485.28125 50.932293Q484.71875 51.588543 484.71875 52.901043Z" fill-rule="nonzero"/><path fill="#757575" d="M14.9125 30.6L14.9125 17.709375L16.63125 17.709375L16.63125 29.084375L22.975 29.084375L22.975 30.6L14.9125 30.6ZM24.75625 30.6L24.75625 17.709375L26.334375 17.709375L26.334375 30.6L24.75625 30.6ZM34.88125 29.44375Q34.00625 30.19375 33.178123 30.50625Q32.365623 30.81875 31.44375 30.81875Q29.896875 30.81875 29.06875 30.06875Q28.25625 29.303125 28.25625 28.13125Q28.25625 27.459375 28.56875 26.896875Q28.88125 26.31875 29.38125 25.975Q29.88125 25.63125 30.521875 25.459375Q30.990625 25.334375 31.928125 25.225Q33.834373 24.990625 34.740623 24.678125Q34.75625 24.35 34.75625 24.25625Q34.75625 23.303125 34.303123 22.896875Q33.69375 22.365625 32.50625 22.365625Q31.38125 22.365625 30.85 22.75625Q30.31875 23.146875 30.06875 24.146875L28.521875 23.928125Q28.740625 22.928125 29.209375 22.31875Q29.69375 21.709375 30.6 21.38125Q31.521875 21.053125 32.740623 21.053125Q33.928123 21.053125 34.678123 21.334375Q35.428123 21.615625 35.771873 22.053125Q36.13125 22.475 36.271873 23.115625Q36.35 23.521875 36.35 24.584375L36.35 26.69375Q36.35 28.896875 36.44375 29.490625Q36.553123 30.06875 36.85 30.6L35.19375 30.6Q34.94375 30.1 34.88125 29.44375ZM34.740623 25.9125Q33.88125 26.271875 32.1625 26.50625Q31.19375 26.646875 30.7875 26.834375Q30.38125 27.00625 30.1625 27.35Q29.94375 27.678125 29.94375 28.1Q29.94375 28.725 30.4125 29.146875Q30.896875 29.56875 31.81875 29.56875Q32.740623 29.56875 33.44375 29.178125Q34.1625 28.771875 34.490623 28.084375Q34.740623 27.5375 34.740623 26.490625L34.740623 25.9125ZM38.7875 30.6L38.7875 21.271875L40.209373 21.271875L40.209373 22.56875Q40.646873 21.896875 41.365623 21.475Q42.1 21.053125 43.0375 21.053125Q44.06875 21.053125 44.725 21.490625Q45.396873 21.9125 45.6625 22.69375Q46.771873 21.053125 48.553123 21.053125Q49.94375 21.053125 50.678123 21.834375Q51.428123 22.6 51.428123 24.19375L51.428123 30.6L49.865623 30.6L49.865623 24.725Q49.865623 23.771875 49.709373 23.35Q49.553123 22.928125 49.146873 22.678125Q48.740623 22.428125 48.19375 22.428125Q47.209373 22.428125 46.553123 23.084375Q45.9125 23.740625 45.9125 25.178125L45.9125 30.6L44.334373 30.6L44.334373 24.5375Q44.334373 23.475 43.94375 22.959375Q43.553123 22.428125 42.678123 22.428125Q42.00625 22.428125 41.44375 22.7875Q40.88125 23.13125 40.615623 23.803125Q40.365623 24.475 40.365623 25.75625L40.365623 30.6L38.7875 30.6ZM58.88125 29.44375Q58.00625 30.19375 57.178123 30.50625Q56.365623 30.81875 55.44375 30.81875Q53.896873 30.81875 53.06875 30.06875Q52.25625 29.303125 52.25625 28.13125Q52.25625 27.459375 52.56875 26.896875Q52.88125 26.31875 53.38125 25.975Q53.88125 25.63125 54.521873 25.459375Q54.990623 25.334375 55.928123 25.225Q57.834373 24.990625 58.740623 24.678125Q58.75625 24.35 58.75625 24.25625Q58.75625 23.303125 58.303123 22.896875Q57.69375 22.365625 56.50625 22.365625Q55.38125 22.365625 54.85 22.75625Q54.31875 23.146875 54.06875 24.146875L52.521873 23.928125Q52.740623 22.928125 53.209373 22.31875Q53.69375 21.709375 54.6 21.38125Q55.521873 21.053125 56.740623 21.053125Q57.928123 21.053125 58.678123 21.334375Q59.428123 21.615625 59.771873 22.053125Q60.13125 22.475 60.271873 23.115625Q60.35 23.521875 60.35 24.584375L60.35 26.69375Q60.35 28.896875 60.44375 29.490625Q60.553123 30.06875 60.85 30.6L59.19375 30.6Q58.94375 30.1 58.88125 29.44375ZM58.740623 25.9125Q57.88125 26.271875 56.1625 26.50625Q55.19375 26.646875 54.7875 26.834375Q54.38125 27.00625 54.1625 27.35Q53.94375 27.678125 53.94375 28.1Q53.94375 28.725 54.4125 29.146875Q54.896873 29.56875 55.81875 29.56875Q56.740623 29.56875 57.44375 29.178125Q58.1625 28.771875 58.490623 28.084375Q58.740623 27.5375 58.740623 26.490625L58.740623 25.9125ZM62.178123 26.725L62.178123 25.146875L67.0375 25.146875L67.0375 26.725L62.178123 26.725ZM68.45937 19.396875L68.45937 17.88125L76.7875 17.88125L76.7875 19.115625Q75.56875 20.428125 74.35 22.6Q73.14687 24.75625 72.49062 27.053125Q72.00625 28.678125 71.88125 30.6L70.25625 30.6Q70.2875 29.084375 70.85 26.928125Q71.42812 24.771875 72.49062 22.771875Q73.55312 20.771875 74.75625 19.396875L68.45937 19.396875ZM78.35 24.240625Q78.35 21.959375 78.81875 20.56875Q79.2875 19.178125 80.20937 18.428125Q81.14687 17.6625 82.55312 17.6625Q83.58437 17.6625 84.36562 18.084375Q85.14687 18.490625 85.64687 19.2875Q86.1625 20.06875 86.45937 21.209375Q86.75625 22.334375 86.75625 24.240625Q86.75625 26.50625 86.2875 27.9125Q85.81875 29.303125 84.88125 30.06875Q83.95937 30.81875 82.55312 30.81875Q80.67812 30.81875 79.61562 29.490625Q78.35 27.88125 78.35 24.240625ZM79.975 24.240625Q79.975 27.4125 80.70937 28.475Q81.45937 29.521875 82.55312 29.521875Q83.63125 29.521875 84.38125 28.475Q85.13125 27.4125 85.13125 24.240625Q85.13125 21.06875 84.38125 20.021875Q83.63125 18.975 82.5375 18.975Q81.44375 18.975 80.7875 19.896875Q79.975 21.06875 79.975 24.240625ZM88.9125 30.6L88.9125 17.709375L93.75625 17.709375Q95.225 17.709375 96.11562 18.1Q97.00625 18.490625 97.50625 19.303125Q98.02187 20.115625 98.02187 21.00625Q98.02187 21.834375 97.56875 22.56875Q97.13125 23.303125 96.225 23.740625Q97.39687 24.084375 98.02187 24.9125Q98.64687 25.740625 98.64687 26.865625Q98.64687 27.771875 98.25625 28.553125Q97.88125 29.31875 97.31875 29.740625Q96.75625 30.1625 95.9125 30.38125Q95.06875 30.6 93.83437 30.6L88.9125 30.6ZM90.63125 23.13125L93.4125 23.13125Q94.5375 23.13125 95.0375 22.975Q95.69375 22.7875 96.02187 22.35Q96.35 21.896875 96.35 21.209375Q96.35 20.56875 96.0375 20.084375Q95.725 19.6 95.14687 19.428125Q94.58437 19.240625 93.19375 19.240625L90.63125 19.240625L90.63125 23.13125ZM90.63125 29.084375L93.83437 29.084375Q94.6625 29.084375 94.99062 29.021875Q95.58437 28.9125 95.975 28.6625Q96.36562 28.4125 96.61562 27.94375Q96.88125 27.475 96.88125 26.865625Q96.88125 26.146875 96.50625 25.615625Q96.14687 25.084375 95.49062 24.865625Q94.83437 24.646875 93.6 24.646875L90.63125 24.646875L90.63125 29.084375ZM108.80312 34.38125Q107.50625 32.740623 106.6 30.521875Q105.69375 28.303125 105.69375 25.928125Q105.69375 23.834375 106.36562 21.928125Q107.1625 19.69375 108.80312 17.490625L109.94375 17.490625Q108.88125 19.31875 108.5375 20.1Q108.00625 21.31875 107.69375 22.63125Q107.31875 24.2875 107.31875 25.94375Q107.31875 30.1625 109.94375 34.38125L108.80312 34.38125ZM113.24062 30.6L111.77187 30.6L111.77187 17.709375L113.36562 17.709375L113.36562 22.31875Q114.36562 21.053125 115.9125 21.053125Q116.77187 21.053125 117.5375 21.4125Q118.31875 21.75625 118.80312 22.38125Q119.30312 23.00625 119.58437 23.896875Q119.86562 24.7875 119.86562 25.7875Q119.86562 28.19375 118.67812 29.50625Q117.50625 30.81875 115.83437 30.81875Q114.19375 30.81875 113.24062 29.428125L113.24062 30.6ZM113.225 25.865625Q113.225 27.5375 113.67812 28.2875Q114.42812 29.50625 115.70937 29.50625Q116.74062 29.50625 117.49062 28.615625Q118.25625 27.709375 118.25625 25.928125Q118.25625 24.1 117.52187 23.225Q116.80312 22.35 115.77187 22.35Q114.74062 22.35 113.975 23.25625Q113.225 24.1625 113.225 25.865625ZM122.1625 30.6L122.1625 22.490625L120.77187 22.490625L120.77187 21.271875L122.1625 21.271875L122.1625 20.271875Q122.1625 19.334375 122.33437 18.88125Q122.55312 18.25625 123.13125 17.88125Q123.70937 17.490625 124.75625 17.490625Q125.4125 17.490625 126.225 17.646875L125.99062 19.0375Q125.49062 18.94375 125.05312 18.94375Q124.33437 18.94375 124.0375 19.25625Q123.74062 19.553125 123.74062 20.396875L123.74062 21.271875L125.55312 21.271875L125.55312 22.490625L123.74062 22.490625L123.74062 30.6L122.1625 30.6ZM132.30313 30.6L130.725 30.6L130.725 20.521875Q130.14688 21.06875 129.225 21.615625Q128.30313 22.146875 127.55312 22.428125L127.55312 20.896875Q128.88126 20.271875 129.88126 19.38125Q130.88126 18.490625 131.2875 17.6625L132.30313 17.6625L132.30313 30.6ZM144.55313 20.865625L142.99063 20.990625Q142.77188 20.06875 142.38126 19.646875Q141.74063 18.959375 140.80313 18.959375Q140.05313 18.959375 139.475 19.38125Q138.725 19.928125 138.2875 20.975Q137.86563 22.021875 137.85 23.959375Q138.42813 23.084375 139.24063 22.6625Q140.06876 22.240625 140.975 22.240625Q142.56876 22.240625 143.67813 23.4125Q144.7875 24.56875 144.7875 26.4125Q144.7875 27.63125 144.25626 28.678125Q143.74063 29.709375 142.81876 30.271875Q141.9125 30.81875 140.75626 30.81875Q138.77188 30.81875 137.52188 29.365625Q136.27188 27.9125 136.27188 24.56875Q136.27188 20.834375 137.6625 19.13125Q138.86563 17.6625 140.89688 17.6625Q142.42813 17.6625 143.39688 18.521875Q144.36563 19.365625 144.55313 20.865625ZM138.1 26.428125Q138.1 27.240625 138.44376 27.990625Q138.7875 28.740625 139.4125 29.13125Q140.0375 29.521875 140.725 29.521875Q141.725 29.521875 142.44376 28.709375Q143.1625 27.896875 143.1625 26.50625Q143.1625 25.178125 142.44376 24.4125Q141.74063 23.63125 140.6625 23.63125Q139.58438 23.63125 138.83438 24.4125Q138.1 25.178125 138.1 26.428125ZM147.81876 34.38125L146.69376 34.38125Q149.31876 30.1625 149.31876 25.94375Q149.31876 24.2875 148.94376 22.6625Q148.64688 21.35 148.1 20.13125Q147.75626 19.334375 146.69376 17.490625L147.81876 17.490625Q149.475 19.69375 150.27188 21.928125Q150.94376 23.834375 150.94376 25.928125Q150.94376 28.303125 150.0375 30.521875Q149.13126 32.740623 147.81876 34.38125ZM157.19376 25.928125Q157.19376 23.334375 158.64688 22.084375Q159.85 21.053125 161.56876 21.053125Q163.50626 21.053125 164.725 22.31875Q165.94376 23.584375 165.94376 25.803125Q165.94376 27.6 165.39688 28.63125Q164.86563 29.6625 163.83438 30.240625Q162.80313 30.81875 161.56876 30.81875Q159.61563 30.81875 158.39688 29.56875Q157.19376 28.303125 157.19376 25.928125ZM158.81876 25.928125Q158.81876 27.725 159.6 28.615625Q160.38126 29.50625 161.56876 29.50625Q162.75626 29.50625 163.5375 28.615625Q164.31876 27.709375 164.31876 25.88125Q164.31876 24.146875 163.52188 23.25625Q162.74063 22.365625 161.56876 22.365625Q160.38126 22.365625 159.6 23.25625Q158.81876 24.146875 158.81876 25.928125ZM167.7875 30.6L167.7875 21.271875L169.20938 21.271875L169.20938 22.6Q170.24063 21.053125 172.17813 21.053125Q173.02188 21.053125 173.725 21.365625Q174.44376 21.6625 174.7875 22.1625Q175.14688 22.646875 175.2875 23.31875Q175.36563 23.75625 175.36563 24.865625L175.36563 30.6L173.7875 30.6L173.7875 24.928125Q173.7875 23.959375 173.6 23.475Q173.42813 22.990625 172.94376 22.709375Q172.475 22.428125 171.85 22.428125Q170.83438 22.428125 170.1 23.06875Q169.36563 23.709375 169.36563 25.50625L169.36563 30.6L167.7875 30.6ZM184.7875 23.615625Q183.80313 23.25625 183.31876 22.584375Q182.85 21.9125 182.85 20.990625Q182.85 19.584375 183.85 18.63125Q184.86563 17.6625 186.55313 17.6625Q188.24063 17.6625 189.25626 18.646875Q190.2875 19.615625 190.2875 21.021875Q190.2875 21.928125 189.81876 22.6Q189.35 23.25625 188.39688 23.615625Q189.58438 24.00625 190.19376 24.865625Q190.81876 25.725 190.81876 26.9125Q190.81876 28.56875 189.64688 29.69375Q188.475 30.81875 186.56876 30.81875Q184.6625 30.81875 183.49063 29.69375Q182.33438 28.553125 182.33438 26.865625Q182.33438 25.615625 182.95938 24.771875Q183.6 23.9125 184.7875 23.615625ZM184.45938 20.928125Q184.45938 21.85 185.05313 22.428125Q185.64688 23.00625 186.58438 23.00625Q187.49063 23.00625 188.06876 22.428125Q188.6625 21.85 188.6625 21.021875Q188.6625 20.146875 188.05313 19.553125Q187.45938 18.959375 186.56876 18.959375Q185.6625 18.959375 185.05313 19.5375Q184.45938 20.115625 184.45938 20.928125ZM183.95938 26.88125Q183.95938 27.553125 184.27188 28.19375Q184.6 28.81875 185.225 29.178125Q185.86563 29.521875 186.6 29.521875Q187.725 29.521875 188.45938 28.7875Q189.20938 28.053125 189.20938 26.928125Q189.20938 25.7875 188.44376 25.053125Q187.67813 24.303125 186.5375 24.303125Q185.42813 24.303125 184.69376 25.0375Q183.95938 25.771875 183.95938 26.88125ZM196.725 30.6L200.14688 25.740625L196.99063 21.271875L198.95938 21.271875L200.39688 23.459375Q200.80313 24.084375 201.05313 24.50625Q201.42813 23.9125 201.75626 23.475L203.33438 21.271875L205.225 21.271875L201.99063 25.6625L205.475 30.6L203.52188 30.6L201.61563 27.69375L201.1 26.9125L198.64688 30.6L196.725 30.6ZM209.56876 30.6L214.52188 17.709375L216.36563 17.709375L221.63126 30.6L219.69376 30.6L218.19376 26.69375L212.80313 26.69375L211.38126 30.6L209.56876 30.6ZM213.2875 25.303125L217.6625 25.303125L216.31876 21.740625Q215.69376 20.115625 215.39688 19.06875Q215.1625 20.303125 214.70938 21.521875L213.2875 25.303125ZM227.30313 30.6L225.725 30.6L225.725 20.521875Q225.14688 21.06875 224.225 21.615625Q223.30313 22.146875 222.55313 22.428125L222.55313 20.896875Q223.88126 20.271875 224.88126 19.38125Q225.88126 18.490625 226.2875 17.6625L227.30313 17.6625L227.30313 30.6ZM231.35 24.240625Q231.35 21.959375 231.81876 20.56875Q232.2875 19.178125 233.20938 18.428125Q234.14688 17.6625 235.55313 17.6625Q236.58438 17.6625 237.36563 18.084375Q238.14688 18.490625 238.64688 19.2875Q239.1625 20.06875 239.45938 21.209375Q239.75626 22.334375 239.75626 24.240625Q239.75626 26.50625 239.2875 27.9125Q238.81876 29.303125 237.88126 30.06875Q236.95938 30.81875 235.55313 30.81875Q233.67813 30.81875 232.61563 29.490625Q231.35 27.88125 231.35 24.240625ZM232.975 24.240625Q232.975 27.4125 233.70938 28.475Q234.45938 29.521875 235.55313 29.521875Q236.63126 29.521875 237.38126 28.475Q238.13126 27.4125 238.13126 24.240625Q238.13126 21.06875 237.38126 20.021875Q236.63126 18.975 235.5375 18.975Q234.44376 18.975 233.7875 19.896875Q232.975 21.06875 232.975 24.240625ZM241.35 24.240625Q241.35 21.959375 241.81876 20.56875Q242.2875 19.178125 243.20938 18.428125Q244.14688 17.6625 245.55313 17.6625Q246.58438 17.6625 247.36563 18.084375Q248.14688 18.490625 248.64688 19.2875Q249.1625 20.06875 249.45938 21.209375Q249.75626 22.334375 249.75626 24.240625Q249.75626 26.50625 249.2875 27.9125Q248.81876 29.303125 247.88126 30.06875Q246.95938 30.81875 245.55313 30.81875Q243.67813 30.81875 242.61563 29.490625Q241.35 27.88125 241.35 24.240625ZM242.975 24.240625Q242.975 27.4125 243.70938 28.475Q244.45938 29.521875 245.55313 29.521875Q246.63126 29.521875 247.38126 28.475Q248.13126 27.4125 248.13126 24.240625Q248.13126 21.06875 247.38126 20.021875Q246.63126 18.975 245.5375 18.975Q244.44376 18.975 243.7875 19.896875Q242.975 21.06875 242.975 24.240625ZM252.24063 30.6L252.24063 28.803125L254.0375 28.803125L254.0375 30.6L252.24063 30.6ZM261.9125 30.6L261.9125 17.709375L263.63126 17.709375L263.63126 29.084375L269.975 29.084375L269.975 30.6L261.9125 30.6ZM271.19376 25.928125Q271.19376 23.334375 272.64688 22.084375Q273.85 21.053125 275.56876 21.053125Q277.50626 21.053125 278.725 22.31875Q279.94376 23.584375 279.94376 25.803125Q279.94376 27.6 279.39688 28.63125Q278.86563 29.6625 277.83438 30.240625Q276.80313 30.81875 275.56876 30.81875Q273.61563 30.81875 272.39688 29.56875Q271.19376 28.303125 271.19376 25.928125ZM272.81876 25.928125Q272.81876 27.725 273.6 28.615625Q274.38126 29.50625 275.56876 29.50625Q276.75626 29.50625 277.5375 28.615625Q278.31876 27.709375 278.31876 25.88125Q278.31876 24.146875 277.52188 23.25625Q276.74063 22.365625 275.56876 22.365625Q274.38126 22.365625 273.6 23.25625Q272.81876 24.146875 272.81876 25.928125ZM283.50626 30.6L280.64688 21.271875L282.2875 21.271875L283.77188 26.646875L284.33438 28.6625Q284.36563 28.50625 284.80313 26.725L286.30313 21.271875L287.92813 21.271875L289.31876 26.678125L289.7875 28.459375L290.31876 26.6625L291.92813 21.271875L293.45938 21.271875L290.5375 30.6L288.89688 30.6L287.4125 25.00625L287.05313 23.4125L285.1625 30.6L283.50626 30.6ZM301.17813 27.6L302.81876 27.803125Q302.42813 29.225 301.38126 30.021875Q300.33438 30.81875 298.70938 30.81875Q296.6625 30.81875 295.45938 29.553125Q294.25626 28.2875 294.25626 26.00625Q294.25626 23.6625 295.45938 22.365625Q296.67813 21.053125 298.61563 21.053125Q300.49063 21.053125 301.67813 22.334375Q302.86563 23.6 302.86563 25.9125Q302.86563 26.053125 302.85 26.334375L295.89688 26.334375Q295.975 27.88125 296.75626 28.69375Q297.55313 29.50625 298.70938 29.50625Q299.58438 29.50625 300.19376 29.053125Q300.81876 28.6 301.17813 27.6ZM295.975 25.0375L301.19376 25.0375Q301.08438 23.865625 300.6 23.271875Q299.83438 22.35 298.63126 22.35Q297.55313 22.35 296.80313 23.084375Q296.06876 23.81875 295.975 25.0375ZM304.77188 30.6L304.77188 21.271875L306.19376 21.271875L306.19376 22.678125Q306.74063 21.69375 307.19376 21.38125Q307.6625 21.053125 308.20938 21.053125Q309.02188 21.053125 309.83438 21.56875L309.30313 23.0375Q308.70938 22.69375 308.13126 22.69375Q307.61563 22.69375 307.19376 23.00625Q306.7875 23.31875 306.61563 23.865625Q306.35 24.709375 306.35 25.709375L306.35 30.6L304.77188 30.6ZM315.9125 30.6L315.9125 17.709375L317.63126 17.709375L317.63126 29.084375L323.975 29.084375L323.975 30.6L315.9125 30.6ZM331.88126 29.44375Q331.00626 30.19375 330.17813 30.50625Q329.36563 30.81875 328.44376 30.81875Q326.89688 30.81875 326.06876 30.06875Q325.25626 29.303125 325.25626 28.13125Q325.25626 27.459375 325.56876 26.896875Q325.88126 26.31875 326.38126 25.975Q326.88126 25.63125 327.52188 25.459375Q327.99063 25.334375 328.92813 25.225Q330.83438 24.990625 331.74063 24.678125Q331.75626 24.35 331.75626 24.25625Q331.75626 23.303125 331.30313 22.896875Q330.69376 22.365625 329.50626 22.365625Q328.38126 22.365625 327.85 22.75625Q327.31876 23.146875 327.06876 24.146875L325.52188 23.928125Q325.74063 22.928125 326.20938 22.31875Q326.69376 21.709375 327.6 21.38125Q328.52188 21.053125 329.74063 21.053125Q330.92813 21.053125 331.67813 21.334375Q332.42813 21.615625 332.77188 22.053125Q333.13126 22.475 333.27188 23.115625Q333.35 23.521875 333.35 24.584375L333.35 26.69375Q333.35 28.896875 333.44376 29.490625Q333.55313 30.06875 333.85 30.6L332.19376 30.6Q331.94376 30.1 331.88126 29.44375ZM331.74063 25.9125Q330.88126 26.271875 329.1625 26.50625Q328.19376 26.646875 327.7875 26.834375Q327.38126 27.00625 327.1625 27.35Q326.94376 27.678125 326.94376 28.1Q326.94376 28.725 327.4125 29.146875Q327.89688 29.56875 328.81876 29.56875Q329.74063 29.56875 330.44376 29.178125Q331.1625 28.771875 331.49063 28.084375Q331.74063 27.5375 331.74063 26.490625L331.74063 25.9125ZM339.24063 29.178125L339.475 30.584375Q338.80313 30.725 338.27188 30.725Q337.4125 30.725 336.92813 30.459375Q336.45938 30.178125 336.27188 29.740625Q336.08438 29.2875 336.08438 27.865625L336.08438 22.490625L334.9125 22.490625L334.9125 21.271875L336.08438 21.271875L336.08438 18.959375L337.64688 18.00625L337.64688 21.271875L339.24063 21.271875L339.24063 22.490625L337.64688 22.490625L337.64688 27.959375Q337.64688 28.63125 337.725 28.834375Q337.81876 29.021875 338.00626 29.13125Q338.19376 29.240625 338.55313 29.240625Q338.80313 29.240625 339.24063 29.178125ZM347.17813 27.6L348.81876 27.803125Q348.42813 29.225 347.38126 30.021875Q346.33438 30.81875 344.70938 30.81875Q342.6625 30.81875 341.45938 29.553125Q340.25626 28.2875 340.25626 26.00625Q340.25626 23.6625 341.45938 22.365625Q342.67813 21.053125 344.61563 21.053125Q346.49063 21.053125 347.67813 22.334375Q348.86563 23.6 348.86563 25.9125Q348.86563 26.053125 348.85 26.334375L341.89688 26.334375Q341.975 27.88125 342.75626 28.69375Q343.55313 29.50625 344.70938 29.50625Q345.58438 29.50625 346.19376 29.053125Q346.81876 28.6 347.17813 27.6ZM341.975 25.0375L347.19376 25.0375Q347.08438 23.865625 346.6 23.271875Q345.83438 22.35 344.63126 22.35Q343.55313 22.35 342.80313 23.084375Q342.06876 23.81875 341.975 25.0375ZM350.7875 30.6L350.7875 21.271875L352.20938 21.271875L352.20938 22.6Q353.24063 21.053125 355.17813 21.053125Q356.02188 21.053125 356.725 21.365625Q357.44376 21.6625 357.7875 22.1625Q358.14688 22.646875 358.2875 23.31875Q358.36563 23.75625 358.36563 24.865625L358.36563 30.6L356.7875 30.6L356.7875 24.928125Q356.7875 23.959375 356.6 23.475Q356.42813 22.990625 355.94376 22.709375Q355.475 22.428125 354.85 22.428125Q353.83438 22.428125 353.1 23.06875Q352.36563 23.709375 352.36563 25.50625L352.36563 30.6L350.7875 30.6ZM366.88126 27.178125L368.42813 27.38125Q368.17813 28.990625 367.13126 29.9125Q366.08438 30.81875 364.55313 30.81875Q362.63126 30.81875 361.45938 29.56875Q360.30313 28.303125 360.30313 25.975Q360.30313 24.459375 360.80313 23.334375Q361.30313 22.19375 362.31876 21.63125Q363.35 21.053125 364.55313 21.053125Q366.08438 21.053125 367.0375 21.834375Q368.00626 22.6 368.2875 24.00625L366.74063 24.240625Q366.52188 23.303125 365.95938 22.834375Q365.4125 22.35 364.61563 22.35Q363.42813 22.35 362.67813 23.209375Q361.92813 24.06875 361.92813 25.928125Q361.92813 27.803125 362.64688 28.6625Q363.36563 29.50625 364.5375 29.50625Q365.45938 29.50625 366.08438 28.94375Q366.70938 28.365625 366.88126 27.178125ZM369.70938 34.19375L369.5375 32.709373Q370.05313 32.85 370.44376 32.85Q370.975 32.85 371.2875 32.678123Q371.6 32.50625 371.80313 32.178123Q371.95938 31.94375 372.2875 31.00625Q372.33438 30.865625 372.42813 30.615625L368.89688 21.271875L370.6 21.271875L372.5375 26.678125Q372.9125 27.69375 373.20938 28.834375Q373.49063 27.740625 373.86563 26.709375L375.86563 21.271875L377.44376 21.271875L373.89688 30.75625Q373.31876 32.303123 373.00626 32.88125Q372.58438 33.6625 372.0375 34.021873Q371.49063 34.38125 370.74063 34.38125Q370.27188 34.38125 369.70938 34.19375ZM383.80313 19.5375L383.80313 17.709375L385.38126 17.709375L385.38126 19.5375L383.80313 19.5375ZM383.80313 30.6L383.80313 21.271875L385.38126 21.271875L385.38126 30.6L383.80313 30.6ZM387.14688 27.81875L388.725 27.56875Q388.85 28.50625 389.44376 29.00625Q390.05313 29.50625 391.13126 29.50625Q392.225 29.50625 392.75626 29.06875Q393.2875 28.615625 393.2875 28.021875Q393.2875 27.490625 392.81876 27.178125Q392.49063 26.975 391.19376 26.646875Q389.45938 26.209375 388.7875 25.896875Q388.11563 25.56875 387.75626 25.00625Q387.4125 24.428125 387.4125 23.740625Q387.4125 23.115625 387.69376 22.584375Q387.99063 22.053125 388.475 21.709375Q388.85 21.428125 389.49063 21.240625Q390.13126 21.053125 390.85 21.053125Q391.95938 21.053125 392.7875 21.38125Q393.61563 21.69375 394.00626 22.240625Q394.4125 22.771875 394.55313 23.678125L393.00626 23.88125Q392.89688 23.1625 392.39688 22.75625Q391.89688 22.35 390.975 22.35Q389.88126 22.35 389.4125 22.709375Q388.94376 23.06875 388.94376 23.553125Q388.94376 23.865625 389.14688 24.115625Q389.33438 24.365625 389.74063 24.5375Q389.99063 24.615625 391.14688 24.94375Q392.81876 25.38125 393.475 25.678125Q394.14688 25.959375 394.52188 26.50625Q394.9125 27.053125 394.9125 27.85Q394.9125 28.646875 394.44376 29.35Q393.99063 30.053125 393.11563 30.44375Q392.24063 30.81875 391.14688 30.81875Q389.31876 30.81875 388.36563 30.06875Q387.4125 29.303125 387.14688 27.81875ZM401.9125 30.6L401.9125 17.709375L406.75626 17.709375Q408.225 17.709375 409.11563 18.1Q410.00626 18.490625 410.50626 19.303125Q411.02188 20.115625 411.02188 21.00625Q411.02188 21.834375 410.56876 22.56875Q410.13126 23.303125 409.225 23.740625Q410.39688 24.084375 411.02188 24.9125Q411.64688 25.740625 411.64688 26.865625Q411.64688 27.771875 411.25626 28.553125Q410.88126 29.31875 410.31876 29.740625Q409.75626 30.1625 408.9125 30.38125Q408.06876 30.6 406.83438 30.6L401.9125 30.6ZM403.63126 23.13125L406.4125 23.13125Q407.5375 23.13125 408.0375 22.975Q408.69376 22.7875 409.02188 22.35Q409.35 21.896875 409.35 21.209375Q409.35 20.56875 409.0375 20.084375Q408.725 19.6 408.14688 19.428125Q407.58438 19.240625 406.19376 19.240625L403.63126 19.240625L403.63126 23.13125ZM403.63126 29.084375L406.83438 29.084375Q407.6625 29.084375 407.99063 29.021875Q408.58438 28.9125 408.975 28.6625Q409.36563 28.4125 409.61563 27.94375Q409.88126 27.475 409.88126 26.865625Q409.88126 26.146875 409.50626 25.615625Q409.14688 25.084375 408.49063 24.865625Q407.83438 24.646875 406.6 24.646875L403.63126 24.646875L403.63126 29.084375ZM420.17813 27.6L421.81876 27.803125Q421.42813 29.225 420.38126 30.021875Q419.33438 30.81875 417.70938 30.81875Q415.6625 30.81875 414.45938 29.553125Q413.25626 28.2875 413.25626 26.00625Q413.25626 23.6625 414.45938 22.365625Q415.67813 21.053125 417.61563 21.053125Q419.49063 21.053125 420.67813 22.334375Q421.86563 23.6 421.86563 25.9125Q421.86563 26.053125 421.85 26.334375L414.89688 26.334375Q414.975 27.88125 415.75626 28.69375Q416.55313 29.50625 417.70938 29.50625Q418.58438 29.50625 419.19376 29.053125Q419.81876 28.6 420.17813 27.6ZM414.975 25.0375L420.19376 25.0375Q420.08438 23.865625 419.6 23.271875Q418.83438 22.35 417.63126 22.35Q416.55313 22.35 415.80313 23.084375Q415.06876 23.81875 414.975 25.0375ZM427.24063 29.178125L427.475 30.584375Q426.80313 30.725 426.27188 30.725Q425.4125 30.725 424.92813 30.459375Q424.45938 30.178125 424.27188 29.740625Q424.08438 29.2875 424.08438 27.865625L424.08438 22.490625L422.9125 22.490625L422.9125 21.271875L424.08438 21.271875L424.08438 18.959375L425.64688 18.00625L425.64688 21.271875L427.24063 21.271875L427.24063 22.490625L425.64688 22.490625L425.64688 27.959375Q425.64688 28.63125 425.725 28.834375Q425.81876 29.021875 426.00626 29.13125Q426.19376 29.240625 426.55313 29.240625Q426.80313 29.240625 427.24063 29.178125ZM432.24063 29.178125L432.475 30.584375Q431.80313 30.725 431.27188 30.725Q430.4125 30.725 429.92813 30.459375Q429.45938 30.178125 429.27188 29.740625Q429.08438 29.2875 429.08438 27.865625L429.08438 22.490625L427.9125 22.490625L427.9125 21.271875L429.08438 21.271875L429.08438 18.959375L430.64688 18.00625L430.64688 21.271875L432.24063 21.271875L432.24063 22.490625L430.64688 22.490625L430.64688 27.959375Q430.64688 28.63125 430.725 28.834375Q430.81876 29.021875 431.00626 29.13125Q431.19376 29.240625 431.55313 29.240625Q431.80313 29.240625 432.24063 29.178125ZM440.17813 27.6L441.81876 27.803125Q441.42813 29.225 440.38126 30.021875Q439.33438 30.81875 437.70938 30.81875Q435.6625 30.81875 434.45938 29.553125Q433.25626 28.2875 433.25626 26.00625Q433.25626 23.6625 434.45938 22.365625Q435.67813 21.053125 437.61563 21.053125Q439.49063 21.053125 440.67813 22.334375Q441.86563 23.6 441.86563 25.9125Q441.86563 26.053125 441.85 26.334375L434.89688 26.334375Q434.975 27.88125 435.75626 28.69375Q436.55313 29.50625 437.70938 29.50625Q438.58438 29.50625 439.19376 29.053125Q439.81876 28.6 440.17813 27.6ZM434.975 25.0375L440.19376 25.0375Q440.08438 23.865625 439.6 23.271875Q438.83438 22.35 437.63126 22.35Q436.55313 22.35 435.80313 23.084375Q435.06876 23.81875 434.975 25.0375ZM443.77188 30.6L443.77188 21.271875L445.19376 21.271875L445.19376 22.678125Q445.74063 21.69375 446.19376 21.38125Q446.6625 21.053125 447.20938 21.053125Q448.02188 21.053125 448.83438 21.56875L448.30313 23.0375Q447.70938 22.69375 447.13126 22.69375Q446.61563 22.69375 446.19376 23.00625Q445.7875 23.31875 445.61563 23.865625Q445.35 24.709375 445.35 25.709375L445.35 30.6L443.77188 30.6ZM450.24063 30.6L450.24063 28.803125L452.0375 28.803125L452.0375 30.6L450.24063 30.6Z" fill-rule="nonzero"/></svg>