<svg version="1.1" viewBox="0.0 0.0 708.0 272.0" fill="none" stroke="none" stroke-linecap="square" stroke-miterlimit="10" width="708" height="272" xmlns:xlink="http://www.w3.org/1999/xlink" xmlns="http://www.w3.org/2000/svg"><path fill="#ffffff" d="M0 0L708.0 0L708.0 272.0L0 272.0L0 0Z" fill-rule="nonzero"/><path stroke="#333333" stroke-width="1.0" stroke-linecap="butt" d="M81.5 76.5L81.5 198.5" fill-rule="nonzero"/><path stroke="#cccccc" stroke-width="1.0" stroke-linecap="butt" d="M149.5 76.5L149.5 198.5" fill-rule="nonzero"/><path stroke="#cccccc" stroke-width="1.0" stroke-linecap="butt" d="M217.5 76.5L217.5 198.5" fill-rule="nonzero"/><path stroke="#cccccc" stroke-width="1.0" stroke-linecap="butt" d="M285.5 76.5L285.5 198.5" fill-rule="nonzero"/><path stroke="#cccccc" stroke-width="1.0" stroke-linecap="butt" d="M353.5 76.5L353.5 198.5" fill-rule="nonzero"/><path stroke="#cccccc" stroke-width="1.0" stroke-linecap="butt" d="M422.5 76.5L422.5 198.5" fill-rule="nonzero"/><path stroke="#cccccc" stroke-width="1.0" stroke-linecap="butt" d="M490.5 76.5L490.5 198.5" fill-rule="nonzero"/><path stroke="#cccccc" stroke-width="1.0" stroke-linecap="butt" d="M558.5 76.5L558.5 198.5" fill-rule="nonzero"/><path stroke="#cccccc" stroke-width="1.0" stroke-linecap="butt" d="M626.5 76.5L626.5 198.5" fill-rule="nonzero"/><path stroke="#cccccc" stroke-width="1.0" stroke-linecap="butt" d="M694.5 76.5L694.5 198.5" fill-rule="nonzero"/><path stroke="#333333" stroke-width="1.0" stroke-linecap="butt" d="M81.5 198.5L694.5 198.5" fill-rule="nonzero"/><path stroke="#cccccc" stroke-width="1.0" stroke-linecap="butt" d="M81.5 167.5L694.5 167.5" fill-rule="nonzero"/><path stroke="#cccccc" stroke-width="1.0" stroke-linecap="butt" d="M81.5 137.5L694.5 137.5" fill-rule="nonzero"/><path stroke="#cccccc" stroke-width="1.0" stroke-linecap="butt" d="M81.5 107.5L694.5 107.5" fill-rule="nonzero"/><path stroke="#cccccc" stroke-width="1.0" stroke-linecap="butt" d="M81.5 76.5L694.5 76.5" fill-rule="nonzero"/><clipPath id="id_0"><path d="M81.6 76.73333L694.4 76.73333L694.4 198.4L81.6 198.4L81.6 76.73333Z" clip-rule="nonzero"/></clipPath><path stroke="#30a2ff" stroke-width="2.0" stroke-linecap="butt" clip-path="url(#id_0)" d="M115.64445 192.537L149.68889 190.66527L217.77777 167.92052L353.95557 41.58181L626.3111 -89.6592" fill-rule="nonzero"/><path stroke="#6aa84f" stroke-width="2.0" stroke-linecap="butt" clip-path="url(#id_0)" d="M115.64445 193.67325L149.68889 192.82158L217.77777 191.95775L353.95557 165.06334L626.3111 101.07275" fill-rule="nonzero"/><path stroke="#ff6d01" stroke-width="2.0" stroke-linecap="butt" clip-path="url(#id_0)" d="M115.64445 194.02383L149.68889 193.24402L217.77777 191.29045L353.95557 169.2815L626.3111 99.695496" fill-rule="nonzero"/><path fill="#000000" fill-opacity="0.0" clip-path="url(#id_0)" d="M118.64445 192.537C118.64445 194.19385 117.3013 195.537 115.64445 195.537C113.98759 195.537 112.64445 194.19385 112.64445 192.537C112.64445 190.88014 113.98759 189.537 115.64445 189.537C117.3013 189.537 118.64445 190.88014 118.64445 192.537Z" fill-rule="nonzero"/><path fill="#000000" fill-opacity="0.0" clip-path="url(#id_0)" d="M152.68889 190.66527C152.68889 192.32213 151.34575 193.66527 149.68889 193.66527C148.03203 193.66527 146.68889 192.32213 146.68889 190.66527C146.68889 189.0084 148.03203 187.66527 149.68889 187.66527C151.34575 187.66527 152.68889 189.0084 152.68889 190.66527Z" fill-rule="nonzero"/><path fill="#000000" fill-opacity="0.0" clip-path="url(#id_0)" d="M220.77777 167.92052C220.77777 169.57736 219.43463 170.92052 217.77777 170.92052C216.12093 170.92052 214.77777 169.57736 214.77777 167.92052C214.77777 166.26366 216.12093 164.92052 217.77777 164.92052C219.43463 164.92052 220.77777 166.26366 220.77777 167.92052Z" fill-rule="nonzero"/><path fill="#000000" fill-opacity="0.0" clip-path="url(#id_0)" d="M356.95557 41.58181C356.95557 43.238663 355.6124 44.58181 353.95557 44.58181C352.2987 44.58181 350.95557 43.238663 350.95557 41.58181C350.95557 39.924953 352.2987 38.58181 353.95557 38.58181C355.6124 38.58181 356.95557 39.924953 356.95557 41.58181Z" fill-rule="nonzero"/><path fill="#000000" fill-opacity="0.0" clip-path="url(#id_0)" d="M629.3111 -89.6592C629.3111 -88.00235 627.96796 -86.6592 626.3111 -86.6592C624.65424 -86.6592 623.3111 -88.00235 623.3111 -89.6592C623.3111 -91.316055 624.65424 -92.6592 626.3111 -92.6592C627.96796 -92.6592 629.3111 -91.316055 629.3111 -89.6592Z" fill-rule="nonzero"/><path fill="#000000" fill-opacity="0.0" clip-path="url(#id_0)" d="M118.64445 193.67325C118.64445 195.33011 117.3013 196.67325 115.64445 196.67325C113.98759 196.67325 112.64445 195.33011 112.64445 193.67325C112.64445 192.0164 113.98759 190.67325 115.64445 190.67325C117.3013 190.67325 118.64445 192.0164 118.64445 193.67325Z" fill-rule="nonzero"/><path fill="#000000" fill-opacity="0.0" clip-path="url(#id_0)" d="M152.68889 192.82158C152.68889 194.47844 151.34575 195.82158 149.68889 195.82158C148.03203 195.82158 146.68889 194.47844 146.68889 192.82158C146.68889 191.16473 148.03203 189.82158 149.68889 189.82158C151.34575 189.82158 152.68889 191.16473 152.68889 192.82158Z" fill-rule="nonzero"/><path fill="#000000" fill-opacity="0.0" clip-path="url(#id_0)" d="M220.77777 191.95775C220.77777 193.61461 219.43463 194.95775 217.77777 194.95775C216.12093 194.95775 214.77777 193.61461 214.77777 191.95775C214.77777 190.3009 216.12093 188.95775 217.77777 188.95775C219.43463 188.95775 220.77777 190.3009 220.77777 191.95775Z" fill-rule="nonzero"/><path fill="#000000" fill-opacity="0.0" clip-path="url(#id_0)" d="M356.95557 165.06334C356.95557 166.72018 355.6124 168.06334 353.95557 168.06334C352.2987 168.06334 350.95557 166.72018 350.95557 165.06334C350.95557 163.40648 352.2987 162.06334 353.95557 162.06334C355.6124 162.06334 356.95557 163.40648 356.95557 165.06334Z" fill-rule="nonzero"/><path fill="#000000" fill-opacity="0.0" clip-path="url(#id_0)" d="M629.3111 101.07275C629.3111 102.72961 627.96796 104.07275 626.3111 104.07275C624.65424 104.07275 623.3111 102.72961 623.3111 101.07275C623.3111 99.41589 624.65424 98.07275 626.3111 98.07275C627.96796 98.07275 629.3111 99.41589 629.3111 101.07275Z" fill-rule="nonzero"/><path fill="#000000" fill-opacity="0.0" clip-path="url(#id_0)" d="M118.64445 194.02383C118.64445 195.6807 117.3013 197.02383 115.64445 197.02383C113.98759 197.02383 112.64445 195.6807 112.64445 194.02383C112.64445 192.36699 113.98759 191.02383 115.64445 191.02383C117.3013 191.02383 118.64445 192.36699 118.64445 194.02383Z" fill-rule="nonzero"/><path fill="#000000" fill-opacity="0.0" clip-path="url(#id_0)" d="M152.68889 193.24402C152.68889 194.90088 151.34575 196.24402 149.68889 196.24402C148.03203 196.24402 146.68889 194.90088 146.68889 193.24402C146.68889 191.58717 148.03203 190.24402 149.68889 190.24402C151.34575 190.24402 152.68889 191.58717 152.68889 193.24402Z" fill-rule="nonzero"/><path fill="#000000" fill-opacity="0.0" clip-path="url(#id_0)" d="M220.77777 191.29045C220.77777 192.94731 219.43463 194.29045 217.77777 194.29045C216.12093 194.29045 214.77777 192.94731 214.77777 191.29045C214.77777 189.63359 216.12093 188.29045 217.77777 188.29045C219.43463 188.29045 220.77777 189.63359 220.77777 191.29045Z" fill-rule="nonzero"/><path fill="#000000" fill-opacity="0.0" clip-path="url(#id_0)" d="M356.95557 169.2815C356.95557 170.93835 355.6124 172.2815 353.95557 172.2815C352.2987 172.2815 350.95557 170.93835 350.95557 169.2815C350.95557 167.62465 352.2987 166.2815 353.95557 166.2815C355.6124 166.2815 356.95557 167.62465 356.95557 169.2815Z" fill-rule="nonzero"/><path fill="#000000" fill-opacity="0.0" clip-path="url(#id_0)" d="M629.3111 99.695496C629.3111 101.35235 627.96796 102.695496 626.3111 102.695496C624.65424 102.695496 623.3111 101.35235 623.3111 99.695496C623.3111 98.03864 624.65424 96.695496 626.3111 96.695496C627.96796 96.695496 629.3111 98.03864 629.3111 99.695496Z" fill-rule="nonzero"/><path fill="#000000" d="M320.09375 255.4L320.09375 245.38437L324.54688 245.38437Q325.89062 245.38437 326.57812 245.65Q327.28125 245.91562 327.6875 246.60312Q328.10938 247.29062 328.10938 248.11874Q328.10938 249.18124 327.42188 249.91562Q326.73438 250.63437 325.29688 250.8375Q325.8125 251.0875 326.09375 251.3375Q326.67188 251.86874 327.1875 252.66562L328.9375 255.4L327.26562 255.4L325.9375 253.32187Q325.35938 252.41562 324.98438 251.94687Q324.60938 251.4625 324.3125 251.275Q324.01562 251.07187 323.70312 250.99374Q323.48438 250.94687 322.96875 250.94687L321.42188 250.94687L321.42188 255.4L320.09375 255.4ZM321.42188 249.80624L324.28125 249.80624Q325.1875 249.80624 325.70312 249.61874Q326.21875 249.43124 326.48438 249.025Q326.75 248.60312 326.75 248.11874Q326.75 247.4 326.23438 246.94687Q325.71875 246.47812 324.59375 246.47812L321.42188 246.47812L321.42188 249.80624ZM334.89062 253.05624L336.17188 253.2125Q335.85938 254.3375 335.04688 254.9625Q334.23438 255.57187 332.96875 255.57187Q331.375 255.57187 330.4375 254.5875Q329.51562 253.60312 329.51562 251.8375Q329.51562 249.99374 330.45312 248.99374Q331.40625 247.97812 332.90625 247.97812Q334.35938 247.97812 335.28125 248.97812Q336.20312 249.9625 336.20312 251.75937Q336.20312 251.86874 336.20312 252.0875L330.78125 252.0875Q330.85938 253.275 331.45312 253.91562Q332.0625 254.55624 332.98438 254.55624Q333.65625 254.55624 334.125 254.19687Q334.60938 253.8375 334.89062 253.05624ZM330.85938 251.07187L334.90625 251.07187Q334.82812 250.15 334.4375 249.69687Q333.85938 248.99374 332.92188 248.99374Q332.0625 248.99374 331.48438 249.55624Q330.92188 250.11874 330.85938 251.07187ZM342.54688 258.18124L342.54688 254.63437Q342.26562 255.025 341.75 255.30624Q341.23438 255.57187 340.65625 255.57187Q339.35938 255.57187 338.42188 254.54062Q337.5 253.49374 337.5 251.69687Q337.5 250.60312 337.875 249.74374Q338.25 248.86874 338.96875 248.43124Q339.6875 247.97812 340.5625 247.97812Q341.90625 247.97812 342.67188 249.10312L342.67188 248.13437L343.78125 248.13437L343.78125 258.18124L342.54688 258.18124ZM338.75 251.74374Q338.75 253.15 339.34375 253.85312Q339.9375 254.55624 340.75 254.55624Q341.54688 254.55624 342.10938 253.88437Q342.67188 253.2125 342.67188 251.85312Q342.67188 250.41562 342.07812 249.68124Q341.48438 248.94687 340.67188 248.94687Q339.875 248.94687 339.3125 249.63437Q338.75 250.30624 338.75 251.74374ZM350.6875 255.4L350.6875 254.3375Q349.82812 255.57187 348.375 255.57187Q347.73438 255.57187 347.17188 255.32187Q346.625 255.07187 346.34375 254.69687Q346.07812 254.32187 345.96875 253.79062Q345.89062 253.43124 345.89062 252.63437L345.89062 248.13437L347.125 248.13437L347.125 252.16562Q347.125 253.13437 347.20312 253.4625Q347.3125 253.94687 347.6875 254.22812Q348.0625 254.50937 348.625 254.50937Q349.17188 254.50937 349.65625 254.22812Q350.14062 253.93124 350.34375 253.44687Q350.54688 252.9625 350.54688 252.025L350.54688 248.13437L351.78125 248.13437L351.78125 255.4L350.6875 255.4ZM358.89062 253.05624L360.17188 253.2125Q359.85938 254.3375 359.04688 254.9625Q358.23438 255.57187 356.96875 255.57187Q355.375 255.57187 354.4375 254.5875Q353.51562 253.60312 353.51562 251.8375Q353.51562 249.99374 354.45312 248.99374Q355.40625 247.97812 356.90625 247.97812Q358.35938 247.97812 359.28125 248.97812Q360.20312 249.9625 360.20312 251.75937Q360.20312 251.86874 360.20312 252.0875L354.78125 252.0875Q354.85938 253.275 355.45312 253.91562Q356.0625 254.55624 356.98438 254.55624Q357.65625 254.55624 358.125 254.19687Q358.60938 253.8375 358.89062 253.05624ZM354.85938 251.07187L358.90625 251.07187Q358.82812 250.15 358.4375 249.69687Q357.85938 248.99374 356.92188 248.99374Q356.0625 248.99374 355.48438 249.55624Q354.92188 250.11874 354.85938 251.07187ZM361.4375 253.22812L362.64062 253.04062Q362.75 253.775 363.21875 254.16562Q363.6875 254.55624 364.53125 254.55624Q365.375 254.55624 365.78125 254.2125Q366.20312 253.86874 366.20312 253.4Q366.20312 252.97812 365.82812 252.74374Q365.57812 252.57187 364.57812 252.32187Q363.21875 251.97812 362.6875 251.72812Q362.17188 251.47812 361.90625 251.04062Q361.64062 250.60312 361.64062 250.07187Q361.64062 249.5875 361.85938 249.18124Q362.07812 248.75937 362.46875 248.47812Q362.75 248.275 363.23438 248.13437Q363.73438 247.97812 364.3125 247.97812Q365.15625 247.97812 365.79688 248.22812Q366.45312 248.4625 366.76562 248.88437Q367.07812 249.30624 367.1875 250.00937L365.98438 250.18124Q365.90625 249.61874 365.5 249.30624Q365.10938 248.99374 364.39062 248.99374Q363.54688 248.99374 363.1875 249.275Q362.82812 249.54062 362.82812 249.93124Q362.82812 250.16562 362.96875 250.35312Q363.125 250.55624 363.45312 250.68124Q363.625 250.74374 364.53125 250.99374Q365.84375 251.35312 366.35938 251.57187Q366.875 251.79062 367.15625 252.2125Q367.45312 252.63437 367.45312 253.25937Q367.45312 253.88437 367.09375 254.43124Q366.75 254.9625 366.0625 255.275Q365.39062 255.57187 364.53125 255.57187Q363.125 255.57187 362.375 254.97812Q361.64062 254.38437 361.4375 253.22812ZM371.60938 254.30624L371.78125 255.38437Q371.26562 255.49374 370.85938 255.49374Q370.1875 255.49374 369.8125 255.29062Q369.45312 255.07187 369.29688 254.72812Q369.15625 254.38437 369.15625 253.275L369.15625 249.10312L368.25 249.10312L368.25 248.13437L369.15625 248.13437L369.15625 246.3375L370.375 245.60312L370.375 248.13437L371.60938 248.13437L371.60938 249.10312L370.375 249.10312L370.375 253.3375Q370.375 253.86874 370.4375 254.025Q370.5 254.16562 370.64062 254.25937Q370.79688 254.35312 371.0625 254.35312Q371.28125 254.35312 371.60938 254.30624ZM372.4375 253.22812L373.64062 253.04062Q373.75 253.775 374.21875 254.16562Q374.6875 254.55624 375.53125 254.55624Q376.375 254.55624 376.78125 254.2125Q377.20312 253.86874 377.20312 253.4Q377.20312 252.97812 376.82812 252.74374Q376.57812 252.57187 375.57812 252.32187Q374.21875 251.97812 373.6875 251.72812Q373.17188 251.47812 372.90625 251.04062Q372.64062 250.60312 372.64062 250.07187Q372.64062 249.5875 372.85938 249.18124Q373.07812 248.75937 373.46875 248.47812Q373.75 248.275 374.23438 248.13437Q374.73438 247.97812 375.3125 247.97812Q376.15625 247.97812 376.79688 248.22812Q377.45312 248.4625 377.76562 248.88437Q378.07812 249.30624 378.1875 250.00937L376.98438 250.18124Q376.90625 249.61874 376.5 249.30624Q376.10938 248.99374 375.39062 248.99374Q374.54688 248.99374 374.1875 249.275Q373.82812 249.54062 373.82812 249.93124Q373.82812 250.16562 373.96875 250.35312Q374.125 250.55624 374.45312 250.68124Q374.625 250.74374 375.53125 250.99374Q376.84375 251.35312 377.35938 251.57187Q377.875 251.79062 378.15625 252.2125Q378.45312 252.63437 378.45312 253.25937Q378.45312 253.88437 378.09375 254.43124Q377.75 254.9625 377.0625 255.275Q376.39062 255.57187 375.53125 255.57187Q374.125 255.57187 373.375 254.97812Q372.64062 254.38437 372.4375 253.22812ZM384.07812 255.4L384.07812 245.38437L387.85938 245.38437Q388.85938 245.38437 389.39062 245.47812Q390.125 245.60312 390.625 245.94687Q391.125 246.29062 391.42188 246.91562Q391.73438 247.525 391.73438 248.275Q391.73438 249.55624 390.92188 250.44687Q390.10938 251.32187 387.98438 251.32187L385.40625 251.32187L385.40625 255.4L384.07812 255.4ZM385.40625 250.15L388.0 250.15Q389.28125 250.15 389.8125 249.66562Q390.35938 249.18124 390.35938 248.32187Q390.35938 247.68124 390.04688 247.24374Q389.73438 246.79062 389.20312 246.65Q388.875 246.55624 387.96875 246.55624L385.40625 246.55624L385.40625 250.15ZM397.89062 253.05624L399.17188 253.2125Q398.85938 254.3375 398.04688 254.9625Q397.23438 255.57187 395.96875 255.57187Q394.375 255.57187 393.4375 254.5875Q392.51562 253.60312 392.51562 251.8375Q392.51562 249.99374 393.45312 248.99374Q394.40625 247.97812 395.90625 247.97812Q397.35938 247.97812 398.28125 248.97812Q399.20312 249.9625 399.20312 251.75937Q399.20312 251.86874 399.20312 252.0875L393.78125 252.0875Q393.85938 253.275 394.45312 253.91562Q395.0625 254.55624 395.98438 254.55624Q396.65625 254.55624 397.125 254.19687Q397.60938 253.8375 397.89062 253.05624ZM393.85938 251.07187L397.90625 251.07187Q397.82812 250.15 397.4375 249.69687Q396.85938 248.99374 395.92188 248.99374Q395.0625 248.99374 394.48438 249.55624Q393.92188 250.11874 393.85938 251.07187ZM400.90625 255.4L400.90625 248.13437L402.01562 248.13437L402.01562 249.24374Q402.4375 248.4625 402.79688 248.22812Q403.15625 247.97812 403.59375 247.97812Q404.21875 247.97812 404.85938 248.36874L404.4375 249.50937Q403.98438 249.24374 403.53125 249.24374Q403.125 249.24374 402.79688 249.49374Q402.48438 249.72812 402.34375 250.16562Q402.14062 250.82187 402.14062 251.60312L402.14062 255.4L400.90625 255.4ZM409.625 252.18124L410.875 252.07187Q410.96875 252.82187 411.29688 253.30624Q411.625 253.79062 412.29688 254.0875Q412.98438 254.38437 413.84375 254.38437Q414.59375 254.38437 415.17188 254.16562Q415.76562 253.93124 416.04688 253.54062Q416.32812 253.15 416.32812 252.68124Q416.32812 252.2125 416.04688 251.86874Q415.78125 251.50937 415.15625 251.25937Q414.75 251.10312 413.35938 250.775Q411.98438 250.44687 411.4375 250.15Q410.71875 249.775 410.35938 249.22812Q410.01562 248.66562 410.01562 247.9625Q410.01562 247.2125 410.4375 246.55624Q410.875 245.88437 411.70312 245.55624Q412.53125 245.2125 413.54688 245.2125Q414.65625 245.2125 415.5 245.57187Q416.35938 245.93124 416.8125 246.63437Q417.26562 247.32187 417.3125 248.19687L416.03125 248.29062Q415.9375 247.35312 415.34375 246.86874Q414.75 246.36874 413.59375 246.36874Q412.39062 246.36874 411.84375 246.82187Q411.29688 247.25937 411.29688 247.88437Q411.29688 248.41562 411.6875 248.775Q412.0625 249.11874 413.67188 249.49374Q415.29688 249.85312 415.89062 250.11874Q416.76562 250.525 417.1875 251.15Q417.60938 251.75937 417.60938 252.57187Q417.60938 253.36874 417.14062 254.0875Q416.6875 254.79062 415.82812 255.18124Q414.96875 255.57187 413.90625 255.57187Q412.54688 255.57187 411.625 255.18124Q410.70312 254.775 410.17188 253.97812Q409.65625 253.18124 409.625 252.18124ZM423.89062 253.05624L425.17188 253.2125Q424.85938 254.3375 424.04688 254.9625Q423.23438 255.57187 421.96875 255.57187Q420.375 255.57187 419.4375 254.5875Q418.51562 253.60312 418.51562 251.8375Q418.51562 249.99374 419.45312 248.99374Q420.40625 247.97812 421.90625 247.97812Q423.35938 247.97812 424.28125 248.97812Q425.20312 249.9625 425.20312 251.75937Q425.20312 251.86874 425.20312 252.0875L419.78125 252.0875Q419.85938 253.275 420.45312 253.91562Q421.0625 254.55624 421.98438 254.55624Q422.65625 254.55624 423.125 254.19687Q423.60938 253.8375 423.89062 253.05624ZM419.85938 251.07187L423.90625 251.07187Q423.82812 250.15 423.4375 249.69687Q422.85938 248.99374 421.92188 248.99374Q421.0625 248.99374 420.48438 249.55624Q419.92188 250.11874 419.85938 251.07187ZM431.65625 252.74374L432.875 252.9Q432.67188 254.15 431.84375 254.86874Q431.03125 255.57187 429.84375 255.57187Q428.35938 255.57187 427.45312 254.60312Q426.54688 253.61874 426.54688 251.79062Q426.54688 250.61874 426.9375 249.74374Q427.32812 248.85312 428.125 248.41562Q428.92188 247.97812 429.85938 247.97812Q431.03125 247.97812 431.78125 248.57187Q432.54688 249.16562 432.75 250.275L431.5625 250.4625Q431.39062 249.72812 430.95312 249.36874Q430.51562 248.99374 429.90625 248.99374Q428.96875 248.99374 428.39062 249.66562Q427.8125 250.32187 427.8125 251.75937Q427.8125 253.22812 428.375 253.9Q428.9375 254.55624 429.82812 254.55624Q430.5625 254.55624 431.04688 254.11874Q431.53125 253.66562 431.65625 252.74374ZM433.46875 251.775Q433.46875 249.75937 434.59375 248.775Q435.51562 247.97812 436.875 247.97812Q438.35938 247.97812 439.3125 248.9625Q440.26562 249.93124 440.26562 251.66562Q440.26562 253.07187 439.84375 253.88437Q439.42188 254.68124 438.60938 255.13437Q437.8125 255.57187 436.875 255.57187Q435.34375 255.57187 434.40625 254.5875Q433.46875 253.60312 433.46875 251.775ZM434.73438 251.775Q434.73438 253.16562 435.34375 253.86874Q435.95312 254.55624 436.875 254.55624Q437.78125 254.55624 438.39062 253.85312Q439.0 253.15 439.0 251.72812Q439.0 250.38437 438.39062 249.69687Q437.78125 248.99374 436.875 248.99374Q435.95312 248.99374 435.34375 249.68124Q434.73438 250.36874 434.73438 251.775ZM441.92188 255.4L441.92188 248.13437L443.03125 248.13437L443.03125 249.16562Q443.82812 247.97812 445.34375 247.97812Q446.0 247.97812 446.54688 248.2125Q447.09375 248.44687 447.35938 248.8375Q447.64062 249.2125 447.75 249.74374Q447.82812 250.0875 447.82812 250.93124L447.82812 255.4L446.59375 255.4L446.59375 250.97812Q446.59375 250.22812 446.45312 249.86874Q446.3125 249.49374 445.9375 249.275Q445.57812 249.04062 445.07812 249.04062Q444.29688 249.04062 443.71875 249.54062Q443.15625 250.04062 443.15625 251.43124L443.15625 255.4L441.92188 255.4ZM454.64062 255.4L454.64062 254.47812Q453.9375 255.57187 452.60938 255.57187Q451.73438 255.57187 451.0 255.0875Q450.28125 254.60312 449.875 253.74374Q449.48438 252.88437 449.48438 251.775Q449.48438 250.69687 449.84375 249.80624Q450.20312 248.91562 450.92188 248.44687Q451.65625 247.97812 452.54688 247.97812Q453.20312 247.97812 453.71875 248.25937Q454.23438 248.525 454.54688 248.97812L454.54688 245.38437L455.78125 245.38437L455.78125 255.4L454.64062 255.4ZM450.75 251.775Q450.75 253.16562 451.32812 253.86874Q451.92188 254.55624 452.71875 254.55624Q453.53125 254.55624 454.09375 253.9Q454.65625 253.22812 454.65625 251.88437Q454.65625 250.38437 454.07812 249.69687Q453.5 248.99374 452.67188 248.99374Q451.84375 248.99374 451.29688 249.66562Q450.75 250.3375 450.75 251.775Z" fill-rule="nonzero"/><path fill="#000000" d="M26.599995 204.51979L16.58437 204.51979L16.58437 202.53542L23.67812 200.16042Q24.662495 199.83229 25.162495 199.67604Q24.61562 199.50417 23.55312 199.14479L16.58437 196.75417L16.58437 194.95729L26.599995 194.95729L26.599995 196.23854L18.20937 196.23854L26.599995 199.16042L26.599995 200.34792L18.068745 203.25417L26.599995 203.25417L26.599995 204.51979ZM24.256245 188.67604L24.412495 187.39479Q25.537495 187.70729 26.162495 188.51979Q26.77187 189.33229 26.77187 190.59792Q26.77187 192.19167 25.787495 193.12917Q24.80312 194.05104 23.037495 194.05104Q21.193745 194.05104 20.193745 193.11354Q19.17812 192.16042 19.17812 190.66042Q19.17812 189.20729 20.17812 188.28542Q21.162495 187.36354 22.95937 187.36354Q23.068745 187.36354 23.287495 187.36354L23.287495 192.78542Q24.474995 192.70729 25.11562 192.11354Q25.756245 191.50417 25.756245 190.58229Q25.756245 189.91042 25.39687 189.44167Q25.037495 188.95729 24.256245 188.67604ZM22.27187 192.70729L22.27187 188.66042Q21.349995 188.73854 20.89687 189.12917Q20.193745 189.70729 20.193745 190.64479Q20.193745 191.50417 20.756245 192.08229Q21.318745 192.64479 22.27187 192.70729ZM26.599995 180.92604L25.67812 180.92604Q26.77187 181.62917 26.77187 182.95729Q26.77187 183.83229 26.287495 184.56667Q25.80312 185.28542 24.943745 185.69167Q24.08437 186.08229 22.974995 186.08229Q21.89687 186.08229 21.006245 185.72292Q20.11562 185.36354 19.64687 184.64479Q19.17812 183.91042 19.17812 183.01979Q19.17812 182.36354 19.45937 181.84792Q19.724995 181.33229 20.17812 181.01979L16.58437 181.01979L16.58437 179.78542L26.599995 179.78542L26.599995 180.92604ZM22.974995 184.81667Q24.36562 184.81667 25.068745 184.23854Q25.756245 183.64479 25.756245 182.84792Q25.756245 182.03542 25.099995 181.47292Q24.42812 180.91042 23.08437 180.91042Q21.58437 180.91042 20.89687 181.48854Q20.193745 182.06667 20.193745 182.89479Q20.193745 183.72292 20.86562 184.26979Q21.537495 184.81667 22.974995 184.81667ZM17.99062 177.62917L16.58437 177.62917L16.58437 176.41042L17.99062 176.41042L17.99062 177.62917ZM26.599995 177.62917L19.33437 177.62917L19.33437 176.41042L26.599995 176.41042L26.599995 177.62917ZM25.70937 169.91042Q26.287495 170.58229 26.537495 171.22292Q26.77187 171.84792 26.77187 172.58229Q26.77187 173.76979 26.193745 174.42604Q25.599995 175.06667 24.67812 175.06667Q24.14687 175.06667 23.70937 174.83229Q23.27187 174.58229 23.006245 174.19167Q22.74062 173.78542 22.599995 173.30104Q22.506245 172.94167 22.412495 172.20729Q22.24062 170.70729 21.99062 170.00417Q21.74062 170.00417 21.67812 170.00417Q20.912495 170.00417 20.61562 170.34792Q20.193745 170.81667 20.193745 171.75417Q20.193745 172.61354 20.506245 173.03542Q20.80312 173.44167 21.568745 173.64479L21.412495 174.84792Q20.631245 174.69167 20.162495 174.31667Q19.693745 173.92604 19.443745 173.22292Q19.17812 172.50417 19.17812 171.56667Q19.17812 170.64479 19.39687 170.06667Q19.61562 169.48854 19.943745 169.22292Q20.27187 168.94167 20.787495 168.83229Q21.099995 168.76979 21.912495 168.76979L23.55312 168.76979Q25.27187 168.76979 25.724995 168.69167Q26.17812 168.61354 26.599995 168.37917L26.599995 169.66042Q26.20937 169.84792 25.70937 169.91042ZM22.95937 170.00417Q23.224995 170.67604 23.42812 172.01979Q23.537495 172.76979 23.67812 173.09792Q23.80312 173.41042 24.068745 173.58229Q24.33437 173.75417 24.64687 173.75417Q25.14687 173.75417 25.474995 173.37917Q25.80312 173.00417 25.80312 172.28542Q25.80312 171.56667 25.49062 171.01979Q25.17812 170.47292 24.631245 170.20729Q24.224995 170.00417 23.412495 170.00417L22.95937 170.00417ZM26.599995 166.64479L19.33437 166.64479L19.33437 165.53542L20.36562 165.53542Q19.17812 164.73854 19.17812 163.22292Q19.17812 162.56667 19.412495 162.01979Q19.64687 161.47292 20.037495 161.20729Q20.412495 160.92604 20.943745 160.81667Q21.287495 160.73854 22.131245 160.73854L26.599995 160.73854L26.599995 161.97292L22.17812 161.97292Q21.42812 161.97292 21.068745 162.11354Q20.693745 162.25417 20.474995 162.62917Q20.24062 162.98854 20.24062 163.48854Q20.24062 164.26979 20.74062 164.84792Q21.24062 165.41042 22.631245 165.41042L26.599995 165.41042L26.599995 166.64479ZM26.599995 154.53542L16.58437 154.53542L16.58437 153.20729L25.412495 153.20729L25.412495 148.28542L26.599995 148.28542L26.599995 154.53542ZM25.70937 141.91042Q26.287495 142.58229 26.537495 143.22292Q26.77187 143.84792 26.77187 144.58229Q26.77187 145.76979 26.193745 146.42604Q25.599995 147.06667 24.67812 147.06667Q24.14687 147.06667 23.70937 146.83229Q23.27187 146.58229 23.006245 146.19167Q22.74062 145.78542 22.599995 145.30104Q22.506245 144.94167 22.412495 144.20729Q22.24062 142.70729 21.99062 142.00417Q21.74062 142.00417 21.67812 142.00417Q20.912495 142.00417 20.61562 142.34792Q20.193745 142.81667 20.193745 143.75417Q20.193745 144.61354 20.506245 145.03542Q20.80312 145.44167 21.568745 145.64479L21.412495 146.84792Q20.631245 146.69167 20.162495 146.31667Q19.693745 145.92604 19.443745 145.22292Q19.17812 144.50417 19.17812 143.56667Q19.17812 142.64479 19.39687 142.06667Q19.61562 141.48854 19.943745 141.22292Q20.27187 140.94167 20.787495 140.83229Q21.099995 140.76979 21.912495 140.76979L23.55312 140.76979Q25.27187 140.76979 25.724995 140.69167Q26.17812 140.61354 26.599995 140.37917L26.599995 141.66042Q26.20937 141.84792 25.70937 141.91042ZM22.95937 142.00417Q23.224995 142.67604 23.42812 144.01979Q23.537495 144.76979 23.67812 145.09792Q23.80312 145.41042 24.068745 145.58229Q24.33437 145.75417 24.64687 145.75417Q25.14687 145.75417 25.474995 145.37917Q25.80312 145.00417 25.80312 144.28542Q25.80312 143.56667 25.49062 143.01979Q25.17812 142.47292 24.631245 142.20729Q24.224995 142.00417 23.412495 142.00417L22.95937 142.00417ZM25.506245 135.95729L26.58437 135.78542Q26.693745 136.30104 26.693745 136.70729Q26.693745 137.37917 26.49062 137.75417Q26.27187 138.11354 25.92812 138.26979Q25.58437 138.41042 24.474995 138.41042L20.30312 138.41042L20.30312 139.31667L19.33437 139.31667L19.33437 138.41042L17.537495 138.41042L16.80312 137.19167L19.33437 137.19167L19.33437 135.95729L20.30312 135.95729L20.30312 137.19167L24.537495 137.19167Q25.068745 137.19167 25.224995 137.12917Q25.36562 137.06667 25.45937 136.92604Q25.55312 136.76979 25.55312 136.50417Q25.55312 136.28542 25.506245 135.95729ZM24.256245 129.67604L24.412495 128.39479Q25.537495 128.70729 26.162495 129.51979Q26.77187 130.33229 26.77187 131.59792Q26.77187 133.19167 25.787495 134.12917Q24.80312 135.05104 23.037495 135.05104Q21.193745 135.05104 20.193745 134.11354Q19.17812 133.16042 19.17812 131.66042Q19.17812 130.20729 20.17812 129.28542Q21.162495 128.36354 22.95937 128.36354Q23.068745 128.36354 23.287495 128.36354L23.287495 133.78542Q24.474995 133.70729 25.11562 133.11354Q25.756245 132.50417 25.756245 131.58229Q25.756245 130.91042 25.39687 130.44167Q25.037495 129.95729 24.256245 129.67604ZM22.27187 133.70729L22.27187 129.66042Q21.349995 129.73854 20.89687 130.12917Q20.193745 130.70729 20.193745 131.64479Q20.193745 132.50417 20.756245 133.08229Q21.318745 133.64479 22.27187 133.70729ZM26.599995 126.64479L19.33437 126.64479L19.33437 125.535416L20.36562 125.535416Q19.17812 124.73854 19.17812 123.222916Q19.17812 122.566666 19.412495 122.01979Q19.64687 121.472916 20.037495 121.20729Q20.412495 120.92604 20.943745 120.816666Q21.287495 120.73854 22.131245 120.73854L26.599995 120.73854L26.599995 121.972916L22.17812 121.972916Q21.42812 121.972916 21.068745 122.11354Q20.693745 122.254166 20.474995 122.629166Q20.24062 122.98854 20.24062 123.48854Q20.24062 124.26979 20.74062 124.847916Q21.24062 125.410416 22.631245 125.410416L26.599995 125.410416L26.599995 126.64479ZM23.943745 113.910416L24.099995 112.691666Q25.349995 112.89479 26.068745 113.722916Q26.77187 114.535416 26.77187 115.722916Q26.77187 117.20729 25.80312 118.11354Q24.818745 119.01979 22.99062 119.01979Q21.818745 119.01979 20.943745 118.629166Q20.05312 118.23854 19.61562 117.441666Q19.17812 116.64479 19.17812 115.70729Q19.17812 114.535416 19.77187 113.785416Q20.36562 113.01979 21.474995 112.816666L21.662495 114.004166Q20.92812 114.17604 20.568745 114.61354Q20.193745 115.05104 20.193745 115.660416Q20.193745 116.597916 20.86562 117.17604Q21.52187 117.754166 22.95937 117.754166Q24.42812 117.754166 25.099995 117.191666Q25.756245 116.629166 25.756245 115.73854Q25.756245 115.004166 25.318745 114.51979Q24.86562 114.035416 23.943745 113.910416ZM29.39687 111.691666L28.24062 111.83229Q28.349995 111.42604 28.349995 111.129166Q28.349995 110.722916 28.20937 110.472916Q28.08437 110.222916 27.83437 110.066666Q27.64687 109.95729 26.912495 109.691666Q26.818745 109.660416 26.61562 109.58229L19.33437 112.347916L19.33437 111.01979L23.537495 109.504166Q24.349995 109.20729 25.224995 108.972916Q24.381245 108.76979 23.568745 108.472916L19.33437 106.92604L19.33437 105.691666L26.724995 108.45729Q27.912495 108.89479 28.36562 109.14479Q28.974995 109.472916 29.256245 109.89479Q29.55312 110.316666 29.55312 110.910416Q29.55312 111.254166 29.39687 111.691666ZM29.55312 98.285416Q28.256245 99.316666 26.537495 100.01979Q24.818745 100.722916 22.974995 100.722916Q21.349995 100.722916 19.849995 100.191666Q18.11562 99.58229 16.412495 98.285416L16.412495 97.410416Q17.83437 98.23854 18.443745 98.504166Q19.381245 98.92604 20.412495 99.160416Q21.67812 99.45729 22.974995 99.45729Q26.27187 99.45729 29.55312 97.410416L29.55312 98.285416ZM24.42812 96.129166L24.24062 94.92604Q24.974995 94.816666 25.36562 94.347916Q25.756245 93.879166 25.756245 93.035416Q25.756245 92.191666 25.412495 91.785416Q25.068745 91.36354 24.599995 91.36354Q24.17812 91.36354 23.943745 91.73854Q23.77187 91.98854 23.52187 92.98854Q23.17812 94.347916 22.92812 94.879166Q22.67812 95.39479 22.24062 95.660416Q21.80312 95.92604 21.27187 95.92604Q20.787495 95.92604 20.381245 95.70729Q19.95937 95.48854 19.67812 95.097916Q19.474995 94.816666 19.33437 94.33229Q19.17812 93.83229 19.17812 93.254166Q19.17812 92.410416 19.42812 91.76979Q19.662495 91.11354 20.08437 90.80104Q20.506245 90.48854 21.20937 90.379166L21.381245 91.58229Q20.818745 91.660416 20.506245 92.066666Q20.193745 92.45729 20.193745 93.17604Q20.193745 94.01979 20.474995 94.379166Q20.74062 94.73854 21.131245 94.73854Q21.36562 94.73854 21.55312 94.597916Q21.756245 94.441666 21.881245 94.11354Q21.943745 93.941666 22.193745 93.035416Q22.55312 91.722916 22.77187 91.20729Q22.99062 90.691666 23.412495 90.410416Q23.83437 90.11354 24.45937 90.11354Q25.08437 90.11354 25.631245 90.472916Q26.162495 90.816666 26.474995 91.504166Q26.77187 92.17604 26.77187 93.035416Q26.77187 94.441666 26.17812 95.191666Q25.58437 95.92604 24.42812 96.129166ZM29.55312 87.83229L29.55312 88.722916Q26.27187 86.67604 22.974995 86.67604Q21.693745 86.67604 20.42812 86.972916Q19.39687 87.20729 18.45937 87.61354Q17.849995 87.879166 16.412495 88.722916L16.412495 87.83229Q18.11562 86.55104 19.849995 85.941666Q21.349995 85.410416 22.974995 85.410416Q24.818745 85.410416 26.537495 86.129166Q28.256245 86.83229 29.55312 87.83229Z" fill-rule="nonzero"/><path fill="#000000" d="M67.17812 198.4625Q67.17812 196.68124 67.5375 195.60312Q67.9125 194.50937 68.63125 193.93124Q69.35 193.3375 70.44375 193.3375Q71.25625 193.3375 71.86562 193.66562Q72.475 193.99374 72.86562 194.60312Q73.27187 195.2125 73.49062 196.0875Q73.70937 196.9625 73.70937 198.4625Q73.70937 200.22812 73.35 201.30624Q72.99062 202.38437 72.27187 202.97812Q71.55312 203.57187 70.44375 203.57187Q69.00625 203.57187 68.17812 202.525Q67.17812 201.275 67.17812 198.4625ZM68.44375 198.4625Q68.44375 200.93124 69.02187 201.74374Q69.6 202.55624 70.44375 202.55624Q71.30312 202.55624 71.88125 201.74374Q72.45937 200.91562 72.45937 198.4625Q72.45937 195.97812 71.88125 195.16562Q71.30312 194.35312 70.42812 194.35312Q69.58437 194.35312 69.08437 195.07187Q68.44375 195.99374 68.44375 198.4625Z" fill-rule="nonzero"/><path fill="#000000" d="M59.178123 170.35834L60.475 170.24896Q60.615623 171.18646 61.13125 171.67084Q61.6625 172.13959 62.396873 172.13959Q63.2875 172.13959 63.896873 171.46771Q64.52187 170.79584 64.52187 169.70209Q64.52187 168.63959 63.928123 168.03021Q63.334373 167.42084 62.38125 167.42084Q61.7875 167.42084 61.303123 167.70209Q60.834373 167.96771 60.553123 168.38959L59.396873 168.24896L60.365623 163.09271L65.35 163.09271L65.35 164.28021L61.35 164.28021L60.81875 166.96771Q61.725 166.34271 62.709373 166.34271Q64.02187 166.34271 64.9125 167.24896Q65.81875 168.15521 65.81875 169.59271Q65.81875 170.95209 65.0375 171.93646Q64.06875 173.15521 62.396873 173.15521Q61.0375 173.15521 60.1625 172.38959Q59.303123 171.62396 59.178123 170.35834ZM67.17812 168.04584Q67.17812 166.26459 67.5375 165.18646Q67.9125 164.09271 68.63125 163.51459Q69.35 162.92084 70.44375 162.92084Q71.25625 162.92084 71.86562 163.24896Q72.475 163.57709 72.86562 164.18646Q73.27187 164.79584 73.49062 165.67084Q73.70937 166.54584 73.70937 168.04584Q73.70937 169.81146 73.35 170.88959Q72.99062 171.96771 72.27187 172.56146Q71.55312 173.15521 70.44375 173.15521Q69.00625 173.15521 68.17812 172.10834Q67.17812 170.85834 67.17812 168.04584ZM68.44375 168.04584Q68.44375 170.51459 69.02187 171.32709Q69.6 172.13959 70.44375 172.13959Q71.30312 172.13959 71.88125 171.32709Q72.45937 170.49896 72.45937 168.04584Q72.45937 165.56146 71.88125 164.74896Q71.30312 163.93646 70.42812 163.93646Q69.58437 163.93646 69.08437 164.65521Q68.44375 165.57709 68.44375 168.04584Z" fill-rule="nonzero"/><path fill="#000000" d="M55.81875 142.56667L54.584373 142.56667L54.584373 134.72292Q54.146873 135.14479 53.4125 135.58229Q52.69375 136.00417 52.13125 136.20729L52.13125 135.01979Q53.1625 134.53542 53.928123 133.84792Q54.709373 133.16042 55.021873 132.50417L55.81875 132.50417L55.81875 142.56667ZM59.178123 137.62917Q59.178123 135.84792 59.5375 134.76979Q59.9125 133.67604 60.63125 133.09792Q61.35 132.50417 62.44375 132.50417Q63.25625 132.50417 63.865623 132.83229Q64.475 133.16042 64.86562 133.76979Q65.27187 134.37917 65.49062 135.25417Q65.70937 136.12917 65.70937 137.62917Q65.70937 139.39479 65.35 140.47292Q64.99062 141.55104 64.27187 142.14479Q63.553123 142.73854 62.44375 142.73854Q61.00625 142.73854 60.178123 141.69167Q59.178123 140.44167 59.178123 137.62917ZM60.44375 137.62917Q60.44375 140.09792 61.021873 140.91042Q61.6 141.72292 62.44375 141.72292Q63.303123 141.72292 63.88125 140.91042Q64.45937 140.08229 64.45937 137.62917Q64.45937 135.14479 63.88125 134.33229Q63.303123 133.51979 62.428123 133.51979Q61.584373 133.51979 61.084373 134.23854Q60.44375 135.16042 60.44375 137.62917ZM67.17812 137.62917Q67.17812 135.84792 67.5375 134.76979Q67.9125 133.67604 68.63125 133.09792Q69.35 132.50417 70.44375 132.50417Q71.25625 132.50417 71.86562 132.83229Q72.475 133.16042 72.86562 133.76979Q73.27187 134.37917 73.49062 135.25417Q73.70937 136.12917 73.70937 137.62917Q73.70937 139.39479 73.35 140.47292Q72.99062 141.55104 72.27187 142.14479Q71.55312 142.73854 70.44375 142.73854Q69.00625 142.73854 68.17812 141.69167Q67.17812 140.44167 67.17812 137.62917ZM68.44375 137.62917Q68.44375 140.09792 69.02187 140.91042Q69.6 141.72292 70.44375 141.72292Q71.30312 141.72292 71.88125 140.91042Q72.45937 140.08229 72.45937 137.62917Q72.45937 135.14479 71.88125 134.33229Q71.30312 133.51979 70.42812 133.51979Q69.58437 133.51979 69.08437 134.23854Q68.44375 135.16042 68.44375 137.62917Z" fill-rule="nonzero"/><path fill="#000000" d="M55.81875 112.15L54.584373 112.15L54.584373 104.30625Q54.146873 104.72813 53.4125 105.16563Q52.69375 105.5875 52.13125 105.79063L52.13125 104.60313Q53.1625 104.11875 53.928123 103.43125Q54.709373 102.74375 55.021873 102.0875L55.81875 102.0875L55.81875 112.15ZM59.178123 109.525L60.475 109.41563Q60.615623 110.35313 61.13125 110.8375Q61.6625 111.30625 62.396873 111.30625Q63.2875 111.30625 63.896873 110.63438Q64.52187 109.9625 64.52187 108.86875Q64.52187 107.80625 63.928123 107.19688Q63.334373 106.5875 62.38125 106.5875Q61.7875 106.5875 61.303123 106.86875Q60.834373 107.13438 60.553123 107.55625L59.396873 107.41563L60.365623 102.25938L65.35 102.25938L65.35 103.44688L61.35 103.44688L60.81875 106.13438Q61.725 105.50938 62.709373 105.50938Q64.02187 105.50938 64.9125 106.41563Q65.81875 107.32188 65.81875 108.75938Q65.81875 110.11875 65.0375 111.10313Q64.06875 112.32188 62.396873 112.32188Q61.0375 112.32188 60.1625 111.55625Q59.303123 110.79063 59.178123 109.525ZM67.17812 107.2125Q67.17812 105.43125 67.5375 104.35313Q67.9125 103.25938 68.63125 102.68125Q69.35 102.0875 70.44375 102.0875Q71.25625 102.0875 71.86562 102.41563Q72.475 102.74375 72.86562 103.35313Q73.27187 103.9625 73.49062 104.8375Q73.70937 105.7125 73.70937 107.2125Q73.70937 108.97813 73.35 110.05625Q72.99062 111.13438 72.27187 111.72813Q71.55312 112.32188 70.44375 112.32188Q69.00625 112.32188 68.17812 111.275Q67.17812 110.025 67.17812 107.2125ZM68.44375 107.2125Q68.44375 109.68125 69.02187 110.49375Q69.6 111.30625 70.44375 111.30625Q71.30312 111.30625 71.88125 110.49375Q72.45937 109.66563 72.45937 107.2125Q72.45937 104.72813 71.88125 103.91563Q71.30312 103.10313 70.42812 103.10313Q69.58437 103.10313 69.08437 103.82188Q68.44375 104.74375 68.44375 107.2125Z" fill-rule="nonzero"/><path fill="#000000" d="M57.646873 80.54583L57.646873 81.73333L51.021873 81.73333Q51.00625 81.29583 51.1625 80.873955Q51.428123 80.20208 51.975 79.54583Q52.5375 78.88958 53.584373 78.030205Q55.225 76.686455 55.7875 75.905205Q56.365623 75.123955 56.365623 74.42083Q56.365623 73.686455 55.834373 73.186455Q55.31875 72.686455 54.490623 72.686455Q53.6 72.686455 53.053123 73.217705Q52.521873 73.748955 52.521873 74.70208L51.25625 74.561455Q51.38125 73.155205 52.225 72.42083Q53.084373 71.67083 54.50625 71.67083Q55.959373 71.67083 56.7875 72.467705Q57.63125 73.26458 57.63125 74.45208Q57.63125 75.061455 57.38125 75.63958Q57.146873 76.217705 56.56875 76.85833Q56.00625 77.498955 54.678123 78.623955Q53.56875 79.54583 53.25625 79.88958Q52.94375 80.217705 52.740623 80.54583L57.646873 80.54583ZM59.178123 76.79583Q59.178123 75.01458 59.5375 73.936455Q59.9125 72.842705 60.63125 72.26458Q61.35 71.67083 62.44375 71.67083Q63.25625 71.67083 63.865623 71.998955Q64.475 72.32708 64.86562 72.936455Q65.27187 73.54583 65.49062 74.42083Q65.70937 75.29583 65.70937 76.79583Q65.70937 78.561455 65.35 79.63958Q64.99062 80.717705 64.27187 81.311455Q63.553123 81.905205 62.44375 81.905205Q61.00625 81.905205 60.178123 80.85833Q59.178123 79.60833 59.178123 76.79583ZM60.44375 76.79583Q60.44375 79.26458 61.021873 80.07708Q61.6 80.88958 62.44375 80.88958Q63.303123 80.88958 63.88125 80.07708Q64.45937 79.248955 64.45937 76.79583Q64.45937 74.311455 63.88125 73.498955Q63.303123 72.686455 62.428123 72.686455Q61.584373 72.686455 61.084373 73.405205Q60.44375 74.32708 60.44375 76.79583ZM67.17812 76.79583Q67.17812 75.01458 67.5375 73.936455Q67.9125 72.842705 68.63125 72.26458Q69.35 71.67083 70.44375 71.67083Q71.25625 71.67083 71.86562 71.998955Q72.475 72.32708 72.86562 72.936455Q73.27187 73.54583 73.49062 74.42083Q73.70937 75.29583 73.70937 76.79583Q73.70937 78.561455 73.35 79.63958Q72.99062 80.717705 72.27187 81.311455Q71.55312 81.905205 70.44375 81.905205Q69.00625 81.905205 68.17812 80.85833Q67.17812 79.60833 67.17812 76.79583ZM68.44375 76.79583Q68.44375 79.26458 69.02187 80.07708Q69.6 80.88958 70.44375 80.88958Q71.30312 80.88958 71.88125 80.07708Q72.45937 79.248955 72.45937 76.79583Q72.45937 74.311455 71.88125 73.498955Q71.30312 72.686455 70.42812 72.686455Q69.58437 72.686455 69.08437 73.405205Q68.44375 74.32708 68.44375 76.79583Z" fill-rule="nonzero"/><path fill="#000000" d="M78.17812 213.4625Q78.17812 211.68124 78.5375 210.60312Q78.9125 209.50937 79.63125 208.93124Q80.35 208.3375 81.44375 208.3375Q82.25625 208.3375 82.86562 208.66562Q83.475 208.99374 83.86562 209.60312Q84.27187 210.2125 84.49062 211.0875Q84.70937 211.9625 84.70937 213.4625Q84.70937 215.22812 84.35 216.30624Q83.99062 217.38437 83.27187 217.97812Q82.55312 218.57187 81.44375 218.57187Q80.00625 218.57187 79.17812 217.525Q78.17812 216.275 78.17812 213.4625ZM79.44375 213.4625Q79.44375 215.93124 80.02187 216.74374Q80.6 217.55624 81.44375 217.55624Q82.30312 217.55624 82.88125 216.74374Q83.45937 215.91562 83.45937 213.4625Q83.45937 210.97812 82.88125 210.16562Q82.30312 209.35312 81.42812 209.35312Q80.58437 209.35312 80.08437 210.07187Q79.44375 210.99374 79.44375 213.4625Z" fill-rule="nonzero"/><path fill="#000000" d="M152.73576 217.2125L152.73576 218.4L146.11076 218.4Q146.09514 217.9625 146.25139 217.54062Q146.51701 216.86874 147.06389 216.2125Q147.62639 215.55624 148.67326 214.69687Q150.31389 213.35312 150.87639 212.57187Q151.45451 211.79062 151.45451 211.0875Q151.45451 210.35312 150.92326 209.85312Q150.40764 209.35312 149.57951 209.35312Q148.68889 209.35312 148.14201 209.88437Q147.61076 210.41562 147.61076 211.36874L146.34514 211.22812Q146.47014 209.82187 147.31389 209.0875Q148.17326 208.3375 149.59514 208.3375Q151.04826 208.3375 151.87639 209.13437Q152.72014 209.93124 152.72014 211.11874Q152.72014 211.72812 152.47014 212.30624Q152.23576 212.88437 151.65764 213.525Q151.09514 214.16562 149.76701 215.29062Q148.65764 216.2125 148.34514 216.55624Q148.03264 216.88437 147.82951 217.2125L152.73576 217.2125Z" fill-rule="nonzero"/><path fill="#000000" d="M218.30902 218.4L218.30902 215.99374L213.94965 215.99374L213.94965 214.86874L218.52777 208.38437L219.52777 208.38437L219.52777 214.86874L220.88715 214.86874L220.88715 215.99374L219.52777 215.99374L219.52777 218.4L218.30902 218.4ZM218.30902 214.86874L218.30902 210.35312L215.1684 214.86874L218.30902 214.86874Z" fill-rule="nonzero"/><path fill="#000000" d="M288.83542 210.8375L287.61667 210.93124Q287.4448 210.19687 287.14792 209.86874Q286.64792 209.35312 285.91354 209.35312Q285.3198 209.35312 284.8823 209.68124Q284.30417 210.10312 283.96042 210.91562Q283.6323 211.72812 283.61667 213.22812Q284.05417 212.55624 284.6948 212.22812Q285.35104 211.9 286.05417 211.9Q287.28854 211.9 288.14792 212.80624Q289.0073 213.7125 289.0073 215.15Q289.0073 216.0875 288.60104 216.9Q288.1948 217.7125 287.47604 218.15Q286.77292 218.57187 285.86667 218.57187Q284.33542 218.57187 283.36667 217.44687Q282.39792 216.30624 282.39792 213.7125Q282.39792 210.80624 283.46042 209.47812Q284.39792 208.3375 285.99167 208.3375Q287.17917 208.3375 287.92917 209.00937Q288.67917 209.66562 288.83542 210.8375ZM283.80417 215.15Q283.80417 215.79062 284.0698 216.36874Q284.35104 216.94687 284.83542 217.25937Q285.3198 217.55624 285.85104 217.55624Q286.6323 217.55624 287.1948 216.93124Q287.7573 216.30624 287.7573 215.22812Q287.7573 214.18124 287.1948 213.5875Q286.64792 212.97812 285.80417 212.97812Q284.97604 212.97812 284.3823 213.5875Q283.80417 214.18124 283.80417 215.15Z" fill-rule="nonzero"/><path fill="#000000" d="M352.42432 212.9625Q351.6587 212.68124 351.2837 212.16562Q350.92432 211.65 350.92432 210.91562Q350.92432 209.82187 351.70557 209.0875Q352.50244 208.3375 353.79932 208.3375Q355.11182 208.3375 355.9087 209.10312Q356.7212 209.86874 356.7212 210.9625Q356.7212 211.65 356.3462 212.16562Q355.98682 212.68124 355.23682 212.9625Q356.1587 213.25937 356.64307 213.93124Q357.12744 214.60312 357.12744 215.54062Q357.12744 216.82187 356.2212 217.69687Q355.31494 218.57187 353.83057 218.57187Q352.3462 218.57187 351.42432 217.69687Q350.51807 216.80624 350.51807 215.49374Q350.51807 214.525 351.01807 213.86874Q351.51807 213.19687 352.42432 212.9625ZM352.18994 210.88437Q352.18994 211.5875 352.64307 212.04062Q353.0962 212.49374 353.83057 212.49374Q354.54932 212.49374 355.00244 212.05624Q355.45557 211.60312 355.45557 210.94687Q355.45557 210.275 354.98682 209.82187Q354.51807 209.35312 353.81494 209.35312Q353.11182 209.35312 352.64307 209.80624Q352.18994 210.24374 352.18994 210.88437ZM351.7837 215.50937Q351.7837 216.04062 352.0337 216.54062Q352.2837 217.025 352.76807 217.29062Q353.26807 217.55624 353.8462 217.55624Q354.7212 217.55624 355.2837 216.99374Q355.86182 216.43124 355.86182 215.55624Q355.86182 214.66562 355.26807 214.0875Q354.68994 213.49374 353.79932 213.49374Q352.92432 213.49374 352.3462 214.07187Q351.7837 214.65 351.7837 215.50937Z" fill-rule="nonzero"/><path fill="#000000" d="M419.26318 218.4L418.0288 218.4L418.0288 210.55624Q417.5913 210.97812 416.85693 211.41562Q416.13818 211.8375 415.57568 212.04062L415.57568 210.85312Q416.60693 210.36874 417.37256 209.68124Q418.1538 208.99374 418.4663 208.3375L419.26318 208.3375L419.26318 218.4ZM422.62256 213.4625Q422.62256 211.68124 422.98193 210.60312Q423.35693 209.50937 424.07568 208.93124Q424.79443 208.3375 425.88818 208.3375Q426.70068 208.3375 427.31006 208.66562Q427.91943 208.99374 428.31006 209.60312Q428.7163 210.2125 428.93506 211.0875Q429.1538 211.9625 429.1538 213.4625Q429.1538 215.22812 428.79443 216.30624Q428.43506 217.38437 427.7163 217.97812Q426.99756 218.57187 425.88818 218.57187Q424.45068 218.57187 423.62256 217.525Q422.62256 216.275 422.62256 213.4625ZM423.88818 213.4625Q423.88818 215.93124 424.4663 216.74374Q425.04443 217.55624 425.88818 217.55624Q426.74756 217.55624 427.32568 216.74374Q427.9038 215.91562 427.9038 213.4625Q427.9038 210.97812 427.32568 210.16562Q426.74756 209.35312 425.87256 209.35312Q425.0288 209.35312 424.5288 210.07187Q423.88818 210.99374 423.88818 213.4625Z" fill-rule="nonzero"/><path fill="#000000" d="M487.35208 218.4L486.1177 218.4L486.1177 210.55624Q485.6802 210.97812 484.94583 211.41562Q484.22708 211.8375 483.66458 212.04062L483.66458 210.85312Q484.69583 210.36874 485.46146 209.68124Q486.2427 208.99374 486.5552 208.3375L487.35208 208.3375L487.35208 218.4ZM497.1802 217.2125L497.1802 218.4L490.5552 218.4Q490.53958 217.9625 490.69583 217.54062Q490.96146 216.86874 491.50833 216.2125Q492.07083 215.55624 493.1177 214.69687Q494.75833 213.35312 495.32083 212.57187Q495.89896 211.79062 495.89896 211.0875Q495.89896 210.35312 495.3677 209.85312Q494.85208 209.35312 494.02396 209.35312Q493.13333 209.35312 492.58646 209.88437Q492.0552 210.41562 492.0552 211.36874L490.78958 211.22812Q490.91458 209.82187 491.75833 209.0875Q492.6177 208.3375 494.03958 208.3375Q495.4927 208.3375 496.32083 209.13437Q497.16458 209.93124 497.16458 211.11874Q497.16458 211.72812 496.91458 212.30624Q496.6802 212.88437 496.10208 213.525Q495.53958 214.16562 494.21146 215.29062Q493.10208 216.2125 492.78958 216.55624Q492.47708 216.88437 492.27396 217.2125L497.1802 217.2125Z" fill-rule="nonzero"/><path fill="#000000" d="M555.441 218.4L554.2066 218.4L554.2066 210.55624Q553.7691 210.97812 553.0347 211.41562Q552.316 211.8375 551.7535 212.04062L551.7535 210.85312Q552.7847 210.36874 553.55035 209.68124Q554.3316 208.99374 554.6441 208.3375L555.441 208.3375L555.441 218.4ZM562.7535 218.4L562.7535 215.99374L558.3941 215.99374L558.3941 214.86874L562.9722 208.38437L563.9722 208.38437L563.9722 214.86874L565.3316 214.86874L565.3316 215.99374L563.9722 215.99374L563.9722 218.4L562.7535 218.4ZM562.7535 214.86874L562.7535 210.35312L559.61285 214.86874L562.7535 214.86874Z" fill-rule="nonzero"/><path fill="#000000" d="M623.52985 218.4L622.2955 218.4L622.2955 210.55624Q621.858 210.97812 621.1236 211.41562Q620.40485 211.8375 619.84235 212.04062L619.84235 210.85312Q620.8736 210.36874 621.6392 209.68124Q622.4205 208.99374 622.733 208.3375L623.52985 208.3375L623.52985 218.4ZM633.27985 210.8375L632.0611 210.93124Q631.8892 210.19687 631.59235 209.86874Q631.09235 209.35312 630.358 209.35312Q629.7642 209.35312 629.3267 209.68124Q628.7486 210.10312 628.40485 210.91562Q628.0767 211.72812 628.0611 213.22812Q628.4986 212.55624 629.1392 212.22812Q629.7955 211.9 630.4986 211.9Q631.733 211.9 632.59235 212.80624Q633.4517 213.7125 633.4517 215.15Q633.4517 216.0875 633.0455 216.9Q632.6392 217.7125 631.9205 218.15Q631.21735 218.57187 630.3111 218.57187Q628.77985 218.57187 627.8111 217.44687Q626.84235 216.30624 626.84235 213.7125Q626.84235 210.80624 627.90485 209.47812Q628.84235 208.3375 630.4361 208.3375Q631.6236 208.3375 632.3736 209.00937Q633.1236 209.66562 633.27985 210.8375ZM628.2486 215.15Q628.2486 215.79062 628.5142 216.36874Q628.7955 216.94687 629.27985 217.25937Q629.7642 217.55624 630.2955 217.55624Q631.0767 217.55624 631.6392 216.93124Q632.2017 216.30624 632.2017 215.22812Q632.2017 214.18124 631.6392 213.5875Q631.09235 212.97812 630.2486 212.97812Q629.4205 212.97812 628.8267 213.5875Q628.2486 214.18124 628.2486 215.15Z" fill-rule="nonzero"/><path fill="#000000" d="M691.6188 218.4L690.3844 218.4L690.3844 210.55624Q689.9469 210.97812 689.2125 211.41562Q688.4938 211.8375 687.9313 212.04062L687.9313 210.85312Q688.9625 210.36874 689.72815 209.68124Q690.5094 208.99374 690.8219 208.3375L691.6188 208.3375L691.6188 218.4ZM696.8688 212.9625Q696.10315 212.68124 695.72815 212.16562Q695.3688 211.65 695.3688 210.91562Q695.3688 209.82187 696.15 209.0875Q696.9469 208.3375 698.2438 208.3375Q699.5563 208.3375 700.35315 209.10312Q701.16565 209.86874 701.16565 210.9625Q701.16565 211.65 700.79065 212.16562Q700.4313 212.68124 699.6813 212.9625Q700.60315 213.25937 701.0875 213.93124Q701.5719 214.60312 701.5719 215.54062Q701.5719 216.82187 700.66565 217.69687Q699.7594 218.57187 698.275 218.57187Q696.79065 218.57187 695.8688 217.69687Q694.9625 216.80624 694.9625 215.49374Q694.9625 214.525 695.4625 213.86874Q695.9625 213.19687 696.8688 212.9625ZM696.6344 210.88437Q696.6344 211.5875 697.0875 212.04062Q697.54065 212.49374 698.275 212.49374Q698.9938 212.49374 699.4469 212.05624Q699.9 211.60312 699.9 210.94687Q699.9 210.275 699.4313 209.82187Q698.9625 209.35312 698.2594 209.35312Q697.5563 209.35312 697.0875 209.80624Q696.6344 210.24374 696.6344 210.88437ZM696.22815 215.50937Q696.22815 216.04062 696.47815 216.54062Q696.72815 217.025 697.2125 217.29062Q697.7125 217.55624 698.29065 217.55624Q699.16565 217.55624 699.72815 216.99374Q700.3063 216.43124 700.3063 215.55624Q700.3063 214.66562 699.7125 214.0875Q699.1344 213.49374 698.2438 213.49374Q697.3688 213.49374 696.79065 214.07187Q696.22815 214.65 696.22815 215.50937Z" fill-rule="nonzero"/><path stroke="#30a2ff" stroke-width="4.0" stroke-linecap="butt" d="M217.0 51.666668L229.0 51.666668" fill-rule="nonzero"/><path fill="#1a1a1a" d="M239.9375 56.666668L237.17188 49.401043L238.48438 49.401043L240.03125 53.760418Q240.28125 54.463543 240.5 55.213543Q240.67188 54.635418 240.95312 53.838543L242.57812 49.401043L243.84375 49.401043L241.09375 56.666668L239.9375 56.666668ZM245.03125 56.666668L245.03125 46.651043L246.35938 46.651043L246.35938 55.479168L251.28125 55.479168L251.28125 56.666668L245.03125 56.666668ZM253.03125 56.666668L253.03125 46.651043L254.35938 46.651043L254.35938 55.479168L259.28125 55.479168L259.28125 56.666668L253.03125 56.666668ZM261.04688 56.666668L261.04688 46.651043L263.03125 46.651043L265.40625 53.744793Q265.73438 54.729168 265.89062 55.229168Q266.0625 54.682293 266.42188 53.619793L268.8125 46.651043L270.60938 46.651043L270.60938 56.666668L269.32812 56.666668L269.32812 48.276043L266.40625 56.666668L265.21875 56.666668L262.3125 48.135418L262.3125 56.666668L261.04688 56.666668Z" fill-rule="nonzero"/><path stroke="#6aa84f" stroke-width="4.0" stroke-linecap="butt" d="M287.0 51.666668L299.0 51.666668" fill-rule="nonzero"/><path fill="#1a1a1a" d="M310.625 56.666668L310.625 47.822918L307.32812 47.822918L307.32812 46.651043L315.26562 46.651043L315.26562 47.822918L311.95312 47.822918L311.95312 56.666668L310.625 56.666668ZM321.89062 54.322918L323.17188 54.479168Q322.85938 55.604168 322.04688 56.229168Q321.23438 56.838543 319.96875 56.838543Q318.375 56.838543 317.4375 55.854168Q316.51562 54.869793 316.51562 53.104168Q316.51562 51.260418 317.45312 50.260418Q318.40625 49.244793 319.90625 49.244793Q321.35938 49.244793 322.28125 50.244793Q323.20312 51.229168 323.20312 53.026043Q323.20312 53.135418 323.20312 53.354168L317.78125 53.354168Q317.85938 54.541668 318.45312 55.182293Q319.0625 55.822918 319.98438 55.822918Q320.65625 55.822918 321.125 55.463543Q321.60938 55.104168 321.89062 54.322918ZM317.85938 52.338543L321.90625 52.338543Q321.82812 51.416668 321.4375 50.963543Q320.85938 50.260418 319.92188 50.260418Q319.0625 50.260418 318.48438 50.822918Q317.92188 51.385418 317.85938 52.338543ZM324.92188 56.666668L324.92188 49.401043L326.03125 49.401043L326.03125 50.432293Q326.82812 49.244793 328.34375 49.244793Q329.0 49.244793 329.54688 49.479168Q330.09375 49.713543 330.35938 50.104168Q330.64062 50.479168 330.75 51.010418Q330.82812 51.354168 330.82812 52.197918L330.82812 56.666668L329.59375 56.666668L329.59375 52.244793Q329.59375 51.494793 329.45312 51.135418Q329.3125 50.760418 328.9375 50.541668Q328.57812 50.307293 328.07812 50.307293Q327.29688 50.307293 326.71875 50.807293Q326.15625 51.307293 326.15625 52.697918L326.15625 56.666668L324.92188 56.666668ZM332.4375 54.494793L333.64062 54.307293Q333.75 55.041668 334.21875 55.432293Q334.6875 55.822918 335.53125 55.822918Q336.375 55.822918 336.78125 55.479168Q337.20312 55.135418 337.20312 54.666668Q337.20312 54.244793 336.82812 54.010418Q336.57812 53.838543 335.57812 53.588543Q334.21875 53.244793 333.6875 52.994793Q333.17188 52.744793 332.90625 52.307293Q332.64062 51.869793 332.64062 51.338543Q332.64062 50.854168 332.85938 50.447918Q333.07812 50.026043 333.46875 49.744793Q333.75 49.541668 334.23438 49.401043Q334.73438 49.244793 335.3125 49.244793Q336.15625 49.244793 336.79688 49.494793Q337.45312 49.729168 337.76562 50.151043Q338.07812 50.572918 338.1875 51.276043L336.98438 51.447918Q336.90625 50.885418 336.5 50.572918Q336.10938 50.260418 335.39062 50.260418Q334.54688 50.260418 334.1875 50.541668Q333.82812 50.807293 333.82812 51.197918Q333.82812 51.432293 333.96875 51.619793Q334.125 51.822918 334.45312 51.947918Q334.625 52.010418 335.53125 52.260418Q336.84375 52.619793 337.35938 52.838543Q337.875 53.057293 338.15625 53.479168Q338.45312 53.901043 338.45312 54.526043Q338.45312 55.151043 338.09375 55.697918Q337.75 56.229168 337.0625 56.541668Q336.39062 56.838543 335.53125 56.838543Q334.125 56.838543 333.375 56.244793Q332.64062 55.651043 332.4375 54.494793ZM339.46875 53.041668Q339.46875 51.026043 340.59375 50.041668Q341.51562 49.244793 342.875 49.244793Q344.35938 49.244793 345.3125 50.229168Q346.26562 51.197918 346.26562 52.932293Q346.26562 54.338543 345.84375 55.151043Q345.42188 55.947918 344.60938 56.401043Q343.8125 56.838543 342.875 56.838543Q341.34375 56.838543 340.40625 55.854168Q339.46875 54.869793 339.46875 53.041668ZM340.73438 53.041668Q340.73438 54.432293 341.34375 55.135418Q341.95312 55.822918 342.875 55.822918Q343.78125 55.822918 344.39062 55.119793Q345.0 54.416668 345.0 52.994793Q345.0 51.651043 344.39062 50.963543Q343.78125 50.260418 342.875 50.260418Q341.95312 50.260418 341.34375 50.947918Q340.73438 51.635418 340.73438 53.041668ZM347.90625 56.666668L347.90625 49.401043L349.01562 49.401043L349.01562 50.510418Q349.4375 49.729168 349.79688 49.494793Q350.15625 49.244793 350.59375 49.244793Q351.21875 49.244793 351.85938 49.635418L351.4375 50.776043Q350.98438 50.510418 350.53125 50.510418Q350.125 50.510418 349.79688 50.760418Q349.48438 50.994793 349.34375 51.432293Q349.14062 52.088543 349.14062 52.869793L349.14062 56.666668L347.90625 56.666668ZM353.09375 56.666668L353.09375 46.651043L357.54688 46.651043Q358.89062 46.651043 359.57812 46.916668Q360.28125 47.182293 360.6875 47.869793Q361.10938 48.557293 361.10938 49.385418Q361.10938 50.447918 360.42188 51.182293Q359.73438 51.901043 358.29688 52.104168Q358.8125 52.354168 359.09375 52.604168Q359.67188 53.135418 360.1875 53.932293L361.9375 56.666668L360.26562 56.666668L358.9375 54.588543Q358.35938 53.682293 357.98438 53.213543Q357.60938 52.729168 357.3125 52.541668Q357.01562 52.338543 356.70312 52.260418Q356.48438 52.213543 355.96875 52.213543L354.42188 52.213543L354.42188 56.666668L353.09375 56.666668ZM354.42188 51.072918L357.28125 51.072918Q358.1875 51.072918 358.70312 50.885418Q359.21875 50.697918 359.48438 50.291668Q359.75 49.869793 359.75 49.385418Q359.75 48.666668 359.23438 48.213543Q358.71875 47.744793 357.59375 47.744793L354.42188 47.744793L354.42188 51.072918ZM365.625 56.666668L365.625 47.822918L362.32812 47.822918L362.32812 46.651043L370.26562 46.651043L370.26562 47.822918L366.95312 47.822918L366.95312 56.666668L365.625 56.666668ZM371.4375 53.651043L371.4375 52.416668L375.21875 52.416668L375.21875 53.651043L371.4375 53.651043ZM377.03125 56.666668L377.03125 46.651043L378.35938 46.651043L378.35938 55.479168L383.28125 55.479168L383.28125 56.666668L377.03125 56.666668ZM385.03125 56.666668L385.03125 46.651043L386.35938 46.651043L386.35938 55.479168L391.28125 55.479168L391.28125 56.666668L385.03125 56.666668ZM393.04688 56.666668L393.04688 46.651043L395.03125 46.651043L397.40625 53.744793Q397.73438 54.729168 397.89062 55.229168Q398.0625 54.682293 398.42188 53.619793L400.8125 46.651043L402.60938 46.651043L402.60938 56.666668L401.32812 56.666668L401.32812 48.276043L398.40625 56.666668L397.21875 56.666668L394.3125 48.135418L394.3125 56.666668L393.04688 56.666668Z" fill-rule="nonzero"/><path stroke="#ff6d01" stroke-width="4.0" stroke-linecap="butt" d="M419.0 51.666668L431.0 51.666668" fill-rule="nonzero"/><path fill="#1a1a1a" d="M439.625 53.447918L440.875 53.338543Q440.96875 54.088543 441.29688 54.572918Q441.625 55.057293 442.29688 55.354168Q442.98438 55.651043 443.84375 55.651043Q444.59375 55.651043 445.17188 55.432293Q445.76562 55.197918 446.04688 54.807293Q446.32812 54.416668 446.32812 53.947918Q446.32812 53.479168 446.04688 53.135418Q445.78125 52.776043 445.15625 52.526043Q444.75 52.369793 443.35938 52.041668Q441.98438 51.713543 441.4375 51.416668Q440.71875 51.041668 440.35938 50.494793Q440.01562 49.932293 440.01562 49.229168Q440.01562 48.479168 440.4375 47.822918Q440.875 47.151043 441.70312 46.822918Q442.53125 46.479168 443.54688 46.479168Q444.65625 46.479168 445.5 46.838543Q446.35938 47.197918 446.8125 47.901043Q447.26562 48.588543 447.3125 49.463543L446.03125 49.557293Q445.9375 48.619793 445.34375 48.135418Q444.75 47.635418 443.59375 47.635418Q442.39062 47.635418 441.84375 48.088543Q441.29688 48.526043 441.29688 49.151043Q441.29688 49.682293 441.6875 50.041668Q442.0625 50.385418 443.67188 50.760418Q445.29688 51.119793 445.89062 51.385418Q446.76562 51.791668 447.1875 52.416668Q447.60938 53.026043 447.60938 53.838543Q447.60938 54.635418 447.14062 55.354168Q446.6875 56.057293 445.82812 56.447918Q444.96875 56.838543 443.90625 56.838543Q442.54688 56.838543 441.625 56.447918Q440.70312 56.041668 440.17188 55.244793Q439.65625 54.447918 439.625 53.447918ZM453.76562 52.729168L453.76562 51.557293L458.01562 51.557293L458.01562 55.276043Q457.03125 56.057293 455.98438 56.447918Q454.95312 56.838543 453.85938 56.838543Q452.39062 56.838543 451.17188 56.213543Q449.96875 55.572918 449.35938 54.385418Q448.75 53.182293 448.75 51.697918Q448.75 50.244793 449.35938 48.979168Q449.96875 47.697918 451.10938 47.088543Q452.26562 46.479168 453.76562 46.479168Q454.84375 46.479168 455.71875 46.838543Q456.60938 47.182293 457.10938 47.807293Q457.60938 48.432293 457.85938 49.447918L456.67188 49.776043Q456.4375 49.010418 456.09375 48.572918Q455.76562 48.135418 455.14062 47.869793Q454.53125 47.604168 453.76562 47.604168Q452.85938 47.604168 452.1875 47.885418Q451.53125 48.166668 451.125 48.619793Q450.71875 49.057293 450.5 49.604168Q450.10938 50.541668 450.10938 51.619793Q450.10938 52.963543 450.5625 53.869793Q451.03125 54.760418 451.90625 55.197918Q452.79688 55.635418 453.79688 55.635418Q454.65625 55.635418 455.46875 55.307293Q456.29688 54.979168 456.71875 54.604168L456.71875 52.729168L453.76562 52.729168ZM460.03125 56.666668L460.03125 46.651043L461.35938 46.651043L461.35938 55.479168L466.28125 55.479168L466.28125 56.666668L460.03125 56.666668ZM472.65625 55.776043Q471.98438 56.354168 471.34375 56.604168Q470.71875 56.838543 469.98438 56.838543Q468.79688 56.838543 468.14062 56.260418Q467.5 55.666668 467.5 54.744793Q467.5 54.213543 467.73438 53.776043Q467.98438 53.338543 468.375 53.072918Q468.78125 52.807293 469.26562 52.666668Q469.625 52.572918 470.35938 52.479168Q471.85938 52.307293 472.5625 52.057293Q472.5625 51.807293 472.5625 51.744793Q472.5625 50.979168 472.21875 50.682293Q471.75 50.260418 470.8125 50.260418Q469.95312 50.260418 469.53125 50.572918Q469.125 50.869793 468.92188 51.635418L467.71875 51.479168Q467.875 50.697918 468.25 50.229168Q468.64062 49.760418 469.34375 49.510418Q470.0625 49.244793 471.0 49.244793Q471.92188 49.244793 472.5 49.463543Q473.07812 49.682293 473.34375 50.010418Q473.625 50.338543 473.73438 50.854168Q473.79688 51.166668 473.79688 51.979168L473.79688 53.619793Q473.79688 55.338543 473.875 55.791668Q473.95312 56.244793 474.1875 56.666668L472.90625 56.666668Q472.71875 56.276043 472.65625 55.776043ZM472.5625 53.026043Q471.89062 53.291668 470.54688 53.494793Q469.79688 53.604168 469.46875 53.744793Q469.15625 53.869793 468.98438 54.135418Q468.8125 54.401043 468.8125 54.713543Q468.8125 55.213543 469.1875 55.541668Q469.5625 55.869793 470.28125 55.869793Q471.0 55.869793 471.54688 55.557293Q472.09375 55.244793 472.35938 54.697918Q472.5625 54.291668 472.5625 53.479168L472.5625 53.026043ZM475.92188 56.666668L475.92188 49.401043L477.03125 49.401043L477.03125 50.432293Q477.82812 49.244793 479.34375 49.244793Q480.0 49.244793 480.54688 49.479168Q481.09375 49.713543 481.35938 50.104168Q481.64062 50.479168 481.75 51.010418Q481.82812 51.354168 481.82812 52.197918L481.82812 56.666668L480.59375 56.666668L480.59375 52.244793Q480.59375 51.494793 480.45312 51.135418Q480.3125 50.760418 479.9375 50.541668Q479.57812 50.307293 479.07812 50.307293Q478.29688 50.307293 477.71875 50.807293Q477.15625 51.307293 477.15625 52.697918L477.15625 56.666668L475.92188 56.666668ZM483.70312 57.276043L484.89062 57.447918Q484.96875 57.994793 485.3125 58.260418Q485.76562 58.588543 486.5625 58.588543Q487.42188 58.588543 487.875 58.244793Q488.34375 57.916668 488.51562 57.291668Q488.60938 56.916668 488.59375 55.713543Q487.79688 56.666668 486.59375 56.666668Q485.09375 56.666668 484.26562 55.588543Q483.45312 54.510418 483.45312 52.994793Q483.45312 51.963543 483.82812 51.088543Q484.20312 50.197918 484.90625 49.729168Q485.625 49.244793 486.59375 49.244793Q487.875 49.244793 488.71875 50.276043L488.71875 49.401043L489.84375 49.401043L489.84375 55.682293Q489.84375 57.385418 489.5 58.088543Q489.15625 58.791668 488.40625 59.197918Q487.65625 59.619793 486.5625 59.619793Q485.26562 59.619793 484.46875 59.026043Q483.67188 58.447918 483.70312 57.276043ZM484.71875 52.901043Q484.71875 54.338543 485.28125 54.994793Q485.84375 55.651043 486.70312 55.651043Q487.54688 55.651043 488.125 54.994793Q488.70312 54.338543 488.70312 52.947918Q488.70312 51.619793 488.10938 50.947918Q487.51562 50.260418 486.6875 50.260418Q485.85938 50.260418 485.28125 50.932293Q484.71875 51.588543 484.71875 52.901043Z" fill-rule="nonzero"/><path fill="#757575" d="M14.9125 30.6L14.9125 17.709375L16.63125 17.709375L16.63125 29.084375L22.975 29.084375L22.975 30.6L14.9125 30.6ZM24.75625 30.6L24.75625 17.709375L26.334375 17.709375L26.334375 30.6L24.75625 30.6ZM34.88125 29.44375Q34.00625 30.19375 33.178123 30.50625Q32.365623 30.81875 31.44375 30.81875Q29.896875 30.81875 29.06875 30.06875Q28.25625 29.303125 28.25625 28.13125Q28.25625 27.459375 28.56875 26.896875Q28.88125 26.31875 29.38125 25.975Q29.88125 25.63125 30.521875 25.459375Q30.990625 25.334375 31.928125 25.225Q33.834373 24.990625 34.740623 24.678125Q34.75625 24.35 34.75625 24.25625Q34.75625 23.303125 34.303123 22.896875Q33.69375 22.365625 32.50625 22.365625Q31.38125 22.365625 30.85 22.75625Q30.31875 23.146875 30.06875 24.146875L28.521875 23.928125Q28.740625 22.928125 29.209375 22.31875Q29.69375 21.709375 30.6 21.38125Q31.521875 21.053125 32.740623 21.053125Q33.928123 21.053125 34.678123 21.334375Q35.428123 21.615625 35.771873 22.053125Q36.13125 22.475 36.271873 23.115625Q36.35 23.521875 36.35 24.584375L36.35 26.69375Q36.35 28.896875 36.44375 29.490625Q36.553123 30.06875 36.85 30.6L35.19375 30.6Q34.94375 30.1 34.88125 29.44375ZM34.740623 25.9125Q33.88125 26.271875 32.1625 26.50625Q31.19375 26.646875 30.7875 26.834375Q30.38125 27.00625 30.1625 27.35Q29.94375 27.678125 29.94375 28.1Q29.94375 28.725 30.4125 29.146875Q30.896875 29.56875 31.81875 29.56875Q32.740623 29.56875 33.44375 29.178125Q34.1625 28.771875 34.490623 28.084375Q34.740623 27.5375 34.740623 26.490625L34.740623 25.9125ZM38.7875 30.6L38.7875 21.271875L40.209373 21.271875L40.209373 22.56875Q40.646873 21.896875 41.365623 21.475Q42.1 21.053125 43.0375 21.053125Q44.06875 21.053125 44.725 21.490625Q45.396873 21.9125 45.6625 22.69375Q46.771873 21.053125 48.553123 21.053125Q49.94375 21.053125 50.678123 21.834375Q51.428123 22.6 51.428123 24.19375L51.428123 30.6L49.865623 30.6L49.865623 24.725Q49.865623 23.771875 49.709373 23.35Q49.553123 22.928125 49.146873 22.678125Q48.740623 22.428125 48.19375 22.428125Q47.209373 22.428125 46.553123 23.084375Q45.9125 23.740625 45.9125 25.178125L45.9125 30.6L44.334373 30.6L44.334373 24.5375Q44.334373 23.475 43.94375 22.959375Q43.553123 22.428125 42.678123 22.428125Q42.00625 22.428125 41.44375 22.7875Q40.88125 23.13125 40.615623 23.803125Q40.365623 24.475 40.365623 25.75625L40.365623 30.6L38.7875 30.6ZM58.88125 29.44375Q58.00625 30.19375 57.178123 30.50625Q56.365623 30.81875 55.44375 30.81875Q53.896873 30.81875 53.06875 30.06875Q52.25625 29.303125 52.25625 28.13125Q52.25625 27.459375 52.56875 26.896875Q52.88125 26.31875 53.38125 25.975Q53.88125 25.63125 54.521873 25.459375Q54.990623 25.334375 55.928123 25.225Q57.834373 24.990625 58.740623 24.678125Q58.75625 24.35 58.75625 24.25625Q58.75625 23.303125 58.303123 22.896875Q57.69375 22.365625 56.50625 22.365625Q55.38125 22.365625 54.85 22.75625Q54.31875 23.146875 54.06875 24.146875L52.521873 23.928125Q52.740623 22.928125 53.209373 22.31875Q53.69375 21.709375 54.6 21.38125Q55.521873 21.053125 56.740623 21.053125Q57.928123 21.053125 58.678123 21.334375Q59.428123 21.615625 59.771873 22.053125Q60.13125 22.475 60.271873 23.115625Q60.35 23.521875 60.35 24.584375L60.35 26.69375Q60.35 28.896875 60.44375 29.490625Q60.553123 30.06875 60.85 30.6L59.19375 30.6Q58.94375 30.1 58.88125 29.44375ZM58.740623 25.9125Q57.88125 26.271875 56.1625 26.50625Q55.19375 26.646875 54.7875 26.834375Q54.38125 27.00625 54.1625 27.35Q53.94375 27.678125 53.94375 28.1Q53.94375 28.725 54.4125 29.146875Q54.896873 29.56875 55.81875 29.56875Q56.740623 29.56875 57.44375 29.178125Q58.1625 28.771875 58.490623 28.084375Q58.740623 27.5375 58.740623 26.490625L58.740623 25.9125ZM62.178123 26.725L62.178123 25.146875L67.0375 25.146875L67.0375 26.725L62.178123 26.725ZM70.7875 23.615625Q69.80312 23.25625 69.31875 22.584375Q68.85 21.9125 68.85 20.990625Q68.85 19.584375 69.85 18.63125Q70.86562 17.6625 72.55312 17.6625Q74.24062 17.6625 75.25625 18.646875Q76.2875 19.615625 76.2875 21.021875Q76.2875 21.928125 75.81875 22.6Q75.35 23.25625 74.39687 23.615625Q75.58437 24.00625 76.19375 24.865625Q76.81875 25.725 76.81875 26.9125Q76.81875 28.56875 75.64687 29.69375Q74.475 30.81875 72.56875 30.81875Q70.6625 30.81875 69.49062 29.69375Q68.33437 28.553125 68.33437 26.865625Q68.33437 25.615625 68.95937 24.771875Q69.6 23.9125 70.7875 23.615625ZM70.45937 20.928125Q70.45937 21.85 71.05312 22.428125Q71.64687 23.00625 72.58437 23.00625Q73.49062 23.00625 74.06875 22.428125Q74.6625 21.85 74.6625 21.021875Q74.6625 20.146875 74.05312 19.553125Q73.45937 18.959375 72.56875 18.959375Q71.6625 18.959375 71.05312 19.5375Q70.45937 20.115625 70.45937 20.928125ZM69.95937 26.88125Q69.95937 27.553125 70.27187 28.19375Q70.6 28.81875 71.225 29.178125Q71.86562 29.521875 72.6 29.521875Q73.725 29.521875 74.45937 28.7875Q75.20937 28.053125 75.20937 26.928125Q75.20937 25.7875 74.44375 25.053125Q73.67812 24.303125 72.5375 24.303125Q71.42812 24.303125 70.69375 25.0375Q69.95937 25.771875 69.95937 26.88125ZM78.9125 30.6L78.9125 17.709375L83.75625 17.709375Q85.225 17.709375 86.11562 18.1Q87.00625 18.490625 87.50625 19.303125Q88.02187 20.115625 88.02187 21.00625Q88.02187 21.834375 87.56875 22.56875Q87.13125 23.303125 86.225 23.740625Q87.39687 24.084375 88.02187 24.9125Q88.64687 25.740625 88.64687 26.865625Q88.64687 27.771875 88.25625 28.553125Q87.88125 29.31875 87.31875 29.740625Q86.75625 30.1625 85.9125 30.38125Q85.06875 30.6 83.83437 30.6L78.9125 30.6ZM80.63125 23.13125L83.4125 23.13125Q84.5375 23.13125 85.0375 22.975Q85.69375 22.7875 86.02187 22.35Q86.35 21.896875 86.35 21.209375Q86.35 20.56875 86.0375 20.084375Q85.725 19.6 85.14687 19.428125Q84.58437 19.240625 83.19375 19.240625L80.63125 19.240625L80.63125 23.13125ZM80.63125 29.084375L83.83437 29.084375Q84.6625 29.084375 84.99062 29.021875Q85.58437 28.9125 85.975 28.6625Q86.36562 28.4125 86.61562 27.94375Q86.88125 27.475 86.88125 26.865625Q86.88125 26.146875 86.50625 25.615625Q86.14687 25.084375 85.49062 24.865625Q84.83437 24.646875 83.6 24.646875L80.63125 24.646875L80.63125 29.084375ZM98.80312 34.38125Q97.50625 32.740623 96.6 30.521875Q95.69375 28.303125 95.69375 25.928125Q95.69375 23.834375 96.36562 21.928125Q97.1625 19.69375 98.80312 17.490625L99.94375 17.490625Q98.88125 19.31875 98.5375 20.1Q98.00625 21.31875 97.69375 22.63125Q97.31875 24.2875 97.31875 25.94375Q97.31875 30.1625 99.94375 34.38125L98.80312 34.38125ZM103.24062 30.6L101.77187 30.6L101.77187 17.709375L103.36562 17.709375L103.36562 22.31875Q104.36562 21.053125 105.9125 21.053125Q106.77187 21.053125 107.5375 21.4125Q108.31875 21.75625 108.80312 22.38125Q109.30312 23.00625 109.58437 23.896875Q109.86562 24.7875 109.86562 25.7875Q109.86562 28.19375 108.67812 29.50625Q107.50625 30.81875 105.83437 30.81875Q104.19375 30.81875 103.24062 29.428125L103.24062 30.6ZM103.225 25.865625Q103.225 27.5375 103.67812 28.2875Q104.42812 29.50625 105.70937 29.50625Q106.74062 29.50625 107.49062 28.615625Q108.25625 27.709375 108.25625 25.928125Q108.25625 24.1 107.52187 23.225Q106.80312 22.35 105.77187 22.35Q104.74062 22.35 103.975 23.25625Q103.225 24.1625 103.225 25.865625ZM112.1625 30.6L112.1625 22.490625L110.77187 22.490625L110.77187 21.271875L112.1625 21.271875L112.1625 20.271875Q112.1625 19.334375 112.33437 18.88125Q112.55312 18.25625 113.13125 17.88125Q113.70937 17.490625 114.75625 17.490625Q115.4125 17.490625 116.225 17.646875L115.99062 19.0375Q115.49062 18.94375 115.05312 18.94375Q114.33437 18.94375 114.0375 19.25625Q113.74062 19.553125 113.74062 20.396875L113.74062 21.271875L115.55312 21.271875L115.55312 22.490625L113.74062 22.490625L113.74062 30.6L112.1625 30.6ZM122.30312 30.6L120.725 30.6L120.725 20.521875Q120.14687 21.06875 119.225 21.615625Q118.30312 22.146875 117.55312 22.428125L117.55312 20.896875Q118.88125 20.271875 119.88125 19.38125Q120.88125 18.490625 121.2875 17.6625L122.30312 17.6625L122.30312 30.6ZM134.55313 20.865625L132.99063 20.990625Q132.77188 20.06875 132.38126 19.646875Q131.74063 18.959375 130.80313 18.959375Q130.05313 18.959375 129.475 19.38125Q128.725 19.928125 128.2875 20.975Q127.86562 22.021875 127.85 23.959375Q128.42813 23.084375 129.24063 22.6625Q130.06876 22.240625 130.975 22.240625Q132.56876 22.240625 133.67813 23.4125Q134.7875 24.56875 134.7875 26.4125Q134.7875 27.63125 134.25626 28.678125Q133.74063 29.709375 132.81876 30.271875Q131.9125 30.81875 130.75626 30.81875Q128.77188 30.81875 127.52187 29.365625Q126.27187 27.9125 126.27187 24.56875Q126.27187 20.834375 127.6625 19.13125Q128.86563 17.6625 130.89688 17.6625Q132.42813 17.6625 133.39688 18.521875Q134.36563 19.365625 134.55313 20.865625ZM128.1 26.428125Q128.1 27.240625 128.44376 27.990625Q128.7875 28.740625 129.4125 29.13125Q130.0375 29.521875 130.725 29.521875Q131.725 29.521875 132.44376 28.709375Q133.1625 27.896875 133.1625 26.50625Q133.1625 25.178125 132.44376 24.4125Q131.74063 23.63125 130.6625 23.63125Q129.58438 23.63125 128.83438 24.4125Q128.1 25.178125 128.1 26.428125ZM137.81876 34.38125L136.69376 34.38125Q139.31876 30.1625 139.31876 25.94375Q139.31876 24.2875 138.94376 22.6625Q138.64688 21.35 138.1 20.13125Q137.75626 19.334375 136.69376 17.490625L137.81876 17.490625Q139.475 19.69375 140.27188 21.928125Q140.94376 23.834375 140.94376 25.928125Q140.94376 28.303125 140.0375 30.521875Q139.13126 32.740623 137.81876 34.38125ZM147.19376 25.928125Q147.19376 23.334375 148.64688 22.084375Q149.85 21.053125 151.56876 21.053125Q153.50626 21.053125 154.725 22.31875Q155.94376 23.584375 155.94376 25.803125Q155.94376 27.6 155.39688 28.63125Q154.86563 29.6625 153.83438 30.240625Q152.80313 30.81875 151.56876 30.81875Q149.61563 30.81875 148.39688 29.56875Q147.19376 28.303125 147.19376 25.928125ZM148.81876 25.928125Q148.81876 27.725 149.6 28.615625Q150.38126 29.50625 151.56876 29.50625Q152.75626 29.50625 153.5375 28.615625Q154.31876 27.709375 154.31876 25.88125Q154.31876 24.146875 153.52188 23.25625Q152.74063 22.365625 151.56876 22.365625Q150.38126 22.365625 149.6 23.25625Q148.81876 24.146875 148.81876 25.928125ZM157.7875 30.6L157.7875 21.271875L159.20938 21.271875L159.20938 22.6Q160.24063 21.053125 162.17813 21.053125Q163.02188 21.053125 163.725 21.365625Q164.44376 21.6625 164.7875 22.1625Q165.14688 22.646875 165.2875 23.31875Q165.36563 23.75625 165.36563 24.865625L165.36563 30.6L163.7875 30.6L163.7875 24.928125Q163.7875 23.959375 163.6 23.475Q163.42813 22.990625 162.94376 22.709375Q162.475 22.428125 161.85 22.428125Q160.83438 22.428125 160.1 23.06875Q159.36563 23.709375 159.36563 25.50625L159.36563 30.6L157.7875 30.6ZM178.30313 30.6L176.725 30.6L176.725 20.521875Q176.14688 21.06875 175.225 21.615625Q174.30313 22.146875 173.55313 22.428125L173.55313 20.896875Q174.88126 20.271875 175.88126 19.38125Q176.88126 18.490625 177.2875 17.6625L178.30313 17.6625L178.30313 30.6ZM186.725 30.6L190.14688 25.740625L186.99063 21.271875L188.95938 21.271875L190.39688 23.459375Q190.80313 24.084375 191.05313 24.50625Q191.42813 23.9125 191.75626 23.475L193.33438 21.271875L195.225 21.271875L191.99063 25.6625L195.475 30.6L193.52188 30.6L191.61563 27.69375L191.1 26.9125L188.64688 30.6L186.725 30.6ZM199.56876 30.6L204.52188 17.709375L206.36563 17.709375L211.63126 30.6L209.69376 30.6L208.19376 26.69375L202.80313 26.69375L201.38126 30.6L199.56876 30.6ZM203.2875 25.303125L207.6625 25.303125L206.31876 21.740625Q205.69376 20.115625 205.39688 19.06875Q205.1625 20.303125 204.70938 21.521875L203.2875 25.303125ZM217.30313 30.6L215.725 30.6L215.725 20.521875Q215.14688 21.06875 214.225 21.615625Q213.30313 22.146875 212.55313 22.428125L212.55313 20.896875Q213.88126 20.271875 214.88126 19.38125Q215.88126 18.490625 216.2875 17.6625L217.30313 17.6625L217.30313 30.6ZM221.35 24.240625Q221.35 21.959375 221.81876 20.56875Q222.2875 19.178125 223.20938 18.428125Q224.14688 17.6625 225.55313 17.6625Q226.58438 17.6625 227.36563 18.084375Q228.14688 18.490625 228.64688 19.2875Q229.1625 20.06875 229.45938 21.209375Q229.75626 22.334375 229.75626 24.240625Q229.75626 26.50625 229.2875 27.9125Q228.81876 29.303125 227.88126 30.06875Q226.95938 30.81875 225.55313 30.81875Q223.67813 30.81875 222.61563 29.490625Q221.35 27.88125 221.35 24.240625ZM222.975 24.240625Q222.975 27.4125 223.70938 28.475Q224.45938 29.521875 225.55313 29.521875Q226.63126 29.521875 227.38126 28.475Q228.13126 27.4125 228.13126 24.240625Q228.13126 21.06875 227.38126 20.021875Q226.63126 18.975 225.5375 18.975Q224.44376 18.975 223.7875 19.896875Q222.975 21.06875 222.975 24.240625ZM231.35 24.240625Q231.35 21.959375 231.81876 20.56875Q232.2875 19.178125 233.20938 18.428125Q234.14688 17.6625 235.55313 17.6625Q236.58438 17.6625 237.36563 18.084375Q238.14688 18.490625 238.64688 19.2875Q239.1625 20.06875 239.45938 21.209375Q239.75626 22.334375 239.75626 24.240625Q239.75626 26.50625 239.2875 27.9125Q238.81876 29.303125 237.88126 30.06875Q236.95938 30.81875 235.55313 30.81875Q233.67813 30.81875 232.61563 29.490625Q231.35 27.88125 231.35 24.240625ZM232.975 24.240625Q232.975 27.4125 233.70938 28.475Q234.45938 29.521875 235.55313 29.521875Q236.63126 29.521875 237.38126 28.475Q238.13126 27.4125 238.13126 24.240625Q238.13126 21.06875 237.38126 20.021875Q236.63126 18.975 235.5375 18.975Q234.44376 18.975 233.7875 19.896875Q232.975 21.06875 232.975 24.240625ZM242.24063 30.6L242.24063 28.803125L244.0375 28.803125L244.0375 30.6L242.24063 30.6ZM251.9125 30.6L251.9125 17.709375L253.63126 17.709375L253.63126 29.084375L259.975 29.084375L259.975 30.6L251.9125 30.6ZM261.19376 25.928125Q261.19376 23.334375 262.64688 22.084375Q263.85 21.053125 265.56876 21.053125Q267.50626 21.053125 268.725 22.31875Q269.94376 23.584375 269.94376 25.803125Q269.94376 27.6 269.39688 28.63125Q268.86563 29.6625 267.83438 30.240625Q266.80313 30.81875 265.56876 30.81875Q263.61563 30.81875 262.39688 29.56875Q261.19376 28.303125 261.19376 25.928125ZM262.81876 25.928125Q262.81876 27.725 263.6 28.615625Q264.38126 29.50625 265.56876 29.50625Q266.75626 29.50625 267.5375 28.615625Q268.31876 27.709375 268.31876 25.88125Q268.31876 24.146875 267.52188 23.25625Q266.74063 22.365625 265.56876 22.365625Q264.38126 22.365625 263.6 23.25625Q262.81876 24.146875 262.81876 25.928125ZM273.50626 30.6L270.64688 21.271875L272.2875 21.271875L273.77188 26.646875L274.33438 28.6625Q274.36563 28.50625 274.80313 26.725L276.30313 21.271875L277.92813 21.271875L279.31876 26.678125L279.7875 28.459375L280.31876 26.6625L281.92813 21.271875L283.45938 21.271875L280.5375 30.6L278.89688 30.6L277.4125 25.00625L277.05313 23.4125L275.1625 30.6L273.50626 30.6ZM291.17813 27.6L292.81876 27.803125Q292.42813 29.225 291.38126 30.021875Q290.33438 30.81875 288.70938 30.81875Q286.6625 30.81875 285.45938 29.553125Q284.25626 28.2875 284.25626 26.00625Q284.25626 23.6625 285.45938 22.365625Q286.67813 21.053125 288.61563 21.053125Q290.49063 21.053125 291.67813 22.334375Q292.86563 23.6 292.86563 25.9125Q292.86563 26.053125 292.85 26.334375L285.89688 26.334375Q285.975 27.88125 286.75626 28.69375Q287.55313 29.50625 288.70938 29.50625Q289.58438 29.50625 290.19376 29.053125Q290.81876 28.6 291.17813 27.6ZM285.975 25.0375L291.19376 25.0375Q291.08438 23.865625 290.6 23.271875Q289.83438 22.35 288.63126 22.35Q287.55313 22.35 286.80313 23.084375Q286.06876 23.81875 285.975 25.0375ZM294.77188 30.6L294.77188 21.271875L296.19376 21.271875L296.19376 22.678125Q296.74063 21.69375 297.19376 21.38125Q297.6625 21.053125 298.20938 21.053125Q299.02188 21.053125 299.83438 21.56875L299.30313 23.0375Q298.70938 22.69375 298.13126 22.69375Q297.61563 22.69375 297.19376 23.00625Q296.7875 23.31875 296.61563 23.865625Q296.35 24.709375 296.35 25.709375L296.35 30.6L294.77188 30.6ZM305.9125 30.6L305.9125 17.709375L307.63126 17.709375L307.63126 29.084375L313.975 29.084375L313.975 30.6L305.9125 30.6ZM321.88126 29.44375Q321.00626 30.19375 320.17813 30.50625Q319.36563 30.81875 318.44376 30.81875Q316.89688 30.81875 316.06876 30.06875Q315.25626 29.303125 315.25626 28.13125Q315.25626 27.459375 315.56876 26.896875Q315.88126 26.31875 316.38126 25.975Q316.88126 25.63125 317.52188 25.459375Q317.99063 25.334375 318.92813 25.225Q320.83438 24.990625 321.74063 24.678125Q321.75626 24.35 321.75626 24.25625Q321.75626 23.303125 321.30313 22.896875Q320.69376 22.365625 319.50626 22.365625Q318.38126 22.365625 317.85 22.75625Q317.31876 23.146875 317.06876 24.146875L315.52188 23.928125Q315.74063 22.928125 316.20938 22.31875Q316.69376 21.709375 317.6 21.38125Q318.52188 21.053125 319.74063 21.053125Q320.92813 21.053125 321.67813 21.334375Q322.42813 21.615625 322.77188 22.053125Q323.13126 22.475 323.27188 23.115625Q323.35 23.521875 323.35 24.584375L323.35 26.69375Q323.35 28.896875 323.44376 29.490625Q323.55313 30.06875 323.85 30.6L322.19376 30.6Q321.94376 30.1 321.88126 29.44375ZM321.74063 25.9125Q320.88126 26.271875 319.1625 26.50625Q318.19376 26.646875 317.7875 26.834375Q317.38126 27.00625 317.1625 27.35Q316.94376 27.678125 316.94376 28.1Q316.94376 28.725 317.4125 29.146875Q317.89688 29.56875 318.81876 29.56875Q319.74063 29.56875 320.44376 29.178125Q321.1625 28.771875 321.49063 28.084375Q321.74063 27.5375 321.74063 26.490625L321.74063 25.9125ZM329.24063 29.178125L329.475 30.584375Q328.80313 30.725 328.27188 30.725Q327.4125 30.725 326.92813 30.459375Q326.45938 30.178125 326.27188 29.740625Q326.08438 29.2875 326.08438 27.865625L326.08438 22.490625L324.9125 22.490625L324.9125 21.271875L326.08438 21.271875L326.08438 18.959375L327.64688 18.00625L327.64688 21.271875L329.24063 21.271875L329.24063 22.490625L327.64688 22.490625L327.64688 27.959375Q327.64688 28.63125 327.725 28.834375Q327.81876 29.021875 328.00626 29.13125Q328.19376 29.240625 328.55313 29.240625Q328.80313 29.240625 329.24063 29.178125ZM337.17813 27.6L338.81876 27.803125Q338.42813 29.225 337.38126 30.021875Q336.33438 30.81875 334.70938 30.81875Q332.6625 30.81875 331.45938 29.553125Q330.25626 28.2875 330.25626 26.00625Q330.25626 23.6625 331.45938 22.365625Q332.67813 21.053125 334.61563 21.053125Q336.49063 21.053125 337.67813 22.334375Q338.86563 23.6 338.86563 25.9125Q338.86563 26.053125 338.85 26.334375L331.89688 26.334375Q331.975 27.88125 332.75626 28.69375Q333.55313 29.50625 334.70938 29.50625Q335.58438 29.50625 336.19376 29.053125Q336.81876 28.6 337.17813 27.6ZM331.975 25.0375L337.19376 25.0375Q337.08438 23.865625 336.6 23.271875Q335.83438 22.35 334.63126 22.35Q333.55313 22.35 332.80313 23.084375Q332.06876 23.81875 331.975 25.0375ZM340.7875 30.6L340.7875 21.271875L342.20938 21.271875L342.20938 22.6Q343.24063 21.053125 345.17813 21.053125Q346.02188 21.053125 346.725 21.365625Q347.44376 21.6625 347.7875 22.1625Q348.14688 22.646875 348.2875 23.31875Q348.36563 23.75625 348.36563 24.865625L348.36563 30.6L346.7875 30.6L346.7875 24.928125Q346.7875 23.959375 346.6 23.475Q346.42813 22.990625 345.94376 22.709375Q345.475 22.428125 344.85 22.428125Q343.83438 22.428125 343.1 23.06875Q342.36563 23.709375 342.36563 25.50625L342.36563 30.6L340.7875 30.6ZM356.88126 27.178125L358.42813 27.38125Q358.17813 28.990625 357.13126 29.9125Q356.08438 30.81875 354.55313 30.81875Q352.63126 30.81875 351.45938 29.56875Q350.30313 28.303125 350.30313 25.975Q350.30313 24.459375 350.80313 23.334375Q351.30313 22.19375 352.31876 21.63125Q353.35 21.053125 354.55313 21.053125Q356.08438 21.053125 357.0375 21.834375Q358.00626 22.6 358.2875 24.00625L356.74063 24.240625Q356.52188 23.303125 355.95938 22.834375Q355.4125 22.35 354.61563 22.35Q353.42813 22.35 352.67813 23.209375Q351.92813 24.06875 351.92813 25.928125Q351.92813 27.803125 352.64688 28.6625Q353.36563 29.50625 354.5375 29.50625Q355.45938 29.50625 356.08438 28.94375Q356.70938 28.365625 356.88126 27.178125ZM359.70938 34.19375L359.5375 32.709373Q360.05313 32.85 360.44376 32.85Q360.975 32.85 361.2875 32.678123Q361.6 32.50625 361.80313 32.178123Q361.95938 31.94375 362.2875 31.00625Q362.33438 30.865625 362.42813 30.615625L358.89688 21.271875L360.6 21.271875L362.5375 26.678125Q362.9125 27.69375 363.20938 28.834375Q363.49063 27.740625 363.86563 26.709375L365.86563 21.271875L367.44376 21.271875L363.89688 30.75625Q363.31876 32.303123 363.00626 32.88125Q362.58438 33.6625 362.0375 34.021873Q361.49063 34.38125 360.74063 34.38125Q360.27188 34.38125 359.70938 34.19375ZM373.80313 19.5375L373.80313 17.709375L375.38126 17.709375L375.38126 19.5375L373.80313 19.5375ZM373.80313 30.6L373.80313 21.271875L375.38126 21.271875L375.38126 30.6L373.80313 30.6ZM377.14688 27.81875L378.725 27.56875Q378.85 28.50625 379.44376 29.00625Q380.05313 29.50625 381.13126 29.50625Q382.225 29.50625 382.75626 29.06875Q383.2875 28.615625 383.2875 28.021875Q383.2875 27.490625 382.81876 27.178125Q382.49063 26.975 381.19376 26.646875Q379.45938 26.209375 378.7875 25.896875Q378.11563 25.56875 377.75626 25.00625Q377.4125 24.428125 377.4125 23.740625Q377.4125 23.115625 377.69376 22.584375Q377.99063 22.053125 378.475 21.709375Q378.85 21.428125 379.49063 21.240625Q380.13126 21.053125 380.85 21.053125Q381.95938 21.053125 382.7875 21.38125Q383.61563 21.69375 384.00626 22.240625Q384.4125 22.771875 384.55313 23.678125L383.00626 23.88125Q382.89688 23.1625 382.39688 22.75625Q381.89688 22.35 380.975 22.35Q379.88126 22.35 379.4125 22.709375Q378.94376 23.06875 378.94376 23.553125Q378.94376 23.865625 379.14688 24.115625Q379.33438 24.365625 379.74063 24.5375Q379.99063 24.615625 381.14688 24.94375Q382.81876 25.38125 383.475 25.678125Q384.14688 25.959375 384.52188 26.50625Q384.9125 27.053125 384.9125 27.85Q384.9125 28.646875 384.44376 29.35Q383.99063 30.053125 383.11563 30.44375Q382.24063 30.81875 381.14688 30.81875Q379.31876 30.81875 378.36563 30.06875Q377.4125 29.303125 377.14688 27.81875ZM391.9125 30.6L391.9125 17.709375L396.75626 17.709375Q398.225 17.709375 399.11563 18.1Q400.00626 18.490625 400.50626 19.303125Q401.02188 20.115625 401.02188 21.00625Q401.02188 21.834375 400.56876 22.56875Q400.13126 23.303125 399.225 23.740625Q400.39688 24.084375 401.02188 24.9125Q401.64688 25.740625 401.64688 26.865625Q401.64688 27.771875 401.25626 28.553125Q400.88126 29.31875 400.31876 29.740625Q399.75626 30.1625 398.9125 30.38125Q398.06876 30.6 396.83438 30.6L391.9125 30.6ZM393.63126 23.13125L396.4125 23.13125Q397.5375 23.13125 398.0375 22.975Q398.69376 22.7875 399.02188 22.35Q399.35 21.896875 399.35 21.209375Q399.35 20.56875 399.0375 20.084375Q398.725 19.6 398.14688 19.428125Q397.58438 19.240625 396.19376 19.240625L393.63126 19.240625L393.63126 23.13125ZM393.63126 29.084375L396.83438 29.084375Q397.6625 29.084375 397.99063 29.021875Q398.58438 28.9125 398.975 28.6625Q399.36563 28.4125 399.61563 27.94375Q399.88126 27.475 399.88126 26.865625Q399.88126 26.146875 399.50626 25.615625Q399.14688 25.084375 398.49063 24.865625Q397.83438 24.646875 396.6 24.646875L393.63126 24.646875L393.63126 29.084375ZM410.17813 27.6L411.81876 27.803125Q411.42813 29.225 410.38126 30.021875Q409.33438 30.81875 407.70938 30.81875Q405.6625 30.81875 404.45938 29.553125Q403.25626 28.2875 403.25626 26.00625Q403.25626 23.6625 404.45938 22.365625Q405.67813 21.053125 407.61563 21.053125Q409.49063 21.053125 410.67813 22.334375Q411.86563 23.6 411.86563 25.9125Q411.86563 26.053125 411.85 26.334375L404.89688 26.334375Q404.975 27.88125 405.75626 28.69375Q406.55313 29.50625 407.70938 29.50625Q408.58438 29.50625 409.19376 29.053125Q409.81876 28.6 410.17813 27.6ZM404.975 25.0375L410.19376 25.0375Q410.08438 23.865625 409.6 23.271875Q408.83438 22.35 407.63126 22.35Q406.55313 22.35 405.80313 23.084375Q405.06876 23.81875 404.975 25.0375ZM417.24063 29.178125L417.475 30.584375Q416.80313 30.725 416.27188 30.725Q415.4125 30.725 414.92813 30.459375Q414.45938 30.178125 414.27188 29.740625Q414.08438 29.2875 414.08438 27.865625L414.08438 22.490625L412.9125 22.490625L412.9125 21.271875L414.08438 21.271875L414.08438 18.959375L415.64688 18.00625L415.64688 21.271875L417.24063 21.271875L417.24063 22.490625L415.64688 22.490625L415.64688 27.959375Q415.64688 28.63125 415.725 28.834375Q415.81876 29.021875 416.00626 29.13125Q416.19376 29.240625 416.55313 29.240625Q416.80313 29.240625 417.24063 29.178125ZM422.24063 29.178125L422.475 30.584375Q421.80313 30.725 421.27188 30.725Q420.4125 30.725 419.92813 30.459375Q419.45938 30.178125 419.27188 29.740625Q419.08438 29.2875 419.08438 27.865625L419.08438 22.490625L417.9125 22.490625L417.9125 21.271875L419.08438 21.271875L419.08438 18.959375L420.64688 18.00625L420.64688 21.271875L422.24063 21.271875L422.24063 22.490625L420.64688 22.490625L420.64688 27.959375Q420.64688 28.63125 420.725 28.834375Q420.81876 29.021875 421.00626 29.13125Q421.19376 29.240625 421.55313 29.240625Q421.80313 29.240625 422.24063 29.178125ZM430.17813 27.6L431.81876 27.803125Q431.42813 29.225 430.38126 30.021875Q429.33438 30.81875 427.70938 30.81875Q425.6625 30.81875 424.45938 29.553125Q423.25626 28.2875 423.25626 26.00625Q423.25626 23.6625 424.45938 22.365625Q425.67813 21.053125 427.61563 21.053125Q429.49063 21.053125 430.67813 22.334375Q431.86563 23.6 431.86563 25.9125Q431.86563 26.053125 431.85 26.334375L424.89688 26.334375Q424.975 27.88125 425.75626 28.69375Q426.55313 29.50625 427.70938 29.50625Q428.58438 29.50625 429.19376 29.053125Q429.81876 28.6 430.17813 27.6ZM424.975 25.0375L430.19376 25.0375Q430.08438 23.865625 429.6 23.271875Q428.83438 22.35 427.63126 22.35Q426.55313 22.35 425.80313 23.084375Q425.06876 23.81875 424.975 25.0375ZM433.77188 30.6L433.77188 21.271875L435.19376 21.271875L435.19376 22.678125Q435.74063 21.69375 436.19376 21.38125Q436.6625 21.053125 437.20938 21.053125Q438.02188 21.053125 438.83438 21.56875L438.30313 23.0375Q437.70938 22.69375 437.13126 22.69375Q436.61563 22.69375 436.19376 23.00625Q435.7875 23.31875 435.61563 23.865625Q435.35 24.709375 435.35 25.709375L435.35 30.6L433.77188 30.6ZM440.24063 30.6L440.24063 28.803125L442.0375 28.803125L442.0375 30.6L440.24063 30.6Z" fill-rule="nonzero"/></svg>