<svg version="1.1" viewBox="0.0 0.0 648.0 272.0" fill="none" stroke="none" stroke-linecap="square" stroke-miterlimit="10" width="648" height="272" xmlns:xlink="http://www.w3.org/1999/xlink" xmlns="http://www.w3.org/2000/svg"><path fill="#ffffff" d="M0 0L648.0 0L648.0 272.0L0 272.0L0 0Z" fill-rule="nonzero"/><path stroke="#333333" stroke-width="1.0" stroke-linecap="butt" d="M81.5 76.5L81.5 198.5" fill-rule="nonzero"/><path stroke="#cccccc" stroke-width="1.0" stroke-linecap="butt" d="M143.5 76.5L143.5 198.5" fill-rule="nonzero"/><path stroke="#cccccc" stroke-width="1.0" stroke-linecap="butt" d="M204.5 76.5L204.5 198.5" fill-rule="nonzero"/><path stroke="#cccccc" stroke-width="1.0" stroke-linecap="butt" d="M265.5 76.5L265.5 198.5" fill-rule="nonzero"/><path stroke="#cccccc" stroke-width="1.0" stroke-linecap="butt" d="M327.5 76.5L327.5 198.5" fill-rule="nonzero"/><path stroke="#cccccc" stroke-width="1.0" stroke-linecap="butt" d="M388.5 76.5L388.5 198.5" fill-rule="nonzero"/><path stroke="#cccccc" stroke-width="1.0" stroke-linecap="butt" d="M450.5 76.5L450.5 198.5" fill-rule="nonzero"/><path stroke="#cccccc" stroke-width="1.0" stroke-linecap="butt" d="M511.5 76.5L511.5 198.5" fill-rule="nonzero"/><path stroke="#cccccc" stroke-width="1.0" stroke-linecap="butt" d="M572.5 76.5L572.5 198.5" fill-rule="nonzero"/><path stroke="#cccccc" stroke-width="1.0" stroke-linecap="butt" d="M634.5 76.5L634.5 198.5" fill-rule="nonzero"/><path stroke="#333333" stroke-width="1.0" stroke-linecap="butt" d="M81.5 198.5L634.5 198.5" fill-rule="nonzero"/><path stroke="#cccccc" stroke-width="1.0" stroke-linecap="butt" d="M81.5 167.5L634.5 167.5" fill-rule="nonzero"/><path stroke="#cccccc" stroke-width="1.0" stroke-linecap="butt" d="M81.5 137.5L634.5 137.5" fill-rule="nonzero"/><path stroke="#cccccc" stroke-width="1.0" stroke-linecap="butt" d="M81.5 107.5L634.5 107.5" fill-rule="nonzero"/><path stroke="#cccccc" stroke-width="1.0" stroke-linecap="butt" d="M81.5 76.5L634.5 76.5" fill-rule="nonzero"/><clipPath id="id_0"><path d="M81.6 76.73333L634.4 76.73333L634.4 198.4L81.6 198.4L81.6 76.73333Z" clip-rule="nonzero"/></clipPath><path stroke="#4285f4" stroke-width="2.0" stroke-linecap="butt" clip-path="url(#id_0)" d="M112.31111 192.537L143.02222 190.66527L204.44444 167.92052L327.28888 41.58181L572.9778 -89.6592" fill-rule="nonzero"/><path stroke="#ea4335" stroke-width="2.0" stroke-linecap="butt" clip-path="url(#id_0)" d="M112.31111 193.67325L143.02222 192.82158L204.44444 191.95775L327.28888 165.06334L572.9778 101.07275" fill-rule="nonzero"/><path stroke="#fbbc04" stroke-width="2.0" stroke-linecap="butt" clip-path="url(#id_0)" d="M112.31111 194.02383L143.02222 193.24402L204.44444 191.29045L327.28888 169.2815L572.9778 99.695496" fill-rule="nonzero"/><path fill="#000000" fill-opacity="0.0" clip-path="url(#id_0)" d="M115.31111 192.537C115.31111 194.19385 113.967964 195.537 112.31111 195.537C110.65426 195.537 109.31111 194.19385 109.31111 192.537C109.31111 190.88014 110.65426 189.537 112.31111 189.537C113.967964 189.537 115.31111 190.88014 115.31111 192.537Z" fill-rule="nonzero"/><path fill="#000000" fill-opacity="0.0" clip-path="url(#id_0)" d="M146.02222 190.66527C146.02222 192.32213 144.67908 193.66527 143.02222 193.66527C141.36537 193.66527 140.02222 192.32213 140.02222 190.66527C140.02222 189.0084 141.36537 187.66527 143.02222 187.66527C144.67908 187.66527 146.02222 189.0084 146.02222 190.66527Z" fill-rule="nonzero"/><path fill="#000000" fill-opacity="0.0" clip-path="url(#id_0)" d="M207.44444 167.92052C207.44444 169.57736 206.1013 170.92052 204.44444 170.92052C202.7876 170.92052 201.44444 169.57736 201.44444 167.92052C201.44444 166.26366 202.7876 164.92052 204.44444 164.92052C206.1013 164.92052 207.44444 166.26366 207.44444 167.92052Z" fill-rule="nonzero"/><path fill="#000000" fill-opacity="0.0" clip-path="url(#id_0)" d="M330.28888 41.58181C330.28888 43.238663 328.94574 44.58181 327.28888 44.58181C325.63205 44.58181 324.28888 43.238663 324.28888 41.58181C324.28888 39.924953 325.63205 38.58181 327.28888 38.58181C328.94574 38.58181 330.28888 39.924953 330.28888 41.58181Z" fill-rule="nonzero"/><path fill="#000000" fill-opacity="0.0" clip-path="url(#id_0)" d="M575.9778 -89.6592C575.9778 -88.00235 574.63464 -86.6592 572.9778 -86.6592C571.3209 -86.6592 569.9778 -88.00235 569.9778 -89.6592C569.9778 -91.316055 571.3209 -92.6592 572.9778 -92.6592C574.63464 -92.6592 575.9778 -91.316055 575.9778 -89.6592Z" fill-rule="nonzero"/><path fill="#000000" fill-opacity="0.0" clip-path="url(#id_0)" d="M115.31111 193.67325C115.31111 195.33011 113.967964 196.67325 112.31111 196.67325C110.65426 196.67325 109.31111 195.33011 109.31111 193.67325C109.31111 192.0164 110.65426 190.67325 112.31111 190.67325C113.967964 190.67325 115.31111 192.0164 115.31111 193.67325Z" fill-rule="nonzero"/><path fill="#000000" fill-opacity="0.0" clip-path="url(#id_0)" d="M146.02222 192.82158C146.02222 194.47844 144.67908 195.82158 143.02222 195.82158C141.36537 195.82158 140.02222 194.47844 140.02222 192.82158C140.02222 191.16473 141.36537 189.82158 143.02222 189.82158C144.67908 189.82158 146.02222 191.16473 146.02222 192.82158Z" fill-rule="nonzero"/><path fill="#000000" fill-opacity="0.0" clip-path="url(#id_0)" d="M207.44444 191.95775C207.44444 193.61461 206.1013 194.95775 204.44444 194.95775C202.7876 194.95775 201.44444 193.61461 201.44444 191.95775C201.44444 190.3009 202.7876 188.95775 204.44444 188.95775C206.1013 188.95775 207.44444 190.3009 207.44444 191.95775Z" fill-rule="nonzero"/><path fill="#000000" fill-opacity="0.0" clip-path="url(#id_0)" d="M330.28888 165.06334C330.28888 166.72018 328.94574 168.06334 327.28888 168.06334C325.63205 168.06334 324.28888 166.72018 324.28888 165.06334C324.28888 163.40648 325.63205 162.06334 327.28888 162.06334C328.94574 162.06334 330.28888 163.40648 330.28888 165.06334Z" fill-rule="nonzero"/><path fill="#000000" fill-opacity="0.0" clip-path="url(#id_0)" d="M575.9778 101.07275C575.9778 102.72961 574.63464 104.07275 572.9778 104.07275C571.3209 104.07275 569.9778 102.72961 569.9778 101.07275C569.9778 99.41589 571.3209 98.07275 572.9778 98.07275C574.63464 98.07275 575.9778 99.41589 575.9778 101.07275Z" fill-rule="nonzero"/><path fill="#000000" fill-opacity="0.0" clip-path="url(#id_0)" d="M115.31111 194.02383C115.31111 195.6807 113.967964 197.02383 112.31111 197.02383C110.65426 197.02383 109.31111 195.6807 109.31111 194.02383C109.31111 192.36699 110.65426 191.02383 112.31111 191.02383C113.967964 191.02383 115.31111 192.36699 115.31111 194.02383Z" fill-rule="nonzero"/><path fill="#000000" fill-opacity="0.0" clip-path="url(#id_0)" d="M146.02222 193.24402C146.02222 194.90088 144.67908 196.24402 143.02222 196.24402C141.36537 196.24402 140.02222 194.90088 140.02222 193.24402C140.02222 191.58717 141.36537 190.24402 143.02222 190.24402C144.67908 190.24402 146.02222 191.58717 146.02222 193.24402Z" fill-rule="nonzero"/><path fill="#000000" fill-opacity="0.0" clip-path="url(#id_0)" d="M207.44444 191.29045C207.44444 192.94731 206.1013 194.29045 204.44444 194.29045C202.7876 194.29045 201.44444 192.94731 201.44444 191.29045C201.44444 189.63359 202.7876 188.29045 204.44444 188.29045C206.1013 188.29045 207.44444 189.63359 207.44444 191.29045Z" fill-rule="nonzero"/><path fill="#000000" fill-opacity="0.0" clip-path="url(#id_0)" d="M330.28888 169.2815C330.28888 170.93835 328.94574 172.2815 327.28888 172.2815C325.63205 172.2815 324.28888 170.93835 324.28888 169.2815C324.28888 167.62465 325.63205 166.2815 327.28888 166.2815C328.94574 166.2815 330.28888 167.62465 330.28888 169.2815Z" fill-rule="nonzero"/><path fill="#000000" fill-opacity="0.0" clip-path="url(#id_0)" d="M575.9778 99.695496C575.9778 101.35235 574.63464 102.695496 572.9778 102.695496C571.3209 102.695496 569.9778 101.35235 569.9778 99.695496C569.9778 98.03864 571.3209 96.695496 572.9778 96.695496C574.63464 96.695496 575.9778 98.03864 575.9778 99.695496Z" fill-rule="nonzero"/><path fill="#000000" d="M290.09375 255.4L290.09375 245.38437L294.54688 245.38437Q295.89062 245.38437 296.57812 245.65Q297.28125 245.91562 297.6875 246.60312Q298.10938 247.29062 298.10938 248.11874Q298.10938 249.18124 297.42188 249.91562Q296.73438 250.63437 295.29688 250.8375Q295.8125 251.0875 296.09375 251.3375Q296.67188 251.86874 297.1875 252.66562L298.9375 255.4L297.26562 255.4L295.9375 253.32187Q295.35938 252.41562 294.98438 251.94687Q294.60938 251.4625 294.3125 251.275Q294.01562 251.07187 293.70312 250.99374Q293.48438 250.94687 292.96875 250.94687L291.42188 250.94687L291.42188 255.4L290.09375 255.4ZM291.42188 249.80624L294.28125 249.80624Q295.1875 249.80624 295.70312 249.61874Q296.21875 249.43124 296.48438 249.025Q296.75 248.60312 296.75 248.11874Q296.75 247.4 296.23438 246.94687Q295.71875 246.47812 294.59375 246.47812L291.42188 246.47812L291.42188 249.80624ZM304.89062 253.05624L306.17188 253.2125Q305.85938 254.3375 305.04688 254.9625Q304.23438 255.57187 302.96875 255.57187Q301.375 255.57187 300.4375 254.5875Q299.51562 253.60312 299.51562 251.8375Q299.51562 249.99374 300.45312 248.99374Q301.40625 247.97812 302.90625 247.97812Q304.35938 247.97812 305.28125 248.97812Q306.20312 249.9625 306.20312 251.75937Q306.20312 251.86874 306.20312 252.0875L300.78125 252.0875Q300.85938 253.275 301.45312 253.91562Q302.0625 254.55624 302.98438 254.55624Q303.65625 254.55624 304.125 254.19687Q304.60938 253.8375 304.89062 253.05624ZM300.85938 251.07187L304.90625 251.07187Q304.82812 250.15 304.4375 249.69687Q303.85938 248.99374 302.92188 248.99374Q302.0625 248.99374 301.48438 249.55624Q300.92188 250.11874 300.85938 251.07187ZM312.54688 258.18124L312.54688 254.63437Q312.26562 255.025 311.75 255.30624Q311.23438 255.57187 310.65625 255.57187Q309.35938 255.57187 308.42188 254.54062Q307.5 253.49374 307.5 251.69687Q307.5 250.60312 307.875 249.74374Q308.25 248.86874 308.96875 248.43124Q309.6875 247.97812 310.5625 247.97812Q311.90625 247.97812 312.67188 249.10312L312.67188 248.13437L313.78125 248.13437L313.78125 258.18124L312.54688 258.18124ZM308.75 251.74374Q308.75 253.15 309.34375 253.85312Q309.9375 254.55624 310.75 254.55624Q311.54688 254.55624 312.10938 253.88437Q312.67188 253.2125 312.67188 251.85312Q312.67188 250.41562 312.07812 249.68124Q311.48438 248.94687 310.67188 248.94687Q309.875 248.94687 309.3125 249.63437Q308.75 250.30624 308.75 251.74374ZM320.6875 255.4L320.6875 254.3375Q319.82812 255.57187 318.375 255.57187Q317.73438 255.57187 317.17188 255.32187Q316.625 255.07187 316.34375 254.69687Q316.07812 254.32187 315.96875 253.79062Q315.89062 253.43124 315.89062 252.63437L315.89062 248.13437L317.125 248.13437L317.125 252.16562Q317.125 253.13437 317.20312 253.4625Q317.3125 253.94687 317.6875 254.22812Q318.0625 254.50937 318.625 254.50937Q319.17188 254.50937 319.65625 254.22812Q320.14062 253.93124 320.34375 253.44687Q320.54688 252.9625 320.54688 252.025L320.54688 248.13437L321.78125 248.13437L321.78125 255.4L320.6875 255.4ZM328.89062 253.05624L330.17188 253.2125Q329.85938 254.3375 329.04688 254.9625Q328.23438 255.57187 326.96875 255.57187Q325.375 255.57187 324.4375 254.5875Q323.51562 253.60312 323.51562 251.8375Q323.51562 249.99374 324.45312 248.99374Q325.40625 247.97812 326.90625 247.97812Q328.35938 247.97812 329.28125 248.97812Q330.20312 249.9625 330.20312 251.75937Q330.20312 251.86874 330.20312 252.0875L324.78125 252.0875Q324.85938 253.275 325.45312 253.91562Q326.0625 254.55624 326.98438 254.55624Q327.65625 254.55624 328.125 254.19687Q328.60938 253.8375 328.89062 253.05624ZM324.85938 251.07187L328.90625 251.07187Q328.82812 250.15 328.4375 249.69687Q327.85938 248.99374 326.92188 248.99374Q326.0625 248.99374 325.48438 249.55624Q324.92188 250.11874 324.85938 251.07187ZM331.4375 253.22812L332.64062 253.04062Q332.75 253.775 333.21875 254.16562Q333.6875 254.55624 334.53125 254.55624Q335.375 254.55624 335.78125 254.2125Q336.20312 253.86874 336.20312 253.4Q336.20312 252.97812 335.82812 252.74374Q335.57812 252.57187 334.57812 252.32187Q333.21875 251.97812 332.6875 251.72812Q332.17188 251.47812 331.90625 251.04062Q331.64062 250.60312 331.64062 250.07187Q331.64062 249.5875 331.85938 249.18124Q332.07812 248.75937 332.46875 248.47812Q332.75 248.275 333.23438 248.13437Q333.73438 247.97812 334.3125 247.97812Q335.15625 247.97812 335.79688 248.22812Q336.45312 248.4625 336.76562 248.88437Q337.07812 249.30624 337.1875 250.00937L335.98438 250.18124Q335.90625 249.61874 335.5 249.30624Q335.10938 248.99374 334.39062 248.99374Q333.54688 248.99374 333.1875 249.275Q332.82812 249.54062 332.82812 249.93124Q332.82812 250.16562 332.96875 250.35312Q333.125 250.55624 333.45312 250.68124Q333.625 250.74374 334.53125 250.99374Q335.84375 251.35312 336.35938 251.57187Q336.875 251.79062 337.15625 252.2125Q337.45312 252.63437 337.45312 253.25937Q337.45312 253.88437 337.09375 254.43124Q336.75 254.9625 336.0625 255.275Q335.39062 255.57187 334.53125 255.57187Q333.125 255.57187 332.375 254.97812Q331.64062 254.38437 331.4375 253.22812ZM341.60938 254.30624L341.78125 255.38437Q341.26562 255.49374 340.85938 255.49374Q340.1875 255.49374 339.8125 255.29062Q339.45312 255.07187 339.29688 254.72812Q339.15625 254.38437 339.15625 253.275L339.15625 249.10312L338.25 249.10312L338.25 248.13437L339.15625 248.13437L339.15625 246.3375L340.375 245.60312L340.375 248.13437L341.60938 248.13437L341.60938 249.10312L340.375 249.10312L340.375 253.3375Q340.375 253.86874 340.4375 254.025Q340.5 254.16562 340.64062 254.25937Q340.79688 254.35312 341.0625 254.35312Q341.28125 254.35312 341.60938 254.30624ZM342.4375 253.22812L343.64062 253.04062Q343.75 253.775 344.21875 254.16562Q344.6875 254.55624 345.53125 254.55624Q346.375 254.55624 346.78125 254.2125Q347.20312 253.86874 347.20312 253.4Q347.20312 252.97812 346.82812 252.74374Q346.57812 252.57187 345.57812 252.32187Q344.21875 251.97812 343.6875 251.72812Q343.17188 251.47812 342.90625 251.04062Q342.64062 250.60312 342.64062 250.07187Q342.64062 249.5875 342.85938 249.18124Q343.07812 248.75937 343.46875 248.47812Q343.75 248.275 344.23438 248.13437Q344.73438 247.97812 345.3125 247.97812Q346.15625 247.97812 346.79688 248.22812Q347.45312 248.4625 347.76562 248.88437Q348.07812 249.30624 348.1875 250.00937L346.98438 250.18124Q346.90625 249.61874 346.5 249.30624Q346.10938 248.99374 345.39062 248.99374Q344.54688 248.99374 344.1875 249.275Q343.82812 249.54062 343.82812 249.93124Q343.82812 250.16562 343.96875 250.35312Q344.125 250.55624 344.45312 250.68124Q344.625 250.74374 345.53125 250.99374Q346.84375 251.35312 347.35938 251.57187Q347.875 251.79062 348.15625 252.2125Q348.45312 252.63437 348.45312 253.25937Q348.45312 253.88437 348.09375 254.43124Q347.75 254.9625 347.0625 255.275Q346.39062 255.57187 345.53125 255.57187Q344.125 255.57187 343.375 254.97812Q342.64062 254.38437 342.4375 253.22812ZM354.07812 255.4L354.07812 245.38437L357.85938 245.38437Q358.85938 245.38437 359.39062 245.47812Q360.125 245.60312 360.625 245.94687Q361.125 246.29062 361.42188 246.91562Q361.73438 247.525 361.73438 248.275Q361.73438 249.55624 360.92188 250.44687Q360.10938 251.32187 357.98438 251.32187L355.40625 251.32187L355.40625 255.4L354.07812 255.4ZM355.40625 250.15L358.0 250.15Q359.28125 250.15 359.8125 249.66562Q360.35938 249.18124 360.35938 248.32187Q360.35938 247.68124 360.04688 247.24374Q359.73438 246.79062 359.20312 246.65Q358.875 246.55624 357.96875 246.55624L355.40625 246.55624L355.40625 250.15ZM367.89062 253.05624L369.17188 253.2125Q368.85938 254.3375 368.04688 254.9625Q367.23438 255.57187 365.96875 255.57187Q364.375 255.57187 363.4375 254.5875Q362.51562 253.60312 362.51562 251.8375Q362.51562 249.99374 363.45312 248.99374Q364.40625 247.97812 365.90625 247.97812Q367.35938 247.97812 368.28125 248.97812Q369.20312 249.9625 369.20312 251.75937Q369.20312 251.86874 369.20312 252.0875L363.78125 252.0875Q363.85938 253.275 364.45312 253.91562Q365.0625 254.55624 365.98438 254.55624Q366.65625 254.55624 367.125 254.19687Q367.60938 253.8375 367.89062 253.05624ZM363.85938 251.07187L367.90625 251.07187Q367.82812 250.15 367.4375 249.69687Q366.85938 248.99374 365.92188 248.99374Q365.0625 248.99374 364.48438 249.55624Q363.92188 250.11874 363.85938 251.07187ZM370.90625 255.4L370.90625 248.13437L372.01562 248.13437L372.01562 249.24374Q372.4375 248.4625 372.79688 248.22812Q373.15625 247.97812 373.59375 247.97812Q374.21875 247.97812 374.85938 248.36874L374.4375 249.50937Q373.98438 249.24374 373.53125 249.24374Q373.125 249.24374 372.79688 249.49374Q372.48438 249.72812 372.34375 250.16562Q372.14062 250.82187 372.14062 251.60312L372.14062 255.4L370.90625 255.4ZM379.625 252.18124L380.875 252.07187Q380.96875 252.82187 381.29688 253.30624Q381.625 253.79062 382.29688 254.0875Q382.98438 254.38437 383.84375 254.38437Q384.59375 254.38437 385.17188 254.16562Q385.76562 253.93124 386.04688 253.54062Q386.32812 253.15 386.32812 252.68124Q386.32812 252.2125 386.04688 251.86874Q385.78125 251.50937 385.15625 251.25937Q384.75 251.10312 383.35938 250.775Q381.98438 250.44687 381.4375 250.15Q380.71875 249.775 380.35938 249.22812Q380.01562 248.66562 380.01562 247.9625Q380.01562 247.2125 380.4375 246.55624Q380.875 245.88437 381.70312 245.55624Q382.53125 245.2125 383.54688 245.2125Q384.65625 245.2125 385.5 245.57187Q386.35938 245.93124 386.8125 246.63437Q387.26562 247.32187 387.3125 248.19687L386.03125 248.29062Q385.9375 247.35312 385.34375 246.86874Q384.75 246.36874 383.59375 246.36874Q382.39062 246.36874 381.84375 246.82187Q381.29688 247.25937 381.29688 247.88437Q381.29688 248.41562 381.6875 248.775Q382.0625 249.11874 383.67188 249.49374Q385.29688 249.85312 385.89062 250.11874Q386.76562 250.525 387.1875 251.15Q387.60938 251.75937 387.60938 252.57187Q387.60938 253.36874 387.14062 254.0875Q386.6875 254.79062 385.82812 255.18124Q384.96875 255.57187 383.90625 255.57187Q382.54688 255.57187 381.625 255.18124Q380.70312 254.775 380.17188 253.97812Q379.65625 253.18124 379.625 252.18124ZM393.89062 253.05624L395.17188 253.2125Q394.85938 254.3375 394.04688 254.9625Q393.23438 255.57187 391.96875 255.57187Q390.375 255.57187 389.4375 254.5875Q388.51562 253.60312 388.51562 251.8375Q388.51562 249.99374 389.45312 248.99374Q390.40625 247.97812 391.90625 247.97812Q393.35938 247.97812 394.28125 248.97812Q395.20312 249.9625 395.20312 251.75937Q395.20312 251.86874 395.20312 252.0875L389.78125 252.0875Q389.85938 253.275 390.45312 253.91562Q391.0625 254.55624 391.98438 254.55624Q392.65625 254.55624 393.125 254.19687Q393.60938 253.8375 393.89062 253.05624ZM389.85938 251.07187L393.90625 251.07187Q393.82812 250.15 393.4375 249.69687Q392.85938 248.99374 391.92188 248.99374Q391.0625 248.99374 390.48438 249.55624Q389.92188 250.11874 389.85938 251.07187ZM401.65625 252.74374L402.875 252.9Q402.67188 254.15 401.84375 254.86874Q401.03125 255.57187 399.84375 255.57187Q398.35938 255.57187 397.45312 254.60312Q396.54688 253.61874 396.54688 251.79062Q396.54688 250.61874 396.9375 249.74374Q397.32812 248.85312 398.125 248.41562Q398.92188 247.97812 399.85938 247.97812Q401.03125 247.97812 401.78125 248.57187Q402.54688 249.16562 402.75 250.275L401.5625 250.4625Q401.39062 249.72812 400.95312 249.36874Q400.51562 248.99374 399.90625 248.99374Q398.96875 248.99374 398.39062 249.66562Q397.8125 250.32187 397.8125 251.75937Q397.8125 253.22812 398.375 253.9Q398.9375 254.55624 399.82812 254.55624Q400.5625 254.55624 401.04688 254.11874Q401.53125 253.66562 401.65625 252.74374ZM403.46875 251.775Q403.46875 249.75937 404.59375 248.775Q405.51562 247.97812 406.875 247.97812Q408.35938 247.97812 409.3125 248.9625Q410.26562 249.93124 410.26562 251.66562Q410.26562 253.07187 409.84375 253.88437Q409.42188 254.68124 408.60938 255.13437Q407.8125 255.57187 406.875 255.57187Q405.34375 255.57187 404.40625 254.5875Q403.46875 253.60312 403.46875 251.775ZM404.73438 251.775Q404.73438 253.16562 405.34375 253.86874Q405.95312 254.55624 406.875 254.55624Q407.78125 254.55624 408.39062 253.85312Q409.0 253.15 409.0 251.72812Q409.0 250.38437 408.39062 249.69687Q407.78125 248.99374 406.875 248.99374Q405.95312 248.99374 405.34375 249.68124Q404.73438 250.36874 404.73438 251.775ZM411.92188 255.4L411.92188 248.13437L413.03125 248.13437L413.03125 249.16562Q413.82812 247.97812 415.34375 247.97812Q416.0 247.97812 416.54688 248.2125Q417.09375 248.44687 417.35938 248.8375Q417.64062 249.2125 417.75 249.74374Q417.82812 250.0875 417.82812 250.93124L417.82812 255.4L416.59375 255.4L416.59375 250.97812Q416.59375 250.22812 416.45312 249.86874Q416.3125 249.49374 415.9375 249.275Q415.57812 249.04062 415.07812 249.04062Q414.29688 249.04062 413.71875 249.54062Q413.15625 250.04062 413.15625 251.43124L413.15625 255.4L411.92188 255.4ZM424.64062 255.4L424.64062 254.47812Q423.9375 255.57187 422.60938 255.57187Q421.73438 255.57187 421.0 255.0875Q420.28125 254.60312 419.875 253.74374Q419.48438 252.88437 419.48438 251.775Q419.48438 250.69687 419.84375 249.80624Q420.20312 248.91562 420.92188 248.44687Q421.65625 247.97812 422.54688 247.97812Q423.20312 247.97812 423.71875 248.25937Q424.23438 248.525 424.54688 248.97812L424.54688 245.38437L425.78125 245.38437L425.78125 255.4L424.64062 255.4ZM420.75 251.775Q420.75 253.16562 421.32812 253.86874Q421.92188 254.55624 422.71875 254.55624Q423.53125 254.55624 424.09375 253.9Q424.65625 253.22812 424.65625 251.88437Q424.65625 250.38437 424.07812 249.69687Q423.5 248.99374 422.67188 248.99374Q421.84375 248.99374 421.29688 249.66562Q420.75 250.3375 420.75 251.775Z" fill-rule="nonzero"/><path fill="#000000" d="M26.599995 204.51979L16.58437 204.51979L16.58437 202.53542L23.67812 200.16042Q24.662495 199.83229 25.162495 199.67604Q24.61562 199.50417 23.55312 199.14479L16.58437 196.75417L16.58437 194.95729L26.599995 194.95729L26.599995 196.23854L18.20937 196.23854L26.599995 199.16042L26.599995 200.34792L18.068745 203.25417L26.599995 203.25417L26.599995 204.51979ZM24.256245 188.67604L24.412495 187.39479Q25.537495 187.70729 26.162495 188.51979Q26.77187 189.33229 26.77187 190.59792Q26.77187 192.19167 25.787495 193.12917Q24.80312 194.05104 23.037495 194.05104Q21.193745 194.05104 20.193745 193.11354Q19.17812 192.16042 19.17812 190.66042Q19.17812 189.20729 20.17812 188.28542Q21.162495 187.36354 22.95937 187.36354Q23.068745 187.36354 23.287495 187.36354L23.287495 192.78542Q24.474995 192.70729 25.11562 192.11354Q25.756245 191.50417 25.756245 190.58229Q25.756245 189.91042 25.39687 189.44167Q25.037495 188.95729 24.256245 188.67604ZM22.27187 192.70729L22.27187 188.66042Q21.349995 188.73854 20.89687 189.12917Q20.193745 189.70729 20.193745 190.64479Q20.193745 191.50417 20.756245 192.08229Q21.318745 192.64479 22.27187 192.70729ZM26.599995 180.92604L25.67812 180.92604Q26.77187 181.62917 26.77187 182.95729Q26.77187 183.83229 26.287495 184.56667Q25.80312 185.28542 24.943745 185.69167Q24.08437 186.08229 22.974995 186.08229Q21.89687 186.08229 21.006245 185.72292Q20.11562 185.36354 19.64687 184.64479Q19.17812 183.91042 19.17812 183.01979Q19.17812 182.36354 19.45937 181.84792Q19.724995 181.33229 20.17812 181.01979L16.58437 181.01979L16.58437 179.78542L26.599995 179.78542L26.599995 180.92604ZM22.974995 184.81667Q24.36562 184.81667 25.068745 184.23854Q25.756245 183.64479 25.756245 182.84792Q25.756245 182.03542 25.099995 181.47292Q24.42812 180.91042 23.08437 180.91042Q21.58437 180.91042 20.89687 181.48854Q20.193745 182.06667 20.193745 182.89479Q20.193745 183.72292 20.86562 184.26979Q21.537495 184.81667 22.974995 184.81667ZM17.99062 177.62917L16.58437 177.62917L16.58437 176.41042L17.99062 176.41042L17.99062 177.62917ZM26.599995 177.62917L19.33437 177.62917L19.33437 176.41042L26.599995 176.41042L26.599995 177.62917ZM25.70937 169.91042Q26.287495 170.58229 26.537495 171.22292Q26.77187 171.84792 26.77187 172.58229Q26.77187 173.76979 26.193745 174.42604Q25.599995 175.06667 24.67812 175.06667Q24.14687 175.06667 23.70937 174.83229Q23.27187 174.58229 23.006245 174.19167Q22.74062 173.78542 22.599995 173.30104Q22.506245 172.94167 22.412495 172.20729Q22.24062 170.70729 21.99062 170.00417Q21.74062 170.00417 21.67812 170.00417Q20.912495 170.00417 20.61562 170.34792Q20.193745 170.81667 20.193745 171.75417Q20.193745 172.61354 20.506245 173.03542Q20.80312 173.44167 21.568745 173.64479L21.412495 174.84792Q20.631245 174.69167 20.162495 174.31667Q19.693745 173.92604 19.443745 173.22292Q19.17812 172.50417 19.17812 171.56667Q19.17812 170.64479 19.39687 170.06667Q19.61562 169.48854 19.943745 169.22292Q20.27187 168.94167 20.787495 168.83229Q21.099995 168.76979 21.912495 168.76979L23.55312 168.76979Q25.27187 168.76979 25.724995 168.69167Q26.17812 168.61354 26.599995 168.37917L26.599995 169.66042Q26.20937 169.84792 25.70937 169.91042ZM22.95937 170.00417Q23.224995 170.67604 23.42812 172.01979Q23.537495 172.76979 23.67812 173.09792Q23.80312 173.41042 24.068745 173.58229Q24.33437 173.75417 24.64687 173.75417Q25.14687 173.75417 25.474995 173.37917Q25.80312 173.00417 25.80312 172.28542Q25.80312 171.56667 25.49062 171.01979Q25.17812 170.47292 24.631245 170.20729Q24.224995 170.00417 23.412495 170.00417L22.95937 170.00417ZM26.599995 166.64479L19.33437 166.64479L19.33437 165.53542L20.36562 165.53542Q19.17812 164.73854 19.17812 163.22292Q19.17812 162.56667 19.412495 162.01979Q19.64687 161.47292 20.037495 161.20729Q20.412495 160.92604 20.943745 160.81667Q21.287495 160.73854 22.131245 160.73854L26.599995 160.73854L26.599995 161.97292L22.17812 161.97292Q21.42812 161.97292 21.068745 162.11354Q20.693745 162.25417 20.474995 162.62917Q20.24062 162.98854 20.24062 163.48854Q20.24062 164.26979 20.74062 164.84792Q21.24062 165.41042 22.631245 165.41042L26.599995 165.41042L26.599995 166.64479ZM26.599995 154.53542L16.58437 154.53542L16.58437 153.20729L25.412495 153.20729L25.412495 148.28542L26.599995 148.28542L26.599995 154.53542ZM25.70937 141.91042Q26.287495 142.58229 26.537495 143.22292Q26.77187 143.84792 26.77187 144.58229Q26.77187 145.76979 26.193745 146.42604Q25.599995 147.06667 24.67812 147.06667Q24.14687 147.06667 23.70937 146.83229Q23.27187 146.58229 23.006245 146.19167Q22.74062 145.78542 22.599995 145.30104Q22.506245 144.94167 22.412495 144.20729Q22.24062 142.70729 21.99062 142.00417Q21.74062 142.00417 21.67812 142.00417Q20.912495 142.00417 20.61562 142.34792Q20.193745 142.81667 20.193745 143.75417Q20.193745 144.61354 20.506245 145.03542Q20.80312 145.44167 21.568745 145.64479L21.412495 146.84792Q20.631245 146.69167 20.162495 146.31667Q19.693745 145.92604 19.443745 145.22292Q19.17812 144.50417 19.17812 143.56667Q19.17812 142.64479 19.39687 142.06667Q19.61562 141.48854 19.943745 141.22292Q20.27187 140.94167 20.787495 140.83229Q21.099995 140.76979 21.912495 140.76979L23.55312 140.76979Q25.27187 140.76979 25.724995 140.69167Q26.17812 140.61354 26.599995 140.37917L26.599995 141.66042Q26.20937 141.84792 25.70937 141.91042ZM22.95937 142.00417Q23.224995 142.67604 23.42812 144.01979Q23.537495 144.76979 23.67812 145.09792Q23.80312 145.41042 24.068745 145.58229Q24.33437 145.75417 24.64687 145.75417Q25.14687 145.75417 25.474995 145.37917Q25.80312 145.00417 25.80312 144.28542Q25.80312 143.56667 25.49062 143.01979Q25.17812 142.47292 24.631245 142.20729Q24.224995 142.00417 23.412495 142.00417L22.95937 142.00417ZM25.506245 135.95729L26.58437 135.78542Q26.693745 136.30104 26.693745 136.70729Q26.693745 137.37917 26.49062 137.75417Q26.27187 138.11354 25.92812 138.26979Q25.58437 138.41042 24.474995 138.41042L20.30312 138.41042L20.30312 139.31667L19.33437 139.31667L19.33437 138.41042L17.537495 138.41042L16.80312 137.19167L19.33437 137.19167L19.33437 135.95729L20.30312 135.95729L20.30312 137.19167L24.537495 137.19167Q25.068745 137.19167 25.224995 137.12917Q25.36562 137.06667 25.45937 136.92604Q25.55312 136.76979 25.55312 136.50417Q25.55312 136.28542 25.506245 135.95729ZM24.256245 129.67604L24.412495 128.39479Q25.537495 128.70729 26.162495 129.51979Q26.77187 130.33229 26.77187 131.59792Q26.77187 133.19167 25.787495 134.12917Q24.80312 135.05104 23.037495 135.05104Q21.193745 135.05104 20.193745 134.11354Q19.17812 133.16042 19.17812 131.66042Q19.17812 130.20729 20.17812 129.28542Q21.162495 128.36354 22.95937 128.36354Q23.068745 128.36354 23.287495 128.36354L23.287495 133.78542Q24.474995 133.70729 25.11562 133.11354Q25.756245 132.50417 25.756245 131.58229Q25.756245 130.91042 25.39687 130.44167Q25.037495 129.95729 24.256245 129.67604ZM22.27187 133.70729L22.27187 129.66042Q21.349995 129.73854 20.89687 130.12917Q20.193745 130.70729 20.193745 131.64479Q20.193745 132.50417 20.756245 133.08229Q21.318745 133.64479 22.27187 133.70729ZM26.599995 126.64479L19.33437 126.64479L19.33437 125.535416L20.36562 125.535416Q19.17812 124.73854 19.17812 123.222916Q19.17812 122.566666 19.412495 122.01979Q19.64687 121.472916 20.037495 121.20729Q20.412495 120.92604 20.943745 120.816666Q21.287495 120.73854 22.131245 120.73854L26.599995 120.73854L26.599995 121.972916L22.17812 121.972916Q21.42812 121.972916 21.068745 122.11354Q20.693745 122.254166 20.474995 122.629166Q20.24062 122.98854 20.24062 123.48854Q20.24062 124.26979 20.74062 124.847916Q21.24062 125.410416 22.631245 125.410416L26.599995 125.410416L26.599995 126.64479ZM23.943745 113.910416L24.099995 112.691666Q25.349995 112.89479 26.068745 113.722916Q26.77187 114.535416 26.77187 115.722916Q26.77187 117.20729 25.80312 118.11354Q24.818745 119.01979 22.99062 119.01979Q21.818745 119.01979 20.943745 118.629166Q20.05312 118.23854 19.61562 117.441666Q19.17812 116.64479 19.17812 115.70729Q19.17812 114.535416 19.77187 113.785416Q20.36562 113.01979 21.474995 112.816666L21.662495 114.004166Q20.92812 114.17604 20.568745 114.61354Q20.193745 115.05104 20.193745 115.660416Q20.193745 116.597916 20.86562 117.17604Q21.52187 117.754166 22.95937 117.754166Q24.42812 117.754166 25.099995 117.191666Q25.756245 116.629166 25.756245 115.73854Q25.756245 115.004166 25.318745 114.51979Q24.86562 114.035416 23.943745 113.910416ZM29.39687 111.691666L28.24062 111.83229Q28.349995 111.42604 28.349995 111.129166Q28.349995 110.722916 28.20937 110.472916Q28.08437 110.222916 27.83437 110.066666Q27.64687 109.95729 26.912495 109.691666Q26.818745 109.660416 26.61562 109.58229L19.33437 112.347916L19.33437 111.01979L23.537495 109.504166Q24.349995 109.20729 25.224995 108.972916Q24.381245 108.76979 23.568745 108.472916L19.33437 106.92604L19.33437 105.691666L26.724995 108.45729Q27.912495 108.89479 28.36562 109.14479Q28.974995 109.472916 29.256245 109.89479Q29.55312 110.316666 29.55312 110.910416Q29.55312 111.254166 29.39687 111.691666ZM29.55312 98.285416Q28.256245 99.316666 26.537495 100.01979Q24.818745 100.722916 22.974995 100.722916Q21.349995 100.722916 19.849995 100.191666Q18.11562 99.58229 16.412495 98.285416L16.412495 97.410416Q17.83437 98.23854 18.443745 98.504166Q19.381245 98.92604 20.412495 99.160416Q21.67812 99.45729 22.974995 99.45729Q26.27187 99.45729 29.55312 97.410416L29.55312 98.285416ZM24.42812 96.129166L24.24062 94.92604Q24.974995 94.816666 25.36562 94.347916Q25.756245 93.879166 25.756245 93.035416Q25.756245 92.191666 25.412495 91.785416Q25.068745 91.36354 24.599995 91.36354Q24.17812 91.36354 23.943745 91.73854Q23.77187 91.98854 23.52187 92.98854Q23.17812 94.347916 22.92812 94.879166Q22.67812 95.39479 22.24062 95.660416Q21.80312 95.92604 21.27187 95.92604Q20.787495 95.92604 20.381245 95.70729Q19.95937 95.48854 19.67812 95.097916Q19.474995 94.816666 19.33437 94.33229Q19.17812 93.83229 19.17812 93.254166Q19.17812 92.410416 19.42812 91.76979Q19.662495 91.11354 20.08437 90.80104Q20.506245 90.48854 21.20937 90.379166L21.381245 91.58229Q20.818745 91.660416 20.506245 92.066666Q20.193745 92.45729 20.193745 93.17604Q20.193745 94.01979 20.474995 94.379166Q20.74062 94.73854 21.131245 94.73854Q21.36562 94.73854 21.55312 94.597916Q21.756245 94.441666 21.881245 94.11354Q21.943745 93.941666 22.193745 93.035416Q22.55312 91.722916 22.77187 91.20729Q22.99062 90.691666 23.412495 90.410416Q23.83437 90.11354 24.45937 90.11354Q25.08437 90.11354 25.631245 90.472916Q26.162495 90.816666 26.474995 91.504166Q26.77187 92.17604 26.77187 93.035416Q26.77187 94.441666 26.17812 95.191666Q25.58437 95.92604 24.42812 96.129166ZM29.55312 87.83229L29.55312 88.722916Q26.27187 86.67604 22.974995 86.67604Q21.693745 86.67604 20.42812 86.972916Q19.39687 87.20729 18.45937 87.61354Q17.849995 87.879166 16.412495 88.722916L16.412495 87.83229Q18.11562 86.55104 19.849995 85.941666Q21.349995 85.410416 22.974995 85.410416Q24.818745 85.410416 26.537495 86.129166Q28.256245 86.83229 29.55312 87.83229Z" fill-rule="nonzero"/><path fill="#000000" d="M67.17812 198.4625Q67.17812 196.68124 67.5375 195.60312Q67.9125 194.50937 68.63125 193.93124Q69.35 193.3375 70.44375 193.3375Q71.25625 193.3375 71.86562 193.66562Q72.475 193.99374 72.86562 194.60312Q73.27187 195.2125 73.49062 196.0875Q73.70937 196.9625 73.70937 198.4625Q73.70937 200.22812 73.35 201.30624Q72.99062 202.38437 72.27187 202.97812Q71.55312 203.57187 70.44375 203.57187Q69.00625 203.57187 68.17812 202.525Q67.17812 201.275 67.17812 198.4625ZM68.44375 198.4625Q68.44375 200.93124 69.02187 201.74374Q69.6 202.55624 70.44375 202.55624Q71.30312 202.55624 71.88125 201.74374Q72.45937 200.91562 72.45937 198.4625Q72.45937 195.97812 71.88125 195.16562Q71.30312 194.35312 70.42812 194.35312Q69.58437 194.35312 69.08437 195.07187Q68.44375 195.99374 68.44375 198.4625Z" fill-rule="nonzero"/><path fill="#000000" d="M59.178123 170.35834L60.475 170.24896Q60.615623 171.18646 61.13125 171.67084Q61.6625 172.13959 62.396873 172.13959Q63.2875 172.13959 63.896873 171.46771Q64.52187 170.79584 64.52187 169.70209Q64.52187 168.63959 63.928123 168.03021Q63.334373 167.42084 62.38125 167.42084Q61.7875 167.42084 61.303123 167.70209Q60.834373 167.96771 60.553123 168.38959L59.396873 168.24896L60.365623 163.09271L65.35 163.09271L65.35 164.28021L61.35 164.28021L60.81875 166.96771Q61.725 166.34271 62.709373 166.34271Q64.02187 166.34271 64.9125 167.24896Q65.81875 168.15521 65.81875 169.59271Q65.81875 170.95209 65.0375 171.93646Q64.06875 173.15521 62.396873 173.15521Q61.0375 173.15521 60.1625 172.38959Q59.303123 171.62396 59.178123 170.35834ZM67.17812 168.04584Q67.17812 166.26459 67.5375 165.18646Q67.9125 164.09271 68.63125 163.51459Q69.35 162.92084 70.44375 162.92084Q71.25625 162.92084 71.86562 163.24896Q72.475 163.57709 72.86562 164.18646Q73.27187 164.79584 73.49062 165.67084Q73.70937 166.54584 73.70937 168.04584Q73.70937 169.81146 73.35 170.88959Q72.99062 171.96771 72.27187 172.56146Q71.55312 173.15521 70.44375 173.15521Q69.00625 173.15521 68.17812 172.10834Q67.17812 170.85834 67.17812 168.04584ZM68.44375 168.04584Q68.44375 170.51459 69.02187 171.32709Q69.6 172.13959 70.44375 172.13959Q71.30312 172.13959 71.88125 171.32709Q72.45937 170.49896 72.45937 168.04584Q72.45937 165.56146 71.88125 164.74896Q71.30312 163.93646 70.42812 163.93646Q69.58437 163.93646 69.08437 164.65521Q68.44375 165.57709 68.44375 168.04584Z" fill-rule="nonzero"/><path fill="#000000" d="M55.81875 142.56667L54.584373 142.56667L54.584373 134.72292Q54.146873 135.14479 53.4125 135.58229Q52.69375 136.00417 52.13125 136.20729L52.13125 135.01979Q53.1625 134.53542 53.928123 133.84792Q54.709373 133.16042 55.021873 132.50417L55.81875 132.50417L55.81875 142.56667ZM59.178123 137.62917Q59.178123 135.84792 59.5375 134.76979Q59.9125 133.67604 60.63125 133.09792Q61.35 132.50417 62.44375 132.50417Q63.25625 132.50417 63.865623 132.83229Q64.475 133.16042 64.86562 133.76979Q65.27187 134.37917 65.49062 135.25417Q65.70937 136.12917 65.70937 137.62917Q65.70937 139.39479 65.35 140.47292Q64.99062 141.55104 64.27187 142.14479Q63.553123 142.73854 62.44375 142.73854Q61.00625 142.73854 60.178123 141.69167Q59.178123 140.44167 59.178123 137.62917ZM60.44375 137.62917Q60.44375 140.09792 61.021873 140.91042Q61.6 141.72292 62.44375 141.72292Q63.303123 141.72292 63.88125 140.91042Q64.45937 140.08229 64.45937 137.62917Q64.45937 135.14479 63.88125 134.33229Q63.303123 133.51979 62.428123 133.51979Q61.584373 133.51979 61.084373 134.23854Q60.44375 135.16042 60.44375 137.62917ZM67.17812 137.62917Q67.17812 135.84792 67.5375 134.76979Q67.9125 133.67604 68.63125 133.09792Q69.35 132.50417 70.44375 132.50417Q71.25625 132.50417 71.86562 132.83229Q72.475 133.16042 72.86562 133.76979Q73.27187 134.37917 73.49062 135.25417Q73.70937 136.12917 73.70937 137.62917Q73.70937 139.39479 73.35 140.47292Q72.99062 141.55104 72.27187 142.14479Q71.55312 142.73854 70.44375 142.73854Q69.00625 142.73854 68.17812 141.69167Q67.17812 140.44167 67.17812 137.62917ZM68.44375 137.62917Q68.44375 140.09792 69.02187 140.91042Q69.6 141.72292 70.44375 141.72292Q71.30312 141.72292 71.88125 140.91042Q72.45937 140.08229 72.45937 137.62917Q72.45937 135.14479 71.88125 134.33229Q71.30312 133.51979 70.42812 133.51979Q69.58437 133.51979 69.08437 134.23854Q68.44375 135.16042 68.44375 137.62917Z" fill-rule="nonzero"/><path fill="#000000" d="M55.81875 112.15L54.584373 112.15L54.584373 104.30625Q54.146873 104.72813 53.4125 105.16563Q52.69375 105.5875 52.13125 105.79063L52.13125 104.60313Q53.1625 104.11875 53.928123 103.43125Q54.709373 102.74375 55.021873 102.0875L55.81875 102.0875L55.81875 112.15ZM59.178123 109.525L60.475 109.41563Q60.615623 110.35313 61.13125 110.8375Q61.6625 111.30625 62.396873 111.30625Q63.2875 111.30625 63.896873 110.63438Q64.52187 109.9625 64.52187 108.86875Q64.52187 107.80625 63.928123 107.19688Q63.334373 106.5875 62.38125 106.5875Q61.7875 106.5875 61.303123 106.86875Q60.834373 107.13438 60.553123 107.55625L59.396873 107.41563L60.365623 102.25938L65.35 102.25938L65.35 103.44688L61.35 103.44688L60.81875 106.13438Q61.725 105.50938 62.709373 105.50938Q64.02187 105.50938 64.9125 106.41563Q65.81875 107.32188 65.81875 108.75938Q65.81875 110.11875 65.0375 111.10313Q64.06875 112.32188 62.396873 112.32188Q61.0375 112.32188 60.1625 111.55625Q59.303123 110.79063 59.178123 109.525ZM67.17812 107.2125Q67.17812 105.43125 67.5375 104.35313Q67.9125 103.25938 68.63125 102.68125Q69.35 102.0875 70.44375 102.0875Q71.25625 102.0875 71.86562 102.41563Q72.475 102.74375 72.86562 103.35313Q73.27187 103.9625 73.49062 104.8375Q73.70937 105.7125 73.70937 107.2125Q73.70937 108.97813 73.35 110.05625Q72.99062 111.13438 72.27187 111.72813Q71.55312 112.32188 70.44375 112.32188Q69.00625 112.32188 68.17812 111.275Q67.17812 110.025 67.17812 107.2125ZM68.44375 107.2125Q68.44375 109.68125 69.02187 110.49375Q69.6 111.30625 70.44375 111.30625Q71.30312 111.30625 71.88125 110.49375Q72.45937 109.66563 72.45937 107.2125Q72.45937 104.72813 71.88125 103.91563Q71.30312 103.10313 70.42812 103.10313Q69.58437 103.10313 69.08437 103.82188Q68.44375 104.74375 68.44375 107.2125Z" fill-rule="nonzero"/><path fill="#000000" d="M57.646873 80.54583L57.646873 81.73333L51.021873 81.73333Q51.00625 81.29583 51.1625 80.873955Q51.428123 80.20208 51.975 79.54583Q52.5375 78.88958 53.584373 78.030205Q55.225 76.686455 55.7875 75.905205Q56.365623 75.123955 56.365623 74.42083Q56.365623 73.686455 55.834373 73.186455Q55.31875 72.686455 54.490623 72.686455Q53.6 72.686455 53.053123 73.217705Q52.521873 73.748955 52.521873 74.70208L51.25625 74.561455Q51.38125 73.155205 52.225 72.42083Q53.084373 71.67083 54.50625 71.67083Q55.959373 71.67083 56.7875 72.467705Q57.63125 73.26458 57.63125 74.45208Q57.63125 75.061455 57.38125 75.63958Q57.146873 76.217705 56.56875 76.85833Q56.00625 77.498955 54.678123 78.623955Q53.56875 79.54583 53.25625 79.88958Q52.94375 80.217705 52.740623 80.54583L57.646873 80.54583ZM59.178123 76.79583Q59.178123 75.01458 59.5375 73.936455Q59.9125 72.842705 60.63125 72.26458Q61.35 71.67083 62.44375 71.67083Q63.25625 71.67083 63.865623 71.998955Q64.475 72.32708 64.86562 72.936455Q65.27187 73.54583 65.49062 74.42083Q65.70937 75.29583 65.70937 76.79583Q65.70937 78.561455 65.35 79.63958Q64.99062 80.717705 64.27187 81.311455Q63.553123 81.905205 62.44375 81.905205Q61.00625 81.905205 60.178123 80.85833Q59.178123 79.60833 59.178123 76.79583ZM60.44375 76.79583Q60.44375 79.26458 61.021873 80.07708Q61.6 80.88958 62.44375 80.88958Q63.303123 80.88958 63.88125 80.07708Q64.45937 79.248955 64.45937 76.79583Q64.45937 74.311455 63.88125 73.498955Q63.303123 72.686455 62.428123 72.686455Q61.584373 72.686455 61.084373 73.405205Q60.44375 74.32708 60.44375 76.79583ZM67.17812 76.79583Q67.17812 75.01458 67.5375 73.936455Q67.9125 72.842705 68.63125 72.26458Q69.35 71.67083 70.44375 71.67083Q71.25625 71.67083 71.86562 71.998955Q72.475 72.32708 72.86562 72.936455Q73.27187 73.54583 73.49062 74.42083Q73.70937 75.29583 73.70937 76.79583Q73.70937 78.561455 73.35 79.63958Q72.99062 80.717705 72.27187 81.311455Q71.55312 81.905205 70.44375 81.905205Q69.00625 81.905205 68.17812 80.85833Q67.17812 79.60833 67.17812 76.79583ZM68.44375 76.79583Q68.44375 79.26458 69.02187 80.07708Q69.6 80.88958 70.44375 80.88958Q71.30312 80.88958 71.88125 80.07708Q72.45937 79.248955 72.45937 76.79583Q72.45937 74.311455 71.88125 73.498955Q71.30312 72.686455 70.42812 72.686455Q69.58437 72.686455 69.08437 73.405205Q68.44375 74.32708 68.44375 76.79583Z" fill-rule="nonzero"/><path fill="#000000" d="M78.17812 213.4625Q78.17812 211.68124 78.5375 210.60312Q78.9125 209.50937 79.63125 208.93124Q80.35 208.3375 81.44375 208.3375Q82.25625 208.3375 82.86562 208.66562Q83.475 208.99374 83.86562 209.60312Q84.27187 210.2125 84.49062 211.0875Q84.70937 211.9625 84.70937 213.4625Q84.70937 215.22812 84.35 216.30624Q83.99062 217.38437 83.27187 217.97812Q82.55312 218.57187 81.44375 218.57187Q80.00625 218.57187 79.17812 217.525Q78.17812 216.275 78.17812 213.4625ZM79.44375 213.4625Q79.44375 215.93124 80.02187 216.74374Q80.6 217.55624 81.44375 217.55624Q82.30312 217.55624 82.88125 216.74374Q83.45937 215.91562 83.45937 213.4625Q83.45937 210.97812 82.88125 210.16562Q82.30312 209.35312 81.42812 209.35312Q80.58437 209.35312 80.08437 210.07187Q79.44375 210.99374 79.44375 213.4625Z" fill-rule="nonzero"/><path fill="#000000" d="M146.06909 217.2125L146.06909 218.4L139.44409 218.4Q139.42847 217.9625 139.58472 217.54062Q139.85034 216.86874 140.39722 216.2125Q140.95972 215.55624 142.00659 214.69687Q143.64722 213.35312 144.20972 212.57187Q144.78784 211.79062 144.78784 211.0875Q144.78784 210.35312 144.25659 209.85312Q143.74097 209.35312 142.91284 209.35312Q142.02222 209.35312 141.47534 209.88437Q140.94409 210.41562 140.94409 211.36874L139.67847 211.22812Q139.80347 209.82187 140.64722 209.0875Q141.50659 208.3375 142.92847 208.3375Q144.38159 208.3375 145.20972 209.13437Q146.05347 209.93124 146.05347 211.11874Q146.05347 211.72812 145.80347 212.30624Q145.56909 212.88437 144.99097 213.525Q144.42847 214.16562 143.10034 215.29062Q141.99097 216.2125 141.67847 216.55624Q141.36597 216.88437 141.16284 217.2125L146.06909 217.2125Z" fill-rule="nonzero"/><path fill="#000000" d="M204.9757 218.4L204.9757 215.99374L200.61632 215.99374L200.61632 214.86874L205.19444 208.38437L206.19444 208.38437L206.19444 214.86874L207.55382 214.86874L207.55382 215.99374L206.19444 215.99374L206.19444 218.4L204.9757 218.4ZM204.9757 214.86874L204.9757 210.35312L201.83507 214.86874L204.9757 214.86874Z" fill-rule="nonzero"/><path fill="#000000" d="M268.83542 210.8375L267.61667 210.93124Q267.4448 210.19687 267.14792 209.86874Q266.64792 209.35312 265.91354 209.35312Q265.3198 209.35312 264.8823 209.68124Q264.30417 210.10312 263.96042 210.91562Q263.6323 211.72812 263.61667 213.22812Q264.05417 212.55624 264.6948 212.22812Q265.35104 211.9 266.05417 211.9Q267.28854 211.9 268.14792 212.80624Q269.0073 213.7125 269.0073 215.15Q269.0073 216.0875 268.60104 216.9Q268.1948 217.7125 267.47604 218.15Q266.77292 218.57187 265.86667 218.57187Q264.33542 218.57187 263.36667 217.44687Q262.39792 216.30624 262.39792 213.7125Q262.39792 210.80624 263.46042 209.47812Q264.39792 208.3375 265.99167 208.3375Q267.17917 208.3375 267.92917 209.00937Q268.67917 209.66562 268.83542 210.8375ZM263.80417 215.15Q263.80417 215.79062 264.0698 216.36874Q264.35104 216.94687 264.83542 217.25937Q265.3198 217.55624 265.85104 217.55624Q266.6323 217.55624 267.1948 216.93124Q267.7573 216.30624 267.7573 215.22812Q267.7573 214.18124 267.1948 213.5875Q266.64792 212.97812 265.80417 212.97812Q264.97604 212.97812 264.3823 213.5875Q263.80417 214.18124 263.80417 215.15Z" fill-rule="nonzero"/><path fill="#000000" d="M325.75763 212.9625Q324.992 212.68124 324.617 212.16562Q324.25763 211.65 324.25763 210.91562Q324.25763 209.82187 325.03888 209.0875Q325.83575 208.3375 327.13263 208.3375Q328.44513 208.3375 329.242 209.10312Q330.0545 209.86874 330.0545 210.9625Q330.0545 211.65 329.6795 212.16562Q329.32013 212.68124 328.57013 212.9625Q329.492 213.25937 329.97638 213.93124Q330.46075 214.60312 330.46075 215.54062Q330.46075 216.82187 329.5545 217.69687Q328.64825 218.57187 327.16388 218.57187Q325.6795 218.57187 324.75763 217.69687Q323.85138 216.80624 323.85138 215.49374Q323.85138 214.525 324.35138 213.86874Q324.85138 213.19687 325.75763 212.9625ZM325.52325 210.88437Q325.52325 211.5875 325.97638 212.04062Q326.4295 212.49374 327.16388 212.49374Q327.88263 212.49374 328.33575 212.05624Q328.78888 211.60312 328.78888 210.94687Q328.78888 210.275 328.32013 209.82187Q327.85138 209.35312 327.14825 209.35312Q326.44513 209.35312 325.97638 209.80624Q325.52325 210.24374 325.52325 210.88437ZM325.117 215.50937Q325.117 216.04062 325.367 216.54062Q325.617 217.025 326.10138 217.29062Q326.60138 217.55624 327.1795 217.55624Q328.0545 217.55624 328.617 216.99374Q329.19513 216.43124 329.19513 215.55624Q329.19513 214.66562 328.60138 214.0875Q328.02325 213.49374 327.13263 213.49374Q326.25763 213.49374 325.6795 214.07187Q325.117 214.65 325.117 215.50937Z" fill-rule="nonzero"/><path fill="#000000" d="M385.92987 218.4L384.6955 218.4L384.6955 210.55624Q384.258 210.97812 383.52362 211.41562Q382.80487 211.8375 382.24237 212.04062L382.24237 210.85312Q383.27362 210.36874 384.03925 209.68124Q384.8205 208.99374 385.133 208.3375L385.92987 208.3375L385.92987 218.4ZM389.28925 213.4625Q389.28925 211.68124 389.64862 210.60312Q390.02362 209.50937 390.74237 208.93124Q391.46112 208.3375 392.55487 208.3375Q393.36737 208.3375 393.97675 208.66562Q394.58612 208.99374 394.97675 209.60312Q395.383 210.2125 395.60175 211.0875Q395.8205 211.9625 395.8205 213.4625Q395.8205 215.22812 395.46112 216.30624Q395.10175 217.38437 394.383 217.97812Q393.66425 218.57187 392.55487 218.57187Q391.11737 218.57187 390.28925 217.525Q389.28925 216.275 389.28925 213.4625ZM390.55487 213.4625Q390.55487 215.93124 391.133 216.74374Q391.71112 217.55624 392.55487 217.55624Q393.41425 217.55624 393.99237 216.74374Q394.5705 215.91562 394.5705 213.4625Q394.5705 210.97812 393.99237 210.16562Q393.41425 209.35312 392.53925 209.35312Q391.6955 209.35312 391.1955 210.07187Q390.55487 210.99374 390.55487 213.4625Z" fill-rule="nonzero"/><path fill="#000000" d="M447.35208 218.4L446.1177 218.4L446.1177 210.55624Q445.6802 210.97812 444.94583 211.41562Q444.22708 211.8375 443.66458 212.04062L443.66458 210.85312Q444.69583 210.36874 445.46146 209.68124Q446.2427 208.99374 446.5552 208.3375L447.35208 208.3375L447.35208 218.4ZM457.1802 217.2125L457.1802 218.4L450.5552 218.4Q450.53958 217.9625 450.69583 217.54062Q450.96146 216.86874 451.50833 216.2125Q452.07083 215.55624 453.1177 214.69687Q454.75833 213.35312 455.32083 212.57187Q455.89896 211.79062 455.89896 211.0875Q455.89896 210.35312 455.3677 209.85312Q454.85208 209.35312 454.02396 209.35312Q453.13333 209.35312 452.58646 209.88437Q452.0552 210.41562 452.0552 211.36874L450.78958 211.22812Q450.91458 209.82187 451.75833 209.0875Q452.6177 208.3375 454.03958 208.3375Q455.4927 208.3375 456.32083 209.13437Q457.16458 209.93124 457.16458 211.11874Q457.16458 211.72812 456.91458 212.30624Q456.6802 212.88437 456.10208 213.525Q455.53958 214.16562 454.21146 215.29062Q453.10208 216.2125 452.78958 216.55624Q452.47708 216.88437 452.27396 217.2125L457.1802 217.2125Z" fill-rule="nonzero"/><path fill="#000000" d="M508.7743 218.4L507.53992 218.4L507.53992 210.55624Q507.10242 210.97812 506.36804 211.41562Q505.6493 211.8375 505.0868 212.04062L505.0868 210.85312Q506.11804 210.36874 506.88367 209.68124Q507.66492 208.99374 507.97742 208.3375L508.7743 208.3375L508.7743 218.4ZM516.0868 218.4L516.0868 215.99374L511.72742 215.99374L511.72742 214.86874L516.30554 208.38437L517.30554 208.38437L517.30554 214.86874L518.6649 214.86874L518.6649 215.99374L517.30554 215.99374L517.30554 218.4L516.0868 218.4ZM516.0868 214.86874L516.0868 210.35312L512.94617 214.86874L516.0868 214.86874Z" fill-rule="nonzero"/><path fill="#000000" d="M570.19653 218.4L568.96216 218.4L568.96216 210.55624Q568.52466 210.97812 567.7903 211.41562Q567.07153 211.8375 566.50903 212.04062L566.50903 210.85312Q567.5403 210.36874 568.3059 209.68124Q569.08716 208.99374 569.39966 208.3375L570.19653 208.3375L570.19653 218.4ZM579.94653 210.8375L578.7278 210.93124Q578.5559 210.19687 578.25903 209.86874Q577.75903 209.35312 577.02466 209.35312Q576.4309 209.35312 575.9934 209.68124Q575.4153 210.10312 575.07153 210.91562Q574.7434 211.72812 574.7278 213.22812Q575.1653 212.55624 575.8059 212.22812Q576.46216 211.9 577.1653 211.9Q578.39966 211.9 579.25903 212.80624Q580.1184 213.7125 580.1184 215.15Q580.1184 216.0875 579.71216 216.9Q579.3059 217.7125 578.58716 218.15Q577.88403 218.57187 576.9778 218.57187Q575.44653 218.57187 574.4778 217.44687Q573.50903 216.30624 573.50903 213.7125Q573.50903 210.80624 574.57153 209.47812Q575.50903 208.3375 577.1028 208.3375Q578.2903 208.3375 579.0403 209.00937Q579.7903 209.66562 579.94653 210.8375ZM574.9153 215.15Q574.9153 215.79062 575.1809 216.36874Q575.46216 216.94687 575.94653 217.25937Q576.4309 217.55624 576.96216 217.55624Q577.7434 217.55624 578.3059 216.93124Q578.8684 216.30624 578.8684 215.22812Q578.8684 214.18124 578.3059 213.5875Q577.75903 212.97812 576.9153 212.97812Q576.08716 212.97812 575.4934 213.5875Q574.9153 214.18124 574.9153 215.15Z" fill-rule="nonzero"/><path fill="#000000" d="M631.6188 218.4L630.3844 218.4L630.3844 210.55624Q629.9469 210.97812 629.2125 211.41562Q628.4938 211.8375 627.9313 212.04062L627.9313 210.85312Q628.9625 210.36874 629.72815 209.68124Q630.5094 208.99374 630.8219 208.3375L631.6188 208.3375L631.6188 218.4ZM636.8688 212.9625Q636.10315 212.68124 635.72815 212.16562Q635.3688 211.65 635.3688 210.91562Q635.3688 209.82187 636.15 209.0875Q636.9469 208.3375 638.2438 208.3375Q639.5563 208.3375 640.35315 209.10312Q641.16565 209.86874 641.16565 210.9625Q641.16565 211.65 640.79065 212.16562Q640.4313 212.68124 639.6813 212.9625Q640.60315 213.25937 641.0875 213.93124Q641.5719 214.60312 641.5719 215.54062Q641.5719 216.82187 640.66565 217.69687Q639.7594 218.57187 638.275 218.57187Q636.79065 218.57187 635.8688 217.69687Q634.9625 216.80624 634.9625 215.49374Q634.9625 214.525 635.4625 213.86874Q635.9625 213.19687 636.8688 212.9625ZM636.6344 210.88437Q636.6344 211.5875 637.0875 212.04062Q637.54065 212.49374 638.275 212.49374Q638.9938 212.49374 639.4469 212.05624Q639.9 211.60312 639.9 210.94687Q639.9 210.275 639.4313 209.82187Q638.9625 209.35312 638.2594 209.35312Q637.5563 209.35312 637.0875 209.80624Q636.6344 210.24374 636.6344 210.88437ZM636.22815 215.50937Q636.22815 216.04062 636.47815 216.54062Q636.72815 217.025 637.2125 217.29062Q637.7125 217.55624 638.29065 217.55624Q639.16565 217.55624 639.72815 216.99374Q640.3063 216.43124 640.3063 215.55624Q640.3063 214.66562 639.7125 214.0875Q639.1344 213.49374 638.2438 213.49374Q637.3688 213.49374 636.79065 214.07187Q636.22815 214.65 636.22815 215.50937Z" fill-rule="nonzero"/><path stroke="#4285f4" stroke-width="4.0" stroke-linecap="butt" d="M187.0 51.666668L199.0 51.666668" fill-rule="nonzero"/><path fill="#1a1a1a" d="M209.9375 56.666668L207.17188 49.401043L208.48438 49.401043L210.03125 53.760418Q210.28125 54.463543 210.5 55.213543Q210.67188 54.635418 210.95312 53.838543L212.57812 49.401043L213.84375 49.401043L211.09375 56.666668L209.9375 56.666668ZM215.03125 56.666668L215.03125 46.651043L216.35938 46.651043L216.35938 55.479168L221.28125 55.479168L221.28125 56.666668L215.03125 56.666668ZM223.03125 56.666668L223.03125 46.651043L224.35938 46.651043L224.35938 55.479168L229.28125 55.479168L229.28125 56.666668L223.03125 56.666668ZM231.04688 56.666668L231.04688 46.651043L233.03125 46.651043L235.40625 53.744793Q235.73438 54.729168 235.89062 55.229168Q236.0625 54.682293 236.42188 53.619793L238.8125 46.651043L240.60938 46.651043L240.60938 56.666668L239.32812 56.666668L239.32812 48.276043L236.40625 56.666668L235.21875 56.666668L232.3125 48.135418L232.3125 56.666668L231.04688 56.666668Z" fill-rule="nonzero"/><path stroke="#ea4335" stroke-width="4.0" stroke-linecap="butt" d="M257.0 51.666668L269.0 51.666668" fill-rule="nonzero"/><path fill="#1a1a1a" d="M280.625 56.666668L280.625 47.822918L277.32812 47.822918L277.32812 46.651043L285.26562 46.651043L285.26562 47.822918L281.95312 47.822918L281.95312 56.666668L280.625 56.666668ZM291.89062 54.322918L293.17188 54.479168Q292.85938 55.604168 292.04688 56.229168Q291.23438 56.838543 289.96875 56.838543Q288.375 56.838543 287.4375 55.854168Q286.51562 54.869793 286.51562 53.104168Q286.51562 51.260418 287.45312 50.260418Q288.40625 49.244793 289.90625 49.244793Q291.35938 49.244793 292.28125 50.244793Q293.20312 51.229168 293.20312 53.026043Q293.20312 53.135418 293.20312 53.354168L287.78125 53.354168Q287.85938 54.541668 288.45312 55.182293Q289.0625 55.822918 289.98438 55.822918Q290.65625 55.822918 291.125 55.463543Q291.60938 55.104168 291.89062 54.322918ZM287.85938 52.338543L291.90625 52.338543Q291.82812 51.416668 291.4375 50.963543Q290.85938 50.260418 289.92188 50.260418Q289.0625 50.260418 288.48438 50.822918Q287.92188 51.385418 287.85938 52.338543ZM294.92188 56.666668L294.92188 49.401043L296.03125 49.401043L296.03125 50.432293Q296.82812 49.244793 298.34375 49.244793Q299.0 49.244793 299.54688 49.479168Q300.09375 49.713543 300.35938 50.104168Q300.64062 50.479168 300.75 51.010418Q300.82812 51.354168 300.82812 52.197918L300.82812 56.666668L299.59375 56.666668L299.59375 52.244793Q299.59375 51.494793 299.45312 51.135418Q299.3125 50.760418 298.9375 50.541668Q298.57812 50.307293 298.07812 50.307293Q297.29688 50.307293 296.71875 50.807293Q296.15625 51.307293 296.15625 52.697918L296.15625 56.666668L294.92188 56.666668ZM302.4375 54.494793L303.64062 54.307293Q303.75 55.041668 304.21875 55.432293Q304.6875 55.822918 305.53125 55.822918Q306.375 55.822918 306.78125 55.479168Q307.20312 55.135418 307.20312 54.666668Q307.20312 54.244793 306.82812 54.010418Q306.57812 53.838543 305.57812 53.588543Q304.21875 53.244793 303.6875 52.994793Q303.17188 52.744793 302.90625 52.307293Q302.64062 51.869793 302.64062 51.338543Q302.64062 50.854168 302.85938 50.447918Q303.07812 50.026043 303.46875 49.744793Q303.75 49.541668 304.23438 49.401043Q304.73438 49.244793 305.3125 49.244793Q306.15625 49.244793 306.79688 49.494793Q307.45312 49.729168 307.76562 50.151043Q308.07812 50.572918 308.1875 51.276043L306.98438 51.447918Q306.90625 50.885418 306.5 50.572918Q306.10938 50.260418 305.39062 50.260418Q304.54688 50.260418 304.1875 50.541668Q303.82812 50.807293 303.82812 51.197918Q303.82812 51.432293 303.96875 51.619793Q304.125 51.822918 304.45312 51.947918Q304.625 52.010418 305.53125 52.260418Q306.84375 52.619793 307.35938 52.838543Q307.875 53.057293 308.15625 53.479168Q308.45312 53.901043 308.45312 54.526043Q308.45312 55.151043 308.09375 55.697918Q307.75 56.229168 307.0625 56.541668Q306.39062 56.838543 305.53125 56.838543Q304.125 56.838543 303.375 56.244793Q302.64062 55.651043 302.4375 54.494793ZM309.46875 53.041668Q309.46875 51.026043 310.59375 50.041668Q311.51562 49.244793 312.875 49.244793Q314.35938 49.244793 315.3125 50.229168Q316.26562 51.197918 316.26562 52.932293Q316.26562 54.338543 315.84375 55.151043Q315.42188 55.947918 314.60938 56.401043Q313.8125 56.838543 312.875 56.838543Q311.34375 56.838543 310.40625 55.854168Q309.46875 54.869793 309.46875 53.041668ZM310.73438 53.041668Q310.73438 54.432293 311.34375 55.135418Q311.95312 55.822918 312.875 55.822918Q313.78125 55.822918 314.39062 55.119793Q315.0 54.416668 315.0 52.994793Q315.0 51.651043 314.39062 50.963543Q313.78125 50.260418 312.875 50.260418Q311.95312 50.260418 311.34375 50.947918Q310.73438 51.635418 310.73438 53.041668ZM317.90625 56.666668L317.90625 49.401043L319.01562 49.401043L319.01562 50.510418Q319.4375 49.729168 319.79688 49.494793Q320.15625 49.244793 320.59375 49.244793Q321.21875 49.244793 321.85938 49.635418L321.4375 50.776043Q320.98438 50.510418 320.53125 50.510418Q320.125 50.510418 319.79688 50.760418Q319.48438 50.994793 319.34375 51.432293Q319.14062 52.088543 319.14062 52.869793L319.14062 56.666668L317.90625 56.666668ZM323.09375 56.666668L323.09375 46.651043L327.54688 46.651043Q328.89062 46.651043 329.57812 46.916668Q330.28125 47.182293 330.6875 47.869793Q331.10938 48.557293 331.10938 49.385418Q331.10938 50.447918 330.42188 51.182293Q329.73438 51.901043 328.29688 52.104168Q328.8125 52.354168 329.09375 52.604168Q329.67188 53.135418 330.1875 53.932293L331.9375 56.666668L330.26562 56.666668L328.9375 54.588543Q328.35938 53.682293 327.98438 53.213543Q327.60938 52.729168 327.3125 52.541668Q327.01562 52.338543 326.70312 52.260418Q326.48438 52.213543 325.96875 52.213543L324.42188 52.213543L324.42188 56.666668L323.09375 56.666668ZM324.42188 51.072918L327.28125 51.072918Q328.1875 51.072918 328.70312 50.885418Q329.21875 50.697918 329.48438 50.291668Q329.75 49.869793 329.75 49.385418Q329.75 48.666668 329.23438 48.213543Q328.71875 47.744793 327.59375 47.744793L324.42188 47.744793L324.42188 51.072918ZM335.625 56.666668L335.625 47.822918L332.32812 47.822918L332.32812 46.651043L340.26562 46.651043L340.26562 47.822918L336.95312 47.822918L336.95312 56.666668L335.625 56.666668ZM341.4375 53.651043L341.4375 52.416668L345.21875 52.416668L345.21875 53.651043L341.4375 53.651043ZM347.03125 56.666668L347.03125 46.651043L348.35938 46.651043L348.35938 55.479168L353.28125 55.479168L353.28125 56.666668L347.03125 56.666668ZM355.03125 56.666668L355.03125 46.651043L356.35938 46.651043L356.35938 55.479168L361.28125 55.479168L361.28125 56.666668L355.03125 56.666668ZM363.04688 56.666668L363.04688 46.651043L365.03125 46.651043L367.40625 53.744793Q367.73438 54.729168 367.89062 55.229168Q368.0625 54.682293 368.42188 53.619793L370.8125 46.651043L372.60938 46.651043L372.60938 56.666668L371.32812 56.666668L371.32812 48.276043L368.40625 56.666668L367.21875 56.666668L364.3125 48.135418L364.3125 56.666668L363.04688 56.666668Z" fill-rule="nonzero"/><path stroke="#fbbc04" stroke-width="4.0" stroke-linecap="butt" d="M389.0 51.666668L401.0 51.666668" fill-rule="nonzero"/><path fill="#1a1a1a" d="M409.625 53.447918L410.875 53.338543Q410.96875 54.088543 411.29688 54.572918Q411.625 55.057293 412.29688 55.354168Q412.98438 55.651043 413.84375 55.651043Q414.59375 55.651043 415.17188 55.432293Q415.76562 55.197918 416.04688 54.807293Q416.32812 54.416668 416.32812 53.947918Q416.32812 53.479168 416.04688 53.135418Q415.78125 52.776043 415.15625 52.526043Q414.75 52.369793 413.35938 52.041668Q411.98438 51.713543 411.4375 51.416668Q410.71875 51.041668 410.35938 50.494793Q410.01562 49.932293 410.01562 49.229168Q410.01562 48.479168 410.4375 47.822918Q410.875 47.151043 411.70312 46.822918Q412.53125 46.479168 413.54688 46.479168Q414.65625 46.479168 415.5 46.838543Q416.35938 47.197918 416.8125 47.901043Q417.26562 48.588543 417.3125 49.463543L416.03125 49.557293Q415.9375 48.619793 415.34375 48.135418Q414.75 47.635418 413.59375 47.635418Q412.39062 47.635418 411.84375 48.088543Q411.29688 48.526043 411.29688 49.151043Q411.29688 49.682293 411.6875 50.041668Q412.0625 50.385418 413.67188 50.760418Q415.29688 51.119793 415.89062 51.385418Q416.76562 51.791668 417.1875 52.416668Q417.60938 53.026043 417.60938 53.838543Q417.60938 54.635418 417.14062 55.354168Q416.6875 56.057293 415.82812 56.447918Q414.96875 56.838543 413.90625 56.838543Q412.54688 56.838543 411.625 56.447918Q410.70312 56.041668 410.17188 55.244793Q409.65625 54.447918 409.625 53.447918ZM423.76562 52.729168L423.76562 51.557293L428.01562 51.557293L428.01562 55.276043Q427.03125 56.057293 425.98438 56.447918Q424.95312 56.838543 423.85938 56.838543Q422.39062 56.838543 421.17188 56.213543Q419.96875 55.572918 419.35938 54.385418Q418.75 53.182293 418.75 51.697918Q418.75 50.244793 419.35938 48.979168Q419.96875 47.697918 421.10938 47.088543Q422.26562 46.479168 423.76562 46.479168Q424.84375 46.479168 425.71875 46.838543Q426.60938 47.182293 427.10938 47.807293Q427.60938 48.432293 427.85938 49.447918L426.67188 49.776043Q426.4375 49.010418 426.09375 48.572918Q425.76562 48.135418 425.14062 47.869793Q424.53125 47.604168 423.76562 47.604168Q422.85938 47.604168 422.1875 47.885418Q421.53125 48.166668 421.125 48.619793Q420.71875 49.057293 420.5 49.604168Q420.10938 50.541668 420.10938 51.619793Q420.10938 52.963543 420.5625 53.869793Q421.03125 54.760418 421.90625 55.197918Q422.79688 55.635418 423.79688 55.635418Q424.65625 55.635418 425.46875 55.307293Q426.29688 54.979168 426.71875 54.604168L426.71875 52.729168L423.76562 52.729168ZM430.03125 56.666668L430.03125 46.651043L431.35938 46.651043L431.35938 55.479168L436.28125 55.479168L436.28125 56.666668L430.03125 56.666668ZM442.65625 55.776043Q441.98438 56.354168 441.34375 56.604168Q440.71875 56.838543 439.98438 56.838543Q438.79688 56.838543 438.14062 56.260418Q437.5 55.666668 437.5 54.744793Q437.5 54.213543 437.73438 53.776043Q437.98438 53.338543 438.375 53.072918Q438.78125 52.807293 439.26562 52.666668Q439.625 52.572918 440.35938 52.479168Q441.85938 52.307293 442.5625 52.057293Q442.5625 51.807293 442.5625 51.744793Q442.5625 50.979168 442.21875 50.682293Q441.75 50.260418 440.8125 50.260418Q439.95312 50.260418 439.53125 50.572918Q439.125 50.869793 438.92188 51.635418L437.71875 51.479168Q437.875 50.697918 438.25 50.229168Q438.64062 49.760418 439.34375 49.510418Q440.0625 49.244793 441.0 49.244793Q441.92188 49.244793 442.5 49.463543Q443.07812 49.682293 443.34375 50.010418Q443.625 50.338543 443.73438 50.854168Q443.79688 51.166668 443.79688 51.979168L443.79688 53.619793Q443.79688 55.338543 443.875 55.791668Q443.95312 56.244793 444.1875 56.666668L442.90625 56.666668Q442.71875 56.276043 442.65625 55.776043ZM442.5625 53.026043Q441.89062 53.291668 440.54688 53.494793Q439.79688 53.604168 439.46875 53.744793Q439.15625 53.869793 438.98438 54.135418Q438.8125 54.401043 438.8125 54.713543Q438.8125 55.213543 439.1875 55.541668Q439.5625 55.869793 440.28125 55.869793Q441.0 55.869793 441.54688 55.557293Q442.09375 55.244793 442.35938 54.697918Q442.5625 54.291668 442.5625 53.479168L442.5625 53.026043ZM445.92188 56.666668L445.92188 49.401043L447.03125 49.401043L447.03125 50.432293Q447.82812 49.244793 449.34375 49.244793Q450.0 49.244793 450.54688 49.479168Q451.09375 49.713543 451.35938 50.104168Q451.64062 50.479168 451.75 51.010418Q451.82812 51.354168 451.82812 52.197918L451.82812 56.666668L450.59375 56.666668L450.59375 52.244793Q450.59375 51.494793 450.45312 51.135418Q450.3125 50.760418 449.9375 50.541668Q449.57812 50.307293 449.07812 50.307293Q448.29688 50.307293 447.71875 50.807293Q447.15625 51.307293 447.15625 52.697918L447.15625 56.666668L445.92188 56.666668ZM453.70312 57.276043L454.89062 57.447918Q454.96875 57.994793 455.3125 58.260418Q455.76562 58.588543 456.5625 58.588543Q457.42188 58.588543 457.875 58.244793Q458.34375 57.916668 458.51562 57.291668Q458.60938 56.916668 458.59375 55.713543Q457.79688 56.666668 456.59375 56.666668Q455.09375 56.666668 454.26562 55.588543Q453.45312 54.510418 453.45312 52.994793Q453.45312 51.963543 453.82812 51.088543Q454.20312 50.197918 454.90625 49.729168Q455.625 49.244793 456.59375 49.244793Q457.875 49.244793 458.71875 50.276043L458.71875 49.401043L459.84375 49.401043L459.84375 55.682293Q459.84375 57.385418 459.5 58.088543Q459.15625 58.791668 458.40625 59.197918Q457.65625 59.619793 456.5625 59.619793Q455.26562 59.619793 454.46875 59.026043Q453.67188 58.447918 453.70312 57.276043ZM454.71875 52.901043Q454.71875 54.338543 455.28125 54.994793Q455.84375 55.651043 456.70312 55.651043Q457.54688 55.651043 458.125 54.994793Q458.70312 54.338543 458.70312 52.947918Q458.70312 51.619793 458.10938 50.947918Q457.51562 50.260418 456.6875 50.260418Q455.85938 50.260418 455.28125 50.932293Q454.71875 51.588543 454.71875 52.901043Z" fill-rule="nonzero"/><path fill="#757575" d="M14.9125 30.6L14.9125 17.709375L16.63125 17.709375L16.63125 29.084375L22.975 29.084375L22.975 30.6L14.9125 30.6ZM24.75625 30.6L24.75625 17.709375L26.334375 17.709375L26.334375 30.6L24.75625 30.6ZM34.88125 29.44375Q34.00625 30.19375 33.178123 30.50625Q32.365623 30.81875 31.44375 30.81875Q29.896875 30.81875 29.06875 30.06875Q28.25625 29.303125 28.25625 28.13125Q28.25625 27.459375 28.56875 26.896875Q28.88125 26.31875 29.38125 25.975Q29.88125 25.63125 30.521875 25.459375Q30.990625 25.334375 31.928125 25.225Q33.834373 24.990625 34.740623 24.678125Q34.75625 24.35 34.75625 24.25625Q34.75625 23.303125 34.303123 22.896875Q33.69375 22.365625 32.50625 22.365625Q31.38125 22.365625 30.85 22.75625Q30.31875 23.146875 30.06875 24.146875L28.521875 23.928125Q28.740625 22.928125 29.209375 22.31875Q29.69375 21.709375 30.6 21.38125Q31.521875 21.053125 32.740623 21.053125Q33.928123 21.053125 34.678123 21.334375Q35.428123 21.615625 35.771873 22.053125Q36.13125 22.475 36.271873 23.115625Q36.35 23.521875 36.35 24.584375L36.35 26.69375Q36.35 28.896875 36.44375 29.490625Q36.553123 30.06875 36.85 30.6L35.19375 30.6Q34.94375 30.1 34.88125 29.44375ZM34.740623 25.9125Q33.88125 26.271875 32.1625 26.50625Q31.19375 26.646875 30.7875 26.834375Q30.38125 27.00625 30.1625 27.35Q29.94375 27.678125 29.94375 28.1Q29.94375 28.725 30.4125 29.146875Q30.896875 29.56875 31.81875 29.56875Q32.740623 29.56875 33.44375 29.178125Q34.1625 28.771875 34.490623 28.084375Q34.740623 27.5375 34.740623 26.490625L34.740623 25.9125ZM38.7875 30.6L38.7875 21.271875L40.209373 21.271875L40.209373 22.56875Q40.646873 21.896875 41.365623 21.475Q42.1 21.053125 43.0375 21.053125Q44.06875 21.053125 44.725 21.490625Q45.396873 21.9125 45.6625 22.69375Q46.771873 21.053125 48.553123 21.053125Q49.94375 21.053125 50.678123 21.834375Q51.428123 22.6 51.428123 24.19375L51.428123 30.6L49.865623 30.6L49.865623 24.725Q49.865623 23.771875 49.709373 23.35Q49.553123 22.928125 49.146873 22.678125Q48.740623 22.428125 48.19375 22.428125Q47.209373 22.428125 46.553123 23.084375Q45.9125 23.740625 45.9125 25.178125L45.9125 30.6L44.334373 30.6L44.334373 24.5375Q44.334373 23.475 43.94375 22.959375Q43.553123 22.428125 42.678123 22.428125Q42.00625 22.428125 41.44375 22.7875Q40.88125 23.13125 40.615623 23.803125Q40.365623 24.475 40.365623 25.75625L40.365623 30.6L38.7875 30.6ZM58.88125 29.44375Q58.00625 30.19375 57.178123 30.50625Q56.365623 30.81875 55.44375 30.81875Q53.896873 30.81875 53.06875 30.06875Q52.25625 29.303125 52.25625 28.13125Q52.25625 27.459375 52.56875 26.896875Q52.88125 26.31875 53.38125 25.975Q53.88125 25.63125 54.521873 25.459375Q54.990623 25.334375 55.928123 25.225Q57.834373 24.990625 58.740623 24.678125Q58.75625 24.35 58.75625 24.25625Q58.75625 23.303125 58.303123 22.896875Q57.69375 22.365625 56.50625 22.365625Q55.38125 22.365625 54.85 22.75625Q54.31875 23.146875 54.06875 24.146875L52.521873 23.928125Q52.740623 22.928125 53.209373 22.31875Q53.69375 21.709375 54.6 21.38125Q55.521873 21.053125 56.740623 21.053125Q57.928123 21.053125 58.678123 21.334375Q59.428123 21.615625 59.771873 22.053125Q60.13125 22.475 60.271873 23.115625Q60.35 23.521875 60.35 24.584375L60.35 26.69375Q60.35 28.896875 60.44375 29.490625Q60.553123 30.06875 60.85 30.6L59.19375 30.6Q58.94375 30.1 58.88125 29.44375ZM58.740623 25.9125Q57.88125 26.271875 56.1625 26.50625Q55.19375 26.646875 54.7875 26.834375Q54.38125 27.00625 54.1625 27.35Q53.94375 27.678125 53.94375 28.1Q53.94375 28.725 54.4125 29.146875Q54.896873 29.56875 55.81875 29.56875Q56.740623 29.56875 57.44375 29.178125Q58.1625 28.771875 58.490623 28.084375Q58.740623 27.5375 58.740623 26.490625L58.740623 25.9125ZM62.178123 26.725L62.178123 25.146875L67.0375 25.146875L67.0375 26.725L62.178123 26.725ZM70.7875 23.615625Q69.80312 23.25625 69.31875 22.584375Q68.85 21.9125 68.85 20.990625Q68.85 19.584375 69.85 18.63125Q70.86562 17.6625 72.55312 17.6625Q74.24062 17.6625 75.25625 18.646875Q76.2875 19.615625 76.2875 21.021875Q76.2875 21.928125 75.81875 22.6Q75.35 23.25625 74.39687 23.615625Q75.58437 24.00625 76.19375 24.865625Q76.81875 25.725 76.81875 26.9125Q76.81875 28.56875 75.64687 29.69375Q74.475 30.81875 72.56875 30.81875Q70.6625 30.81875 69.49062 29.69375Q68.33437 28.553125 68.33437 26.865625Q68.33437 25.615625 68.95937 24.771875Q69.6 23.9125 70.7875 23.615625ZM70.45937 20.928125Q70.45937 21.85 71.05312 22.428125Q71.64687 23.00625 72.58437 23.00625Q73.49062 23.00625 74.06875 22.428125Q74.6625 21.85 74.6625 21.021875Q74.6625 20.146875 74.05312 19.553125Q73.45937 18.959375 72.56875 18.959375Q71.6625 18.959375 71.05312 19.5375Q70.45937 20.115625 70.45937 20.928125ZM69.95937 26.88125Q69.95937 27.553125 70.27187 28.19375Q70.6 28.81875 71.225 29.178125Q71.86562 29.521875 72.6 29.521875Q73.725 29.521875 74.45937 28.7875Q75.20937 28.053125 75.20937 26.928125Q75.20937 25.7875 74.44375 25.053125Q73.67812 24.303125 72.5375 24.303125Q71.42812 24.303125 70.69375 25.0375Q69.95937 25.771875 69.95937 26.88125ZM78.9125 30.6L78.9125 17.709375L83.75625 17.709375Q85.225 17.709375 86.11562 18.1Q87.00625 18.490625 87.50625 19.303125Q88.02187 20.115625 88.02187 21.00625Q88.02187 21.834375 87.56875 22.56875Q87.13125 23.303125 86.225 23.740625Q87.39687 24.084375 88.02187 24.9125Q88.64687 25.740625 88.64687 26.865625Q88.64687 27.771875 88.25625 28.553125Q87.88125 29.31875 87.31875 29.740625Q86.75625 30.1625 85.9125 30.38125Q85.06875 30.6 83.83437 30.6L78.9125 30.6ZM80.63125 23.13125L83.4125 23.13125Q84.5375 23.13125 85.0375 22.975Q85.69375 22.7875 86.02187 22.35Q86.35 21.896875 86.35 21.209375Q86.35 20.56875 86.0375 20.084375Q85.725 19.6 85.14687 19.428125Q84.58437 19.240625 83.19375 19.240625L80.63125 19.240625L80.63125 23.13125ZM80.63125 29.084375L83.83437 29.084375Q84.6625 29.084375 84.99062 29.021875Q85.58437 28.9125 85.975 28.6625Q86.36562 28.4125 86.61562 27.94375Q86.88125 27.475 86.88125 26.865625Q86.88125 26.146875 86.50625 25.615625Q86.14687 25.084375 85.49062 24.865625Q84.83437 24.646875 83.6 24.646875L80.63125 24.646875L80.63125 29.084375ZM98.80312 34.38125Q97.50625 32.740623 96.6 30.521875Q95.69375 28.303125 95.69375 25.928125Q95.69375 23.834375 96.36562 21.928125Q97.1625 19.69375 98.80312 17.490625L99.94375 17.490625Q98.88125 19.31875 98.5375 20.1Q98.00625 21.31875 97.69375 22.63125Q97.31875 24.2875 97.31875 25.94375Q97.31875 30.1625 99.94375 34.38125L98.80312 34.38125ZM103.24062 30.6L101.77187 30.6L101.77187 17.709375L103.36562 17.709375L103.36562 22.31875Q104.36562 21.053125 105.9125 21.053125Q106.77187 21.053125 107.5375 21.4125Q108.31875 21.75625 108.80312 22.38125Q109.30312 23.00625 109.58437 23.896875Q109.86562 24.7875 109.86562 25.7875Q109.86562 28.19375 108.67812 29.50625Q107.50625 30.81875 105.83437 30.81875Q104.19375 30.81875 103.24062 29.428125L103.24062 30.6ZM103.225 25.865625Q103.225 27.5375 103.67812 28.2875Q104.42812 29.50625 105.70937 29.50625Q106.74062 29.50625 107.49062 28.615625Q108.25625 27.709375 108.25625 25.928125Q108.25625 24.1 107.52187 23.225Q106.80312 22.35 105.77187 22.35Q104.74062 22.35 103.975 23.25625Q103.225 24.1625 103.225 25.865625ZM112.1625 30.6L112.1625 22.490625L110.77187 22.490625L110.77187 21.271875L112.1625 21.271875L112.1625 20.271875Q112.1625 19.334375 112.33437 18.88125Q112.55312 18.25625 113.13125 17.88125Q113.70937 17.490625 114.75625 17.490625Q115.4125 17.490625 116.225 17.646875L115.99062 19.0375Q115.49062 18.94375 115.05312 18.94375Q114.33437 18.94375 114.0375 19.25625Q113.74062 19.553125 113.74062 20.396875L113.74062 21.271875L115.55312 21.271875L115.55312 22.490625L113.74062 22.490625L113.74062 30.6L112.1625 30.6ZM122.30312 30.6L120.725 30.6L120.725 20.521875Q120.14687 21.06875 119.225 21.615625Q118.30312 22.146875 117.55312 22.428125L117.55312 20.896875Q118.88125 20.271875 119.88125 19.38125Q120.88125 18.490625 121.2875 17.6625L122.30312 17.6625L122.30312 30.6ZM134.55313 20.865625L132.99063 20.990625Q132.77188 20.06875 132.38126 19.646875Q131.74063 18.959375 130.80313 18.959375Q130.05313 18.959375 129.475 19.38125Q128.725 19.928125 128.2875 20.975Q127.86562 22.021875 127.85 23.959375Q128.42813 23.084375 129.24063 22.6625Q130.06876 22.240625 130.975 22.240625Q132.56876 22.240625 133.67813 23.4125Q134.7875 24.56875 134.7875 26.4125Q134.7875 27.63125 134.25626 28.678125Q133.74063 29.709375 132.81876 30.271875Q131.9125 30.81875 130.75626 30.81875Q128.77188 30.81875 127.52187 29.365625Q126.27187 27.9125 126.27187 24.56875Q126.27187 20.834375 127.6625 19.13125Q128.86563 17.6625 130.89688 17.6625Q132.42813 17.6625 133.39688 18.521875Q134.36563 19.365625 134.55313 20.865625ZM128.1 26.428125Q128.1 27.240625 128.44376 27.990625Q128.7875 28.740625 129.4125 29.13125Q130.0375 29.521875 130.725 29.521875Q131.725 29.521875 132.44376 28.709375Q133.1625 27.896875 133.1625 26.50625Q133.1625 25.178125 132.44376 24.4125Q131.74063 23.63125 130.6625 23.63125Q129.58438 23.63125 128.83438 24.4125Q128.1 25.178125 128.1 26.428125ZM137.81876 34.38125L136.69376 34.38125Q139.31876 30.1625 139.31876 25.94375Q139.31876 24.2875 138.94376 22.6625Q138.64688 21.35 138.1 20.13125Q137.75626 19.334375 136.69376 17.490625L137.81876 17.490625Q139.475 19.69375 140.27188 21.928125Q140.94376 23.834375 140.94376 25.928125Q140.94376 28.303125 140.0375 30.521875Q139.13126 32.740623 137.81876 34.38125ZM147.19376 25.928125Q147.19376 23.334375 148.64688 22.084375Q149.85 21.053125 151.56876 21.053125Q153.50626 21.053125 154.725 22.31875Q155.94376 23.584375 155.94376 25.803125Q155.94376 27.6 155.39688 28.63125Q154.86563 29.6625 153.83438 30.240625Q152.80313 30.81875 151.56876 30.81875Q149.61563 30.81875 148.39688 29.56875Q147.19376 28.303125 147.19376 25.928125ZM148.81876 25.928125Q148.81876 27.725 149.6 28.615625Q150.38126 29.50625 151.56876 29.50625Q152.75626 29.50625 153.5375 28.615625Q154.31876 27.709375 154.31876 25.88125Q154.31876 24.146875 153.52188 23.25625Q152.74063 22.365625 151.56876 22.365625Q150.38126 22.365625 149.6 23.25625Q148.81876 24.146875 148.81876 25.928125ZM157.7875 30.6L157.7875 21.271875L159.20938 21.271875L159.20938 22.6Q160.24063 21.053125 162.17813 21.053125Q163.02188 21.053125 163.725 21.365625Q164.44376 21.6625 164.7875 22.1625Q165.14688 22.646875 165.2875 23.31875Q165.36563 23.75625 165.36563 24.865625L165.36563 30.6L163.7875 30.6L163.7875 24.928125Q163.7875 23.959375 163.6 23.475Q163.42813 22.990625 162.94376 22.709375Q162.475 22.428125 161.85 22.428125Q160.83438 22.428125 160.1 23.06875Q159.36563 23.709375 159.36563 25.50625L159.36563 30.6L157.7875 30.6ZM178.30313 30.6L176.725 30.6L176.725 20.521875Q176.14688 21.06875 175.225 21.615625Q174.30313 22.146875 173.55313 22.428125L173.55313 20.896875Q174.88126 20.271875 175.88126 19.38125Q176.88126 18.490625 177.2875 17.6625L178.30313 17.6625L178.30313 30.6ZM186.725 30.6L190.14688 25.740625L186.99063 21.271875L188.95938 21.271875L190.39688 23.459375Q190.80313 24.084375 191.05313 24.50625Q191.42813 23.9125 191.75626 23.475L193.33438 21.271875L195.225 21.271875L191.99063 25.6625L195.475 30.6L193.52188 30.6L191.61563 27.69375L191.1 26.9125L188.64688 30.6L186.725 30.6ZM199.56876 30.6L204.52188 17.709375L206.36563 17.709375L211.63126 30.6L209.69376 30.6L208.19376 26.69375L202.80313 26.69375L201.38126 30.6L199.56876 30.6ZM203.2875 25.303125L207.6625 25.303125L206.31876 21.740625Q205.69376 20.115625 205.39688 19.06875Q205.1625 20.303125 204.70938 21.521875L203.2875 25.303125ZM217.30313 30.6L215.725 30.6L215.725 20.521875Q215.14688 21.06875 214.225 21.615625Q213.30313 22.146875 212.55313 22.428125L212.55313 20.896875Q213.88126 20.271875 214.88126 19.38125Q215.88126 18.490625 216.2875 17.6625L217.30313 17.6625L217.30313 30.6ZM221.35 24.240625Q221.35 21.959375 221.81876 20.56875Q222.2875 19.178125 223.20938 18.428125Q224.14688 17.6625 225.55313 17.6625Q226.58438 17.6625 227.36563 18.084375Q228.14688 18.490625 228.64688 19.2875Q229.1625 20.06875 229.45938 21.209375Q229.75626 22.334375 229.75626 24.240625Q229.75626 26.50625 229.2875 27.9125Q228.81876 29.303125 227.88126 30.06875Q226.95938 30.81875 225.55313 30.81875Q223.67813 30.81875 222.61563 29.490625Q221.35 27.88125 221.35 24.240625ZM222.975 24.240625Q222.975 27.4125 223.70938 28.475Q224.45938 29.521875 225.55313 29.521875Q226.63126 29.521875 227.38126 28.475Q228.13126 27.4125 228.13126 24.240625Q228.13126 21.06875 227.38126 20.021875Q226.63126 18.975 225.5375 18.975Q224.44376 18.975 223.7875 19.896875Q222.975 21.06875 222.975 24.240625ZM231.35 24.240625Q231.35 21.959375 231.81876 20.56875Q232.2875 19.178125 233.20938 18.428125Q234.14688 17.6625 235.55313 17.6625Q236.58438 17.6625 237.36563 18.084375Q238.14688 18.490625 238.64688 19.2875Q239.1625 20.06875 239.45938 21.209375Q239.75626 22.334375 239.75626 24.240625Q239.75626 26.50625 239.2875 27.9125Q238.81876 29.303125 237.88126 30.06875Q236.95938 30.81875 235.55313 30.81875Q233.67813 30.81875 232.61563 29.490625Q231.35 27.88125 231.35 24.240625ZM232.975 24.240625Q232.975 27.4125 233.70938 28.475Q234.45938 29.521875 235.55313 29.521875Q236.63126 29.521875 237.38126 28.475Q238.13126 27.4125 238.13126 24.240625Q238.13126 21.06875 237.38126 20.021875Q236.63126 18.975 235.5375 18.975Q234.44376 18.975 233.7875 19.896875Q232.975 21.06875 232.975 24.240625ZM242.24063 30.6L242.24063 28.803125L244.0375 28.803125L244.0375 30.6L242.24063 30.6ZM251.9125 30.6L251.9125 17.709375L253.63126 17.709375L253.63126 29.084375L259.975 29.084375L259.975 30.6L251.9125 30.6ZM261.19376 25.928125Q261.19376 23.334375 262.64688 22.084375Q263.85 21.053125 265.56876 21.053125Q267.50626 21.053125 268.725 22.31875Q269.94376 23.584375 269.94376 25.803125Q269.94376 27.6 269.39688 28.63125Q268.86563 29.6625 267.83438 30.240625Q266.80313 30.81875 265.56876 30.81875Q263.61563 30.81875 262.39688 29.56875Q261.19376 28.303125 261.19376 25.928125ZM262.81876 25.928125Q262.81876 27.725 263.6 28.615625Q264.38126 29.50625 265.56876 29.50625Q266.75626 29.50625 267.5375 28.615625Q268.31876 27.709375 268.31876 25.88125Q268.31876 24.146875 267.52188 23.25625Q266.74063 22.365625 265.56876 22.365625Q264.38126 22.365625 263.6 23.25625Q262.81876 24.146875 262.81876 25.928125ZM273.50626 30.6L270.64688 21.271875L272.2875 21.271875L273.77188 26.646875L274.33438 28.6625Q274.36563 28.50625 274.80313 26.725L276.30313 21.271875L277.92813 21.271875L279.31876 26.678125L279.7875 28.459375L280.31876 26.6625L281.92813 21.271875L283.45938 21.271875L280.5375 30.6L278.89688 30.6L277.4125 25.00625L277.05313 23.4125L275.1625 30.6L273.50626 30.6ZM291.17813 27.6L292.81876 27.803125Q292.42813 29.225 291.38126 30.021875Q290.33438 30.81875 288.70938 30.81875Q286.6625 30.81875 285.45938 29.553125Q284.25626 28.2875 284.25626 26.00625Q284.25626 23.6625 285.45938 22.365625Q286.67813 21.053125 288.61563 21.053125Q290.49063 21.053125 291.67813 22.334375Q292.86563 23.6 292.86563 25.9125Q292.86563 26.053125 292.85 26.334375L285.89688 26.334375Q285.975 27.88125 286.75626 28.69375Q287.55313 29.50625 288.70938 29.50625Q289.58438 29.50625 290.19376 29.053125Q290.81876 28.6 291.17813 27.6ZM285.975 25.0375L291.19376 25.0375Q291.08438 23.865625 290.6 23.271875Q289.83438 22.35 288.63126 22.35Q287.55313 22.35 286.80313 23.084375Q286.06876 23.81875 285.975 25.0375ZM294.77188 30.6L294.77188 21.271875L296.19376 21.271875L296.19376 22.678125Q296.74063 21.69375 297.19376 21.38125Q297.6625 21.053125 298.20938 21.053125Q299.02188 21.053125 299.83438 21.56875L299.30313 23.0375Q298.70938 22.69375 298.13126 22.69375Q297.61563 22.69375 297.19376 23.00625Q296.7875 23.31875 296.61563 23.865625Q296.35 24.709375 296.35 25.709375L296.35 30.6L294.77188 30.6ZM305.9125 30.6L305.9125 17.709375L307.63126 17.709375L307.63126 29.084375L313.975 29.084375L313.975 30.6L305.9125 30.6ZM321.88126 29.44375Q321.00626 30.19375 320.17813 30.50625Q319.36563 30.81875 318.44376 30.81875Q316.89688 30.81875 316.06876 30.06875Q315.25626 29.303125 315.25626 28.13125Q315.25626 27.459375 315.56876 26.896875Q315.88126 26.31875 316.38126 25.975Q316.88126 25.63125 317.52188 25.459375Q317.99063 25.334375 318.92813 25.225Q320.83438 24.990625 321.74063 24.678125Q321.75626 24.35 321.75626 24.25625Q321.75626 23.303125 321.30313 22.896875Q320.69376 22.365625 319.50626 22.365625Q318.38126 22.365625 317.85 22.75625Q317.31876 23.146875 317.06876 24.146875L315.52188 23.928125Q315.74063 22.928125 316.20938 22.31875Q316.69376 21.709375 317.6 21.38125Q318.52188 21.053125 319.74063 21.053125Q320.92813 21.053125 321.67813 21.334375Q322.42813 21.615625 322.77188 22.053125Q323.13126 22.475 323.27188 23.115625Q323.35 23.521875 323.35 24.584375L323.35 26.69375Q323.35 28.896875 323.44376 29.490625Q323.55313 30.06875 323.85 30.6L322.19376 30.6Q321.94376 30.1 321.88126 29.44375ZM321.74063 25.9125Q320.88126 26.271875 319.1625 26.50625Q318.19376 26.646875 317.7875 26.834375Q317.38126 27.00625 317.1625 27.35Q316.94376 27.678125 316.94376 28.1Q316.94376 28.725 317.4125 29.146875Q317.89688 29.56875 318.81876 29.56875Q319.74063 29.56875 320.44376 29.178125Q321.1625 28.771875 321.49063 28.084375Q321.74063 27.5375 321.74063 26.490625L321.74063 25.9125ZM329.24063 29.178125L329.475 30.584375Q328.80313 30.725 328.27188 30.725Q327.4125 30.725 326.92813 30.459375Q326.45938 30.178125 326.27188 29.740625Q326.08438 29.2875 326.08438 27.865625L326.08438 22.490625L324.9125 22.490625L324.9125 21.271875L326.08438 21.271875L326.08438 18.959375L327.64688 18.00625L327.64688 21.271875L329.24063 21.271875L329.24063 22.490625L327.64688 22.490625L327.64688 27.959375Q327.64688 28.63125 327.725 28.834375Q327.81876 29.021875 328.00626 29.13125Q328.19376 29.240625 328.55313 29.240625Q328.80313 29.240625 329.24063 29.178125ZM337.17813 27.6L338.81876 27.803125Q338.42813 29.225 337.38126 30.021875Q336.33438 30.81875 334.70938 30.81875Q332.6625 30.81875 331.45938 29.553125Q330.25626 28.2875 330.25626 26.00625Q330.25626 23.6625 331.45938 22.365625Q332.67813 21.053125 334.61563 21.053125Q336.49063 21.053125 337.67813 22.334375Q338.86563 23.6 338.86563 25.9125Q338.86563 26.053125 338.85 26.334375L331.89688 26.334375Q331.975 27.88125 332.75626 28.69375Q333.55313 29.50625 334.70938 29.50625Q335.58438 29.50625 336.19376 29.053125Q336.81876 28.6 337.17813 27.6ZM331.975 25.0375L337.19376 25.0375Q337.08438 23.865625 336.6 23.271875Q335.83438 22.35 334.63126 22.35Q333.55313 22.35 332.80313 23.084375Q332.06876 23.81875 331.975 25.0375ZM340.7875 30.6L340.7875 21.271875L342.20938 21.271875L342.20938 22.6Q343.24063 21.053125 345.17813 21.053125Q346.02188 21.053125 346.725 21.365625Q347.44376 21.6625 347.7875 22.1625Q348.14688 22.646875 348.2875 23.31875Q348.36563 23.75625 348.36563 24.865625L348.36563 30.6L346.7875 30.6L346.7875 24.928125Q346.7875 23.959375 346.6 23.475Q346.42813 22.990625 345.94376 22.709375Q345.475 22.428125 344.85 22.428125Q343.83438 22.428125 343.1 23.06875Q342.36563 23.709375 342.36563 25.50625L342.36563 30.6L340.7875 30.6ZM356.88126 27.178125L358.42813 27.38125Q358.17813 28.990625 357.13126 29.9125Q356.08438 30.81875 354.55313 30.81875Q352.63126 30.81875 351.45938 29.56875Q350.30313 28.303125 350.30313 25.975Q350.30313 24.459375 350.80313 23.334375Q351.30313 22.19375 352.31876 21.63125Q353.35 21.053125 354.55313 21.053125Q356.08438 21.053125 357.0375 21.834375Q358.00626 22.6 358.2875 24.00625L356.74063 24.240625Q356.52188 23.303125 355.95938 22.834375Q355.4125 22.35 354.61563 22.35Q353.42813 22.35 352.67813 23.209375Q351.92813 24.06875 351.92813 25.928125Q351.92813 27.803125 352.64688 28.6625Q353.36563 29.50625 354.5375 29.50625Q355.45938 29.50625 356.08438 28.94375Q356.70938 28.365625 356.88126 27.178125ZM359.70938 34.19375L359.5375 32.709373Q360.05313 32.85 360.44376 32.85Q360.975 32.85 361.2875 32.678123Q361.6 32.50625 361.80313 32.178123Q361.95938 31.94375 362.2875 31.00625Q362.33438 30.865625 362.42813 30.615625L358.89688 21.271875L360.6 21.271875L362.5375 26.678125Q362.9125 27.69375 363.20938 28.834375Q363.49063 27.740625 363.86563 26.709375L365.86563 21.271875L367.44376 21.271875L363.89688 30.75625Q363.31876 32.303123 363.00626 32.88125Q362.58438 33.6625 362.0375 34.021873Q361.49063 34.38125 360.74063 34.38125Q360.27188 34.38125 359.70938 34.19375ZM373.80313 19.5375L373.80313 17.709375L375.38126 17.709375L375.38126 19.5375L373.80313 19.5375ZM373.80313 30.6L373.80313 21.271875L375.38126 21.271875L375.38126 30.6L373.80313 30.6ZM377.14688 27.81875L378.725 27.56875Q378.85 28.50625 379.44376 29.00625Q380.05313 29.50625 381.13126 29.50625Q382.225 29.50625 382.75626 29.06875Q383.2875 28.615625 383.2875 28.021875Q383.2875 27.490625 382.81876 27.178125Q382.49063 26.975 381.19376 26.646875Q379.45938 26.209375 378.7875 25.896875Q378.11563 25.56875 377.75626 25.00625Q377.4125 24.428125 377.4125 23.740625Q377.4125 23.115625 377.69376 22.584375Q377.99063 22.053125 378.475 21.709375Q378.85 21.428125 379.49063 21.240625Q380.13126 21.053125 380.85 21.053125Q381.95938 21.053125 382.7875 21.38125Q383.61563 21.69375 384.00626 22.240625Q384.4125 22.771875 384.55313 23.678125L383.00626 23.88125Q382.89688 23.1625 382.39688 22.75625Q381.89688 22.35 380.975 22.35Q379.88126 22.35 379.4125 22.709375Q378.94376 23.06875 378.94376 23.553125Q378.94376 23.865625 379.14688 24.115625Q379.33438 24.365625 379.74063 24.5375Q379.99063 24.615625 381.14688 24.94375Q382.81876 25.38125 383.475 25.678125Q384.14688 25.959375 384.52188 26.50625Q384.9125 27.053125 384.9125 27.85Q384.9125 28.646875 384.44376 29.35Q383.99063 30.053125 383.11563 30.44375Q382.24063 30.81875 381.14688 30.81875Q379.31876 30.81875 378.36563 30.06875Q377.4125 29.303125 377.14688 27.81875ZM391.9125 30.6L391.9125 17.709375L396.75626 17.709375Q398.225 17.709375 399.11563 18.1Q400.00626 18.490625 400.50626 19.303125Q401.02188 20.115625 401.02188 21.00625Q401.02188 21.834375 400.56876 22.56875Q400.13126 23.303125 399.225 23.740625Q400.39688 24.084375 401.02188 24.9125Q401.64688 25.740625 401.64688 26.865625Q401.64688 27.771875 401.25626 28.553125Q400.88126 29.31875 400.31876 29.740625Q399.75626 30.1625 398.9125 30.38125Q398.06876 30.6 396.83438 30.6L391.9125 30.6ZM393.63126 23.13125L396.4125 23.13125Q397.5375 23.13125 398.0375 22.975Q398.69376 22.7875 399.02188 22.35Q399.35 21.896875 399.35 21.209375Q399.35 20.56875 399.0375 20.084375Q398.725 19.6 398.14688 19.428125Q397.58438 19.240625 396.19376 19.240625L393.63126 19.240625L393.63126 23.13125ZM393.63126 29.084375L396.83438 29.084375Q397.6625 29.084375 397.99063 29.021875Q398.58438 28.9125 398.975 28.6625Q399.36563 28.4125 399.61563 27.94375Q399.88126 27.475 399.88126 26.865625Q399.88126 26.146875 399.50626 25.615625Q399.14688 25.084375 398.49063 24.865625Q397.83438 24.646875 396.6 24.646875L393.63126 24.646875L393.63126 29.084375ZM410.17813 27.6L411.81876 27.803125Q411.42813 29.225 410.38126 30.021875Q409.33438 30.81875 407.70938 30.81875Q405.6625 30.81875 404.45938 29.553125Q403.25626 28.2875 403.25626 26.00625Q403.25626 23.6625 404.45938 22.365625Q405.67813 21.053125 407.61563 21.053125Q409.49063 21.053125 410.67813 22.334375Q411.86563 23.6 411.86563 25.9125Q411.86563 26.053125 411.85 26.334375L404.89688 26.334375Q404.975 27.88125 405.75626 28.69375Q406.55313 29.50625 407.70938 29.50625Q408.58438 29.50625 409.19376 29.053125Q409.81876 28.6 410.17813 27.6ZM404.975 25.0375L410.19376 25.0375Q410.08438 23.865625 409.6 23.271875Q408.83438 22.35 407.63126 22.35Q406.55313 22.35 405.80313 23.084375Q405.06876 23.81875 404.975 25.0375ZM417.24063 29.178125L417.475 30.584375Q416.80313 30.725 416.27188 30.725Q415.4125 30.725 414.92813 30.459375Q414.45938 30.178125 414.27188 29.740625Q414.08438 29.2875 414.08438 27.865625L414.08438 22.490625L412.9125 22.490625L412.9125 21.271875L414.08438 21.271875L414.08438 18.959375L415.64688 18.00625L415.64688 21.271875L417.24063 21.271875L417.24063 22.490625L415.64688 22.490625L415.64688 27.959375Q415.64688 28.63125 415.725 28.834375Q415.81876 29.021875 416.00626 29.13125Q416.19376 29.240625 416.55313 29.240625Q416.80313 29.240625 417.24063 29.178125ZM422.24063 29.178125L422.475 30.584375Q421.80313 30.725 421.27188 30.725Q420.4125 30.725 419.92813 30.459375Q419.45938 30.178125 419.27188 29.740625Q419.08438 29.2875 419.08438 27.865625L419.08438 22.490625L417.9125 22.490625L417.9125 21.271875L419.08438 21.271875L419.08438 18.959375L420.64688 18.00625L420.64688 21.271875L422.24063 21.271875L422.24063 22.490625L420.64688 22.490625L420.64688 27.959375Q420.64688 28.63125 420.725 28.834375Q420.81876 29.021875 421.00626 29.13125Q421.19376 29.240625 421.55313 29.240625Q421.80313 29.240625 422.24063 29.178125ZM430.17813 27.6L431.81876 27.803125Q431.42813 29.225 430.38126 30.021875Q429.33438 30.81875 427.70938 30.81875Q425.6625 30.81875 424.45938 29.553125Q423.25626 28.2875 423.25626 26.00625Q423.25626 23.6625 424.45938 22.365625Q425.67813 21.053125 427.61563 21.053125Q429.49063 21.053125 430.67813 22.334375Q431.86563 23.6 431.86563 25.9125Q431.86563 26.053125 431.85 26.334375L424.89688 26.334375Q424.975 27.88125 425.75626 28.69375Q426.55313 29.50625 427.70938 29.50625Q428.58438 29.50625 429.19376 29.053125Q429.81876 28.6 430.17813 27.6ZM424.975 25.0375L430.19376 25.0375Q430.08438 23.865625 429.6 23.271875Q428.83438 22.35 427.63126 22.35Q426.55313 22.35 425.80313 23.084375Q425.06876 23.81875 424.975 25.0375ZM433.77188 30.6L433.77188 21.271875L435.19376 21.271875L435.19376 22.678125Q435.74063 21.69375 436.19376 21.38125Q436.6625 21.053125 437.20938 21.053125Q438.02188 21.053125 438.83438 21.56875L438.30313 23.0375Q437.70938 22.69375 437.13126 22.69375Q436.61563 22.69375 436.19376 23.00625Q435.7875 23.31875 435.61563 23.865625Q435.35 24.709375 435.35 25.709375L435.35 30.6L433.77188 30.6ZM440.24063 30.6L440.24063 28.803125L442.0375 28.803125L442.0375 30.6L440.24063 30.6Z" fill-rule="nonzero"/></svg>